<svg xmlns="http://www.w3.org/2000/svg" xml:space="preserve" viewBox="0 0 826.147 143.16">
  <path style="fill:#00adef;fill-opacity:1;fill-rule:nonzero;stroke:none" d="M163.84 956.793c118.898 47.687 234.383 100.657 412.879 51.757 164.429-45.058 296.769-210.03 286.488-372.655-6.996-110.688-53.449-209.614-120.633-251.313-17.629-11.242-34.703-19.773-51.414-26.769 55.246 34.382 97.176 88.914 115.028 149.644 56.75 193.023-64.559 375.551-248.821 424.867-271.879 72.766-460.84-92.488-538.12-305.691C9.09 591.199 2.066 555.051.714 527.949-6.54 374.391 42.129 259.973 116.898 163.848 69.223 282.73 16.254 398.223 65.144 576.719c45.051 164.429 210.036 296.781 372.653 286.5 110.687-7.008 209.621-53.457 251.32-120.641 11.231-17.609 19.766-34.687 26.762-51.387-34.383 55.235-88.918 97.157-149.637 115.004-193.031 56.746-375.562-64.558-424.875-248.824-72.77-271.879 92.496-460.844 305.692-538.11C482.488 9.083 518.641 2.072 545.75.72 699.301-6.531 813.715 42.14 909.84 116.91 790.961 69.219 675.469 16.25 496.98 65.16c-164.441 45.047-296.781 210.012-286.5 372.649 7.008 110.687 53.45 209.609 120.633 251.312 17.617 11.231 34.696 19.766 51.395 26.762-55.242-34.383-97.164-88.918-115.004-149.641-56.754-193.031 64.547-375.551 248.824-424.875 271.871-72.758 460.844 92.5 538.112 305.692 10.18 35.441 17.19 71.582 18.54 98.695 7.24 153.559-41.42 267.965-116.199 364.098 47.689-118.879 100.669-234.375 51.759-412.872-45.06-164.429-210.02-296.769-372.657-286.488-110.688 6.996-209.613 53.442-251.305 120.633-11.23 17.617-19.773 34.684-26.762 51.383 34.375-55.231 88.911-97.156 149.629-115.004 193.024-56.754 375.551 64.566 424.868 248.828 72.777 271.879-92.481 460.84-305.68 538.118-35.434 10.17-71.586 17.18-98.688 18.53-153.566 7.25-267.972-41.42-364.105-116.187m373-592.301c-92.582 0-167.637 77.172-167.637 172.36 0 7.39 1.235 14.441 2.11 21.593 15.808 45.137 56.054 65.805 76.792 67.285 48.258 3.454 76.915-51.21 53.774-79.968-50.293-62.535 22.875-143.91 97.891-70.449 63.425 62.101 35.855 150.417 22.066 178.015-8.223 16.461-26.477 35.942-46.895 51 74.153-17.797 129.543-85.824 129.543-167.476 0-95.188-75.062-172.36-167.644-172.36" transform="matrix(.13333 0 0 -.13333 0 143.16)"/>
  <path style="fill:currentColor;fill-opacity:1;fill-rule:nonzero;stroke:none" d="M4601.2 452.422c25.02 25.48 37.54 61.789 37.54 108.902 0 49.684-12.82 88.235-38.45 115.68-25.64 27.422-67.15 41.137-124.52 41.137H4319.2c-30.53 0-56.3-4.207-77.37-12.582-21.05-8.399-38.45-20.18-52.18-35.332-13.74-15.172-23.66-33.086-29.75-53.723-6.12-20.668-9.16-42.926-9.16-66.797V375.465c0-24.535 3.04-46.949 9.16-67.277 6.09-20.333 16.01-38.09 29.75-53.243 13.73-15.172 31.13-26.957 52.18-35.332 21.07-8.394 46.84-12.586 77.37-12.586h248.72v.028c26.1 0 47.25 22.363 47.25 49.953 0 27.586-21.15 49.949-47.25 49.949l-248.72-.223c-26.86 0-45.93 6.61-57.22 19.848-11.3 13.219-16.94 30.156-16.94 50.813v36.789h229.82c59.19 0 101.3 12.738 126.34 38.238m-57.68 103.094c0-18.723-5.35-33.563-16.03-44.528-10.67-10.98-29.15-16.461-55.39-16.461h-227.06v54.211c0 19.996 5.64 36.789 16.94 50.34 11.29 13.551 30.36 20.324 57.22 20.324h155.66c23.8 0 41.19-5.808 52.18-17.425 10.99-11.61 16.48-27.102 16.48-46.461M6158.59 452.422c25.02 25.48 37.54 61.789 37.54 108.902 0 49.684-12.82 88.235-38.45 115.68-25.64 27.422-67.15 41.137-124.52 41.137h-156.57c-30.53 0-56.3-4.207-77.37-12.582-21.05-8.399-38.45-20.18-52.18-35.332-13.74-15.172-23.66-33.086-29.75-53.723-6.12-20.668-9.16-42.926-9.16-66.797V375.465c0-24.535 3.04-46.949 9.16-67.277 6.09-20.333 16.01-38.09 29.75-53.243 13.73-15.172 31.13-26.957 52.18-35.332 21.07-8.394 46.84-12.586 77.37-12.586h248.72v.028c26.1 0 47.25 22.363 47.25 49.953 0 27.586-21.15 49.949-47.25 49.949l-248.72-.223c-26.86 0-45.93 6.61-57.21 19.848-11.31 13.219-16.95 30.156-16.95 50.813v36.789h229.82c59.19 0 101.3 12.738 126.34 38.238m-57.68 103.094c0-18.723-5.35-33.563-16.03-44.528-10.67-10.98-29.15-16.461-55.39-16.461h-227.06v54.211c0 19.996 5.64 36.789 16.95 50.34 11.28 13.551 30.35 20.324 57.21 20.324h155.66c23.8 0 41.19-5.808 52.18-17.425 10.99-11.61 16.48-27.102 16.48-46.461M1839.84 309.637v240.062c0 23.871-3.06 46.141-9.16 66.797-6.1 20.649-16.01 38.555-29.75 53.727-13.73 15.16-31.29 26.945-52.65 35.34-21.37 8.375-47.01 12.582-76.9 12.582h-244.27c-25.71 0-46.56-22.04-46.56-49.231 0-27.184 20.85-49.223 46.56-49.223l243.35-.285c26.85 0 45.93-6.773 57.22-20.336 11.29-13.55 16.94-30.34 16.94-50.336v-38.718h-229.81c-29.91 0-55.25-3.387-75.99-10.164-20.76-6.774-37.54-16.457-50.35-29.032-12.83-12.593-22.13-27.929-27.93-45.992-5.81-18.07-8.7-38.719-8.7-61.945 0-48.403 12.66-86.496 38-114.231 25.32-27.757 66.67-41.629 124.06-41.629h226.15c20.14 0 36.76 1.934 49.9 5.809 13.11 3.875 23.34 9.832 30.66 17.914 7.33 8.055 12.37 18.539 15.11 31.453 2.75 12.906 4.12 28.715 4.12 47.438m-95.22 23.238c0-17.43-8.85-26.145-26.55-26.145h-203.26c-24.42 0-41.81 5.641-52.18 16.946-10.39 11.277-15.57 26.281-15.57 45.015 0 18.707 5.18 33.391 15.57 44.039 10.37 10.653 28.38 15.973 54.01 15.973h227.98v-95.828M5595.06 299.473c5.79 19.027 8.69 39.843 8.69 62.441 0 19.996-2.44 38.719-7.32 56.137-4.89 17.433-13.59 32.586-26.09 45.504-12.52 12.906-29.62 23.234-51.28 30.976-21.67 7.742-49.29 11.617-82.86 11.617h-113.53c-26.87 0-45.01 4.676-54.48 14.04-9.47 9.343-14.18 23.058-14.18 41.128 0 19.36 4.87 33.887 14.64 43.571 9.76 9.676 25.93 14.515 48.52 14.515h267.35v98.743h-268.26c-56.16 0-96.44-13.407-120.86-40.176-24.41-26.785-36.62-63.086-36.62-108.91 0-19.348 2.43-38.075 7.33-56.137 4.88-18.078 13.57-34.051 26.09-47.914 12.5-13.891 29.45-24.856 50.81-32.918 21.36-8.074 48.83-12.098 82.4-12.098h114.46c24.4 0 41.96-4.355 52.64-13.07 10.67-8.711 16.02-23.395 16.02-44.039 0-20.016-4.89-34.375-14.64-43.082-9.78-8.711-25.95-13.074-48.54-13.074h-281.07V207.02h281.07c28.07 0 52.2 3.878 72.34 11.617 20.14 7.754 36.62 18.394 49.44 31.945 12.82 13.559 22.12 29.844 27.93 48.891m-678.9 319.929h170.29v98.743h-198.68c-47.61 0-81.34-11.95-101.17-35.821-19.84-23.879-29.75-61.633-29.75-113.265V207.02h97.04v346.554c0 43.883 20.75 65.828 62.27 65.828M3914.53 262.199l186.78 455.946h-104.37l-167.56-410.442c-4.28-10.328-12.82-15.492-25.63-15.492-12.22 0-20.15 5.164-23.81 15.492L3618.8 718.145h-102.54l177.62-455.946c9.16-23.879 22.73-40.984 40.74-51.301 18-10.312 41.04-15.484 69.13-15.484 27.47 0 50.19 5.008 68.21 15.004 18 9.988 32.18 27.25 42.57 51.781m-1199.4 357.203h170.3v98.743h-198.68c-47.61 0-81.34-11.95-101.17-35.821-19.85-23.879-29.76-61.633-29.76-113.265V207.02h97.05v346.554c0 43.883 20.74 65.828 62.26 65.828m-386.37 0h133.67v98.743h-133.67v120.996h-97.97V718.145h-65.93v-98.743h65.93V383.207c0-33.562 2.75-61.633 8.24-84.223 5.49-22.589 14.03-40.652 25.64-54.203 11.58-13.558 26.39-23.234 44.4-29.043 18-5.808 39.51-8.718 64.55-8.718h86.98v93.906h-66.84c-23.21 0-39.82 5.48-49.89 16.461-10.07 10.965-15.11 30.976-15.11 60.011zM1977.18 207.02h97.05v732.796h-97.05V207.02M3458.46 309.637v240.062c0 23.871-3.06 46.141-9.16 66.797-6.1 20.649-16.02 38.555-29.75 53.727-13.74 15.16-31.29 26.945-52.65 35.34-21.37 8.375-47.01 12.582-76.9 12.582h-244.27c-25.71 0-46.56-22.04-46.56-49.231 0-27.184 20.85-49.223 46.56-49.223l243.35-.285c26.85 0 45.92-6.773 57.22-20.336 11.29-13.55 16.94-30.34 16.94-50.336v-38.718h-229.81c-29.91 0-55.25-3.387-75.99-10.164-20.76-6.774-37.54-16.457-50.36-29.032-12.82-12.593-22.13-27.929-27.93-45.992-5.81-18.07-8.7-38.719-8.7-61.945 0-48.403 12.67-86.496 38-114.231 25.33-27.757 66.68-41.629 124.07-41.629h226.14c20.14 0 36.77 1.934 49.91 5.809 13.11 3.875 23.34 9.832 30.66 17.914 7.33 8.055 12.36 18.539 15.11 31.453 2.75 12.906 4.12 28.715 4.12 47.438m-95.22 23.238c0-17.43-8.85-26.145-26.55-26.145h-203.26c-24.42 0-41.81 5.641-52.19 16.946-10.38 11.277-15.56 26.281-15.56 45.015 0 18.707 5.18 33.391 15.56 44.039 10.38 10.653 28.38 15.973 54.02 15.973h227.98v-95.828" transform="matrix(.13333 0 0 -.13333 0 143.16)"/>
</svg>