<svg xmlns="http://www.w3.org/2000/svg" xml:space="preserve" viewBox="0 0 143.16 143.16">
  <path style="fill:#00adef;fill-opacity:1;fill-rule:nonzero;stroke:none" d="M163.84 956.793c118.898 47.687 234.383 100.657 412.879 51.757 164.429-45.058 296.769-210.03 286.488-372.655-6.996-110.688-53.449-209.614-120.633-251.313-17.629-11.242-34.703-19.773-51.414-26.769 55.246 34.382 97.176 88.914 115.028 149.644 56.75 193.023-64.559 375.551-248.821 424.867-271.879 72.766-460.84-92.488-538.12-305.691C9.09 591.199 2.066 555.051.714 527.949-6.54 374.391 42.129 259.973 116.898 163.848 69.223 282.73 16.254 398.223 65.144 576.719c45.051 164.429 210.036 296.781 372.653 286.5 110.687-7.008 209.621-53.457 251.32-120.641 11.231-17.609 19.766-34.687 26.762-51.387-34.383 55.235-88.918 97.157-149.637 115.004-193.031 56.746-375.562-64.558-424.875-248.824-72.77-271.879 92.496-460.844 305.692-538.11C482.488 9.083 518.641 2.072 545.75.72 699.301-6.531 813.715 42.14 909.84 116.91 790.961 69.219 675.469 16.25 496.98 65.16c-164.441 45.047-296.781 210.012-286.5 372.649 7.008 110.687 53.45 209.609 120.633 251.312 17.617 11.231 34.696 19.766 51.395 26.762-55.242-34.383-97.164-88.918-115.004-149.641-56.754-193.031 64.547-375.551 248.824-424.875 271.871-72.758 460.844 92.5 538.112 305.692 10.18 35.441 17.19 71.582 18.54 98.695 7.24 153.559-41.42 267.965-116.199 364.098 47.689-118.879 100.669-234.375 51.759-412.872-45.06-164.429-210.02-296.769-372.657-286.488-110.688 6.996-209.613 53.442-251.305 120.633-11.23 17.617-19.773 34.684-26.762 51.383 34.375-55.231 88.911-97.156 149.629-115.004 193.024-56.754 375.551 64.566 424.868 248.828 72.777 271.879-92.481 460.84-305.68 538.118-35.434 10.17-71.586 17.18-98.688 18.53-153.566 7.25-267.972-41.42-364.105-116.187m373-592.301c-92.582 0-167.637 77.172-167.637 172.36 0 7.39 1.235 14.441 2.11 21.593 15.808 45.137 56.054 65.805 76.792 67.285 48.258 3.454 76.915-51.21 53.774-79.968-50.293-62.535 22.875-143.91 97.891-70.449 63.425 62.101 35.855 150.417 22.066 178.015-8.223 16.461-26.477 35.942-46.895 51 74.153-17.797 129.543-85.824 129.543-167.476 0-95.188-75.062-172.36-167.644-172.36" transform="matrix(.13333 0 0 -.13333 0 143.16)"/>
</svg>