<svg xmlns="http://www.w3.org/2000/svg" viewBox="0 0 703.024 321.388">
  <path fill="#e63329" d="M632.744 201.801 50.376 234.718 14.173 14.173 652.294 57.26 632.744 201.8z"/>
  <path fill="#5692ce" d="m377.388 307.214 311.463-19.612-20.478-114.334h-355.53l64.545 133.947z"/>
  <path d="m399.037 188.112.564.053c-.119 7.667.615 10.348 1.045 17.939.426 7.57 1.837 15.505 4.577 21.547 2.719-1.2 3.352-4.643 4.315-7.352 2.935-8.228 5.694-18.579 8.331-27.443 4.136.518 6.65 2.368 9.57 3.882 1.383 5.873 3.596 13.05 3 19.873-.61 6.999-.924 14.145-1.812 20.83-.295 2.232-.015 4.493-.577 6.578-.567 2.113-2.107 4.292-2.84 6.657-.76 2.452-.985 5.318-1.791 7.572-1.057 2.973-3.192 5.773-4.437 8.723-1.389 3.286-3.107 10.354-4.142 13.44-1.54.014-4.396-2.396-5.434-3.62 2.684-15.683 5.324-36.56 6.908-53.536-1.273 5.5-5.13 11.483-7.34 16.797-1.794 4.306-5.124 11.978-8.686 11.743-4.302-.624-7.221-14.185-8.4-18.782-1.05 7.425-1.195 11.539-1.925 19.917-1.104 12.687 1.533 25.583-4.058 33.481-11.695-23.767-8.256-54.928-2.345-87.274 2.286-2.471 9.927-3.587 9.902-8.752 1.95-.652 3.625-1.614 5.575-2.273m71 3.202c3.346 11.542 4.75 27.32 4.315 41.753.658.686 2.348-.314 3.687.017-.172 4.776.173 9.507-1.524 13.652-.972 2.383-3.145 4.211-3.913 6.4-1.295 3.725.079 7.685-1.36 11.834-.941 2.712-4.895 4.452-6.287 6.8.172 3.854-4.43 5.745-7.174 6.419 1.163-7.616 1.047-15.932 1.037-23.504-4.832-.27-8.663.546-12.82 1.016-2.396 5.44-2.196 13.662-4.356 19.227-.342.881-1.386 1.634-1.903 2.593-.618 1.142-3.343 3.797-5.854 2.86-1.286-8.2 3.07-16.703 2.834-24.887-.144-5.036-4.151-9.62-3.079-14.671 1.624-.665 6.625-.906 8.717-1.072 2.195-11.373 1.27-22.902 3.42-34.328 2.22-2.9 4.949-5.259 7.394-7.93.11-1.982-.363-3.515-.552-5.258 2.515-1.59 8.777-2.34 12.54-2.578 1.834-.27 1.185 1.364 1.834 2.004 1.141.022 1.665-.63 3.044-.348m-19.459 46.459c4.152-.806 7.03-1.725 11.272-2.433-.498-9.184-.297-18.892-2.354-26.872-4.716 8.3-6.52 18.49-8.918 29.305m111.648-46.002c3.02 7.017 9.617 11.219 13.082 17.882-.402.774-.552 1.844-.59 3.032-.762 1.07-3.59-3.076-4.788-3.534-13.216 8.005-24.93 22.714-28.138 41.95 12.184 1.468 15.837-3.837 20.5-14.94 2.32 1.442 4.857 2.696 6.271 5.44 2.565 4.96 1.195 14.875.856 23.523-.216 5.606-.677 11.542-2.443 14.91-5.879-4.287-8.095-12.34-7.722-24.104-3.35 2.114-5.961 14.822-17.296 13.427-3.885-.483-5.136-4.447-6.91-8.4-2.456-8.41-3.375-14.841-1.917-24.351 2.841-18.443 15.468-38.147 25.28-46.093 1.341.95 1.667 2.236 3.815 1.258m-38.845-3.895c.288-.029 4.164 1.649 4.167 1.843 4.543 11.31-1.405 43.161-4.754 66.32-1.103 7.604-4.706 15.173-9.008 20.485-7.566-4.757-9.172-13.969-11.106-22.833-1.402-6.384-2.97-12.593-3.681-18.437-1.976 9.739-3.346 21.72-4.798 32.409-.467 3.436-.075 7.174-2.179 9.82-1.784-.432-4.725-2.925-5.735-4.941-.887-1.76-2.606-3.895-2.84-5.569-.358-2.521.303-6.284.504-9.658.947-15.282 2.038-33.39 3.97-49.4.75-6.186 3.856-12.401 7.948-15.885 2.982 1.496 6.265 2.769 9.275 4.255.264 1.907-.975 4.798-.624 7.143.295 1.979 2.891 3.719 3.496 5.625.929 2.935.364 7.221.706 11.012.922 10.225 2.248 18.384 4.101 27.979 1.029-7.221 3.396-13.925 4.81-24.561 1.84-13.928 2.123-17.089 5.748-35.607m83.424 1.55c3.424.837 9.234.598 11.006 3.292 1.078 11.473 1.768 23.221 1.229 35.867 1.191.577 3.242.527 4.954.73-.706 6.604-1.806 12.806-6.67 15.111-1.852 6.469-.802 12.1-2.558 17.8-1.402 4.553-7.478 7.47-7.466 12.718-1.834.408-6.51.94-8.698.975 1.562-10.334 5.807-18.938 6.557-30.113-5.387-.015-9.805 2.016-14.54 2.671-2.242 6.41-1.78 14.919-4.16 20.851-.317.794-.907 1.333-1.509 1.9-.7.957.204 3.566-1.627 3.353-2.267-.035-4.29-2.876-4.258-3.863.197-6.466.868-14.117 1.48-20.808-3.158-2.574-3.108-7.478-3.653-11.946 1.2-1.173 2.89-1.838 4.882-2.189 2.236-11.423 5.569-21.698 7.892-33.03 2.135-2.94 9.184-4.32 11.244-7.149 1.587-2.173 2.104-5.315 5.895-6.17m-13.48 44.546c4.5-1.323 9.228-1.972 13.17-3.872-.383-8.639-1.907-16.9-3.782-24.46-3.703 9.365-7.077 17.508-9.388 28.332M642.07 252.44c-1.624.407-6.86 1.526-8.093 1.323 2.239-12.894 3.092-32.503 5.409-45.877 1.267-7.321.872-4.725.928-12.278.015-2.38-.574-5.544.01-7.269.769-2.248 7.472-2.762 9.27-4.13 3.317 2.566 7.33 7.228 7.28 12.559-.078 8.488-1.508 7.958-3.891 17.835-.972 4.029-1.885 8.632-2.697 13.138-.85 4.737-1.477 13.821-2.85 16.452-1.593 3.057-6.25 3.537-5.365 8.246M644.321 260.651c.687 4.487.511 12.047-1.411 16.152-5.625-.687-10.984 2-13.081 5.249-3.352-8.482 3.025-23.52 14.492-21.4M101.057 173.221v.025c-15.813-.14-28.286-13.61-28.377-30.352h-.028v-24.962h.05c.013-18.01 12.408-29.082 28.139-29.082l.323.01v-.025h10.92v6.124h13.734v-9.504h-.04V73.957h-24.68v.06l-.637-.013c-25.436 0-44.465 18.858-44.603 43.666h-.015v25.225h-.035c.091 25.477 18.406 45.227 45.234 45.227l.078-.005v-.012h193.466v-14.881h-193.53zm415.166-23.913h5.506c1.794 0 2.819-1.004 2.819-2.769v-72.6h15.104l34.475 49.447c3.58 5.155 7.554 12.586 7.554 12.586h.257s-.903-7.431-.903-12.586V82.505c0-5.923 2.565-8.566 8.717-8.566h19.619v13.965h-8.733c-1.793 0-2.822 1.01-2.822 2.772v72.594h-14.981l-34.598-49.322c-3.58-5.03-7.554-12.58-7.554-12.58h-.254s.897 7.425.897 12.58v40.765c0 6.043-2.562 8.557-8.707 8.557h-16.396v-13.962zM448.7 87.905h-11.125V73.94h57.76c6.026 0 8.71 2.644 8.71 8.564v13.583h-15.239v-5.41c0-1.764-1.022-2.77-2.815-2.77h-20.504v23.403h29.462v13.966h-29.462v21.265c0 1.762 1.029 2.769 2.826 2.769h21.01c1.788 0 2.81-1.007 2.81-2.77v-5.408h15.249v13.58c0 6.045-2.69 8.56-8.717 8.56h-41.242c-6.152 0-8.723-2.515-8.723-8.56V87.905zm-137.553 2.772c0-1.765-1.029-2.772-2.822-2.772h-5.503V73.94h16.396c6.145 0 8.71 2.643 8.71 8.563v64.037c0 1.762 1.029 2.769 2.816 2.769H350.6c1.794 0 2.816-1.007 2.816-2.769v-5.409h15.242v13.58c0 6.046-2.565 8.557-8.704 8.557H319.85c-6.14 0-8.704-2.511-8.704-8.557V90.677zm-83.562 72.592h16.782v-33.34h8.456c4.744 0 6.657.63 8.592 4.152l11.645 22.525c2.957 5.66 5.892 6.663 12.686 6.663h8.843v-13.962h-1.675c-2.815 0-4.988-.254-6.402-2.894l-8.836-17.24c-1.66-3.27-4.478-4.53-4.478-4.53v-.248c3.835-.759 15.107-7.425 15.107-23.529 0-16.863-11.652-26.928-28.308-26.928h-42.129v13.966h9.717v75.366zm16.782-47.431V87.903h13.577c8.2 0 13.194 5.04 13.194 13.844 0 8.936-4.995 14.09-13.445 14.09h-13.326zm-120.005 33.47h5.311c2.173 0 3.202-.502 3.967-2.769l27.031-72.6h17.544l26.906 72.6c.771 2.267 1.787 2.769 3.973 2.769h4.778v13.962h-12.724c-6.403 0-8.717-1.633-10.755-7.293l-5.64-15.593h-30.745l-5.634 15.593c-2.048 5.66-4.233 7.293-10.636 7.293h-13.376v-13.962zm56.552-22.52-7.82-22.4c-1.661-4.904-3.587-13.342-3.587-13.342h-.254s-1.919 8.438-3.587 13.342l-7.813 22.4h23.061zm231.68-28.116h15.114v-8.41c0-12.877-16.396-17.85-27.026-17.85-17.559 0-30.367 10.837-30.367 25.495 0 10.276 5.929 16.622 13.16 21.3l2.038 1.251c12.66 9.488 29.954 10.197 29.954 20.682 0 5.738-5.632 9.692-13.32 9.692-6.017 0-12.044-2.803-12.044-7.014v-2.634h-15.12v6.97c0 12.878 16.403 17.848 27.032 17.848 17.559 0 30.358-10.836 30.358-25.495 0-10.272-5.694-16.619-12.918-21.3l-1.038-.79c-12.661-9.488-31.192-10.66-31.192-21.14 0-5.741 5.631-9.689 13.326-9.689 6.01 0 12.043 2.8 12.043 7.011v4.073z" fill="#FFF"/>
</svg>