<svg xmlns="http://www.w3.org/2000/svg" viewBox="0 0 965.59 154.18">
  <path fill="#df6300" d="M-13.5 132.54c-7.49-1.5-13.51-7.22-15.71-14.94-.68-2.37-.7-7.66-.06-10.06a22.23 22.23 0 0 1 7.3-11.1 21.09 21.09 0 0 1 17.6-3.73 18.7 18.7 0 0 1 9.05 5.17c3.24 3.2 4.97 6.24 5.81 10.21.44 2.1.36 2.7-.15 1.12C8.51 103.55 3.4 98.86-2.6 97.33a22 22 0 0 0-8.53 0c-2.51.58-5.33 2-7.35 3.68-2.06 1.72-3.1 3-4.33 5.25A18.19 18.19 0 0 0-13 132.13c.91.34 1.66.66 1.66.71 0 .13-.05.12-2.16-.3zm163.95.09c-.09-.22-.12-1.4-.08-2.62l.08-2.23 1.98-.13c2.1-.14 3-.48 3.43-1.3.26-.48-1.27-4.76-4.21-11.8-1.38-3.3-2.92-7.37-2.92-7.72 0-.27.7-.35 2.98-.35h2.99l1.4 3.77c2.37 6.37 2.76 7.35 2.96 7.35.25 0 .99-1.86 2.74-6.88l1.42-4.1 2.81-.08c2.42-.06 2.8-.02 2.8.34 0 .24-1.05 3.19-2.34 6.56l-3.88 10.2c-1.82 4.8-2.76 6.46-4.3 7.63-1.37 1.04-2.4 1.34-5.41 1.57-1.9.15-2.33.11-2.45-.21zM-9.9 130.27c-2.49-.5-5.51-2.2-7.5-4.21a15.06 15.06 0 0 1-4-14.7c2.24-8.76 12.2-13.75 20.51-10.28l.98.41-.63.42c-2.3 1.54-3.43 3.37-3.6 5.9a6.5 6.5 0 0 0 2.23 5.57 6.25 6.25 0 0 0 4.71 1.93 6.5 6.5 0 0 0 4.54-1.45l1-.8.22.75c.12.4.14 1.52.06 2.46a15.1 15.1 0 0 1-4.02 9.28 14.18 14.18 0 0 1-10.53 4.89c-1.45.05-3.24-.02-3.97-.17zm42.47-4.58c-4.53-1-8.25-4.27-9.95-8.76-.75-1.98-.7-6.85.11-8.89a13.7 13.7 0 0 1 6.35-7.2 11.86 11.86 0 0 1 7.03-1.44 12.7 12.7 0 0 1 9.67 5.16c1.33 1.72 1.25 1.9-1.3 3.18-1.24.62-2.39 1.1-2.55 1.06-.17-.04-.7-.6-1.2-1.25-3.1-4.09-9.38-3.38-12 1.35-.7 1.26-.8 1.67-.79 3.67 0 1.72.13 2.53.56 3.46 2.13 4.63 7.94 5.85 11.45 2.41.7-.68 1.4-1.47 1.54-1.74.25-.47.41-.43 2.82.71 1.4.67 2.55 1.32 2.55 1.45 0 .55-1.75 2.8-3 3.86a13.44 13.44 0 0 1-5.97 2.96c-2.07.44-3.35.44-5.32 0zm37.77-.04a8.19 8.19 0 0 1-4.2-2.16c-2.27-2.05-2.6-3.49-2.61-10.99v-6.02H69.31l.08 6.15c.08 5.9.11 6.2.69 7 1.02 1.44 3.39 1.77 5.04.7 1.2-.77 1.37-1.74 1.37-8.02v-5.83h5.82v6.17c0 7.3-.17 8.16-2.02 10.22-1.45 1.62-2.7 2.3-5.09 2.81-2.13.45-2.89.45-4.86-.03zm44.75.03a10.53 10.53 0 0 1-6.76-5.47c-.68-1.29-.75-1.68-.75-4.07 0-2.3.09-2.83.69-4.1 1.42-3 4.16-5.14 7.44-5.81 3.53-.72 7.59.9 9.73 3.9.57.8.98 1.55.9 1.67-.17.28-4.03 2.1-4.43 2.08-.17 0-.55-.38-.84-.83-1.7-2.65-6.2-2.27-7.71.66a6.45 6.45 0 0 0-.03 4.55 4.46 4.46 0 0 0 4.17 2.51c1.47 0 2.35-.41 3.46-1.61l.98-1.06 2.29 1.06 2.3 1.06-.41.77a12.45 12.45 0 0 1-3.88 3.76c-1.33.68-3.81 1.32-5 1.29-.5-.01-1.48-.18-2.15-.36zm76.46.02c-1.9-.56-3.9-1.76-5.02-3.04a9.85 9.85 0 0 1 3.39-15.69c5.02-2.27 11.01 0 13.4 5.07 1.9 4 .55 9.23-3.07 11.9-2.35 1.72-6.16 2.49-8.7 1.76zm4.71-5.37c1.4-.66 2.3-2.2 2.4-4.15.1-1.42.01-1.77-.62-2.73-1.93-2.93-6.18-2.94-7.89-.02a5 5 0 0 0 1.25 6.58c.86.62 1.33.76 2.5.76.8 0 1.85-.2 2.36-.44zm-146.76-4.32v-9.53h5.56v1.33c0 .72.1 1.32.21 1.32.12 0 .48-.36.8-.8a4.74 4.74 0 0 1 3.96-1.8l1.23.09.1 1.8c.05 1 .02 2.22-.07 2.72-.17.9-.18.9-1.62.9-2.12 0-3.2.54-3.82 1.9-.45 1-.52 1.76-.52 6.37v5.22h-5.82zm36.05.07.07-9.46 2.84-.08 2.85-.07v1.06c0 .59.06 1.07.14 1.07.09 0 .69-.41 1.35-.91 3.96-3.02 9.89-.98 11.34 3.91.3 1.02.4 2.82.4 7.63v6.3h-5.8l-.08-6.2c-.07-5.8-.11-6.24-.63-6.94-1.5-2.03-4.69-1.95-6 .14-.56.92-.6 1.26-.66 6.92l-.06 5.95-2.92.08-2.91.07zm43.33-3.52V99.59l2.84.07 2.85.08.07 4.3c.04 2.36.17 4.3.3 4.3.12 0 .5-.23.85-.5 1.45-1.13 2.45-1.46 4.46-1.47 1.66 0 2.22.11 3.35.7.75.4 1.78 1.21 2.3 1.81 1.7 1.99 1.85 2.78 1.96 10.1l.1 6.55h-2.9c-2.4 0-2.93-.07-3.06-.42-.09-.23-.16-2.97-.16-6.1 0-6.3-.12-6.87-1.64-7.66-1.05-.54-2.98-.52-3.83.03-.35.23-.87.8-1.15 1.27-.48.77-.52 1.36-.52 6.86v6.02h-5.82zm42.07 3.45v-9.53h5.55v1.33c0 1.46.3 1.66.96.65a5.15 5.15 0 0 1 4.04-1.98h1.37l-.08 2.72-.07 2.7-1.13.05c-1.97.06-2.86.34-3.6 1.12-1.02 1.06-1.22 2.2-1.21 6.77v4.83l-.01.86h-5.82zm39.95 9.21a5.17 5.17 0 0 1-3.22-2.79l-.62-1.26V99.74l2.81-.08 2.82-.07.13.87c.08.47.08 4.61 0 9.2-.16 9.36-.03 10.46 1.2 10.73.4.09.86.2 1.05.26.23.07.33.81.33 2.5v2.38l-1.79-.02c-.98-.01-2.2-.14-2.71-.29zm10.2-.02c-1.31-.34-3.1-2.11-3.51-3.48-.22-.72-.32-4.2-.34-11.58l-.01-10.54h5.83v9.88c0 10.83-.03 10.66 1.6 11l.91.18.08 2.44.07 2.43-1.8-.02c-.98-.02-2.25-.15-2.82-.3z" transform="matrix(3.77953 0 0 3.77953 112.39 -348.21)"/>
</svg>
