<svg xmlns="http://www.w3.org/2000/svg" viewBox="0 0 52 52">
  <path fill="#ff5e00" d="
    M7.81735 28.8732C7.82968 17.2231 17.2848 7.78652 28.9349 7.79885C40.0886 7.81118 49.2108 16.4771 49.9568 27.4366C49.9846 26.968 50 26.4963 50 26.0247C50.0123 12.7684 39.2809 2.01234 26.0247 2.00001C12.7684 1.98768 2.01234 12.7222 2.00001 25.9753C1.98768 39.2316 12.7222 49.9877 25.9753 50C26.5241 50 27.0667 49.9815 27.6062 49.9476C16.5542 49.2724 7.80502 40.0917 7.81735 28.8732Z
    M40.3846 29.1846C35.8559 29.1815 32.1873 25.5037 32.1935 20.9749C32.1965 17.4235 34.4594 14.4023 37.6193 13.2647C35.1191 11.9453 32.2705 11.1961 29.2432 11.1931C19.2948 11.1838 11.2208 19.2393 11.2116 29.1877C11.2023 39.136 19.2578 47.21 29.2062 47.2193C39.1545 47.2285 47.2285 39.173 47.2378 29.2216C47.2378 28.0933 47.136 26.9927 46.9387 25.9198C45.4405 27.9021 43.0636 29.1846 40.3846 29.1815V29.1846Z
  " />
</svg>
