<svg xmlns="http://www.w3.org/2000/svg" viewBox="0 0 1063.022 1951.732">
  <path style="fill:currentColor;stroke-width:.264583" d="M22.997 406.36c-8.994-1.597-15.329-6.46-17.035-13.077-.551-2.137-.558-6.318-.014-8.664 1.12-4.826 4.35-8.82 9.198-11.37 4.87-2.563 10.022-3.385 17.397-2.778 3.392.28 10.583 1.407 11.13 1.745.17.105-.89 4.085-1.242 4.67-.06.101-1.09-.283-2.287-.853-3.54-1.687-6.598-2.404-10.908-2.558-2.83-.1-4.126-.033-5.49.288-6.715 1.577-9.995 6.38-10.049 14.714-.033 5.09 1.131 8.637 3.684 11.226 1.649 1.673 2.803 2.38 5.302 3.244 1.866.646 2.408.712 5.892.709 2.11-.003 4.7-.155 5.754-.34l1.919-.335v-5.01c0-5.799.376-5.153-3.444-5.91-3.291-.65-3.171-.59-3.171-1.617v-.909h19.05v.916c0 .995.18.899-3.307 1.764-.582.144-1.267.323-1.522.397-.423.123-.463.65-.463 6.18v6.045l-1.383.297c-6.53 1.4-14.963 1.944-19.01 1.225zm108.324-.267c-8.692-1.651-14.83-6.688-16.63-13.647-.627-2.42-.425-7.41.392-9.716 2.132-6.02 8.056-10.542 15.89-12.13 3.038-.615 9.046-.414 12.026.403 7.418 2.034 12.721 6.847 14.334 13.01.54 2.065.597 6.172.112 8.168-.832 3.423-2.792 6.538-5.634 8.95-2.067 1.754-6.238 3.821-9.201 4.56-2.882.719-8.557.92-11.289.402zm8.45-2.923c5.221-1.107 8.56-4.925 9.61-10.989 1.082-6.257-.432-12.45-3.837-15.699-2.578-2.458-5.099-3.35-9.465-3.35-4.168 0-7.152 1.034-9.609 3.332-3.052 2.855-4.602 8.457-3.953 14.282.822 7.368 4.057 11.188 10.7 12.636 1.2.261 4.882.142 6.554-.212zm-175.49 1.872c0-.494.153-.957.34-1.028.187-.072 1.556-.344 3.043-.604l2.702-.473V374.258l-1.653-.31c-4.781-.895-4.432-.756-4.432-1.758v-.903l17.445-.07 17.446-.07.083 2.315.083 2.315-.794-.134c-2.975-.506-14.146-1.582-18.719-1.804l-2.05-.1V386.36H-.794v2.911H-22.225v6.887c0 5.778.062 6.911.384 7.035.543.208 5.952-.304 14.428-1.368 4-.502 7.303-.913 7.342-.913.039 0 .07 1.132.07 2.514v2.514H-35.72Zm85.13.748c-.11-.112-.199-.582-.199-1.046v-.843l2.941-.555c1.618-.305 2.99-.604 3.05-.663.06-.06 1.297-6.882 2.75-15.161 1.451-8.279 2.709-15.383 2.793-15.788l.153-.736 3.055.074 3.055.075 6.381 12.626c3.51 6.945 6.471 12.6 6.581 12.567.11-.032 3.341-5.714 7.18-12.626l6.981-12.567 2.668-.075c2.59-.074 2.672-.058 2.805.529.076.332 1.388 7.384 2.917 15.671 1.53 8.287 2.87 15.155 2.98 15.263.109.107 1.33.386 2.712.62 3.52.597 3.44.56 3.44 1.612v.908H91.81v-.92c0-.742.116-.947.595-1.05.328-.07 1.608-.323 2.845-.562 1.237-.239 2.287-.47 2.333-.513.047-.044-.779-5.342-1.835-11.774-1.58-9.626-1.977-11.617-2.245-11.25-.18.245-3.456 6.21-7.282 13.257l-6.956 12.812H76.86l-3.278-6.415c-8.603-16.834-10.147-19.801-10.248-19.7-.06.06-1.006 5.266-2.103 11.568-1.353 7.776-1.903 11.514-1.71 11.633.155.097 1.412.388 2.792.648l2.509.472v1.796l-6.284.003c-3.456 0-6.88.073-7.607.16-.728.086-1.412.065-1.521-.047zm134.87-12.996-14.022-13.106-.069 11.315c-.038 6.223-.006 11.378.072 11.456.077.077 1.537.387 3.244.688l3.103.548v1.848l-7.871.07-7.872.07v-2.024l2.712-.516 2.712-.517.068-16.07.069-16.07h4.631l10.448 9.818c5.747 5.4 11.85 11.13 13.56 12.733l3.112 2.914-.069-11.075-.069-11.075-3.109-.504-3.109-.504v-2.043h15.114l-.082.99-.083.99-2.38.542-2.382.542-.068 16.063-.068 16.063-1.784-.02-1.784-.02-14.023-13.106zm33.206 11.718v-.898l3.175-.585 3.175-.585v-14.4c0-12.805-.046-14.418-.413-14.559-.751-.288-11.291 1.193-13.676 1.922-.417.127-.463-.096-.463-2.258v-2.399h36.248v4.677l-3.109-.609c-3.845-.752-9.526-1.494-10.548-1.377l-.763.087-.068 14.272c-.038 7.85.027 14.368.144 14.485.117.117.922.337 1.788.489 4.512.79 4.354.728 4.354 1.73v.906h-19.844zM8.153 301.718c-19.454-.382-35.45-.773-35.545-.87-.095-.095-1.869-15.868-3.94-35.052l-3.767-34.878 1.231-57.496 1.232-57.496-.594-40.003-.594-40.003 3.399-45.244 3.399-45.244-.741-27.384c-.408-15.061-.716-27.415-.685-27.452.03-.037 14.511.503 32.179 1.199l32.124 1.265 51.329-1.38 51.329-1.38 53.24-.017c46.641-.014 53.22.032 53.09.371-.082.213-.53 7.506-.994 16.206l-.844 15.818.914 29.104.914 29.104-2.764 48.948-2.764 48.948 1.705 64.559 1.706 64.558-3.654 46.434c-2.01 25.54-3.682 46.47-3.716 46.512-.034.042-16.679-.63-36.988-1.496l-36.927-1.572-50.353 2.35c-58.455 2.727-51.005 2.612-102.921 1.591zm50.897-41.025c6.336-.812 11.107-1.044 27.69-1.347 21.675-.395 45.433.076 60.823 1.208 2.943.217 5.979.393 6.747.393 1.778 0 2.908-.67 3.675-2.172.526-1.03.636-2.064 1.192-11.189.754-12.367 1.555-23.366 2.233-30.674.641-6.903.643-8.444.015-9.807-.617-1.335-1.406-2.062-3.076-2.831-1.157-.533-1.727-.608-4.626-.602-3.823.008-5.494.44-6.856 1.77-1.724 1.687-1.62.644-2.168 21.48-.276 10.492-.564 19.343-.638 19.669-.075.326-.442.792-.815 1.037-.626.41-1.335.42-9.058.132-22.215-.828-27.144-.9-46.876-.688-10.987.119-21.087.224-22.445.233-2.067.014-2.525-.06-2.81-.45-.267-.365-.384-4.645-.536-19.58-.207-20.432-.186-20.13-1.54-21.581-1.464-1.57-4.365-2.292-8.455-2.107-4.142.187-6.114 1.34-6.836 3.993-.312 1.147-.172 5.613.29 9.315.637 5.093 1.416 18.005 2.123 35.19.308 7.479.346 7.647 1.925 8.61 1.135.692 4.613.691 10.022-.003zm21.007-18.261c5.122-1.145 9.047-1.564 17.904-1.912 6.1-.24 9.581-.236 15.478.015 7.551.32 9.786.566 14.619 1.608 1.382.298 2.992.543 3.576.545 1.491.005 2.791-.77 3.542-2.11.586-1.048.753-2.317 2.162-16.42 1.619-16.217 2.436-21.996 3.593-25.413.853-2.518.713-3.308-.704-3.993-1.807-.873-10.497-1.529-20.371-1.537-2.838-.003-5.963-.08-6.945-.173l-1.786-.169v-3.666c0-3.358.04-3.665.478-3.665 3.3 0 17.838 1.22 28.361 2.382 9.17 1.012 13.354 1.353 17.305 1.408 3.177.045 3.262.031 4.542-.755 2.717-1.67 4.482-5.812 5.024-11.789l.18-1.997-7.638-.322c-27.708-1.166-43.21-1.466-65.98-1.274-21.89.183-31.475.568-41.142 1.65-8.973 1.004-12.367 2.144-14.165 4.757-2.245 3.263-1.277 8.287 1.983 10.298 1.258.776 1.394.8 4.359.775 3.22-.027 9.006-.752 14.594-1.829 4.555-.877 12.112-1.88 17.835-2.364 4.954-.42 14.42-.94 17.105-.94h1.548v7.356l-2.976.15c-1.637.083-6.251.213-10.253.29-7.33.142-11.614.45-13.12.944-.448.147-1.163.631-1.587 1.076-.756.792-.77.861-.718 3.453.029 1.455.232 3.56.452 4.676 1.144 5.816 2.122 15.777 3.072 31.267.313 5.117.68 6.39 2.145 7.432 1.737 1.237 2.92 1.276 7.528.246zm4.14-12.077c-.142-.273-.342-2.237-.444-4.365l-.186-3.87.88-.159c1.092-.198 6.267-.648 9.017-.784l2.05-.102v9.113l-2.315.16c-7.64.529-8.73.53-9.002.007zm30.764.154a892.38 892.38 0 0 1-3.373-.22c-.422-.03-.463-.44-.463-4.597v-4.564l5.622.075c3.092.04 5.905.136 6.25.211.623.136.627.163.456 2.572-.353 4.964-.5 6.046-.874 6.42-.414.414-2.34.44-7.618.103zm-31.99-22.336c-.129-2.485-.097-3.73.1-3.97.547-.657 2.8-.993 7.615-1.133l4.828-.14v7.709l-1.389.137c-.764.075-2.996.268-4.96.429-1.965.16-4.12.359-4.79.44l-1.216.15zm29.146 2.576-.992-.104v-7.64h2.712c4.018.002 10.174.315 10.534.538.234.144.265 1.12.121 3.796l-.192 3.602-5.596-.045c-3.077-.024-6.041-.091-6.587-.148zM51.7 135.789c1.487-.46 2.084-.823 3.223-1.962 1.798-1.798 1.995-2.502 2.997-10.727 1.96-16.082 2.081-18.07 1.204-19.58-1.051-1.808-3.957-2.461-5.59-1.256-1.186.876-1.568 1.388-8.031 10.782-7.434 10.804-8.448 12.775-8.1 15.747.475 4.043 2.833 6.734 6.61 7.544 1.702.364 5.641.083 7.687-.549zm119.087.031c.74-.358 2.163-1.487 3.227-2.56 1.543-1.554 2.155-2.436 3.23-4.65 1.52-3.133 2.314-5.788 2.567-8.584l.177-1.953h-2.087c-2.683 0-10.425-.422-17.168-.934-4.974-.378-18.237-1.653-18.76-1.802-.13-.038 1.404-1.302 3.411-2.809 6.835-5.13 12.515-10.228 12.96-11.627.294-.93-.353-2.1-1.55-2.8-1.493-.872-4.237-1.125-16.17-1.49-10.503-.32-44.046-.135-49.175.272-3.05.242-3.681.501-4.766 1.954-.642.86-.888 3.43-.454 4.744.165.501.663 1.258 1.105 1.682.781.75.893.774 3.896.857 2.014.055 3.97-.064 5.606-.343 1.995-.34 5.897-.478 18.918-.672 15.73-.235 19.781-.18 20.53.283.604.374-.158 1.477-1.911 2.767-.901.664-3.345 2.044-5.43 3.068l-3.793 1.861-4.698-.692c-12.205-1.798-23.413-3.818-27.187-4.9-4.39-1.26-7.075-.216-7.822 3.042-.226.985-.228 1.606-.007 2.428.313 1.16 1.476 2.37 2.49 2.59 2.707.585 12.807 2.953 15.128 3.545l2.91.743-3.042.706c-6.405 1.485-13.408 2.387-21.035 2.709-5.148.217-6.958-.064-7.866-1.22l-.6-.765-1.235.77c-2.786 1.736-4.429 4.219-4.655 7.036-.17 2.109.255 3.327 1.541 4.428 1.96 1.679 4.623 1.99 13.018 1.527 10.612-.586 20.01-2.112 29.695-4.821 3.07-.86 9.322-3.23 11.775-4.466l1.456-.733 6.084 1.833a2608.882 2608.882 0 0 1 16.668 5.123c13.22 4.108 15.304 4.597 19.315 4.532 1.927-.03 2.634-.16 3.704-.679zm-88.37-41.164c8.348-1.112 18.073-1.672 34.3-1.975 13.074-.244 35.935.046 40.312.511 1.31.14 4.259.386 6.554.548 3.856.272 4.245.258 5.142-.188 1.596-.794 1.866-1.422 2.71-6.303 1.022-5.921 1.746-9.214 2.54-11.545 1.138-3.348.764-4.91-1.444-6.037-2.553-1.303-17.782-1.693-59.317-1.52-37.608.156-41.678.33-43.944 1.869-.856.58-.876.638-.853 2.432.015 1.193.263 2.583.707 3.967.87 2.714 1.854 7.396 2.582 12.29.63 4.229 1.022 5.198 2.385 5.886 1.156.583 4.256.607 8.325.065zm10.524-9.248c-.768-.559-1.339-2.54-1.554-5.396-.146-1.924-.105-2.357.247-2.65.521-.432 2.952-.753 7.517-.99 2.916-.153 3.507-.121 3.514.187.004.204.18 2.098.389 4.208.21 2.11.385 3.967.389 4.127.005.185-1.08.355-2.969.467-1.637.097-3.87.244-4.96.326-1.583.12-2.104.063-2.573-.279zm52.402-.39c-2.207-.082-4.098-.235-4.2-.338-.104-.103-.054-1.833.11-3.845.164-2.012.298-3.935.298-4.273v-.615l5.014.095c3.363.063 5.116.197 5.324.405.236.236.237 1.05.003 3.44-.472 4.812-.7 5.434-1.96 5.33-.317-.026-2.382-.115-4.59-.198zm-28.399-4.612v-4.402h10.32V84.471h-3.933c-2.162 0-4.484.076-5.159.168l-1.228.168zm-81.562 8.962c3.206-.679 14.248-3.522 19.061-4.909 6.44-1.854 10.643-5.043 10.643-8.074 0-1.214-1.074-2.29-2.852-2.86-1.787-.573-31.418-1.924-32.725-1.493-2.637.87-5.439 5.917-5.43 9.782.004 2.254 1.82 4.9 4.729 6.893.89.61 2.511 1.286 3.135 1.308.18.007 1.727-.285 3.44-.647zm54.972-23.686c1.76-.425 8.891-1.03 15.478-1.315 12.226-.527 39.76-.213 46.831.535 5.978.632 7 .636 8.24.034.634-.307 1.315-.82 1.512-1.138.198-.318.819-3.804 1.38-7.746 1.273-8.943 2.623-16.532 3.676-20.661l.808-3.175-.557-.46c-1.044-.862-3.763-1.293-11.222-1.782-20.592-1.35-59.074-.927-73.39.806-2.42.293-4.03.961-4.671 1.941-.386.588-.25 1.546 2.002 14.218 1.329 7.473 2.593 14.172 2.81 14.886.481 1.586 1.396 2.975 2.39 3.63.833.55 2.952.652 4.713.227zm12.355-10.221c-.144-.27-.304-1.324-.355-2.343l-.094-1.851 1.588-.178c5.17-.577 13.716-.81 23.944-.654 6.04.093 12.141.245 13.56.337l2.58.169v1.684c0 2.914 1.634 2.655-17.895 2.843-9.294.09-18.286.235-19.982.323-2.827.147-3.107.12-3.346-.33zm-1.776-13.585c-.094-1.093-.228-2.196-.3-2.45-.18-.65.777-.96 4.356-1.404 5.53-.688 13.612-.981 22.111-.802 11.692.247 17.294.727 17.785 1.522.087.141.077 1.29-.023 2.554l-.182 2.297-3.35-.237c-5.628-.397-31.848-.302-36.341.132l-3.886.375-.17-1.987zm-35.045 9.72c1.513-.764 2.373-2.04 2.373-3.52 0-.914-.198-1.38-1.042-2.447C65.22 43.1 54.69 34.94 49.36 31.789c-4.063-2.403-6.41-3.24-9.144-3.258-2.04-.014-2.402.065-3.91.85-2.106 1.097-3.48 2.471-4.452 4.45-.732 1.491-.765 1.717-.755 5.132.012 4.063.453 5.67 2.08 7.57 1.467 1.715 3.199 2.488 6.186 2.763 9.253.85 11.784 1.165 15.8 1.96 5.7 1.13 8.956 1.234 10.724.34zM93.266-11.06c1.9-.56 3.434-.87 6.531-1.32 3.23-.468 2.952.104 2.89-5.961-.031-2.899-.167-6.937-.303-8.975-.136-2.037-.244-5.847-.24-8.466.005-4.168.049-4.663.353-3.964 1.15 2.64 6.652 11.943 10.714 18.119l2.524 3.836.142 3.353c.078 1.843.22 3.43.316 3.525.096.095.929-.068 1.852-.36 2.625-.835 4.444-1.309 6.309-1.644 3.081-.554 2.845.151 2.886-8.63.037-8.123.376-18.223.815-24.29.495-6.829.842-11.098 1.054-12.964.115-1.019.116-1.954 0-2.08-.114-.124-1.142.131-2.283.568-1.142.436-3.266 1.11-4.721 1.498-1.455.387-2.944.79-3.307.894-.606.173-.677.355-.847 2.168-.101 1.088-.304 3.23-.45 4.757-.146 1.528-.4 4.921-.562 7.54-.33 5.306-.443 6.141-.785 5.794-.128-.13-1.64-2.745-3.359-5.811-2.682-4.783-6.574-12.627-8.163-16.453-.555-1.336-.954-1.4-3.561-.569-2.387.762-6.23 1.724-7.773 1.947-.71.103-1.432.24-1.604.306-.236.091-.283 2.88-.193 11.422.115 10.843-.34 32.158-.742 34.78-.273 1.787-.255 1.794 2.507.98zm64.954-.329c9.231-2.054 16.28-7.716 19.495-15.657.47-1.162 1.056-2.259 1.302-2.439.246-.18 1.139-.405 1.984-.5l1.537-.174.25-1.357c.136-.746.44-2.666.675-4.266.235-1.601.502-3.255.595-3.677l.168-.766-1.692.174c-1.816.186-3.146.389-7.91 1.205-1.673.287-3.4.575-3.836.641-.436.066-2.222.375-3.969.687l-4.497.804c-.728.13-2.574.498-4.102.818-1.527.32-3.194.639-3.704.71-.509.07-1.058.233-1.219.362-.161.13-.376 1.545-.477 3.147-.102 1.602-.295 3.592-.43 4.422-.135.83-.15 1.605-.033 1.722.116.117 2.529-.2 5.36-.702 8.724-1.55 8.775-1.548 6.948.226-2.667 2.59-8.928 4.477-12.415 3.74-3.57-.753-6.05-2.848-6.995-5.907-2.098-6.792 2.73-14.693 11.429-18.705 1.063-.49 3.005-1.215 4.315-1.61 4.292-1.294 12.723-1.192 15.299.187.794.425 1.133-.227 1.511-2.907.178-1.264.606-3.415.951-4.78.345-1.364.627-2.625.627-2.802 0-.47-3.834-1.655-6.529-2.016-3.042-.408-9.255-.143-12.389.529-7.26 1.556-13.39 4.788-18.835 9.93-3.94 3.72-7.126 8.77-8.524 13.51-1.912 6.482-1.743 12.074.505 16.763 2.268 4.728 7.145 8.086 13.104 9.021 2.177.342 9.411.132 11.501-.333zm-98.886-.998c.115-.644.646-3.389 1.18-6.1l.971-4.93 1.338-.161c.736-.089 3.198-.162 5.47-.163l4.133-.003.71 2.58c.996 3.622 3.057 10.12 3.21 10.12.395 0 4.256-1.132 5.456-1.599 1.708-.665 5.246-2.647 5.246-2.939 0-.115-.293-.838-.65-1.606-.359-.768-1.038-2.527-1.51-3.91-.752-2.2-.849-2.794-.779-4.762.044-1.237.098-3.202.12-4.366l.04-2.116-1.416-.173c-.779-.095-1.508-.274-1.62-.397-.457-.5-3.71-11.219-3.71-12.22 0-.298-.106-.606-.236-.686-.13-.08-.297-.534-.372-1.008-.075-.474-.803-3.403-1.617-6.508s-1.48-5.86-1.48-6.122c0-.262-.208-.723-.463-1.024-.439-.518-.605-.534-3.24-.31-2.862.244-5.38.886-7.963 2.03l-1.48.656-1.626 4.943c-1.532 4.66-2.374 7.42-3.487 11.426-1.709 6.15-2.395 8.314-2.697 8.505-.188.12-1.712.234-3.385.253-1.674.02-3.4.115-3.837.212-.733.163-.789.255-.73 1.225.034.577.295 2.12.58 3.43s.656 3.255.825 4.323l.307 1.94 1.56-.18c.857-.1 1.56-.115 1.56-.034s-.596 1.967-1.324 4.19c-1.281 3.918-1.48 4.71-1.18 4.71 1.956 0 8.706 1.095 10.309 1.671.582.21 1.175.357 1.318.327.143-.03.354-.58.47-1.224zm4.602-23.726c.479-1.882 2.72-10.117 2.89-10.621.197-.579.382-.212.806 1.598.642 2.742 1.953 9.472 1.953 10.029 0 .48-.202.515-3.018.515H63.55zm135.387 23.812c.09-.69.61-3.489 1.155-6.217l.99-4.961 4.306-.054c2.368-.03 4.81-.06 5.43-.066 1.25-.014 1.031-.381 2.203 3.692 1.476 5.13 2.699 8.711 3.01 8.815.958.32 8.164-2.476 10.028-3.89l.624-.473-.797-1.83c-.438-1.005-1.185-3.061-1.66-4.568-.85-2.7-.858-2.772-.554-5.057.17-1.275.308-2.975.308-3.778 0-1.604-.197-1.776-2.044-1.783-.593-.003-.971-.186-1.238-.6-.41-.636-2.143-6.124-3.237-10.252a397.912 397.912 0 0 0-1.036-3.836c-.203-.728-.972-3.705-1.708-6.615-.737-2.91-1.43-5.649-1.542-6.085l-.201-.794-2.765.039c-2.984.042-6.208.805-8.667 2.052-1.195.605-1.273.718-2.065 2.973-1.27 3.615-3.117 9.569-4.46 14.383-.67 2.4-1.403 5.02-1.628 5.82-.224.8-.5 1.634-.613 1.853-.19.371-1.895.56-6.896.764-1.75.071-1.761.12-.979 4.043.387 1.94.826 4.236.975 5.102.149.867.372 1.677.495 1.8.124.123.783.084 1.465-.088s1.308-.244 1.391-.16c.132.13-.936 3.647-2.206 7.266-.218.623-.337 1.29-.263 1.482.087.227.9.412 2.34.532 2.812.234 6.553.878 7.83 1.347 1.662.61 1.827.54 2.009-.856zm6.22-22.273-2.022-.15 1.549-5.668c1.87-6.848 1.796-6.633 2.1-6.091.275.489 2.38 10.722 2.38 11.569 0 .648.072.642-4.007.34zM.604-16.137c.127-4.597.685-10.701 1.24-13.56.14-.727.52-2.778.844-4.557.324-1.78.613-3.208.644-3.175.03.032.187 1.19.347 2.573.357 3.081.749 5.594 1.28 8.202.223 1.091.5 2.52.616 3.175.536 3.028 2.652 11.095 3.041 11.596.037.047.941-.153 2.01-.446 1.685-.462 3.711-.865 8.022-1.594l1.053-.178.603-2.506c.896-3.72 2.35-9.081 3.84-14.148 2.65-9.02 2.878-9.78 2.956-9.859.044-.044.163 1.8.265 4.096.305 6.909 1.097 15.892 1.732 19.653.135.8.397 2.393.582 3.54l.336 2.083 1.999-.167c2.028-.169 6.454-.945 8.438-1.479.987-.266 1.087-.371 1.087-1.144 0-.469-.122-1.268-.272-1.776-.644-2.19-1.944-8.468-2.793-13.492-1.557-9.217-1.798-11.994-1.815-20.883l-.015-8.05-.902-.368c-1.418-.579-8.527-2.449-9.309-2.449-.387 0-.816.149-.952.33-.559.747-2.673 6.412-4.565 12.238-.757 2.328-1.473 4.471-1.59 4.762-.12.291-.363 1.065-.541 1.72-.34 1.246-.532 1.9-1.004 3.44-.887 2.893-2.966 10.871-2.973 11.407-.008.607-.02.611-.316.102-.169-.291-.409-1.065-.533-1.72-.124-.655-.339-1.756-.478-2.447-1.357-6.757-1.616-8.407-2.484-15.81-.367-3.128-.773-7.451-.901-9.607-.137-2.295-.36-4.045-.539-4.224-.386-.386-3.722.366-9.227 2.08-1.646.512-2.182.793-2.182 1.143 0 .256-.295 1.289-.655 2.296-.57 1.595-1.403 4.398-2.236 7.52-.136.508-.44 1.59-.674 2.405-2.06 7.14-6.44 31.138-5.788 31.712.123.109 1.475.396 3.003.638s3.909.723 5.291 1.07c1.383.346 2.71.642 2.948.658.383.025.45-.54.567-4.8z" transform="matrix(3.77953 0 0 3.77953 135.023 414.687)"/>
</svg>