<svg xmlns="http://www.w3.org/2000/svg" viewBox="0 0 1887.774 956.261">
  <path style="fill:currentColor;stroke-width:.264583" d="M216.16 235.094c-3.932-.698-7.22-2.4-9.954-5.155-2.131-2.147-3.333-4.043-4.27-6.737-1.473-4.237-1.485-4.395-1.607-22.402-.081-11.919-.03-16.874.179-17.264.281-.526.504-.548 5.698-.548 5.074 0 5.422.032 5.68.512.18.337.273 5.909.273 16.255 0 12.924.07 16.078.394 17.615.731 3.476 2.265 5.627 4.898 6.869 1.2.565 1.827.684 3.572.673 4.16-.026 6.742-2.034 8.277-6.438.37-1.062.438-3.423.52-18.011.063-11.441.183-16.899.376-17.132.215-.259 1.536-.343 5.39-.343 2.808 0 5.293.073 5.524.161.375.144.418 1.868.418 16.766 0 20.021-.092 20.899-2.736 26.068-2.096 4.1-6.332 7.417-11.155 8.737-1.892.518-9.307.76-11.477.374zm45.344-.214c-3.046-.555-2.498-.412-7.805-2.034-2.256-.689-4.293-1.417-4.527-1.618-.387-.331-.308-.697.859-3.995 1.54-4.35 2.08-5.615 2.402-5.615.133 0 1.86.484 3.838 1.075 5.007 1.498 8.212 2.128 11.45 2.25 4.35.163 6.848-.683 7.773-2.633 1.005-2.118.294-4.078-2.014-5.553-1.254-.801-2.81-1.456-10.918-4.598-4.074-1.579-6.969-3.21-8.864-4.999-2.862-2.7-3.965-5.457-3.955-9.884.011-4.325 1.186-7.33 3.937-10.063 4.379-4.353 12.14-5.93 21.354-4.34 2.853.493 10.318 2.92 10.508 3.417.082.213-.075.956-.349 1.651-.273.696-1.03 2.694-1.683 4.44-.7 1.872-1.347 3.208-1.577 3.255-.215.044-1.923-.39-3.795-.965-5.844-1.794-9.738-2.267-12.49-1.519-2.629.715-4.012 2.114-4.012 4.06 0 2.327 1.698 3.525 8.479 5.986 5.054 1.834 8.832 3.458 10.917 4.694 4.622 2.739 6.798 6.622 6.798 12.134 0 7.613-3.82 12.51-11.385 14.594-2.896.798-11.2.942-14.94.26zm-304.417-.417c-.154-.155-.25-10.025-.25-25.702 0-22.964.04-25.467.418-25.612.23-.088 2.716-.16 5.524-.16 3.939 0 5.172.08 5.399.353.2.242.315 3.415.363 9.988l.07 9.635h18.785l.07-9.635c.047-6.573.162-9.746.362-9.988.43-.518 10.616-.513 11.046.006.218.263.28 7.204.23 25.731l-.067 25.371H-12.34l-.132-10.583-.132-10.583H-31.39l-.069 10.526c-.053 8.08-.145 10.554-.397 10.642-.692.244-10.815.254-11.057.012zm139.297.04c-.207-.116-.377-.373-.377-.571 0-.198.882-2.722 1.96-5.61 1.077-2.887 2.377-6.38 2.888-7.763 5.275-14.26 6.865-18.68 8.533-23.711 1.8-5.432 2.415-7.489 3.468-11.61.223-.874.594-1.737.825-1.919.311-.246 2.23-.33 7.471-.33 8.003 0 7.582-.116 8.186 2.248 1.452 5.686 4.006 13.64 6.968 21.696 3.701 10.069 5.28 14.34 6.793 18.389 2.8 7.487 3.229 8.787 2.981 9.035-.13.13-2.845.204-6.035.164l-5.799-.071-1.234-2.778-1.235-2.778h-21.332l-1.22 2.778-1.221 2.778-5.622.132c-3.092.073-5.79.037-5.998-.079zm31.638-15.956c0-.555-1.03-3.994-2.248-7.513-1.63-4.705-3.462-10.753-3.727-12.303-.371-2.176-1.23-2.686-1.67-.992-1.31 5.023-1.902 7.013-3.52 11.84-1.86 5.548-2.594 8.02-2.594 8.744 0 .326 1.044.384 6.88.384 3.783 0 6.879-.072 6.879-.16zm164.516 15.838c-.15-.18-.213-.597-.14-.926.072-.328 2.538-7.085 5.479-15.016 6.831-18.423 9.115-25.13 11.122-32.67.309-1.16.688-2.262.841-2.448.214-.257 1.98-.336 7.517-.336 8.259 0 7.622-.193 8.308 2.513 1.777 7.015 4.455 14.919 11.117 32.808 1.626 4.366 3.232 8.712 3.569 9.658.337.946.968 2.685 1.402 3.866.435 1.18.705 2.284.6 2.452-.136.221-1.811.287-5.99.235l-5.803-.071-.529-1.074a72.122 72.122 0 0 1-1.271-2.811l-.742-1.738-10.635.034-10.635.033-.726 1.587c-.399.873-.994 2.124-1.323 2.778l-.597 1.191-5.645.132c-4.314.101-5.71.055-5.919-.197zm31.805-15.835c0-.436-1.02-3.704-2.715-8.706-1.036-3.056-2.312-7.223-2.835-9.26-.806-3.136-1.03-3.705-1.457-3.705-.417 0-.613.436-1.13 2.514-1.028 4.123-1.636 6.122-3.502 11.51-.755 2.182-1.537 4.623-1.737 5.423-.655 2.62-1.304 2.381 6.496 2.381 3.784 0 6.88-.07 6.88-.157zM6.23 234.217c-.08-.206 1.763-5.537 4.094-11.845 8.533-23.093 10.024-27.402 12.108-35.004.596-2.175 1.232-4.049 1.412-4.165.181-.116 3.602-.182 7.602-.147l7.273.065.442 1.323c.244.727.764 2.513 1.156 3.968.391 1.456 1.58 5.266 2.64 8.467 1.811 5.465 2.862 8.415 6.22 17.463.757 2.037 1.79 4.835 2.298 6.217.508 1.383 1.82 4.92 2.916 7.862 1.096 2.94 1.922 5.533 1.835 5.76-.138.358-.914.402-6.015.34l-5.856-.071-1.24-2.778-1.24-2.778H20.542l-1.24 2.778-1.239 2.778-5.844.071c-4.848.059-5.87.007-5.989-.304zm31.833-15.894c0-.733-.749-3.22-2.715-9.008-1.087-3.202-2.298-7.131-2.69-8.732-.974-3.97-.924-3.836-1.441-3.836-.337 0-.554.375-.804 1.389-.75 3.046-2.447 8.734-3.69 12.37-1.412 4.124-2.418 7.412-2.418 7.899 0 .219 1.899.302 6.88.302 5.835 0 6.878-.058 6.878-.384zm32.461 16.088c-.1-.1-.181-2.516-.181-5.37 0-5.773-.266-8.647-1.092-11.789-1.122-4.272-2.027-6.18-10.226-21.564l-5.912-11.094c-.825-1.553-.635-1.606 5.844-1.606 5.144 0 5.79.05 6.15.464 1.236 1.42 7.545 13.69 9.216 17.925 1.148 2.909 1.734 3.934 2.112 3.7.111-.069.65-1.286 1.2-2.706.548-1.42 1.612-3.891 2.365-5.492 1.572-3.346 6.623-12.739 7.22-13.427.36-.415 1.006-.464 6.15-.464 4.478 0 5.812.079 6.041.355.272.328-2.24 5.265-9.58 18.828-2.424 4.48-5.286 10.645-6.106 13.152-1.252 3.83-1.516 5.83-1.706 12.91l-.167 6.217-5.573.071c-3.065.04-5.655-.01-5.755-.11zm82.81-.005c-.097-.097-.177-11.644-.177-25.66v-25.483l.633-.159c.348-.087 5.973-.105 12.501-.04 12.586.126 13.306.191 16.873 1.526 3.654 1.367 6.682 4.386 7.857 7.834.85 2.493.844 6.645-.014 8.887-.806 2.11-2.408 4.028-4.407 5.282-.931.583-1.692 1.137-1.692 1.23 0 .093.792.577 1.758 1.077 3.153 1.63 5.254 4.19 6.203 7.558.511 1.816.449 6.218-.115 8.07-1.598 5.248-5.988 8.624-12.724 9.784-1.73.298-26.406.385-26.696.094zm24.514-10.384c1.345-.43 2.986-1.949 3.374-3.122.47-1.423.161-3.88-.64-5.089-1.381-2.087-4.246-2.732-11.56-2.6l-4.09.072-.073 5.284c-.04 2.907-.01 5.447.067 5.646.113.294 1.218.34 6.025.246 3.584-.07 6.282-.24 6.897-.437zm-1.014-21.551c2.746-1.19 3.777-3.795 2.52-6.368-1.127-2.31-3.107-2.866-9.793-2.746l-4.63.083-.073 4.488c-.04 2.468-.009 4.655.07 4.859.225.585 10.452.314 11.906-.316z" transform="matrix(3.77953 0 0 3.77953 593.754 66.88)"/>
  <path style="fill:#c95e81;fill-opacity:1;stroke-width:.264583" d="M-152.39 205.015c-.131-.255-.309-.999-.396-1.654-.087-.654-.405-1.938-.707-2.851a9.4 9.4 0 0 1-.489-3.308c.05-1.376-.057-1.845-.652-2.86-.45-.764-.713-1.6-.713-2.26 0-.574-.179-1.73-.397-2.569-.218-.838-.397-2.5-.397-3.693 0-1.194-.193-3.123-.43-4.287-.45-2.209-.57-8.719-.24-12.964.09-1.164.056-2.678-.076-3.364-.152-.788-.14-1.75.03-2.614.196-.988.187-1.502-.03-1.851-.203-.324-.259-1.472-.17-3.471.183-4.066.3-4.794.95-5.896.412-.698.52-1.203.407-1.9-.095-.585-.011-1.225.218-1.668.204-.396.407-1.7.45-2.897.048-1.33.208-2.285.41-2.453.205-.17.318-.886.297-1.897-.017-.892.096-2.099.252-2.681.38-1.418.687-2.528 1.354-4.895.308-1.091.665-2.58.795-3.307.13-.728.435-1.859.679-2.514.244-.654.562-1.666.706-2.249.144-.582.449-1.594.677-2.249.228-.654.605-2.096.838-3.204.233-1.107.586-2.207.784-2.444.198-.236.3-.589.225-.783-.375-.977 2.583-9.954 5.655-17.162.848-1.99 1.968-4.89 2.488-6.447.52-1.555 1.123-3.169 1.338-3.585.216-.416.635-1.78.931-3.03.297-1.25.765-2.671 1.04-3.16.274-.489 1.353-3.488 2.397-6.664 1.14-3.47 2.371-6.655 3.083-7.978.652-1.211 1.12-2.268 1.039-2.349-.08-.08.048-.518.285-.972.237-.455.872-2.077 1.41-3.605 1.634-4.643 2.289-6.284 2.817-7.062.626-.92 1.141-2.098 1.141-2.606 0-.211.417-1.286.926-2.388.51-1.102.997-2.288 1.084-2.636.088-.348.445-.941.795-1.318.36-.39.635-1.01.635-1.439 0-.413.606-2.044 1.347-3.624.74-1.58 1.577-3.449 1.858-4.154.282-.706.787-1.659 1.123-2.117.337-.459.809-1.37 1.049-2.025.601-1.638 3.553-6.934 4.1-7.354.244-.188.718-.274 1.051-.19.525.131.695-.036 1.267-1.245.855-1.81 1.762-3.115 2.096-3.018.58.17.395 1.057-.494 2.363-.514.756-1.017 1.732-1.116 2.168-.194.852-1.067 2.38-2.385 4.176-.45.614-.973 1.592-1.162 2.174-.189.582-1.525 3.5-2.97 6.483-1.445 2.983-2.811 5.96-3.036 6.614-.225.655-.871 2.17-1.436 3.368-1.002 2.123-1.302 3.511-.759 3.511.148 0 .467-.415.71-.923.242-.508.644-.988.894-1.067.287-.091.407-.326.326-.635-.07-.27-.002-.568.152-.663.154-.095.36-.774.457-1.508.14-1.051.31-1.394.801-1.619.634-.288.824-.839.383-1.111-.133-.082.002-.655.3-1.273.571-1.18.843-1.714 2.902-5.709.7-1.358 1.273-2.69 1.273-2.96 0-.805.48-.86 1.2-.14.372.371.73.675.797.675.297 0 .074-.677-.386-1.174-.494-.532-.648-.977-.584-1.691.022-.248.259-.302.8-.183.881.193 1.265-.176.684-.659-.594-.493-.479-1.14.4-2.246.436-.55.793-1.227.793-1.505 0-.328.288-.607.814-.79.684-.239.789-.387.656-.918-.204-.81.263-1.71.783-1.511.216.083.602.07.856-.03.406-.157.382-.223-.198-.54l-.662-.36.968-.407c1.094-.461 1.328-.865.909-1.564-.238-.396-.16-.586.438-1.069 1.583-1.276.375-1.905-1.34-.696-.64.451-1.223.763-1.295.691-.477-.477 3.077-6.194 3.636-5.848.244.151.078.834-.331 1.365-.16.208-.064.408.288.596 1.15.615 1.784.093 1.458-1.204-.153-.612-.104-.647.823-.584.99.066 1.722-.475 1.722-1.275 0-.183.139-.637.307-1.007.237-.52.503-.674 1.159-.674.468 0 .99-.167 1.159-.371.248-.299.163-.425-.43-.644-.698-.257-.708-.282-.176-.445.68-.209 1.156-1.17 1.156-2.336 0-1.14.41-1.496 1.729-1.496.973 0 1.164-.11 1.735-.992l.641-.992 3.377-.074c2.89-.064 3.4-.014 3.539.347.1.262-.052.572-.403.817-.613.43-.735 1.021-.27 1.309.161.1 1.045.165 1.964.145l1.671-.036.978 1.193c.838 1.022 1.118 1.193 1.954 1.193 1.435 0 1.977.481 1.614 1.434-.158.416-.254.779-.214.806.04.028.469.208.95.4 1.044.415 2.167 1.956 2.167 2.972 0 .671.05.706.685.465.585-.223.706-.182.827.278.114.437.323.525 1.1.466.92-.07.957-.04.89.72a75.3 75.3 0 0 0-.14 2.778c-.037 1.092-.204 2.226-.37 2.52-.428.761-1.14 3.625-1.14 4.587 0 .536-.287 1.14-.844 1.774-.58.66-.956 1.471-1.2 2.588-.702 3.225-.713 3.397-.24 3.662.556.311.314.744-.416.744-.52 0-.542-.101-.391-1.72.128-1.368.085-1.72-.207-1.72-.648 0-1.457 1.297-1.3 2.082.085.426-.133 1.505-.54 2.67-.376 1.076-.683 2.242-.683 2.592 0 .35-.286 1.37-.635 2.269-.628 1.614-.95 3.22-1.08 5.4-.038.617-.216 1.3-.398 1.52-.18.217-.376 1.001-.434 1.74-.058.74-.282 1.688-.499 2.107-.452.873-.517 2.003-.13 2.243.42.258.31.588-.243.732-.47.123-.481.211-.16 1.146.655 1.906 1.232 1.328 1.56-1.568a16.64 16.64 0 0 1 .693-3.013c.285-.81.458-1.57.384-1.688-.073-.12.058-.668.292-1.22.234-.552.521-1.937.639-3.076.237-2.302.616-2.995 1.202-2.2.259.35.291.677.115 1.142-.404 1.06-.292 1.594.52 2.483.768.84 1.349.864 1.349.055 0-.236.109-.794.241-1.241 1.553-5.223 1.994-6.428 2.537-6.928.414-.382.532-.675.373-.926-.326-.515-.296-.764.091-.764.359 0 1.6-2.892 1.7-3.959.034-.358.3-.835.59-1.058.483-.371.949-1.453 1.884-4.376.186-.582.554-1.356.818-1.72.526-.727.96-2.257 1.278-4.513.114-.809.455-2.03.757-2.713.612-1.382 1.275-1.77 3.028-1.77 1.02 0 1.058.026.578.394-.503.385-.5.405.148.926.996.802 1.701.597 1.806-.526.048-.509.267-1.126.487-1.37a1.04 1.04 0 0 0 .226-.992c-.128-.404-.058-.548.266-.548.242 0 .783-.203 1.202-.45.701-.414.729-.486.346-.91-.504-.556-.24-1.102.43-.89.633.202.898-.244.393-.663-.544-.452-.498-.723.281-1.65.529-.628.658-1.036.595-1.887-.091-1.254-.592-1.506-1.635-.823-.742.487-.67 1.063.16 1.28.51.133.523.19.158.739-.548.825-.916.884-1.101.176-.197-.754-.425-.495-1.21 1.374-1.354 3.223-2.364 5.058-2.881 5.23-.673.224-.63-.837.098-2.41.415-.896.898-1.808 1.074-2.027.175-.218 1.053-1.825 1.95-3.571.898-1.747 1.898-3.533 2.223-3.97.324-.436 1.28-2.162 2.125-3.836 1.825-3.618 6.42-11.058 7.088-11.474.259-.162.47-.446.47-.631 0-.186.11-.544.243-.797.134-.252.38-.833.55-1.29.308-.836 1.004-1.153 2.527-1.153.404 0 .792-.3 1.163-.9.59-.957 1.22-1.358 1.478-.941.229.37 1.628.309 2.454-.107 1.349-.679 2.11-.74 2.62-.207.75.781 1.432 1.03 2.895 1.06.905.017 1.47-.106 1.686-.366.178-.215.548-.392.821-.392.376 0 .497.194.497.794 0 .915.033.927 1.05.402.671-.348.868-.347 1.707.003 1.062.444 1.187.884.442 1.558-.302.274-.56.952-.642 1.694-.076.681-.22 1.627-.32 2.101-.15.713-.11.836.228.707.47-.181.975-1.461.975-2.477 0-1.8 1.466-2.335 3.666-1.336.912.414 1.113.62.962.986-.449 1.091-.453 1.39-.02 1.39.24 0 .504-.18.588-.398.32-.836 2.212-.244 2.212.693 0 .948.6.384.982-.922.448-1.539 1.064-1.57 1.63-.08.372.974.362 1.03-.298 1.641-.734.682-.732 1.445.007 2.3.35.405.346.53-.037 1.115-.238.362-.436 1.05-.44 1.528-.005.478-.178 1.092-.384 1.365-.221.292-.316.793-.23 1.22.085.426-.038 1.077-.298 1.58-.243.47-.375.921-.293 1.003.081.081-.083.522-.366.98-.283.457-.594 1.332-.692 1.943-.15.936-.107 1.113.266 1.113.474 0 1.211-1.45 1.211-2.382 0-.301.172-.811.382-1.133.21-.323.702-1.777 1.094-3.232l1.206-4.477c.651-2.425 1.12-3.12 2.03-3.014.556.065.74.255.847.876l.137.794.435-.62c.684-.973 1.373-.65 1.611.756.403 2.375.431 5.917.057 7.14-.2.655-.69 2.798-1.088 4.762-.54 2.662-.983 4.078-1.74 5.557-.558 1.091-1.263 2.815-1.567 3.83-.303 1.017-1.08 2.78-1.726 3.918-.746 1.313-1.118 2.25-1.018 2.563.108.34 0 .544-.35.655-.509.161-1.593 2.92-1.273 3.24.085.085-.08.483-.367.886s-.522 1.011-.523 1.353c0 .341-.218.978-.483 1.414-.266.437-.557 1.164-.647 1.617-.09.453-.451 1.465-.802 2.249-.351.784-.843 2.497-1.092 3.807-.25 1.31-.852 3.572-1.338 5.027-.486 1.455-.964 3.241-1.063 3.969-.1.727-.457 2.197-.796 3.265-.396 1.25-.563 2.267-.468 2.855.116.712.018 1.05-.445 1.544-.326.347-.513.761-.414.92.098.159-.051.674-.331 1.144-.554.929-.999 2.525-1.25 4.48-.087.684-.568 2.016-1.069 2.96-.895 1.686-.966 2.543-.21 2.543.21 0 .51-.362.664-.805.292-.84.661-.909 1.103-.208.191.303.077.649-.437 1.323-.921 1.207-3.005 5.65-3.232 6.89-.098.541-.346 1.121-.549 1.29-.203.168-.369.642-.369 1.052 0 .41-.122.821-.271.914-.15.092-.249.545-.22 1.007.029.462-.19 1.317-.485 1.899-.605 1.19-.542 1.72.204 1.72.39 0 .508-.189.508-.81 0-.503.3-1.183.795-1.798.437-.544 1.036-1.676 1.33-2.514.474-1.348 1.344-2.9 2.943-5.253.268-.394.488-.947.488-1.228 0-.317.238-.57.628-.669.846-.212 1.338-1.417.971-2.381-.43-1.134-.34-1.392.584-1.656.727-.207.873-.385.947-1.152.05-.518.305-1.06.595-1.263.28-.196.512-.618.518-.937.005-.319.18-.878.387-1.242.208-.363.382-.988.388-1.389.006-.534.142-.727.51-.727.275 0 .568-.177.651-.393a.42.42 0 0 1 .558-.236c.477.183.493.097.148-.81-.325-.856.117-1.923.894-2.159.305-.092.952-.465 1.438-.83 1.26-.944 1.656-.418.593.792-.448.51-.814 1.165-.814 1.455 0 .29-.188.684-.417.874-.229.19-.806 1.127-1.283 2.083a72.492 72.492 0 0 1-1.498 2.843c-.68 1.192-.548 1.767.24 1.053.267-.241.566-.439.663-.439.492 0-.073 1.394-2.831 6.991-1.655 3.358-3.227 6.701-3.492 7.429-.604 1.657-1.33 3.004-2.025 3.757-.298.323-.467.763-.38.99.132.345.311.304 1.153-.267.547-.372 1.034-.56 1.082-.416.048.143-.102 1.192-.333 2.331-.317 1.57-.577 2.202-1.073 2.61-.478.395-.654.8-.654 1.506 0 .532-.12 1.04-.265 1.13-.425.264-.317 1.456.132 1.456.228 0 .397-.239.397-.557 0-.307.29-.9.642-1.32.353-.42.828-1.404 1.056-2.187.446-1.535.974-2.17 1.602-1.929.609.234.213 1.772-.657 2.553-.97.87-1.348 1.645-1.04 2.131.35.555.304.78-.16.78-.317 0-.372.19-.247.86.132.709-.028 1.15-.915 2.523-1.716 2.653-2.343 4.554-1.504 4.554.53 0 .799-.42 1.758-2.738.473-1.143 1.23-2.634 1.684-3.315.453-.681.952-1.532 1.108-1.892.845-1.947 1.875-3.851 2.616-4.835.46-.61.997-1.527 1.194-2.037.197-.509.518-1.114.712-1.343.194-.23.353-.565.353-.746 0-.18.276-.706.614-1.17.737-1.012 2.018-3.477 2.843-5.472.33-.8 1.115-2.188 1.743-3.083.627-.895 1.428-2.42 1.78-3.388.617-1.703 1.32-2.79 1.802-2.79.128 0 .1.25-.064.556-.164.305-.513 1.168-.776 1.918-.785 2.235-2.926 6.583-3.77 7.653-.572.726-.743 1.172-.627 1.633.116.46-.157 1.168-1 2.595-.638 1.079-1.247 2.487-1.354 3.13-.14.84-.425 1.364-1.017 1.863-.715.602-.776.75-.466 1.124.286.345.292.51.028.828-.181.218-.474.397-.652.397-.44 0-1.075 1.408-.692 1.536.459.153.33.53-.244.713-.29.092-.529.375-.529.63 0 .253-.357.803-.794 1.222-.929.89-1.02 1.455-.236 1.455.4 0 .512.118.397.418-.088.23-.16.469-.16.53 0 .06-.236.11-.524.11-.433 0-.517.17-.491.992.017.546-.063 1.276-.179 1.623-.155.466-.12.601.134.516.487-.162 2.224-3.307 2.923-5.294.324-.92.82-2.002 1.103-2.404.58-.825 1.169-.736.717.108-.396.74-.092.939.55.358.293-.265.59-.424.66-.354.195.195-.684 2.325-1.511 3.661-1.201 1.942-1.783 3.26-1.79 4.056-.006.892-1.29 2.294-2.101 2.294-.629 0-.66.096-.267.829.224.418.149.79-.359 1.769-.353.681-.786 1.68-.962 2.221-.299.919-.374.972-1.162.822l-.843-.16.601.656.602.657-.56.712c-.309.392-.49.896-.404 1.12.233.609 1.032.333 1.427-.493.191-.398.44-.724.554-.724.403 0 .55.353.282.676-.15.18-.323.588-.384.905-.332 1.726-.741 2-1.588 1.065-.46-.507-1.191-.724-1.191-.352 0 .098.208.407.462.688.441.488.439.506-.057.418-.33-.06-.553.076-.613.37-.075.363.084.463.733.463.485 0 .761.11.666.265-.09.145-.544.266-1.008.268-1.089.005-1.584.33-1.455.954.073.356.306.483.82.448.59-.041.717.06.717.57 0 .341-.224 1.078-.497 1.637-.273.56-.762 1.85-1.087 2.87-.325 1.018-1.038 2.804-1.584 3.968-.547 1.164-1.061 2.478-1.144 2.92-.082.44-.536 1.631-1.008 2.645-.946 2.033-1.389 4.784-.735 4.57.201-.066.561-.72.8-1.454.238-.733.637-1.644.886-2.024.249-.38.549-1.081.666-1.557.277-1.13 3.2-7.773 4.078-9.272.376-.641.683-1.322.683-1.512 0-.19.429-.87.953-1.51.706-.862.983-1.478 1.067-2.376.078-.84.354-1.505.899-2.165.432-.524.785-1.087.785-1.25 0-.165.302-.625.672-1.023.425-.46.615-.902.518-1.207-.084-.266-.022-.564.138-.663.16-.099.27-.436.246-.75-.079-.998.001-1.191.565-1.37.423-.135.515-.321.395-.798-.125-.5.05-.788.883-1.458.913-.734 1.022-.938.9-1.692-.168-1.03.444-2.341 1.377-2.952.36-.237.656-.638.656-.892s.309-.917.687-1.474c.377-.556.79-1.287.919-1.624.128-.337.355-.613.504-.613.36 0 .356.024-.269 1.927-.388 1.183-.815 1.883-1.518 2.492-.93.805-.963.887-.664 1.68.29.769.234.965-.73 2.554-.575.946-1.046 1.77-1.046 1.833 0 .062-.416.99-.926 2.064-.509 1.073-.926 2.043-.926 2.156 0 .112-.724 1.66-1.61 3.441-1.364 2.745-1.563 3.322-1.311 3.793.257.481.208.589-.375.81-.68.259-.926 1.14-.408 1.46.472.291.28 1.083-.42 1.74-1.257 1.177-1.904 3.9-1.114 4.689.246.247.246.318 0 .318-.175 0-.318.294-.318.654 0 .588-.067.63-.657.406-.532-.203-.707-.154-.926.253-.391.733-.33 1.59.128 1.766.98.376.1 3.788-1.425 5.525-.576.656-.791 1.233-.935 2.506-.112.986-.43 2.04-.789 2.613-.97 1.55-1.567 3.38-1.39 4.263.143.715.092.799-.488.799-.573 0-.63.088-.497.76.112.557-.037 1.046-.56 1.836-.392.593-.64 1.195-.552 1.34a.313.313 0 0 1-.107.427c-.148.091-.269.756-.269 1.477 0 .95-.252 1.837-.916 3.225-.504 1.053-.998 2.433-1.097 3.067-.313 2.007-1.39 2.316-5.66 1.625a76.06 76.06 0 0 0-3.175-.438c-3.013-.33-11.484-2.923-15.936-4.877-6.962-3.055-11.794-6.554-13.4-9.7-.932-1.829-.77-2.674 1.017-5.301 3.503-5.15 4.404-9.366 2.923-13.67-.293-.853-.533-1.59-.533-1.64 0-.232.898-.051 1.632.328 1.17.605 3.977.534 5.329-.134 1-.496 1.088-.5 1.41-.076.19.249.35 1.107.356 1.907.024 2.877 1.162 3.674 2.693 1.885 2.73-3.189 2.865-10.506.27-14.598-.743-1.173-3.754-4.07-6.133-5.904-1.863-1.435-3.665-2.285-4.843-2.285-.904 0-1.209-.162-2.077-1.102-.56-.607-1.018-1.185-1.018-1.285 0-.274-3.762-3.308-5.406-4.36-2.21-1.414-6.156-2.818-9.94-3.537-.8-.152-2.229-.426-3.175-.608-2.273-.44-9.733-.437-11.774.004-3.463.748-6.285 1.782-10.672 3.911-4.471 2.17-4.648 2.288-7.03 4.668-2.34 2.337-5.656 6.892-8.135 11.173-2.236 3.862-4.57 10.482-5.689 16.14-.346 1.745-.756 3.71-.912 4.365-.155.655-.346 4.048-.424 7.54-.134 5.988-.011 8.553.726 15.214.137 1.237.324 3.38.416 4.762l.167 2.514-1.318 1.436c-1.522 1.66-2.92 4.999-3.108 7.428-.239 3.082-.479 4.9-.663 5.027-.106.072-.44.698-.744 1.389-.449 1.023-.676 1.257-1.221 1.257-.688 0-1.477 1.067-1.477 1.996 0 .24-.178.751-.396 1.138-.382.677-.709 2.002-1.609 6.523-.232 1.164-.59 2.38-.796 2.702-.206.323-.374.944-.374 1.382 0 .569-.217.955-.762 1.358-.712.526-.77.707-.877 2.758-.083 1.583-.257 2.405-.625 2.95-.45.667-.515 1.304-.557 5.432-.047 4.441-.25 5.775-.883 5.775-.136 0-.353-.208-.484-.463zm120.471-74.943c.09-.146.038-.265-.116-.265-.155 0-.28.12-.28.265 0 .145.052.264.116.264s.19-.119.28-.264zm-117.507-2.526c.163-.425-.24-.757-.63-.517-.145.09-.264.391-.264.669 0 .57.66.457.894-.152zm119.756-1.575c0-.218-.119-.397-.264-.397-.146 0-.265.179-.265.397 0 .218.12.397.265.397.145 0 .264-.179.264-.397zm-117.475-9.393c0-.145-.052-.265-.117-.265-.064 0-.19.12-.28.265-.09.146-.037.265.117.265s.28-.12.28-.265zm108.48-3.852c0-.21-.12-.381-.265-.381-.146 0-.265.245-.265.545 0 .3.12.47.265.38.145-.09.264-.334.264-.544zm-106.76-1.44c.286-.462-.138-.853-.553-.51-.205.171-.373.415-.373.543 0 .319.724.293.926-.033zm115.226-1.175c0-.517-.513-.799-.847-.465-.149.15-.191.4-.093.559.26.42.94.352.94-.094zm-5.609-3.28c-.044-.364-.218-.708-.386-.764-.35-.115-.749 1.357-.483 1.786.298.483.957-.29.869-1.021zm1.015-1.917c.02-.351.19-1.016.38-1.478.284-.69.284-.912-.002-1.257-.42-.505-1.076-.55-1.076-.074 0 .19.147.491.326.67.259.259.204.359-.264.481-.455.12-.59.348-.59.997 0 1.408 1.149 2.028 1.226.661zm4.75-2.29c-.183-.184-.685.189-.685.508 0 .176.152.156.403-.053.222-.184.349-.39.282-.456zm-2.948-1.483c.372-.487.675-1.125.675-1.42 0-.293.223-.818.495-1.165.585-.746.961-2.237.618-2.45-.132-.081-.467.034-.743.257-.352.284-.405.445-.176.54.225.095.107.411-.381 1.022-.648.812-.751.854-1.245.509-.992-.695-1.343-.192-.509.73.372.41.388.583.105 1.113-.34.634-.178 1.749.253 1.749.128 0 .537-.398.908-.885zm3.321.62c0-.145-.112-.264-.249-.264s-.322.119-.412.264c-.09.146.022.265.249.265s.412-.12.412-.265zm-6.747-.529c0-.214-.208-.43-.463-.479-.325-.062-.463.08-.463.48 0 .398.138.54.463.478.255-.049.463-.264.463-.479zm7.296-.337c-.033-.316-.395-.255-.51.086-.057.175.038.27.213.212.174-.059.308-.193.297-.298zm-10.4-.407c.059-.173-.083-.314-.313-.314a.42.42 0 0 0-.42.419c0 .467.57.386.734-.105zm4.042-.672c-.403-.404-.877.085-.51.526.255.31.361.318.53.045.116-.188.107-.445-.02-.571zm8.673.005c.048-.25-.083-.44-.303-.44-.418 0-.777.637-.509.905.268.267.72.009.812-.465zm-1.54-.44a.265.265 0 0 0-.266-.265.265.265 0 0 0-.264.264c0 .146.119.265.264.265.146 0 .265-.12.265-.265zm2.375-3.694c.62-1.214.691-1.907.178-1.71-.318.122-1.496 2.16-1.496 2.588 0 .093.177.17.392.17.215 0 .632-.472.926-1.048zm-4.493-.424c0-.21-.238-.38-.529-.38-.595 0-.678.273-.222.73.365.364.751.185.751-.35zm3.909-1.654c.058-.176-.14-.314-.447-.314-.55 0-.714.278-.37.623.246.245.688.078.817-.31zm-5.76.115c0-.055-.18-.248-.398-.43-.325-.269-.396-.251-.396.1 0 .237.178.43.396.43.219 0 .397-.045.397-.1zm-103.391-.892c.173-.4.527-1.012.788-1.359.776-1.034.523-3.205-.374-3.205-.116 0-.212.387-.212.86-.001.472-.29 1.569-.644 2.436-.353.866-.583 1.67-.512 1.785.254.411.644.2.954-.517zm100.349-.562c.079-.205.075-.442-.008-.525-.275-.275-1.05.403-1.138.996-.078.528-.035.551.458.244.3-.187.609-.509.688-.715zm3.57.223c0-.317-.746-.657-.963-.44-.232.233.16.713.582.713.21 0 .381-.123.381-.273zm-2.33-3.084c.725-.694.98-1.406.506-1.406-.231 0-1.88 1.749-1.88 1.994 0 .347.72.04 1.375-.588zm-99.168-1.793c.603-.92.565-1.994-.071-1.994-.567 0-1.483 1.66-1.25 2.267.222.58.847.451 1.321-.273zm112.611-.158c0-.552-.39-.69-.67-.236-.24.388.08 1.114.404.915.146-.091.266-.396.266-.679zm-12.435-.778c0-.145-.127-.264-.28-.264-.155 0-.207.119-.117.264.09.146.216.265.28.265.064 0 .117-.12.117-.265zm1.274-1.391c.046-.4-.025-.726-.158-.726-.42 0-1.176 1.013-.985 1.321.33.535 1.056.156 1.143-.595zm-100.466-.527c.014-.182.007-.702-.018-1.156-.027-.512.103-.881.344-.974.213-.081.473-.663.576-1.291.104-.629.305-1.287.446-1.462.142-.176.194-.422.116-.548-.077-.126.09-.428.374-.67.29-.25.516-.776.516-1.206 0-.42.179-.912.397-1.094.487-.404.503-1.558.029-2.182-.516-.68-.666-.58-.849.566-.119.743-.344 1.11-.809 1.322-.556.254-.621.416-.477 1.185.13.688-.069 1.464-.866 3.4-1.147 2.786-1.261 4.44-.306 4.44.275 0 .512-.148.527-.33zm101.308-1.654a.398.398 0 0 0-.397-.397.398.398 0 0 0-.397.397c0 .219.18.397.397.397a.398.398 0 0 0 .397-.397zm.53-1.042c0-.065-.12-.19-.265-.28-.146-.09-.265-.038-.265.116s.12.28.265.28c.145 0 .264-.052.264-.116zm.81-1.385c.208-.545.18-.797-.124-1.101-.35-.349-.43-.315-.708.294-.331.727-.183 1.514.284 1.514.154 0 .4-.318.549-.707zm-62.459.343c0-.055-.178-.248-.396-.43-.325-.269-.397-.25-.397.1 0 .237.178.43.397.43.218 0 .396-.045.396-.1zm57.944-.99c0-.592-.744-.669-.962-.1-.084.218-.079.588.011.823.133.345.239.364.557.1.217-.18.394-.55.394-.824zm-57.414-.998c0-.957-.482-1.576-.9-1.157-.278.277-.17 1.54.159 1.87.544.543.74.354.74-.713zm-34.804.254c.195-.316-.302-.63-.655-.412-.296.182-.101.658.27.658.127 0 .3-.11.385-.246zm35.588-3.524c.006-.47-.13-.728-.382-.728-.493 0-.782 1.094-.542 2.05l.183.728.366-.661c.201-.364.37-.989.375-1.389zm21.544 1.236c.093-.242-.03-.376-.348-.376-.48 0-.916.603-.637.882.22.22.826-.09.985-.506zm-62.545-2.625c0-.218-.12-.397-.265-.397-.145 0-.264.179-.264.397 0 .218.119.397.264.397.146 0 .265-.179.265-.397zm3.562-1.649c.384-.565.671-1.362.671-1.863 0-.48.238-1.341.53-1.912.595-1.168.728-3.02.203-2.846-.179.06-.52.655-.76 1.323-.239.667-.682 1.563-.986 1.989-.72 1.012-1.044 4.297-.423 4.297.052 0 .396-.445.765-.988zm4.06.703c-.052-.156-.208-.284-.346-.284-.138 0-.294.128-.346.284-.052.157.103.285.346.285s.398-.128.346-.285zm34.182-.664c0-.467-.57-.385-.733.105-.058.173.084.314.314.314a.42.42 0 0 0 .42-.419zm3.704-.141c0-.146-.119-.191-.264-.101-.146.09-.265.283-.265.428 0 .146.12.191.265.101.145-.09.264-.282.264-.428zm-36.996-.671c.534-.484.647-1.15.194-1.15-.407 0-1.827 1.043-1.827 1.341 0 .408 1.115.278 1.633-.191zm33.557-1.315c0-.346-.122-.629-.271-.629-.344 0-.844 1.282-.634 1.623.257.415.905-.297.905-.994zm-40.283.099a.52.52 0 0 0-.463-.33.52.52 0 0 0-.463.33c-.066.197.122.33.463.33.34 0 .529-.133.463-.33zm103.009-.271c-.033-.317-.396-.255-.51.086-.058.174.038.27.212.211.175-.058.309-.192.298-.297zm.51-1.118c0-.218-.12-.397-.265-.397-.146 0-.265.179-.265.397 0 .218.12.397.265.397.145 0 .264-.179.264-.397zm-62.443-1.087c0-.423-.681-.5-.926-.104a.54.54 0 0 0-.007.518c.218.352.934.035.934-.414zm4.596.095c.242-.9.21-.992-.344-.992-.53 0-.97.852-.681 1.32.29.47.86.287 1.025-.328zm59.51-2.08c-.447-.447-.978-.022-.577.46.222.268.404.301.595.11.192-.192.186-.366-.018-.57zm-64.106.162c0-.219-.119-.397-.264-.397-.146 0-.265.178-.265.397 0 .218.12.396.265.396.145 0 .264-.178.264-.396zm5.514-.278c.417-.914.386-1.442-.083-1.442-.518 0-1.296 1.212-1.102 1.717.236.615.844.474 1.185-.275zm-44.936-.384a.265.265 0 0 0-.265-.265.265.265 0 0 0-.265.265.265.265 0 0 0 .53 0zm39.543-.246c.084-.136.032-.321-.116-.413-.148-.091-.27.02-.27.247 0 .464.16.533.386.166zm-29.368-.53c.083-.135.03-.32-.117-.412-.148-.091-.269.02-.269.246 0 .465.159.534.386.167zm-7.311-.348c-.039-.182.148-.658.414-1.057.485-.726.409-1.65-.121-1.473-.475.158-1.391 1.99-1.22 2.439.19.494 1.029.577.927.09zm42.802-1.572c1.378-2.665 1.629-5.506.486-5.506-.55 0-.715.574-.4 1.4.221.583.16.824-.367 1.451-.433.515-.559.871-.398 1.13.15.244.089.6-.172.999-.413.63-.333 1.37.149 1.37.146 0 .462-.38.702-.844zm14.328-.104c-.252-.252-.758.156-.57.46.112.18.26.176.45-.014.156-.155.21-.356.12-.446zm-51.457-.533.467-.938-.6.085c-.46.065-.618.284-.682.945-.108 1.121.23 1.083.815-.092zm32.423-.355c.067-.198-.033-.297-.231-.231a.827.827 0 0 0-.463.463c-.066.198.033.298.231.231a.827.827 0 0 0 .463-.463zm65.242-.35c.329-.522.075-.85-.49-.633-.472.181-.567 1.328-.096 1.172.171-.058.435-.3.586-.539zm-94.733-.336c-.082-.214-.255-.388-.385-.388-.272 0-.32.622-.067.874.282.283.611-.071.452-.486zm-6.935-.346c.163-.442.11-.634-.212-.757-.6-.23-1.249.67-.839 1.165.394.474.78.324 1.05-.408zm36.476-.307c0-.146-.053-.265-.117-.265s-.19.12-.28.265c-.09.146-.037.265.117.265s.28-.12.28-.265zm-35.983-1.323c0-.291-.05-.53-.111-.53-.06 0-.299-.071-.53-.16-.5-.192-.57.432-.1.902.466.466.74.388.74-.212zm36.407-.193c-.269-.269-.49.136-.27.493.167.27.23.27.319.001.061-.184.04-.406-.049-.494zm-33.232-1.659c0-.146-.053-.265-.117-.265s-.19.12-.28.265c-.09.146-.038.265.116.265.155 0 .28-.12.28-.265zm33.602-.148c0-.227-.12-.339-.265-.249-.145.09-.264.276-.264.413 0 .137.119.249.264.249.146 0 .265-.186.265-.413zm-35.58-1.056c.178-.575.626-1.685.997-2.467.646-1.363.671-2.073.087-2.463-.453-.302-.694.033-.694.965 0 .523-.379 1.555-.926 2.523-1.039 1.838-1.051 1.886-.605 2.332.489.489.788.256 1.141-.89zm4.623-.531c0-.437-.418-.51-.661-.117-.216.349.1.844.415.65.136-.084.246-.324.246-.533zm-6.614-.933c0-.645-.618-.554-.747.11-.05.261.084.441.33.441s.417-.226.417-.55zm45.376-.507a.52.52 0 0 0-.33-.463c-.198-.066-.332.122-.332.463s.134.529.331.463a.52.52 0 0 0 .33-.463zm-37.59-.775c.582-.595.955-1.2.872-1.414-.209-.545-2.514-1.15-2.903-.762-.225.226-.153.501.285 1.094.41.554.536.993.42 1.457-.236.937.153.827 1.327-.375zm2.4-.019c.09-.145.045-.264-.1-.264-.146 0-.339.119-.429.264-.09.146-.044.265.101.265.146 0 .338-.12.428-.265zm35.526-.314c-.163-.49-.733-.572-.733-.105 0 .23.189.42.419.42.23 0 .372-.142.314-.315zm.458-1.67c0-.267-.134-.53-.298-.585-.349-.116-.703.648-.473 1.02.247.398.77.103.77-.435zm-28.178.044c0-.498-.255-.693-.688-.527-.563.216-.443.88.158.88.291 0 .53-.159.53-.353zm30.956-.822c0-.064-.12-.19-.265-.28-.145-.09-.264-.038-.264.116s.119.28.264.28c.146 0 .265-.052.265-.116zm-29.898-1.541c0-.33-.155-.468-.46-.41-.512.1-.735.804-.47 1.488.159.408.207.402.552-.066.208-.283.378-.738.378-1.012zm1.175.7c.157-.625.029-1.152-.212-.873-.25.29-.415 1.566-.203 1.566.132 0 .32-.312.415-.693zm-10.567-.632c.091-.147-.026-.34-.26-.43-.507-.194-.789.02-.545.414.22.356.59.363.805.016zm37.675-1.056c.364 0 .166-.938-.33-1.555-.236-.294-.354-.218-.617.397-.179.418-.33 1.047-.337 1.397-.01.6.016.611.472.198.266-.24.632-.437.812-.437zm2.673-.164c0-.218-.119-.323-.264-.233-.146.09-.265.342-.265.56 0 .218.12.323.265.233.145-.09.264-.342.264-.56zm-40.003-.12c-.052-.157-.208-.285-.346-.285-.138 0-.294.128-.346.284-.052.157.104.285.346.285.243 0 .399-.128.346-.285zm7.98-1.138c-.008-.785-.028-.8-.397-.314-.213.283-.388.803-.388 1.157 0 .542.062.591.397.314.218-.181.393-.702.388-1.157zm1.732.62c.716-1.383-.213-1.888-1.005-.547-.59 1-.573 1.349.068 1.349.314 0 .688-.32.937-.802zm-11.464-1.108c-.45-.45-.669-.071-.448.773l.194.74.28-.604c.2-.435.193-.69-.026-.909zm50.222.67c0-.335-.074-.352-.394-.086-.217.18-.328.435-.246.566.208.338.64.015.64-.48zm-44.98-.613c0-.145-.052-.264-.116-.264s-.19.119-.28.264c-.09.146-.038.265.116.265.155 0 .28-.119.28-.265zm7.303-1.467c.199-.79.072-.986-.497-.767-.476.182-.792.845-.573 1.2.294.475.905.228 1.07-.433zm-6.773-.658c0-.666-.43-.67-.785-.009-.446.834-.351 1.136.256.812.29-.156.529-.518.529-.804zm-2.646.34c0-.11-.418-.532-.93-.94-.822-.657-.948-.69-1.102-.29-.113.297.034.62.43.94.6.486 1.602.667 1.602.29zm41.487-.384c.38-.38.423-1.27.062-1.27-.278 0-.803.853-.803 1.305 0 .375.347.358.74-.035zm4.55-.36c0-.436-.418-.51-.661-.116-.216.349.1.844.415.65.136-.084.246-.324.246-.534zm-38.008-.26c-.083-.216-.003-.57.176-.786.266-.32.247-.393-.103-.393-.315 0-.43.25-.43.941 0 .532.111.874.254.786.14-.086.185-.333.103-.548zm-7.235-.225c0-.203-.179-.437-.397-.52-.27-.104-.397.014-.397.368 0 .286.178.52.397.52.218 0 .397-.165.397-.368zm25.785-1.912c.204-1.087-.224-1.841-.657-1.157-.283.449-.344 1.94-.088 2.196.303.303.56-.057.745-1.039zm-27.094.26c.146-.384.213-.751.148-.816-.265-.265-1.22.513-1.22.994 0 .762.762.636 1.072-.178zm49.463.213c0-.345-.315-.574-.57-.416-.274.17-.038.636.32.636.138 0 .25-.1.25-.22zm-47.096-.277c0-.127-.179-.38-.397-.561-.331-.275-.397-.237-.397.232 0 .323.17.562.397.562.218 0 .397-.105.397-.233zm8.935-.297c.267-.428.264-.529-.016-.529-.383 0-.981.516-.981.847 0 .416.672.202.997-.318zm31.77.296c.196-.125.587-1.217.87-2.427.281-1.211.637-2.353.79-2.537.325-.392.138-.778-.557-1.15a.777.777 0 0 0-1.062 1.057c.47.877.283 2.069-.525 3.342-.598.943-.718 1.33-.496 1.596.339.41.493.428.98.119zm-33.093-1.569c.058-.173-.083-.314-.314-.314a.42.42 0 0 0-.419.419c0 .467.57.386.733-.105zm-14.227-1.026c0-.52-.638-.29-.746.27-.06.307.04.392.33.28.23-.087.416-.335.416-.55zm32.023-.016c.005-.4.182-.956.393-1.235.388-.512.13-1.212-.447-1.212-.487 0-1.024 1.786-.752 2.5.338.891.796.861.806-.053zm53.387.443c-.052-.156-.208-.284-.346-.284-.138 0-.294.128-.346.284-.052.157.103.285.346.285s.398-.128.346-.285zm-78.991-2.514c.763-2.192.785-3.091.061-2.49-.416.345-1.452 3.398-1.452 4.28 0 1.111.69.222 1.39-1.79zm1.365 1.57c.091-.239.114-.486.05-.55-.179-.18-1.219.443-1.219.73 0 .433.992.281 1.169-.18zm47.726.118c.403-.403.414-1.27.016-1.27-.362 0-1.001.793-1.013 1.256-.01.42.582.429.997.014zm30.215-1.021c0-.137-.119-.25-.264-.25-.146 0-.265.186-.265.413 0 .227.12.339.265.25.145-.09.264-.276.264-.413zm-77.046-.302c.48-.48.392-.689-.476-1.138-.75-.388-.794-.382-.794.104 0 1.22.597 1.707 1.27 1.034zm7.146-.41c-.107-.558-.577-.523-.697.052-.05.24.096.41.35.41.273 0 .403-.173.347-.462zm40.668-.662c.066-.182.152-.747.19-1.257.052-.677-.036-.926-.326-.926-.233 0-.365.194-.319.467.044.257-.105.73-.33 1.051-.225.322-.41.677-.41.79 0 .342 1.066.23 1.195-.125zm-23.949-.463a.265.265 0 0 0-.264-.264.265.265 0 0 0-.265.264.265.265 0 0 0 .53 0zm22.225-1.348c0-.677-.418-.841-.904-.355-.43.43-.555 1.214-.242 1.527.267.267 1.146-.632 1.146-1.172zm-43.816.356c-.264-1.127-.635-1.364-1.824-1.163-.582.1-1.055.297-1.051.44.008.277 2.145 1.409 2.71 1.435.232.01.283-.208.165-.712zm5.006-.04c-.091-.348.04-.559.421-.68.696-.22.712-.583.035-.798-1.23-.39-2.08.932-1.18 1.832.514.514.901.324.724-.355zm19.27.106c0-.138-.127-.294-.284-.346-.156-.052-.284.104-.284.346 0 .243.128.398.284.346.157-.052.285-.208.285-.346zm51.555-.466c0-.523-.018-.525-.523-.069-.571.517-.486.998.134.76.214-.082.389-.393.389-.691zm-72.628-.195c.09-.146-.03-.265-.265-.265-.235 0-.354.12-.264.265.09.145.209.264.264.264.056 0 .175-.119.265-.264zm18.998-.129c.028-.144-.157-.301-.411-.35-.29-.056-.463.074-.463.346 0 .46.782.464.874.004zm2.829-.996c.898-2.45 1.403-6.284.827-6.284-.499 0-.782.737-.966 2.514-.106 1.019-.414 2.292-.685 2.829-.509 1.007-.435 1.801.166 1.801.188 0 .484-.387.658-.86zm-22.224.199c0-.219-.12-.397-.265-.397-.145 0-.264.178-.264.397 0 .218.119.396.264.396.146 0 .265-.178.265-.396zm41.275-.133c0-.145-.053-.264-.117-.264s-.19.119-.28.264c-.09.146-.037.265.117.265s.28-.12.28-.265zm-44.384-1.315c1.41-.721 1.545-1.081.624-1.684-.58-.38-.666-.376-1.058.057-.234.259-.426.595-.426.748 0 .153-.179.426-.397.607-.4.332-.567 1.183-.198 1.008.109-.052.764-.383 1.455-.736zm6.284.51c0-.153-.357-.48-.792-.728-.436-.248-.793-.6-.794-.782 0-.182-.188-.33-.416-.33-.553 0-.264 1.021.467 1.653.588.509 1.535.624 1.535.186zm-12.965-.782c0-.146-.178-.265-.397-.265-.218 0-.397.12-.397.265 0 .145.18.264.397.264.219 0 .397-.119.397-.264zm51.856-.13c.18-.216.245-.602.145-.859-.165-.423-.229-.408-.69.156-.48.588-.479 1.097.002 1.097.119 0 .363-.177.543-.393zm-43.17-2.08c.068-.35-.041-.458-.39-.39a.788.788 0 0 0-.578.576c-.067.35.042.458.391.391a.788.788 0 0 0 .577-.577zm21.212-.067c0-.203-.178-.369-.397-.369-.218 0-.397.234-.397.52 0 .355.127.473.397.37.219-.084.397-.319.397-.521zm22.747.301c.523-.63.208-.993-.457-.527-.327.229-.594.528-.594.666 0 .386.691.295 1.05-.139zm-14.545-.295c0-.467-.57-.386-.733.105-.057.172.084.314.314.314a.42.42 0 0 0 .42-.42zm47.737-.757c.385-.723.434-1.03.203-1.261-.389-.389-.546-.223-.976 1.027-.585 1.701-.088 1.851.773.234zm-77.106-.56c0-.227-.12-.337-.268-.246-.148.091-.2.277-.117.413.227.367.385.298.385-.167zm21.696-.1c0-.283-.13-.594-.287-.692-.405-.25-.873.293-.682.79.227.591.97.515.97-.099zm22.784-.357c-.216-.216-.294-.186-.294.111 0 .526.356.882.487.488.056-.168-.03-.437-.193-.599zm-39.458-.706c.388-.727.348-.805-.409-.805-1.436 0-2.237.997-1.246 1.551.546.306 1.265-.018 1.655-.746zm-3.948.03c.41-.332.544-.64.421-.96-.163-.425-.246-.401-.838.237-1.061 1.145-.757 1.673.417.723zm20.622-.555c0-.137-.119-.323-.264-.413-.146-.09-.265.022-.265.25 0 .226.12.412.265.412.145 0 .264-.112.264-.25zm56.46-.17c.089-.23.16-.617.16-.86-.001-.242.365-1.352.813-2.466.56-1.394.98-2.068 1.344-2.163.451-.118.485-.222.227-.703-.214-.4-.505-.54-1.001-.483-.622.073-.749.274-1.141 1.802-.243.946-.634 2.18-.87 2.744-.535 1.277-.565 2.548-.06 2.548.202 0 .44-.189.529-.419zm-36.625-.624c.194-.36.189-.566-.016-.692-.378-.234-1.15.538-.917.916.27.435.626.35.933-.224zm-36.239-.56c0-.137-.178-.25-.397-.25-.409 0-.525.313-.227.61.211.212.624-.027.624-.36zm-1.587-.234c0-.137-.12-.322-.265-.412-.497-.307-.265-1.252.53-2.157.436-.498.793-1.203.793-1.569 0-.655 1.045-1.963 1.569-1.963.342 0 .956-1.192 1.203-2.337.173-.804.139-.874-.393-.793-.377.057-.84.548-1.316 1.399-.404.721-.989 1.425-1.3 1.564-.407.181-.519.399-.4.775.146.459.078.5-.558.34-.626-.156-.697-.116-.528.296.454 1.105.423 1.307-.244 1.61-.515.235-.679.506-.679 1.127 0 .697-.078.793-.529.65-.408-.13-.53-.048-.53.357 0 1.104.282 1.362 1.484 1.362.64 0 1.163-.112 1.163-.249zm26.697-.849c.16-.458.29-1.351.29-1.985 0-.647.232-1.585.53-2.14.29-.542.528-1.191.528-1.441s.139-.758.308-1.129c.23-.506.232-.838.005-1.335-.432-.949-.842-.815-.842.275 0 .743-.218 1.15-1.058 1.974-1.014.994-1.058 1.107-1.058 2.715 0 .947-.138 1.815-.316 1.993-.245.245-.186.438.264.857.32.298.58.656.58.795 0 .573.498.198.769-.579zm15.996.172c-.084-.218-.273-.397-.42-.397-.156 0-.13.168.06.397.181.218.37.397.421.397.05 0 .023-.179-.06-.397zm-4.309-.47c-.033-.316-.396-.255-.51.087-.057.174.038.27.212.211.175-.058.309-.192.298-.297zm6.86-.471c0-.137-.12-.25-.265-.25-.146 0-.265.186-.265.413 0 .227.12.339.265.249.145-.09.264-.276.264-.412zm-1.9-.469c.046-.316-.029-.574-.166-.574-.406 0-.906.745-.711 1.06.273.442.782.16.877-.486zm-2.599-.458c0-.436-.418-.51-.661-.116-.216.349.1.844.415.65.136-.084.246-.324.246-.534zm-38.088-1.005c-.354-.353-.946.183-.68.614.138.222.287.217.571-.019.267-.221.3-.403.109-.595zm36.898.356c0-.567-.769-.485-.88.094-.069.353.04.461.393.393.268-.052.487-.27.487-.487zm4.63.02c0-.138-.119-.323-.265-.413-.145-.09-.264.022-.264.249s.119.412.264.412c.146 0 .265-.112.265-.249zm-22.225-1.09c0-.137-.179-.25-.397-.25-.409 0-.525.313-.227.61.21.212.624-.027.624-.36zm22.49-.139c0-.467-.57-.386-.733.105-.058.172.083.314.314.314a.42.42 0 0 0 .419-.419zm-4.763-.265c0-.467-.57-.385-.733.105-.058.173.084.314.314.314a.42.42 0 0 0 .42-.419zm-17.462-1.176c0-.132-.178-.172-.396-.088-.217.083-.328.26-.246.392.171.278.642.055.642-.304zm-13.759.008c0-.146-.052-.265-.116-.265-.065 0-.19.12-.28.265-.09.145-.038.264.116.264s.28-.119.28-.264zm39.159-.693c0-.218-.12-.323-.265-.233-.145.09-.265.342-.265.56 0 .218.12.323.265.233.146-.09.265-.342.265-.56zm-2.173.097c.15-.181.357-.777.459-1.322.164-.879.124-.993-.345-.993-.617 0-.852.48-.852 1.742 0 .937.266 1.144.738.573zm31.98-.608c.793-.605.884-.81.884-1.985 0-2.126-1.153-1.565-2.098 1.023-.676 1.848-.32 2.13 1.213.962zm-78.49-.474c0-.194-.304-.492-.675-.661-.667-.304-1.442-.41-1.442-.196 0 .06-.069.288-.152.506-.162.422.294.623 1.54.675.448.019.728-.106.728-.324zm48.947-.058c0-.226-.12-.337-.269-.246-.148.091-.2.277-.116.413.226.367.385.298.385-.167zm-21.299-.38a.52.52 0 0 0-.33-.464c-.197-.065-.331.122-.331.463s.134.529.33.463a.52.52 0 0 0 .331-.463zm21.195-2.437c.406-.785.402-.854-.063-1.197-.442-.325-.504-.3-.584.246-.049.335-.33.868-.623 1.185-.293.316-.454.704-.357.86.273.443 1.13-.133 1.627-1.094zm-43.552.023c0-.468-.066-.507-.394-.235-.398.33-.313.796.145.796.137 0 .249-.253.249-.561zm74.753-1.053c.197-.621-.204-1.187-.647-.914-.317.197-.388 1.016-.11 1.293.316.317.578.187.757-.38zm-58.363-2.158c.246-1.092-.085-1.904-.511-1.255-.143.218-.262.59-.265.827-.002.236-.078.832-.17 1.323-.154.833-.136.864.284.467.248-.234.546-.847.662-1.362zm28.665.022c.313-.42.455-.89.352-1.16-.162-.422-.213-.419-.725.045-.303.274-.725.835-.938 1.247-.371.718-.363.745.199.662.322-.048.823-.405 1.112-.794zm31.635-2.72c.659-1.522.81-2.126.588-2.347-.541-.542-1.181.196-1.936 2.23-.399 1.077-.726 2.18-.727 2.452-.005 1.06 1.184-.278 2.075-2.335zm-33.27-3.425c1.075-1.418 2.088-3.22 2.088-3.715 0-.182.238-.546.53-.81.29-.263.529-.57.529-.683 0-.113.426-.921.948-1.797.625-1.05.892-1.77.783-2.113-.09-.287-.04-.6.114-.694.153-.095.518-.64.81-1.213.76-1.491.108-1.37-1.42.261-.669.716-1.43 1.343-1.69 1.393-.328.063-.515.415-.615 1.16-.078.589-.465 1.62-.86 2.293-.394.673-.716 1.349-.716 1.503 0 .153-.373.885-.828 1.625-.633 1.028-.755 1.419-.518 1.655.236.237.107.476-.55 1.012-.75.612-.815.758-.501 1.136.496.597.794.438 1.895-1.013zm-36.54.222c0-.21-.239-.381-.53-.381-.578 0-.732.677-.198.868.447.16.727-.027.727-.487zM-46.67-8.768c.064-.194-.118-.331-.441-.331-.325 0-.552.17-.552.416 0 .487.826.415.993-.085zm24.934-.46c.18-.216.245-.603.145-.86-.165-.423-.23-.408-.691.158-.28.344-.51.73-.51.86 0 .377.7.272 1.056-.158zm-7.194-5.02c.305-.67.037-1.121-.476-.804-.32.197-.357 1.455-.043 1.455.122 0 .356-.293.52-.652zm-5.612-.869c-.29-.289-.487.17-.28.649.197.453.211.453.32-.01.064-.266.045-.553-.04-.639zm-67.228 214.499c-2.692-.796-3.632-1.027-6.947-1.71l-2.978-.612-2.528-2.321c-2.432-2.232-4.245-4.697-4.752-6.459-.104-.364-.28-.78-.39-.926-.215-.284-3.735-10.739-5.522-16.404-1.247-3.951-2.322-8.1-3.326-12.832a5411.524 5411.524 0 0 0-3.23-15.187c-.375-1.733-.37-1.852.109-2.33.535-.535 3.804-1.243 5.818-1.26 1.37-.01 1.471-.482.434-2.01-1.878-2.768-2.197-8.386-.725-12.777 1.253-3.737 3.76-7.527 4.649-7.026.234.132 1.494 1.67 2.8 3.416 2.57 3.438 10.493 11.815 12.445 13.159 1.802 1.24 3.428 1.301 5.702.216 4.172-1.991 6.753-5.108 10.74-12.97 3.028-5.97 2.835-5.802 5.292-4.616.78.377 2.192.923 3.138 1.215 2.172.671 3.216 1.645 3.216 3 0 1.744-.786 3.737-2.642 6.699-3.368 5.377-3.834 6.664-3.795 10.495.023 2.311.15 3.011 1.005 5.543 1.158 3.426 1.664 4.47 4.338 8.957 7.49 12.565 8.283 14.121 9.065 17.81 1.086 5.123.375 7.785-3.209 12.007-3.208 3.78-4.096 6.345-3.818 11.028.172 2.897.162 2.972-.473 3.607-1.425 1.425-8.34 2.538-16.875 2.717-5.187.108-5.852.07-7.54-.429zm7.938-90.071c-2.094-.578-5.843-2.407-6.316-3.083-.287-.41-.431-1.169-.431-2.276 0-1.526.075-1.743.928-2.687 1.325-1.467 3.233-2.224 5.686-2.256 1.714-.022 2.228.09 3.765.818 2.215 1.049 4.053 2.3 4.593 3.124.38.58.369.73-.149 1.903-.65 1.476-2.378 3.357-3.71 4.041-1.343.69-2.853.833-4.366.416z" transform="matrix(3.77953 0 0 3.77953 593.754 66.88)"/>
</svg>