<svg viewBox="0 0 223.173 223.173" xmlns="http://www.w3.org/2000/svg">
  <path style="fill:#c95e81;fill-opacity:1;stroke-width:.264583" d="M-114.502 205.015c-.13-.255-.308-.999-.395-1.654-.087-.654-.405-1.938-.707-2.851a9.4 9.4 0 0 1-.49-3.308c.051-1.376-.056-1.845-.652-2.86-.449-.764-.712-1.6-.712-2.26 0-.574-.179-1.73-.397-2.569-.219-.838-.397-2.5-.397-3.693 0-1.194-.194-3.123-.43-4.287-.45-2.209-.57-8.719-.24-12.964.09-1.164.056-2.678-.076-3.364-.152-.788-.14-1.75.03-2.614.196-.988.187-1.502-.031-1.851-.202-.324-.258-1.472-.169-3.471.182-4.066.3-4.794.95-5.896.411-.698.52-1.203.407-1.9-.095-.585-.012-1.225.217-1.668.205-.396.408-1.7.45-2.897.049-1.33.208-2.285.41-2.453.206-.17.318-.886.298-1.897-.018-.892.095-2.099.251-2.681.38-1.418.688-2.528 1.355-4.895.308-1.091.665-2.58.794-3.307.13-.728.435-1.859.68-2.514.243-.654.561-1.666.705-2.249.145-.582.45-1.594.677-2.249.229-.654.606-2.096.839-3.204.233-1.107.586-2.207.784-2.444.198-.236.3-.589.225-.783-.375-.977 2.583-9.954 5.655-17.162.848-1.99 1.968-4.89 2.488-6.447.52-1.555 1.122-3.169 1.338-3.585.215-.416.634-1.78.931-3.03.297-1.25.764-2.671 1.039-3.16.274-.489 1.353-3.488 2.397-6.664 1.14-3.47 2.372-6.655 3.084-7.978.651-1.211 1.119-2.268 1.038-2.349-.08-.08.048-.518.286-.972.237-.455.871-2.077 1.41-3.605 1.634-4.643 2.289-6.284 2.817-7.062.625-.92 1.14-2.098 1.14-2.606 0-.211.417-1.286.927-2.388.509-1.102.997-2.288 1.084-2.636.087-.348.445-.941.794-1.318.361-.39.636-1.01.636-1.439 0-.413.606-2.044 1.347-3.624.74-1.58 1.577-3.449 1.858-4.154.281-.706.787-1.659 1.123-2.117.336-.459.808-1.37 1.049-2.025.601-1.638 3.553-6.934 4.099-7.354.245-.188.718-.274 1.052-.19.525.131.695-.036 1.266-1.245.856-1.81 1.762-3.115 2.096-3.018.58.17.395 1.057-.494 2.363-.514.756-1.016 1.732-1.116 2.168-.194.852-1.066 2.38-2.384 4.176-.45.614-.974 1.592-1.162 2.174-.19.582-1.526 3.5-2.97 6.483-1.446 2.983-2.812 5.96-3.036 6.614-.225.655-.871 2.17-1.437 3.368-1.001 2.123-1.301 3.511-.758 3.511.148 0 .467-.415.71-.923.241-.508.644-.988.894-1.067.286-.091.407-.326.326-.635-.07-.27-.002-.568.152-.663.154-.095.36-.774.457-1.508.14-1.051.309-1.394.801-1.619.634-.288.823-.839.383-1.111-.133-.082.002-.655.3-1.273.57-1.18.842-1.714 2.902-5.709.7-1.358 1.273-2.69 1.273-2.96 0-.805.48-.86 1.2-.14.372.371.73.675.796.675.297 0 .075-.677-.386-1.174-.494-.532-.647-.977-.583-1.691.022-.248.258-.302.8-.183.881.193 1.265-.176.683-.659-.594-.493-.478-1.14.4-2.246.437-.55.794-1.227.794-1.505 0-.328.287-.607.814-.79.683-.239.789-.387.655-.918-.203-.81.264-1.71.784-1.511.216.083.601.07.856-.03.406-.157.382-.223-.199-.54l-.661-.36.968-.407c1.093-.461 1.328-.865.908-1.564-.237-.396-.16-.586.439-1.069 1.583-1.276.374-1.905-1.34-.696-.641.451-1.224.763-1.295.691-.478-.477 3.076-6.194 3.636-5.848.244.151.078.834-.332 1.365-.16.208-.063.408.289.596 1.15.615 1.783.093 1.458-1.204-.154-.612-.104-.647.823-.584.99.066 1.722-.475 1.722-1.275 0-.183.138-.637.307-1.007.236-.52.503-.674 1.158-.674.468 0 .99-.167 1.16-.371.247-.299.163-.425-.431-.644-.697-.257-.707-.282-.176-.445.681-.209 1.157-1.17 1.157-2.336 0-1.14.41-1.496 1.728-1.496.973 0 1.164-.11 1.735-.992l.642-.992 3.377-.074c2.89-.064 3.4-.014 3.538.347.1.262-.052.572-.402.817-.613.43-.736 1.021-.27 1.309.161.1 1.045.165 1.964.145l1.67-.036.979 1.193c.838 1.022 1.118 1.193 1.954 1.193 1.435 0 1.976.481 1.614 1.434-.158.416-.255.779-.214.806.04.028.468.208.95.4 1.044.415 2.166 1.956 2.166 2.972 0 .671.051.706.686.465.585-.223.706-.182.826.278.114.437.324.525 1.1.466.92-.07.957-.04.89.72a75.3 75.3 0 0 0-.139 2.778c-.038 1.092-.204 2.226-.37 2.52-.429.761-1.14 3.625-1.14 4.587 0 .536-.288 1.14-.845 1.774-.579.66-.955 1.471-1.198 2.588-.703 3.225-.715 3.397-.241 3.662.556.311.313.744-.416.744-.52 0-.543-.101-.392-1.72.128-1.368.086-1.72-.207-1.72-.647 0-1.456 1.297-1.3 2.082.086.426-.132 1.505-.54 2.67-.375 1.076-.683 2.242-.683 2.592 0 .35-.285 1.37-.635 2.269-.628 1.614-.95 3.22-1.08 5.4-.037.617-.216 1.3-.397 1.52-.181.217-.377 1.001-.435 1.74-.057.74-.282 1.688-.498 2.107-.452.873-.517 2.003-.13 2.243.42.258.31.588-.243.732-.47.123-.482.211-.16 1.146.655 1.906 1.231 1.328 1.56-1.568a16.64 16.64 0 0 1 .693-3.013c.285-.81.457-1.57.384-1.688-.074-.12.058-.668.291-1.22.234-.552.522-1.937.64-3.076.237-2.302.615-2.995 1.202-2.2.258.35.291.677.114 1.142-.403 1.06-.291 1.594.521 2.483.768.84 1.348.864 1.348.055 0-.236.11-.794.242-1.241 1.553-5.223 1.994-6.428 2.536-6.928.414-.382.533-.675.374-.926-.326-.515-.297-.764.09-.764.36 0 1.602-2.892 1.701-3.959.034-.358.3-.835.59-1.058.483-.371.948-1.453 1.884-4.376.186-.582.554-1.356.817-1.72.527-.727.96-2.257 1.279-4.513.114-.809.455-2.03.757-2.713.611-1.382 1.274-1.77 3.027-1.77 1.02 0 1.058.026.578.394-.502.385-.499.405.148.926.997.802 1.702.597 1.807-.526.048-.509.267-1.126.487-1.37a1.04 1.04 0 0 0 .226-.992c-.128-.404-.059-.548.266-.548.242 0 .783-.203 1.201-.45.702-.414.73-.486.346-.91-.504-.556-.24-1.102.43-.89.633.202.898-.244.394-.663-.545-.452-.498-.723.28-1.65.53-.628.658-1.036.596-1.887-.092-1.254-.593-1.506-1.635-.823-.743.487-.67 1.063.16 1.28.51.133.522.19.158.739-.548.825-.916.884-1.101.176-.198-.754-.426-.495-1.21 1.374-1.354 3.223-2.365 5.058-2.882 5.23-.673.224-.63-.837.099-2.41.414-.896.898-1.808 1.073-2.027.176-.218 1.054-1.825 1.951-3.571.897-1.747 1.897-3.533 2.222-3.97.325-.436 1.281-2.162 2.125-3.836 1.825-3.618 6.42-11.058 7.089-11.474.259-.162.47-.446.47-.631 0-.186.11-.544.243-.797.133-.252.38-.833.55-1.29.308-.836 1.004-1.153 2.526-1.153.405 0 .792-.3 1.163-.9.591-.957 1.221-1.358 1.479-.941.228.37 1.628.309 2.453-.107 1.35-.679 2.11-.74 2.62-.207.75.781 1.432 1.03 2.895 1.06.906.017 1.47-.106 1.686-.366.179-.215.549-.392.822-.392.376 0 .497.194.497.794 0 .915.033.927 1.05.402.671-.348.868-.347 1.706.003 1.063.444 1.188.884.443 1.558-.303.274-.56.952-.643 1.694-.075.681-.219 1.627-.319 2.101-.15.713-.11.836.227.707.471-.181.975-1.461.975-2.477 0-1.8 1.467-2.335 3.667-1.336.912.414 1.113.62.962.986-.45 1.091-.454 1.39-.021 1.39.24 0 .505-.18.588-.398.321-.836 2.213-.244 2.213.693 0 .948.6.384.981-.922.449-1.539 1.064-1.57 1.631-.08.371.974.361 1.03-.298 1.641-.735.682-.732 1.445.007 2.3.35.405.346.53-.037 1.115-.238.362-.436 1.05-.44 1.528-.005.478-.178 1.092-.384 1.365-.221.292-.316.793-.23 1.22.084.426-.038 1.077-.298 1.58-.243.47-.375.921-.294 1.003.082.081-.083.522-.366.98-.282.457-.593 1.332-.691 1.943-.15.936-.108 1.113.266 1.113.474 0 1.211-1.45 1.211-2.382 0-.301.172-.811.381-1.133.21-.323.702-1.777 1.095-3.232l1.205-4.477c.652-2.425 1.12-3.12 2.03-3.014.556.065.74.255.848.876l.137.794.435-.62c.683-.973 1.373-.65 1.61.756.403 2.375.432 5.917.058 7.14-.2.655-.69 2.798-1.088 4.762-.54 2.662-.984 4.078-1.74 5.557-.558 1.091-1.263 2.815-1.567 3.83-.304 1.017-1.08 2.78-1.727 3.918-.745 1.313-1.117 2.25-1.018 2.563.108.34 0 .544-.35.655-.508.161-1.592 2.92-1.272 3.24.084.085-.081.483-.368.886-.286.403-.522 1.011-.522 1.353 0 .341-.218.978-.484 1.414-.265.437-.556 1.164-.646 1.617-.09.453-.451 1.465-.803 2.249-.35.784-.842 2.497-1.092 3.807-.25 1.31-.851 3.572-1.337 5.027s-.965 3.241-1.064 3.969c-.099.727-.457 2.197-.795 3.265-.397 1.25-.563 2.267-.468 2.855.115.712.018 1.05-.445 1.544-.326.347-.513.761-.415.92.098.159-.05.674-.33 1.144-.554.929-1 2.525-1.25 4.48-.087.684-.569 2.016-1.07 2.96-.894 1.686-.965 2.543-.209 2.543.21 0 .509-.362.663-.805.293-.84.662-.909 1.103-.208.192.303.077.649-.436 1.323-.921 1.207-3.005 5.65-3.232 6.89-.099.541-.346 1.121-.549 1.29-.203.168-.37.642-.37 1.052 0 .41-.121.821-.27.914-.15.092-.249.545-.22 1.007.028.462-.19 1.317-.486 1.899-.605 1.19-.542 1.72.205 1.72.39 0 .507-.189.507-.81 0-.503.3-1.183.795-1.798.437-.544 1.036-1.676 1.331-2.514.474-1.348 1.343-2.9 2.943-5.253.268-.394.487-.947.487-1.228 0-.317.239-.57.628-.669.847-.212 1.338-1.417.972-2.381-.431-1.134-.34-1.392.583-1.656.727-.207.874-.385.947-1.152.05-.518.305-1.06.596-1.263.28-.196.512-.618.517-.937.005-.319.18-.878.388-1.242.208-.363.382-.988.387-1.389.007-.534.143-.727.51-.727.276 0 .569-.177.652-.393a.42.42 0 0 1 .557-.236c.478.183.494.097.149-.81-.326-.856.117-1.923.894-2.159.305-.092.952-.465 1.437-.83 1.261-.944 1.656-.418.593.792-.447.51-.814 1.165-.814 1.455 0 .29-.187.684-.416.874-.23.19-.807 1.127-1.283 2.083a72.492 72.492 0 0 1-1.499 2.843c-.68 1.192-.548 1.767.24 1.053.268-.241.566-.439.664-.439.492 0-.073 1.394-2.832 6.991-1.655 3.358-3.226 6.701-3.491 7.429-.604 1.657-1.33 3.004-2.025 3.757-.298.323-.467.763-.38.99.132.345.31.304 1.152-.267.548-.372 1.035-.56 1.083-.416.047.143-.102 1.192-.333 2.331-.318 1.57-.577 2.202-1.073 2.61-.479.395-.655.8-.655 1.506 0 .532-.119 1.04-.264 1.13-.426.264-.318 1.456.132 1.456.227 0 .397-.239.397-.557 0-.307.289-.9.642-1.32.353-.42.828-1.404 1.055-2.187.447-1.535.974-2.17 1.602-1.929.61.234.214 1.772-.657 2.553-.97.87-1.348 1.645-1.04 2.131.35.555.305.78-.159.78-.318 0-.373.19-.248.86.133.709-.027 1.15-.914 2.523-1.716 2.653-2.344 4.554-1.504 4.554.529 0 .798-.42 1.758-2.738.473-1.143 1.23-2.634 1.683-3.315.454-.681.952-1.532 1.108-1.892.845-1.947 1.876-3.851 2.616-4.835.46-.61.997-1.527 1.195-2.037.197-.509.517-1.114.712-1.343.194-.23.353-.565.353-.746 0-.18.276-.706.613-1.17.737-1.012 2.018-3.477 2.843-5.472.331-.8 1.116-2.188 1.743-3.083.628-.895 1.429-2.42 1.78-3.388.618-1.703 1.32-2.79 1.803-2.79.128 0 .099.25-.065.556-.163.305-.512 1.168-.775 1.918-.785 2.235-2.926 6.583-3.77 7.653-.572.726-.743 1.172-.628 1.633.116.46-.156 1.168-1 2.595-.638 1.079-1.247 2.487-1.354 3.13-.14.84-.425 1.364-1.017 1.863-.714.602-.776.75-.466 1.124.287.345.292.51.028.828-.18.218-.474.397-.651.397-.44 0-1.076 1.408-.693 1.536.46.153.33.53-.243.713-.291.092-.53.375-.53.63 0 .253-.356.803-.793 1.222-.93.89-1.02 1.455-.236 1.455.4 0 .512.118.397.418-.089.23-.161.469-.161.53 0 .06-.235.11-.523.11-.434 0-.518.17-.492.992.018.546-.063 1.276-.178 1.623-.155.466-.12.601.134.516.487-.162 2.223-3.307 2.923-5.294.324-.92.82-2.002 1.102-2.404.58-.825 1.17-.736.717.108-.396.74-.091.939.55.358.293-.265.59-.424.66-.354.195.195-.684 2.325-1.51 3.661-1.202 1.942-1.783 3.26-1.79 4.056-.007.892-1.29 2.294-2.102 2.294-.628 0-.659.096-.266.829.224.418.148.79-.36 1.769-.353.681-.786 1.68-.961 2.221-.299.919-.374.972-1.162.822l-.843-.16.601.656.601.657-.56.712c-.308.392-.49.896-.404 1.12.234.609 1.032.333 1.428-.493.191-.398.44-.724.553-.724.403 0 .55.353.282.676-.15.18-.322.588-.383.905-.333 1.726-.742 2-1.589 1.065-.459-.507-1.19-.724-1.19-.352 0 .098.207.407.461.688.442.488.44.506-.056.418-.33-.06-.553.076-.614.37-.074.363.085.463.734.463.485 0 .76.11.665.265-.09.145-.543.266-1.008.268-1.088.005-1.584.33-1.455.954.073.356.307.483.82.448.59-.041.717.06.717.57 0 .341-.223 1.078-.496 1.637-.274.56-.763 1.85-1.088 2.87-.325 1.018-1.037 2.804-1.584 3.968-.546 1.164-1.06 2.478-1.143 2.92-.083.44-.537 1.631-1.008 2.645-.947 2.033-1.39 4.784-.736 4.57.202-.066.562-.72.8-1.454.239-.733.637-1.644.886-2.024.25-.38.55-1.081.666-1.557.278-1.13 3.2-7.773 4.078-9.272.376-.641.683-1.322.683-1.512 0-.19.43-.87.954-1.51.706-.862.983-1.478 1.067-2.376.078-.84.354-1.505.898-2.165.432-.524.786-1.087.786-1.25 0-.165.302-.625.671-1.023.426-.46.616-.902.519-1.207-.085-.266-.023-.564.137-.663.16-.099.271-.436.246-.75-.078-.998.002-1.191.566-1.37.422-.135.515-.321.395-.798-.125-.5.049-.788.883-1.458.913-.734 1.022-.938.9-1.692-.168-1.03.444-2.341 1.377-2.952.36-.237.656-.638.656-.892s.309-.917.686-1.474c.378-.556.791-1.287.92-1.624.128-.337.355-.613.504-.613.359 0 .356.024-.27 1.927-.388 1.183-.814 1.883-1.518 2.492-.93.805-.962.887-.663 1.68.29.769.234.965-.73 2.554-.576.946-1.046 1.77-1.046 1.833 0 .062-.417.99-.926 2.064-.51 1.073-.926 2.043-.926 2.156 0 .112-.724 1.66-1.61 3.441-1.364 2.745-1.564 3.322-1.312 3.793.258.481.208.589-.375.81-.679.259-.925 1.14-.407 1.46.472.291.28 1.083-.42 1.74-1.258 1.177-1.904 3.9-1.115 4.689.247.247.247.318 0 .318-.175 0-.317.294-.317.654 0 .588-.068.63-.657.406-.532-.203-.708-.154-.926.253-.392.733-.33 1.59.127 1.766.981.376.101 3.788-1.425 5.525-.576.656-.79 1.233-.935 2.506-.111.986-.43 2.04-.788 2.613-.97 1.55-1.567 3.38-1.39 4.263.143.715.091.799-.489.799-.572 0-.63.088-.496.76.111.557-.038 1.046-.56 1.836-.393.593-.64 1.195-.552 1.34a.313.313 0 0 1-.107.427c-.148.091-.27.756-.27 1.477 0 .95-.251 1.837-.915 3.225-.505 1.053-.998 2.433-1.097 3.067-.314 2.007-1.39 2.316-5.66 1.625a76.06 76.06 0 0 0-3.175-.438c-3.013-.33-11.484-2.923-15.937-4.877-6.961-3.055-11.793-6.554-13.399-9.7-.932-1.829-.77-2.674 1.017-5.301 3.502-5.15 4.404-9.366 2.923-13.67-.293-.853-.533-1.59-.533-1.64 0-.232.898-.051 1.631.328 1.17.605 3.978.534 5.33-.134 1-.496 1.087-.5 1.41-.076.189.249.349 1.107.356 1.907.024 2.877 1.162 3.674 2.693 1.885 2.73-3.189 2.865-10.506.27-14.598-.744-1.173-3.754-4.07-6.134-5.904-1.863-1.435-3.664-2.285-4.842-2.285-.904 0-1.21-.162-2.078-1.102-.56-.607-1.017-1.185-1.017-1.285 0-.274-3.762-3.308-5.406-4.36-2.211-1.414-6.156-2.818-9.94-3.537-.8-.152-2.23-.426-3.175-.608-2.274-.44-9.733-.437-11.774.004-3.464.748-6.285 1.782-10.672 3.911-4.471 2.17-4.648 2.288-7.03 4.668-2.34 2.337-5.656 6.892-8.135 11.173-2.236 3.862-4.57 10.482-5.69 16.14-.345 1.745-.755 3.71-.91 4.365-.157.655-.348 4.048-.426 7.54-.133 5.988-.01 8.553.727 15.214.137 1.237.324 3.38.416 4.762l.167 2.514-1.318 1.436c-1.522 1.66-2.92 4.999-3.108 7.428-.24 3.082-.48 4.9-.664 5.027-.105.072-.44.698-.743 1.389-.45 1.023-.677 1.257-1.222 1.257-.687 0-1.477 1.067-1.477 1.996 0 .24-.178.751-.396 1.138-.381.677-.708 2.002-1.608 6.523-.232 1.164-.59 2.38-.796 2.702-.206.323-.375.944-.375 1.382 0 .569-.216.955-.762 1.358-.711.526-.769.707-.877 2.758-.083 1.583-.257 2.405-.624 2.95-.45.667-.515 1.304-.558 5.432-.046 4.441-.25 5.775-.883 5.775-.135 0-.352-.208-.483-.463zM5.97 130.072c.09-.146.037-.265-.117-.265s-.28.12-.28.265c0 .145.052.264.117.264.064 0 .19-.119.28-.264zm-117.507-2.526c.163-.425-.24-.757-.63-.517-.145.09-.264.391-.264.669 0 .57.66.457.894-.152zm119.756-1.575c0-.218-.12-.397-.265-.397-.145 0-.264.179-.264.397 0 .218.119.397.264.397.146 0 .265-.179.265-.397zm-117.475-9.393c0-.145-.053-.265-.117-.265s-.19.12-.28.265c-.09.146-.038.265.117.265.154 0 .28-.12.28-.265zm108.479-3.852c0-.21-.12-.381-.265-.381-.145 0-.264.245-.264.545 0 .3.119.47.264.38.146-.09.265-.334.265-.544zm-106.76-1.44c.287-.462-.138-.853-.552-.51-.206.171-.374.415-.374.543 0 .319.725.293.927-.033zM7.69 110.111c0-.517-.513-.799-.847-.465-.15.15-.191.4-.094.559.26.42.94.352.94-.094zm-5.61-3.28c-.043-.364-.217-.708-.386-.764-.35-.115-.748 1.357-.483 1.786.299.483.957-.29.87-1.021zm1.015-1.917c.02-.351.192-1.016.381-1.478.284-.69.283-.912-.002-1.257-.42-.505-1.076-.55-1.076-.074 0 .19.147.491.326.67.259.259.204.359-.265.481-.455.12-.59.348-.59.997 0 1.408 1.15 2.028 1.226.661zm4.75-2.29c-.183-.184-.685.189-.685.508 0 .176.152.156.404-.053.221-.184.348-.39.282-.456zm-2.947-1.483c.371-.487.675-1.125.675-1.42 0-.293.223-.818.495-1.165.584-.746.96-2.237.618-2.45-.133-.081-.467.034-.743.257-.353.284-.405.445-.177.54.225.095.107.411-.38 1.022-.648.812-.752.854-1.245.509-.992-.695-1.343-.192-.51.73.373.41.389.583.105 1.113-.339.634-.177 1.749.254 1.749.128 0 .537-.398.908-.885zm3.32.62c0-.145-.111-.264-.248-.264s-.323.119-.413.264c-.09.146.022.265.25.265.226 0 .412-.12.412-.265zm-6.746-.529c0-.214-.209-.43-.463-.479-.325-.062-.463.08-.463.48 0 .398.138.54.463.478.254-.049.463-.264.463-.479zm7.296-.337c-.033-.316-.396-.255-.51.086-.058.175.037.27.212.212.175-.059.309-.193.298-.298zm-10.4-.407c.058-.173-.083-.314-.314-.314a.42.42 0 0 0-.419.419c0 .467.57.386.734-.105zm4.042-.672c-.403-.404-.878.085-.511.526.256.31.362.318.53.045.117-.188.108-.445-.02-.571zm8.672.005c.049-.25-.082-.44-.302-.44-.419 0-.777.637-.51.905.269.267.72.009.812-.465zm-1.54-.44a.265.265 0 0 0-.265-.265.265.265 0 0 0-.265.264.265.265 0 0 0 .53 0zm2.376-3.694c.619-1.214.69-1.907.178-1.71-.318.122-1.496 2.16-1.496 2.588 0 .093.176.17.391.17.216 0 .633-.472.927-1.048zm-4.493-.424c0-.21-.238-.38-.53-.38-.594 0-.678.273-.221.73.364.364.751.185.751-.35zm3.908-1.654c.059-.176-.138-.314-.446-.314-.55 0-.715.278-.37.623.245.245.687.078.816-.31zm-5.76.115c0-.055-.179-.248-.397-.43-.325-.269-.397-.251-.397.1 0 .237.179.43.397.43.218 0 .397-.045.397-.1zm-103.39-.892c.172-.4.527-1.012.787-1.359.776-1.034.524-3.205-.373-3.205-.116 0-.212.387-.213.86 0 .472-.29 1.569-.643 2.436-.353.866-.584 1.67-.512 1.785.253.411.643.2.953-.517zM2.53 92.27c.08-.205.076-.442-.007-.525-.276-.275-1.05.403-1.139.996-.078.528-.034.551.458.244.3-.187.61-.509.688-.715zm3.571.223c0-.317-.746-.657-.964-.44-.232.233.161.713.583.713.21 0 .381-.123.381-.273zm-2.33-3.084c.725-.694.98-1.406.505-1.406-.23 0-1.88 1.749-1.88 1.994 0 .347.72.04 1.375-.588zm-99.168-1.793c.603-.92.564-1.994-.072-1.994-.567 0-1.483 1.66-1.25 2.267.223.58.847.451 1.322-.273zm112.61-.158c0-.552-.389-.69-.669-.236-.24.388.08 1.114.403.915.147-.091.267-.396.267-.679zM4.78 86.68c0-.145-.126-.264-.28-.264-.154 0-.207.119-.117.264.09.146.216.265.28.265.065 0 .117-.12.117-.265zm1.274-1.391c.047-.4-.024-.726-.157-.726-.42 0-1.176 1.013-.986 1.321.33.535 1.057.156 1.143-.595zm-100.466-.527c.015-.182.007-.702-.017-1.156-.027-.512.103-.881.344-.974.213-.081.472-.663.576-1.291.104-.629.304-1.287.446-1.462.142-.176.194-.422.116-.548-.078-.126.09-.428.374-.67.29-.25.516-.776.516-1.206 0-.42.178-.912.396-1.094.488-.404.503-1.558.03-2.182-.516-.68-.666-.58-.85.566-.118.743-.343 1.11-.808 1.322-.556.254-.622.416-.477 1.185.129.688-.069 1.464-.866 3.4-1.148 2.786-1.262 4.44-.307 4.44.275 0 .512-.148.527-.33zM6.896 83.108a.398.398 0 0 0-.397-.397.398.398 0 0 0-.397.397c0 .219.179.397.397.397a.398.398 0 0 0 .397-.397zm.529-1.042c0-.065-.12-.19-.265-.28-.145-.09-.264-.038-.264.116s.119.28.264.28c.146 0 .265-.052.265-.116zm.811-1.385c.207-.545.179-.797-.125-1.101-.349-.349-.43-.315-.707.294-.331.727-.184 1.514.284 1.514.154 0 .4-.318.548-.707zm-62.459.343c0-.055-.179-.248-.397-.43-.325-.269-.397-.25-.397.1 0 .237.179.43.397.43.218 0 .397-.045.397-.1zm57.944-.99c0-.592-.745-.669-.963-.1-.084.218-.078.588.012.823.132.345.238.364.557.1.217-.18.394-.55.394-.824zm-57.415-.998c0-.957-.481-1.576-.9-1.157-.277.277-.17 1.54.16 1.87.543.543.74.354.74-.713zm-34.804.254c.196-.317-.302-.63-.654-.412-.296.182-.102.658.269.658.128 0 .301-.11.385-.246zm35.589-3.524c.006-.47-.13-.728-.383-.728-.492 0-.781 1.094-.541 2.05l.182.728.366-.661c.202-.364.37-.989.376-1.389zm21.544 1.236c.093-.242-.031-.376-.348-.376-.481 0-.917.603-.638.882.22.22.827-.09.986-.506zm-62.545-2.625c0-.218-.12-.397-.265-.397-.146 0-.265.179-.265.397 0 .218.12.397.265.397.146 0 .265-.179.265-.397zm3.562-1.649c.384-.565.67-1.362.67-1.863 0-.48.239-1.341.53-1.912.596-1.168.728-3.02.204-2.846-.18.06-.521.655-.76 1.323-.239.667-.683 1.563-.986 1.989-.721 1.012-1.045 4.297-.424 4.297.052 0 .397-.445.766-.988zm4.06.703c-.052-.156-.208-.284-.346-.284-.139 0-.294.128-.347.284-.052.157.104.285.347.285.242 0 .398-.128.346-.285zm34.182-.664c0-.467-.57-.385-.733.105-.058.173.083.314.314.314a.42.42 0 0 0 .419-.419zm3.704-.141c0-.146-.12-.191-.265-.101-.145.09-.264.283-.264.428 0 .146.119.191.264.101.146-.09.265-.282.265-.428zm-36.996-.671c.534-.484.646-1.15.194-1.15-.407 0-1.827 1.043-1.827 1.341 0 .408 1.114.278 1.633-.191zm33.556-1.315c0-.346-.122-.629-.27-.629-.344 0-.845 1.282-.634 1.623.256.415.904-.297.904-.994zm-40.282.099a.52.52 0 0 0-.464-.33.52.52 0 0 0-.463.33c-.065.197.122.33.463.33s.53-.133.464-.33zm103.008-.271c-.032-.317-.395-.255-.509.086-.058.174.037.27.212.211.174-.058.308-.192.297-.297zm.51-1.118c0-.218-.12-.397-.265-.397-.145 0-.264.179-.264.397 0 .218.119.397.264.397.146 0 .265-.179.265-.397zm-62.442-1.087c0-.423-.681-.5-.926-.104a.54.54 0 0 0-.007.518c.218.352.933.035.933-.414zm4.596.095c.241-.9.21-.992-.345-.992-.53 0-.97.852-.68 1.32.29.47.86.287 1.025-.328zm59.51-2.08c-.447-.447-.978-.022-.577.46.221.268.404.301.595.11.191-.192.185-.366-.019-.57zm-64.106.162c0-.219-.119-.397-.265-.397-.145 0-.264.178-.264.397 0 .218.119.396.264.396.146 0 .265-.178.265-.396zm5.514-.278c.416-.914.386-1.442-.084-1.442-.518 0-1.296 1.212-1.102 1.717.236.615.845.474 1.186-.275zm-44.937-.384a.265.265 0 0 0-.264-.265.265.265 0 0 0-.265.265.265.265 0 0 0 .53 0zm39.544-.246c.084-.136.031-.321-.117-.413-.148-.091-.269.02-.269.247 0 .464.16.533.386.166zm-29.369-.53c.084-.135.032-.32-.116-.412-.148-.091-.27.02-.27.246 0 .465.16.534.386.167zm-7.31-.348c-.04-.182.147-.658.414-1.057.484-.726.408-1.65-.121-1.473-.475.158-1.391 1.99-1.22 2.439.19.494 1.028.577.926.09zm42.802-1.572c1.378-2.665 1.628-5.506.485-5.506-.55 0-.714.574-.4 1.4.222.583.16.824-.366 1.451-.433.515-.56.871-.399 1.13.15.244.09.6-.171.999-.413.63-.333 1.37.148 1.37.147 0 .463-.38.703-.844zm14.327-.104c-.252-.252-.757.156-.57.46.112.18.26.176.45-.014.156-.155.21-.356.12-.446zm-51.457-.533.467-.938-.6.085c-.46.065-.618.284-.682.945-.108 1.121.23 1.083.815-.092zm32.424-.355c.066-.198-.033-.297-.232-.231a.827.827 0 0 0-.463.463c-.066.198.033.298.232.231a.827.827 0 0 0 .463-.463zm65.241-.35c.33-.522.076-.85-.49-.633-.472.181-.566 1.328-.096 1.172.172-.058.435-.3.586-.539zM-79 61.404c-.082-.214-.256-.388-.386-.388-.271 0-.319.622-.067.874.282.283.612-.071.453-.486zm-6.936-.346c.163-.442.11-.634-.211-.757-.6-.23-1.25.67-.84 1.165.394.474.78.324 1.051-.408zm36.477-.307c0-.146-.053-.265-.117-.265s-.19.12-.28.265c-.09.146-.038.265.116.265s.28-.12.28-.265zm-35.984-1.323c0-.291-.05-.53-.11-.53-.061 0-.3-.071-.53-.16-.5-.192-.57.432-.1.902.466.466.74.388.74-.212zm36.408-.193c-.269-.269-.49.136-.27.493.167.27.229.27.318.001.062-.184.04-.406-.048-.494zm-33.233-1.659c0-.146-.052-.265-.116-.265-.065 0-.19.12-.28.265-.09.146-.038.265.116.265s.28-.12.28-.265zm33.602-.148c0-.227-.119-.339-.264-.249-.146.09-.265.276-.265.413 0 .137.12.249.265.249.145 0 .264-.186.264-.413zm-35.579-1.056c.177-.575.626-1.685.996-2.467.647-1.363.672-2.073.087-2.463-.452-.302-.693.033-.693.965 0 .523-.38 1.555-.926 2.523-1.04 1.838-1.052 1.886-.606 2.332.49.489.789.256 1.142-.89zm4.623-.531c0-.437-.418-.51-.661-.117-.216.349.1.844.415.65.135-.084.246-.324.246-.533zm-6.615-.933c0-.645-.618-.554-.747.11-.05.261.085.441.331.441s.416-.226.416-.55zm45.377-.507a.52.52 0 0 0-.331-.463c-.197-.066-.33.122-.33.463s.133.529.33.463a.52.52 0 0 0 .33-.463zm-37.59-.775c.581-.595.954-1.2.872-1.414-.21-.545-2.515-1.15-2.903-.762-.225.226-.154.501.285 1.094.409.554.535.993.419 1.457-.235.937.153.827 1.327-.375zm2.4-.019c.09-.145.044-.264-.101-.264-.146 0-.338.119-.428.264-.09.146-.045.265.1.265.146 0 .339-.12.429-.265zm35.526-.314c-.164-.49-.733-.572-.733-.105 0 .23.188.42.419.42.23 0 .371-.142.314-.315zm.457-1.67c0-.267-.134-.53-.298-.585-.348-.116-.702.648-.472 1.02.246.398.77.103.77-.435zm-28.178.044c0-.498-.254-.693-.687-.527-.563.216-.444.88.158.88.291 0 .53-.159.53-.353zm30.956-.822c0-.064-.119-.19-.264-.28-.146-.09-.265-.038-.265.116s.12.28.265.28c.145 0 .264-.052.264-.116zm-29.898-1.541c0-.33-.154-.468-.46-.41-.512.1-.734.804-.469 1.488.158.408.207.402.552-.066.207-.283.377-.738.377-1.012zm1.175.7c.157-.625.03-1.152-.211-.873-.25.29-.416 1.566-.203 1.566.132 0 .319-.312.414-.693zm-10.566-.632c.09-.147-.027-.34-.26-.43-.507-.194-.79.02-.546.414.22.356.591.363.806.016zm37.674-1.056c.365 0 .166-.938-.33-1.555-.235-.294-.354-.218-.616.397-.179.418-.33 1.047-.337 1.397-.011.6.016.611.472.198.266-.24.631-.437.811-.437zm2.674-.164c0-.218-.12-.323-.265-.233-.145.09-.264.342-.264.56 0 .218.119.323.264.233.146-.09.265-.342.265-.56zm-40.003-.12c-.052-.157-.208-.285-.346-.285-.138 0-.294.128-.346.284-.052.157.103.285.346.285.242 0 .398-.128.346-.285zm7.98-1.138c-.008-.785-.029-.8-.397-.314-.214.283-.389.803-.389 1.157 0 .542.063.591.397.314.219-.181.393-.702.389-1.157zm1.732.62c.715-1.383-.213-1.888-1.005-.547-.591 1-.574 1.349.068 1.349.314 0 .688-.32.937-.802zm-11.465-1.108c-.45-.45-.668-.071-.447.773l.194.74.279-.604c.2-.435.194-.69-.026-.909zm50.222.67c0-.335-.073-.352-.394-.086-.216.18-.327.435-.246.566.209.338.64.015.64-.48zm-44.979-.613c0-.145-.052-.264-.116-.264-.065 0-.19.119-.28.264-.09.146-.038.265.116.265s.28-.119.28-.265zm7.303-1.467c.198-.79.072-.986-.498-.767-.475.182-.791.845-.572 1.2.293.475.904.228 1.07-.433zm-6.774-.658c0-.666-.43-.67-.784-.009-.446.834-.351 1.136.255.812.291-.156.53-.518.53-.804zm-2.645.34c0-.11-.419-.532-.93-.94-.822-.657-.948-.69-1.102-.29-.114.297.034.62.43.94.6.486 1.602.667 1.602.29zm41.486-.384c.38-.38.424-1.27.062-1.27-.278 0-.803.853-.803 1.305 0 .375.348.358.741-.035zm4.551-.36c0-.436-.418-.51-.661-.116-.216.349.1.844.415.65.135-.084.246-.324.246-.534zm-38.009-.26c-.083-.216-.003-.57.176-.786.267-.32.248-.393-.102-.393-.316 0-.43.25-.43.941 0 .532.11.874.254.786.139-.086.185-.333.102-.548zm-7.235-.225c0-.203-.178-.437-.397-.52-.27-.104-.396.014-.396.368 0 .286.178.52.396.52.219 0 .397-.165.397-.368zm25.786-1.912c.204-1.087-.224-1.841-.657-1.157-.284.449-.344 1.94-.089 2.196.303.303.561-.057.746-1.039zm-27.095.26c.146-.384.213-.751.149-.816-.266-.265-1.22.513-1.22.994 0 .762.762.636 1.071-.178zm49.463.213c0-.345-.314-.574-.57-.416-.274.17-.038.636.322.636.136 0 .248-.1.248-.22zm-47.095-.277c0-.127-.179-.38-.397-.561-.332-.275-.397-.237-.397.232 0 .323.169.562.397.562.218 0 .397-.105.397-.233zm8.934-.297c.267-.428.264-.529-.016-.529-.383 0-.98.516-.98.847 0 .416.672.202.996-.318zm31.77.296c.197-.125.588-1.217.87-2.427.282-1.211.638-2.353.79-2.537.326-.392.139-.778-.557-1.15a.777.777 0 0 0-1.061 1.057c.47.877.282 2.069-.525 3.342-.598.943-.719 1.33-.497 1.596.34.41.493.428.98.119zm-33.092-1.569c.058-.173-.084-.314-.314-.314a.42.42 0 0 0-.42.419c0 .467.57.386.734-.105zm-14.227-1.026c0-.52-.638-.29-.747.27-.06.307.04.392.331.28.229-.087.416-.335.416-.55zm32.023-.016c.005-.4.181-.956.392-1.235.388-.512.13-1.212-.446-1.212-.487 0-1.025 1.786-.753 2.5.339.891.796.861.807-.053zm53.387.443c-.052-.156-.208-.284-.346-.284-.139 0-.294.128-.347.284-.052.157.104.285.347.285.242 0 .398-.128.346-.285zm-78.992-2.514c.763-2.192.786-3.091.062-2.49-.417.345-1.453 3.398-1.453 4.28 0 1.111.691.222 1.391-1.79zm1.365 1.57c.092-.239.115-.486.051-.55-.18-.18-1.22.443-1.22.73 0 .433.992.281 1.17-.18zm47.727.118c.403-.403.414-1.27.016-1.27-.362 0-1.002.793-1.013 1.256-.011.42.582.429.997.014zm30.215-1.021c0-.137-.119-.25-.265-.25-.145 0-.264.186-.264.413 0 .227.119.339.264.25.146-.09.265-.276.265-.413zm-77.047-.302c.48-.48.393-.689-.476-1.138-.75-.388-.794-.382-.794.104 0 1.22.597 1.707 1.27 1.034zm7.147-.41c-.108-.558-.577-.523-.697.052-.05.24.096.41.35.41.273 0 .402-.173.347-.462zm40.668-.662c.066-.182.152-.747.19-1.257.051-.677-.036-.926-.327-.926-.232 0-.364.194-.318.467.043.257-.106.73-.33 1.051-.226.322-.41.677-.41.79 0 .342 1.066.23 1.195-.125zm-23.95-.463a.265.265 0 0 0-.264-.264.265.265 0 0 0-.264.264c0 .146.119.265.264.265.146 0 .265-.12.265-.265zm22.226-1.348c0-.677-.419-.841-.905-.355-.43.43-.554 1.214-.241 1.527.267.267 1.146-.632 1.146-1.172zm-43.817.356c-.263-1.127-.635-1.364-1.824-1.163-.582.1-1.055.297-1.05.44.007.277 2.145 1.409 2.709 1.435.232.01.283-.208.165-.712zm5.006-.04c-.09-.348.04-.559.422-.68.696-.22.711-.583.034-.798-1.229-.39-2.08.932-1.179 1.832.514.514.9.324.723-.355zm19.271.106c0-.138-.128-.294-.284-.346-.157-.052-.285.104-.285.346 0 .243.128.398.285.346.156-.052.284-.208.284-.346zm51.554-.466c0-.523-.018-.525-.523-.069-.57.517-.485.998.135.76.214-.082.388-.393.388-.691zm-72.628-.195c.09-.146-.029-.265-.264-.265-.236 0-.355.12-.265.265.09.145.21.264.265.264.055 0 .174-.119.264-.264zm18.998-.129c.029-.144-.156-.301-.41-.35-.29-.056-.464.074-.464.346 0 .46.782.464.874.004zm2.83-.996c.898-2.45 1.402-6.284.827-6.284-.5 0-.782.737-.967 2.514-.105 1.019-.413 2.292-.685 2.829-.508 1.007-.435 1.801.166 1.801.189 0 .485-.387.658-.86zm-22.225.199c0-.219-.119-.397-.264-.397-.146 0-.265.178-.265.397 0 .218.12.396.265.396.145 0 .264-.178.264-.396zm41.275-.133c0-.145-.052-.264-.116-.264s-.19.119-.28.264c-.09.146-.038.265.116.265s.28-.12.28-.265zm-44.383-1.315c1.41-.721 1.544-1.081.624-1.684-.58-.38-.667-.376-1.058.057-.235.259-.426.595-.426.748 0 .153-.179.426-.397.607-.4.332-.568 1.183-.199 1.008.11-.052.764-.383 1.456-.736zm6.283.51c0-.153-.356-.48-.792-.728-.435-.248-.793-.6-.793-.782-.001-.182-.189-.33-.417-.33-.552 0-.263 1.021.467 1.653.589.509 1.535.624 1.535.186zm-12.964-.782c0-.146-.179-.265-.397-.265-.218 0-.397.12-.397.265 0 .145.179.264.397.264.218 0 .397-.119.397-.264zm51.855-.13c.18-.216.245-.602.145-.859-.164-.423-.228-.408-.69.156-.479.588-.478 1.097.002 1.097.12 0 .364-.177.543-.393zm-43.17-2.08c.068-.35-.04-.458-.39-.39a.788.788 0 0 0-.577.576c-.067.35.041.458.39.391a.788.788 0 0 0 .578-.577zm21.213-.067c0-.203-.179-.369-.397-.369-.219 0-.397.234-.397.52 0 .355.127.473.397.37.218-.084.397-.319.397-.521zm22.747.301c.523-.63.208-.993-.457-.527-.327.229-.594.528-.594.666 0 .386.691.295 1.05-.139zm-14.545-.295c0-.467-.57-.386-.733.105-.058.172.083.314.314.314a.42.42 0 0 0 .419-.42zm47.737-.757c.384-.723.434-1.03.202-1.261-.388-.389-.545-.223-.975 1.027-.585 1.701-.089 1.851.773.234zm-77.106-.56c0-.227-.12-.337-.269-.246-.148.091-.2.277-.117.413.227.367.386.298.386-.167zm21.696-.1c0-.283-.13-.594-.288-.692-.404-.25-.873.293-.682.79.227.591.97.515.97-.099zm22.784-.357c-.216-.216-.295-.186-.295.111 0 .526.356.882.488.488.056-.168-.031-.437-.193-.599zm-39.459-.706c.389-.727.349-.805-.408-.805-1.437 0-2.238.997-1.246 1.551.546.306 1.264-.018 1.654-.746zm-3.948.03c.41-.332.545-.64.422-.96-.163-.425-.247-.401-.838.237-1.062 1.145-.758 1.673.416.723zm20.623-.555c0-.137-.12-.323-.265-.413-.145-.09-.264.022-.264.25 0 .226.119.412.264.412.146 0 .265-.112.265-.25zm56.46-.17c.088-.23.16-.617.16-.86-.001-.242.364-1.352.812-2.466.561-1.394.98-2.068 1.345-2.163.45-.118.484-.222.227-.703-.214-.4-.505-.54-1.002-.483-.621.073-.748.274-1.14 1.802-.243.946-.635 2.18-.87 2.744-.535 1.277-.565 2.548-.061 2.548.203 0 .44-.189.53-.419zm-36.625-.624c.193-.36.188-.566-.016-.692-.378-.234-1.15.538-.917.916.27.435.626.35.933-.224zm-36.24-.56c0-.137-.178-.25-.396-.25-.41 0-.526.313-.228.61.212.212.625-.027.625-.36zm-1.587-.234c0-.137-.119-.322-.264-.412-.497-.307-.266-1.252.529-2.157.436-.498.794-1.203.794-1.569 0-.655 1.044-1.963 1.568-1.963.343 0 .957-1.192 1.204-2.337.173-.804.138-.874-.393-.793-.378.057-.84.548-1.317 1.399-.403.721-.988 1.425-1.3 1.564-.406.181-.518.399-.399.775.146.459.078.5-.558.34-.626-.156-.698-.116-.529.296.454 1.105.424 1.307-.243 1.61-.516.235-.68.506-.68 1.127 0 .697-.077.793-.528.65-.408-.13-.53-.048-.53.357 0 1.104.282 1.362 1.484 1.362.64 0 1.162-.112 1.162-.249zm26.697-.849c.16-.458.29-1.351.29-1.985 0-.647.233-1.585.53-2.14.29-.542.53-1.191.53-1.441s.137-.758.306-1.129c.23-.506.232-.838.006-1.335-.433-.949-.842-.815-.842.275 0 .743-.218 1.15-1.058 1.974-1.015.994-1.059 1.107-1.059 2.715 0 .947-.137 1.815-.316 1.993-.245.245-.185.438.265.857.32.298.58.656.58.795 0 .573.497.198.768-.579zm15.997.172c-.084-.218-.273-.397-.421-.397-.155 0-.13.168.06.397.182.218.371.397.422.397.05 0 .023-.179-.061-.397zm-4.31-.47c-.032-.316-.395-.255-.509.087-.058.174.037.27.212.211.175-.058.309-.192.298-.297zm6.86-.471c0-.137-.12-.25-.265-.25-.145 0-.264.186-.264.413 0 .227.119.339.264.249.146-.09.265-.276.265-.412zm-1.9-.469c.047-.316-.028-.574-.166-.574-.406 0-.905.745-.71 1.06.272.442.781.16.876-.486zm-2.598-.458c0-.436-.418-.51-.661-.116-.216.349.1.844.415.65.135-.084.246-.324.246-.534zm-38.089-1.005c-.353-.353-.945.183-.679.614.138.222.286.217.57-.019.267-.221.3-.403.11-.595zm36.898.356c0-.567-.768-.485-.88.094-.068.353.04.461.393.393.268-.052.487-.27.487-.487zm4.63.02c0-.138-.118-.323-.264-.413-.145-.09-.265.022-.265.249s.12.412.265.412c.146 0 .265-.112.265-.249zm-22.224-1.09c0-.137-.179-.25-.397-.25-.41 0-.526.313-.228.61.211.212.625-.027.625-.36zm22.49-.139c0-.467-.57-.386-.734.105-.057.172.084.314.314.314a.42.42 0 0 0 .42-.419zm-4.763-.265c0-.467-.57-.385-.733.105-.058.173.083.314.314.314a.42.42 0 0 0 .419-.419zm-17.463-1.176c0-.132-.178-.172-.395-.088-.218.083-.328.26-.246.392.171.278.641.055.641-.303zm-13.758.008c0-.146-.053-.265-.117-.265s-.19.12-.28.265c-.09.145-.037.264.117.264s.28-.119.28-.264zm39.158-.693c0-.218-.119-.323-.264-.233-.146.09-.265.342-.265.56 0 .218.12.323.265.233.145-.09.264-.342.264-.56zm-2.173.097c.15-.181.357-.777.46-1.322.163-.879.124-.993-.346-.993-.617 0-.851.48-.851 1.742 0 .937.266 1.144.737.573zm31.98-.608c.793-.605.885-.81.885-1.985 0-2.126-1.153-1.565-2.099 1.023-.675 1.848-.319 2.13 1.214.962zm-78.49-.474c0-.194-.303-.492-.674-.661-.668-.304-1.443-.41-1.443-.196 0 .06-.068.288-.151.506-.163.422.294.623 1.54.675.447.019.728-.106.728-.324zm48.948-.058c0-.226-.121-.337-.27-.246-.147.091-.2.277-.116.413.227.367.386.298.386-.167zm-21.3-.38a.52.52 0 0 0-.33-.464c-.197-.065-.33.122-.33.463s.133.529.33.463a.52.52 0 0 0 .33-.463zm21.196-2.437c.406-.785.402-.854-.064-1.197-.442-.325-.503-.3-.583.246-.05.335-.33.868-.623 1.185-.294.316-.454.704-.358.86.274.443 1.131-.133 1.628-1.094zm-43.552.023c0-.468-.067-.507-.394-.235-.399.33-.314.796.145.796.137 0 .249-.253.249-.561zm74.753-1.053c.197-.621-.204-1.187-.647-.914-.318.197-.388 1.016-.111 1.293.317.317.578.187.758-.38zm-58.364-2.158c.246-1.092-.084-1.904-.51-1.255-.144.218-.263.59-.265.827-.002.236-.079.832-.17 1.323-.155.833-.136.864.284.467.248-.234.545-.847.661-1.362zm28.666.022c.313-.42.455-.89.351-1.16-.162-.422-.212-.419-.724.045-.303.274-.725.835-.938 1.247-.372.718-.364.745.199.662.322-.048.822-.405 1.112-.794zm31.634-2.72c.66-1.522.81-2.126.588-2.347-.54-.542-1.18.196-1.935 2.23-.4 1.077-.726 2.18-.728 2.452-.005 1.06 1.185-.278 2.075-2.335zm-33.27-3.425c1.076-1.418 2.089-3.22 2.089-3.715 0-.182.238-.546.53-.81.29-.263.528-.57.528-.683 0-.113.427-.921.949-1.797.625-1.05.892-1.77.783-2.113-.091-.287-.04-.6.113-.694.154-.095.518-.64.81-1.213.761-1.491.108-1.37-1.419.261-.67.716-1.43 1.343-1.69 1.393-.329.063-.515.415-.615 1.16-.079.589-.466 1.62-.86 2.293-.394.673-.717 1.349-.717 1.503 0 .153-.372.885-.828 1.625-.632 1.028-.754 1.419-.518 1.655.237.237.107.476-.55 1.012-.75.612-.814.758-.5 1.136.495.597.793.438 1.895-1.013zm-36.54.222c0-.21-.238-.381-.53-.381-.577 0-.732.677-.198.868.448.16.728-.027.728-.487zM-8.781-8.768c.065-.194-.117-.331-.44-.331-.326 0-.552.17-.552.416 0 .487.826.415.992-.085zm24.934-.46c.18-.216.245-.603.145-.86-.164-.423-.229-.408-.69.158-.28.344-.51.73-.51.86 0 .377.699.272 1.055-.158zm-7.193-5.02c.305-.67.037-1.121-.477-.804-.32.197-.356 1.455-.042 1.455.122 0 .356-.293.519-.652zm-5.613-.869c-.289-.289-.487.17-.28.649.197.453.212.453.321-.01.063-.266.045-.553-.04-.639zM-63.88 199.382c-2.692-.796-3.633-1.027-6.947-1.71l-2.978-.612-2.529-2.321c-2.431-2.232-4.244-4.697-4.751-6.459-.105-.364-.28-.78-.39-.926-.216-.284-3.735-10.739-5.523-16.404-1.246-3.951-2.321-8.1-3.325-12.832a5411.524 5411.524 0 0 0-3.23-15.187c-.376-1.733-.37-1.852.108-2.33.535-.535 3.805-1.243 5.818-1.26 1.37-.01 1.472-.482.434-2.01-1.878-2.768-2.196-8.386-.724-12.777 1.253-3.737 3.76-7.527 4.648-7.026.235.132 1.495 1.67 2.8 3.416 2.57 3.438 10.493 11.815 12.446 13.159 1.802 1.24 3.428 1.301 5.702.216 4.171-1.991 6.753-5.108 10.74-12.97 3.027-5.97 2.834-5.802 5.292-4.616.78.377 2.192.923 3.137 1.215 2.172.671 3.217 1.645 3.217 3 0 1.744-.786 3.737-2.642 6.699-3.369 5.377-3.834 6.664-3.796 10.495.024 2.311.15 3.011 1.006 5.543 1.157 3.426 1.663 4.47 4.338 8.957 7.49 12.565 8.282 14.121 9.065 17.81 1.086 5.123.374 7.785-3.209 12.007-3.208 3.78-4.096 6.345-3.818 11.028.171 2.897.162 2.972-.474 3.607-1.425 1.425-8.34 2.538-16.875 2.717-5.187.108-5.851.07-7.54-.429zm7.937-90.071c-2.094-.578-5.842-2.407-6.315-3.083-.288-.41-.432-1.169-.432-2.276 0-1.526.075-1.743.929-2.687 1.325-1.467 3.233-2.224 5.686-2.256 1.713-.022 2.228.09 3.765.818 2.214 1.049 4.052 2.3 4.593 3.124.38.58.368.73-.149 1.903-.65 1.476-2.378 3.357-3.711 4.041-1.342.69-2.852.833-4.366.416z" transform="translate(157.097 17.695)"/>
</svg>