<svg xmlns="http://www.w3.org/2000/svg" viewBox="0 0 1264 1433.1">
  <path fill="currentColor" d="M506.2 1248a47 47 0 0 1-33.4-20.6c-8-12-11.2-21.7-14.4-43.3-1.7-10.7-1.8-31-2.1-275-.4-273.3-.2-296.6 3.6-319.5 10.8-65 49-101.8 121.1-116.6 29-5.9 56-6.2 73.6-.9 26.8 8.3 43.4 28.4 49.8 60.7 3.2 16.2 3.6 28.8 3.6 123.7v95.2l-3.7 1-67.3 19.8a858 858 0 0 1-26.2 7.6c-.4 0-.9-46.5-1-103.3l-.3-103.2-3.1-5.5c-9-16-26.5-12.5-35.8 7l-3.1 6.5-.3 272.5c-.2 210.7 0 273.5 1 276.9 1.5 5.5 5.8 10.6 10.4 12 7.8 2.7 18.7-4.6 25.2-16.7 6.6-12.4 6.2-2.2 6.2-152.9V836.3l2.8-.7c2.7-.7 36.1-11.1 73.7-23.1 11-3.6 20.4-6.4 20.8-6.4 1.1 0 .8 256-.3 268.5-6.2 67.7-39.6 114-106.8 148.3-38.6 19.7-71.6 28.5-94 25zm284-123c-17-3.5-28-19.2-33.9-48-1.6-7.8-1.7-29.9-2-317.5l-.3-309.1 6.2-1.1c24.6-4.2 54.4-9.5 65.7-11.7 7.3-1.4 14.2-2.5 15.2-2.5 1.8 0 1.9 8 2.1 290.7.3 283.8.3 290.9 2.2 294.6 5.7 11.5 20 6.8 27.8-9.1l3.3-6.7.5-287.7c.3-158.2.7-287.9 1-288.2.5-.5 17.5-3.7 54-10.2l22.8-4.1 2.2-.5v319.6c0 193.5-.4 319.6-1 319.6-.4 0-7 2.8-14.7 6.4A1869.2 1869.2 0 0 1 878 1088c-.5 0-1-6.2-1-14.8v-14.7l-2.2 5.5c-9.2 22.2-25.5 42.7-41 51.3-13.6 7.7-32.8 12-43.5 9.7zM995 626.8V219.3l4.8-.6c5.5-.8 65.4-6.6 67-6.6 1 0 1.2 101.7 1.2 394.8v394.8l-10.3 4.6-35.5 16.2c-14 6.4-25.7 11.6-26.3 11.6-.5 0-.9-154-.9-407.4zM1145.7 960c-16.8-4-26.1-18.8-30.9-48.8-.9-5.7-1.3-60.8-1.5-220.9a15848 15848 0 0 0-1-213.2c-.5 0-4.6.9-9.3 2-4.7 1-8.8 2-9.3 2-.4 0-.7-20.9-.7-46.3v-46.3l7.7-1.3 10-1.8 2.3-.5.2-89.2.3-89.1 27.5-2.7a2567 2567 0 0 1 32.3-3l4.7-.3v85.7c0 54.2.4 85.9 1 86.3.5.3 13.5-1.7 28.7-4.5a7478.7 7478.7 0 0 1 53.6-9.6l2.7-.6-.2 42.7-.3 42.8-17 3.8-40.3 8.9a542.3 542.3 0 0 0-25.8 6l-2.5 1 .3 205.2.3 205.3 2.3 4.6c2.8 5.7 6 7.4 10.5 5.5 4.2-1.8 6-4 9.4-11.2l2.8-6 .3-183.1.2-183.2 29-7c16-4 29.5-7.1 30-7.1 1.4 0 1.3 338.1 0 354.7a142 142 0 0 1-13.8 55.8A109.9 109.9 0 0 1 1197 948c-22.1 11-38.7 15-51.3 12zM1 260V6.1h69v25.5l2.8-5.2A52 52 0 0 1 98.9 1.2c8.2-2.8 23.8-.6 33.4 4.6 6 3.3 14.9 12.7 18.3 19.4l2.5 5 4.3-5.8c5.2-7 15.4-16.7 20.4-19.2a46.4 46.4 0 0 1 42.4.1c15.6 8.2 25.8 28 28.8 56 .6 6.4 1 78.4 1 211.2V474l-2.2.6-28.3 4.5c-14.3 2.2-27.2 4.2-28.7 4.6l-2.7.5.6-200.8c.6-188.7.5-201.2-1.1-206.8-4.8-16.1-18.3-16.8-23-1.1-1.4 4.3-1.6 29.6-1.6 208.7V488l-2.2.5a1689 1689 0 0 0-44.9 7c-8 1.5-15.7 2.6-17 2.6h-2.2l.4-208.3c.3-171.3.1-209-1-212.7a22 22 0 0 0-4.6-7.7c-7-7-16.5-2.7-20 8.8-1.3 4.6-1.5 29-1.5 215 0 115.4-.3 209.9-.7 209.9-1 0-62 9.8-65.5 10.6l-2.8.5zm305 207.7c-11.9-4.5-21.4-15.5-26.6-30.8-5.8-17.3-5.9-18.3-5.9-105.4 0-84.1 0-85.5 4.6-102.3a68.7 68.7 0 0 1 21.7-35.8c10.4-8.5 22.8-13 41.5-14.7l12.7-1.1V126c0-56.3 0-57.3-5.7-63.2-5.5-5.7-12.7-1.9-15.7 8.3-1.3 4.4-1.6 11.3-1.6 41v35.7l-18.2.6-29.2 1.3-10.8.7.5-41c.3-32.8.8-42.6 2.1-49.8 7.3-38.4 25.3-56 60.6-59a93 93 0 0 1 33 4c21 7.3 32.2 22.8 37.7 52.5 1.7 8.9 1.8 21.8 1.8 200.1 0 104.9-.3 191-.7 191.4-.7.7-47.6 8.4-51.5 8.4-2.1 0-2.2-.4-2.5-9.2l-.3-9.2-3.4 6a58.4 58.4 0 0 1-21.4 20.9c-7 3.3-17.3 4.3-22.7 2.3zm40.4-65.8c1.5-1.2 3.7-4 4.9-6.3l2.2-4.1.3-75.9.2-75.8-6.7.7c-7.9.7-10.8 2.5-13.7 8-2 3.9-2.1 5.4-2.4 73.5-.2 46.2 0 70.7.7 73 2.4 8.1 9 11.2 14.5 6.9zm83.5 41.3c-.2-1-.3-99.7-.1-219.5L430 6.1h53.1l-.2 9.7v10.8c0 .5 1.4-1.8 3-5.3A45.4 45.4 0 0 1 502.5 3c3.3-1.7 5.3-2 11.5-1.6 22 1.2 34.1 19.1 38 55.6.9 7.7 1 57.4.5 189.7l-.8 179.2-2.6.5c-1.4.3-11.4 2-22.1 3.6a823.9 823.9 0 0 0-21.8 3.5l-2.2.5V252.3c0-106-.4-183-.9-184.9-1.3-4.5-3.8-7.9-6.8-9.2-3.6-1.7-7 .8-10.3 7.4l-2.5 5-.3 183.2-.4 183.2-5.1 1c-6.6 1.3-43.3 7-45.1 7-.8 0-1.5-.7-1.7-1.7zm140.8-29L571 278c0-70.2.3-160 .7-199.8l.6-72.2h9.1c5 0 15.5.3 23.3.6l14.3.7v74.2l3.2-6.5c4-8.2 12-16.5 17.4-18 5.3-1.4 14.4.2 20 3.4 11.4 6.8 18.4 21.5 21.3 45 1.3 10.5 1.4 90.2.4 216.2l-.6 84-21.1 3.2a753.7 753.7 0 0 1-22.1 3.2c-.7 0-1-48.1-.7-142.8.2-129.7.1-143.1-1.4-147-4-10.8-12.5-8.5-15.8 4.2-1.4 5.3-1.6 21-1.6 128.1 0 67.2-.3 131-.7 141.7l-.6 19.5-7.1 1.2-38.8 6c-.2 0-.2-3.9 0-8.7zm159.3-15c-18.4-4.2-28-20.2-31-51.7-.7-8.3-.9-60-.4-176.6l.7-164.8h42.8l-.7 165.7-.7 165.8 2 4.6c2.5 5.5 5.2 6.8 9 4.4 6-4 5.7 1.8 6.4-121.5.4-62 .7-136.5.8-165.8l.1-53.2h41.3l-.7 14.7c-.3 8.1-.7 81.4-.8 162.8-.2 144.2-.2 148 1.7 151.7 2.1 4.3 5.6 5.8 8.2 3.6.9-.7 2.6-3.4 3.7-5.8 2-4.5 2-5.5 2.4-165.8l.4-161.2h39.1l-.7 154.2a8677 8677 0 0 1-1.7 165.6c-1.8 22-6.1 35.9-14.5 46.5-11 14-32.8 21.5-45.2 15.5-4.3-2-11.4-9.8-12.7-13.8-1-3.1-1.8-2.5-4.9 4a35 35 0 0 1-32.3 21.5c-4.9.2-10.4 0-12.3-.4zM888.3 374c-8.6-4.3-14.9-14.9-17.8-30-2.6-13.3-3.1-35.4-2.4-94 .6-50.9.8-55 2.8-64.4 6-26.8 18.5-39.6 40.8-41.4l7.8-.6V100c0-42.1 0-43.6-2-47-4-6.8-9.6-3.5-11.5 6.9-.5 3-1 17.4-1 32.1v26.8l-12.8.6-18.5 1-5.8.5.2-24.7c.5-50.9 3.4-67.4 14.2-81.3 9.9-12.5 29.4-17 46.3-10.8 11.1 4.1 19.3 15.3 23.6 32.5l2.3 8.9-.2 157.8c-.1 86.9-.3 158-.5 158.2-.4.4-31.4 5.5-33.3 5.5-1.2 0-1.5-1.6-1.5-7.3v-7.2l-2.3 4.5c-7.1 14.5-19 21.6-28.4 17zm28.4-55c2.1-4.3 2.2-5.6 2.8-65.3l.7-60.8-4.8.7c-10.4 1.5-10.1.2-10.8 64.2-.6 54.5-.3 60.7 3.2 64.5 2.8 3.2 6.4 1.9 8.9-3.2z"/>
  <path fill="#005ca9" d="M0 1406c0-15.3.4-27 .9-27s6.5-2.6 13.3-5.9A4562 4562 0 0 1 76 1344a64 64 0 0 0 10.2-5.4c.4-.5.7-7.8.7-16.2V1307l-5.7.7c-9.8 1.3-27.2.7-34.2-1.2a48.6 48.6 0 0 1-28.8-20.6c-5.5-9.2-7-29.4-3.2-44.4 8.5-34.3 42.1-69.5 87.4-91.5 37.4-18.2 73.7-24.4 97.3-16.5 18.2 6 28.5 18 31.4 36.4 2.7 17.9-4.5 41.2-19 61.8a194 194 0 0 1-45.9 42.6l-4.2 2.7v12.5c0 6.8.4 12.5.8 12.5s15.9-7.3 34.3-16.1a887 887 0 0 1 50.7-24c.6 0 .6 54 0 54.6a57146.4 57146.4 0 0 0-242.1 114c-2.7 1.4-5 2.5-5.3 2.5-.2 0-.4-12.2-.4-27zm117.5-159.6a87.3 87.3 0 0 0 35.7-19.7c8-8.1 11.8-21.1 8.9-29.8-3.5-10.7-20.2-11.4-42.3-1.8-15 6.6-23.4 13.4-29.4 23.6-2.6 4.4-2.9 5.8-2.9 13.6 0 8.4.1 8.8 3.1 11.8 1.7 1.8 4.7 3.6 6.5 4 4.2 1 12.5.4 20.4-1.7zm146.2-73 .3-195.8 5.7-1.8a6782 6782 0 0 1 59.4-18.2c1.4-.6 1.7 6.2 2.3 72.7.4 40.3 1 73.4 1.2 73.7.2.2 3.2-.6 6.7-1.8a1068.5 1068.5 0 0 1 35.5-13l5.2-2.1-.2 26.7-.3 26.8-9.5 3.7-23.5 9-14 5.4-.3 89.7-.2 89.8-9.3 4.3a1504.5 1504.5 0 0 1-32.2 14.6 2010 2010 0 0 1-26.8 12v-195.8zM0 1126.1v-27.8l12.8-4.6a15418.3 15418.3 0 0 0 71.4-25.6l2.8-1 .2-20.3.3-20.2 9-2.8a49401 49401 0 0 1 58.3-19c9-3.1 8.4-4.2 8.2 16.4v19.5c0 .7 16.3-4.3 42.5-13.1l42.5-14.3v52.3l-12.7 4.7-68.3 24.5A15674.5 15674.5 0 0 0 60.5 1133l-38.9 14a434 434 0 0 1-20.7 7c-.5 0-.9-12.3-.9-27.8zm54.2-223 .3-66.4 37.5-9.4 38.2-9.3c.5 0 .8 17 .8 38 0 30.6.3 38 1.3 38 .7 0 8.7-2.1 17.8-4.6 9-2.6 20.6-5.7 25.6-7 5.1-1.3 16.6-4.3 25.5-6.8l81.3-22.2c23-6.2 37.3-10.1 58.7-16.2 1.7-.4 1.8 1.2 1.8 24.5v25l-10.8 3-37.2 10.8a4335.6 4335.6 0 0 1-61.4 17.6l-12.1 3.6A13879.6 13879.6 0 0 0 105.2 955L54 969.8zM0 715c0-95 .1-100.7 1.8-101.2A15062.6 15062.6 0 0 0 107 594c49.5-9.3 72.6-13.6 105.3-19.5l2.7-.5v189.6l-17.7 4.3a31735.8 31735.8 0 0 0-130.8 31.5l-44.7 10.8L0 815.6zm111.5 21.3a5526 5526 0 0 1 27.8-6.2l5.7-1.3V640l-4.7.6c-2.7.4-17.3 3.3-32.5 6.4L80 652.6l-.7 44.6c-.3 24.6-.4 45.1 0 45.7.4.6 2.2.5 5.4-.4 2.6-.7 14.6-3.6 26.7-6.3zM264 813.8c-.4-43.2.2-273.3.8-273.8.4-.3 6.3-1.6 13.2-2.9 24.8-4.4 51.5-9 52.7-9 1 0 1.3 10.8 1.3 51.9v51.9l8.8-2c11.8-2.6 37.3-7.8 38.4-7.8.4 0 .8 11.2.8 24.9v25l-11.7 2.6a354 354 0 0 0-36.1 9c-.4.3-.8 26.2-1 57.5-.3 52.5-.4 57-2 57.4l-23.7 6.1-31 8c-10.5 2.9-10.5 2.9-10.5 1.2z"/>
</svg>
