<svg viewBox="0 0 319.381 93.82" xmlns="http://www.w3.org/2000/svg">
  <path d="M0 0h93.82v93.82H0Z" fill="#e52018"/>
  <path d="M61.41 76.76v-5.12h23.88v-6.83H61.41v-5.12h23.88v-8.53H72.21v-5.82l-10.72 5.82H51.17v34.11h34.11v-8.53H61.41Zm13.64-34.11h10.23V8.53H51.17v34.11H61.4V29h13.65zm0-20.47H61.41v-5.12h13.64ZM8.53 85.29h34.11v-8.53H22.17L42.64 59.7v-8.53H8.53v8.53H29L8.53 76.76Zm23.88-42.64h10.24V22.18h-13.6l4.63-13.64H23.47l-4.7 13.64V8.53H8.53v34.11h10.24V29h13.64z" fill="#fff"/>
  <g style="fill:#e52018;fill-opacity:1">
    <path style="fill:#e52018;fill-opacity:1;fill-rule:evenodd" d="M98.559 34.732v16.495h4.382V39.69h2.172v11.536h3.307V39.69h2.172v11.536h4.459V34.732z" transform="matrix(2.06861 0 0 2.06861 -98.808 -41.997)"/>
    <path style="fill:#e52018;fill-opacity:1;fill-rule:evenodd;stroke-width:.991058" d="M120.49 34.732v16.495h4.864v-6.631h6.476v6.63h4.86V34.733zm4.864 4.416h6.476v2.174h-6.476z" transform="matrix(2.06861 0 0 2.06861 -98.808 -41.997)"/>
    <path style="fill:#e52018;fill-opacity:1;fill-rule:evenodd;stroke-width:.991252" d="M164.137 34.732v16.495h16.205v-9.899h-8.637v3.28h3.764v2.183h-6.483v-7.652h11.356v-4.407z" transform="matrix(2.06861 0 0 2.06861 -98.808 -41.997)"/>
    <path style="fill:#e52018;fill-opacity:1;fill-rule:evenodd;stroke-width:.991058" d="M185.96 34.731v16.495h4.863v-6.631h6.477v6.63h4.86V34.732zm4.863 4.416h6.477v2.174h-6.477zM142.307 34.732v16.495h4.863V39.148h6.476v12.079h4.86V34.732z" transform="matrix(2.06861 0 0 2.06861 -98.808 -41.997)"/>
  </g>
</svg>