<svg xmlns="http://www.w3.org/2000/svg" xml:space="preserve" viewBox="0 0 75.592 75.588">
  <g paint-order="markers stroke fill" transform="translate(.002 -.001)">
    <rect width="75.592" height="75.588" x="-.002" y=".001" fill="#d21230" ry="1.473"/>
    <path fill="#fff" d="M7.729 6.875a.86.86 0 0 0-.86.86l.002 25.767a.859.859 0 0 0 .86.86h6.529a.859.859 0 0 0 .857-.86v-5.215a.853.853 0 0 1 .225-.578l2.586-2.834a.859.859 0 0 1 1.375.145l5.254 8.92a.86.86 0 0 0 .74.42h7.54a.859.859 0 0 0 .741-1.294l-8.75-14.855a.861.861 0 0 1 .108-1.014l8.109-8.884a.859.859 0 0 0-.635-1.438h-7.178a.86.86 0 0 0-.634.28l-7.987 8.753a.859.859 0 0 1-1.494-.58V7.734a.859.859 0 0 0-.86-.859Zm34.36 0a.86.86 0 0 0-.859.86v25.767a.859.859 0 0 0 .86.86h6.498a.859.859 0 0 0 .86-.86v-8.03a.859.859 0 0 1 .857-.86h9.334a.86.86 0 0 1 .859.86v8.03a.859.859 0 0 0 .86.86h6.5a.859.859 0 0 0 .859-.86V7.734a.859.859 0 0 0-.86-.859Zm8.216 6.871h9.334a.859.859 0 0 1 .859.858v3.652a.86.86 0 0 1-.86.86h-9.333a.861.861 0 0 1-.86-.86v-3.652a.859.859 0 0 1 .86-.858zm6.67 24.168-7.264 3.244a.875.875 0 0 1-.35.074h-7.273a.858.858 0 0 0-.858.86v25.77a.859.859 0 0 0 .858.859h25.77a.859.859 0 0 0 .859-.86v-5.154a.859.859 0 0 0-.86-.857H50.334a.859.859 0 0 1-.857-.86v-2.406a.859.859 0 0 1 .857-.86h13.4a.859.859 0 0 0 .86-.857v-3.781a.859.859 0 0 0-.86-.857h-13.4a.86.86 0 0 1-.86-.86v-2.404a.859.859 0 0 1 .86-.858h17.523a.859.859 0 0 0 .86-.86l-.002-5.155a.859.859 0 0 0-.86-.86h-8.812a.859.859 0 0 1-.86-.857v-1.678a.86.86 0 0 0-1.208-.783zM7.729 41.232a.86.86 0 0 0-.86.86v5.154a.86.86 0 0 0 .86.86H20.99a.859.859 0 0 1 .55 1.519L7.18 61.592a.858.858 0 0 0-.31.66v5.61a.859.859 0 0 0 .86.859h25.768a.859.859 0 0 0 .86-.86v-5.154a.859.859 0 0 0-.86-.857h-13.26a.859.859 0 0 1-.55-1.52l14.359-11.967a.86.86 0 0 0 .308-.66v-5.611a.859.859 0 0 0-.857-.86z"/>
  </g>
</svg>