<svg viewBox="0 0 93.82 93.82" xmlns="http://www.w3.org/2000/svg"><path d="m0 0h93.82v93.82h-93.82z" fill="#e52018"/><path d="m61.41 76.76v-5.12h23.88v-6.83h-23.88v-5.12h23.88v-8.53h-13.08v-5.82l-10.72 5.82h-10.32v34.11h34.11v-8.53h-23.87zm13.64-34.11h10.23v-34.12h-34.11v34.11h10.23v-13.64h13.65zm0-20.47h-13.64v-5.12h13.64zm-66.52 63.11h34.11v-8.53h-20.47l20.47-17.06v-8.53h-34.11v8.53h20.47l-20.47 17.06zm23.88-42.64h10.24v-20.47h-13.6l4.63-13.64h-10.21l-4.7 13.64v-13.65h-10.24v34.11h10.24v-13.64h13.64z" fill="#fff"/></svg>