<svg xmlns="http://www.w3.org/2000/svg" viewBox="0 0 1552.16 403.253">
  <path fill="currentColor" d="M1338.16 0v198.35c0 109.092.3 198.649.666 199.015.367.367 12.292.668 26.502.668h25.836l-.252-198.75-.252-198.75-26.25-.267zm87 .033v91l-6.75.016c-3.712.008-7.321.377-8.02.82-.977.621-1.207 6.058-1 23.734l.27 22.93 7.713.291 7.713.291.367 110.21c.362 108.35.404 110.331 2.467 117.564 3.687 12.927 11.738 22.378 23.492 27.576 4.888 2.161 14.472 4.516 24.248 5.957 6.17.909 30.27-.26 37.5-1.82 15.747-3.397 28.842-12.32 33.912-23.106 4.692-9.981 5.088-15.77 5.088-74.387 0-30.111-.298-73.722-.662-96.912l-.664-42.164h-50.674v96.549c0 80.723-.23 96.992-1.398 99.252-3.45 6.67-10.108 8.948-14.973 5.121-5.883-4.627-5.629.631-5.629-116.39V139.032h73v-48h-73v-91h-26.5zm-332.31 88.455c-9.882.091-19.535.88-24.834 2.324-19.956 5.443-30.96 16.048-34.989 33.721-2 8.773-2.021 231.082-.023 240 4.995 22.293 20.867 34.074 49.156 36.487 18.2 1.551 38.536-.847 50.412-5.946 11.811-5.07 20.137-14.38 23.893-26.715 1.986-6.521 2.096-9.503 2.451-66.576l.371-59.75h-53.127v114.703l-2.25 3.328c-4.426 6.548-12.552 6.853-17.156.645-2.091-2.82-2.094-2.967-2.39-113.5-.205-76.15.034-111.824.767-114.354 1.243-4.291 6.153-8.822 9.558-8.822 3.517 0 7.213 1.969 9.208 4.904 1.598 2.352 1.81 6.687 2.263 46.096l.5 43.5h52l-.002-44.5c0-43.8-.039-44.618-2.334-52-5.5-17.69-16.767-27.27-37.271-31.691-6.212-1.34-16.322-1.945-26.203-1.854zm-1008.73.479c-9.272 0-22.434 5.779-27.326 11.998l-3.512 4.465V92.52H0v305.488h53.283V132.709l3.862-4.11c4.913-5.23 7.664-5.179 13.091.249l4.36 4.359v132.252c0 86.469.613 132.456 1.773 132.844.976.326 12.764.44 26.197.254l24.424-.338.455-132.742c.502-146.222-.065-139.213 11.264-139.213 10.873 0 10.482-5.215 10.482 139.71v131.819l20.87.55c11.478.304 23.49.263 26.693-.091l5.824-.645-.496-137.892-.496-137.89-4.832-9.84c-2.658-5.413-7.116-11.529-9.904-13.59-7.049-5.211-20.314-9.428-29.66-9.428-9.307 0-24.563 5.487-31.819 11.443l-5.174 4.246-6.37-5.11c-8.033-6.44-19.653-10.58-29.706-10.58zm494.922.328c-2.746.095-5.682.489-8.898 1.16-13.022 2.718-22.747 9.816-28.338 20.682l-4.537 8.816v79.084c0 71.955.29 79.922 3.238 88.373 5.591 16.034 22 27.242 39.594 27.043 8.08-.091 19.14-3.724 23.584-7.746 6.646-6.015 7.29-3.921 7.29 23.68v26.511l-4.68 3.682c-9.817 7.722-15.343 2.294-16.632-16.338l-.889-12.838-26.197-.414-26.197-.412v13.203c0 35.193 12.816 52.794 42.006 57.692 31.656 5.311 62.193-1.548 74.76-16.793 10.373-12.585 10.051-7.908 10.67-154.957.388-92.528-.014-135.452-1.27-135.512-1.012-.046-12.83-.124-26.262-.178l-24.42-.094-.562 4.618c-.31 2.54-.902 4.619-1.317 4.619-.415 0-4.376-2.766-8.802-6.145-7.362-5.619-13.903-8.02-22.141-7.736zm-289.309.006c-18.91.348-36.233 5.502-45.685 14.215-12.508 11.53-14.045 17.905-14.045 58.271v34.633l26.158.492 26.158.49.483-33.158.484-33.16 4.885-3.644 4.883-3.645 4.884 3.647 4.885 3.644.475 43.414.474 43.416-19.125 1.889c-29.295 2.894-43.635 10.735-51.435 28.123-2.772 6.18-3.264 13.694-3.78 57.723-.652 55.723.469 65.987 8.612 78.828 3.388 5.342 7.742 9.11 14.305 12.38 15.34 7.644 36.388 5.269 48.222-5.44 2.925-2.647 3.14-2.533 3.14 1.651 0 3.519 1.06 4.672 4.884 5.317 3.856.65 40.903.474 47.138-.223.773-.086 1.173-61.499.89-136.472l-.517-136.315-4.709-8.88c-8.327-15.707-19.07-22.257-42.457-25.893a112.108 112.108 0 0 0-19.207-1.303zm175.28.232c-2.826.049-5.56.403-8.112 1.09-3.768 1.015-10.205 4.716-14.304 8.225l-7.455 6.38V92.425l-26.198.492-26.197.492-.453 152.168c-.43 143.859-.284 152.209 2.664 152.899 1.715.399 13.508.61 26.207.465l23.09-.262.887-133.686c.861-129.743.99-133.76 4.336-136.207 4.574-3.344 9.746-3.185 13.73.42 3.09 2.797 3.25 9.322 3.275 134.54.015 72.38.615 132.51 1.332 133.624 1.142 1.772 25.09 2.246 47.04.932l4.882-.293v-135.55c0-148.358.072-147.293-10.35-158.676-8.182-8.938-22.131-14.46-34.374-14.25zm279.1 1.334c-9.981.006-14.396.853-21.792 3.315-6.265 2.085-14.605 6.542-18.533 9.904-12.078 10.339-13.522 16.12-14.3 57.305l-.68 36.015 26.355-.492 26.356-.494.888-32.146c.95-34.392 1.9-38.008 9.987-38.008 2.322 0 5.82 1.597 7.773 3.55 3.354 3.355 3.553 5.92 3.553 45.989 0 48.449 1.515 44.581-17.461 44.615-12.553.022-26.135 2.948-34.934 7.525-6.899 3.59-11.911 9.18-17.117 19.094-4.083 7.777-4.211 9.37-4.762 58.983-.75 67.589 1.986 79.001 21.625 90.265 7.299 4.186 11.266 5.241 19.733 5.256 10.456.016 25.812-4.343 25.812-7.328 0-2.99 5.231-1.483 7.123 2.053 1.787 3.338 3.56 3.575 25.502 3.406 12.97-.1 24.57-.79 25.776-1.535 1.716-1.062 2.062-30.42 1.593-135.284-.549-122.88-.856-134.585-3.73-141.912-4.187-10.674-12.442-19.015-24.295-24.548-8.485-3.962-12.733-4.655-32.32-5.282-4.88-.156-8.826-.248-12.153-.246zm440.009 1.166.07 128.25c.039 70.538.473 132.805.965 138.373 2.002 22.644 9.85 34.338 26.87 40.032 4.721 1.58 9.142 2.236 15.345 2.28 11.555.085 18.198-2.355 25.398-9.33 2.916-2.823 5.658-5.017 6.094-4.872.436.144.64 2.74.451 5.765l-.341 5.502h53.185v-306h-53v266.2l-3.4 3.4c-4.943 4.942-12.345 4.49-15.924-.973-1.537-2.345-1.693-11.902-1.9-116.84-.125-62.858-.368-122.724-.543-133.037l-.319-18.75H1210.6zm-585.033 34.26c5.346.037 7.799 1.882 9.92 7.461 2.823 7.425 2.55 132.533-.301 138.15-3.157 6.219-12.307 7.054-16.21 1.48-2.476-3.533-2.835-12.623-2.835-71.636 0-73 .315-75.515 9.426-75.455zM296.607 257.695h7.106v99.623l-4.361 4.36c-5.577 5.576-8.693 5.5-13.272-.32-3.508-4.46-3.682-6.832-3.682-50.618 0-43.57.184-46.123 3.553-49.492 2.368-2.368 5.92-3.553 10.656-3.553zm455.807.096c1.217.01 2.61.136 4.203.27l6.215.523.473 49.012c.456 47.382.349 49.168-3.237 53.726h-.002c-4.382 5.571-6.962 5.868-12.443 1.43-4.057-3.285-4.057-3.295-3.854-51.896.2-47.59.127-53.14 8.645-53.065z"/>
  <path fill="#d12e27" d="M855.16 344.033v-55h23v82h94v-82h24.017l-.259 54.75-.258 54.75h-23l-.5-3.5-.5-3.5h-93l-.31 3.75-.311 3.75h-22.88Zm28-19.5v-40.5h31v-10h-62v-22h147.017l-.26 10.75-.26 10.75-30.749.264-30.748.265v9.971h30v81h-84zm30.793 14.645-.293-6.645h-9l-.304 5.888c-.168 3.238-.11 6.396.129 7.016.266.693 2.234.986 5.097.758l4.664-.37zm29.788 6.855c2.328 0 2.419-.263 2.419-7v-7h-9v6.833c0 7.176.503 8.571 2.78 7.698.76-.293 2.471-.531 3.801-.531zm-29.581-36.5v-6.5h-10v13h10zm32 0v-6.5h-9v13h9zm-85.172-79.29c-4.77-3.14-8.972-6.013-9.338-6.382-.367-.37 1.122-3.97 3.308-8 5.027-9.265 12.191-25.882 15.771-36.578 1.519-4.538 3.024-8.247 3.346-8.244 1.724.02 19.586 7.998 19.88 8.88 1.583 4.748-19.728 56.203-23.223 56.074-.59-.023-4.975-2.61-9.744-5.75zm31.323 3.666c-2.223-5.905-6.151-17.038-6.151-17.436 0-.242 1.012-.438 2.25-.435 4.224.012 27.247-3.326 28.107-4.074.472-.41-.203-1.31-1.5-2.001-2.888-1.538-9.815-7.2-9.84-8.045-.01-.337 2.008-1.387 4.483-2.332 2.475-.945 4.5-2.132 4.5-2.636 0-.505-3.6-.917-8-.917h-8v-18h93v8.655c0 10.172-1.093 12.142-11.094 19.999l-6.091 4.786 2.842.769c1.564.423 8.13 1.52 14.593 2.44 6.462.919 11.75 2.111 11.75 2.65 0 .538-1.463 4.963-3.25 9.833-3.102 8.452-3.387 8.856-6.25 8.854-4.39-.003-25.376-4.506-37.587-8.065l-10.587-3.085-8.527 2.6c-9.705 2.961-29.385 7.191-37.971 8.162-5.449.617-5.833.518-6.677-1.722zm61.287-32.155c9.45-5.126 8.728-5.721-6.938-5.721-10.487 0-13.571.29-13.255 1.25.378 1.146 12.065 7.786 13.592 7.721.364-.015 3.335-1.478 6.601-3.25zm-64.438-37.162c0-5.193-.418-9.7-.929-10.015-.51-.316-3.31 2.133-6.222 5.44-2.912 3.309-5.72 6.016-6.242 6.016-.52 0-3.233-2.384-6.027-5.297-2.794-2.914-9.005-8.949-13.803-13.411l-8.722-8.114 7.593-8.078 7.593-8.078 3.73 2.955c2.052 1.625 8.073 7.064 13.38 12.086 9.49 8.982 9.649 9.081 9.649 6.034v-3.097h114v33h-114Zm33.176-6.611c.213-2.229.185-4.254-.062-4.5-.246-.247-2.848-.448-5.781-.448h-5.333v9h10.79zm28.824-.5v-4.553l-5.25.302-5.25.303-.308 4.25-.307 4.25h11.115zm29.5.051v-4h-5.5c-5.297 0-5.512.105-5.825 2.835-.576 5.027.282 5.8 6.063 5.468l5.262-.303v-4zm-83.063-20.396c-.24-.24-.437-11.387-.437-24.77V88.032h98v24.5c0 13.475-.338 24.554-.75 24.62-2.285.364-96.449.349-96.813-.015zm71.372-14.854c-.31-1.606-2.226-1.75-23.31-1.75s-23 .144-23.31 1.75c-.312 1.627 1.328 1.75 23.31 1.75 21.983 0 23.624-.123 23.31-1.75zm.19-15.615v-2.294l-23.5.08-23.5.08v4.45l23.5-.011 23.5-.011v-2.294zm-98 12.063c-4.674-4.55-10.691-10.161-13.37-12.469l-4.872-4.194 7.227-8.017c3.975-4.41 7.618-8.018 8.096-8.018 1.035 0 11.934 9.294 20.855 17.783l6.385 6.076-5.41 6.16c-2.976 3.387-6.235 7.244-7.244 8.57-1.008 1.326-2.133 2.405-2.5 2.397-.366-.007-4.491-3.737-9.166-8.288z"/>
</svg>
