<svg viewBox="0 0 614.1 169">
  <path fill="currentColor" d="M317 141.7v-27.4l6-1.6c3.3-1 6.4-1.7 7-1.7.6 0 1 7.3 1 20.6 0 11.3.4 20.4.8 20.2l27-9.3 26.2-9V95.1l4.2-1.1 6-1.6c1.6-.5 1.7 1.2 1.5 23.7l-.2 24.3-5.5 2.2c-4.5 1.8-5.6 2-5.8.8-.2-.8-.7-1.4-1-1.4-.4 0-12.4 4.2-26.7 9.3-21.2 7.6-26 9.7-26.3 11.3-.2 1.4-2 2.6-6.5 4.2a63 63 0 0 1-7 2.2c-.4 0-.7-12.3-.7-27.3zm-97.9 9.3c-9.5-2-13-7-13.1-17.7V126h17.9l.3 6.1c.3 6.9 2.2 9.4 5.5 7.3 1.5-1 1.8-3 2-13.8l.4-12.7-4 2a14.9 14.9 0 0 1-19.8-4.8c-2.3-3.4-2.3-3.8-2.3-35.2 0-22.2.4-32.6 1.2-34.4 3-6.5 15.2-9.2 21.6-4.6C232 38 232 38 232 36s.4-2 9.2-1.8l9.3.3.3 47.5c.2 26.1 0 50.3-.3 53.8-.8 7.1-3.7 11.5-9.2 13.8a54.6 54.6 0 0 1-22.2 1.4zm11.8-46.4c.8-1 1-9.6.9-29.6-.3-25.7-.5-28.4-2-29.4-1.3-.8-2.3-.8-3.6 0-1.5 1-1.7 3.7-2 29.4-.2 29.2 0 31 3.8 31a4 4 0 0 0 2.9-1.4zM97 147a11.8 11.8 0 0 1-6.3-6.6c-1.7-4-1.9-6.4-1.6-25.7.3-19.8.5-21.7 2.4-24.3 3.1-4.3 10-7.3 19-8l7.9-.8V64.7c0-15.5-.2-17-2-18.3-2.5-1.8-3.1-1.8-5.5.6-1.8 1.8-2 3.3-2 13.5V72H89V59.2c0-15 1.2-18.3 8.1-22.2 4-2.3 5.4-2.5 16.9-2.5 11.4 0 12.9.2 16.7 2.4 2.9 1.6 5 3.9 6.3 6.6 2 4 2 6.2 2 54.3V148h-9.9c-9.2 0-10-.1-10.4-2l-.6-2.2-3 2.3c-4.5 3.3-12.3 3.6-18 .8zm20.4-12.3c1.3-2 1.5-5.5 1.3-20.7l-.3-18.4-3.1-.3c-6-.6-6.4.9-6.4 20.5 0 15 .2 18 1.7 19.5 2.2 2.5 5 2.3 6.8-.6zm148 12.2c-6.8-4-8-7.5-8.3-27.4-.5-20.7.5-26.8 5-31.2a33 33 0 0 1 20-6.2h4.8V65c0-16.3 0-17-2.2-18.4-1.9-1.3-2.5-1.4-4.3-.2-1.8 1.2-2 2.5-2.3 13.5L278 72h-21.1l.4-12.7c.5-16.7 2.4-20.5 11.7-23.8 5-1.8 20.7-2 26.4-.4A16.7 16.7 0 0 1 307 46.4c.7 3 1.1 20.5 1.1 53V148h-10.5c-9.9 0-10.5-.1-10.5-2 0-2 0-2-3 .2-4.5 3.3-13.3 3.6-18.5.6zm20.3-11c.9-.9 1.2-7 1.2-21V95h-3.5c-2.4 0-3.7.6-4.5 2-.6 1-1 9.1-1 19s.4 18 1 19c1.2 2.2 5 2.6 6.8.8zm140.5 12.3a19.5 19.5 0 0 1-11.8-8.1c-2-3.3-2-5.4-2.3-45.5-.2-23.1 0-44 .3-46.2.8-5.4 4.6-10 10.5-12.6 7-3.2 23-3 29.6.4 9 4.4 10.6 9.7 10.3 32.8l-.1 12.1H442l-.2-16.6c-.3-15.5-.4-16.8-2.3-18-1.8-1.2-2.4-1.1-4.3.2L433 48v43.3c0 32.3.3 43.5 1.2 44.4 1.7 1.7 4.4 1.5 6.2-.4 1.4-1.3 1.6-4.8 1.6-23V91h21.2l-.3 22.7c-.4 21.9-.5 23-2.8 26.6-3.6 5.9-8.8 8-20.6 8.3a73 73 0 0 1-13.2-.5zm52.8-.9c-2-1-4.4-3-5.5-4.5-2-2.8-2.1-4-2.4-55.3L471 35h20v49.3c0 46.6.1 49.5 1.8 51 2.5 2.3 4.8 2.1 6.6-.5 1.4-2 1.6-8.5 1.6-51V35h20v113h-20v-5.3l-2.3 2a25.3 25.3 0 0 1-4.4 3.2c-3.3 1.7-11.3 1.3-15.2-.7zm98.2.9a19.4 19.4 0 0 1-11.8-8.1c-2-3.4-2-5.3-2.3-46.3l-.3-42.7H557V35h6V0h21l.2 17.2.3 17.3H614V51h-30v41c0 26.5.4 41.8 1 43 1.2 2.2 5 2.6 6.8.8.9-.9 1.2-10.7 1.2-38V61h21.1l-.3 37.7c-.3 43.5-.2 42.7-9.3 47.3-4.1 2-6.7 2.5-14.5 2.7-5.2.1-11-.2-12.7-.6zM0 91.5V35h10.6c6.7 0 10.3.4 9.9 1-1.5 2.4.9 2.7 4.2.5a14 14 0 0 1 9-2.5c5.6 0 12 2.3 13 4.6.3.9 1.5.6 4-1.2 4.8-3.2 7-3.7 14.9-3.2 5.9.4 6.8.7 10.2 4.1l3.7 3.7.3 53 .3 53H60V99c0-32-.4-49.8-1-51-1.4-2.7-5.5-2.5-7.4.2-1.4 2-1.6 8.5-1.6 51V148H30V99c0-32-.4-49.8-1-51-1.2-2.3-5.2-2.6-6.9-.7-.7 1-1.2 16.3-1.3 50.8l-.3 49.4-10.2.3L0 148zm147 0V35h21v5.2l3.5-3.1c3.1-2.7 4.3-3.1 9.3-3.1 7.7 0 12.1 2.3 15 8 2.2 4.4 2.2 4.5 2.2 55.2V148h-21V98.2c0-52.4 0-52.2-4.5-52.2s-4.5-.2-4.5 52.2V148h-21V91.5zm382-17V1h21v147h-21zm-194 52.1v-19.5l7.2-2.1 9-2.6c2.1-.6 2.6-6.4.6-6.4-.7 0-9.2 2.2-18.8 4.8l-17.5 4.9-.3-4.5c-.2-2.6.2-4.8.8-5.2 1.2-.7 79.9-21 81.3-21 .4 0 .7 1.8.7 4v4l-5.8 1.6a6759.4 6759.4 0 0 0-23 6.4c-3.7 1-4.2 1.4-4.2 4 0 3.6.5 3.6 9 1 3.6-1 6.8-2 7.3-2 .4 0 .6 8.2.5 18.1l-.3 18.1-21.5 7.4-23.2 8c-1.7.5-1.8-.8-1.8-19zm15.4 6.4c2.1-.8 2.6-1.6 2.6-4.5 0-3.6-1-4.2-4.4-2.9-1 .4-1.6 1.9-1.6 4.5 0 4.4-.1 4.3 3.4 3zm18.3-5.6c1.9-.5 2.3-1.3 2.3-4.5 0-4-.8-4.6-4-2.9-1.4.8-2 2.1-2 4.5 0 3.7.2 3.8 3.7 2.9zm-17.6-9.4c1.3-.8 1.9-2.1 1.9-4.6 0-3.4-.1-3.6-2.7-3-3.4 1-3 .6-3.3 3.6-.5 5.3.2 6 4 4zm18.3-5.6c2-.8 2.2-7.4.2-7.4-3.3 0-4.6 1.3-4.6 4.6 0 3.4 1 4.1 4.4 2.8zM321 82.2a42 42 0 0 1-5.8-1.8 45 45 0 0 1 3.7-7.6 150 150 0 0 0 6.7-14.2l2.7-6.8 5.3.4c3 .3 5.7.8 6 1.1 1 .9-3.1 11.7-7.7 20.7-5.3 10.5-4.6 10-10.9 8.2zm17.6-5.8c-1-2-1.6-3.7-1.4-3.9l8.3-3c10-3.4 10.8-4.1 6.5-5.6l-3.3-1.2 2.9-2.5 2.9-2.4-5.1.6c-4.4.5-5.2.4-5.6-1.1-1.3-5-.3-5.4 23.8-10.4 12.6-2.7 23.7-4.8 24.6-4.8 1.4 0 1.8.7 1.8 3.7 0 3.1-.7 4.5-4 7.7-2.2 2.1-4 4.3-4 4.8 0 .4 3.1.5 7 .1s7-.3 7 .2-.9 2.5-1.8 4.4l-1.7 3.5-13.5.5c-12.3.5-14 .7-18.8 3.3C359 73.1 342.4 80 341 80c-.4 0-1.5-1.6-2.5-3.6zm36.7-20c4.1-2.8 5-5 1.4-4a183 183 0 0 1-8 1.7c-6 1.2-7 2.8-2.6 4 4.1 1.2 5.3 1 9.2-1.6zm-37.3-12v-5.8l-3.8 4.3a20 20 0 0 1-4.5 4.2c-1.2 0-16.7-9.2-16.7-10 0-1 7.5-8 8.7-8a46 46 0 0 1 8.2 4c7.8 4.4 8.1 4.5 8.1 2.8 0-.9 9.5-3 30.3-6.6 16.6-2.9 30.6-5.3 31-5.2.4 0 .7 3 .5 6.7l-.3 6.7-28 5.6c-15.5 3.2-29.4 6-30.8 6.4-2.7.6-2.7.6-2.7-5.1zm18.4-3c2.4-.8 2-5.3-.3-5.3-3.5 0-5.1 1.2-5.1 3.6 0 2.5 2 3.1 5.4 1.8zm15.3-3c3-.7 3.3-5.3.4-5.3-3.5 0-5.1 1.2-5.1 3.6 0 2.5.9 2.8 4.8 1.8zm16.4-3.3c2.5-1.4 2.5-5 0-5-3.5 0-5.1 1.2-5.1 3.6 0 2.6 1.8 3.1 5 1.4zM343 18.7V7.4l24.3-3.3A1055 1055 0 0 0 393.8.3c2.3-.5 2.3-.5 2 10.3l-.3 10.8-24 4.2c-13.2 2.4-25 4.3-26.2 4.3-2.3.1-2.3-.1-2.3-11.2zm27.4 2.2c11.6-2 14.8-3 13.3-4.6-.7-.6-20.5 2-25 3.3-1.6.5-2.5 3.4-1 3.4l12.7-2zm2.1-7.7c7.2-1.1 11-2.1 11-3 0-.6-.2-1.3-.5-1.4l-13.2 1.7c-9 1.3-12.8 2.2-12.8 3.2 0 1.6 1.8 1.6 15.5-.5zM323.8 22l-7.7-4.7 4.3-4.3 4.4-4.3 3.3 1.7c5 2.5 11.9 7 11.9 7.6 0 .9-7 9-7.8 8.8-.4 0-4.2-2.2-8.4-4.8z"/>
</svg>