<svg viewBox="0 0 249 289.1">
  <path fill="currentColor" d="M98 242.8a18 18 0 0 1-4.4-4c-2-2.8-2.1-3.7-2.4-63-.3-66.2-.3-66.6 5.8-74 8.5-10.2 30.5-14 37.8-6.7 4.3 4.3 5.2 9.6 5.2 31.8v19.9l-8 2.2-9.6 2.7c-1.2.5-1.4-2.2-1.4-19.3 0-21-.6-24-4.6-23.2-4.2.9-4.4 2.7-4.4 57.7 0 34.2.3 53 1 54.3 1.4 2.5 3.2 2.4 5.6-.2 1.7-2 2-4.4 2.4-30l.5-28 9-3 9.3-2.9c.2 0 .2 13.2 0 29.2-.3 29.2-.3 29.3-3 34.8a44.6 44.6 0 0 1-28.2 21.6c-6.3 1.7-7.5 1.7-10.5.1zm56.3-23.9c-5.2-2.5-5.3-4-5.3-70.2V87.4l4.2-.6 8.5-1.3 4.3-.7v56c0 31 .3 56.8.6 57.7.9 2.3 3 2 4.8-.6 1.4-2 1.6-9.2 1.6-58.4V83.3l6.3-1.1a85 85 0 0 1 8-1.1c1.6 0 1.7 4.8 1.7 62v62l-7.5 3.5a101 101 0 0 1-8 3.5c-.3 0-.5-1-.5-2.2 0-1.8-.5-1.5-2.7 1.9-4 6.2-11.3 9.4-16 7.1zM196 122V42h3.2c1.8 0 5-.2 7-.6l3.8-.6v155l-7 3-7 3.2v-80zm26.6 63.6c-3.2-3.2-3.6-9-3.6-50.9 0-41.3 0-41.8-2-41.3s-2 0-2-8.9c0-8.7.1-9.4 2-9.4 2 0 2-.7 2-17.4V40.4l3.7-.7c2.1-.3 5-.6 6.5-.6h2.8v33.3l3.7-.6 8.5-1.3 4.8-.7v8c0 7-.3 8.2-1.8 8.7-1.8.5-7.8 2-12.5 3l-2.7.6v40.5c0 27 .3 40.6 1 41 .6.4 1.7.1 2.5-.5 1.3-1 1.5-7 1.5-37.5V97.3l4.4-1c8.5-2.2 7.8-5.7 7.4 35.5-.5 39-.6 40.5-5.5 47-4.8 6.5-17 10.4-20.7 6.8zM2 50.6V1h8.5c7 0 8.5.3 8.5 1.6s.4 1.2 2.6-.5C25-.5 31.4-.6 35.7 2 39 4 39 4 42.2 2c6.1-3.7 15.1-2 17.6 3.5.9 1.9 1.2 14 1.2 44v41.3l-4.8.6-7 1.3-2.2.5-.3-40.9-.2-40.8h-5l-.3 41.1L41 94l-6.4 1c-3.4.7-6.8 1.2-7.4 1.2-1 0-1.2-10.4-1.2-40.8 0-34-.3-41.2-1.5-42.8-1.1-1.5-1.8-1.7-3.2-.8-1.7 1-1.9 4-2.3 43.5l-.5 42.3-7 1.3a149 149 0 0 1-8.3 1.2C2.2 100 2 89.6 2 50.6zm72 37.2c-4.4-2.2-5-5-5-23.7 0-15.6.2-17.9 2-20.7 2.2-3.7 5.8-5.8 11.8-6.8L87 36l-.2-12.7c-.3-11.8-.4-12.6-2.3-12.6s-2 .8-2.3 9.7l-.3 9.8h-2.7a58 58 0 0 0-6.5.6l-3.7.7V20.9c0-12 1-15.5 4.8-18.3 3.7-2.7 14.6-3.3 19.4-1 6.2 2.9 6.3 3 6.6 45.1L100 85l-5.9.7c-3.2.3-6.2.5-6.7.4-.6-.2-2.5.4-4.2 1.4-3.8 2-6 2.1-9.3.4zm13-26.3C87 48 86.9 47 85 47c-2.7 0-3 1.8-3 16.5 0 9.8.3 13.4 1.2 13.8 3.2 1.1 3.8-1.5 3.8-16zm19-19V1h5.5c3.2 0 5.5.4 5.5 1s1 .4 2.2-.5C124-1.7 130 .2 132.1 5.8c1 2.9 1.2 73 .1 73.6-.4.2-2.9.7-5.5 1.1l-4.7.7V45.7c0-36.1-.4-39.6-3.7-35-1 1.4-1.3 9-1.3 36.6 0 27.1-.3 34.8-1.3 34.8-.7 0-3.1.4-5.5.9l-4.2.8zM143.3 77c-3-1.2-4.2-3.8-5-10.4-.6-5.5-.5-5.6 2-5.6a43 43 0 0 0 5.6-.6c3-.6 3-.5 3 2.8 0 4 .9 5.2 2.7 3.7 1-.8 1.4-3.4 1.4-7.6V53l-2.9 1.7c-3.7 2.1-7.5 1.2-9.9-2.3-1.5-2.4-1.7-5.4-1.7-24.4 0-20.5.1-22 2-24.6 2.7-3.4 7.7-4.3 10.6-1.7 1 1 1.9 1.2 1.9.5s1.9-1.1 5-1.1h5.1l-.3 33.8c-.3 36.7-.4 36.9-6.1 40.7a20 20 0 0 1-13.4 1.5zm9.5-49.9c-.3-15.8-.5-17.6-2-18-1.7-.2-1.8 1.2-1.8 18.2 0 10 .3 18.7.6 19 .4.4 1.3.2 2-.5 1.1-.9 1.4-4.8 1.2-18.7zM171.3 73c-1.4-.6-2.6-2.4-3.2-4.7a112 112 0 0 1 0-30.6c1-4.1 5.6-7.7 9.6-7.7 2.2 0 2.3-.3 2.3-10.4 0-6.6-.4-10.7-1.1-11.2-2-1.2-2.9 1.8-2.9 9.3V25h-9v-8c0-8.8 1.6-14.2 4.8-16a21 21 0 0 1 6.7-1c5.9 0 9 3 10 9.1.3 2.4.4 17.2.3 32.8l-.3 28.5-4 .8c-2.8.6-4.1.5-4.7-.4-.5-.8-.8-.9-.8-.2 0 .8-4.4 3.6-5.3 3.3l-2.4-1zm8.5-21.8c.2-10 0-12.2-1.2-12.2-.8 0-1.7.7-2 1.6-.8 2.2-.8 21.9 0 22.7 2.1 2.1 2.9-.8 3.2-12.1z"/>
  <path fill="#d12e27" d="M4 258.2v-30.8l5.6-2.2c3-1.1 6-2.1 6.5-2.1s.9 9.6.9 22.5c0 15.1.3 22.5 1 22.5.6 0 3-.9 5.3-2l38.4-16.6L65 248v-42.8l4.7-1.6a74 74 0 0 1 5-1.6c.1 0 .3 12.4.3 27.5V257l-2.8 1.4c-5.1 2.7-7.2 3-7.2 1.2 0-1-.5-1.5-1.3-1.2l-24 10.8C20.3 278 17 279.8 17 281.7c0 1.7-1.4 2.7-6 4.8a79.3 79.3 0 0 1-6.6 2.6c-.2 0-.4-13.9-.4-30.9zM20 241v-22.4l7.7-2.5c7.4-2.4 7.8-2.7 8.1-5.7.2-1.8.1-3.2 0-3.2l-16.2 5.5L3.4 218a24 24 0 0 1-.4-6v-5.9l13.7-4.4 35.5-11.6c12-4 22.2-7.1 22.8-7.1.7 0 1 2 .8 5.2l-.3 5.1-14 4.8c-13.7 4.6-14 4.8-14.3 7.8-.2 1.7-.1 3 .2 3 .3 0 3.5-1 7.2-2.4 3.6-1.4 6.8-2.5 7-2.5.2 0 .4 9.3.4 20.7v20.8l-19.3 8.2c-10.6 4.5-20 8.5-21 8.8-1.6.7-1.7-.8-1.7-21.7zm15.8 2.3c.3-4.4 0-4.7-2.9-3-1.4.7-2 2-2 4.9 0 3.7.2 3.9 2.3 3.1 1.8-.6 2.4-1.7 2.6-5zm15.3-2.1c.5 0 .9-1.9.9-4.1 0-3.3-.3-4-1.6-3.5-.9.3-2 .6-2.5.6s-1 1.8-1 4.1c0 3.3.4 4 1.7 3.5.8-.3 2-.6 2.5-.6zm-17-10c2.5-1.4 2.8-8.6.3-7.6-.9.3-2 .6-2.5.6s-1 1.8-1 4c0 4.3.3 4.5 3.1 3zm16-6c2.5-1.4 2.8-8.6.3-7.6-.9.3-2 .6-2.5.6s-1 1.8-1 4c0 4.3.3 4.5 3.1 3zM7.4 191.9c-2.8-1-5-2-5.2-2.1l2.7-6.2c1.5-3.3 4.3-10.6 6.1-16.3l3.4-10.3 5 .6c2.7.3 5.2.8 5.4 1.1 1.3 1.3-9.3 32.2-11.7 34.5-.4.4-3-.2-5.7-1.3zm16-6.2c-.8-2.3-1.5-4.4-1.5-4.8 0-.3 3.4-2 7.5-3.8a30 30 0 0 0 7.5-4c0-.4-1.3-1.3-2.8-2l-2.7-1.2 2.7-2.4c1.5-1.2 2.8-2.5 2.8-2.8 0-.2-2 .2-4.5 1L28 167v-9.6l4.2-1.2A1062 1062 0 0 1 72 146.1c.6 0 1 1.8 1 4.4 0 3.7-.6 5.3-4 9.6l-4.2 5.3 6.8-.8 6.7-.7-.6 2.6c-1 4.2-2.4 7.4-3.5 8-.6.4-6 .8-12 1-8.9.4-11.7.9-13.9 2.4-3.6 2.5-17 9.8-20.4 11-2.4 1-2.7.8-4.2-3.2zm32.7-23.5c1.8-1.6 3-3.1 2.8-3.4a29 29 0 0 0-7.5 1.8c-6.6 2-6.9 2.3-4.5 3.3 4 1.7 5.7 1.4 9.2-1.7zM23 150.4v-5.8l-3.8 4.3-3.8 4.4-7.7-5.8-7.7-5.7 3.7-4.6 4.3-5.4c.4-.5 3.7 1.4 7.4 4.2a77 77 0 0 0 7.1 5c.3 0 .5-.6.5-1.4 0-.8 1-1.7 2.2-2a3192 3192 0 0 1 52-11.5c.4 0 .8 3.6.8 8v8l-3.8.9a9253.8 9253.8 0 0 1-49.5 12.7c-1.5.5-1.7-.2-1.7-5.3zm18-7.2c0-2.5-.7-2.9-3.6-2.3-2.8.5-4 2.3-3 4.7.7 2 6.6 0 6.6-2.4zm11.7-.7c1.6-.5 2.3-1.4 2.3-3.1 0-2.1-.4-2.4-2.3-2-1.2.4-2.6.7-3 .7-.4 0-.7 1.1-.7 2.5 0 2.7.2 2.8 3.7 1.9zm16.1-6.2c.2-1.4-.2-2.2-1.2-2.2-3 0-4.6 1.3-4.6 3.5 0 2 .3 2.2 2.7 1.6 1.8-.5 2.9-1.5 3.1-3zm-41.6-15.4.3-13.2 21.5-3.8a569 569 0 0 1 23.3-3.8c1.6 0 1.7 1 1.5 12.2l-.3 12.1-21.5 4.8a465.4 465.4 0 0 1-23.3 4.9c-1.6 0-1.8-1.1-1.5-13.2zm23.9 2.1c10-2 13-3.2 11.7-4.5-1.1-1-22.8 4-22.8 5.3 0 1.6-1.2 1.7 11-.8zm2.2-8.8c4.8-1 9-2.1 9.4-2.5 1.6-1.6-1.4-1.7-10-.2-11.3 2-12.7 2.5-12.7 3.7 0 1.3 3.3 1 13.3-1zM9.9 124.8l-6.7-5 4-5.1c2.3-2.8 4.5-5 5-4.8a57 57 0 0 1 12.4 9.7c.7 1.6-5.4 10.5-7 10.4-.6 0-4.1-2.4-7.7-5.2z"/>
</svg>