<svg xmlns="http://www.w3.org/2000/svg" viewBox="0 0 1424.5 370.4">
  <path fill="#005ca9" d="M872.2 364.8s-.2-29.9-.2-66.1v-66l8 .3 12.7.4h4.7v9.2l.3 25.7.4 16.3h18.6v18.8h-9.3l-9.2-.1-.2 31-.1 31.1-12.7-.2c-7 0-12.8-.3-13-.4zm-89-25.6v-8.4h4.2c2.3 0 5.4-.1 6.7-.3l9.6-.5 7-.3v-10.4l-2.6-.6a41 41 0 0 1-12.3-6.2 27 27 0 0 1-7-8.3c-1.1-2.4-1.2-3-1.2-8.4 0-5.6 0-6 1.6-9.2 3.2-6.5 10.6-11.7 20.2-14.2a72.9 72.9 0 0 1 22-1 49 49 0 0 1 16.7 5.5c4.5 2.6 9.3 7.8 10.8 11.6a21.3 21.3 0 0 1-1.2 18 31.5 31.5 0 0 1-19 12.7l-2.7.6v8.5h1.4l13.6-.8 13.8-.8h1.6V345h-4.8l-5.2.2-16 .5-18.4.6-14.7.5-18.1.5-6 .4zm48.4-36.2c3.5-1.6 4.7-3.2 4.7-6.7 0-3.7-1.1-5.3-4.5-7a25.6 25.6 0 0 0-14.6-1c-7.3 2.2-8.9 9.3-2.9 13.7 3.2 2.4 12.9 3 17.3 1zm-48.4-50.8v-8.7h6.8c3.7 0 10-.1 14-.3l7.1-.3v-12.6H836V243h30.4v17.8h-83.2zm88.7-42.5-30.8-.4a1850.6 1850.6 0 0 1-36.7-.7H800v-41.7h25.3v12.4c0 6.8.2 12.5.4 12.6.2.2 16 .4 35 .7l37.7.4 3.3.1.1 8.5.2 8.5-15-.1-15.1-.3zm.1-70.3c0-21.3.2-42.3.4-46.7l.3-8 12.3.2h12.4v16.8c0 9.2.1 17.3.2 18v1.3l9.6.1 9.5.2v17.2H898l-.3 1.6c-.2.9-.3 9.8-.3 19.8V178H872v-38.7zm-71.6 16.5-17.2-.2V93.4h71.1v63l-18.4-.2-35.5-.3zm29.8-31v-14.6h-11L808 110v28.8l1.1.2 11 .2h10z"/>
  <path fill="currentColor" d="M1308.3 0v84.2h-14.2v43.1l7 .2 7 .1.3 100c.3 107.1.2 102.1 2.7 111 3.7 12.8 12.9 21.5 27.2 25.9 4 1.2 11 2.6 15.5 3 5.5.5 26.5 0 30.9-.9 16.1-3 26.2-8.7 32.4-18.6 3.2-4.9 4.2-7.6 5.7-14.5 1.5-7.1 1.7-21.1 1.7-102.5v-81.8h-47.7v90.3l-.2 88-1.4 2.4a9.4 9.4 0 0 1-8.8 5.2c-4 0-6.6-1.6-8.5-5.4l-1.4-2.7V127.3h68V106l-.2-21.4-33.9-.2h-33.9V0h-24zm-80.1.5v182c0 100.2.1 182.3.3 182.5.2.1 11 .2 24.1.2h23.8V.4h-24.1zM1007 81.3c-7.6-.1-16.6.6-23 2-20 4-31 14.3-34.8 32.6-.9 4.4-1 10-1 108.9V329l1.3 5.3c4.6 21 19.3 31.5 46.7 33.5 11.7.8 24.5 0 33.8-2.3 19.5-4.7 29.5-15.2 33-34.3.8-4.2 1-10.4 1-55.7.2-28 .1-51.5 0-52.1l-.3-1.2h-47.2l-.1 52.4-.1 52.4-1.3 2.5a9.9 9.9 0 0 1-8.5 5.7c-2.6.2-3.2 0-5.4-1.3a8.9 8.9 0 0 1-3.6-4.3l-1.3-2.6V122l1.2-2.3a9.2 9.2 0 0 1 8-5.4c2.5-.2 3.3 0 5.2 1a11 11 0 0 1 4.8 5.6c.5 1.2.6 10.3.6 40.5 0 21.5.2 39 .4 39l23.9.1h23.5v-38.4c-.1-41.9-.3-44.5-3-52.5-6.4-18.3-22.1-27-50.6-28.3h-3.2zm-945.4 0c-3.3 0-6.2.7-8.6 1.8-4.2 2-9.4 7.5-12.2 12.7L39.2 99V84H0v283h39.1V247.4c0-82.5.3-120.4 1-122.2 2.3-6 8-8.5 11.4-5 4.1 4 4 .5 4 127.1v119.8h39.2V248c0-74.7.3-120.2.9-122.2 2.6-9.2 11-9.7 14.5-.7.7 1.8 1 39.7 1 122.2V367h39.1l-.2-126.3c-.3-120-.4-126.6-2-132.2-3.6-12.6-9.4-20.7-17.7-24.8-3.5-1.7-5.7-2.1-12.9-2.1-7.9 0-9 .2-13.5 2.7a50.3 50.3 0 0 0-10.1 8.4l-5.3 5.8-1.1-2.8a32.3 32.3 0 0 0-15.7-13.2c-3.3-1-6.8-1.4-10-1.3zm150.4.3c-7 0-14 .8-18.2 2.3-14 4.8-21.2 13-25.6 28.7-1.8 6.6-2 10.1-2.4 33.5l-.4 26.2h39.3v-23c0-20.7.2-23.4 1.7-26.2 1-1.7 2.8-3.7 4.2-4.4 2.2-1.1 2.8-1 5 .5 5 3.7 5 4.4 5.3 40l.3 32.8-10.8.5c-23.6 1.2-35.4 9.2-41.5 28.5-2.8 8.8-3.3 18.7-3.3 61.7 0 45.7.6 55 4.5 65.4 3.9 10.4 13 19.7 21.2 21.8 7.8 2 17.7-1.7 24.3-8.9a35 35 0 0 1 5-4.9c.3 0 .5 2.5.5 5.5v5.5h38.2v-41.7l.2-121.7c.1-69.8 0-81-1.3-86.5-4.3-19.2-12-28.6-27.5-33.5a67.5 67.5 0 0 0-18.7-2.1zm127.2.2c-3.8-.2-7.5.4-10.4 2A32 32 0 0 0 317 96.4c-1 4.3-2.1 2-2.1-4.7V85h-39.2l-.2 139.5v141.1c.3 1.4 2.3 1.6 19.2 1.6h19l.6-56.7c.3-31.2.6-85.1.6-120v-63.2l2-3.6c2.6-4.6 6-6 9.3-3.8 5.3 3.5 5-2.6 5 127.5v119.8h38l.7-120.9c.4-85.6.3-122.8-.4-127.6C367 100 361.3 90 351 84.8a30.2 30.2 0 0 0-11.7-3zm365.5.5a45.4 45.4 0 0 0-32 11.6c-10.1 10.4-13 22.2-13.2 55.6l-.1 23.1H678c10.2-.1 18.8-.5 19.1-.8.3-.3.8-10.9 1-23.5.5-20.1.7-23.3 2.2-25.5 3.6-5.5 8.5-5.2 12 .6 1.7 2.7 1.8 5.2 2 35.1.2 17.7 0 32.6-.4 33-.5.5-4.9 1-9.9 1.3-27.7 1.4-40.2 13-44 41-.5 4.1-1 26.1-1 51.3 0 40.7 0 44.9 1.7 52.6 1 4.6 2.9 10.6 4.1 13.4 3.7 8 11.8 15.7 18.6 17.8 8 2.4 16-.3 23.6-7.8 3.1-3.1 5.9-5.4 6.2-5.1.2.2.5 2.6.5 5.3v4.9h37l.6-31.2c.3-17.2.7-72 .8-121.8.1-80.9 0-91.2-1.4-97.1-4.2-18.9-14.7-29.5-32.3-32.6a72 72 0 0 0-13.6-1.2zm382.8 2.4.3 122c.1 67 .4 123.4.5 125.4.5 5.6 2.1 11.8 4.6 17a32.3 32.3 0 0 0 22.5 17.5c4.3 1 5.8 1.2 12.5 1 7.2 0 7.8-.1 11.6-1.7 5.1-2 10.4-6 13.5-10.1 1.2-1.7 2.4-3.1 2.6-3.2.2 0 .5 2.8.5 6.2l.2 6.2 23.7.2 23.7.1V84.7H1156v242.9l-1.1 2.2c-.7 1.3-2.2 3-3.4 3.8-1.9 1.3-2.6 1.5-5.6 1.5-3.1 0-3.7-.2-5.4-1.6-1-.8-2.5-2.4-3.1-3.5l-1.1-2v-52.8l-.4-121.6-.3-68.9h-24zm-591.3.1-.6 96.8c-.8 115-.5 147.9 1.7 156.2 3.5 13.6 9.6 22 20 27 3.5 1.7 8.7 3.5 11.5 4 17.5 2.8 29-.8 36.8-11.5 1.5-2 3.2-3.8 3.7-3.8s1.8 1.6 3 3.6c2.1 3.8 7.4 8.2 13 10.7a58 58 0 0 0 28.6-.5c15.3-4.7 23-13.9 27.4-33 1.2-5 1.6-17.3 2.2-75.1.4-38 .7-92.6.8-121.3V85.8h-38.8l-.1 95.3c-.1 52.5-.4 106.6-.8 120.3-.5 23.3-.7 25-2.5 27.7-1.6 2.5-2.5 3-5.5 3s-3.9-.5-5.8-3.3l-2.2-3.1.5-120 .5-120h-19c-14.5 0-19.2.4-19.5 1.2-.2.7-.5 54.4-.7 119.5-.3 117.2-.3 118.4-2.1 121.5-1 1.8-3 3.8-4.4 4.4-2.1 1-2.8 1-4.7-.2a16 16 0 0 1-3.8-4c-1.5-2.2-1.6-9.3-1.6-122.6V85.3l-18.8-.2zm-103.6.5c-3.5 0-5.8 0-6 .3-.3.3-.7 63.8-1 141l-.4 140.5h38.6l.5-99c.4-90.2.6-99.3 2-102 3.3-6.4 8.7-7.1 12.7-1.7l2 2.5v199.7h18.7l18.7.2.6-26.5c.3-14.6.6-61.4.6-104.1 0-85.5 0-85.4-5.6-97.7a28.8 28.8 0 0 0-25-17.9c-5-.4-6.1-.1-10.4 2.2-4.2 2.3-8.7 7-12.4 12.7-.9 1.4-1.1-3.7-1.1-23.8L425 86l-18.9-.6c-5.1-.2-10-.2-13.5-.2zM215.2 230.7h1.8l3.7.3.3 44.1c.2 24.3 0 46-.3 48-.3 2.2-1.5 5.1-2.8 6.6-4 4.7-9 3.6-12-2.4-.8-1.4-1-15-1-45.5 0-42 0-43.6 1.7-46.5 2-3.1 4.6-4.6 8.6-4.6zm495.4.5 2.6.1c.6.1.8 15.7.7 45.4-.3 49.1-.5 51.2-5.3 54.3-3.2 2.2-4.8 1.8-8.2-1.6l-3.1-3.1v-43c0-41.7 0-43.2 1.9-47 1-2.1 2.7-4.1 3.8-4.5 1.3-.4 4.7-.6 7.6-.6z"/>
</svg>
