<svg xmlns="http://www.w3.org/2000/svg" viewBox="0 0 791.54 189.6">
  <g transform="translate(26.73 -652.32) scale(3.77953)">
    <rect width="207.93" height="47.53" x="-6.37" y="173.91" ry="1.82" fill="#fff" paint-order="stroke fill markers"/>
    <path d="M-3.49 174.1a2.08 2.08 0 0 0-2.08 2.08v43a2.08 2.08 0 0 0 2.08 2.08h98.96v-8.23a15.54 15.54 0 0 1-15.54-15.54 15.54 15.54 0 0 1 15.54-15.55v-7.85zm26.54 8.37c2.23 0 4.25.54 5.2 1.42.85.77 1.23 1.73 1.37 3.5.07.86.11 6.9.1 13.4l-.05 11.85-2.76.04-2.77.04v-1l-.6.4a4.75 4.75 0 0 1-4.66.47 4.39 4.39 0 0 1-2.26-2.42c-.36-1.09-.46-10.18-.12-11.51.27-1.1.8-1.87 1.67-2.45.96-.65 1.86-.88 4-1.05l1.9-.15-.04-4.14c-.04-4.01-.05-4.16-.34-4.47-.39-.41-1.1-.42-1.46-.02-.24.27-.27.58-.3 3.43l-.05 3.14H16.3v-3.14c0-2.73.04-3.25.28-4.03.63-2.06 2.34-3.08 5.51-3.29a14.2 14.2 0 0 1 .97-.02zm40.84 0c.27-.02.57-.02.91 0 2.3.13 3.68 1.37 4.04 3.61.17 1.1.2 26.19.03 26.46-.09.14-.75.17-2.84.14l-2.72-.04-.07-13.08c-.07-12.74-.08-13.08-.34-13.28-.4-.3-1.11-.25-1.42.1-.26.28-.27.73-.3 13.31l-.05 13.02h-2.7c-1.5 0-2.75-.04-2.8-.1-.06-.04-.1-6.8-.1-14.99v-14.9h5.6v1.13l.72-.56a3.37 3.37 0 0 1 2.04-.82zm-22.79 0c1.83.13 3.03.87 3.74 2.33l.4.8v27.04l-2.78.04-2.76.04v-12.84c0-11.2-.03-12.88-.22-13.24a1.03 1.03 0 0 0-1.81 0c-.19.36-.22 2.04-.22 13.24v12.83h-2.73c-2.07 0-2.76-.04-2.8-.17-.05-.1-.06-6.83-.04-14.97l.04-14.78 2.76-.04 2.77-.04v.57c0 .3.05.56.12.56.06 0 .32-.22.58-.49.67-.7 1.6-.97 2.95-.87zm30.13.38 2.84.04 2.84.04v29.71l-2.84.04-2.84.04v-14.93zm-70.22 0h4.26c3.8 0 4.36.04 5.36.3 1.93.49 3.02 1.43 3.52 3.05.22.72.25 1.54.25 8.5 0 7.09-.02 7.78-.26 8.55-.68 2.21-2.35 3.17-5.92 3.38l-1.6.1v5.98h-5.6V197.8zm46.53 0h5.61v29.86h-2.7a22.6 22.6 0 0 1-2.81-.1c-.05-.04-.1-6.76-.1-14.92zm47.94 1.74a12.9 12.9 0 0 0-12.9 12.9 12.9 12.9 0 0 0 12.9 12.89 12.9 12.9 0 0 0 12.9-12.9 12.9 12.9 0 0 0-12.9-12.9zm-87.99 1.79a2.18 2.18 0 0 0-.4 0l-.4.05-.04 8.24-.03 8.23h.7c.57 0 .78-.07 1.06-.34l.34-.35v-7.57c0-7.36 0-7.58-.28-7.85a1.45 1.45 0 0 0-.95-.41zm16.02 12.46c-.8 0-1.28.22-1.47.69-.1.25-.14 1.79-.11 4.8.03 4.13.05 4.45.3 4.72.33.36 1.09.4 1.42.07.13-.13.29-.39.36-.57.07-.19.13-2.45.13-5.03v-4.68z" fill="red"/>
    <path d="M-3.8 172.6a3.26 3.26 0 0 0-3.27 3.26v43.63a3.26 3.26 0 0 0 3.27 3.27h202.88a3.26 3.26 0 0 0 3.28-3.27v-43.63a3.26 3.26 0 0 0-3.28-3.27zm.31 1.5h202.26a2.08 2.08 0 0 1 2.08 2.08v43a2.08 2.08 0 0 1-2.08 2.08H-3.49a2.08 2.08 0 0 1-2.08-2.09v-43a2.08 2.08 0 0 1 2.08-2.08zm190.38 8.2c-3.49.01-5.36.86-6.27 2.84l-.4.88v6.87l2.76.04 2.77.04v-3.24c0-1.84.06-3.35.13-3.5.19-.34.92-.58 1.31-.43.72.27.73.3.77 5l.04 4.4h-1.23c-4.04 0-6.07 1.3-6.49 4.17a83.9 83.9 0 0 0 0 9.47c.28 1.92 1.08 3.05 2.6 3.67 1.47.6 3.43.36 4.53-.57.23-.19.44-.34.48-.34.05 0 .1.2.12.45l.05.46h5.32l.04-12.2c.05-12.69-.01-14.48-.52-15.46-.86-1.68-2.89-2.54-6.01-2.54zm-15.3.01c-1.3.03-2.6.2-3.54.56a4.31 4.31 0 0 0-2.3 2c-.56 1.13-.63 2.64-.57 14.02.06 11.7.01 11.25 1.12 12.5a5.5 5.5 0 0 0 3.21 1.6c1.18.2 3.59.2 4.7 0l.9-.16 1.3.64c.7.36 1.44.63 1.63.61l.35-.03.04-8.51.03-8.52h-6.59v3.65H173v4.03c0 4.33-.04 4.57-.72 4.9-.44.21-1.17 0-1.38-.39-.09-.16-.14-4.43-.14-11.5v-11.25l.3-.32c.38-.4 1.08-.43 1.54-.06l.33.27.07 4.15.07 4.15h5.27c.1 0 .14-1.28.1-4.32-.05-4.04-.07-4.36-.36-5.08a4.6 4.6 0 0 0-2.11-2.24c-.98-.49-2.68-.72-4.37-.7zm-44.01.28c-1.35 0-2.42.33-3.33 1.04l-.63.5-.5-.44c-.8-.71-1.63-1-3-1.07-1.11-.06-1.3-.03-2 .31-.41.2-.9.55-1.06.75-.36.46-.48.4-.48-.25v-.5h-5.46l-.04 14.83-.04 14.81 2.7.04c1.49.02 2.72.04 2.74.03.02 0 .05-5.83.07-12.94l.03-12.93.4-.34c.62-.54 1.36-.44 1.7.23.18.34.21 2.23.21 13.16v12.76h5.47v-25.8l.34-.34a1.12 1.12 0 0 1 1.58-.04l.32.3v25.87l2.8.04 2.8.04v-13.1c0-11.16-.02-13.24-.2-13.92-.53-2.03-2-3.04-4.42-3.04zm31.37 0c-1.33 0-2.09.29-2.77 1.06-.23.27-.43.44-.44.38a7.38 7.38 0 0 1-.04-.6c0-.27-.06-.5-.12-.53-.06-.02-1.3-.03-2.77-.03h-2.66v29.72l2.73-.04 2.73-.04.01-12.54c0-7.7.06-12.75.15-13.07.23-.89 1.03-1.21 1.69-.68l.33.27.07 13 .07 13.02 2.77.04 2.77.04-.04-13.43-.04-13.42-.46-.95c-.76-1.54-1.95-2.2-3.98-2.2zm-17.62.02-.68.01c-2.94.11-4.44.71-5.36 2.16-.6.94-.7 1.7-.7 5.1v3.08h5.47v-6.19l.4-.4c.45-.45.67-.5 1.19-.26.6.28.65.6.65 4.94v4.11l-1.79.08c-.98.04-2.1.18-2.48.3-1.77.54-2.99 1.74-3.3 3.23-.1.5-.14 2.45-.11 5.85.04 4.97.05 5.1.36 5.79a4.44 4.44 0 0 0 3 2.45c1.3.27 3.2-.19 4-.96l.3-.3.05.53c.02.29.09.5.15.49.05-.02 1.27-.04 2.7-.04h2.6l-.05-13.28-.03-13.28-.34-.73c-.83-1.84-2.73-2.7-6.03-2.68zm45.86 15.96h.8v4.75c0 5.12-.03 5.34-.72 5.7-.21.1-.4.2-.43.19a1.83 1.83 0 0 1-.78-.46c-.31-.28-.31-.29-.31-4.93v-4.64l.32-.31c.26-.24.5-.3 1.12-.3zm-45.65.28h.76v9.96l-.34.34a1.07 1.07 0 0 1-1.76-.34c-.1-.26-.14-1.81-.11-4.9l.04-4.53.33-.27c.23-.19.55-.26 1.08-.26z" fill="#000"/>
  </g>
</svg>
