<svg xmlns="http://www.w3.org/2000/svg" viewBox="0 0 127.2 195.89">
  <g transform="translate(-301.29 -431.73) scale(3.77953)" paint-order="stroke fill markers">
    <path fill="#fff" d="M79.89 114.49h33.31v51.3H79.89z"/>
    <path d="M79.72 114.23v51.83h33.65v-51.83Zm26.8 1.43h.18c.9.04 1.44.37 1.59.98.06.29.07 7.03 0 7.1-.03.04-.29.05-1.1.04h-1.07l-.03-3.52c-.03-3.43-.03-3.52-.13-3.57-.16-.08-.44-.07-.56.03-.1.07-.1.2-.12 3.57l-.02 3.5h-1.06c-.58 0-1.08 0-1.1-.02-.02-.02-.03-1.83-.03-4.03v-4h2.2v.29l.27-.15a1.7 1.7 0 0 1 .97-.23zm-9.3 0h.18c.72.04 1.19.24 1.47.63l.15.22v7.26l-1.08.01-1.09.01v-3.44c0-3.01 0-3.47-.08-3.56-.15-.2-.57-.2-.71 0-.08.1-.09.55-.09 3.56v3.44H94.9a4.2 4.2 0 0 1-1.1-.04c-.02-.03-.02-1.84-.01-4.02l.01-3.98h1.09l1.08-.02v.15c0 .09.02.15.05.15a.9.9 0 0 0 .23-.13c.23-.16.53-.24.96-.24zm-6.9 0c.88 0 1.67.15 2.05.39.33.2.47.46.53.94.03.23.04 1.85.04 3.6l-.02 3.18-1.09.01-1.08.01v-.26l-.23.1a2.6 2.6 0 0 1-1.83.13 1.6 1.6 0 0 1-.9-.65c-.13-.3-.17-2.74-.04-3.1.1-.29.32-.5.66-.65.37-.18.73-.24 1.57-.28l.74-.04-.02-1.12c-.01-1.08-.02-1.12-.13-1.2-.15-.1-.43-.11-.57 0-.1.07-.1.15-.12.92l-.02.84h-2.19v-.84c0-.73.01-.88.1-1.09.26-.55.93-.82 2.17-.88h.38zm18.9.11 1.12.01 1.11.01v7.98l-1.11.01-1.12.01v-4zm-27.54 0h1.66c1.5 0 1.72.01 2.1.08.77.13 1.2.38 1.4.82.08.2.09.41.09 2.28 0 1.9-.01 2.1-.1 2.3-.27.6-.93.85-2.33.9l-.62.03v1.61h-2.2v-4zm18.25 0h2.2v8.02h-1.06c-.59 0-1.08 0-1.1-.02-.02-.02-.04-1.82-.04-4.01zm-15.79.95h-.08l-.16.01-.01 2.21-.02 2.22h.28c.22 0 .3-.02.42-.1l.13-.09v-2.03c0-1.98 0-2.04-.1-2.11a.72.72 0 0 0-.38-.11h-.08zm6.36 3.34c-.31 0-.5.06-.57.2-.05.06-.06.47-.05 1.28.02 1.11.02 1.2.12 1.27.13.1.43.1.56.02.05-.04.11-.1.14-.16.03-.05.05-.65.05-1.35v-1.26zm-9.8 4.66h31.7v40.42H80.7Z" fill="red"/>
    <path d="M109.05 156.17c-1.25 0-1.93.22-2.25.74l-.15.23v1.8h1l.99.01v-.84c0-.48.02-.87.05-.91.06-.1.33-.15.47-.12.26.08.26.08.28 1.31l.01 1.15h-.44c-1.46 0-2.19.34-2.34 1.08a17.1 17.1 0 0 0 0 2.48c.1.5.4.8.94.95a2.25 2.25 0 0 0 1.8-.23c.02 0 .04.05.04.11l.02.12h1.92l.01-3.18c.02-3.31 0-3.78-.19-4.03-.3-.44-1.04-.67-2.16-.67zm-5.5 0c-.47.01-.94.06-1.28.15-.35.1-.66.3-.82.52-.2.3-.23.69-.21 3.66.02 3.05 0 2.93.4 3.26.25.21.68.36 1.16.42.42.05 1.29.05 1.7 0l.31-.04.47.17c.25.09.52.16.59.15h.12l.02-2.22V160h-2.36v.95h.4v1.06c0 1.13-.01 1.19-.26 1.28-.16.05-.42 0-.5-.1-.03-.05-.05-1.16-.05-3v-2.94l.11-.09c.14-.1.4-.1.56-.01l.12.07.02 1.08.03 1.09h1.89a4 4 0 0 0 .04-1.13c-.02-1.06-.03-1.14-.13-1.33a1.47 1.47 0 0 0-.76-.58 5.07 5.07 0 0 0-1.57-.18zm-15.84.08c-.48 0-.87.08-1.2.27l-.22.13-.18-.12a1.97 1.97 0 0 0-1.08-.28c-.4-.01-.47 0-.72.09a1.2 1.2 0 0 0-.38.2c-.13.11-.17.1-.17-.07v-.13h-1.97l-.01 3.86-.02 3.87.97.01h.99s.02-1.51.02-3.37l.01-3.37.15-.1c.22-.13.49-.1.61.07.07.09.08.58.08 3.43v3.33h1.96v-6.73l.13-.09c.16-.11.4-.12.56-.01l.12.08v6.75l1 .01 1.02.01v-3.42c0-2.91-.01-3.45-.08-3.63-.19-.53-.72-.8-1.59-.8zm11.29 0c-.48 0-.75.07-1 .27-.08.07-.15.12-.16.1l-.01-.15c0-.07-.02-.14-.04-.14l-1-.01h-.96v7.75h.98l.99-.02v-3.27c0-2 .02-3.32.05-3.4.09-.24.38-.32.61-.19l.12.07.03 3.4.02 3.4h1l1 .01-.02-3.5-.01-3.5-.17-.25c-.27-.4-.7-.57-1.43-.57zm-6.34 0h-.24c-1.07.03-1.6.19-1.93.57-.22.24-.26.44-.26 1.33v.8h1.97v-1.61l.15-.1c.16-.13.24-.14.42-.08.22.08.24.16.24 1.3v1.07l-.64.02c-.36 0-.76.04-.9.07-.63.15-1.07.46-1.18.85-.04.13-.06.64-.05 1.52.02 1.3.02 1.34.14 1.52.2.31.62.57 1.07.63.47.07 1.15-.04 1.44-.25l.11-.07.02.13c0 .08.03.14.05.13h1.91l-.02-3.47-.01-3.47-.12-.19c-.3-.48-.98-.7-2.17-.7zm16.5 4.17h.29v1.24c0 1.33-.01 1.39-.26 1.48a.96.96 0 0 1-.16.05.75.75 0 0 1-.28-.12c-.11-.07-.11-.07-.11-1.28v-1.22l.12-.07c.09-.07.18-.08.4-.08zm-16.42.07H93v2.6l-.13.09c-.2.14-.52.1-.63-.1a6.18 6.18 0 0 1-.04-1.27l.02-1.18.12-.07c.08-.05.2-.07.39-.07z"/>
    <circle cx="96.54" cy="140.57" r="14.48" fill="red"/>
  </g>
</svg>
