<svg xmlns="http://www.w3.org/2000/svg" viewBox="0 0 5682.78 2054">
    <path style="fill:currentColor; stroke-width:.700512"
        d="M529.3 86.531v8.757c0 4.816-.128 8.756-.284 8.756-.156 0-2.914-1.261-6.13-2.802-9.515-4.56-17.913-6.4-31.064-6.807-12.64-.391-17.231.396-28.559 4.893-8.577 3.405-13.345 6.483-18.28 11.798-8.004 8.62-13.406 20.155-14.147 30.203-.235 3.188-.525 6.9-.644 8.248-.387 4.365 1.013 15.89 2.525 20.793 4.512 14.626 15.303 27.336 42.632 50.208 17.265 14.45 24.62 21.375 30.612 28.823 12.472 15.503 18.612 30.809 18.689 46.584.04 8.304-1.028 12.808-4.835 20.37-6.09 12.092-19.56 19.299-32.612 17.448-7.473-1.06-8.047-1.25-16.197-5.384-13.159-6.675-23.484-15.481-28.995-24.729-.344-.578-.784-4.676-.976-9.106l-.35-8.056-2.628-.218-2.627-.218v27.247c0 14.985.21 27.456.467 27.712.257.257 1.518.467 2.802.467h2.336v-10.34l8.742 3.047c19.787 6.897 40.094 8.658 55.266 4.792 5.91-1.506 14.711-5.91 19.48-9.746 7.875-6.336 16.36-20.006 21.066-33.94l2.264-6.702.005-15.06c.005-13.526-.158-15.67-1.603-21.016-2.008-7.43-6.048-15.684-10.8-22.066-5.071-6.813-18.87-20.372-29.228-28.722-27.084-21.831-37.673-32.819-44.762-46.444-3.936-7.565-5.283-13.581-4.74-21.155.942-13.143 3.704-20.582 9.97-26.848 5.158-5.159 9.71-6.98 17.422-6.974 12.322.011 20.208 3.372 30.036 12.797 3.42 3.28 8.228 8.532 10.683 11.67l4.464 5.703v14.86h6.305V86.531h-3.153zm585.628 0v17.909l-6.175-3.008c-3.396-1.654-9.306-3.847-13.134-4.873-6.333-1.698-8.16-1.87-20.27-1.918l-13.31-.054-7.616 2.637c-18.238 6.312-25.555 12.365-33.287 27.534-4.388 8.61-5.22 12.797-5.214 26.22 0 9.68.251 12.464 1.525 17.123 4.452 16.275 15.508 29.582 44.592 53.674 26.116 21.634 36.138 33.37 43.27 50.674 4.35 10.557 5.939 25.55 3.641 34.37-5.303 20.36-21.98 30.68-41.997 25.984-10.717-2.514-28.486-14.35-35.736-23.803l-4.203-5.48-.35-8.496-.35-8.496-2.628-.218-2.627-.218V341.603l2.627-.218 2.627-.217.205-5.04.206-5.043 3.26 1.399c1.794.769 6.37 2.32 10.168 3.449 20.15 5.986 39.283 6.735 53.176 2.08 11.13-3.728 18.073-8.728 25.265-18.195 4.358-5.735 10.401-18.036 12.915-26.285 1.8-5.907 1.922-7.145 1.947-19.615.032-16.31-1.363-23.42-6.681-34.06-5.26-10.52-20.848-26.766-41.29-43.029-13.997-11.134-25.793-22.548-32.103-31.062-4.757-6.419-9.426-15.44-10.554-20.393-1.801-7.91-.17-22.254 3.397-29.88 2.313-4.942 7.497-10.573 11.712-12.724 6.109-3.116 16.808-3.274 25.695-.38 7.809 2.543 18.476 11.713 27.372 23.533l3.925 5.215v14.236h5.604V86.531h-2.802zm-71.673 21.964c.173.172-.45 1.842-1.386 3.71-.935 1.869-2.531 5.92-3.547 9.002-8.46 25.67 1.767 47.057 35.276 73.761l16.812 13.402c8.46 6.744 21.221 19.37 25.539 25.269 8.73 11.928 11.886 22.962 11.918 41.68.018 11.322-.075 12.168-1.926 17.163-1.76 4.748-4.69 9.807-4.667 8.056.01-.385.465-2.592 1.023-4.904 1.363-5.643 1.33-19.291-.064-26.124-4.154-20.37-15.09-33.817-51.104-62.84-20.168-16.253-33.683-30.748-38.538-41.331-3.34-7.281-4.18-11.555-4.13-21.015.051-9.794 1.177-14.783 5.212-23.117 2.452-5.065 8.804-13.491 9.583-12.712zm-585.408.161-2.706 6.625c-7.51 18.386-6.65 32.483 2.945 48.307 6.271 10.341 15.634 20 31.588 32.582 24.838 19.589 36.019 30.127 42.935 40.468 5.808 8.685 8.85 18.467 10.06 32.367 1.057 12.14-.08 20.117-3.96 27.776-2.39 4.714-3.126 4.742-2.068.082 2.315-10.2 1.85-23.237-1.18-33.055-3.427-11.1-11.014-22.57-22.27-33.667-3.716-3.663-13.983-12.538-22.818-19.723-31.754-25.823-42.131-37.883-46.326-53.835-1.694-6.446-1.51-18.26.396-25.42 1.912-7.186 6.345-15.58 10.256-19.417zm935.881 136.191v3.55c0 3.224-.127 3.509-1.391 3.108-8.389-2.663-14.297-3.838-19.274-3.835-20.166.013-32.248 10.49-30.973 26.86.496 6.364 2.766 12.243 6.265 16.217 1.514 1.72 8.288 6.99 15.054 11.712 14.745 10.291 17.71 13.541 17.71 19.4 0 4.33-1.646 7.586-4.196 8.3-.967.271-3.492.485-5.611.475-5.043-.024-9.957-2.8-17.472-9.87l-5.58-5.25-.207-4.336-.208-4.335-2.627-.218-2.627-.217v30.907h2.855c2.678 0 2.846-.12 2.727-1.926h.01c-.228-3.463-.155-3.49 4.797-1.83 7.117 2.387 14.006 3.225 23.861 2.9 6.98-.229 9.674-.617 12.797-1.842 4.937-1.937 9.859-6.207 12.54-10.881 1.88-3.28 2.055-4.156 2.06-10.326.01-8.04-.906-11.03-5.235-17.097-3.723-5.217-6.166-7.383-17.048-15.121-9.022-6.416-15.147-11.845-16.655-14.76-1.273-2.463-1.257-7.114.034-9.612 2.888-5.583 12.008-3.89 20.583 3.819 5.861 5.27 7.821 8.595 7.821 13.273v3.944l2.475-.217 2.475-.218V262.01c0-8.476-.01-15.806-.024-16.287-.016-.529-.997-.876-2.478-.876zm-600.962 3.118c-11.13-.237-22.273 4.803-30.8 14.11-7.436 8.113-11.125 17.756-11.77 30.757-.67 13.507 2.879 23.017 12.009 32.188 5.42 5.446 10.032 8.057 18.095 10.243 6.86 1.86 19.616 1.503 26.753-.746 5.94-1.872 13.957-5.95 20.424-10.387l4.794-3.29.205-5.423.204-5.422h-1.828c-1.408 0-3.452 1.696-8.893 7.38-5.857 6.118-7.915 7.782-12.036 9.724-5.74 2.703-9.501 3.703-16.288 4.334-4.309.4-5.239.255-8.33-1.312-5.797-2.937-7.429-7.407-8.413-23.035-.258-4.104-.244-10.01.032-13.126l.502-5.665 26.372-.183 26.372-.183-.19-4.904c-.432-11.216-4.232-21.039-9.785-25.297-3.948-3.029-17.106-8.447-22.668-9.334a34.951 34.951 0 0 0-4.761-.428zm-192.009.096c-4.21-.062-8.421.492-11.914 1.674-9.227 3.121-18.715 10.777-23.692 19.116-4.522 7.578-5.913 13.003-6.265 24.45-.345 11.232.148 13.836 4.086 21.598 5.817 11.467 15.315 18.26 29.724 21.261 4.133.861 14.517.358 19.677-.953 6.826-1.735 15.7-5.882 22.879-10.691l5.429-3.637v-5.443c0-5.189-.074-5.44-1.589-5.44-1.088 0-3.903 2.334-8.931 7.404-4.039 4.072-8.604 8.142-10.145 9.045-4.058 2.376-11.503 4.469-17.746 4.99-4.693.391-5.821.254-8.312-1.017-6.327-3.228-7.93-7.797-8.433-24.043-.199-6.422-.144-13.12.12-14.886l.482-3.21h52.452v-3.791c0-9.55-3.793-20.836-8.54-25.413-2.604-2.51-9.53-6.092-17.379-8.986-3.485-1.286-7.693-1.965-11.903-2.028zm676.92.048c-5.755.296-12.13 1.211-19.074 2.757-4.47.995-8.343 2.017-8.607 2.273-.265.255-.703 4.004-.974 8.33-.627 9.992-.05 10.466 5.966 4.896 8.952-8.288 16.548-11.377 27.54-11.2 3.757.06 7.145.304 7.53.542.667.412 1.053 19.262.394 19.262-.168 0-1.083-.296-2.035-.658-6.656-2.53-20.332-2.2-28.023.678-7.525 2.815-17.516 14.109-20.852 23.572-3.87 10.976-1.677 24.283 5.122 31.081 4.329 4.33 12.454 7.026 20.257 6.722 4.414-.171 6.233-.638 10.508-2.688 2.844-1.364 7.37-4.098 10.059-6.075 2.689-1.977 5.084-3.596 5.322-3.596.24 0 1.008 1.272 1.71 2.827 1.83 4.058 5.874 7.418 10.574 8.784 5.396 1.569 14.768 1.12 19.338-.925 5.969-2.672 13.158-9.15 13.158-11.857 0-.494-.834-1.444-1.853-2.112l-1.854-1.214-3.225 3.49c-5.811 6.288-9.608 8.147-11.767 5.763-1.158-1.278-1.301-3.68-1.683-28.12-.441-28.2-.857-32.359-3.872-38.745-4.714-9.981-16.395-14.673-33.659-13.787zm-366.472.016c-2.92.005-5.749.278-7.302.82-4.777 1.663-10.649 6.693-15.678 13.431l-4.818 6.454-.196-9.54-.194-9.538h-39.189v5.555l7.18.2 7.18.2.181 36.25.182 36.252H843.828v5.604h54.64v-5.604h-15.41l.04-22.941c.043-25.261-.183-23.727 4.863-33.1 3.433-6.375 12.002-14.956 15.9-15.919 2.324-.574 3.242-.515 4.378.28 1.42.995 1.438 1.48 1.438 39.146v38.138h39.58l-.025-2.626-.023-2.627-7.792-.197-7.792-.199-.261-31.325-.262-31.326-1.798-4.312c-2.872-6.89-6.69-10.712-12.264-12.278-1.91-.537-4.917-.802-7.836-.798zm274.825.013c-11.487-.03-19.835 3.596-28.726 12.473-6.154 6.144-9.743 12.333-11.984 20.665-1.568 5.827-1.76 20.508-.334 25.569 4.054 14.391 15.688 25.417 30.333 28.748 6.396 1.455 19.08.918 25.422-1.077 5.936-1.866 13.951-5.942 20.424-10.384l4.794-3.29.206-5.423c.2-5.312.17-5.422-1.475-5.422-1.204 0-3.641 2.004-8.612 7.082-3.812 3.894-8.034 7.788-9.383 8.653-3.946 2.532-12.516 5.137-18.606 5.656-5.196.444-5.93.339-9.206-1.321-3.993-2.024-6.005-5.222-7.133-11.338-.963-5.229-1.596-22.609-.967-26.595l.553-3.503 26.26-.35 26.262-.35-.22-5.604c-.272-7.011-1.725-12.836-4.509-18.074-2.69-5.062-4.982-7.027-12.084-10.356-9.74-4.567-14.024-5.74-21.015-5.759zm-492.81 1.597-25.044.185-25.043.183-.217 2.598-.214 2.598 5.665.204 5.664.204 18.248 38.528c10.036 21.19 18.703 39.61 19.26 40.93.634 1.503 1.258 2.152 1.672 1.739.363-.364 6.059-13.107 12.657-28.32 18.17-41.89 18.877-43.482 21.156-47.623 1.167-2.12 2.61-4.247 3.206-4.729.66-.533 3.225-.875 6.555-.875h5.47v-5.604h-37.828v5.604h3.853c4.596 0 4.415-.956 2.445 12.914-1.447 10.188-3.883 21.148-6.158 27.716l-1.334 3.852-1.448-3.152c-.795-1.734-5.412-11.494-10.26-21.69-4.847-10.196-8.814-18.786-8.814-19.089 0-.303 2.365-.551 5.254-.551h5.254v-2.81zm-95.116 4.436c1.295-.175 2.932-.126 5.71.038 7.695.455 12.909 2.708 15.57 6.729 2.049 3.097 3.25 9.703 2.945 16.192l-.212 4.496-17.934.186-17.933.188.297-5.442c.697-12.782 2.821-18.452 7.9-21.083 1.41-.73 2.362-1.13 3.657-1.304zm589.556.135c8.223 0 12.266 1.344 15.791 5.246 3.17 3.509 3.936 6.468 3.94 15.244l.01 7.18h-35.932l.458-6.527h-.01c.79-11.239 2.64-16.427 7.025-19.698 1.643-1.226 2.962-1.445 8.714-1.445zm-393.686.005c8.229.008 12.276 1.351 15.789 5.24 3.17 3.51 3.936 6.469 3.94 15.245l.005 7.18h-35.937l.436-6.48c.75-11.122 2.662-16.474 7.054-19.746 1.647-1.226 2.96-1.444 8.713-1.439zm76.475.969v72.93H863.432l.18-36.252.182-36.251 3.327-.214zm44.264.07c1.003.335 3.878 3.835 5.041 6.31 1.429 3.041 1.489 4.28 1.696 34.851l.214 31.699h-7.058l-.188-36.252c-.103-19.938-.107-36.384-.01-36.546.056-.093.162-.11.305-.063zm-251.996.023c1.606.068 3.304.373 3.668.858.362.482 7.175 14.452 15.14 31.046l14.483 30.171-1.534 3.628c-.843 1.996-1.717 3.63-1.942 3.63-.225 0-2.984-5.438-6.13-12.084a10672.067 10672.067 0 0 0-16.266-34.084c-5.798-12.1-10.541-22.267-10.541-22.592 0-.469 1.515-.64 3.122-.573zm633.741 3.276c.117-.031.25.02.402.1 3.693 1.977 3.566.78 3.819 36.01.13 18.012.211 32.75.182 32.75-.03-.001-.7-.71-1.489-1.577-3.395-3.728-3.35-3.265-3.57-36.47-.176-26.341-.164-30.597.656-30.813zm55.361 1.583c.835-.016 1.208 2.145 1.403 6.857.444 10.742 2.98 14.359 18.143 25.874 16.11 12.233 20.966 17.757 20.966 23.847 0 4.055-2.706 9.147-5.717 10.758-1.07.573-1.144.16-.794-4.47.33-4.364.162-5.54-1.17-8.15-2.562-5.022-7.326-9.438-19.049-17.66-11.602-8.137-14.315-10.635-16.758-15.423-2.843-5.574-2.46-13.667.916-19.33.893-1.498 1.56-2.293 2.06-2.303zm-587.588 9.885c.15.164-.149 2.821-.664 5.904-1.415 8.468-1.97 24.943-1.097 32.535.418 3.64.629 6.749.467 6.91-.162.163-1.269-1.239-2.458-3.113-6.17-9.728-6.44-24.816-.644-35.982 2.168-4.177 3.961-6.729 4.396-6.254zm393.675 0c.143.164-.154 2.979-.658 6.254-1.467 9.511-1.965 24.752-1.051 32.14.447 3.614.667 6.717.49 6.894-.178.178-1.178-.968-2.222-2.546-4.548-6.872-6.397-18.857-4.224-27.382 1.616-6.34 6.682-16.49 7.665-15.36zm-585.412.21c.33.221.172 1.51-.47 4.643-1.322 6.453-2.143 25.957-1.345 31.953.42 3.16.656 6.484.524 7.386-.213 1.447-.477 1.245-2.24-1.711-3.486-5.847-4.86-11.256-4.846-19.065.01-5.902.318-7.829 1.95-12.237 1.928-5.21 4.548-10.005 5.935-10.862.218-.135.382-.18.492-.106zm703.72 8.363c3.993.16 9.633 1.01 12.518 2.015l2.025.706v33.324l-5.43 5.603c-7.267 7.5-12.658 10.171-17.77 8.807-.625-.167-1.695-1.543-2.378-3.058-1.116-2.473-1.201-4.39-.836-18.705.63-24.74 1.469-27.534 8.59-28.602.802-.12 1.95-.143 3.281-.09zm-26.793 12.041v17.688c0 9.729-.133 17.688-.3 17.688-.166 0-.96-.924-1.766-2.055-5.307-7.453-5.049-21.732.559-30.869z"
        transform="matrix(3.77953 0 0 3.77953 375.42 217.928)" />
    <path style="fill:currentColor;stroke-width:.264583"
        d="M-99.33 281.006V-57.66h436.827v543.454H-99.33Zm80.333 151.465c1.292-.224 3.087-.75 3.988-1.17 1.413-.658 1.73-.943 2.302-2.073 3.44-6.787-.761-14.152-11.67-20.463-2.297-1.328-7.24-3.669-7.75-3.669-.318 0-.337-.532-.038-1.004.493-.777 10.785-1.134 16.84-.583 12.616 1.147 27.1 4.846 39.46 10.077 8.232 3.484 13.166 5.46 17.029 6.82 11.69 4.118 23.387 6.848 33.146 7.737 8.164.744 16.35-1.023 19.917-4.299 4.204-3.86 2.981-9.272-3.134-13.869-4.389-3.3-14.016-6.831-23.815-8.737-2.1-.409-2.32-.508-2.249-1.01.077-.54.23-.559 5.107-.641 14.132-.24 30.721 2.347 50.006 7.796 7.807 2.206 14.116 4.474 20.424 7.342 13.29 6.042 22.213 9.627 28.368 11.399 12.776 3.677 27.067 4.497 32.454 1.861 1.076-.527 1.506-.944 2.118-2.052.69-1.25.767-1.63.76-3.771-.007-1.92-.13-2.664-.642-3.837-.909-2.086-2.505-4.367-4.214-6.023-4.554-4.412-13.768-8.535-26.153-11.701-.813-.208-1.124-.423-1.124-.776 0-.685.477-.766 6.637-1.126 13.668-.8 28.89 1.421 44.146 6.44 11.892 3.911 24.75 9.763 36.264 16.504 14.263 8.349 25.03 11.659 32.669 10.04 2.232-.472 5.251-1.87 6.424-2.972l.86-.809V-17.179H-62.553v441.523l5.622 1.87c7.721 2.566 11.864 3.714 18.455 5.11 6.912 1.465 14.917 1.936 19.479 1.147zm206.475-6.33c-7.293-1.06-17.383-3.783-26.94-7.27-2.74-.999-10.807-4.14-17.926-6.98-21.054-8.4-27.368-10.547-36.293-12.347-17.283-3.484-34.637-3.856-43.358-.928-2.617.878-4.594 1.89-4.07 2.084.218.08 2.897.966 5.953 1.968 10.965 3.595 19.501 7.313 23.195 10.102 2.72 2.053 4.17 4.644 3.774 6.748-.37 1.971-2.279 4.018-4.678 5.016-4.34 1.805-12.973 1.903-22.981.26-5.721-.939-17.622-4.008-18.166-4.685-.145-.18-.276-.946-.29-1.7-.066-3.503-1.86-8.445-6.368-17.552-3.372-6.811-5.56-9.493-9.228-11.305-1.97-.974-2.065-.992-5.064-.992-3.36 0-4.543.287-7.767 1.885-.99.491-1.898.893-2.017.893-.118 0-.364-.566-.547-1.257-2.027-7.689-5.048-15.681-7.35-19.442-2.68-4.383-8.04-9.593-14.613-14.207-1.527-1.073-2.871-2.032-2.986-2.133-.116-.101.08-.982.434-1.958l.644-1.774-.567-.347c-.312-.19-2.353-1.298-4.535-2.463-41.495-22.129-45.46-24.268-45.559-24.58-.356-1.132.662-.799 18.328 5.99a8505.296 8505.296 0 0 1 20.22 7.789c1.236.485 5.582 2.156 9.656 3.714a4984.725 4984.725 0 0 1 15.491 5.958c11.026 4.265 15.835 6.08 16.106 6.08.126 0 1.446-2.768 2.933-6.151 1.488-3.383 2.78-6.235 2.874-6.337.125-.138 10.669 2.762 15.16 4.17.498.156.525-.044 1.017-7.424.602-9.029 1.94-20.231 3.475-29.104.453-2.62.838-4.941.856-5.16.026-.322-.794-.48-4.333-.841-19.533-1.99-40.791-.71-60.228 3.628-8.344 1.862-19.224 5.085-26.02 7.709-2.819 1.088-3.061 1.14-3.371.716-.29-.397-.119-.685 1.307-2.196 5.986-6.346 29.09-29.858 48.117-48.968 43.449-43.638 86.224-83.492 105.214-98.028l2.42-1.852.014-1.272c.017-1.449.12-1.464-2.234.32-14.68 11.12-42.366 33.623-61.233 49.768-6.789 5.808-6.318 5.467-6.484 4.712-.216-.983-.907-6.18-1.26-9.475-.44-4.108-.438-18.047.003-22.093 1.994-18.283 7.985-34.27 17.98-47.98 8.069-11.069 16.75-18.599 27.976-24.267 8.522-4.303 15.881-6.208 23.938-6.197 4.826.007 10.24.977 12.798 2.293l.753.388-1.855 1.898c-2.346 2.4-2.863 3.038-4.406 5.428-3.221 4.989-5.384 11.562-6.37 19.357-.37 2.92-.423 4.83-.294 10.451.087 3.784.256 7.356.377 7.938.194.933.258.683.543-2.117.646-6.335 1.62-10.945 3.505-16.586 3.414-10.216 9.292-20.237 17.223-29.358l1.234-1.418.826-6.746c3.552-28.983 3.59-29.32 3.404-29.506-.08-.08-1.142-.55-2.362-1.046-5.671-2.305-10.796-3.173-14.38-2.435-3.551.73-14.207.203-15.703-.777l-.637-.417 1.022-.834c1.498-1.224 5.503-4.807 7.63-6.827l1.85-1.757-.444-.932c-.244-.512-1.505-2.168-2.802-3.678-3.55-4.137-5.213-6.682-5.709-8.742-.204-.846-.063-.87 2.745-.475 2.41.34 15.953 1.538 21.03 1.86 4.579.291 9.058.307 10.323.037.748-.16.807-.267 1.017-1.831.183-1.36.302-1.64.662-1.542.24.065.873.192 1.404.281.53.09 1.098.323 1.26.518.22.265-.011 3.19-.902 11.436-1.214 11.228-1.993 18.48-3.197 29.734-.366 3.42-.957 8.877-1.314 12.126-.357 3.25-.65 6.068-.65 6.263 0 .462.181.478 18.918 1.714 8.586.566 20.577 1.359 26.647 1.762 6.07.403 11.112.657 11.205.565.156-.157.722-10.681 1.462-27.192.173-3.856.349-7.052.39-7.101.041-.05.743.06 1.559.242l1.484.332-.16 2.933c-.462 8.542-1.395 30.984-1.29 31.088.096.097 8.04.733 9.988.8.453.015.448.065-.078.744-4.351 5.622-6.376 9.957-8.317 17.81-.997 4.035-1.882 9.643-2.148 13.61-.088 1.309-.218 2.678-.289 3.042-.098.497.432.06 2.134-1.765 1.245-1.334 3.03-3.035 3.965-3.779 4.946-3.936 13.733-6.097 24.797-6.098h3.616l.155-1.918c.085-1.055.335-6.383.556-11.84.22-5.457.518-12.28.661-15.162.143-2.882.26-5.762.26-6.4v-1.16l1.257-.163c.691-.09 1.538-.221 1.882-.293l.626-.13-.173 3.65c-.602 12.656-1.457 33.522-1.377 33.602.052.053 1.689.272 3.637.488 10.409 1.154 23.718 4.209 27.353 6.279 1.214.69 1.546 1.63.675 1.907-.87.276-4.537 3.107-5.773 4.457-3.07 3.355-5.299 8.174-6.334 13.697-.65 3.467-.642 12.88.016 17.172 1.194 7.803 3.192 15.05 6.065 22.005.221.535.212.803-.04 1.106-.285.344-.757.077-3.438-1.95-4.302-3.256-7.91-5.486-12.866-7.95-4.107-2.044-11.156-4.83-11.57-4.575-.113.07-.204.997-.204 2.062v1.936l2.58.596c9.792 2.262 22.764 8.798 28.432 14.325 2.057 2.006 2.03 2.355-.32 4.29-3.095 2.546-6.631 7.097-8.677 11.167-1.223 2.432-2.618 6.662-3.29 9.976-.529 2.611-.6 3.74-.593 9.321.007 5.417.097 6.856.614 9.79 1.165 6.611 3.439 14.56 4.23 14.792.242.07 2.433.511 4.871.98 2.437.468 4.432.938 4.432 1.045 0 .106-1.019 1.307-2.264 2.668-4.55 4.976-8.036 10.028-10.926 15.837-2.96 5.948-4.78 11.62-5.777 17.991-.658 4.213-.655 13.454.006 17.727 1.68 10.848 5.552 21.544 11.494 31.75 1.508 2.59 4.963 7.783 6.023 9.052.33.395.643.85.697 1.01.078.235 4.383 1.025 5.698 1.046.5.008.933 1.04.746 1.783-.197.787-2.602 3.378-4.423 4.767-1.194.91-1.274 1.048-1.273 2.174 0 1.431.454 4.3 1.86 11.786 2.366 12.602 3.031 18.54 2.838 25.332-.147 5.167-.576 7.49-1.93 10.444-1.007 2.2-2.815 4.165-4.639 5.047-1.812.876-2.339.767-4.794-.991-5.9-4.227-16.872-10.09-24.43-13.055-11.095-4.353-23.724-7.237-38.095-8.7-8.205-.835-31.476-.047-32.763 1.109-.121.108 2.141 1.122 5.027 2.253 13.95 5.467 21.239 8.95 25.789 12.323 3.638 2.697 5.819 6.06 5.986 9.233.114 2.17-.412 3.106-2.223 3.959-1.633.77-5.693.95-9.357.418zm27.917-66.2 5.359-3.087.157-2.536c.086-1.394.234-4.462.329-6.816l.17-4.28-1.024-.265c-5.614-1.45-12.097-2.24-18.488-2.255-7.064-.016-10.793.618-14.848 2.524l-1.16.545v3.844l.828.166c.454.09 2.121.165 3.704.165h2.877l.018 1.124c.104 6.463.45 12.169.75 12.354.186.115 2.203.36 4.481.546 2.28.186 5.513.485 7.186.664 1.674.18 3.327.342 3.673.36.366.02 2.871-1.258 5.988-3.053zm43.703-3.424c-2.574-1.395-14.872-6.296-21.481-8.561-4.84-1.659-11.583-3.714-12.185-3.714-.237 0-.377.884-.493 3.109-.09 1.71-.22 4.031-.289 5.16-.069 1.127-.057 2.05.026 2.05s.886-.433 1.784-.961l1.632-.96 11.112 1.514c6.112.834 12.958 1.789 15.214 2.122 2.255.334 4.398.616 4.762.626l.662.019-.745-.404zm-146.751-6.454c.914-1.82 1.689-3.344 1.722-3.389.034-.044 1.95.278 4.258.715 21.039 3.99 39.181 6.294 45.129 5.733l2.039-.192 2.035-2.558a227.425 227.425 0 0 1 2.243-2.792c.114-.128 1.317-.217 2.672-.198 1.644.024 2.328-.048 2.054-.214-.715-.433-8.63-3.316-14.456-5.266-13.176-4.41-25.307-7.518-37.289-9.552-4.27-.725-10.774-1.598-10.908-1.464-.112.112-2.404 20.998-2.414 22.002-.006.549.719.972 1.087.635.091-.084.914-1.641 1.828-3.46zm-40.888-3.148 3.671-5.264 10.732 3.648c5.903 2.007 11.843 4.029 13.2 4.493 1.358.465 2.505.806 2.55.757.043-.05.281-1.816.528-3.926.246-2.11.793-6.627 1.216-10.038.422-3.41.7-6.268.62-6.35-.294-.294-14.875-.313-18.76-.025-14.401 1.07-27.334 4.716-36.675 10.342-2.693 1.621-5.79 3.868-5.79 4.2 0 .093 1.578.614 3.506 1.158 3.1.875 21.47 6.215 21.514 6.254.01.008 1.67-2.354 3.688-5.249zm102.4-57.706c1.143-10.287 3.916-20.684 7.248-27.173l1.25-2.434-1.38-4.18c-1.69-5.113-2.9-10.403-3.484-15.227-.242-2-.524-3.548-.626-3.44-.33.353-1.814 5.899-2.598 9.713-2.117 10.29-2.807 18.882-2.584 32.157.132 7.856.563 15.195 1.15 19.58.177 1.324.213 1.158.396-1.853.111-1.819.394-5.033.628-7.143zm-122.255-8.732c7.867-27.936 21.33-54.638 36.887-73.157 2.979-3.546 8.695-9.313 10.352-10.444 4.598-3.14 11.985-5.647 19.58-6.644 1.382-.182 2.588-.4 2.68-.485.093-.085.25-.839.35-1.675.221-1.85.23-1.848-3.235-.76l-2.427.76-1.042-2.68c-2.271-5.845-3.822-11.69-4.676-17.627-.24-1.674-.475-3.083-.52-3.13-.162-.174-7.59 9.426-12.863 16.624-14.74 20.124-27.714 41.336-35.276 57.679-7.382 15.95-11.023 28.506-11.438 39.437-.135 3.54.023 6.855.311 6.558.048-.05.641-2.055 1.317-4.456zm134.057-23.434c.652-.336.759-.548.759-1.497v-1.105l-1.079 1.046c-1.062 1.03-2.89 3.344-2.89 3.659 0 .089.552-.26 1.226-.775.674-.514 1.567-1.112 1.984-1.328zm60.026.31c0-.059-.447-.375-.993-.703-5.858-3.522-14.982-7.912-15.458-7.44-.099.099-.21 1.485-.249 3.081l-.069 2.903 4.482.585c2.465.321 5.91.816 7.656 1.098 3.227.523 4.63.667 4.63.475zm-52.613-2.663c5.526-1.058 18.327-1.193 27.874-.295 2.183.206 4.044.294 4.135.197.092-.097.228-1.685.302-3.528l.136-3.353-2.022-.542c-11.754-3.156-22.752-2.155-31.126 2.833l-2.117 1.261-.15 1.841c-.17 2.102-.116 2.316.53 2.111.256-.081 1.353-.318 2.438-.525zm2.251-59.44c.778-.6 1.414-1.177 1.414-1.282 0-.17-3.744-1.382-3.872-1.253-.029.03-.085.758-.125 1.62-.071 1.534.08 1.817 1.062 1.986.06.01.744-.472 1.521-1.072zm-5.995-1.77v-1.801l-4.564-1.114c-12.341-3.011-23.077-4.808-33.536-5.613-7.24-.557-22.848-.217-23.618.515-.112.106-.297.974-.412 1.928l-.209 1.736 10.202.139c15.162.205 28.357 1.62 46.052 4.94 2.983.56 5.573 1.03 5.755 1.044.235.02.33-.495.33-1.774zm14.202-3.722c1.336-.752 3.818-1.964 5.516-2.692 5.46-2.343 8.933-2.998 15.137-2.856l3.972.091.17-2.222c.094-1.222.127-2.267.073-2.32-.169-.169-6.28-1.358-8.585-1.67-3.843-.522-10.032-.748-14.016-.513-4.81.284-8.002.736-8 1.133.004.753 1.789 12.2 2 12.83.1.3.22.294.713-.027.326-.212 1.685-1.002 3.02-1.754z"
        transform="matrix(3.77953 0 0 3.77953 375.42 217.928)" />
</svg>