<svg viewBox="0 0 677.333 677.333" xmlns="http://www.w3.org/2000/svg">
  <path style="fill:currentColor;stroke-width:.264583" d="M20.923 214.067V-124.6H457.75v677.333H20.923Zm36.513 298.085v-1.953l3.302 1.15c7.473 2.606 15.143 3.27 20.874 1.81 2.232-.568 5.556-2.231 7.357-3.68 2.975-2.393 6.18-7.557 7.957-12.82l.855-2.53.002-5.69c.001-5.108-.06-5.917-.606-7.937-.759-2.806-2.284-5.924-4.079-8.334-1.916-2.573-7.128-7.695-11.04-10.848-10.23-8.246-14.229-12.396-16.906-17.542-1.486-2.857-1.996-5.13-1.79-7.99.355-4.964 1.399-7.774 3.765-10.14 1.949-1.949 3.668-2.637 6.58-2.634 4.654.004 7.633 1.273 11.345 4.833 1.292 1.238 3.108 3.222 4.035 4.407l1.686 2.154V440.021H93.154v-22.225h-2.38v3.307c0 1.82-.049 3.308-.108 3.308s-1.1-.477-2.315-1.059c-3.594-1.722-6.766-2.417-11.733-2.57-4.774-.148-6.508.149-10.787 1.847-3.24 1.287-5.04 2.449-6.904 4.456-3.023 3.257-5.064 7.613-5.344 11.408a298.181 298.181 0 0 1-.243 3.115c-.146 1.649.383 6.002.954 7.854 1.704 5.524 5.78 10.324 16.102 18.963 6.521 5.458 9.3 8.074 11.562 10.887 4.71 5.855 7.03 11.636 7.06 17.594.015 3.137-.39 4.839-1.827 7.694-2.3 4.568-7.388 7.29-12.318 6.59-2.822-.4-3.039-.472-6.117-2.033-4.97-2.521-8.87-5.847-10.952-9.34-.13-.218-.296-1.766-.368-3.44l-.133-3.042-.992-.083-.992-.082v10.29c0 5.66.08 10.37.176 10.468.097.097.574.176 1.059.176h.882v-1.952zm36.11-14.914c.875-3.852.699-8.776-.446-12.485-1.294-4.192-4.16-8.524-8.411-12.716-1.403-1.383-5.282-4.735-8.619-7.45-11.993-9.753-15.912-14.307-17.496-20.333-.64-2.434-.571-6.896.149-9.6.722-2.715 2.397-5.885 3.874-7.335l1.189-1.167-1.022 2.503c-2.837 6.945-2.512 12.269 1.112 18.245 2.368 3.906 5.905 7.554 11.93 12.306 9.382 7.399 13.605 11.38 16.217 15.285 2.194 3.28 3.343 6.975 3.8 12.226.4 4.585-.03 7.597-1.496 10.49-.902 1.78-1.18 1.792-.78.031zm185.026 14.83.078-1.904 1.232.528c.677.29 2.405.877 3.84 1.303 7.611 2.261 14.837 2.544 20.085.786 4.204-1.409 6.825-3.297 9.542-6.872 1.646-2.167 3.929-6.813 4.878-9.929.68-2.23.726-2.698.735-7.408.012-6.16-.514-8.846-2.523-12.864-1.986-3.974-7.874-10.11-15.595-16.252-5.287-4.206-9.742-8.517-12.125-11.733-1.797-2.424-3.56-5.831-3.987-7.702-.68-2.988-.064-8.405 1.284-11.285.873-1.867 2.83-3.994 4.423-4.806 2.307-1.177 6.348-1.237 9.705-.144 2.95.96 6.978 4.424 10.338 8.888l1.483 1.97V440.021h2.116v-22.225h-2.116v6.764l-2.332-1.136c-1.283-.625-3.516-1.453-4.961-1.84-2.392-.642-3.082-.707-7.656-.725l-5.027-.02-2.877.996c-6.889 2.384-9.652 4.67-12.572 10.4-1.658 3.25-1.972 4.833-1.97 9.903.002 3.656.095 4.707.576 6.467 1.682 6.147 5.858 11.173 16.843 20.273 9.864 8.17 13.649 12.604 16.342 19.139 1.644 3.987 2.244 9.65 1.376 12.982-2.003 7.69-8.302 11.587-15.863 9.813-4.048-.95-10.759-5.42-13.497-8.99l-1.587-2.07-.133-3.208-.132-3.21-.992-.081-.992-.083v20.966l.992-.082.992-.082.077-1.904zm35.79-13.442c.002-.145.175-.979.386-1.852.515-2.131.502-7.286-.024-9.867-1.569-7.694-5.7-12.773-19.302-23.735-7.617-6.138-12.722-11.613-14.556-15.61-1.262-2.75-1.579-4.365-1.56-7.938.02-3.699.444-5.583 1.968-8.731.927-1.913 3.326-5.096 3.62-4.802.065.066-.17.696-.524 1.402-.353.706-.956 2.236-1.34 3.4-3.195 9.695.668 17.773 13.324 27.86l6.35 5.061c3.196 2.548 8.016 7.317 9.647 9.544 3.297 4.506 4.489 8.673 4.5 15.743.008 4.276-.028 4.596-.727 6.482-.665 1.794-1.772 3.704-1.763 3.043zm-156.899 3.039c6.863-15.822 7.13-16.424 7.99-17.988.441-.8.986-1.604 1.211-1.786.25-.201 1.218-.33 2.476-.33h2.066v-2.117H156.92v2.117h1.455c1.736 0 1.668-.362.923 4.877-.546 3.848-1.466 7.988-2.325 10.468l-.504 1.456-.547-1.191c-.3-.655-2.044-4.341-3.875-8.192s-3.33-7.096-3.33-7.21c0-.115.894-.208 1.985-.208h1.985v-2.124l-9.46.07-9.458.07-.082.98-.081.982 2.14.077 2.14.077 6.892 14.552c3.79 8.004 7.063 14.96 7.274 15.459.24.568.475.813.632.657.137-.137 2.288-4.95 4.78-10.696zm-7.353 1.525c-1.188-2.51-3.952-8.303-6.143-12.874-2.19-4.57-3.981-8.41-3.981-8.532 0-.355 2.29-.259 2.564.107.137.182 2.71 5.459 5.719 11.726l5.47 11.396-.58 1.37c-.318.754-.648 1.371-.733 1.371-.085 0-1.127-2.054-2.316-4.564zm249.953 8.6c-.086-1.309-.059-1.32 1.812-.692 2.688.902 5.29 1.218 9.012 1.096 2.636-.087 3.654-.233 4.833-.696 1.865-.732 3.724-2.345 4.737-4.11.71-1.239.776-1.57.778-3.9.003-3.037-.343-4.166-1.978-6.458-1.406-1.97-2.329-2.788-6.439-5.711-3.407-2.423-5.72-4.473-6.29-5.575-.481-.93-.475-2.687.013-3.63 1.09-2.109 4.535-1.47 7.774 1.442 2.214 1.99 2.954 3.247 2.954 5.014v1.49l.935-.083.934-.082v-5.82c0-3.202-.003-5.97-.009-6.152-.006-.2-.376-.331-.935-.331h-.927v1.34c0 1.218-.048 1.326-.525 1.174-3.169-1.005-5.4-1.45-7.28-1.448-7.616.005-12.18 3.962-11.698 10.145.187 2.404 1.045 4.624 2.366 6.125.572.65 3.13 2.64 5.686 4.424 5.569 3.887 6.689 5.114 6.689 7.327 0 1.635-.622 2.865-1.585 3.135-.365.103-1.319.183-2.12.18-1.904-.01-3.76-1.058-6.598-3.728l-2.108-1.983-.078-1.638-.079-1.638-.992-.082-.992-.082v11.674h1.078c1.012 0 1.075-.045 1.03-.728zm14.218-4.643c.124-1.648.06-2.093-.442-3.078-.968-1.897-2.767-3.565-7.195-6.67-4.382-3.074-5.407-4.017-6.33-5.825-1.073-2.106-.929-5.163.346-7.301.9-1.51 1.19-1.128 1.308 1.72.168 4.057 1.126 5.423 6.853 9.772 6.084 4.62 7.919 6.707 7.919 9.007 0 1.532-1.022 3.455-2.16 4.063-.404.217-.432.06-.3-1.688zm-292.13 4.573c2.577-.655 5.929-2.22 8.64-4.037l2.05-1.374v-2.056c0-1.96-.027-2.055-.6-2.055-.41 0-1.473.882-3.373 2.797-1.525 1.538-3.25 3.075-3.831 3.416-1.533.897-4.345 1.688-6.703 1.885-1.772.148-2.199.096-3.14-.384-2.389-1.22-2.994-2.945-3.184-9.081-.075-2.426-.055-4.956.045-5.623l.182-1.212h19.811v-1.432c0-3.607-1.432-7.87-3.225-9.598-.984-.949-3.6-2.301-6.564-3.395-2.633-.97-6.358-1.026-8.996-.133-3.485 1.179-7.069 4.07-8.949 7.22-1.708 2.862-2.233 4.911-2.366 9.235-.13 4.242.056 5.225 1.543 8.157 2.198 4.331 5.785 6.897 11.227 8.03 1.561.326 5.483.136 7.432-.36zm-16.397-8.54c-1.316-2.207-1.836-4.25-1.83-7.2.004-2.229.12-2.957.736-4.621.729-1.968 1.718-3.78 2.242-4.103.33-.204.332.135.008 1.713-.5 2.437-.81 9.804-.508 12.068.159 1.194.248 2.45.198 2.79-.08.547-.18.47-.846-.646zm6.641-13.611c.264-4.828 1.066-6.97 2.984-7.964 1.065-.551 1.44-.602 3.539-.478 2.906.172 4.875 1.023 5.88 2.541.774 1.17 1.228 3.665 1.112 6.116l-.08 1.698-6.773.07-6.774.071zm83.285 21.891c2.244-.707 5.272-2.247 7.715-3.923l1.81-1.243.078-2.048.077-2.048h-.69c-.532 0-1.305.641-3.36 2.788-2.212 2.31-2.99 2.939-4.546 3.672-2.168 1.021-3.588 1.4-6.151 1.638-1.628.15-1.979.095-3.146-.496-2.19-1.11-2.806-2.798-3.178-8.7-.098-1.55-.092-3.782.012-4.958l.19-2.14 9.96-.069 9.96-.07-.07-1.851c-.164-4.237-1.6-7.947-3.696-9.555-1.492-1.144-6.462-3.19-8.562-3.526-4.78-.762-9.751 1.15-13.432 5.168-2.808 3.064-4.202 6.706-4.445 11.617-.253 5.101 1.087 8.694 4.535 12.157 2.048 2.057 3.79 3.043 6.835 3.869 2.591.702 7.409.568 10.104-.282zm-17.59-8.371c-2.33-3.675-2.433-9.374-.244-13.59.819-1.578 1.496-2.542 1.66-2.363.057.062-.055 1.066-.25 2.23-.534 3.198-.744 9.42-.415 12.288.158 1.375.238 2.55.177 2.61-.061.062-.479-.467-.928-1.175zm6.695-13.922c.284-4.2 1.006-6.222 2.665-7.458.622-.463 1.118-.545 3.29-.543 3.109.003 4.637.51 5.964 1.979 1.198 1.325 1.487 2.443 1.488 5.758l.002 2.712h-13.573zm159.591 22.292c2.242-.705 5.27-2.244 7.714-3.922l1.811-1.243.078-2.048c.075-2.006.064-2.048-.557-2.048-.455 0-1.375.757-3.253 2.675-1.44 1.47-3.034 2.942-3.544 3.268-1.49.956-4.727 1.94-7.027 2.137-1.963.167-2.24.127-3.478-.5-1.508-.764-2.268-1.972-2.694-4.282-.364-1.975-.602-8.54-.365-10.045l.21-1.323 9.918-.132 9.919-.132-.083-2.117c-.103-2.648-.652-4.848-1.704-6.827-1.016-1.911-1.881-2.654-4.564-3.91-3.679-1.726-5.296-2.169-7.937-2.176-4.339-.01-7.491 1.358-10.85 4.71-2.324 2.322-3.68 4.66-4.526 7.806-.592 2.201-.665 7.746-.126 9.657a15.443 15.443 0 0 0 11.456 10.859c2.416.55 7.207.346 9.602-.407zm-17.478-8.18c-1.718-2.595-2.416-7.122-1.595-10.341.61-2.395 2.523-6.229 2.894-5.802.054.062-.058 1.125-.248 2.362-.554 3.593-.742 9.349-.397 12.14.169 1.364.252 2.536.185 2.603-.067.067-.445-.365-.84-.961zm6.593-14.13c.299-4.245.997-6.204 2.653-7.44.62-.463 1.119-.545 3.291-.545 3.106 0 4.634.507 5.965 1.98 1.198 1.326 1.487 2.444 1.488 5.759l.003 2.712H333.32l.174-2.466zm39.095 21.993c1.074-.515 2.784-1.547 3.8-2.294 1.015-.747 1.92-1.358 2.01-1.358.09 0 .38.48.645 1.067.691 1.533 2.219 2.802 3.994 3.318 2.038.593 5.578.423 7.304-.35 2.254-1.009 4.97-3.455 4.97-4.477 0-.187-.315-.546-.7-.798l-.7-.459-1.219 1.318c-2.195 2.375-3.628 3.077-4.444 2.177-.437-.483-.492-1.39-.636-10.62-.166-10.652-.323-12.223-1.462-14.635-2.374-5.026-9.426-6.502-19.917-4.166-1.688.376-3.151.762-3.251.859-.1.096-.266 1.512-.368 3.146-.237 3.774-.019 3.953 2.253 1.849 3.381-3.13 6.25-4.297 10.402-4.23 1.42.022 2.7.115 2.844.204.252.156.398 7.276.15 7.276-.064 0-.41-.112-.77-.249-2.514-.955-7.68-.83-10.584.256-2.842 1.064-6.616 5.33-7.876 8.904-1.461 4.145-.633 9.17 1.935 11.739 1.635 1.635 4.704 2.653 7.651 2.539 1.667-.065 2.355-.241 3.969-1.016zm-2.974-1.711c-.235-.063-.64-.583-.898-1.155-.42-.934-.453-1.659-.315-7.065.238-9.345.555-10.4 3.244-10.803 1.212-.182 4.515.22 5.968.727l.764.267v12.586l-2.05 2.116c-2.745 2.833-4.782 3.842-6.713 3.327zm12.017-1.214c-1.282-1.408-1.265-1.233-1.348-13.774-.076-11.37-.06-11.846.4-11.6 1.394.746 1.346.294 1.442 13.6.049 6.804.08 12.37.069 12.37-.011 0-.264-.268-.563-.596zm-19.646-.71c-2.004-2.815-1.906-8.208.211-11.659l.569-.926v6.68c0 3.675-.05 6.681-.113 6.681s-.363-.349-.668-.776zm-131.774 2.629v-1.059h-5.821l.015-8.665c.016-9.54-.07-8.961 1.837-12.501 1.296-2.409 4.533-5.65 6.005-6.013.878-.217 1.225-.194 1.654.106.536.376.543.559.543 14.785v14.405h14.949l-.01-.992-.008-.992-2.943-.075-2.943-.075-.099-11.831-.099-11.832-.679-1.629c-1.085-2.602-2.527-4.046-4.632-4.637-1.442-.405-4.544-.401-5.717.008-1.804.628-4.022 2.528-5.922 5.073l-1.82 2.438-.073-3.603-.074-3.603H209.57v2.098l2.712.076 2.712.075.069 13.692.068 13.692h-5.56v2.117h20.637v-1.058zm-13.166-14.751.069-13.692 1.256-.08 1.257-.081v27.545h-2.65zm19.19 0c-.04-7.53-.041-13.742-.004-13.803.17-.283 1.517 1.291 2.019 2.36.54 1.148.562 1.616.64 13.163l.081 11.972h-2.666l-.07-13.692zM101.256 365.531c1.292-.224 3.087-.75 3.988-1.17 1.414-.658 1.73-.943 2.302-2.072 3.44-6.787-.761-14.153-11.67-20.463-2.297-1.329-7.24-3.67-7.75-3.67-.317 0-.337-.532-.038-1.004.493-.777 10.785-1.133 16.84-.583 12.616 1.148 27.1 4.847 39.46 10.077 8.232 3.484 13.166 5.46 17.029 6.821 11.69 4.118 23.387 6.848 33.146 7.737 8.164.743 16.35-1.023 19.917-4.3 4.205-3.86 2.982-9.272-3.134-13.869-4.389-3.299-14.016-6.83-23.815-8.737-2.1-.408-2.32-.507-2.249-1.01.077-.539.23-.558 5.107-.64 14.132-.24 30.721 2.346 50.006 7.796 7.807 2.206 14.116 4.474 20.424 7.341 13.29 6.042 22.214 9.628 28.368 11.399 12.776 3.677 27.067 4.497 32.454 1.861 1.076-.526 1.507-.943 2.118-2.051.69-1.25.768-1.631.76-3.772-.007-1.92-.13-2.663-.642-3.836-.909-2.086-2.505-4.368-4.214-6.023-4.554-4.413-13.768-8.535-26.153-11.702-.813-.208-1.124-.423-1.124-.776 0-.685.477-.766 6.638-1.126 13.667-.799 28.889 1.422 44.145 6.44 11.892 3.912 24.75 9.763 36.265 16.504 14.262 8.35 25.03 11.659 32.668 10.041 2.232-.473 5.251-1.87 6.424-2.973l.86-.808V-84.12H57.7v441.523l5.623 1.87c7.72 2.567 11.863 3.714 18.454 5.11 6.912 1.465 14.917 1.936 19.479 1.147zm206.475-6.33c-7.292-1.06-17.383-3.783-26.94-7.269-2.74-1-10.807-4.141-17.926-6.981-21.054-8.399-27.368-10.547-36.293-12.346-17.282-3.485-34.637-3.857-43.358-.929-2.617.879-4.594 1.891-4.07 2.084.218.08 2.897.966 5.953 1.968 10.965 3.596 19.502 7.313 23.195 10.102 2.72 2.053 4.17 4.644 3.775 6.749-.37 1.97-2.28 4.018-4.68 5.016-4.338 1.804-12.972 1.902-22.98.26-5.721-.94-17.622-4.009-18.166-4.686-.145-.18-.276-.945-.29-1.7-.066-3.502-1.86-8.445-6.368-17.551-3.372-6.812-5.56-9.493-9.228-11.306-1.97-.973-2.065-.992-5.064-.992-3.36 0-4.543.287-7.767 1.885-.99.491-1.898.893-2.016.893-.12 0-.365-.565-.548-1.257-2.027-7.688-5.048-15.68-7.35-19.442-2.68-4.383-8.04-9.593-14.613-14.207-1.527-1.072-2.871-2.032-2.986-2.133-.115-.1.08-.982.434-1.957l.644-1.775-.567-.346c-.311-.19-2.353-1.3-4.535-2.463-41.495-22.13-45.46-24.269-45.559-24.58-.356-1.133.663-.8 18.328 5.99a8505.001 8505.001 0 0 1 20.22 7.788 1885.4 1885.4 0 0 0 9.656 3.714 4984.725 4984.725 0 0 1 15.491 5.958c11.026 4.265 15.835 6.08 16.106 6.08.126 0 1.446-2.767 2.934-6.15 1.487-3.384 2.78-6.236 2.873-6.338.125-.138 10.669 2.762 15.16 4.17.498.156.525-.044 1.017-7.424.602-9.028 1.94-20.231 3.475-29.104.453-2.62.838-4.941.856-5.16.026-.321-.794-.48-4.333-.841-19.533-1.99-40.791-.71-60.228 3.628-8.344 1.862-19.223 5.085-26.02 7.71-2.819 1.087-3.061 1.139-3.371.715-.29-.397-.119-.685 1.307-2.196 5.987-6.346 29.09-29.857 48.117-48.967 43.449-43.638 86.224-83.492 105.214-98.029l2.42-1.852.014-1.272c.017-1.449.12-1.463-2.234.32-14.68 11.12-42.366 33.623-61.233 49.768-6.788 5.809-6.318 5.467-6.484 4.712-.216-.983-.907-6.179-1.26-9.475-.44-4.108-.438-18.046.003-22.092 1.994-18.284 7.985-34.271 17.98-47.981 8.069-11.068 16.75-18.598 27.976-24.267 8.522-4.303 15.881-6.208 23.938-6.196 4.826.006 10.24.977 12.798 2.293l.753.387-1.855 1.899c-2.345 2.4-2.863 3.037-4.406 5.427-3.221 4.99-5.384 11.562-6.37 19.358-.37 2.919-.423 4.829-.294 10.45.087 3.784.257 7.356.377 7.938.194.933.258.683.543-2.117.646-6.335 1.62-10.945 3.505-16.585 3.414-10.217 9.293-20.238 17.223-29.359l1.234-1.418.826-6.746c3.552-28.983 3.591-29.319 3.404-29.506-.08-.079-1.142-.55-2.362-1.045-5.671-2.306-10.796-3.174-14.38-2.436-3.551.73-14.207.204-15.703-.776l-.637-.418 1.022-.834c1.498-1.224 5.504-4.807 7.63-6.826l1.85-1.758-.444-.931c-.244-.513-1.505-2.168-2.802-3.68-3.55-4.135-5.213-6.68-5.709-8.74-.204-.846-.062-.87 2.745-.475 2.41.34 15.953 1.537 21.03 1.86 4.579.29 9.058.306 10.324.036.747-.16.806-.267 1.016-1.83.183-1.36.303-1.64.662-1.543.24.066.873.193 1.404.282.53.09 1.098.322 1.26.518.22.264-.01 3.19-.902 11.436-1.213 11.228-1.993 18.48-3.197 29.734-.365 3.42-.957 8.876-1.314 12.126-.357 3.25-.65 6.067-.65 6.262 0 .462.182.478 18.918 1.714 8.586.566 20.577 1.36 26.647 1.762 6.07.404 11.112.658 11.205.565.156-.156.723-10.68 1.463-27.192.172-3.856.348-7.052.389-7.1.041-.05.743.059 1.56.242l1.483.332-.16 2.932c-.462 8.542-1.394 30.984-1.29 31.088.097.097 8.04.733 9.989.8.452.016.447.065-.079.744-4.351 5.622-6.376 9.958-8.317 17.81-.997 4.035-1.882 9.643-2.148 13.61-.087 1.31-.217 2.679-.289 3.042-.097.498.432.06 2.134-1.764 1.245-1.334 3.03-3.035 3.965-3.78 4.947-3.936 13.733-6.096 24.797-6.097h3.616l.155-1.919c.085-1.055.335-6.383.556-11.84.22-5.457.518-12.28.661-15.162.143-2.882.26-5.762.26-6.4v-1.16l1.257-.162c.691-.09 1.538-.222 1.883-.294l.625-.13-.173 3.65c-.602 12.656-1.457 33.523-1.377 33.603.052.052 1.689.272 3.637.488 10.41 1.153 23.718 4.208 27.354 6.278 1.213.69 1.545 1.63.674 1.907-.87.276-4.537 3.108-5.773 4.458-3.07 3.355-5.299 8.173-6.334 13.696-.65 3.468-.642 12.88.016 17.172 1.194 7.803 3.192 15.051 6.065 22.005.221.535.212.804-.04 1.106-.285.345-.757.077-3.437-1.95-4.303-3.256-7.912-5.485-12.867-7.95-4.107-2.044-11.156-4.83-11.57-4.575-.112.07-.204.998-.204 2.063v1.936l2.58.596c9.792 2.262 22.764 8.797 28.432 14.324 2.057 2.007 2.03 2.356-.32 4.29-3.095 2.546-6.631 7.097-8.677 11.167-1.223 2.432-2.617 6.663-3.29 9.977-.528 2.61-.6 3.74-.593 9.32.007 5.417.097 6.856.614 9.79 1.165 6.612 3.439 14.561 4.23 14.792.242.07 2.434.512 4.871.98 2.438.468 4.432.939 4.432 1.045 0 .107-1.019 1.307-2.263 2.669-4.551 4.976-8.037 10.028-10.927 15.836-2.959 5.948-4.78 11.62-5.776 17.992-.66 4.212-.656 13.453.006 17.727 1.679 10.847 5.55 21.544 11.493 31.75 1.508 2.59 4.963 7.782 6.023 9.052.33.395.643.85.697 1.01.078.234 4.383 1.024 5.698 1.045.5.008.933 1.04.746 1.783-.197.787-2.601 3.378-4.422 4.767-1.195.91-1.275 1.048-1.274 2.175 0 1.43.454 4.3 1.86 11.785 2.366 12.603 3.031 18.54 2.838 25.333-.147 5.167-.576 7.488-1.93 10.444-1.007 2.199-2.814 4.165-4.639 5.047-1.812.876-2.339.767-4.794-.992-5.9-4.227-16.872-10.089-24.43-13.055-11.095-4.352-23.724-7.236-38.095-8.7-8.204-.835-31.476-.047-32.763 1.11-.12.108 2.141 1.122 5.027 2.253 13.95 5.467 21.239 8.95 25.79 12.322 3.638 2.698 5.818 6.06 5.985 9.233.114 2.17-.412 3.106-2.223 3.96-1.633.769-5.693.95-9.356.417zm27.918-66.2 5.358-3.086.157-2.536c.087-1.395.234-4.462.329-6.817l.171-4.28-1.025-.265c-5.614-1.449-12.097-2.24-18.488-2.254-7.064-.017-10.792.617-14.848 2.523l-1.159.545V280.676l.827.165c.455.091 2.121.165 3.704.165h2.877l.018 1.125c.104 6.463.45 12.168.75 12.353.186.115 2.203.361 4.482.547 2.278.185 5.512.484 7.186.664 1.673.18 3.326.341 3.672.36.367.019 2.872-1.258 5.988-3.054zm43.702-3.423c-2.574-1.396-14.871-6.297-21.481-8.562-4.84-1.658-11.583-3.714-12.185-3.714-.236 0-.377.885-.493 3.11-.09 1.709-.22 4.03-.289 5.158-.069 1.128-.057 2.051.026 2.051.084 0 .886-.432 1.784-.96l1.632-.961 11.112 1.515c6.112.833 12.958 1.788 15.214 2.122 2.255.334 4.399.615 4.762.625l.662.02-.744-.404zM232.6 283.123c.914-1.819 1.689-3.344 1.722-3.388.034-.045 1.95.277 4.258.715 21.04 3.989 39.181 6.294 45.129 5.733l2.039-.192 2.036-2.559a227.425 227.425 0 0 1 2.242-2.791c.114-.129 1.317-.218 2.673-.199 1.643.024 2.328-.047 2.053-.213-.714-.433-8.63-3.317-14.456-5.267-13.176-4.41-25.307-7.517-37.289-9.552-4.27-.725-10.774-1.598-10.908-1.464-.112.112-2.403 20.999-2.414 22.002-.006.55.72.973 1.087.635.091-.084.914-1.64 1.828-3.46zm-40.888-3.147 3.671-5.265 10.732 3.648c5.903 2.007 11.843 4.029 13.2 4.494 1.358.465 2.505.805 2.55.756.044-.049.281-1.815.528-3.926.246-2.11.793-6.627 1.216-10.037.422-3.41.7-6.268.62-6.35-.294-.294-14.875-.314-18.759-.026-14.402 1.07-27.334 4.716-36.676 10.342-2.693 1.622-5.79 3.869-5.79 4.2 0 .093 1.578.614 3.506 1.158 3.1.875 21.47 6.216 21.515 6.255.009.008 1.668-2.354 3.687-5.25zm102.4-57.707c1.143-10.286 3.916-20.684 7.248-27.173l1.25-2.434-1.38-4.18c-1.69-5.112-2.9-10.403-3.484-15.227-.242-2-.524-3.548-.626-3.44-.33.353-1.814 5.9-2.598 9.713-2.117 10.29-2.807 18.882-2.584 32.158.132 7.855.563 15.194 1.15 19.579.178 1.324.213 1.158.397-1.852.11-1.82.393-5.034.627-7.144zm-122.254-8.731c7.866-27.937 21.33-54.639 36.886-73.158 2.979-3.545 8.695-9.313 10.352-10.444 4.599-3.14 11.985-5.646 19.58-6.644 1.382-.182 2.588-.4 2.681-.484.093-.085.25-.84.35-1.676.22-1.85.23-1.847-3.236-.76l-2.427.76-1.041-2.679c-2.272-5.846-3.823-11.69-4.677-17.628-.24-1.673-.474-3.082-.52-3.13-.162-.174-7.59 9.427-12.862 16.624-14.742 20.125-27.715 41.336-35.277 57.68-7.381 15.95-11.023 28.506-11.438 39.437-.134 3.54.023 6.854.311 6.558.049-.05.641-2.055 1.318-4.456zm134.057-23.434c.65-.337.758-.549.758-1.498v-1.105l-1.079 1.046c-1.062 1.03-2.89 3.344-2.89 3.66 0 .088.552-.26 1.226-.775.674-.515 1.567-1.112 1.985-1.328zm60.025.309c0-.059-.447-.375-.992-.703-5.86-3.521-14.983-7.912-15.46-7.439-.098.098-.21 1.484-.248 3.08l-.069 2.904 4.482.584c2.465.322 5.91.816 7.657 1.099 3.226.522 4.63.666 4.63.475zm-52.613-2.663c5.527-1.057 18.327-1.192 27.874-.294 2.183.205 4.044.294 4.135.197.092-.097.228-1.685.302-3.529l.136-3.352-2.022-.543c-11.754-3.156-22.752-2.154-31.125 2.834l-2.117 1.26-.15 1.842c-.171 2.101-.117 2.316.528 2.11.257-.08 1.355-.317 2.44-.525zm2.251-59.44c.778-.6 1.414-1.177 1.414-1.282 0-.17-3.744-1.381-3.872-1.252-.029.029-.085.757-.125 1.619-.071 1.535.08 1.817 1.062 1.987.06.01.744-.473 1.521-1.072zm-5.994-1.77v-1.8l-4.565-1.114c-12.341-3.012-23.077-4.808-33.535-5.613-7.24-.557-22.85-.218-23.619.514-.112.106-.297.974-.412 1.929l-.209 1.736 10.202.138c15.162.206 28.357 1.621 46.052 4.94 2.983.56 5.573 1.03 5.755 1.045.235.019.33-.495.33-1.774zm14.201-3.722c1.336-.752 3.818-1.963 5.516-2.692 5.46-2.343 8.933-2.998 15.137-2.856l3.972.092.17-2.223c.094-1.222.127-2.266.073-2.32-.168-.169-6.28-1.357-8.585-1.67-3.843-.521-10.031-.748-14.016-.513-4.81.284-8.002.736-8 1.134.004.752 1.789 12.2 2 12.83.1.299.22.294.713-.027.326-.213 1.685-1.003 3.02-1.755z" transform="translate(99.33 124.6)"/>
</svg>