<svg xmlns="http://www.w3.org/2000/svg" xml:space="preserve" viewBox="0 0 1200 218">
  <g class="currentLayer">
    <g stroke-width="0" fill="currentColor">
      <path style="fill-rule:nonzero;stroke:none" d="M1155.423 80.613c0 8.012-3.44 12.308-12.602 12.316l-9.152-.008V40.525l9.172-.018c9.142.018 12.582 4.312 12.582 12.328zm-117.766 86.425c0 7.174-1.986 13.455-9.992 13.455-8.016-.007-10.022-6.293-10.022-13.443V49.688c0-7.146 2.006-13.467 10.022-13.428 8.006-.012 9.992 6.282 9.992 13.428zm-93.043-85.564c0 8.012-3.416 12.304-12.579 12.304h-9.15V41.394h9.15c9.163 0 12.586 4.286 12.58 12.32zm-117.756 86.425c.02 7.143-1.989 13.455-10.02 13.455-7.971.008-9.999-6.293-9.987-13.455l-.023-117.342c0-7.147 2.039-13.44 10.01-13.44 8.031-.008 10.032 6.286 10.04 13.44zm-345.67.008c.016 7.135-2.018 13.447-10.018 13.447-7.996 0-10.012-6.312-10.012-13.435V50.557c0-7.147 2.016-13.44 10.012-13.44 7.992 0 10.034 6.293 10.034 13.44zM1151.698 6.191h-68.96v21.246c-8.173-15.076-24.304-25.55-55.072-25.55-25.293.01-40.686 7.057-49.905 17.933-8.308-8.598-20.849-12.748-36.852-12.748h-68.974v21.222C863.78 13.2 847.598 2.774 816.86 2.774c-21.899 0-36.39 5.282-45.867 13.795l2.78-9.497h-49.234l-12.887 80.974h-.549l-15.17-80.974-38.573-.02-10.68.02-39.395-.02-23.763 80.144h-.541V7.052l-50.956.02v37.836c-4.679-23.513-19.697-42.134-60.854-42.134-22.354 0-37 5.503-46.446 14.336V7.052l-115.065.02v41.206l31.195-.008-.008 163.141 52.651-.012V48.28l16.235-.009c-.895 5.734-1.223 11.707-1.243 17.742v86.413c0 32.346 9.73 63.28 62.68 63.29 41.134 0 56.176-18.647 60.855-42.179V211.4h50.925v-89.86h.586l22.031 89.872h56.106L626.449 97.786l25.185-73.9 33.126 113.107V211.4l50.924.012v-74.41l18.513-63.114.02 78.557c-.027 32.354 9.71 63.26 62.622 63.272 30.771 0 46.941-10.463 55.095-25.551v21.234h50.951v-83.255l22.88-.03c7.528.03 13.868-1.093 19.215-3.05v26.523c-.012 32.343 9.741 63.249 62.685 63.249 30.758 0 46.908-10.463 55.072-25.548v21.262h50.912v-83.286l22.92-.02c32.597.02 43.479-19.728 43.489-49.217V52.835c-.01-31.749-17.989-46.644-48.362-46.644"/>
      <path style="fill-rule:nonzero;stroke:none" d="M1171.84 188.15c-12.148 0-22.022-9.877-22.022-22.027 0-12.192 9.874-22.045 22.021-22.045 12.167 0 22.061 9.853 22.061 22.045 0 12.15-9.894 22.026-22.06 22.026zm0-49.574c-15.202 0-27.507 12.324-27.507 27.547 0 15.212 12.305 27.536 27.506 27.536 15.221 0 27.556-12.324 27.556-27.536 0-15.223-12.335-27.547-27.556-27.547"/>
      <path style="fill-rule:nonzero;stroke:none" d="M1167.906 164.336h2.757c3.549 0 5.624-1.765 5.624-4.487 0-2.837-1.957-4.297-5.209-4.297-1.7 0-2.629.062-3.172.213zm-6.968-13.378c2.263-.425 5.584-.695 9.38-.695 4.635 0 7.867.695 10.1 2.49 1.888 1.487 2.916 3.66 2.916 6.525 0 3.938-2.846 6.68-5.535 7.645v.127c2.205.869 3.38 2.923 4.191 5.791.959 3.56 1.868 7.633 2.481 8.83h-7.205c-.475-.869-1.256-3.436-2.125-7.247-.87-3.946-2.234-4.953-5.15-5.011h-2.085v12.258h-6.968v-30.713M265.147 74.505 222.67 42.313c-1.17-.86-2.811-.61-3.648.549-.881 1.162-.611 2.8.54 3.668l42.469 32.203c1.166.85 2.819.598 3.668-.56a2.624 2.624 0 0 0-.552-3.668M258.48 88.095c-2.491-8.01-9.962-13.86-18.803-13.86-10.86 0-19.663 8.822-19.663 19.67 0 10.869 8.802 19.672 19.663 19.672 9.035 0 16.621-6.1 18.926-14.401l-18.752-6.08 18.629-5"/>
      <path style="fill-rule:nonzero;stroke:none" d="m256.807 142.263-55.256.077a2.623 2.623 0 0 0-2.586 2.645 2.63 2.63 0 0 0 2.651 2.587l49.605-.058c-11.196 9.285-25.578 14.884-41.265 14.884-26.119 0-48.616-15.482-58.82-37.76 6.517-6.91 10.54-16.215 10.54-26.465 0-10.406-4.138-19.826-10.838-26.776 10.078-22.624 32.74-38.408 59.118-38.408 35.732 0 64.7 28.968 64.7 64.7 0 17.278-6.787 32.992-17.849 44.574zm-133.554-10.752c-18.328 0-33.18-14.845-33.18-33.165s14.852-33.184 33.18-33.184c18.32 0 33.165 14.864 33.165 33.184 0 18.32-14.846 33.165-33.165 33.165zm37.439-88.669-10.51 11.162L137.7 39.553l9.517-11.166zM87.776 26.75s36.461-22.987 47.299-21.679c10.841 1.313 25.617 6.24 25.617 6.24s-22.336 13.143-31.86 29.234c0 0-9.205-13.466-41.056-13.795zm86.042-12.158 8.217 6.572 14.795-10.837 7.21 8.54 19.055-1.313-20.687 10.51-7.239-7.228-10.83 7.88-10.837-5.255-11.826 6.57zM46.418 53.62l-11.455-4.614c1.205-1.503 2.907-2.592 4.973-2.592 3.629 0 6.571 2.959 6.571 6.548 0 .233-.062.445-.089.658zm-6.482 5.926a6.566 6.566 0 0 1-6.568-6.584c0-.211.062-.424.09-.656l11.458 4.633c-1.197 1.506-2.9 2.607-4.98 2.607zm-18.03-15.807-3.915-1.579c-.247-2.914-2.622-5.235-5.595-5.235-3.135 0-5.679 2.552-5.679 5.69 0 3.136 2.544 5.695 5.68 5.695 1.972 0 3.544-1.135 4.559-2.648l2.93 1.181c-1.88 1.989-4.474 3.282-7.42 3.282-5.707 0-10.34-4.617-10.34-10.332 0-5.71 4.633-10.34 10.34-10.34 5.71 0 10.343 4.63 10.343 10.34 0 1.417-.374 2.722-.903 3.946zM199.446 2.72a84.705 84.705 0 0 0-31.96 6.244c-1.725-.8-27.322-12.594-41.29-7.834-23.904 8.154-56.817 33.497-56.817 33.497s36.79-10.51 56.499 10.192l.194.216a84.678 84.678 0 0 0-6.981 15.417c-9.71 1.003-18.261 5.733-24.432 12.625l-46.164-18.63c.097-.482.236-.964.236-1.486 0-4.825-3.934-8.775-8.795-8.775-3.027 0-5.61 1.595-7.181 3.93l-8.88-3.587c.625-1.466 1.054-3.038 1.054-4.737 0-6.884-5.583-12.47-12.463-12.47-6.888 0-12.467 5.586-12.467 12.47 0 6.88 5.58 12.456 12.467 12.456 3.86 0 7.239-1.815 9.517-4.56l9.405 3.788c-.1.482-.24.964-.24 1.485 0 4.865 3.942 8.804 8.788 8.804 3.034 0 5.621-1.602 7.193-3.939l45.094 18.185c-4.617 6.332-7.405 14.073-7.405 22.509 0 21.119 17.13 38.242 38.26 38.242 2.376 0 4.673-.251 6.913-.657 15.334 21.872 40.72 36.196 69.456 36.196 46.832 0 84.784-37.972 84.784-84.804 0-46.816-37.952-84.777-84.784-84.777"/>
      <path style="fill-rule:nonzero;stroke:none" d="M131.13 111.164c-6.75 0-12.224-5.483-12.224-12.24 0-6.756 5.475-12.219 12.223-12.219a12.21 12.21 0 0 1 12.22 12.22c0 6.756-5.463 12.239-12.22 12.239zm0-26.968c-8.14 0-14.734 6.602-14.734 14.729 0 8.147 6.595 14.73 14.733 14.73 8.146 0 14.737-6.583 14.737-14.73 0-8.127-6.59-14.729-14.737-14.729"/>
      <path style="fill-rule:nonzero;stroke:none" d="M129.333 117.63c-10.597 0-19.191-8.59-19.191-19.206 0-10.58 8.594-19.17 19.191-19.17 10.587 0 19.178 8.59 19.178 19.17 0 10.617-8.591 19.207-19.178 19.207zm0-42.314c-12.79 0-23.142 10.347-23.142 23.108 0 12.798 10.352 23.145 23.142 23.145 12.761 0 23.127-10.347 23.127-23.145 0-12.761-10.366-23.108-23.127-23.108M84.393 210.233c-3.258 0-5.903-2.644-5.903-5.887a5.906 5.906 0 0 1 5.903-5.907 5.897 5.897 0 0 1 5.896 5.907 5.893 5.893 0 0 1-5.896 5.887M308.323 198.863a5.406 5.406 0 0 0-5.417 5.405 5.422 5.422 0 0 0 5.417 5.425c2.98 0 5.425-2.432 5.425-5.425 0-2.992-2.444-5.405-5.425-5.405M196.984 192.28c-53.056 0-96.07 5.657-96.07 12.645 0 6.988 43.014 12.663 96.07 12.663 53.048 0 96.07-5.675 96.07-12.663s-43.022-12.644-96.07-12.644"/>
    </g>
  </g>
</svg>