<svg xmlns="http://www.w3.org/2000/svg" viewBox="0 0 923.077 176.326">
  <path d="M482.802 0h440.275v5.666H482.802Zm0 170.661h440.275v5.665H482.802Zm-337.638 4.83c-30.501-3.629-59.849-16-84.109-35.457-7.44-5.966-18.614-17.217-24.904-25.076C19.316 93.925 8.289 70.322 3.038 44.082.777 32.786 0 24.468 0 11.527L0 0h56.6l.298 11.02c.333 12.236 1.138 18.471 3.646 28.248 7.869 30.667 29.126 58.15 55.106 71.247l3.926 1.98V0h56.243v176.325l-12.288-.056c-7.093-.03-14.857-.36-18.367-.778Zm58.015-87.33V0h54.215v176.325h-54.215Zm76.509 82.21c.01-24.862 5.663-47.899 17.39-70.81 9.334-18.232 21.816-33.153 35.775-42.757l3.763-2.59h-53.382V0h165.18v56.092l-6.97.308c-18.375.814-38.029 8.52-55.595 21.79-8.228 6.218-18.23 17.2-23.495 25.809-3.602 5.883-8.183 15.746-8.183 17.617 0 .317 16.778.494 47.121.494h47.121v54.215H279.687Zm223.114-36.823V45.654h16.448l26.745 41.561 26.745-41.561h16.45v87.894h-15.318V70.516l-27.75 41.435h-.502L518.12 70.767v62.78zM610.52 45.654h65.04V59.59h-49.722v22.602h44.071V96.13h-44.071v23.48h50.35v13.937h-65.669zm82.392 0h32.052c6.71 0 12.873 1.11 18.48 3.327 5.607 2.22 10.439 5.295 14.49 9.23 4.053 3.935 7.184 8.559 9.396 13.874 2.209 5.317 3.316 11.07 3.316 17.265v.25c0 6.196-1.107 11.973-3.316 17.327-2.212 5.36-5.343 10.005-9.395 13.938-4.053 3.936-8.884 7.031-14.49 9.291-5.607 2.26-11.77 3.391-18.481 3.391h-32.052zm31.929 73.957c4.501 0 8.595-.735 12.28-2.206 3.682-1.472 6.815-3.53 9.395-6.178 2.578-2.648 4.581-5.802 6.016-9.459 1.432-3.656 2.15-7.627 2.15-11.914V89.6c0-4.287-.718-8.279-2.15-11.977-1.435-3.698-3.439-6.87-6.016-9.52-2.58-2.648-5.713-4.727-9.396-6.242-3.684-1.513-7.778-2.27-12.28-2.27h-16.944v60.02h16.945zm63.446-73.957h15.319v87.893h-15.319zm65.748-.628h14.314l38.673 88.52H890.7l-8.914-21.219h-41.562l-9.04 21.22h-15.822zm22.1 53.615-15.193-35.157-15.068 35.157z" fill="#ed1f24"/>
</svg>