<svg xmlns="http://www.w3.org/2000/svg" viewBox="0 0 448.413 176.325">
  <path d="M145.164 175.49c-30.501-3.628-59.849-15.999-84.109-35.456-7.44-5.966-18.614-17.217-24.904-25.076C19.316 93.925 8.289 70.322 3.038 44.082.777 32.786 0 24.468 0 11.527L0 0h56.6l.298 11.02c.333 12.236 1.138 18.471 3.646 28.248 7.869 30.667 29.126 58.15 55.106 71.247l3.926 1.98V0h56.243v176.325l-12.288-.056c-7.093-.03-14.857-.36-18.367-.778Zm58.015-87.33V0h54.215v176.325h-54.215Zm76.509 82.21c.01-24.86 5.663-47.898 17.39-70.809 9.334-18.232 21.816-33.153 35.775-42.757l3.763-2.59h-53.382V0h165.18v56.092l-6.97.308c-18.375.814-38.029 8.52-55.595 21.79-8.228 6.218-18.23 17.2-23.495 25.809-3.602 5.883-8.183 15.746-8.183 17.617 0 .317 16.778.494 47.121.494h47.121v54.215H279.687Z" fill="#ed1f24"/>
</svg>