<svg xmlns="http://www.w3.org/2000/svg" viewBox="0 0 760.801 556.395">
  <path style="fill:currentColor;stroke-width:.264583" d="M41.503 236.245c-8.37-1.313-13.044-5.022-15.472-12.276-2.062-6.164 1.038-12.124 8.032-15.444 6.2-2.941 8.717-2.568 19.364 2.876 8.553 4.373 11.796 5.28 18.768 5.253 6.914-.028 13.938-1.896 18.303-4.868 6.12-4.167 16.114-13.85 22.505-21.805 2.87-3.572 8.313-11.575 10.528-15.478 4.927-8.685 10.17-20.96 12.025-28.15 2.038-7.905 2.212-15.939.494-22.782-1.186-4.722-3.829-10.37-6.279-13.415-4.537-5.64-13.54-11.298-24.238-15.233-5.183-1.905-8.534-2.54-15.743-2.984-4.356-.268-6.35-.593-6.35-1.033 0-.128-.072-.421-.16-.651-.147-.381 5.723-.419 65.37-.419 62.269 0 65.529.023 65.447.463-.145.777-1.761 1.388-3.67 1.389-3.657 0-13.993.841-16.441 1.337-10.497 2.125-20.445 9.032-29.13 20.227-4.365 5.626-5.901 8.316-14.437 25.268-4.58 9.095-9.813 19.096-11.63 22.225-14.591 25.114-23.337 37.35-35.09 49.093-5.737 5.73-10.428 9.659-15.976 13.377-7.994 5.357-21.267 10.398-32.726 12.427-3.079.546-11.47.92-13.494.603zm45.285-57.65c-7.44-1.402-14.069-5.548-17.759-11.107-2.052-3.091-3.802-8.19-4.246-12.366l-.19-1.786h-1.014c-3.62 0-12.12-4.369-19.892-10.226-3.728-2.809-5.82-4.88-11.448-11.337-2.663-3.056-5.438-6.007-6.165-6.558-3.35-2.538-5.605-7.282-5.605-11.789v-1.865l-1.895-.996c-5.393-2.834-7.352-8.003-4.392-11.593 2.164-2.626 8.501-5.697 15.326-7.427 12.456-3.157 26.382-3.197 37.115-.105 15.374 4.428 30.12 13.85 39.783 25.417 5.875 7.033 10.683 16.486 12.219 24.022.99 4.86.623 11.072-.951 16.073-.83 2.64-3.337 7.867-5.018 10.468-2.467 3.818-6.591 7.418-10.556 9.215-3.97 1.801-5.553 2.177-9.532 2.267-2.485.056-4.387-.046-5.78-.308zm9.352-8.98c3.634-1.347 6.978-3.943 9.504-7.38 1.606-2.184 3.62-6.54 4.441-9.603.639-2.384.7-3.05.719-7.895.02-5.115-.004-5.366-.722-7.54-1.075-3.257-3.1-7.239-4.865-9.568-10.814-14.265-28.169-25.1-47.97-29.95-4.57-1.118-9.977-1.758-14.843-1.755-4.21.002-6.168.284-9.367 1.349-4.91 1.634-7.54 3.356-7.54 4.936 0 2.132 4.195 5.177 9.921 7.202 4.274 1.512 13.855 3.66 19.05 4.271 4.948.583 13.133.802 16.14.433l1.587-.195-.794.673c-3.038 2.576-8.747 3.905-16.8 3.911-4.86.004-5.533-.06-11.567-1.097-6.545-1.124-10.86-1.583-12.061-1.282-1.434.36-1.592 3.2-.248 4.46 2.393 2.243 8.477 5.434 13.461 7.059 4.693 1.53 11.423 2.673 15.734 2.673.712 0 1.295.115 1.295.256 0 .522-1.648 2.108-2.741 2.637-1.417.686-2.892.69-5.594.013-1.164-.292-3.188-.595-4.497-.675-2.763-.168-3.466.08-4.16 1.464-.567 1.13-.777.873 4.196 5.153 9.37 8.068 13.111 10.215 15.622 8.968.903-.448 1.045-.684 1.83-3.049 1.272-3.83 2.324-5.614 4.733-8.028 3.53-3.54 7.317-5.14 12.18-5.147 5.236-.01 10.334 2.478 13.883 6.773 2.208 2.672 3.607 6.993 3.372 10.414-.404 5.893-5.16 11.281-11.362 12.875-3.106.798-7.386.086-9.591-1.597-2.072-1.58-2.897-5.291-1.718-7.727 1.094-2.26 3.905-4.2 6.535-4.512 1.012-.12 1.68.015 3.428.689 2.89 1.115 3.758 1.234 4.931.677 1.29-.612 2.366-2.766 2.366-4.739 0-3.6-3.63-6.87-8.37-7.54-5.332-.756-10.408 2.087-12.844 7.193-2.595 5.437-2.709 10.474-.347 15.375 2.376 4.933 6.586 8.433 12.187 10.132 1.767.536 2.456.602 5.462.521 2.97-.08 3.71-.193 5.424-.828z" transform="matrix(3.77953 0 0 3.77953 -48.388 -336.94)"/>
</svg>