<svg xmlns="http://www.w3.org/2000/svg" viewBox="0 0 785.918 569.426">
  <path style="fill:currentColor;stroke-width:.264583" d="M170.09 239.369c-1.368-.65-2.064-1.427-2.88-3.219-3.345-7.34 1.496-19.79 9.093-23.391 1.49-.706 2.02-.818 3.889-.818 2.407 0 3.135.34 4.253 1.982.93 1.368.841 3.923-.21 6.028-1.5 3-5.431 5.914-10.68 7.917l-2.598.991.113 2.166c.206 3.912 1.766 5.799 4.62 5.585 1.573-.118 3.76-1.412 6.136-3.632 1.347-1.26 1.891-1.455 1.891-.68 0 .192-1.16 1.533-2.58 2.978-3.222 3.284-5.228 4.4-8.125 4.519-1.402.057-2.124-.048-2.921-.426zm4.101-13.687c2.713-1.3 4.54-2.924 5.539-4.924 1.073-2.148 1.123-3.903.132-4.683-.96-.755-2.705-.967-3.887-.473-.526.22-1.306.882-1.733 1.472-.887 1.224-1.989 4.493-2.529 7.501-.445 2.482-.417 2.495 2.478 1.107zm13.56 13.735c-.763-.233-1.38-.557-1.372-.72.064-1.172.727-3.99.928-3.945.135.032 1.01.372 1.943.756 4.046 1.666 8.769.898 9.644-1.568.302-.854-.356-2.558-1.444-3.739-.577-.627-2.293-1.997-3.811-3.046-4.395-3.035-5.689-4.736-5.689-7.48 0-4.876 5.422-8.244 12.53-7.784 1.29.084 2.401.209 2.47.278.07.07-.02 1.035-.199 2.146-.26 1.61-.406 1.988-.723 1.866-.22-.084-1.482-.34-2.806-.57-4.772-.83-7.832.168-7.832 2.551 0 .829 1.476 2.268 4.636 4.522 6.42 4.578 7.41 6.541 5.66 11.219-.804 2.148-2.958 4.311-5.139 5.16-2.082.811-6.686.996-8.795.354zm17.463 0c-.764-.233-1.381-.557-1.372-.72.064-1.172.727-3.99.927-3.945.136.032 1.01.372 1.944.756 4.045 1.666 8.768.898 9.643-1.568.291-.822-.334-2.522-1.336-3.631-.522-.577-2.272-1.987-3.889-3.133-4.65-3.294-5.72-4.697-5.716-7.487.01-4.908 5.394-8.26 12.527-7.798 1.29.084 2.402.209 2.471.278.07.07-.02 1.035-.2 2.146-.26 1.61-.406 1.988-.723 1.866-.219-.084-1.481-.34-2.806-.57-4.798-.834-7.832.155-7.832 2.551 0 .833 1.477 2.267 4.763 4.628 6.368 4.573 7.288 6.422 5.533 11.113-.804 2.148-2.958 4.311-5.138 5.16-2.082.811-6.687.996-8.796.354zm-85.526-.525c0-.166.423-.38.94-.478.518-.097 1.173-.408 1.456-.69.498-.499.514-1.022.514-16.654 0-15.633-.016-16.156-.514-16.654-.283-.283-.938-.594-1.455-.691-.562-.106-.941-.33-.941-.559 0-.327 1.458-.37 10.252-.299 10.119.081 10.274.09 11.84.719 1.125.45 2.063 1.11 3.215 2.262 1.375 1.373 1.714 1.906 2.183 3.425.736 2.381.76 5.937.054 7.945-1.084 3.086-3.686 5.612-6.966 6.762-4.129 1.449-11.318.666-11.318-1.232 0-.276.64-.356 2.855-.356 3.448 0 5.503-.48 7.394-1.73 3.11-2.055 4.2-5.984 2.831-10.199-1.03-3.173-4.245-4.63-10.566-4.791l-3.175-.08v15.78c0 15.096.021 15.806.5 16.333.274.304.899.627 1.388.719.49.092.89.303.89.468 0 .216-1.61.301-5.689.301-4.078 0-5.688-.085-5.688-.3zm30.691.072c0-.41 3.015-21.676 3.32-23.418.15-.861.131-.887-.554-.715-2.019.507-2.236.504-2.236-.032 0-.431.63-.714 3.892-1.741 2.14-.674 3.908-1.201 3.929-1.171.02.03-.298 2.376-.706 5.214-.985 6.833-.972 7.307.127 4.625 2.884-7.04 5.007-9.48 8.564-9.847l1.451-.15-.148.768a38.092 38.092 0 0 0-.313 2.222c-.277 2.435-.232 2.382-2.01 2.382-.871 0-1.911.17-2.312.376-1.983 1.026-4.284 4.77-5.951 9.682-.741 2.184-2.428 8.73-2.71 10.519-.098.622-.252 1.174-.342 1.227-.09.053-1.027.181-2.082.285-1.648.163-1.919.13-1.919-.226zm-108.876-2.719c-8.37-1.313-13.044-5.022-15.472-12.276-2.062-6.164 1.038-12.124 8.032-15.444 6.2-2.941 8.717-2.568 19.364 2.876 8.553 4.373 11.796 5.28 18.768 5.253 6.914-.028 13.938-1.896 18.303-4.868 6.12-4.167 16.114-13.85 22.505-21.805 2.87-3.572 8.313-11.575 10.528-15.478 4.927-8.685 10.17-20.96 12.025-28.15 2.038-7.905 2.212-15.939.494-22.782-1.186-4.722-3.829-10.37-6.279-13.415-4.537-5.64-13.54-11.298-24.238-15.233-5.183-1.905-8.534-2.54-15.743-2.984-4.356-.268-6.35-.593-6.35-1.033 0-.128-.072-.421-.16-.651-.147-.381 5.723-.419 65.37-.419 62.269 0 65.529.023 65.447.463-.145.777-1.761 1.388-3.67 1.389-3.657 0-13.993.841-16.441 1.337-10.497 2.125-20.445 9.032-29.13 20.227-4.365 5.626-5.901 8.316-14.437 25.268-4.58 9.095-9.813 19.096-11.63 22.225-14.591 25.114-23.337 37.35-35.09 49.093-5.737 5.73-10.428 9.659-15.976 13.377-7.994 5.357-21.267 10.398-32.726 12.427-3.079.546-11.47.92-13.494.603zm139.95-39.735c-1.41-.662-2.832-2.358-3.425-4.083-.767-2.232-.845-6.756-.163-9.49 1.424-5.71 5.31-11.056 9.556-13.143 1.255-.616 1.784-.715 3.837-.715 2.07 0 2.494.08 3.245.616 1.255.896 1.763 2.02 1.753 3.886-.022 4.287-4 8.306-11.028 11.14-1.164.469-2.355.915-2.647.991-.49.129-.518.296-.383 2.277.242 3.529 1.523 5.437 3.86 5.75 1.539.207 3.861-.984 6.34-3.252 1.342-1.227 2.02-1.685 2.21-1.494.407.406.063.877-2.58 3.54-1.771 1.786-2.83 2.61-4.253 3.315-2.402 1.188-4.692 1.428-6.322.662zm3.966-13.77c3.483-1.54 6.227-4.912 6.233-7.66.003-1.47-.318-2.04-1.354-2.401-3.475-1.212-5.497.788-6.978 6.901-.363 1.5-.66 3.047-.661 3.437 0 .654.058.692.754.493.415-.12 1.318-.465 2.006-.77zm27.854 13.72c-1.544-1.215-1.512-1.989.615-14.876.57-3.454.97-6.452.89-6.66-.23-.6-.92-.733-1.574-.304-1.659 1.087-7.32 11.502-10.171 18.712l-1.116 2.823-1.626.098c-.894.055-1.656.083-1.694.064-.066-.034 2.97-21.862 3.288-23.636l.16-.896-1.028.182c-.565.1-1.237.244-1.491.319-.334.098-.463-.014-.463-.403 0-.462.553-.715 3.854-1.765 2.12-.673 3.89-1.183 3.933-1.132.044.051-.497 3.724-1.202 8.163-.705 4.438-1.284 8.17-1.288 8.294-.003.124.8-1.364 1.787-3.307 4.126-8.132 8.2-12.66 11.39-12.66.645 0 1.296.206 1.73.548 1.004.79.94 1.844-.756 12.45-1.705 10.662-1.728 11-.767 11.242.38.095 1.113.043 1.631-.116s1.041-.228 1.163-.152c1.233.762-3.376 3.544-5.871 3.544-.394 0-1.021-.24-1.394-.533zm-54.162-.345c0-.226.268-.485.595-.578 2.808-.791 2.844-.892 2.844-7.895v-5.672l-5.18-9.488c-2.848-5.219-5.48-9.93-5.848-10.47a3.878 3.878 0 0 0-1.832-1.425c-2.268-.866-1.491-1.033 4.79-1.033 4.215 0 5.954.086 5.954.296 0 .163-.428.365-.95.45-1.21.197-1.696.605-1.696 1.428 0 .635 8.17 17.008 8.488 17.008.087 0 1.844-3.544 3.905-7.875 4.489-9.437 4.626-10.143 2.05-10.56-.522-.086-.95-.288-.95-.451 0-.208 1.496-.296 5.028-.296 5.163 0 6.187.23 3.975.893-.637.19-1.304.65-1.692 1.166-.353.468-2.863 5.298-5.578 10.734l-4.936 9.882.08 5.817.08 5.816.865.771c.475.425 1.09.772 1.367.772.805 0 1.34.29 1.34.724 0 .336-.263.373-1.582.224-2.05-.232-7.854-.236-9.688-.007-1.19.148-1.43.11-1.43-.231zm-72.323-17.52c-7.44-1.402-14.069-5.548-17.759-11.107-2.052-3.091-3.802-8.19-4.246-12.366l-.19-1.786h-1.014c-3.62 0-12.12-4.369-19.892-10.226-3.728-2.809-5.82-4.88-11.448-11.337-2.663-3.056-5.438-6.007-6.165-6.558-3.35-2.538-5.605-7.282-5.605-11.789v-1.865l-1.895-.996c-5.393-2.834-7.352-8.003-4.392-11.593 2.164-2.626 8.501-5.697 15.326-7.427 12.456-3.157 26.382-3.197 37.115-.105 15.374 4.428 30.12 13.85 39.783 25.417 5.875 7.033 10.683 16.486 12.219 24.022.99 4.86.623 11.072-.951 16.073-.83 2.64-3.337 7.867-5.018 10.468-2.467 3.818-6.591 7.418-10.556 9.215-3.97 1.801-5.553 2.177-9.532 2.267-2.485.056-4.387-.046-5.78-.308zm9.352-8.98c3.634-1.347 6.978-3.943 9.504-7.38 1.606-2.184 3.62-6.54 4.441-9.603.639-2.384.7-3.05.719-7.895.02-5.115-.004-5.366-.722-7.54-1.075-3.257-3.1-7.239-4.865-9.568-10.814-14.265-28.169-25.1-47.97-29.95-4.57-1.118-9.977-1.758-14.843-1.755-4.21.002-6.168.284-9.367 1.349-4.91 1.634-7.54 3.356-7.54 4.936 0 2.132 4.195 5.177 9.921 7.202 4.274 1.512 13.855 3.66 19.05 4.271 4.948.583 13.133.802 16.14.433l1.587-.195-.794.673c-3.038 2.576-8.747 3.905-16.8 3.911-4.86.004-5.533-.06-11.567-1.097-6.545-1.124-10.86-1.583-12.061-1.282-1.434.36-1.592 3.2-.248 4.46 2.393 2.243 8.477 5.434 13.461 7.059 4.693 1.53 11.423 2.673 15.734 2.673.712 0 1.295.115 1.295.256 0 .522-1.648 2.108-2.741 2.637-1.417.686-2.892.69-5.594.013-1.164-.292-3.188-.595-4.497-.675-2.763-.168-3.466.08-4.16 1.464-.567 1.13-.777.873 4.196 5.153 9.37 8.068 13.111 10.215 15.622 8.968.903-.448 1.045-.684 1.83-3.049 1.272-3.83 2.324-5.614 4.733-8.028 3.53-3.54 7.317-5.14 12.18-5.147 5.236-.01 10.334 2.478 13.883 6.773 2.208 2.672 3.607 6.993 3.372 10.414-.404 5.893-5.16 11.281-11.362 12.875-3.106.798-7.386.086-9.591-1.597-2.072-1.58-2.897-5.291-1.718-7.727 1.094-2.26 3.905-4.2 6.535-4.512 1.012-.12 1.68.015 3.428.689 2.89 1.115 3.758 1.234 4.931.677 1.29-.612 2.366-2.766 2.366-4.739 0-3.6-3.63-6.87-8.37-7.54-5.332-.756-10.408 2.087-12.844 7.193-2.595 5.437-2.709 10.474-.347 15.375 2.376 4.933 6.586 8.433 12.187 10.132 1.767.536 2.456.602 5.462.521 2.97-.08 3.71-.193 5.424-.828z" transform="matrix(3.77953 0 0 3.77953 -48.388 -336.94)"/>
</svg>