<?xml version="1.0" encoding="UTF-8" standalone="no"?>
<!-- Created with Inkscape (http://www.inkscape.org/) -->

<svg
   xmlns:dc="http://purl.org/dc/elements/1.1/"
   xmlns:cc="http://creativecommons.org/ns#"
   xmlns:rdf="http://www.w3.org/1999/02/22-rdf-syntax-ns#"
   xmlns:svg="http://www.w3.org/2000/svg"
   xmlns="http://www.w3.org/2000/svg"
   xmlns:sodipodi="http://sodipodi.sourceforge.net/DTD/sodipodi-0.dtd"
   xmlns:inkscape="http://www.inkscape.org/namespaces/inkscape"
   width="1024"
   height="1024"
   viewBox="0 0 16 16"
   version="1.1"
   id="svg8"
   inkscape:version="0.92.5 (2060ec1f9f, 2020-04-08)"
   sodipodi:docname="icon.svg">
  <defs
     id="defs2" />
  <sodipodi:namedview
     id="base"
     pagecolor="#ffffff"
     bordercolor="#666666"
     borderopacity="1.0"
     inkscape:pageopacity="0.0"
     inkscape:pageshadow="2"
     inkscape:zoom="27.03125"
     inkscape:cx="2.7377384"
     inkscape:cy="8.8647472"
     inkscape:document-units="px"
     inkscape:current-layer="layer1"
     showgrid="true"
     units="px"
     inkscape:window-width="1920"
     inkscape:window-height="1043"
     inkscape:window-x="1920"
     inkscape:window-y="629"
     inkscape:window-maximized="1">
    <inkscape:grid
       type="xygrid"
       id="grid815" />
  </sodipodi:namedview>
  <metadata
     id="metadata5">
    <rdf:RDF>
      <cc:Work
         rdf:about="">
        <dc:format>image/svg+xml</dc:format>
        <dc:type
           rdf:resource="http://purl.org/dc/dcmitype/StillImage" />
        <dc:title></dc:title>
      </cc:Work>
    </rdf:RDF>
  </metadata>
  <g
     inkscape:label="Layer 1"
     inkscape:groupmode="layer"
     id="layer1"
     transform="translate(0,-292.76665)">
    <circle
       style="fill:#fff;fill-opacity:1;stroke:none"
       id="path827"
       cx="8"
       cy="300.76666"
       r="8" />
    <path
       style="opacity:1;fill:#204a82;fill-opacity:1;stroke:none;stroke-width:0.64166665;stroke-linejoin:round;stroke-miterlimit:4;stroke-dasharray:none;stroke-opacity:1"
       d="M 10.371094 2.734375 C 10.237639 2.734375 10.167689 3.00802 10.068359 3.90625 C 10.001859 4.50596 10.002192 4.9494494 10.070312 5.1308594 C 10.100732 5.2118694 10.208562 5.2889156 10.380859 5.3535156 C 10.526493 5.4081156 10.950645 5.392225 11.064453 5.328125 C 11.183603 5.260985 11.286781 5.1664719 11.269531 5.1386719 C 11.260941 5.1248719 11.269189 5.10485 11.287109 5.09375 C 11.387375 5.03177 11.265282 4.2205738 11.09375 3.8085938 C 11.07174 3.7556537 11.032842 3.6633625 11.007812 3.6015625 C 10.825183 3.1515825 10.519151 2.734375 10.371094 2.734375 z M 5.5566406 2.8164062 C 5.5288576 2.8154063 5.4941456 2.8434625 5.4160156 2.9140625 C 5.2216141 3.0897025 5.049876 3.3658137 4.8984375 3.7460938 C 4.8843828 3.7813738 4.8363546 3.9028781 4.7910156 4.0175781 C 4.6882989 4.2773181 4.6041168 4.7767444 4.6210938 5.0214844 C 4.6358475 5.2341944 4.7077134 5.3526 4.8730469 5.4375 C 5.0278078 5.51699 5.441197 5.50005 5.640625 5.40625 C 5.9581228 5.25682 5.9859361 4.9624444 5.8125 3.5839844 C 5.7584187 3.1541644 5.6945799 2.9246031 5.6074219 2.8457031 C 5.5868489 2.8271031 5.5732846 2.8170263 5.5566406 2.8164062 z M 10.876953 5.8496094 C 10.736 5.8504094 10.578149 5.8667844 10.380859 5.8964844 C 9.8990863 5.9688544 9.6503906 6.1494775 9.6503906 6.4296875 C 9.6503906 6.6460575 9.8774167 6.8922781 10.136719 6.9550781 C 10.391593 7.0168781 10.903787 7.0103062 11.216797 6.9414062 C 11.449873 6.8901363 11.502331 6.8648531 11.615234 6.7519531 C 11.723957 6.6432331 11.746902 6.5971769 11.757812 6.4667969 C 11.766323 6.3651269 11.754076 6.2848219 11.722656 6.2324219 C 11.696176 6.1883019 11.660158 6.1207313 11.642578 6.0820312 C 11.600933 5.9903612 11.507311 5.941425 11.271484 5.890625 C 11.143188 5.862925 11.017898 5.8489394 10.876953 5.8496094 z M 5.3789062 5.9824219 C 5.0337254 5.9830119 4.5990109 6.0591437 4.453125 6.1523438 C 4.1644618 6.3366638 4.0915545 6.5660675 4.2421875 6.8046875 C 4.3289255 6.9420875 4.5126914 7.080175 4.6484375 7.109375 C 4.6910341 7.119375 4.9355398 7.1212344 5.1914062 7.1152344 C 5.6892506 7.1039144 5.9972223 7.0351137 6.140625 6.9023438 C 6.2261519 6.8231637 6.2896369 6.6144269 6.2636719 6.4980469 C 6.1845104 6.1434469 6.0065501 6.0208281 5.5195312 5.9863281 C 5.4749239 5.9833281 5.4282402 5.9823419 5.3789062 5.9824219 z M 11.271484 7.2949219 C 11.161351 7.2919219 10.964374 7.3029719 10.580078 7.3261719 C 9.854494 7.3702219 9.7782943 7.4022269 9.8789062 7.6230469 C 9.9246592 7.7234569 10.048511 7.7801313 10.339844 7.8320312 C 10.619386 7.8817813 11.197539 7.7747719 11.388672 7.6386719 C 11.516472 7.5477019 11.542449 7.4251094 11.449219 7.3496094 C 11.40649 7.3150094 11.381611 7.2979219 11.271484 7.2949219 z M 5.8378906 7.4121094 C 5.7042484 7.4093094 5.484242 7.4215656 5.0976562 7.4472656 C 4.4533733 7.4902256 4.3767573 7.5312113 4.5 7.7695312 C 4.5370307 7.8411512 4.5862696 7.8698031 4.7324219 7.9082031 C 5.0504056 7.9915631 5.3872734 7.9700775 5.8242188 7.8359375 C 6.0553546 7.7649675 6.1749367 7.5738469 6.0566406 7.4667969 C 6.0183315 7.4321969 5.9715329 7.4151094 5.8378906 7.4121094 z M 10.890625 8.2128906 C 10.864025 8.2128906 10.834201 8.2141838 10.800781 8.2148438 C 10.639901 8.2180437 10.490097 8.2364594 10.466797 8.2558594 C 10.443497 8.2751594 10.408335 8.2823844 10.390625 8.2714844 C 10.342642 8.2418244 10.236544 8.3176456 10.146484 8.4472656 C 10.071064 8.5557756 10.066278 8.5931038 10.048828 9.1210938 C 10.030772 9.6687638 10.106511 11.612172 10.150391 11.726562 C 10.195577 11.844313 10.331392 11.755926 10.435547 11.541016 C 10.659091 11.079776 10.951024 10.201177 11.064453 9.6484375 C 11.137069 9.2945775 11.253906 8.5627437 11.253906 8.4648438 C 11.253906 8.3950338 11.227958 8.3360563 11.173828 8.2851562 C 11.109174 8.2243562 11.07699 8.2108906 10.890625 8.2128906 z M 5.1445312 8.2890625 C 5.058985 8.2885625 4.9858354 8.2949 4.9433594 8.3125 C 4.7481663 8.39335 4.7318342 8.527985 4.8398438 9.140625 C 4.9793449 9.931865 5.1062317 10.439354 5.2558594 10.802734 C 5.2704404 10.837974 5.2896981 10.896341 5.2988281 10.931641 C 5.3508456 11.132801 5.6213035 11.728201 5.7109375 11.837891 C 5.7698059 11.909951 5.8587771 11.885516 5.8769531 11.791016 C 5.9215861 11.559046 5.9670853 10.265186 5.9570312 9.5039062 C 5.9441817 8.5325062 5.9378352 8.505415 5.7050781 8.390625 C 5.582368 8.330095 5.3327342 8.2897225 5.1445312 8.2890625 z M 8.8242188 12.650391 C 8.6514219 12.648391 8.4291656 12.65225 8.1386719 12.65625 C 7.2525172 12.66885 7.0860173 12.677456 7.0039062 12.722656 C 6.9509639 12.751756 6.8967496 12.777254 6.8847656 12.777344 C 6.8302048 12.777844 6.6367607 12.927841 6.6054688 12.994141 C 6.4735775 13.273941 6.6622296 13.457634 7.2128906 13.583984 C 7.4083106 13.628884 7.5823766 13.637859 8.1425781 13.630859 C 8.55969 13.625759 8.8714985 13.608038 8.9296875 13.585938 C 8.9826239 13.565837 9.1170838 13.522888 9.2285156 13.492188 C 9.3894281 13.447808 9.4563809 13.409551 9.5566406 13.300781 C 9.727281 13.115711 9.7286986 12.994174 9.5625 12.833984 C 9.4171665 12.693904 9.3425956 12.654391 8.8242188 12.650391 z M 8.2441406 14 C 7.9524353 14.0015 7.6467802 14.01235 7.5234375 14.03125 C 7.2380301 14.07523 7.1725639 14.108019 7.1855469 14.199219 C 7.1982499 14.288429 7.3635122 14.370088 7.6503906 14.429688 C 8.1349993 14.530357 8.7573515 14.436525 8.9472656 14.234375 C 9.0353822 14.140575 9.0076459 14.059937 8.8769531 14.023438 C 8.8127718 14.005437 8.5358461 13.998 8.2441406 14 z "
       transform="translate(0,292.76665)"
       id="path853" />
  </g>
</svg>
