<svg xmlns="http://www.w3.org/2000/svg" viewBox="0 0 100.1 32">
  <path fill="currentColor" d="M20.9 0C15 0 10.6 4.8 10.6 10.6 5.2 10.6 0 14.8 0 21c0 6.5 5.8 11 14.7 11 6.4 0 13-2.3 13.9-2.6.4-.1.7-.4.8-.9 2-6 2.6-10.3 2.6-14C32 5.5 27.2 0 20.9 0Zm-5.6 8.6c1.3 0 2.5 1.2 2.5 2.9 0 2.7-3.9 6.6-6.6 6.6-1.5 0-2.7-1-2.7-2.5 0-1.7 2-2.6 3.3-2.6.6 0 1.1-.6 1.1-1.1 0-.8.7-3.3 2.4-3.3z"/>
  <path fill="currentColor" d="M50.9 12.5q1.3 1.3 1.3 4v6.7q0 .7-.4 1.1-.5.4-1.2.4t-1.2-.4q-.4-.4-.4-1.1v-.4c-.5.6-.8 1-1.5 1.4a4 4 0 0 1-2.2.6q-1.3 0-2.4-.5-1.1-.6-1.7-1.5-.6-1-.6-2.1 0-1.5.7-2.3.7-.8 2.4-1.2 1.7-.4 4.6-.4h.7v-.6q0-1.3-.6-2-.5-.5-1.8-.5a5.8 5.8 0 0 0-1.6.2l-2 .6q-.6.4-1 .4t-.7-.4q-.3-.3-.3-.9l.2-.8q.2-.3.8-.6.9-.5 2.2-.8a11.6 11.6 0 0 1 2.6-.3q2.7 0 4 1.4zm-2.8 9q.9-1 .9-2.4v-.5h-.5l-2.8.1q-1 .2-1.4.6-.5.4-.5 1.1 0 .9.6 1.4.7.6 1.5.6 1.4 0 2.2-1zm18.2 1.8q0 .6-.3 1-.4.3-1.2.3h-9q-.6 0-1-.4-.5-.5-.5-1 0-.7.5-1.3l7-8h-6q-.8 0-1.2-.3-.4-.3-.4-1 0-.5.4-.9.4-.3 1.1-.3h8.7q.7 0 1.1.4.4.5.4 1 0 .7-.4 1.3l-7 8h6.3q1.5 0 1.5 1.2zm13.5-11.7q.5.4.5 1.1v10.5q0 .7-.5 1.1-.5.4-1.2.4-.8 0-1.2-.4-.4-.4-.4-1v-.6a4.8 4.8 0 0 1-4 2.1q-4.9 0-4.9-5.4v-6.7q0-.7.5-1.1.4-.4 1.2-.4.8 0 1.2.4.5.4.5 1.1v6.7q0 1.4.5 2 .6.7 1.8.7 1.4 0 2.3-.9.8-1 .8-2.5v-6q0-.7.5-1.1.4-.4 1.2-.4.8 0 1.2.4zm15 11.5q0 .6-.4 1.1-.4.5-1 .5t-1.1-.5l-5.7-5.1v4q0 .8-.5 1.2-.5.4-1.2.4-.8 0-1.2-.4-.5-.4-.5-1.2v-16q0-.8.5-1.2.4-.4 1.2-.4.7 0 1.2.4t.5 1.2v9.5l5.1-5q.5-.4 1.1-.4.6 0 1.1.4.5.5.5 1.1 0 .6-.5 1.1l-4.3 4 4.7 4.2q.5.5.5 1.1zm2.3-14.7q-.4-.5-.4-1.2 0-.8.4-1.2.5-.5 1.3-.5.7 0 1.2.5.5.4.5 1.2 0 .7-.5 1.2t-1.2.5q-.8 0-1.3-.5zm0 16q-.4-.5-.4-1.3V12.7q0-.7.5-1.1.4-.4 1.2-.4.7 0 1.2.4t.5 1.1v10.4q0 .8-.5 1.2-.5.4-1.2.4-.8 0-1.2-.4z"/>
  <path fill="#c92f54" d="M21 2.4c-2 0-5.2.8-6.9 4 .4-.2.8-.2 1.2-.2 2.7 0 4.8 2.5 4.8 5.2 0 4-4.7 9-9 9a5 5 0 0 1-5-4.8l.3-1.5a7.6 7.6 0 0 0-4 7c0 4.7 4.4 8.5 12.2 8.5 6.4 0 12.7-2.3 12.7-2.3s2.3-6.7 2.3-12.4C29.6 5 24.3 2.4 21 2.4z"/>
</svg>
