<svg xmlns="http://www.w3.org/2000/svg" xml:space="preserve" viewBox="0 0 67.34 63.744">
  <path fill="currentColor"
    d="M39.563.005C36.416.099 33.066 1.6 31.438 5.29c-.31.69-.51 1.391-.64 2.121-.67 4.19-1.49 14.309-1.77 20.479-.06 3.42 1.76 4.69 5.42 4.69 1.06 0 2.371-.04 3.211-.75.57-.509.61-1.33.66-2.05.11-1.5.1-3.059.3-4.549.43-2.12 1.859-.3 2.439 1.05.37.83.61 1.719.78 2.609.24 1.03.12 1.95.6 2.82.19.34.69.3 1.11.3 2.2-.12 7.44-.459 9.98-.609 1.43-.03 1.94-.54 2.23-1.98.28-1.32 1.09-3.73 2.25-4.31 1.13-.4.99 1.69 1.08 2.46.09 1.57-.01 3 1.58 3.24 1 .16 2.081.01 3.081-.04l-.01.01c1.69-.01 3.51-1.08 3.59-3v-.07c.06-.98-.171-2-.371-2.97-1.16-5.2-2.13-8.69-4.34-13.06-3.23-6.13-6.68-7.661-9.03-7.131-.92.3-1.82.94-1.83 1.99-.1 2.15-.01 4.17-.08 6.26-.01.48-.25 3.95-1.34 3.67-1.2-.31-1.519-3.7-1.519-3.7-.16-1.71-.16-3.488-.24-5.208-.07-2.02-.261-3.842-1.791-5.182C45.629 1.28 44.05.65 42.57.35a10.397 10.397 0 0 0-3.008-.345zM20.12 2.227c-2.309.08-4.987 1.518-7.492 3.123v-.019C5.099 10.361.02 16.711 0 24.271c.1 2.2.949 4.74 2.719 6.22 3.53 3.1 12.33 2.45 16.59 1.74 4.18-.67 5.68-3.62 5.97-7.53.41-5.41 1.26-11.74.14-17.37l-.019-.06c-1.03-3.84-2.97-5.122-5.279-5.043zm-3.63 9.422c.988-.033 1.819.517 2.259 2.162l.01-.011v.03c.48 2.41.11 5.12-.06 7.44-.13 1.68-.771 2.94-2.561 3.23-1.83.31-5.6.59-7.11-.74-.75-.63-1.12-1.72-1.16-2.66.01-3.24 2.18-5.959 5.41-8.109 1.076-.69 2.223-1.308 3.212-1.342zm44.786 23.34c-.76-.009-1.558.051-2.338.111-1.44.12-2.91.18-4.32.4-4.04.53-4.5 3.56-4.4 7.22l.06 8.261c.04 1.84-.1 3.909.41 5.639.8 2.93 3.78 2.93 5.94 1.39 1.65-1.1 2.91-2.72 3.96-4.39 2.33-3.85 3.94-8.13 4.87-12.52.46-2.14.43-5.009-2.02-5.789l-.05-.021c-.63-.215-1.352-.292-2.112-.3zm-37.738.697c-3.451-.012-6.905.035-10.35.155-3.09.15-7.059.09-9.539 1.32-5.73 2.85-1.38 11.28 1.29 15.07 1.79 2.47 4.16 4.51 6.85 5.96 4.789 2.55 10.33 3.56 15.61 4.72 6.05 1.34 14.25 1.829 17.44-4.621l.01-.02c1.72-3.57 1.29-7.72.94-11.64v-.069c-.67-8.21-4.09-10.521-11.91-10.671-3.44-.12-6.89-.191-10.34-.204zm.209 6.762c1.636.005 3.272.037 4.902.092 3.71.07 5.33 1.17 5.64 5.06l.01-.01v.03c.159 1.86.37 3.83-.45 5.52-1.51 3.06-5.4 2.83-8.27 2.19-2.51-.54-5.13-1.02-7.4-2.23a9.7 9.7 0 0 1-3.25-2.82c-1.26-1.8-3.33-5.79-.61-7.14 1.17-.58 3.05-.55 4.52-.62a133.85 133.85 0 0 1 4.908-.072z" />
</svg>
