<svg class="a-azuki-logo" viewBox="0 0 302.55 87" xmlns="http://www.w3.org/2000/svg" height="32" aria-label="Omoi">
  <title>Omoi</title>
  <path
    d="M28.86,25.44c-.88-3.29-3.32-2.2-5.47-.82-3.23,2.15-5.4,4.87-5.41,8.11.04.94.41,2.03,1.16,2.66,1.51,1.33,5.28,1.05,7.11.74,1.79-.29,2.43-1.55,2.56-3.23.17-2.32.54-5.03.06-7.44v-.03Z"
    fill="#D12E44"></path>
  <path
    d="M44.4,59.23c-.31-3.89-1.93-4.99-5.64-5.06-3.26-.11-6.54-.13-9.81-.02-1.47.07-3.35.04-4.52.62-2.72,1.35-.65,5.34.61,7.14.85,1.17,1.97,2.13,3.25,2.82,2.27,1.21,4.89,1.69,7.4,2.23,2.87.64,6.76.87,8.27-2.19.82-1.69.61-3.66.45-5.52v-.03Z"
    fill="#D12E44"></path>
  <path
    d="M43.78.5C19.9.5.54,19.75.54,43.5s19.36,43,43.24,43,43.24-19.25,43.24-43S67.66.5,43.78.5ZM22.74,16.98c5.01-3.21,10.71-5.76,12.77,1.92l.02.06c1.12,5.63.27,11.96-.14,17.37-.29,3.91-1.79,6.86-5.97,7.53-4.26.71-13.06,1.36-16.59-1.74-1.77-1.48-2.62-4.02-2.72-6.22.02-7.56,5.1-13.91,12.63-18.94ZM54.95,69.92c-3.19,6.45-11.39,5.96-17.44,4.62-5.28-1.16-10.82-2.17-15.61-4.72-2.69-1.45-5.06-3.49-6.85-5.96-2.67-3.79-7.02-12.22-1.29-15.07,2.48-1.23,6.45-1.17,9.54-1.32,6.89-.24,13.81-.19,20.69.05,7.82.15,11.24,2.46,11.91,10.67v.07c.35,3.92.78,8.07-.94,11.64ZM75.57,52.73c-.93,4.39-2.54,8.67-4.87,12.52-1.05,1.67-2.31,3.29-3.96,4.39-2.16,1.54-5.14,1.54-5.94-1.39-.51-1.73-.37-3.8-.41-5.64-.02-2.75-.04-5.51-.06-8.26-.1-3.66.36-6.69,4.4-7.22,1.41-.22,2.88-.28,4.32-.4,1.56-.12,3.19-.24,4.45.19l.05.02c2.45.78,2.48,3.65,2.02,5.79ZM73.86,42.4c-1,.05-2.08.2-3.08.04-1.59-.24-1.49-1.67-1.58-3.24-.09-.77.05-2.86-1.08-2.46-1.16.58-1.97,2.99-2.25,4.31-.29,1.44-.8,1.95-2.23,1.98-2.54.15-7.78.49-9.98.61-.42,0-.92.04-1.11-.3-.48-.87-.36-1.79-.6-2.82-.17-.89-.41-1.78-.78-2.61-.58-1.35-2.01-3.17-2.44-1.05-.2,1.49-.19,3.05-.3,4.55-.05.72-.09,1.54-.66,2.05-.84.71-2.15.75-3.21.75-3.66,0-5.48-1.27-5.42-4.69.28-6.17,1.1-16.29,1.77-20.48.13-.73.33-1.43.64-2.12,2.17-4.92,7.4-5.95,11.13-4.94,1.48.3,3.06.93,4.22,2.03,1.53,1.34,1.72,3.16,1.79,5.18.08,1.72.08,3.5.24,5.21,0,0,.32,3.39,1.52,3.7,1.09.28,1.33-3.19,1.34-3.67.07-2.09-.02-4.11.08-6.26.01-1.05.91-1.69,1.83-1.99,2.35-.53,5.8,1,9.03,7.13,2.21,4.37,3.18,7.86,4.34,13.06.2.97.43,1.99.37,2.97v.07c-.08,1.92-1.9,2.99-3.59,3Z"
    fill="#D12E44"></path>
  <path
    d="M126.07,66.29c-4.46,0-8.49-1.02-12.07-3.06-3.58-2.04-6.42-4.81-8.53-8.31-2.11-3.5-3.17-7.41-3.17-11.73s1.04-8.2,3.12-11.63c2.08-3.44,4.92-6.18,8.53-8.21,3.61-2.04,7.62-3.06,12.02-3.06s8.58,1.02,12.16,3.06c3.58,2.04,6.41,4.78,8.49,8.21s3.12,7.31,3.12,11.63-1.04,8.23-3.12,11.73c-2.08,3.5-4.91,6.27-8.49,8.31-3.58,2.04-7.6,3.06-12.07,3.06ZM125.97,55.16c2.26,0,4.27-.5,6.01-1.51,1.75-1,3.09-2.4,4.04-4.2.95-1.79,1.42-3.85,1.42-6.16s-.49-4.35-1.47-6.11-2.33-3.15-4.04-4.15c-1.71-1-3.7-1.51-5.96-1.51s-4.16.5-5.87,1.51c-1.71,1-3.06,2.39-4.04,4.15-.98,1.76-1.47,3.8-1.47,6.11s.49,4.37,1.47,6.16c.98,1.79,2.33,3.19,4.04,4.2,1.71,1,3.67,1.51,5.87,1.51Z"
    fill="currentColor"></path>
  <path
    d="M157.45,65.38V21.31h12.02v44.07h-12.02ZM186.35,65.38v-26.01c0-2.56-.81-4.55-2.43-5.98-1.62-1.43-3.62-2.15-6.01-2.15-1.59,0-3.03.32-4.31.96-1.29.64-2.29,1.57-3.03,2.78s-1.1,2.68-1.1,4.38l-4.68-2.28c0-3.41.75-6.36,2.25-8.85s3.53-4.43,6.1-5.79c2.57-1.37,5.47-2.05,8.72-2.05,3.06,0,5.84.68,8.35,2.05,2.51,1.37,4.49,3.28,5.96,5.75,1.47,2.46,2.2,5.43,2.2,8.9v28.29h-12.02ZM215.26,65.38v-26.01c0-2.56-.81-4.55-2.43-5.98-1.62-1.43-3.62-2.15-6.01-2.15-1.53,0-2.95.32-4.27.96-1.32.64-2.34,1.57-3.07,2.78s-1.1,2.68-1.1,4.38l-6.88-1.64c.24-3.53,1.19-6.58,2.84-9.17,1.65-2.58,3.82-4.59,6.52-6.02,2.69-1.43,5.69-2.15,8.99-2.15s6.27.68,8.9,2.05c2.63,1.37,4.71,3.33,6.24,5.88,1.53,2.56,2.29,5.6,2.29,9.13v27.92h-12.02Z"
    fill="currentColor"></path>
  <path
    d="M257.83,66.29c-4.46,0-8.49-1.02-12.07-3.06-3.58-2.04-6.42-4.81-8.53-8.31-2.11-3.5-3.17-7.41-3.17-11.73s1.04-8.2,3.12-11.63,4.92-6.18,8.54-8.21c3.61-2.04,7.62-3.06,12.02-3.06s8.58,1.02,12.16,3.06c3.58,2.04,6.41,4.78,8.49,8.21,2.08,3.44,3.12,7.31,3.12,11.63s-1.04,8.23-3.12,11.73c-2.08,3.5-4.91,6.27-8.49,8.31s-7.6,3.06-12.07,3.06ZM257.74,55.16c2.26,0,4.27-.5,6.01-1.51,1.75-1,3.09-2.4,4.04-4.2.95-1.79,1.42-3.85,1.42-6.16s-.49-4.35-1.47-6.11-2.33-3.15-4.04-4.15c-1.71-1-3.7-1.51-5.96-1.51s-4.16.5-5.87,1.51c-1.71,1-3.06,2.39-4.04,4.15-.98,1.76-1.47,3.8-1.47,6.11s.49,4.37,1.47,6.16c.98,1.79,2.33,3.19,4.04,4.2,1.71,1,3.67,1.51,5.87,1.51Z"
    fill="currentColor"></path>
  <path
    d="M295.27,14.19c-1.96,0-3.58-.65-4.87-1.96-1.28-1.31-1.93-2.93-1.93-4.88s.64-3.5,1.93-4.84c1.29-1.34,2.91-2.01,4.87-2.01s3.65.67,4.91,2.01c1.25,1.34,1.88,2.95,1.88,4.84s-.63,3.57-1.88,4.88c-1.25,1.31-2.89,1.96-4.91,1.96ZM289.21,65.38V21.31h12.11v44.07h-12.11Z"
    fill="currentColor"></path>
</svg>
