<svg xmlns="http://www.w3.org/2000/svg" viewBox="0 0 3348.2 1249.8">
  <path fill="currentColor" d="M786.4 0C503.6 0 372 241.5 354.2 354.2 254.9 365.6 0 497 0 784.3s242.3 465.5 585.7 465.5c219.7 0 445.2-77.8 472.4-86.7 51-16.8 88-46.6 106.6-109.2 7.7-25.7 85.1-246.6 85.1-468.5C1249.8 200.1 1027.7 0 786.4 0zm-186 345.2c96.6-2.8 196 140.1 37.6 298.6-254.1 254-431.8-127-149.7-155.5 11.6-100.1 61.5-141.6 112-143z"/>
  <path fill="currentColor" d="M1754.3 510.3q43.1 44 43.1 133.8v212.6q0 23.5-13.9 37-14 13.5-38.3 13.5-22.7 0-37-14-14.4-13.9-14.4-36.5v-11.5c-15.4 20.4-25.4 32.7-46.6 45.5a139.9 139.9 0 0 1-73.7 19.2q-42.7 0-77.5-17.5-34.9-17.4-55-47.9-20-30.5-20-68 0-47 24-74t78-39.3q54-12.1 149-12.2h21.9v-20q0-42.6-18.3-62.3-18.3-19.6-59.3-19.6a188.3 188.3 0 0 0-51.4 7.4q-26.1 7.5-61.9 21.4-22.6 11.3-33 11.3-15.8 0-25.8-11.3t-10-29.6q0-14.8 7.4-25.7 7.4-11 24.9-20.5 30.4-16.6 72.7-26.2a375.9 375.9 0 0 1 83.2-9.5q88.8 0 132 44zm-88 292q27.5-29.2 27.5-75.4v-18.3H1678q-58.4 0-90.6 5.2-32.3 5.2-46.2 18.3-14 13-14 35.7 0 28 19.6 45.8 19.6 17.8 48.4 17.8 43.6 0 71-29.2zm589.5 59.7q0 19.1-12.2 30-12.2 10.9-36.6 10.9h-291q-21.8 0-35.8-14-14-13.9-14-33 0-20 15.8-38.4l223.9-258.8h-194.3q-24.4 0-36.6-10.5-12.2-10.4-12.2-30.4t12.2-30.5q12.2-10.5 36.6-10.5H2193q22.7 0 36.2 13.5 13.5 13.5 13.5 33.6 0 20.9-14.8 38.3L2003 821h204q48.8 0 48.8 41zm436.5-380q14.8 14 14.8 37.5v338q0 22.7-15.2 36.7-15.3 13.9-39.7 14-23.5 0-37.5-13.2-14-13-13.9-35.7v-18a140.2 140.2 0 0 1-54 49.8 156.2 156.2 0 0 1-76.7 18.8q-156.8 0-156.8-176V519.5q0-23.5 14.8-37.5 14.8-13.9 39.2-13.9 25.3 0 40 14 15 13.9 14.9 37.4v215.2q0 45.3 18.3 67.1 18.3 21.8 57.5 21.8 45.3 0 72.7-30 27.5-30.1 27.5-79.8V519.5q0-23.5 14.8-37.5 14.8-13.9 39.2-13.9 25.3 0 40 14zm487 373.8q0 20-14.3 35.8-14.4 15.6-33.5 15.6-19.2 0-35.8-15.6L2911 724.2v131.6q0 25.3-15.7 38.4-15.7 13-39.2 13-23.5 0-38.8-13-15.2-13.1-15.2-38.4V335.6q0-25.2 15.2-38.3 15.3-13 38.8-13 23.5 0 39.2 13 15.7 13 15.7 38.3V645l167.3-160.3q15.6-15.6 35.7-15.6 20 0 34.8 14.8 14.8 14.8 14.9 34.8 0 20-16.6 36.6l-136.8 127.2 151.6 136q17.4 16.5 17.4 37.4zm74-477.2q-14.8-15-14.8-39.1 0-24.3 14.8-38.8 14.8-14.5 40-14.5 24.5 0 39.7 14.5 15.2 14.5 15.2 38.8 0 24.2-14.8 39.1-14.9 15-40 15-25.3 0-40.1-15zm1.2 516q-15.2-13.5-15.2-38.8V519.5q0-25.2 15.2-38.3 15.3-13.1 38.8-13 23.5 0 39.2 13 15.7 13 15.7 38.3v336.3q0 25.3-15.7 38.8-15.7 13.5-39.2 13.5-23.5 0-38.8-13.5z"/>
  <path fill="#c92f54" d="M797.4 290.7c84.8-.4 247.7 132.4 109.1 615.8-466 134.1-603.2-15.6-613.9-95 277.4 235.2 751-230.8 504.8-520.8z"/>
</svg>
