<svg xmlns="http://www.w3.org/2000/svg" viewBox="0 0 32 32">
  <path fill="currentColor" d="M20.9 0C15 0 10.6 4.8 10.6 10.6 5.2 10.6 0 14.8 0 21c0 6.5 5.8 11 14.7 11 6.4 0 13-2.3 13.9-2.6.4-.1.7-.4.8-.9 2-6 2.6-10.3 2.6-14C32 5.5 27.2 0 20.9 0Zm-5.6 8.6c1.3 0 2.5 1.2 2.5 2.9 0 2.7-3.9 6.6-6.6 6.6-1.5 0-2.7-1-2.7-2.5 0-1.7 2-2.6 3.3-2.6.6 0 1.1-.6 1.1-1.1 0-.8.7-3.3 2.4-3.3z"/>
  <path fill="#c92f54" d="M21 2.4c-2 0-5.2.8-6.9 4 .4-.2.8-.2 1.2-.2 2.7 0 4.8 2.5 4.8 5.2 0 4-4.7 9-9 9a5 5 0 0 1-5-4.8l.3-1.5a7.6 7.6 0 0 0-4 7c0 4.7 4.4 8.5 12.2 8.5 6.4 0 12.7-2.3 12.7-2.3s2.3-6.7 2.3-12.4C29.6 5 24.3 2.4 21 2.4z"/>
</svg>
