<svg xmlns="http://www.w3.org/2000/svg" class="bi bi-book-half" fill="currentColor" viewBox="0 0 55.98 13.1">
  <path d="M8.5 1.8c.65-.7 1.78-.9 3.11-.76 1.24.12 2.5.52 3.39.9v9.92c-.92-.35-2.1-.7-3.29-.81a5.47 5.47 0 00-3.21.49zM8 .88C7.02.04 5.59-.1 4.29.04c-1.52.16-3.04.68-4 1.1A.5.5 0 000 1.6v11a.5.5 0 00.7.46c.89-.4 2.31-.88 3.69-1.02 1.4-.14 2.59.09 3.22.88a.5.5 0 00.78 0c.63-.8 1.81-1.02 3.22-.88 1.38.14 2.8.62 3.68 1.02a.5.5 0 00.71-.46v-11a.5.5 0 00-.3-.45C14.77.72 13.24.2 11.72.05 10.41-.1 8.98.03 8 .88z"/>
  <g>
    <path d="M22.4 11.38h5.33c1.87 0 2.86-1.18 2.86-2.66 0-1.23-.84-2.25-1.88-2.41.92-.2 1.69-1.02 1.69-2.25 0-1.32-.96-2.5-2.83-2.5H22.4zm2.1-5.88V3.33h2.62c.7 0 1.14.48 1.14 1.08 0 .63-.44 1.09-1.14 1.09zm0 4.1V7.27h2.69c.82 0 1.27.53 1.27 1.15 0 .7-.48 1.16-1.27 1.16zM35.42 11.55c2.36 0 3.77-1.7 3.77-3.74a3.6 3.6 0 00-3.77-3.72 3.6 3.6 0 00-3.75 3.72 3.6 3.6 0 003.75 3.74zm0-1.66c-1.16 0-1.81-.96-1.81-2.08 0-1.1.65-2.06 1.81-2.06 1.17 0 1.83.96 1.83 2.06 0 1.12-.66 2.08-1.83 2.08zM43.88 11.55c2.35 0 3.77-1.7 3.77-3.74a3.6 3.6 0 00-3.77-3.72 3.6 3.6 0 00-3.76 3.72 3.6 3.6 0 003.76 3.74zm0-1.66c-1.17 0-1.82-.96-1.82-2.08 0-1.1.65-2.06 1.82-2.06 1.16 0 1.82.96 1.82 2.06 0 1.12-.66 2.08-1.82 2.08zM53.64 11.38h2.34l-2.9-3.9 2.81-3.22h-2.3L50.9 7.43V1.55h-1.87v9.83h1.87V9.55l.85-.91z"/>
  </g>
</svg>