
<?xml version="1.0" encoding="utf-8"?>
<!-- Generator: Adobe Illustrator 26.0.1, SVG Export Plug-In . SVG Version: 6.00 Build 0)  -->
<svg version="1.1" id="Layer_1" xmlns="http://www.w3.org/2000/svg" xmlns:xlink="http://www.w3.org/1999/xlink" x="0px" y="0px"
	 viewBox="0 0 298 160" style="enable-background:new 0 0 298 160;" xml:space="preserve">
<path fill="currentColor" d="M296.6,28.9l-24.8,38.2l-4.7,32.8c0,1.1-0.4,2.2-1,3.1c-0.5,0.4-1.6,0.6-3.5,0.7c-4.7,0-7.1-1.1-7.1-3.3v-0.5
	l4.6-32.7l-16.5-38.3c-0.1-0.4-0.2-0.7-0.2-1.1c0-1.7,2.2-2.5,6.8-2.5c4.5,0,7.1,1.2,7.8,3.7l10.4,23.9l15.3-24.2
	c0.5-1.2,1.4-2.1,2.5-2.7c1.4-0.5,3-0.8,4.5-0.7c4.3,0,6.5,0.8,6.5,2.3C297.1,28,296.9,28.5,296.6,28.9z M246.2,58.2
	c0.1,0.3,0.5,1.3,1.2,3c0.6,1.4,0.9,3,1,4.5c0,1.2-0.8,1.8-2.5,1.8h-21.6l-0.9,10.3h25.1c1.1-0.1,2.2,0.3,3.1,0.9
	c0.6,0.7,0.8,1.7,0.6,2.6c-0.5,3.3-1.1,5.5-1.9,6.8c-0.8,1.3-2.3,2-3.9,1.8h-37.2l-1.4-1.6l8.3-58.6h16.5c2.7,0.1,4.5,1,5.6,2.7
	c0.7,1.2,1.2,2.4,1.6,3.7c1.3,3.7,0.8,5.6-1.7,5.6h-10.8L226,55.5h15.3C243.7,55.5,245.3,56.4,246.2,58.2L246.2,58.2z M192.1,63.3
	l7.5,21.6c0.5,1.5,0.6,2.5,0.1,3c-0.4,0.5-1.8,0.7-4.2,0.7c-2.5,0-5-0.3-7.4-0.8c-2.6-0.6-4.1-1.5-4.6-2.8l-6.3-18.5l0.4-3L197,31.8
	c1.3-2.4,4.2-3.6,8.6-3.6s6.6,0.7,6.6,2.2c0,0.5-0.2,1-0.5,1.4L192.1,63.3z M171.9,23c-6.6,0-9.9-3-9.9-8.9c0-0.9,0.1-1.7,0.2-2.6
	c1-7.7,5.3-11.5,12.9-11.5c6.6,0,9.9,3,9.9,8.9c0,0.9-0.1,1.7-0.2,2.6C183.8,19.2,179.5,23,171.9,23z M150.1,85.2
	c-0.1,1.3-0.4,2.5-1.1,3.7c-0.4,0.5-1.5,0.8-3.2,0.8s-3.1,0-4.1-0.1c-1-0.1-2.1-0.2-3.1-0.5c-1.9-0.4-2.8-1.4-2.7-3.1l3.4-28.4
	l-8.2,12.1H121l-4.4-11.9l-6.3,45.1c-0.1,1.1-0.4,2.2-1.1,3.2c-0.5,0.4-1.6,0.6-3.5,0.7c-6.7,0-9.8-1.2-9.5-3.7l10-70.9
	c0.3-2.5,2.8-3.8,7.4-3.8c4.6,0,7.2,1.2,7.8,3.7l6.5,25.8l14.2-25.9c0.5-1.2,1.3-2.2,2.4-2.9c1.3-0.6,2.7-0.8,4.1-0.7
	c4.8,0,7.1,1.3,6.8,3.9l-2.6,29.8L150.1,85.2z M87.1,86.2c-4.5,5.6-11.8,8.4-21.7,8.4S49,91.8,46,86.2c-1.7-3.3-2.6-7.7-2.6-13.2
	c0-5.4-0.6-3.2,0.3-9.2c1.5-10.7,2.4-14.8,4.8-20.5s5.6-9.6,9.6-11.9s9-3.4,15-3.4s10.5,0.6,13.5,1.8c3,1.2,5.5,3.4,7.2,6.2
	c1.8,3,2.6,7,2.7,12c0,5,0.5,3.6-0.5,11.8C93.9,74.5,91.6,80.6,87.1,86.2z M58.6,74.9c0,3.4,0.2,5.7,0.7,6.8c0.3,1,1.3,1.7,2.3,1.7
	c2.7,0,4.8-0.1,6.3-0.2c1.6-0.1,3.1-0.6,4.5-1.3c1.3-0.6,2.4-1.5,3.2-2.5c0.9-1.6,1.6-3.2,2.1-5l-18-11.7
	C58.3,72.8,58.6,71.5,58.6,74.9z M74.1,39c-7.5,0-11.8,3.8-12.9,11.5c-0.1,0.8-0.2,1.7-0.2,2.6c0,6,3.3,8.9,9.9,8.9
	c7.5,0,11.8-3.8,12.9-11.5c0.1-0.8,0.1-1.7,0.2-2.6C84,42,80.7,39,74.1,39L74.1,39z M46.8,34.9c-0.4,0.6-1.1,1.1-1.9,1.2
	c-0.5,0-1,0-1.5-0.1c-4.2-0.9-8.5-1.4-12.8-1.5c-3.6,0-6.3,2-8,6c-1.7,4-3.1,10.5-4.4,19.7c-1.3,9.1-1.9,15.4-1.9,18.8
	s0.5,5.8,1.6,7.2c1.1,1.4,3,2.1,5.8,2.1s7.6-0.3,14.5-1c0.8-0.2,1.6,0.1,2.2,0.7c0.4,0.7,0.6,1.5,0.4,2.2c-0.2,2.3-0.7,4.7-1.5,6.9
	c-0.5,1.3-1.7,2.2-3.1,2.3c-4.4,0.7-8.9,1.2-13.4,1.3c-9.9,0-16.4-2.8-19.3-8.4c-1.7-3.3-2.6-7.6-2.6-13.1c0-5.8,0.5-11.5,1.3-17.2
	c1.5-10.7,3.4-18.8,5.9-24.5s5.6-9.6,9.6-11.9s9.5-3.4,16.7-3.4c7.2,0,12.4,1.1,15.5,3.4c0.5,0.4,0.7,0.9,0.7,1.5
	c-0.3,1.3-0.7,2.6-1.4,3.8C48.5,32.3,47.7,33.7,46.8,34.9z M125,110.7c0.9-3,2.5-5.7,4.6-7.9c1.9-1.9,4.3-3.3,6.9-4
	c3.6-0.8,7.2-1.2,10.9-1.1c3-0.1,5.9,0.5,8.7,1.7l9.3-67.6c0-1.2,0.6-2.2,1.5-3c1.3-0.6,2.8-0.9,4.2-0.8c4.8,0,7.1,1.3,6.8,3.8
	l-2.7,29.8l-5,37.4c2.8-0.5,5.6-0.8,8.5-0.8c8.1,0,13.3,1.9,15.7,5.8c1.6,2.8,2.4,6.1,2.3,9.4c0,4.3-0.3,8.5-0.9,12.8
	c-0.5,4-1.4,8-2.6,11.9c-0.9,3-2.5,5.7-4.6,7.9c-1.9,1.9-4.3,3.3-6.9,4c-3.6,0.8-7.2,1.2-10.9,1.1c-2.5,0-5-0.4-7.4-1.2l-0.8,5.8
	c-0.1,1.1-0.4,2.2-1.1,3.1c-0.5,0.4-1.6,0.6-3.2,0.6c-1.6,0-3.1-0.1-4.6-0.2c-1.3-0.1-2.6-0.5-3.8-1.1c-1.1-0.6-1.6-1.3-1.4-2.2
	l0.9-6.4c-3.2,0.7-6.5,1-9.8,1c-8.1,0-13.3-1.9-15.7-5.8c-1.6-2.8-2.4-6.1-2.3-9.4c0-4.3,0.3-8.5,0.9-12.8
	C122.9,118.6,123.7,114.6,125,110.7z M166.7,139.8c2.1,0.9,4.5,1.4,6.8,1.3c2.8,0,4.7-1.1,5.8-3.4c1.1-2.3,2-6,2.6-11.1
	c0.6-3.6,0.9-7.1,1.1-10.8c0-1.5-0.1-2.9-0.3-4.3c-0.7-2.2-2.4-3.3-5.1-3.3c-2.9-0.1-5.9,0.2-8.8,0.6l-4,30.2L166.7,139.8z
	 M135.3,137.5c0.7,2.2,2.4,3.3,5.1,3.3c3.1,0.1,6.2-0.2,9.3-0.7l0.8-0.2l4-29.4l-3.2-1.4c-2.1-0.9-4.5-1.4-6.8-1.3
	c-2.8,0-4.7,1.1-5.8,3.4s-1.9,6-2.6,11.1c-0.6,3.6-0.9,7.1-1.1,10.8C135,134.6,135.1,136.1,135.3,137.5z"/>
</svg>
