<svg xmlns="http://www.w3.org/2000/svg" viewBox="0 0 180.91 180.553">
    <path style="fill:currentColor"
        d="M169.459-49.184c-66.446 0-102.273 41.794-102.273 108.4 0 30.765 10.815 50.32 31.353 60.987.158-1.678.342-3.36.578-5.055.477-4.645 1.428-9.407 2.977-14.052a23.371 23.371 0 0 1 5.478-9.41 18.49 18.49 0 0 1 8.219-4.764c4.288-.953 8.576-1.43 12.982-1.31 3.573-.12 7.027.596 10.362 2.025L150.21 7.125c0-1.43.715-2.621 1.787-3.574 1.548-.715 3.335-1.072 5.002-.953 5.717 0 8.457 1.55 8.1 4.527l-3.217 35.492-5.955 44.543c3.335-.595 6.67-.953 10.125-.953 9.647 0 15.839 2.263 18.697 6.908 1.906 3.335 2.86 7.265 2.74 11.196 0 5.12-.357 10.122-1.072 15.244a76.926 76.926 0 0 1-.795 4.894c34.451-12.45 61.473-44.936 61.473-100.78 0-43.022-18.403-72.853-77.637-72.853zm-7.695 18.434c7.86 0 11.79 3.573 11.79 10.6 0 1.072-.118 2.025-.238 3.097-1.19 9.171-6.311 13.696-15.363 13.696-7.86 0-11.79-3.573-11.79-10.6 0-1.072.118-2.024.237-3.096 1.191-9.17 6.312-13.697 15.364-13.697ZM198.09 2.836c5.24 0 7.861.835 7.861 2.621 0 .596-.238 1.192-.596 1.668l-23.343 37.516 8.931 25.726c.596 1.787.715 2.977.12 3.572-.477.596-2.144.834-5.002.834-2.978 0-5.955-.357-8.813-.953-3.097-.714-4.883-1.785-5.478-3.334l-7.504-22.033.476-3.574 23.106-37.754c1.548-2.858 5.001-4.29 10.242-4.29zM125.318 97.64c-3.334 0-5.596 1.311-6.906 4.05-1.31 2.74-2.264 7.145-3.098 13.22-.625 3.75-.953 7.433-1.19 11.241 5.876 1.584 12.283 2.7 19.202 3.383l3.903-28.678-3.811-1.668c-2.501-1.071-5.36-1.667-8.1-1.548zm36.815.47c-2.624.073-5.28.364-7.871.721l-4.176 31.514c.331.002.638.023.97.023 5.784 0 11.533-.477 17.184-1.408.645-2.421 1.202-5.35 1.623-8.93.715-4.287 1.073-8.454 1.31-12.861 0-1.787-.118-3.456-.357-5.123-.833-2.62-2.858-3.93-6.074-3.93-.863-.03-1.735-.03-2.61-.006z"
        transform="translate(-66.686 49.684)" />
</svg>
