<svg xmlns="http://www.w3.org/2000/svg" viewBox="0 0 64 64" fill="#df6300">
  <path d="M28.94 63.84A32.09 32.41 0 013.16 45.97C.86 41.3 0 37.27 0 31.97A30.4 30.7 0 019.4 9.29 31.94 32.26 0 0137.4.5c4.62.78 8.7 2.49 12.32 4.97a31.47 31.79 0 0114.23 28.37c-.15.16-.15 0-.23-.77A28.01 28.3 0 109.16 44.72 28.01 28.3 0 0032.8 63.7c2 .15 1.54.31-.93.31h-3z"/>
  <path d="M35.71 59.88a22.4 22.62 0 01-20.55-25.57 22.4 22.62 0 0126.78-18.97 23.86 24.1 0 015.08 1.71l1.16.55-1.08.46c-3.85 1.87-6.31 6.22-5.7 10.34a10.16 10.26 0 0017.4 5.75l.92-.77.23 1.47A22.32 22.54 0 0135.8 59.88z"/>
</svg>