<svg xmlns="http://www.w3.org/2000/svg" viewBox="0 0 32 32">
  <path d="M0 13.23v-.04c.05-.06.12-.05.18-.06h4.38c.22 0 .22 0 .17-.21l-.53-1.99-1.03-3.88-.53-1.98-.02-.1c-.03-.14 0-.2.15-.22l.57-.1 1.7-.26 2.97-.46 3.08-.48 3.76-.58 2.82-.44a11990.82 11990.82 0 007.02-1.1L28.13.8c.2-.03.42-.03.63-.06h.06c.02 0 .05.01.07 0h.02c.07.06.05.14.05.22l-.14 1.6-.15 1.72-.13 1.49-.13 1.48-.12 1.47-.13 1.48-.1 1.2-.11 1.2-.07.86c-.01.1.02.13.13.14H31.77c.09 0 .18-.02.23.08v.02c-.02.02-.01.04-.01.06v.05c-.02.41-.09.81-.16 1.21l-.55 3.26-.47 2.8-.55 3.26-.1.64a.24.24 0 01-.15.2l-1.47.67-1.27.58-2.13.98-1.52.7-2.13.97-1.5.7-1.84.83-1.23.57c-.09.04-.2.04-.28.09h-.02c-.07-.05-.06-.13-.06-.2v-1.7-2.33-.12c0-.1-.03-.13-.13-.11l-.9.13-2.63.39-2.23.33-2.46.37-2.56.38-.53.07c-.15.02-.2-.01-.24-.16l-.61-1.9-1.02-3.1-.99-3.05A4274.87 4274.87 0 00.3 14.22c-.1-.32-.23-.65-.29-.99" fill="#00dc64" fill-rule="evenodd"/>
  <path d="M22.97 8.48l-1.72.1-1.16.08c-.14.01-.22.07-.22.24l-.02 2.9-.02 2.93c0 .16.06.22.22.22l1.01.03 1.25.04c.45 0 .9.02 1.35-.04.31-.05.61-.12.9-.27.37-.21.63-.52.75-.93.08-.26.1-.52.1-.8a1.29 1.29 0 00-.79-1.2l-.07-.03c-.03-.02-.04-.05-.01-.08l.05-.05c.53-.44.76-1 .68-1.7a1.49 1.49 0 00-1.12-1.33 3.22 3.22 0 00-1.18-.11zm-3.89.26l-1.85.12-1.59.1-.5.04c-.12.01-.17.07-.18.18v.08L14.93 12l-.01 2.6c0 .15.05.2.2.21l1.08.03 2.04.06.82.02c.14 0 .2-.05.2-.18l.01-1.14c0-.13-.06-.2-.2-.2h-.27l-2.17-.03c-.11 0-.11 0-.11-.11v-.5c0-.16 0-.15.15-.15l2.05-.01c.17 0 .23-.06.23-.22v-1.16c.01-.16-.05-.22-.21-.22l-1.06.04-1.04.03c-.1 0-.1 0-.1-.1v-.49c0-.1 0-.1.1-.1l2.42-.12c.17 0 .23-.07.24-.24a94.71 94.71 0 000-1.1c0-.1-.03-.15-.1-.17-.04-.02-.08-.01-.12 0zm-4.73.32l-1.2.08c-.15.01-.19.04-.23.18l-.77 3.12-.03.15c0-.02.01-.05-.01-.08l-.04-.19-.5-2.06-.2-.84c-.02-.06-.04-.13-.12-.14h-.1l-1.1.07c-.17.01-.2.04-.24.2l-.35 1.39-.38 1.53c-.02 0 .02.07-.04.04 0-.03 0-.07-.02-.1-.2-.93-.42-1.85-.61-2.79-.03-.12-.06-.14-.2-.13l-1.16.07c-.14 0-.19.07-.16.2l.16.68.77 3.07.22.95c.04.13.07.17.18.17l1.41.02c.11 0 .15-.02.18-.13l.08-.31.6-2.11.05-.2c.03.04.04.08.05.12.2.85.46 1.69.67 2.54.03.12.07.14.2.14l1.35.04c.23 0 .24 0 .3-.22l1.02-3.78.4-1.45c.04-.15-.04-.24-.18-.23zm8.4.9c.1 0 .2 0 .29.04.13.05.2.14.23.28v.22a.44.44 0 01-.27.36c-.1.05-.2.07-.3.08l-.5.02-.5.01c-.1 0-.11 0-.11-.1v-.76c0-.1 0-.1.1-.11l1.05-.05zm.02 2.6c.11 0 .22.01.32.05.2.06.3.2.31.4v.12c0 .2-.1.32-.28.4-.11.03-.23.05-.34.05h-.53v-.02h-.58c-.1 0-.1 0-.1-.1v-.78c0-.1.01-.11.11-.12h1.1zm-18 3.17c-.15 0-.2.05-.19.19l.06 1.42c0 .14.04.17.18.18.3 0 .6 0 .89.02l.75.01c.1 0 .11.01.12.12v.15l-.02 4.48c0 .17.04.21.21.2.49-.04.97-.08 1.45-.1.24-.02.24-.08.24-.26l-.03-4.4c0-.17 0-.17.16-.16h1.45c.13 0 .18-.03.18-.16l.04-1.37c0-.13-.04-.17-.16-.17l-.5-.02-2.19-.06-2.64-.07zm8.87.14c-.32 0-.65.03-.96.11a2.84 2.84 0 00-2.14 1.9 3.63 3.63 0 00-.03 2.38c.3.9.9 1.5 1.78 1.83.74.26 1.5.28 2.25.06.86-.26 1.5-.8 1.88-1.6a3.55 3.55 0 00.27-2.15 3.04 3.04 0 00-2.1-2.37c-.31-.11-.63-.16-.95-.16zm6.48.17c-.37 0-.73.05-1.1.17-.75.24-1.28.74-1.6 1.48a3.57 3.57 0 00-.2 1.81 2.83 2.83 0 003.44 2.35c.98-.2 1.68-.77 2.07-1.7.25-.61.3-1.25.16-1.9a2.65 2.65 0 00-1.7-2c-.35-.14-.71-.2-1.07-.21zm3.52.13c-.13 0-.17.04-.18.16v.08l-.03 2.43c0 .83-.01 1.65-.03 2.47 0 .15.08.2.2.2.18-.02.37-.02.56-.03l.73-.04c.13 0 .16-.04.17-.17v-.06-2-.15c.02-.04.06-.06.1-.02l.06.08 1.43 2.07c.07.1.14.14.26.13l1-.03H28c.1-.01.13-.05.14-.14V21l.08-1.72.11-2.83c0-.15-.03-.2-.18-.2l-1.15-.02h-.1c-.07.02-.11.06-.12.13v.08l-.03 2.27v.1c0 .01-.01.04-.04.04-.02.01-.05 0-.06-.02l-.06-.08L25 16.36c-.06-.1-.14-.14-.26-.15-.37 0-.73-.02-1.1-.04zm-9.92 1.42c.1 0 .2.02.29.05.5.13.8.47.93.97.04.15.06.3.05.45 0 .27-.04.51-.14.74-.22.5-.6.75-1.14.8-.16.01-.31 0-.47-.03a1.2 1.2 0 01-.87-.77 1.9 1.9 0 010-1.4 1.2 1.2 0 011.05-.8c.1-.01.2-.02.3-.01zm6.3.03c.15 0 .3 0 .45.04.46.12.72.41.84.86.04.14.05.29.05.42 0 .28-.05.53-.16.76-.26.5-.76.7-1.23.66a1.12 1.12 0 01-1.01-.83 1.72 1.72 0 010-1.11c.16-.48.56-.77 1.06-.8z" fill="#fff" fill-rule="evenodd"/>
</svg>