<?xml version="1.0" encoding="UTF-8" standalone="no"?>
<!-- Created with Inkscape (http://www.inkscape.org/) -->

<svg
   xmlns:dc="http://purl.org/dc/elements/1.1/"
   xmlns:cc="http://creativecommons.org/ns#"
   xmlns:rdf="http://www.w3.org/1999/02/22-rdf-syntax-ns#"
   xmlns:svg="http://www.w3.org/2000/svg"
   xmlns="http://www.w3.org/2000/svg"
   xmlns:xlink="http://www.w3.org/1999/xlink"
   xmlns:sodipodi="http://sodipodi.sourceforge.net/DTD/sodipodi-0.dtd"
   xmlns:inkscape="http://www.inkscape.org/namespaces/inkscape"
   version="1.1"
   id="svg2"
   width="512"
   height="512"
   viewBox="0 0 512 512"
   sodipodi:docname="icon-kin.svg"
   inkscape:version="0.92.4 (5da689c313, 2019-01-14)">
  <metadata
     id="metadata8">
    <rdf:RDF>
      <cc:Work
         rdf:about="">
        <dc:format>image/svg+xml</dc:format>
        <dc:type
           rdf:resource="http://purl.org/dc/dcmitype/StillImage" />
        <dc:title></dc:title>
      </cc:Work>
    </rdf:RDF>
  </metadata>
  <defs
     id="defs6">
    <linearGradient
       inkscape:collect="always"
       id="linearGradient825">
      <stop
         style="stop-color:#c4f9ff;stop-opacity:1"
         offset="0"
         id="stop821" />
      <stop
         style="stop-color:#2878ac;stop-opacity:1"
         offset="1"
         id="stop823" />
    </linearGradient>
    <radialGradient
       inkscape:collect="always"
       xlink:href="#linearGradient825"
       id="radialGradient827"
       cx="307.79199"
       cy="310.91934"
       fx="307.79199"
       fy="310.91934"
       r="256"
       gradientUnits="userSpaceOnUse"
       gradientTransform="matrix(1.0816337,1.0816337,-1.2015723,1.2015724,296.67388,-347.72809)" />
  </defs>
  <sodipodi:namedview
     pagecolor="#ffffff"
     bordercolor="#666666"
     borderopacity="1"
     objecttolerance="10"
     gridtolerance="10"
     guidetolerance="10"
     inkscape:pageopacity="0"
     inkscape:pageshadow="2"
     inkscape:window-width="1920"
     inkscape:window-height="1048"
     id="namedview4"
     showgrid="false"
     showguides="true"
     inkscape:guide-bbox="true"
     inkscape:zoom="0.4609375"
     inkscape:cx="470.01573"
     inkscape:cy="-154.61331"
     inkscape:window-x="1920"
     inkscape:window-y="677"
     inkscape:window-maximized="1"
     inkscape:current-layer="svg2">
    <sodipodi:guide
       position="-64.430611,-167.21278"
       orientation="-0.70710678,0.70710678"
       id="guide835"
       inkscape:locked="false" />
    <sodipodi:guide
       position="256,605.95456"
       orientation="1,0"
       id="guide837"
       inkscape:locked="false"
       inkscape:label=""
       inkscape:color="rgb(0,0,255)" />
  </sodipodi:namedview>
  <rect
     style="opacity:1;fill:url(#radialGradient827);fill-opacity:1;stroke:none;stroke-width:0.37795275;stroke-linecap:round;stroke-linejoin:round;stroke-miterlimit:10;stroke-dasharray:none;stroke-opacity:1"
     id="rect819"
     width="512"
     height="512"
     x="-3.1350959e-14"
     y="-1.9196925e-30"
     ry="37.152542" />
  <path
     style="fill:#000000"
     d="M 180.10938 31.144531 C 177.67527 31.053484 174.50546 31.251609 170.0625 31.660156 C 157.80527 32.787255 153.82721 34.388039 146.58984 41.101562 C 143.79042 43.698354 139.32008 47.7589 136.65625 50.125 C 129.7132 56.292054 123.49144 69.259455 120.46094 83.875 C 119.08005 90.534844 119.08754 92.683864 120.53906 106.05469 C 121.67813 116.54739 121.84283 121.4247 121.10742 122.79883 C 119.84562 125.15653 120.55303 126 123.78906 126 C 125.91137 126 126.06801 126.21398 124.9375 127.57617 C 123.85337 128.88246 123.87461 129.30765 125.06445 130.06055 C 125.85409 130.56021 127.5125 130.97637 128.75 130.98438 C 131.49015 131.00302 131.58908 132.52198 129.11328 136.58203 C 127.86186 138.63422 127.52605 140.18813 128.10938 141.23047 C 128.82025 142.50073 127.64751 142.34415 121.89648 140.39844 C 117.99779 139.07942 114.20753 138 113.47266 138 C 111.71578 138 108.15882 143.07506 106.08398 148.54102 C 104.74945 152.05672 102.77245 154.16059 95.962891 159.31445 C 84.973294 167.63201 78.887878 174.22069 70.853516 186.5 C 55.401687 210.11579 50.673274 223.11619 46.052734 254.69141 C 43.685086 270.87112 44.790701 295.57378 49.603516 334 C 52.02284 353.31624 52.214297 362.22796 50.367188 369.65625 C 49.961899 371.28613 50.400774 371.99493 52.166016 372.56445 C 54.746311 373.39688 63.815775 373.36043 68.496094 372.49805 C 71.402737 371.96248 71.378008 372.01088 67.75 373.99609 C 65.6875 375.12467 64.004566 376.37408 64.009766 376.77344 C 64.031136 378.42701 70.0618 387.82175 73.867188 392.12891 L 77.957031 396.75781 L 68.228516 397.95898 C 49.774218 400.23478 30.472702 405.29631 10.25 413.16406 L 0 417.15234 L 0 474.84766 C 9.4739031e-15 495.43016 16.569835 512 37.152344 512 L 474.84766 512 C 495.43016 512 512 495.43016 512 474.84766 L 512 433.69531 L 506.18555 439.24219 C 496.03016 448.92879 484.64515 455.04618 469.07812 459.18359 C 455.99992 462.65951 425.16333 462.74049 411.25977 459.33594 C 409.10828 458.80911 409.14802 458.70202 412.25977 456.60742 C 416.57328 453.70388 418.57087 449.54731 417.15039 446.42969 C 416.18891 444.31946 415.60323 444.13831 411.29102 444.61914 C 407.50497 445.0413 404.24449 444.4056 395.74219 441.5918 C 382.69252 437.27306 380.99948 436.42721 364.28516 425.85742 C 339.93321 410.45775 334.51213 404.71112 322.24609 381.29297 C 317.00073 371.27862 316.8507 371.1047 314.20117 372.05273 C 311.95298 372.85716 312.24158 372.37127 315.92969 369.15039 C 320.3208 365.31557 320.34757 365.25221 319.02539 361.89062 C 315.89349 353.9279 310.53598 344.82078 308.29102 343.64453 C 306.95697 342.94555 304.4184 339.49777 302.61719 335.93945 C 297.35861 325.55097 288.34307 309.38626 286.10352 306.32812 C 284.96447 304.77272 282.9156 300.73153 281.54883 297.34766 C 278.95256 290.91982 273.85153 281.68491 271.32617 278.83984 C 269.99841 277.34398 270.32826 276.74781 274.64648 272.83984 C 277.28352 270.45332 282.37935 265.79462 285.9707 262.48828 C 289.56204 259.18195 294.525 255.63963 297 254.61719 C 309.72213 249.3616 316.68404 245.38015 321.78906 240.43555 C 326.38682 235.98226 327.17631 234.70452 326.74219 232.43359 C 326.41631 230.72886 326.97723 228.4589 328.25977 226.28516 C 329.37793 224.39002 330.4309 221.18839 330.59961 219.16992 C 330.76832 217.15145 332.05214 213.28579 333.45312 210.58008 C 334.85411 207.87437 336.00286 204.94937 336.00586 204.08008 C 336.00925 203.21079 341.07175 196.59443 347.25586 189.37695 C 353.43997 182.15948 361.95193 172.22679 366.16992 167.30469 C 370.3879 162.3826 373.5379 157.8887 373.16992 157.31641 C 372.78067 156.71105 365.34959 155.97661 355.40234 155.5625 L 338.30469 154.85156 L 311.90234 186.39648 C 297.38125 203.74599 285.3536 218.62936 285.17578 219.4707 C 284.9409 220.58195 285.69317 221 287.92578 221 C 291.43973 221 291.7614 222.24456 289.58594 227.45117 C 287.96636 231.32737 279.49871 238.4016 270.15234 243.68945 C 264.55268 246.85754 234.97485 260.41769 230.99219 261.64258 C 230.16292 261.89763 227.65673 260.54213 225.42383 258.63086 C 222.53067 256.15446 220.95244 255.41653 219.93164 256.0625 C 217.02756 257.90022 216.70249 256.91957 219.3125 254.19531 C 220.7904 252.65272 222 250.56748 222 249.5625 C 222 246.3919 217.82636 240.82506 214.36523 239.37891 C 212.26522 238.50147 210.8034 237.06483 210.4082 235.49023 C 210.06354 234.11697 208.5931 231.98197 207.14062 230.74609 C 205.68816 229.51021 203.98812 227.375 203.36328 226 C 202.73844 224.625 200.03123 221.0043 197.3457 217.95508 C 192.32164 212.25062 180.05978 189.6575 175.93359 178.5 C 174.56147 174.78971 172.27889 171.11816 169.95117 168.87891 L 166.1875 165.25781 L 168.25391 163.19141 L 170.32031 161.125 L 177.41016 164.98633 C 190.18739 171.94601 200.49053 173.5828 205.125 169.38867 C 206.15678 168.45491 207 166.65284 207 165.38477 C 207 164.1167 207.72468 162.49824 208.61133 161.78906 C 214.80516 156.83491 218.41106 152.41109 218.94336 149.10742 C 219.44326 146.00485 219.94107 145.45306 222.51172 145.16602 C 227.18111 144.64462 229.27163 142.18877 228.59375 138.01953 C 226.9127 127.6803 226.83131 125.67567 227.94531 121.75 C 228.60867 119.41237 230.72688 115.7 232.65039 113.5 C 235.60328 110.12265 236.03561 109.88797 235.42969 111.99219 C 234.788 114.22065 234.88521 114.33935 236.35547 113.11914 C 237.32821 112.31184 238 112.18923 238 112.81836 C 238 113.40324 237.55 114.16008 237 114.5 C 236.45 114.83992 236 115.59676 236 116.18164 C 236 118.27362 238.90539 114.8294 241.45117 109.7207 C 242.85283 106.90792 244.03161 105.25724 244.07031 106.05273 C 244.21172 108.96283 245.86173 103.44375 246.0293 99.5 C 246.17311 96.115581 246.30823 95.884738 246.90625 98 L 247.61328 100.5 L 248.22461 98.205078 C 249.36966 93.908883 247.07192 83.022725 243.46875 75.675781 C 241.53343 71.729614 237.48545 65.575 234.47461 62 C 231.46377 58.425 227.47176 53.25 225.60352 50.5 C 219.36886 41.32274 213.55191 37.325966 204.94531 36.306641 C 200.14665 35.73831 198.68944 34.695316 201.25 33.662109 C 201.9375 33.384696 201.375 33.123401 200 33.082031 C 198.625 33.040666 196.12534 33.846595 194.44531 34.871094 C 191.41323 36.7201 191.37112 36.714993 188.64844 34.373047 C 186.18146 32.251041 184.16622 31.296277 180.10938 31.144531 z M 170.22266 271.77344 C 170.46226 271.77105 170.72923 271.80345 171.03125 271.8457 C 172.38915 272.03567 173.68714 272.70959 173.91602 273.34375 C 174.1449 273.97791 176.83251 277.11821 179.88867 280.32227 C 185.41341 286.11439 186.44606 286.51517 191 284.63867 C 191.825 284.29872 193.175 284.49984 194 285.08594 C 194.99763 285.79467 195.12261 286.30907 194.37305 286.61914 C 193.75318 286.87556 190.37818 288.99794 186.87305 291.33594 C 183.36791 293.67394 177.03348 297.47926 172.79688 299.79297 C 168.56028 302.10668 164.85683 304 164.56641 304 C 162.92338 304 163.32377 297.91213 165.78516 285.5 C 168.16251 273.51163 168.54541 271.79013 170.22266 271.77344 z M 240.00391 346.00781 C 240.54996 345.91598 241.62261 347.32047 243.17969 350.17383 C 244.77841 353.10352 248.03901 357.525 250.42578 360 C 258.31664 368.18254 262 373.83421 262 377.75781 C 262 381.75378 268.38653 392.58567 272.7793 396.04102 C 275.44158 398.13518 279.48557 398.64091 280.49609 397.00586 C 280.83418 396.45882 281.93188 395.57125 282.93359 395.03516 C 284.49369 394.20021 286.18925 395.90006 294.75781 406.88281 C 309.14742 425.3267 308.26686 423.51936 307.44531 432.9375 C 306.87621 439.4615 306.4327 440.98623 305.12109 440.92773 C 304.22961 440.88796 294.275 438.02676 283 434.57031 C 271.725 431.11387 254.85 425.94319 245.5 423.08008 C 218.11516 414.69442 172.16816 404 163.52734 404 C 159.5275 404 160.50976 402.70223 167.69336 398.5 C 176.79554 393.17545 187.85928 384.86289 200.81055 373.61914 C 206.76983 368.44554 214.08744 362.97782 217.07227 361.46875 C 224.86879 357.52697 239.05057 348.03145 239.71094 346.31055 C 239.78041 346.1295 239.87789 346.029 240.00391 346.00781 z "
     id="path817" />
</svg>
