<svg xmlns="http://www.w3.org/2000/svg" xmlns:xlink="http://www.w3.org/1999/xlink" viewBox="0 0 279.88 279.88">
  <defs>
    <linearGradient id="b">
      <stop offset="0" stop-color="#ffcd24"/>
      <stop offset="1" stop-color="#ebb827"/>
    </linearGradient>
    <linearGradient id="a">
      <stop offset="0" stop-opacity=".18"/>
      <stop offset="1" stop-opacity=".01"/>
    </linearGradient>
    <linearGradient xlink:href="#a" id="d" x1="145.16" y1="144.17" x2="287.37" y2="287.99" gradientUnits="userSpaceOnUse"/>
    <linearGradient xlink:href="#b" id="c" x1="0" y1="0" x2="106.71" y2="272.02" gradientUnits="userSpaceOnUse"/>
  </defs>
  <path fill="url(#c)" d="M0 0h279.88v279.88H0z"/>
  <path d="M216.7 87.79l134.25 141.78-24.74 75.47-181.13-9.64-84.1-92.05z" fill="url(#d)"/>
  <path d="M111.3 229.43c-21.26-3.3-36.48-10.46-47.23-22.2-13.08-14.28-18.33-30.68-18.43-57.5-.08-19.53 2.29-31.73 8.73-45.06l3.86-7.97-4.97-.42c-4.25-.36-5.04-.98-5.42-4.23-.3-2.54.64-4.86 2.8-7l3.25-3.18-2.63-7.28c-3.38-9.38-2.3-15.14 4.1-21.72 6.1-6.28 14.6-11.35 26.56-15.85 16.3-6.14 26.53-3.74 32.98 7.72 3.09 5.5 3.5 5.74 8.36 4.92 7.46-1.26 11.5 3.1 8.34 9-1.25 2.34-.1 2.57 16.45 3.3 39.46 1.73 69.78 17.5 78.52 40.86 5.84 15.62 7.6 25.88 7.7 44.82.2 38.87-9.68 59.72-34.13 72.05-15.63 7.9-27.12 10.1-55.3 10.6-13.85.24-28.94-.15-33.53-.86z"/>
  <path d="M160.64 183.29a66.99 66.99 0 0011.2-6.49c5.42-4.13 13.43-15.91 11.84-17.41-.58-.54-15.23-.45-32.54.21-17.32.66-35.74 1.23-40.94 1.27-5.92.04-9.44.64-9.44 1.61 0 2.98 8.46 12.2 15.1 16.45 13.65 8.77 31 10.45 44.78 4.36z" fill="#fff"/>
  <circle cx="104.66" cy="138.83" r="5.26" fill="#fff"/>
  <circle r="5.26" cy="137.05" cx="179.08" fill="#fff"/>
</svg>