<?xml version="1.0" encoding="UTF-8" standalone="no"?>
<!-- Created with Inkscape (http://www.inkscape.org/) -->

<svg
   xmlns:dc="http://purl.org/dc/elements/1.1/"
   xmlns:cc="http://creativecommons.org/ns#"
   xmlns:rdf="http://www.w3.org/1999/02/22-rdf-syntax-ns#"
   xmlns:svg="http://www.w3.org/2000/svg"
   xmlns="http://www.w3.org/2000/svg"
   xmlns:xlink="http://www.w3.org/1999/xlink"
   xmlns:sodipodi="http://sodipodi.sourceforge.net/DTD/sodipodi-0.dtd"
   xmlns:inkscape="http://www.inkscape.org/namespaces/inkscape"
   version="1.1"
   id="svg2"
   width="512"
   height="512"
   viewBox="0 0 512 512"
   sodipodi:docname="icon-kinun.svg"
   inkscape:version="0.92.4 (5da689c313, 2019-01-14)">
  <metadata
     id="metadata8">
    <rdf:RDF>
      <cc:Work
         rdf:about="">
        <dc:format>image/svg+xml</dc:format>
        <dc:type
           rdf:resource="http://purl.org/dc/dcmitype/StillImage" />
        <dc:title></dc:title>
      </cc:Work>
    </rdf:RDF>
  </metadata>
  <defs
     id="defs6">
    <linearGradient
       inkscape:collect="always"
       id="linearGradient825">
      <stop
         style="stop-color:#c4f9ff;stop-opacity:1"
         offset="0"
         id="stop821" />
      <stop
         style="stop-color:#2878ac;stop-opacity:1"
         offset="1"
         id="stop823" />
    </linearGradient>
    <radialGradient
       inkscape:collect="always"
       xlink:href="#linearGradient825"
       id="radialGradient827"
       cx="307.79199"
       cy="310.91934"
       fx="307.79199"
       fy="310.91934"
       r="256"
       gradientUnits="userSpaceOnUse"
       gradientTransform="matrix(1.0816337,1.0816337,-1.2015723,1.2015724,296.67388,-347.72809)" />
  </defs>
  <sodipodi:namedview
     pagecolor="#ffffff"
     bordercolor="#666666"
     borderopacity="1"
     objecttolerance="10"
     gridtolerance="10"
     guidetolerance="10"
     inkscape:pageopacity="0"
     inkscape:pageshadow="2"
     inkscape:window-width="1920"
     inkscape:window-height="1048"
     id="namedview4"
     showgrid="false"
     showguides="true"
     inkscape:guide-bbox="true"
     inkscape:zoom="0.4609375"
     inkscape:cx="884.69886"
     inkscape:cy="443.60293"
     inkscape:window-x="1920"
     inkscape:window-y="677"
     inkscape:window-maximized="1"
     inkscape:current-layer="svg2">
    <sodipodi:guide
       position="-64.430611,-167.21278"
       orientation="-0.70710678,0.70710678"
       id="guide835"
       inkscape:locked="false" />
    <sodipodi:guide
       position="256,605.95456"
       orientation="1,0"
       id="guide837"
       inkscape:locked="false"
       inkscape:label=""
       inkscape:color="rgb(0,0,255)" />
  </sodipodi:namedview>
  <rect
     style="opacity:1;fill:url(#radialGradient827);fill-opacity:1;stroke:none;stroke-width:0.37795275;stroke-linecap:round;stroke-linejoin:round;stroke-miterlimit:10;stroke-dasharray:none;stroke-opacity:1"
     id="rect819"
     width="512"
     height="512"
     x="-3.1350959e-14"
     y="-1.9196925e-30"
     ry="37.152542" />
  <path
     style="fill:#000000;stroke-width:0.875"
     d="M 187.87109 16.695312 C 186.01026 16.727229 183.72048 16.892028 180.80469 17.160156 C 170.07962 18.146373 166.59836 19.54753 160.26562 25.421875 C 157.81626 27.694061 153.90495 31.246066 151.57422 33.316406 C 145.49902 38.71258 140.05593 50.059055 137.4043 62.847656 C 136.19591 68.675036 136.2023 70.556389 137.47266 82.255859 C 138.46933 91.436899 138.6123 95.70394 137.96875 96.90625 C 136.86471 98.96923 137.48487 99.707031 140.31641 99.707031 C 142.17344 99.707031 142.30967 99.893994 141.32031 101.08594 C 140.37183 102.22902 140.39032 102.60096 141.43164 103.25977 C 142.12243 103.69702 143.57333 104.06131 144.65625 104.06836 C 147.05398 104.08406 147.14097 105.41427 144.97461 108.9668 C 143.87967 110.76263 143.58532 112.12117 144.0957 113.0332 C 144.71779 114.14453 143.69245 114.00904 138.66016 112.30664 C 135.24883 111.15247 131.93209 110.20703 131.28906 110.20703 C 129.75172 110.20703 126.63956 114.64889 124.82422 119.43164 C 123.65642 122.50789 121.92516 124.34793 115.9668 128.85742 C 106.35097 136.13523 101.02811 141.90024 93.998047 152.64453 C 80.477699 173.30833 76.339848 184.68417 72.296875 212.3125 C 70.225183 226.4698 71.193084 248.08402 75.404297 281.70703 C 77.521209 298.60877 77.688489 306.40632 76.072266 312.90625 C 75.717636 314.33231 76.10194 314.95271 77.646484 315.45117 C 79.904242 316.17952 87.838317 316.14694 91.933594 315.39258 C 94.476908 314.92402 94.455758 314.96816 91.28125 316.70508 C 89.476561 317.69263 88.005215 318.78533 88.009766 319.13477 C 88.028556 320.58175 93.305055 328.80168 96.634766 332.57031 L 100.21289 336.62109 L 91.701172 337.67188 C 75.553645 339.66312 58.663614 344.09245 40.96875 350.97656 L 0 374.58398 L 0 474.84766 C 9.4739031e-15 495.43016 16.569835 512 37.152344 512 L 474.84766 512 C 495.43016 512 512 495.43016 512 474.84766 L 512 374.21094 C 499.6843 380.8022 478.39037 386.94077 459.31836 392.00977 C 429.72879 399.87401 404.0172 394.3559 391.85156 391.37695 C 389.96889 390.91576 390.00391 390.82111 392.72656 388.98828 C 396.50087 386.4479 398.24874 382.81186 397.00586 380.08398 C 396.16441 378.23745 395.65222 378.07931 391.87891 378.5 C 388.56614 378.86936 385.71301 378.31171 378.27344 375.84961 C 366.8551 372.07071 365.37504 371.33056 350.75 362.08203 C 329.44219 348.60746 324.69747 343.5787 313.96484 323.08789 C 309.37516 314.32538 309.24411 314.1743 306.92578 315.00391 C 304.95856 315.70758 305.21244 315.28314 308.43945 312.46484 C 312.28174 309.10938 312.30325 309.05276 311.14648 306.11133 C 308.40596 299.14411 303.71824 291.1756 301.75391 290.14648 C 300.58659 289.53491 298.36528 286.51782 296.78906 283.4043 C 292.18777 274.31438 284.2994 260.17016 282.33984 257.49414 C 281.34318 256.13327 279.55136 252.59755 278.35547 249.63672 C 276.08369 244.01238 271.61997 235.93083 269.41016 233.44141 C 268.24847 232.13244 268.53802 231.61076 272.31641 228.19141 C 274.62384 226.10314 279.08222 222.02796 282.22461 219.13477 C 285.367 216.24185 289.70943 213.14253 291.875 212.24805 C 303.00702 207.64942 309.09753 204.1643 313.56445 199.83789 C 317.58749 195.94113 318.27844 194.82302 317.89844 192.83594 C 317.61348 191.34432 318.10432 189.35909 319.22656 187.45703 C 320.20495 185.79871 321.12759 182.99676 321.27539 181.23047 C 321.42305 179.46446 322.54554 176.08232 323.77148 173.71484 C 324.99741 171.34736 326.0032 168.78785 326.00586 168.02734 C 326.00886 167.2666 330.43861 161.47749 335.84961 155.16211 C 341.26078 148.847 348.70772 140.15663 352.39844 135.84961 C 356.08907 131.54286 358.84548 127.61 358.52344 127.10938 C 358.18296 126.57955 351.68031 125.93651 342.97656 125.57422 L 328.01758 124.95312 L 304.91406 152.55469 C 292.20804 167.73528 281.68501 180.75806 281.5293 181.49414 C 281.32385 182.46651 281.98198 182.83203 283.93555 182.83203 C 287.01016 182.83203 287.29034 183.92055 285.38672 188.47656 C 283.96956 191.868 276.56087 198.05869 268.38281 202.68555 C 263.48301 205.45767 237.6039 217.32264 234.11914 218.39453 C 233.39355 218.61762 231.19994 217.43202 229.24609 215.75977 C 226.71454 213.59283 225.3326 212.94667 224.43945 213.51172 C 221.89854 215.11968 221.61481 214.26248 223.89844 211.87891 C 225.19168 210.52899 226.25 208.70372 226.25 207.82422 C 226.25 205.05007 222.5988 200.17941 219.57031 198.91406 C 217.73272 198.14636 216.45332 196.88951 216.10742 195.51172 C 215.80594 194.31026 214.51881 192.44086 213.24805 191.35938 C 211.97705 190.27794 210.49011 188.41019 209.94336 187.20703 C 209.39661 186.00411 207.02758 182.83607 204.67773 180.16797 C 200.28154 175.17649 189.55176 155.40745 185.94141 145.64453 C 184.74081 142.39795 182.74386 139.18609 180.70703 137.22656 L 177.41406 134.05859 L 179.22266 132.25 L 181.03125 130.44141 L 187.23438 133.82031 C 198.41448 139.90993 207.42913 141.34184 211.48438 137.67188 C 212.38719 136.85491 213.125 135.27957 213.125 134.16992 C 213.125 133.06053 213.7595 131.64398 214.53516 131.02344 C 219.95488 126.6885 223.11042 122.81635 223.57617 119.92578 C 224.01365 117.211 224.44809 116.72971 226.69727 116.47852 C 230.78298 116.02239 232.61262 113.87259 232.01953 110.22461 C 230.54843 101.17785 230.47832 99.423371 231.45312 95.988281 C 232.03358 93.942821 233.88519 90.694371 235.56836 88.769531 C 238.15205 85.814281 238.53036 85.609992 238 87.451172 C 237.43861 89.400942 237.52399 89.50519 238.81055 88.4375 C 239.66169 87.73112 240.25 87.623398 240.25 88.173828 C 240.25 88.685688 239.8562 89.347171 239.375 89.644531 C 238.89378 89.941911 238.5 90.605557 238.5 91.117188 C 238.5 92.947717 241.04213 89.932891 243.26953 85.462891 C 244.49613 83.001771 245.52665 81.557926 245.56055 82.253906 C 245.68435 84.800176 247.12865 79.970341 247.27539 76.519531 C 247.40127 73.558251 247.51981 73.356341 248.04297 75.207031 L 248.66211 77.394531 L 249.19727 75.386719 C 250.19926 71.627669 248.18801 62.102408 245.03516 55.673828 C 243.34176 52.220938 239.80054 46.835152 237.16602 43.707031 C 234.53155 40.57891 231.03699 36.050787 229.40234 33.644531 C 223.9469 25.614437 218.85693 22.118464 211.32617 21.226562 C 207.12747 20.729271 205.85321 19.816164 208.09375 18.912109 C 208.6952 18.669382 208.20316 18.44049 207 18.404297 C 205.79684 18.368057 203.61068 19.072309 202.14062 19.96875 C 199.48745 21.586636 199.4489 21.582411 197.06641 19.533203 C 194.9079 17.676445 193.14535 16.841777 189.5957 16.708984 C 189.06325 16.689097 188.49137 16.684674 187.87109 16.695312 z M 180.94531 227.25781 L 180.94531 227.25977 C 181.15485 227.25777 181.38808 227.28627 181.65234 227.32227 C 182.84045 227.48856 183.97544 228.07794 184.17578 228.63281 C 184.37616 229.18762 186.72825 231.93468 189.40234 234.73828 C 194.23652 239.80628 195.14022 240.15757 199.125 238.51562 C 199.84668 238.21818 201.02806 238.39343 201.75 238.90625 C 202.62285 239.52636 202.73198 239.97671 202.07617 240.24805 C 201.53375 240.47246 198.58064 242.32918 195.51367 244.375 C 192.44663 246.42063 186.90428 249.75095 183.19727 251.77539 C 179.49026 253.79986 176.25032 255.45703 175.99609 255.45703 C 174.55848 255.45703 174.90892 250.13026 177.0625 239.26953 C 179.14277 228.7797 179.47767 227.27255 180.94531 227.25781 z M 242.00391 292.21484 C 242.48172 292.13554 243.42069 293.3628 244.7832 295.85938 C 246.18194 298.42296 249.0348 302.29127 251.12305 304.45703 C 258.02765 311.61657 261.25 316.56303 261.25 319.99609 C 261.25 323.49254 266.83788 332.97079 270.68164 335.99414 C 273.01112 337.82654 276.54946 338.26874 277.43359 336.83789 C 277.72943 336.35931 278.68984 335.58247 279.56641 335.11328 C 280.93161 334.38266 282.4146 335.87053 289.91211 345.48047 C 302.50301 361.61878 301.73251 360.03642 301.01367 368.27734 C 300.51571 373.9859 300.12822 375.32067 298.98047 375.26953 C 298.20037 375.23553 289.49071 372.73128 279.625 369.70703 C 269.7593 366.6826 254.99357 362.15767 246.8125 359.65234 C 222.8507 352.31498 182.64675 342.95703 175.08594 342.95703 C 171.58624 342.95703 172.44675 341.82134 178.73242 338.14453 C 186.69671 333.48549 196.37665 326.21331 207.70898 316.375 C 212.92353 311.84812 219.32579 307.06254 221.9375 305.74219 C 228.7596 302.29319 241.17024 293.98438 241.74805 292.47852 C 241.80815 292.32018 241.89378 292.23345 242.00391 292.21484 z "
     id="path817" />
  <path
     style="fill:#ffffff;fill-opacity:1;stroke-width:0.6626969"
     d="m 56.897665,490.48987 c -7.028338,-1.3905 -12.515375,-6.43285 -14.862288,-13.6578 -1.353891,-4.16794 -1.499002,-6.1512 -1.775478,-24.26539 -0.229154,-15.01369 -0.106224,-19.96127 0.514571,-20.70928 0.550561,-0.66338 2.073989,-0.98279 4.687373,-0.98279 3.149619,0 3.999667,0.23906 4.557737,1.28182 0.425075,0.79427 0.68601,8.19857 0.68601,19.46624 0,19.87632 0.337406,22.1524 3.836255,25.87861 5.234081,5.57422 15.789913,4.8616 23.989096,-1.61948 l 3.302808,-2.61072 0.174972,-21.03256 0.174979,-21.03257 4.036731,-0.19456 c 2.857469,-0.13773 4.263182,0.0783 4.811895,0.73945 0.570761,0.68772 0.729536,8.24654 0.602146,28.66527 l -0.173024,27.73127 -1.777306,0.99742 c -2.536313,1.42337 -5.298374,0.34492 -6.19815,-2.42007 -0.988784,-3.0385 -1.304459,-3.14982 -3.743886,-1.32025 -6.535827,4.90188 -14.646269,6.70735 -22.844439,5.0854 z m 283.737785,0.25664 c -3.25826,-0.8849 -5.72493,-2.53995 -7.11355,-4.77295 -1.46273,-2.35223 -1.51007,-2.98767 -1.83285,-24.6149 l -0.33134,-22.20034 -4.79919,-0.19459 c -5.33072,-0.21616 -5.81417,-0.71373 -5.35576,-5.5123 l 0.21439,-2.24547 4.97022,-0.33135 4.97024,-0.33135 0.17758,-8.9464 c 0.20363,-10.26155 0.38284,-10.60315 5.55861,-10.60315 2.4494,0 3.31836,0.28934 3.84952,1.28183 0.37731,0.705 0.68601,5.17821 0.68601,9.94045 v 8.65862 h 9.5382 c 10.47575,0 10.34271,-0.0544 10.34271,4.22919 0,3.48206 -0.69526,3.72317 -10.7357,3.72317 h -9.14521 v 19.88091 c 0,19.38578 0.0351,19.91597 1.40793,21.28883 1.17488,1.17489 1.92783,1.34636 4.549,1.03592 1.72761,-0.20461 5.00839,-1.13077 7.29066,-2.05813 2.28224,-0.92736 4.42226,-1.51757 4.75558,-1.31156 0.96801,0.59828 3.86583,5.44769 3.86583,6.46939 0,3.16094 -17.22737,8.14475 -22.86305,6.6142 z m 43.40665,-0.4739 c -5.41094,-1.18218 -9.56065,-3.5448 -13.5237,-7.69965 -6.09114,-6.38592 -8.3453,-12.49069 -8.3453,-22.60093 0,-10.33249 2.756,-17.30002 9.24312,-23.36798 13.53823,-12.66343 35.67678,-8.89191 43.29385,7.37554 1.76241,3.76392 2.1293,5.42669 2.36078,10.69957 0.2397,5.46215 0.12348,6.35329 -0.93061,7.12399 -0.94322,0.6897 -5.85196,0.8809 -22.6157,0.8809 h -21.41099 l 0.007,1.82242 c 0.01,2.94571 3.00491,8.53659 6.27375,11.71352 3.55004,3.45025 8.87481,5.68227 13.55573,5.68227 3.73709,0 10.75936,-2.04148 13.63022,-3.96252 2.91629,-1.95141 4.39004,-1.66262 6.46131,1.26609 1.00233,1.41727 1.82241,2.88679 1.82241,3.26561 0,2.15977 -8.03803,6.13702 -15.53076,7.68468 -5.77141,1.19213 -9.23801,1.22038 -14.2906,0.1165 z m 23.17984,-37.36334 c -0.02,-2.48886 -2.03062,-6.71947 -4.56629,-9.60741 -6.09734,-6.94451 -17.17833,-7.19758 -24.73259,-0.56485 -2.62624,2.30586 -5.80951,8.04174 -5.80951,10.46805 v 1.52663 h 17.56147 17.56148 l -0.015,-1.82242 z m 36.46287,37.26125 c -7.95038,-2.19097 -15.62177,-9.8646 -18.64068,-18.64617 -2.2059,-6.41666 -2.22419,-17.1767 -0.0401,-23.52472 3.01962,-8.77597 10.18614,-15.83569 18.14699,-17.87658 5.58244,-1.43114 13.94454,-1.06181 19.58621,0.86504 l 4.80455,1.64095 v -15.32401 c 0,-11.03508 0.22267,-15.54658 0.79524,-16.11924 1.1788,-1.17883 6.85453,-1.00317 8.10862,0.25096 0.93513,0.93513 1.0281,5.59304 0.87577,43.87832 l -0.17057,42.83213 -1.7773,0.9975 c -2.80757,1.57572 -5.29845,0.36566 -6.40309,-3.11056 l -0.89074,-2.80303 -2.70148,2.3124 c -5.37091,4.59728 -14.63294,6.57277 -21.69359,4.62701 z m 14.93018,-10.15327 c 3.05814,-1.62524 4.58472,-2.90429 7.10451,-5.95253 l 1.8224,-2.2046 v -14.51321 c 0,-16.68995 0.4425,-15.57332 -6.93188,-17.49219 -11.17897,-2.90886 -20.31509,0.31395 -24.63912,8.69156 -6.05296,11.72737 -1.17512,28.46721 9.4472,32.42094 3.47798,1.29454 9.83449,0.83697 13.19689,-0.94997 z m -358.05968,8.80575 -1.472848,-1.03163 v -27.71454 c 0,-30.94326 -0.243283,-29.43953 4.704068,-29.07705 2.66205,0.19504 2.86429,0.35783 3.74681,3.01594 l 0.93286,2.80976 2.12874,-1.62366 c 5.47949,-4.17941 14.91424,-6.78496 21.78038,-6.01498 10.62149,1.1911 16.46041,6.61235 18.74773,17.40667 1.07356,5.06633 1.39664,40.24444 0.38427,41.84221 -0.75544,1.19228 -6.14075,1.76419 -7.87459,0.83626 -1.32896,-0.71124 -1.3764,-1.31375 -1.58809,-20.17081 l -0.21823,-19.43767 -1.98809,-3.87618 c -2.78198,-5.42402 -6.07092,-7.18769 -12.66512,-6.79158 -5.40651,0.32476 -11.66235,2.8871 -15.69657,6.42919 l -2.45372,2.15439 v 20.45164 c 0,19.54169 -0.057,20.48216 -1.28182,21.13765 -1.8854,1.00903 -5.49997,0.83518 -7.18578,-0.34561 z m 63.30577,0.31584 c -1.0858,-0.63241 -1.15972,-3.4389 -1.15972,-44.02587 0,-42.18102 0.0346,-43.3689 1.28182,-44.03641 0.705,-0.3773 2.44808,-0.68601 3.87347,-0.68601 5.08152,0 4.78517,-2.78155 4.78517,44.91232 v 42.4885 l -1.47286,1.03163 c -1.66232,1.16433 -5.56177,1.33286 -7.30788,0.31584 z m 20.49608,-0.11258 c -1.03829,-0.76166 -1.11521,-3.1234 -0.95503,-29.32434 l 0.17408,-28.49596 h 4.63889 4.63887 l 0.17407,28.49596 c 0.19587,32.03909 0.49695,30.15271 -4.81304,30.15271 -1.50086,0 -3.23698,-0.37277 -3.85804,-0.82837 z m 21.86899,0 c -1.03828,-0.76166 -1.1152,-3.1234 -0.95503,-29.32434 l 0.17408,-28.49596 3.44256,-0.19905 3.44255,-0.19904 0.80421,2.68415 c 0.4423,1.47628 0.98158,2.68415 1.19844,2.68415 0.21691,0 1.84505,-1.0315 3.61826,-2.29221 5.77327,-4.10463 13.70251,-5.76828 20.65838,-4.33437 5.16085,1.06388 7.28409,2.17412 10.95004,5.72581 l 3.02726,2.93287 4.38479,-2.94033 c 6.67533,-4.4763 11.03909,-5.94812 17.72533,-5.97845 9.22234,-0.0418 15.20436,2.86262 18.90638,9.17964 3.01556,5.14568 3.60121,10.16697 3.6138,30.98424 0.0125,21.35322 0.24421,20.40124 -4.95871,20.40124 -5.17988,0 -4.96826,0.8237 -4.98642,-19.4072 -0.0176,-19.18535 -0.39965,-22.51699 -3.04665,-26.54312 -4.60107,-6.99828 -16.71178,-6.63133 -25.95833,0.78654 L 256,446.50954 l 0.10345,20.96902 c 0.10018,20.288 0.0608,20.99187 -1.21107,21.67254 -1.794,0.96012 -6.20705,0.88709 -7.54572,-0.12486 -0.96789,-0.73165 -1.11809,-3.11099 -1.28638,-20.37793 -0.1856,-19.03772 -0.23169,-19.63312 -1.76192,-22.74109 -4.30016,-8.73394 -17.24824,-9.57441 -26.19373,-1.70027 l -3.05033,2.685 v 20.44971 c 0,20.3809 -0.005,20.45317 -1.47285,21.48133 -1.77048,1.2401 -5.79057,1.35118 -7.35539,0.20325 z m 100.72991,0 c -1.03827,-0.76166 -1.11519,-3.1234 -0.95504,-29.32434 l 0.17433,-28.49596 3.95767,-0.20313 c 3.15933,-0.16215 4.12851,0.0305 4.80455,0.95503 0.65463,0.89524 0.84689,7.29782 0.84689,28.20208 0,26.16031 -0.0433,27.08721 -1.3254,28.36931 -1.52468,1.52466 -5.7229,1.80276 -7.50288,0.49701 z M 183.19399,415.68355 c -4.15942,-4.15941 -1.3238,-11.49755 4.4429,-11.49755 3.54758,0 5.46288,1.13932 6.63626,3.94755 1.27568,3.05317 0.64603,5.71219 -1.84999,7.81246 -2.87447,2.41871 -6.65554,2.31119 -9.22917,-0.26246 z m 123.50373,0.66865 c -5.67232,-3.54965 -2.88631,-12.64816 3.87297,-12.64816 2.0617,0 3.1032,0.4384 4.60192,1.93711 5.62679,5.62679 -1.73379,14.92951 -8.47489,10.71105 z"
     id="path1716"
     inkscape:connector-curvature="0" />
</svg>
