<svg xmlns="http://www.w3.org/2000/svg" viewBox="0 0 1249.8 1249.8">
  <path fill="currentColor" d="M786.4 0C503.6 0 372 241.5 354.2 354.2 254.9 365.6 0 497 0 784.3s242.3 465.5 585.7 465.5c219.7 0 445.2-77.8 472.4-86.7 51-16.8 88-46.6 106.6-109.2 7.7-25.7 85.1-246.6 85.1-468.5C1249.8 200.1 1027.7 0 786.4 0zm-186 345.2c96.6-2.8 196 140.1 37.6 298.6-254.1 254-431.8-127-149.7-155.5 11.6-100.1 61.5-141.6 112-143z"/>
  <path fill="#c92f54" d="M797.4 290.7c84.8-.4 247.7 132.4 109.1 615.8-466 134.1-603.2-15.6-613.9-95 277.4 235.2 751-230.8 504.8-520.8z"/>
</svg>
