<?xml version="1.0" encoding="UTF-8" standalone="no"?>
<!-- Created with Inkscape (http://www.inkscape.org/) -->

<svg
   xmlns:dc="http://purl.org/dc/elements/1.1/"
   xmlns:cc="http://creativecommons.org/ns#"
   xmlns:rdf="http://www.w3.org/1999/02/22-rdf-syntax-ns#"
   xmlns:svg="http://www.w3.org/2000/svg"
   xmlns="http://www.w3.org/2000/svg"
   xmlns:sodipodi="http://sodipodi.sourceforge.net/DTD/sodipodi-0.dtd"
   xmlns:inkscape="http://www.inkscape.org/namespaces/inkscape"
   width="32"
   height="32"
   viewBox="0 0 8.4666659 8.4666659"
   version="1.1"
   id="svg8"
   inkscape:version="0.92.5 (2060ec1f9f, 2020-04-08)"
   sodipodi:docname="icon-comico.svg">
  <defs
     id="defs2" />
  <sodipodi:namedview
     id="base"
     pagecolor="#ffffff"
     bordercolor="#666666"
     borderopacity="1.0"
     inkscape:pageopacity="0.0"
     inkscape:pageshadow="2"
     inkscape:zoom="4.6293397"
     inkscape:cx="3.2570332"
     inkscape:cy="-0.90373176"
     inkscape:document-units="px"
     inkscape:current-layer="layer1"
     showgrid="true"
     units="px"
     inkscape:window-width="1848"
     inkscape:window-height="1016"
     inkscape:window-x="72"
     inkscape:window-y="27"
     inkscape:window-maximized="1">
    <inkscape:grid
       type="xygrid"
       id="grid904" />
  </sodipodi:namedview>
  <metadata
     id="metadata5">
    <rdf:RDF>
      <cc:Work
         rdf:about="">
        <dc:format>image/svg+xml</dc:format>
        <dc:type
           rdf:resource="http://purl.org/dc/dcmitype/StillImage" />
        <dc:title></dc:title>
      </cc:Work>
    </rdf:RDF>
  </metadata>
  <g
     inkscape:label="Layer 1"
     inkscape:groupmode="layer"
     id="layer1"
     transform="translate(0,-288.53334)">
    <path
       style="fill:#f40000;fill-opacity:1;stroke:#f40000;stroke-width:2.64583309;stroke-linecap:butt;stroke-linejoin:round;stroke-opacity:1;stroke-miterlimit:4;stroke-dasharray:none"
       d="M 1.3229165,295.67709 6.879166,293.82501 6.3499994,290.38542 1.8520832,289.85626 Z"
       id="path906"
       inkscape:connector-curvature="0"
       sodipodi:nodetypes="ccccc" />
    <path
       id="path893"
       d="m 3.1015197,290.50931 1.389063,0.003 c 0.494506,10e-4 0.919427,0.14182 1.228725,0.40693 0.313531,0.26882 0.478896,0.63897 0.477573,1.07024 -0.0019,0.8689 -0.704586,1.47558 -1.70815,1.47558 h -0.02646 c -0.270934,-2.6e-4 -0.490273,-0.21563 -0.490273,-0.48154 0,-0.2659 0.220133,-0.48154 0.49186,-0.48154 h 0.01455 c 0.360892,0 0.575204,-0.19235 0.576263,-0.51514 2.64e-4,-0.15214 -0.05053,-0.27861 -0.147109,-0.36619 -0.100012,-0.0908 -0.24765,-0.1389 -0.426243,-0.13917 l -0.828146,-0.002 c -7.94e-4,0 -0.0013,5.3e-4 -0.0013,10e-4 l -0.0079,3.01254 c -5.29e-4,0.30216 -0.250561,0.54637 -0.5588,0.54637 -0.1495084,0.002 -0.2938204,-0.0548 -0.402167,-0.15784 -0.1044723,-0.10236 -0.1625854,-0.24295 -0.160867,-0.3892 l 0.0087,-3.43879 c 7.94e-4,-0.31512 0.240771,-0.54399 0.570971,-0.54399 z"
       inkscape:connector-curvature="0"
       style="fill:#ffffff;fill-rule:evenodd;stroke-width:0.26458332"
       sodipodi:nodetypes="ccccscssscccccccccccc" />
  </g>
</svg>
