<svg xmlns="http://www.w3.org/2000/svg" viewBox="0 0 1024 1024">
  <path fill="#0d44b4" d="M456.5 907.6c-1.7-.7-3.9-2.3-5-3.6-2-2.2-2-3.8-2.2-205.4-.2-160 0-203.6 1-205.5.6-1.3 2.5-3.4 4-4.5 2.8-2 3-2.1 89-2 94 0 97.2.1 123.6 6 42.4 9.5 72.2 30 87.3 59.9 10.1 20 14.8 48.4 12.7 77.3-4 55.8-31.3 91.3-83.4 108.1-24 7.8-41.4 10.2-80.7 11-27.7.5-31 .8-32.5 2.4-1.7 1.7-1.8 6.5-2.3 75.5-.5 69-.6 73.9-2.3 76.4-4 5.8-4 5.8-57.4 5.8-38.2 0-49.4-.4-51.8-1.4zm204.1-247a1831 1831 0 0 0-55.2-105.1c-2.9-3.1-4.9-3.2-7.7-.1-1.9 2-51 93.7-54.5 101.8-.7 1.6-1 3.3-.7 3.9.4.5 23.4.9 59 .9 49.1 0 58.6-.2 59.1-1.4zm119.6 245.8a81 81 0 0 1-44.7-20.9 42.3 42.3 0 0 1-13.6-38.4c3.9-25 20.3-40 46.6-42.6 13.9-1.3 34.8 3.1 49.5 10.5 9 4.5 19.7 13.9 23.7 20.7 8.1 14 8.2 31.6.2 47.5-9.7 19.3-33 28-61.7 23.2zM225 847.9a187 187 0 0 1-79.3-27 154 154 0 0 1-32.3-30.8 157.7 157.7 0 0 1-26.6-63.4c-2.1-11-2.2-13.5-2.5-121.2-.3-109.3-.3-110 1.7-113.3 3.8-6.2 3.9-6.2 57.2-6.1 52 0 53.4.1 57.2 5.2 2 2.8 2.1 3.3 2.6 102.5.5 92.6.6 100.2 2.3 107.2 6.8 27.2 23 40.2 50.7 40.3 31.5.2 49-17 53-51.6.6-6.3 1-52.4 1-135.4 0-98.6.3-126.3 1.3-128.3.7-1.3 2.8-3.5 4.6-4.7l3.4-2.3h50.1c48.5 0 50.2 0 53.4 2 6.6 4 6.2-4.7 6.2 144 0 139-.1 144.6-4.1 164.5-8 40-30 72.3-63.4 93.3a191 191 0 0 1-66 23.4 432 432 0 0 1-70.5 1.7zm574-59.3a455 455 0 0 1-34.3-9c-4.7-2.3-6.7-6-6.7-12.3 0-2.6 13.5-82.2 30-176.8 22.7-129.2 30.7-173.1 32.3-176.4 3.2-6.5 6.6-8.6 13.5-8.5 7.1 0 100 21.6 106 24.6 5.3 2.5 8.2 6.9 8.2 12.4 0 2.5-17.6 64.8-44.6 157.5-60.7 209-54.1 187.5-58.4 192-3.5 3.7-4 3.9-9.6 3.8-3.5 0-18.3-3-36.4-7.3zM102.7 383.3c6.8-.2 17.8-.2 24.5 0 6.8.1 1.3.3-12.2.3s-19-.2-12.3-.3zm-16.8-2c-1.3-1.6-1.2-1.7.3-.4 1 .7 1.8 1.5 1.8 1.7 0 .8-.8.3-2.1-1.4zm-1.4-105.8c0-56.7.1-79.7.2-51.2.2 28.5.2 74.9 0 103-.1 28.2-.2 4.8-.2-51.8zm610.2 76.8c.7-.2 1.9-.2 2.5 0 .7.3.2.5-1.2.5s-2-.2-1.3-.5zm29 0c.7-.2 1.9-.2 2.5 0 .7.3.2.5-1.2.5s-2-.2-1.3-.5zm-86.3-24.6-1.9-2.2 2.2 1.9c1.3 1 2.3 2 2.3 2.3 0 .8-.8.2-2.6-2zm-5-5-1.9-2.2 2.2 1.9c1.3 1 2.3 2 2.3 2.3 0 .8-.8.2-2.6-2zm-453.7-4.4c.7-.2 1.9-.2 2.5 0 .7.3.2.5-1.2.5s-2-.2-1.3-.5zm-6.8-4c-1.3-1.6-1.2-1.7.4-.4 1 .7 1.7 1.5 1.7 1.7 0 .8-.8.3-2.1-1.4zM275.5 244c0-39.9.1-56.2.2-36.3.2 20 .2 52.6 0 72.5-.1 20-.2 3.7-.2-36.2zm432.3 55.3c1.8-.2 4.5-.2 6 0s0 .4-3.3.4-4.5-.2-2.7-.4zM209 293.5c3-3 5.7-5.5 6-5.5.2 0-2 2.5-5 5.5s-5.7 5.5-6 5.5c-.2 0 2-2.5 5-5.5zm-62-3.3-2.5-2.7 2.7 2.4c2.6 2.3 3.3 3.1 2.5 3.1a16 16 0 0 1-2.8-2.8zm533-56.5a25 25 0 0 1 3.2-3.3l3.3-2.9-3 3.2c-2.7 3-3.5 3.8-3.5 3zm-452-33.2a1113 1113 0 0 1 28-27.5 995 995 0 0 1-27 27.5 1113 1113 0 0 1-28 27.5 995 995 0 0 1 27-27.5zm476.8 19.8c.7-.3 1.6-.2 2 .1.3.3-.3.6-1.4.5-1.1 0-1.4-.3-.6-.6zm17 0c.7-.3 1.6-.2 2 .1.3.3-.3.6-1.4.5-1.1 0-1.4-.3-.6-.6zm-604.3-33.6-17-17.2 17.2 17c9.5 9.3 17.3 17.1 17.3 17.2 0 .8-1.7-1-17.5-17zm513.5 12c0-.3.8-1 1.7-1.8 1.6-1.3 1.7-1.2.4.4-1.3 1.6-2.1 2.1-2.1 1.3zm151.9-11.5c-1.3-1.5-1.2-1.6.3-.3 1.7 1.3 2.2 2.1 1.4 2.1-.2 0-1-.8-1.7-1.8zm65.1-16.6c0-.2.8-1 1.7-1.7 1.6-1.3 1.7-1.2.4.4-1.3 1.6-2.1 2.1-2.1 1.3zm7.8-4.3c.7-.3 1.6-.2 2 .1.3.3-.3.6-1.4.5-1.1 0-1.4-.3-.6-.6zm-155.5-1c1-.2 2.3-.2 3 0 .6.3-.2.5-1.8.5-1.7 0-2.2-.2-1.2-.5zm20 0c1-.2 2.3-.2 3 0 .6.3-.2.5-1.8.5-1.7 0-2.2-.2-1.2-.5z"/>
  <path fill="currentColor" d="M86.7 381.2C85 379.5 85 370.7 85 274.6V170l2.5-2.4c2.9-3 4-3 8.2-.8 1.8 1 21.5 19.8 43.8 41.7l40.6 40 10.7-10.5 41.2-40.6c27-26.8 33.4-32.3 37.1-32.3.5 0 2.1 1.1 3.4 2.5l2.5 2.4v73.3c0 45.7.4 72.8 1 72.2.5-.5 17.4-32.2 37.5-70.4a4549 4549 0 0 1 39.6-74.1c4.6-7.3 11.1-8.8 16-3.6 3.3 3.5 6.3 9 43.4 79.5l35 66.3.5-72.1.5-72.2 2.4-1.9c2.9-2.4 4.5-2.4 9.6 0 2.2 1 25.4 18.6 51.5 39l47.5 37 .5-52 .5-52 2.4-2c2.1-1.8 4.2-1.9 27.8-1.9H616l2.4 2.5 2.5 2.4v74.4l5-7.7a88.8 88.8 0 0 1 39.7-32.6 128.8 128.8 0 0 1 108.2 7.3c8.8 5 12.5 9 11.6 12.4-.7 2.8-18.8 32.7-21.8 36-2.8 3.1-5.1 2.9-14-1.2a68.7 68.7 0 0 0-34.7-8c-13.9 0-17.9.9-26 5.7a35.6 35.6 0 0 0-15 20 36.4 36.4 0 0 0-1.8 16c.7 12.7 3.4 19.6 10.7 26.9 9 9 21.2 12.3 36.1 10 11.1-1.8 10.8-1.1 11.2-22.7.3-16 .5-18.6 2-20.1 1.7-1.6 4.3-1.8 28.2-1.8 28 0 29.6.3 29.6 4.9 0 1.1-10.5 21.9-23.3 46.1l-23.3 44-6 1.2c-9.1 2-32.6 2.7-43 1.4a105.1 105.1 0 0 1-47-16.9 97.9 97.9 0 0 1-22.4-22.7l-4-6V325c0 10.2-.5 20.2-1 22.2-1.6 5.6-5.8 7.2-11.7 4.6-1.5-.7-24.6-18.3-51.3-39.1l-48.5-37.8-.5 35.6c-.5 33.8-.6 35.7-2.4 37-2.7 2-97.7 2.2-101.6.2-2-1-7-10.3-22-39.9-10.7-21.3-19.8-39-20.2-39.4a468 468 0 0 0-19.6 37.8c-13.3 27-19.7 39-21.7 40.6l-2.8 2.2h-49a867 867 0 0 1-50.3-.8c-3-2-3.4-5.5-3.4-32.8v-27.7l-15.4 15.1c-20.8 20.4-18.2 20.6-41.9-2.7L145 287.5v45.8c0 44.4 0 45.8-2 47.7-1.9 1.9-3.3 2-28.3 2-24.3 0-26.5-.1-28-1.8zm669.8-30.8a4 4 0 0 1-1-3.8A6969 6969 0 0 1 849 170.7c2.6-3 3.7-3.7 6.8-3.7 4.2 0 5.7 1 9.4 6 4.1 5.6 91.8 172.6 91.8 174.9a4 4 0 0 1-2 3c-1.1.7-11.8 1.1-27.7 1.1-22.6 0-26.2-.2-29.3-1.8-3.2-1.6-5-4.8-23.1-41.2l-19.6-39.5-19.6 39.8c-18.6 37.6-19.8 39.9-23.1 41.2-2.8 1.2-9 1.5-29 1.5-22 0-25.7-.2-27-1.6z"/>
</svg>
