<?xml version="1.0" encoding="UTF-8" standalone="no"?>
<!-- Created with Inkscape (http://www.inkscape.org/) -->

<svg
   xmlns:dc="http://purl.org/dc/elements/1.1/"
   xmlns:cc="http://creativecommons.org/ns#"
   xmlns:rdf="http://www.w3.org/1999/02/22-rdf-syntax-ns#"
   xmlns:svg="http://www.w3.org/2000/svg"
   xmlns="http://www.w3.org/2000/svg"
   xmlns:sodipodi="http://sodipodi.sourceforge.net/DTD/sodipodi-0.dtd"
   xmlns:inkscape="http://www.inkscape.org/namespaces/inkscape"
   width="50.800224mm"
   height="50.800049mm"
   viewBox="0 0 50.800224 50.800049"
   version="1.1"
   id="svg8"
   sodipodi:docname="icon-mdex.svg"
   inkscape:version="0.92.5 (2060ec1f9f, 2020-04-08)">
  <defs
     id="defs2">
	
	
	
	
	
	
	
	
	
	
	
	
	
</defs>
  <sodipodi:namedview
     id="base"
     pagecolor="#ffffff"
     bordercolor="#666666"
     borderopacity="1.0"
     inkscape:pageopacity="0.0"
     inkscape:pageshadow="2"
     inkscape:zoom="0.74653479"
     inkscape:cx="144.27898"
     inkscape:cy="-222.74013"
     inkscape:document-units="mm"
     inkscape:current-layer="layer1"
     showgrid="false"
     inkscape:window-width="1848"
     inkscape:window-height="1016"
     inkscape:window-x="72"
     inkscape:window-y="27"
     inkscape:window-maximized="1"
     fit-margin-top="0"
     fit-margin-left="0"
     fit-margin-right="0"
     fit-margin-bottom="0" />
  <metadata
     id="metadata5">
    <rdf:RDF>
      <cc:Work
         rdf:about="">
        <dc:format>image/svg+xml</dc:format>
        <dc:type
           rdf:resource="http://purl.org/dc/dcmitype/StillImage" />
        <dc:title></dc:title>
      </cc:Work>
    </rdf:RDF>
  </metadata>
  <g
     inkscape:label="Layer 1"
     inkscape:groupmode="layer"
     id="layer1"
     transform="translate(-66.826187,-38.766625)">
    <path
       style="fill:#272b30;fill-opacity:1;stroke:none;stroke-width:0.26458332"
       d="m 92.226416,38.766625 a 25.399999,25.399999 0 0 0 -25.400004,25.4 25.399999,25.399999 0 0 0 5.738667,16.056901 h 39.321111 a 25.399999,25.399999 0 0 0 5.74022,-16.056901 25.399999,25.399999 0 0 0 -25.399994,-25.4 z"
       id="path1069"
       inkscape:connector-curvature="0" />
    <path
       style="fill:#f79421;stroke-width:1.92139792"
       d="m 274.26172,303.20703 a 95.999999,95.999999 0 0 0 8.01562,8.59375 h 132.70704 a 95.999999,95.999999 0 0 0 7.89257,-8.59375 z m 17.14453,16.29492 a 95.999999,95.999999 0 0 0 13.89063,8.59375 h 86.77734 a 95.999999,95.999999 0 0 0 13.67773,-8.59375 z"
       transform="scale(0.26458333)"
       id="path1001"
       inkscape:connector-curvature="0" />
    <rect
       style="fill:#272b30;stroke-width:0.50836986"
       x="92.487953"
       y="61.499737"
       width="8.5578976"
       height="4.744616"
       id="rect1007" />
    <path
       style="fill:#e6e6e6;stroke-width:1.92139792"
       d="m 345.8457,167.30469 c -0.0653,0 -0.13,0 -0.19531,0.0117 -0.16139,0.009 -0.3228,0.0415 -0.47266,0.0742 -19.29852,3.21066 -36.74788,11.88803 -50.69531,24.38672 -5.87948,5.26271 -11.13894,11.20297 -15.65039,17.69922 -1.89834,2.72647 -3.65959,5.54022 -5.28125,8.44922 -0.96839,-0.52646 -1.95787,-1.02948 -2.95508,-1.51367 -3.13572,-1.5448 -6.36745,-2.90837 -9.69531,-4.10156 -0.99124,-0.35524 -1.99581,-0.68314 -3.00195,-1.00586 a 95.999999,95.999999 0 0 0 -5.32617,31.21484 95.999999,95.999999 0 0 0 15.09765,51.6582 H 376.1875 c 4.94952,0 9.14895,-3.24365 10.59961,-7.70898 0.0404,-0.17291 0.0986,-0.35629 0.15039,-0.52344 0.66482,-2.15773 1.98562,-4.03831 3.7168,-5.41211 0.0113,-0.0117 0.0101,-0.0117 0.0215,-0.0117 0.13833,-0.1172 0.28963,-0.22619 0.4336,-0.32226 0.19199,-0.14986 0.39596,-0.27943 0.5996,-0.40625 4.74588,-3.54498 7.99757,-8.97924 8.67774,-15.17383 0.0979,-0.79546 0.13867,-1.61114 0.13867,-2.42773 -0.004,-2.54394 -0.43706,-4.98487 -1.23828,-7.26172 -0.161,-0.13797 -0.32138,-0.26823 -0.48242,-0.40625 -3.69294,-3.21066 -6.85101,-7.02353 -9.30078,-11.28711 -0.0227,-0.0423 -0.0413,-0.0867 -0.0625,-0.12891 h -0.0117 c -2.70531,-4.77852 -4.54344,-10.11527 -5.28321,-15.79492 -0.0378,-0.34394 -0.0747,-0.68927 -0.11132,-1.0332 0,-0.0212 -0.008,-0.0413 -0.008,-0.0625 -0.31143,-1.99825 -1.16876,-3.82364 -2.39843,-5.32618 -0.11906,-0.13065 -0.23629,-0.26969 -0.35157,-0.39843 -10.14883,-11.39389 -23.64912,-19.74745 -38.94922,-23.4961 -0.0348,-0.73013 -0.0508,-1.46927 -0.0508,-2.21093 0,-8.48298 2.18033,-16.45243 6.00391,-23.38868 0.21135,-0.38812 0.33008,-0.83612 0.33008,-1.32031 0,-1.5352 -1.23427,-2.77148 -2.76563,-2.77148 z m 19.00391,71.3457 c 3.23179,0 6.289,0.74093 9.00586,2.08399 0.35546,0.16138 0.69711,0.34302 1.04297,0.53515 0.098,0.0538 0.1811,0.10833 0.26758,0.16211 0.72052,0.48419 1.1914,1.31018 1.1914,2.23438 0,1.49292 -1.21196,2.70507 -2.69336,2.70507 -0.46113,0 -0.90283,-0.11856 -1.28711,-0.32031 -1.88105,-1.08559 -4.01803,-1.77254 -6.29297,-1.95508 -0.40925,-0.0325 -0.81742,-0.0547 -1.23437,-0.0547 -1.00105,0 -1.9785,0.097 -2.92383,0.29101 -1.56017,0.29012 -3.02803,0.83647 -4.37109,1.57813 -0.0231,0.009 -0.0394,0.0313 -0.0605,0.043 -0.0865,0.0325 -0.16138,0.0868 -0.23633,0.13868 -0.36313,0.18444 -0.77276,0.27929 -1.20508,0.27929 -1.48908,0 -2.70507,-1.21215 -2.70507,-2.70507 0,-0.93572 0.47283,-1.75019 1.19336,-2.23438 0.0865,-0.0634 0.1715,-0.10833 0.26757,-0.16211 1.73887,-0.97607 3.64446,-1.70453 5.65039,-2.14453 1.41416,-0.31317 2.88618,-0.47461 4.39063,-0.47461 z"
       transform="scale(0.26458333)"
       id="path1011"
       inkscape:connector-curvature="0" />
    <path
       style="fill:#f79421;stroke-width:0.50836986"
       inkscape:connector-curvature="0"
       d="m 72.453609,57.529877 c 1.366498,6.568647 7.065324,11.496784 13.892731,11.496784 4.017646,0 7.644357,-1.710664 10.227892,-4.454845 -0.01373,-5.08e-4 -0.02796,-0.002 -0.04169,-0.002 -0.264861,0 -0.523113,0.02542 -0.77323,0.07676 -0.412797,0.07626 -0.801191,0.221649 -1.156542,0.417371 -0.0056,0.0031 -0.01068,0.0086 -0.01627,0.01169 -0.02288,0.0081 -0.0427,0.02237 -0.06253,0.0366 -0.09608,0.04829 -0.204365,0.07422 -0.318748,0.07422 -0.393987,0 -0.715785,-0.321289 -0.715785,-0.716293 0,-0.247068 0.125059,-0.463125 0.315698,-0.590726 0.02288,-0.01728 0.04575,-0.02847 0.07117,-0.0427 0.460074,-0.25876 0.963869,-0.45194 1.494607,-0.568357 0.37416,-0.08236 0.763571,-0.125059 1.161625,-0.125059 0.390936,0 0.770689,0.0427 1.137223,0.120992 1.216021,-1.640001 2.097026,-3.552489 2.5449,-5.63223 -2.59777,-2.652165 -5.916408,-4.597696 -9.640726,-5.509712 -0.0092,-0.19318 -0.01373,-0.389411 -0.01373,-0.585134 0,-2.244961 0.577,-4.35317 1.588656,-6.188386 0.05592,-0.102182 0.08744,-0.22114 0.08744,-0.34925 0,-0.406187 -0.326882,-0.733069 -0.732053,-0.733069 -0.01729,0 -0.03406,0 -0.05134,0.0031 -0.0427,0.0025 -0.08541,0.01118 -0.125059,0.01983 -5.106575,0.848977 -9.722574,3.145284 -13.41283,6.45223 -1.555104,1.391916 -2.94702,2.963287 -4.140673,4.682086 -0.4738,0.680199 -0.912015,1.382766 -1.320744,2.106176"
       id="path1013" />
    <path
       style="fill:#272b30;stroke-width:0.50836986"
       inkscape:connector-curvature="0"
       d="m 101.88111,71.102843 c -0.61717,-0.183013 -1.23077,-0.366026 -1.85555,-0.503794 -0.619199,-0.158611 -1.243477,-0.292821 -1.870297,-0.409746 -1.254149,-0.228258 -2.514906,-0.402121 -3.781255,-0.482443 -1.266858,-0.106249 -2.536766,-0.05389 -3.80159,0.04372 l -0.947093,0.106249 c -0.315189,0.04423 -0.624278,0.118959 -0.937942,0.174879 -0.638513,0.07727 -1.235339,0.309089 -1.869785,0.442282 1.17281,-0.525654 2.419332,-0.926758 3.705508,-1.111296 1.281601,-0.192673 2.589128,-0.259269 3.882929,-0.162679 1.293801,0.09456 2.57896,0.286212 3.8326,0.609536 1.252115,0.320781 2.484915,0.724427 3.642475,1.293292"
       id="path1015" />
    <path
       style="fill:#272b30;stroke-width:0.50836986"
       inkscape:connector-curvature="0"
       d="m 101.32393,72.269044 c -0.63749,-0.08947 -1.27092,-0.178946 -1.910452,-0.222158 -0.636479,-0.06507 -1.273467,-0.105232 -1.910962,-0.127601 -1.273975,-0.03914 -2.546425,-0.0244 -3.810741,0.0849 -1.268382,0.08286 -2.51643,0.323323 -3.752277,0.607502 l -0.921675,0.246051 c -0.304513,0.08998 -0.599368,0.209957 -0.900831,0.311631 -0.619195,0.171321 -1.175351,0.489052 -1.782345,0.715276 1.081303,-0.693925 2.25462,-1.2755 3.49911,-1.649152 1.239405,-0.381277 2.521514,-0.641054 3.815824,-0.737644 1.292784,-0.09862 2.594211,-0.100149 3.880895,0.03304 1.283634,0.132176 2.564214,0.347725 3.793454,0.738153"
       id="path1017" />
    <path
       style="fill:#272b30;stroke-width:0.50836986"
       inkscape:connector-curvature="0"
       d="m 101.23649,73.627916 c -0.64258,0.05084 -1.280073,0.09964 -1.91401,0.195214 -0.634446,0.07422 -1.265333,0.172338 -1.89317,0.288246 -1.252114,0.236901 -2.491012,0.526163 -3.701949,0.905407 -1.220596,0.354842 -2.387305,0.858637 -3.532662,1.404117 l -0.846436,0.438724 c -0.278078,0.154036 -0.540397,0.333999 -0.812883,0.498202 -0.567849,0.301463 -1.042158,0.731544 -1.586622,1.083336 0.905915,-0.91049 1.926213,-1.732016 3.060895,-2.364936 1.128072,-0.640038 2.32325,-1.170776 3.566722,-1.54392 1.240931,-0.376193 2.510331,-0.65783 3.795998,-0.805766 1.283125,-0.149461 2.57896,-0.214532 3.864117,-0.09862"
       id="path1019" />
    <path
       style="fill:#f27baa;stroke-width:0.50836986"
       inkscape:connector-curvature="0"
       d="m 105.51697,67.342432 c -0.21454,-0.186064 -0.42093,-0.381786 -0.62174,-0.5831 -0.54396,0.329932 -0.90998,0.926249 -0.90998,1.610007 0,1.039108 0.84237,1.881985 1.88147,1.881985 0.0107,0 0.0193,-10e-4 0.0295,-0.0015 0.0112,-0.07931 0.03,-0.15607 0.0381,-0.236392 0.0254,-0.210465 0.0366,-0.426014 0.0366,-0.642071 0,-0.67359 -0.11387,-1.318712 -0.32739,-1.92113 -0.0412,-0.0366 -0.0839,-0.07066 -0.12658,-0.107774"
       id="path1021" />
    <path
       style="fill:#ffffff;stroke-width:0.50836986"
       inkscape:connector-curvature="0"
       d="m 89.924246,53.0913 c 0,0.08795 0,0.178946 0.0031,0.266894 -2.289698,0.9293 -4.372998,2.26733 -6.153817,3.921057 -0.07371,-0.505828 -0.111333,-1.020298 -0.111333,-1.545953 0,-5.193506 3.668397,-9.531934 8.557898,-10.563417 -1.452413,2.290206 -2.295799,5.006426 -2.295799,7.921419"
       id="path1023" />
  </g>
</svg>
