<svg xmlns="http://www.w3.org/2000/svg" viewBox="0 0 2006.59 372.46">
  <path fill="currentColor" d="m331.52 371.34-1.29-1.13-.1-18.36-.12-18.36 1.11-1.12c.98-.97 1.82-1.15 6.8-1.42 6.19-.34 8.34-1.16 10.26-3.9 2.33-3.32 2.24.9 2.14-110.34-.1-104.35-.1-105 .9-106.6.55-.9 1.54-1.76 2.2-1.92.66-.17 5.9-.22 11.64-.12 9.43.16 10.78.3 13.84 1.36a29.36 29.36 0 0 1 16.59 15.37l1.48 3.41.41 25.25c.23 13.89.23 61.14-.01 105l-.44 79.75-1.37 4.5c-3.68 12.08-10.65 19.66-22.49 24.43-7.96 3.21-21.54 5.3-34.66 5.31-5.1.01-5.71-.09-6.89-1.11zM25.51 342.98c-9.92-2.63-17.48-8.57-21.81-17.15-4.04-8-3.7 4.81-3.7-137.62C0 82.48.13 60.63.7 57.71c1.13-5.75 4.51-11.78 9.27-16.5a31.2 31.2 0 0 1 15.5-8.75c3.8-.96 5.66-1 47.66-1 34.74 0 43.67.13 43.52.63-.48 1.52-10.65 5.9-18.4 7.93-1.55.4-12.76.68-36.24.89l-34 .3-3.79 1.64a24 24 0 0 0-13.55 14.74c-.97 3.07-.99 5.12-.94 130.23.04 122.9.07 127.2.98 130.12 2.52 8.1 9.8 14.5 18.26 16.06 4.2.78 188.24.24 191.04-.56 8.2-2.35 15.18-10.13 16.65-18.59.51-2.92.34-252.5-.18-255.36a29.61 29.61 0 0 0-2-5.32c-2.33-4.89-6.66-8.94-12.04-11.26l-3.93-1.7-22.05.17c-23.8.17-24.87.07-26.22-2.45-.82-1.54-.28-4.9 1-6.17 1.03-1.04 1.32-1.05 24.9-1.04l23.87.01 3.73 1.37c10.63 3.91 18 11.41 21.35 21.73l1.42 4.38v257.5l-1.6 4.43c-1.93 5.3-3.93 8.57-7.64 12.5-4.6 4.87-9.23 7.52-16.33 9.34-3.76.96-5.96.98-97.89.96-89.93-.03-94.2-.07-97.54-.96zm6.25-20.04c-4.89-.58-7.74-2.64-10.32-7.48-.9-1.7-.93-5.67-.93-127.75v-126l1.48-2.68c1.73-3.12 4.06-5.2 6.73-6 1.32-.4 10.33-.57 29.6-.58 15.23 0 29.94-.23 32.69-.5 19.75-1.9 34.07-9.03 46.64-23.2 5.3-5.98 11.1-15.47 13.81-22.64a25.14 25.14 0 0 1 2.37-4.87c1.25-1.6 3.06-1.66 3.86-.15.86 1.63.52 257.3-.36 261.56a98.47 98.47 0 0 1-5.89 18.18 73.45 73.45 0 0 1-54.2 41.44c-4.56.77-8.94.9-33.98.94-15.82.04-29.99-.09-31.5-.27zm143.7-.15c-.17-.46.69-2.03 2.13-3.92a87.47 87.47 0 0 0 4.11-5.9c.93-1.52 2.1-3.36 2.61-4.09 1.81-2.64 6.85-13.28 8.84-18.67 2.75-7.42 4.89-15.8 5.97-23.29.82-5.75.89-12.13.89-86.7v-80.5l-14-.26c-7.7-.13-14.38-.43-14.83-.66-2.39-1.18-2.86-8.2-.72-10.68l1.2-1.4 14.18-.26 14.17-.25.13-15.72c.17-19.68-.7-18.03 9.4-18.03 7.75 0 9.77.48 12.39 2.92 3.1 2.9 3.52 4.47 3.87 14.58.37 10.74.35 189.58-.03 222.5-.25 21.57-.3 22.31-1.34 24.25-1.4 2.62-2.88 3.95-5.93 5.35-2.45 1.13-2.85 1.16-22.62 1.32-17.59.14-20.16.07-20.41-.6zm560.3-22.12c-.69-.11-4.15-.57-7.7-1.01-17.42-2.18-31.97-9.24-43.36-21.05-10.74-11.15-17.32-25.44-20.95-45.51-1.82-10.08-2.5-18.17-2.49-29.84.02-26.62 5.5-50.19 15.2-65.3 4.58-7.13 11.89-14.77 18.08-18.91a84 84 0 0 1 19.97-9.43c9.83-3.03 26.39-5 37-4.41 25.7 1.43 43.4 8 56.55 21 12.44 12.29 20.06 29.6 23.32 53 .96 6.91 1.11 10.19 1.11 24 0 13.76-.15 17.12-1.1 24-4.24 30.72-16.15 51.06-37.02 63.2-6.91 4.03-18.57 7.9-28.11 9.34-4.98.75-27.53 1.43-30.5.92zm20.82-43.09c12.59-3.45 20.67-13.84 24.94-32.05.97-4.12 2.23-17.9 2.24-24.37 0-6.31-1.3-19.46-2.3-23.45-2.17-8.51-4.89-14.7-8.56-19.5-2.67-3.47-8.18-7.49-12.67-9.22-5.25-2.03-9.7-2.71-15.69-2.4-16.94.92-28.08 11.36-32.7 30.65-1.99 8.36-2.58 14.12-2.58 25.08 0 11.55.66 18.17 2.55 25.7 5.3 21.08 17.4 31.42 35.95 30.74 3.08-.11 6.72-.6 8.82-1.18zm360.18 43.1c-.69-.12-4.18-.58-7.75-1.03a94.53 94.53 0 0 1-22.62-6c-26.41-10.93-41.75-34.14-46.22-69.94-1.6-12.83-1.6-30.8.02-43.45 1.3-10.14 3.9-20.9 6.97-28.71 5.97-15.25 16.64-27.86 30.02-35.5a43.79 43.79 0 0 1 3.92-2.09c.13 0 1.63-.64 3.33-1.42 10.32-4.77 24.58-7.31 41.08-7.32 13.91 0 23.22 1.4 34 5.12 14.61 5.04 25.92 13.53 33.83 25.38 7.98 11.97 12.28 24.23 14.98 42.7 1.3 8.81 1.5 11.83 1.6 22.16l.09 11.96-1.56 1.4-1.56 1.4-30.44.37c-16.74.2-42.6.3-57.46.19-25.5-.18-27.1-.14-28.42.73-.77.5-1.72 1.7-2.12 2.65-.66 1.57-.63 2.32.28 7.4 2.91 16.27 10.8 26.87 23.13 31.07a40.59 40.59 0 0 0 25.47.03c6.55-2.2 10.9-5.05 20.9-13.67 5.09-4.38 6.62-4.65 26.33-4.65 15.47 0 16.54.06 18.06.99 2.85 1.74 2.81 5.21-.14 12.4-2.73 6.61-7.14 14.97-9.56 18.1-12.82 16.63-28.36 25.68-49.41 28.8-5.17.77-23.9 1.41-26.75.92zm40.3-120.42c1.44-1.44 1.7-2.05 1.7-4 0-3.02-2.6-11.13-5.04-15.7-4.88-9.14-11.5-14.04-21.85-16.2a36.93 36.93 0 0 0-23.61 2.98c-2.83 1.33-4.69 2.7-7.54 5.57-4.56 4.57-7.2 8.99-9.65 16.1-2.58 7.54-2.39 9.77 1.05 12.03 1.3.86 3.23.92 32.31.92h30.93l1.7-1.7zm-677.3 58.58c0-35.9.2-60.33.52-63.88 2.75-30.68 14.12-50.04 35.67-60.75 10.2-5.07 20.92-7.6 37.17-8.79 13.05-.95 29.72.76 40.9 4.2 19.32 5.93 32.66 17.68 39.84 35.1 2.32 5.6 4.8 15.16 5.76 22.08.8 5.84.88 11.9.89 68.16v61.75l-12.75.14c-14.11.16-17.6-.2-22.43-2.35-4.14-1.84-7.13-4.38-9.02-7.69-3.12-5.45-3.04-3.87-3.05-61.67v-52.57l-1.26-4.81a40.1 40.1 0 0 0-2.85-7.68c-3.34-5.96-9.43-10.29-17.4-12.36-4.98-1.29-14.33-1.55-19.69-.54-12.54 2.36-18.88 7.36-22.74 17.92l-1.32 3.6-.14 64.13-.13 64.12h-47.98v-58.12zm432.34 56.72c-.73-.8-2.13-4.58-8.57-23.1-.9-2.61-3.84-10.93-6.52-18.5-2.68-7.56-5.17-14.65-5.53-15.75-.36-1.1-1.7-4.92-2.98-8.5a1418.1 1418.1 0 0 1-3.97-11.25c-.9-2.61-3.05-8.68-4.76-13.5a2564.26 2564.26 0 0 1-7.91-22.5 8375.05 8375.05 0 0 0-11.6-33 1258 1258 0 0 1-4.27-12.25c-.64-1.92-2.1-6.08-3.24-9.25-5.72-15.89-5.8-16.28-3.53-18.54l1.46-1.46h45.15l1.37 1.38c.97.98 1.76 2.8 2.75 6.37.76 2.75 2.02 7.14 2.8 9.75a2422.5 2422.5 0 0 1 6.01 20.75l3.24 11.25a7365.61 7365.61 0 0 1 6.57 22.75c2.98 10.28 4.57 15.8 6.2 21.5.86 3.03 2.32 8.09 3.24 11.25.92 3.17 2.06 7.16 2.53 8.87 1.26 4.65 3.72 6.74 6.95 5.93 2.23-.56 3.57-2.64 4.94-7.72.72-2.66 2-7.19 2.82-10.08.83-2.88 2.3-8.06 3.26-11.5l3.24-11.5c2.61-9.11 5.02-17.58 6.46-22.75 1.31-4.69 2.67-9.48 6.12-21.5l3.17-11.25c3-10.8 4.5-13.78 8.9-17.84 2.8-2.58 4.28-3.36 8.91-4.64 3.38-.93 5.1-1.02 21.1-1.02h17.42l1.47 1.46c2.23 2.24 2.02 3.46-3.04 17.54-1.14 3.17-2.7 7.55-3.47 9.75l-10.79 30.5a16396.3 16396.3 0 0 0-14.75 41.75 669.27 669.27 0 0 0-2.98 8.5 663.4 663.4 0 0 1-3.17 9 8142.48 8142.48 0 0 0-15.82 44.75c-4.86 13.82-8.51 23.45-9.14 24.13l-1.06 1.12H937c-22.58 0-24.14-.05-24.9-.9zm321.1.08c-.58-.7-.71-19.87-.82-120.02l-.13-119.2 1.23-1.23c1.23-1.23 1.23-1.23 11.9-1.23 11.81 0 14.28.39 19.88 3.1 4.07 1.97 9.3 7.09 11.15 10.9a43.41 43.41 0 0 1 2.34 6.7c1 3.91 1 5.34 1 111.77 0 96.77-.07 107.92-.77 108.92l-.78 1.11h-22.16c-20 0-22.23-.08-22.85-.82zm228.8.27c-2.2-.22-6.92-1-10.5-1.72-25.77-5.17-43.22-18.38-54.14-40.98-7.44-15.4-12.33-42.5-11.35-63 .98-20.76 4.9-38.14 11.62-51.49 13.4-26.66 40.26-40.82 77.4-40.83 11.1 0 15.22.42 25.29 2.61 8.15 1.78 13.57 3.68 19.87 7 12.32 6.46 21.18 15.42 27.77 28.07 3.08 5.9 6.66 15.8 7.11 19.64.53 4.46 1.78 4.25-25.7 4.25-13.98 0-24.04-.2-24.56-.47-.5-.26-1.77-1.97-2.84-3.8a30.96 30.96 0 0 0-15.32-13.27c-4.78-1.97-9.47-2.64-16.21-2.31-9.44.45-17.08 3.72-22.7 9.71-8.83 9.4-13.48 25.81-13.48 47.52 0 30.38 8.42 48.82 25.25 55.27 4.86 1.86 7.96 2.35 14.8 2.35 6.85 0 9.75-.53 14.98-2.73 4.95-2.09 7.73-4.04 13.22-9.25 8.44-8.03 9.54-8.32 31.89-8.7 16.2-.29 17.33-.2 19.48 1.6 1.95 1.64.55 7.35-4.48 18.3-4.6 10-11.2 18.73-18.87 24.99-7.1 5.78-12.48 8.94-20.84 12.23-4.74 1.87-15.2 4.36-21.18 5.04-5.22.6-20.67.58-26.5-.03zm116.01-55.32c.01-30.73.06-85.3.13-121.26l.12-65.38 1.7-1.87 1.72-1.87 10.3-.16c5.78-.09 11.82.07 13.77.38 7.88 1.22 14.06 5.93 17.69 13.47l2.07 4.31.13 114.13.14 114.12H1578V240.6zm136.4 55.32c-5.3-.61-16.19-3.22-21.87-5.24-8.9-3.14-18.77-8.48-25.54-13.8-11.2-8.8-18.27-25.73-20.03-47.9-.86-10.91-1.04-120.07-.2-123.1a7.42 7.42 0 0 1 2.04-3.13l1.52-1.28h40.06l1.61 1.71a7.6 7.6 0 0 1 1.93 3.63c.17 1.05.32 29.5.32 63.22 0 68.46-.07 66.77 3.34 73.77 4.8 9.83 14.5 14.66 29.42 14.67 18.2 0 28.69-7.12 32.05-21.75.86-3.74.92-7.61 1.02-59.25.05-30.39.23-56.4.38-57.81.93-8.25 4.44-13.36 11.18-16.27l3.87-1.67h28.72l1.39 1.39 1.39 1.39.15 60.36c.1 40.44-.04 62.26-.4 66.11-.7 7.4-3.2 19.6-5.08 24.74-3.11 8.48-7.04 14.8-12.63 20.3-9.3 9.17-31.33 17.71-51.4 19.93-5.55.61-17.93.6-23.24-.02zm187.38-.03c-7.04-.67-19.06-3.22-25.29-5.38-24.25-8.38-39-24.8-45.2-50.3-3.2-13.15-3.15-11.34-3.11-103.12.03-80.78.06-83.2.99-85.3.75-1.7 1.47-2.42 3.4-3.37 2.34-1.15 2.82-1.2 13.43-1.2 9.23.01 11.48.16 13.98.93 8.2 2.51 12.26 6.5 14.36 14.07 1.07 3.88 1.11 4.97 1.38 35.25l.28 31.25 2.86-3.85c15.26-20.54 36-28.48 63.79-24.4 27.73 4.05 46.67 19.77 56.32 46.75 8.58 23.98 10.12 62.78 3.52 88.75-7.18 28.23-23.12 46.08-48.97 54.82-5.76 1.95-17.71 4.4-25.2 5.16-6.04.61-19.77.58-26.54-.06zm24.47-40.9c11.04-2.28 19.32-8.8 24.75-19.52 2.02-3.98 4.68-12.97 5.54-18.75 1.26-8.46 1.47-22.32.47-31.25-2.81-24.99-13.3-39.5-30.96-42.85-4.84-.92-17.09-.63-21.06.49-11.56 3.27-20.64 12.67-24.74 25.61-2.17 6.88-2.55 8.6-3.52 16.22-2.43 19.07-.15 39.79 5.64 51.28 6.67 13.24 17.48 19.63 33.38 19.71 3.85.02 7.31-.3 10.5-.95zm-1506.4-38.85c-.34-.14-1.07-1.13-1.62-2.2-.9-1.76-.98-2.97-.98-13.87 0-11.63.03-12 1.14-13.65l1.15-1.7 19.3-.13 19.3-.13 1.27 1.5c1.68 2 1.96 4.6 1.74 16.51-.13 7.13-.37 10.13-.89 11.16-1.4 2.8-1.81 2.85-21.61 2.8-9.99-.02-18.44-.15-18.8-.3zM353.45 90.48c-2.61-1.08-2.68-1.55-2.68-18.29V56.65l1.44-1.39 1.45-1.38 13.93.2c13.42.18 14.06.24 17.5 1.47 4.2 1.5 7.13 3.7 9.14 6.87 2.54 4.02 3.04 6.75 3.04 16.8v9.07l-1.3 1.21-1.28 1.21-20.09.1c-11.04.06-20.56-.1-21.15-.33z"/>
</svg>
