<svg xmlns="http://www.w3.org/2000/svg" viewBox="0 0 246.51 343.94">
  <path fill="currentColor" d="M25.5 342.98c-9.91-2.63-17.47-8.57-21.8-17.15-4.04-8-3.7 4.81-3.7-137.62C0 82.48.13 60.63.7 57.71c1.13-5.75 4.51-11.78 9.27-16.5a31.2 31.2 0 0 1 15.5-8.75c3.8-.96 5.66-1 47.66-1 34.74 0 43.67.13 43.52.63-.48 1.52-10.65 5.9-18.4 7.93-1.55.4-12.76.68-36.24.89l-34 .3-3.79 1.64a24 24 0 0 0-13.55 14.74c-.97 3.07-.99 5.12-.94 130.23.04 122.9.07 127.2.98 130.12 2.52 8.1 9.8 14.5 18.26 16.06 4.2.78 188.24.24 191.04-.56 8.2-2.35 15.18-10.13 16.65-18.59.51-2.92.34-252.5-.18-255.36a29.61 29.61 0 0 0-2-5.32c-2.33-4.89-6.66-8.94-12.04-11.26l-3.93-1.7-22.05.17c-23.8.17-24.87.07-26.22-2.45-.82-1.54-.28-4.9 1-6.17 1.03-1.04 1.32-1.05 24.9-1.04l23.87.01 3.73 1.37c10.63 3.91 18 11.41 21.35 21.73l1.42 4.38v257.5l-1.6 4.43c-1.93 5.3-3.93 8.57-7.64 12.5-4.6 4.87-9.23 7.52-16.33 9.34-3.76.96-5.96.98-97.89.96-89.93-.03-94.2-.07-97.54-.96zm6.26-20.04c-4.89-.58-7.74-2.64-10.32-7.48-.9-1.7-.93-5.67-.93-127.75v-126l1.48-2.68c1.73-3.12 4.06-5.2 6.73-6 1.32-.4 10.33-.57 29.6-.58 15.23 0 29.94-.23 32.69-.5 19.75-1.9 34.07-9.03 46.64-23.2 5.3-5.98 11.1-15.47 13.81-22.64a25.14 25.14 0 0 1 2.37-4.87c1.25-1.6 3.06-1.66 3.86-.15.86 1.63.52 257.3-.36 261.56a98.47 98.47 0 0 1-5.89 18.18 73.45 73.45 0 0 1-54.2 41.44c-4.56.77-8.94.9-33.98.94-15.82.04-29.99-.09-31.5-.27zm143.7-.15c-.17-.46.69-2.03 2.13-3.92a87.47 87.47 0 0 0 4.11-5.9c.93-1.52 2.1-3.36 2.61-4.09 1.81-2.64 6.85-13.28 8.84-18.67 2.75-7.42 4.89-15.8 5.97-23.29.82-5.75.89-12.13.89-86.7v-80.5l-14-.26c-7.7-.13-14.38-.43-14.83-.66-2.39-1.18-2.86-8.2-.72-10.68l1.2-1.4 14.18-.26 14.17-.25.13-15.72c.17-19.68-.7-18.03 9.4-18.03 7.75 0 9.77.48 12.39 2.92 3.1 2.9 3.52 4.47 3.87 14.58.37 10.74.35 189.58-.03 222.5-.25 21.57-.3 22.31-1.34 24.25-1.4 2.62-2.88 3.95-5.93 5.35-2.45 1.13-2.85 1.16-22.62 1.32-17.59.14-20.16.07-20.41-.6z"/>
</svg>
