<svg version="1" xmlns="http://www.w3.org/2000/svg" viewBox="0 0 2250 2250">
  <path fill="currentColor" d="M1309.5 44.6c-4.5 2.3-9.4 7.4-12 12.4-1.2 2.5-5.8 13.3-10 24-9.3 23.2-28.3 60.8-37.3 73.7-1.1 1.5-5 7.5-8.7 13.3-22.7 35.3-54.3 69.9-89 97.5-28.5 22.7-68.5 45.5-99 56.5-3.3 1.2-7.5 2.8-9.3 3.7-1.8.8-4 1.6-5 1.8-.9.1-6 1.7-11.2 3.4-8 2.5-19.8 5.7-28.5 7.6-4.3 1-7.1 1.6-9.5 2-1.4.3-5 1-8 1.6-5.8 1.1-6.1 1.1-15 2.4-3 .4-6.4.9-7.5 1.1-1.1.2-4.9.6-8.5 1-3.6.3-8.5.8-11 1.1-2.5.3-60.3.7-128.5.9-227.6.7-225.9.7-234.1 3.2-27 8.2-46.7 29.2-52.9 56.2-1.6 7-1.7 53.1-1.7 732.2 0 398.6.3 727.5.7 731 1.8 15.7 10.8 33.4 22.2 43.8 6.7 6.1 10.2 9 11 9 .3 0 1.4.6 2.2 1.3 3 2.5 15.6 7.5 23.5 9.2 7.4 1.7 18.9 1.8 168 1.8 159.8-.1 181.5-.4 200.4-2.8 2.3-.3 6.3-.7 9-1 2.6-.3 6.3-.8 8.2-1.2 1.9-.3 4.4-.7 5.5-.8 1.1-.2 3.4-.5 5-.9 1.7-.3 5.7-1.1 9-1.6 24.2-4.3 61.9-16.5 91.5-29.6 28.1-12.4 66.7-36 90-55 28.8-23.6 53.9-49.3 74.3-76.4 4.8-6.3 9.1-12 9.5-12.5.4-.6 3.7-5.5 7.3-11 26.2-39.9 45.7-83.8 56.9-128.5 3.6-14.3 7.5-33.7 8.5-42.6.4-3.3.9-6.1 1-6.4.2-.3.6-4.1 1-8.5s.9-8.8 1.1-9.8c1.4-7.9 1.7-115.3 1.7-758.8V57.2l-2.4-4.8c-4.1-8.3-11.5-11.4-18.4-7.8z"/>
  <path fill="currentColor" d="M582.5 228.7C530.3 233.6 483 257.6 450 296c-1.2 1.4-3.1 3.6-4.4 5-1.2 1.4-3.7 4.7-5.6 7.5-1.8 2.7-3.6 5.2-4 5.5-3 2.5-17 29.4-21.5 41.5-2.5 6.7-8 26.2-8.9 31.5-.3 1.4-1.1 6.1-1.8 10.5-1.1 6.6-1.3 138.7-1.3 744 0 404.8.3 738.8.8 742.2.4 3.5.9 6.8 1.2 7.5.2.7.6 2.9.9 4.8 1.5 10.2 4.5 21.4 8.9 33 23.5 62.6 76.9 109 142.2 123.5 19 4.2-18.3 3.9 565 4.2 352.4.1 547.8-.1 551-.8 2.8-.5 6.6-1.1 8.5-1.4 1.9-.3 4.9-.7 6.5-1 1.7-.3 3.9-.7 5-.9 5.1-.9 24.9-7 30.5-9.3 41.6-17.6 72.6-43.7 95.2-80.3 11.8-19.2 22.1-46 25.2-65.5.4-2.2.9-5.4 1.2-7 .3-1.7.9-5.9 1.4-9.5.5-3.6.9-334.4.9-739 0-715.2-.1-732.8-1.9-745.1-6.8-44.9-27.2-84.5-58.9-114.3-3-2.8-6.4-6-7.6-7.1-1.2-1.1-4.8-4-8.1-6.4-3.2-2.5-6.1-4.7-6.4-5-.3-.3-1.4-1.1-2.5-1.8-1.1-.6-5.6-3.4-10-6.1-10.5-6.5-37.1-18.4-44-19.8-.5-.1-3-.7-5.5-1.4s-10.3-2.3-17.5-3.7l-13-2.6-127.5-.1-127.5-.1-5.6 2.7c-9.3 4.6-14.9 11.9-16.7 21.6-2.7 14.7 4.6 27.8 18.8 33.7 4.3 1.8 9.8 1.9 126 2.1 66.8 0 124 .4 127 .8 6.9.8 10.4 1.4 15.5 2.8 2.2.5 4.9 1.2 6 1.4 9 1.6 31.4 12.3 42.5 20.2 29.6 21.1 50.7 56.2 55.3 92.1 1 7.2 1.2 175.6 1.1 739 0 401.3-.4 731.5-.8 733.8-5.6 36.3-22.3 65.8-50.1 88.5-13.4 10.9-35.3 21.6-52.9 25.7-15.7 3.7-7.6 3.7-561.1 3.5-295.9-.1-539.6-.4-541.5-.8-1.9-.3-5.9-1.1-8.7-1.7-2.9-.5-5.5-1-5.8-1.1-.7 0-14.6-4.5-18.5-6-5.8-2.2-22.9-11.6-28.3-15.7-31.6-23.5-52-58.5-55.5-95.1-.8-9.1-.8-1457.8.1-1467 2-20.9 9.9-42.1 23.1-61.9 4.5-6.8 21.4-24.8 27.6-29.6 17.8-13.7 39.6-23.2 61.5-27 9.2-1.6 24.1-1.8 181.5-2 94.3-.2 173.5-.5 176-.9 2.5-.3 7.4-.8 11-1.1 9.4-.8 13.9-1.4 26.5-3.6 9-1.5 32.7-6.9 34.4-7.9.9-.4 2.1-.9 2.6-.9 1.8-.3 15-4.2 17-5.1 1.1-.5 5.6-2.3 10-4 18.5-7.2 52.5-25.4 54.6-29.3 1.6-2.8-.6-6.4-4.3-6.9-3.4-.6-496.9-.6-502.3-.1z"/>
  <path fill="currentColor" d="M1588.9 349.9c-6.7 2.1-12.1 7-15.1 13.9-1.9 4.3-2 7.1-2 94.8V549l-77.2.1c-42.4 0-78.3.3-79.8.5-11.1 1.8-20.3 11.9-24.1 26.5-3 11.5-1.6 28.4 3.2 37.7 3.7 7.2 11.8 13.8 18.6 15 1.1.1 37.3.4 80.5.5l78.5.2v452c0 248.6-.4 457.8-.8 465-1 17.4-1.5 23.2-3.2 38.5-.7 6.8-1.3 11.7-2.5 19.5-.5 3.3-1.2 7.8-1.5 10-.3 2.3-.7 5.2-1 6.5-.3 1.3-.7 4.2-1.1 6.4-.3 2.2-.7 4.3-.9 4.6-.2.3-.6 2.6-1 5-.3 2.5-1.5 8.5-2.7 13.5-1.1 4.9-2.1 9.8-2.3 10.8-.2 1-.7 2.7-1 3.7-.3 1-.8 2.9-1 4.1-2.5 13-19.2 66.6-23.1 74.1-.8 1.6-1.2 2.8-1 2.8.4 0-3 9-5.9 15.5-.8 1.6-2.6 5.9-4 9.5-8.5 20.7-24.2 51.8-37.9 75-11.6 19.7-30 47.8-38.3 58.5-1.3 1.6-2.7 3.4-3.1 4-.4.5-2.8 3.7-5.2 7-2.5 3.3-5 6.5-5.6 7.2-2 2.1-3.6 7.3-3 9.7.4 1.7 1.5 2.7 3.8 3.2 3.8.8 222.8.9 230.6 0 26.4-2.8 49.7-20.3 60.4-45.3 1.5-3.4 3.4-9.7 4.3-14 1.6-7.2 1.7-64.5 1.7-732.3 0-398.5-.3-726.9-.7-729.9-1.4-11.4-7.3-26.1-13.8-34.6-8.6-11.1-20.7-20.4-32.5-24.9-13.2-5.1-17-5.5-53.6-5.5-18.8 0-35.3.4-36.7.8z"/>
</svg>
