<svg xmlns="http://www.w3.org/2000/svg" viewBox="0 0 284 70.4">
    <path fill="currentColor"
        d="M71 727.5H71a1 1 0 0 0-.5.4l-.3.9a18 18 0 0 1-1.6 3 14.6 14.6 0 0 1-6.6 5.4l-.3.1-.2.1-.4.1a13.6 13.6 0 0 1-1.6.4l-.5.1h-.6l-.4.1h-4.5c-8 0-7.9 0-8.1.2-1 .2-1.7 1-1.9 2v51.1a2.6 2.6 0 0 0 2 2.2h13.2l.3-.1h.4l.3-.1a16 16 0 0 0 6.3-3c1-.8 2-1.7 2.6-2.7l.4-.4.2-.4a14.8 14.8 0 0 0 2.4-6.8V727.8c-.1-.2-.3-.3-.5-.3zm244.6 2c-.4.1-.8.7-1.6 2.3a27.5 27.5 0 0 1-9.5 10.6c-1.6 1-4.2 2-6.1 2.5-1.8.4-1.8.4-48.2.6-45.3.2-46.5.2-47.9.6-4 1-7.1 4.3-8 8.4-.2 1.1-.2 3.5-.2 16.2 0 15 0 15 .6 16.2a11.5 11.5 0 0 0 7.6 7.1c1 .3 4.6.3 56.3.3 55 0 55.3 0 56.6-.3 3.6-1 6.3-3.5 7.5-7 .4-1.3.4-1.3.4-21 0-19.8 0-19.8-.5-20.1-.6-.6-1.4-.5-2 0-.6.5-.6.5-.6 20 0 17.8 0 19.4-.3 20.3-.8 2.3-2.7 4.1-5 4.8-1 .3-1.7.4-4 .3-2.1 0-2.6 0-2.2-.3a14.6 14.6 0 0 0 7.4-9.3c.4-1.2.4-2.4.4-26.6 0-23.8 0-25.2-.3-25.4-.2-.1-.3-.2-.4-.1zM54.2 734h-8.8a7 7 0 0 0-6.2 6v26a5643.8 5643.8 0 0 0 0 26.4l.4 1.1a7 7 0 0 0 5 4.3c.6.2-.7.2 19.7.2h19.3l.3-.1h.4l1-.4a7 7 0 0 0 4.2-5.1v-.2l.1-.4a5407.5 5407.5 0 0 0 0-51.9c-.3-1.5-1-3-2-4-.2 0-.3-.2-.3-.2l-.3-.2-.2-.2h-.1l-.4-.3-1.5-.7h-.2l-.6-.2h-9.6a1 1 0 0 0-.6.8c0 .5.2 1 .7 1.2h4.4a202.5 202.5 0 0 1 5 .2h.2c.3 0 1 .4 1.5.7 1 .8 1.7 2 1.9 3.2a2233.5 2233.5 0 0 1 0 51.5 4.8 4.8 0 0 1-3.6 4c-.5.2-.3.2-19.6.2a3846.2 3846.2 0 0 1-19.3-.1h-.2l-.6-.3-1-.5c-1.1-.8-1.8-2-2-3.4v-51.3a4.7 4.7 0 0 1 4-4c.3-.2.8-.2 6.3-.2a575.4 575.4 0 0 0 7.5-.2l1.2-.2h.1a7.3 7.3 0 0 0 1-.4 9 9 0 0 0 1.9-1c0-.1 0-.2-.2-.2h-8.8zm27.7 4.3h-1.3c-.2 0-.4.2-.5.5v6.5h-5.6c-.3 0-.7.4-.8 1-.1.3 0 .9.1 1.2.1.3.4.5.7.5H80v15.9a2690 2690 0 0 1-.2 18.3v.5l-.1.3v.1l-.1.2a5.5 5.5 0 0 1-.2.9v.2a23.6 23.6 0 0 1-4 8.4l-.2.2c0 .2-.2.3-.2.3v.4h8.1a2.6 2.6 0 0 0 2.3-2v-51.2c0-.4-.2-.9-.5-1.2-.3-.4-.7-.7-1.1-.8-.5-.2-.6-.2-1.9-.2zm29.7.7c-1.9 0-2.4 0-2.6.3-.3.3-.3.8-.3 3 0 1.4 0 2.7.2 3a39.6 39.6 0 0 0 8 .2c.2-.1.2-.5.2-2 0-3.6-1-4.5-5.5-4.5zm124.8 9.7c2.8 0 3.2 0 3.9.4l1.3 1c.5.7.5.9.6 3.2 0 2.4 0 2.4-4.3 2.4-2.5 0-4.5 0-4.5-.2V752c0-3.3 0-3.3 3-3.3zm-125.3.2c-1 0-2 .1-2.2.3-.2.1-.2 4.7-.2 19.5 0 16.8 0 19.3-.3 19.8-.4.7-.7.9-2 1-.7 0-1.2.2-1.3.3-.3.4-.2 6.6 0 6.9.3.2.8.2 2.6.1 5.3-.2 8-1.8 9-5.1.4-1.2.4-1.5.4-20.1 0-18.8 0-19-.4-19.7-.5-1.1-2-2.5-2.9-2.8a13 13 0 0 0-2.7-.2zm184.3 4.2c8.5 0 13.7 2.8 14.6 7.8.3 1.3.3 15.5 0 17-1 6.7-5.2 10.3-13 11.4-8.5 1.2-14.6-1.7-16-7.5a12 12 0 0 1-.3-5.1c.9-5.8 4.8-8.5 14.1-9.8 4-.5 5.5-1 6.2-2.3 1.2-1.9-.5-3.7-3.7-4-3.2-.3-5.7.3-6.6 1.7-.4.7-.4.7-4.7.7-3.4 0-4.3 0-4.4-.3-.2-.7 1.5-4.6 2.6-5.9 2.2-2.3 6.5-3.7 11.2-3.7zm-81 0c2.9 0 3.6.1 5 .5 4 1 6.9 3 8.4 6.2 1.6 3.3 1.7 4.6 1.7 18.4 0 10.7 0 10.7-3 10.6-2.9 0-3.2 0-4-.5-.7-.4-1.1-.8-1.5-1.4-.6-1-.6-1-.7-11.5 0-11.3 0-11-1-12.4-1-1.4-3.5-2.2-6-2-1.4.2-3.2 1-3.8 1.8-1 1.3-1 1.4-1 12.4 0 10.4 0 10.4-.5 11.4-.3.6-.8 1.2-1.3 1.6-.8.5-1 .5-2.5.6a8 8 0 0 1-2-.2c-1-.4-1.8-1.1-2.2-2-.5-1-.5-1-.5-11.6 0-10 0-10.7.4-12.1 1.3-5 4.3-8 9.5-9.3 1.4-.4 2.1-.4 5-.4zm48 0c2.8 0 3.6.1 5 .5 4 1 6.8 3 8.3 6.2 1.6 3.3 1.7 4.6 1.7 18.4 0 10.6 0 10.6-2.7 10.6-3.2 0-4.2-.2-5.2-1.2-1.2-1-1.2-1.4-1.2-12.3 0-10.5 0-10.9-1-12.2a5.5 5.5 0 0 0-2.7-1.8c-.4-.2-1.6-.3-2.6-.3-1.6 0-1.9.1-3 .6a4.2 4.2 0 0 0-2.3 2.6c-.3.7-.3 2-.4 12.7 0 12 0 12-4.5 12s-4.5 0-4.5-12.3c0-12 0-12.2.5-13.7a12 12 0 0 1 9.5-9.3c1.4-.4 2.2-.4 5-.4zm-94 .5a15 15 0 0 0-3.4.4c-5 1-8.7 4-10.3 8.4a22.6 22.6 0 0 0-1 4c-.4 1.3-.4 7.9 0 9.4 1 5 2.2 7.6 4.7 9.8 2 1.9 4.4 2.8 8 3.3 3 .5 6.7.1 9.2-.8 3.2-1.4 6-4.2 7.3-7.7.6-1.5.6-2.2.2-2.3a30 30 0 0 0-3.4-.1c-3.6 0-4 .1-5.7 1.6a7.1 7.1 0 0 1-7.2 1.8c-2.3-.7-3.8-2.6-4.6-5.7-.4-1.6-.3-7.6.1-9.2.7-2.6 1.9-4.1 3.7-5 .9-.4 1.3-.5 2.8-.4 2.6 0 4 .7 5.1 2.5.6.9.6.9 5 .8 4.4 0 4.4 0 4.5-.6l-.5-2a11.5 11.5 0 0 0-6-6.6 14 14 0 0 0-7-1.5h-1.6zm-33 .4c-7.3 0-12 2.8-13.7 8.2-.8 2.8-.8 3.4-.8 15.3 0 11.3 0 11.3 4.3 11.3s4.3 0 4.3-11.8a47 47 0 0 1 .4-12.7c.7-1.7 1.9-2.5 4-2.8 2.3-.4 4.9.2 6 1.3.3.4.8 1 1 1.6.5 1 .5 1 .6 15.4 0 13.9 0 14.4.4 15.1.5.9 1 1.3 2.1 1.7.5.2 1.6.3 3.4.3 2.7 0 2.7 0 2.7-14.3 0-8.5-.1-15.1-.2-16.3-.9-8.4-5.4-12.3-14.4-12.3zm101 4.7c2.8 0 3 0 4 .5.7.4 1 .7 1.3 1.3.4.7.4 1 .5 14.5 0 13.8 0 13.8-4.4 13.8l-4.4-.1v-29.8c0-.2.7-.2 3-.2zm64.9 12.8-1 .2c-.7.3-2.7.9-4.5 1.3-3.7 1-4.9 1.5-5.7 2.7-.5.7-.6 1-.6 2.2-.1 1.2 0 1.6.3 2.3.5 1 1 1.4 2.2 1.8 2 .8 5.5 0 7.4-1.8 1.5-1.4 2.2-3.5 2.2-7 0-1.2 0-1.7-.3-1.7z"
        transform="translate(-39.1 -727.5)" />
</svg>
