<svg xmlns="http://www.w3.org/2000/svg" width="1059.846" height="136.889" viewBox="0 0 280.418 36.219"><path d="M112.539 35.984c-2.806-.555-4.997-2.568-5.934-5.452-.54-1.664-.598-2.456-.709-9.688-.091-5.995-.042-7.97.206-8.269.22-.265.828-.392 1.871-.392 1.258 0 1.597.095 1.82.512.17.317.274 3.273.274 7.772 0 7.935.134 8.844 1.531 10.332 2.09 2.225 6.304 1.94 9.578-.647l1.319-1.042.07-8.397.07-8.398 1.611-.077c1.14-.055 1.702.03 1.921.295.228.274.291 3.292.24 11.444l-.068 11.072-.71.398c-1.013.569-2.115.138-2.475-.966-.394-1.213-.52-1.257-1.494-.527-2.61 1.957-5.848 2.678-9.121 2.03zm113.283.103c-1.301-.353-2.286-1.014-2.84-1.906-.584-.939-.603-1.192-.732-9.827l-.132-8.864-1.916-.077c-2.129-.087-2.322-.285-2.139-2.201l.086-.897 1.984-.132 1.985-.132.07-3.572c.082-4.097.153-4.234 2.22-4.234.978 0 1.325.116 1.537.512.15.282.274 2.068.274 3.969v3.457h3.808c4.182 0 4.13-.022 4.13 1.688 0 1.39-.278 1.487-4.287 1.487h-3.651v7.937c0 7.74.014 7.952.562 8.5.469.47.77.538 1.816.414.69-.082 2-.452 2.91-.822.912-.37 1.766-.606 1.9-.524.386.24 1.543 2.175 1.543 2.583 0 1.262-6.878 3.252-9.128 2.641zm17.33-.19c-2.16-.471-3.817-1.415-5.4-3.073-2.431-2.55-3.331-4.987-3.331-9.024 0-4.125 1.1-6.907 3.69-9.33 5.405-5.055 14.244-3.55 17.285 2.945.704 1.503.85 2.167.943 4.272.096 2.18.05 2.537-.372 2.844-.376.276-2.336.352-9.029.352h-8.548l.003.728c.004 1.176 1.2 3.408 2.504 4.676 1.418 1.378 3.544 2.269 5.413 2.269 1.492 0 4.295-.815 5.441-1.582 1.165-.78 1.753-.664 2.58.505.4.566.728 1.153.728 1.304 0 .862-3.21 2.45-6.2 3.068-2.305.476-3.69.487-5.707.047zm9.255-14.917c-.008-.993-.811-2.682-1.823-3.835-2.435-2.773-6.859-2.874-9.875-.226-1.048.92-2.32 3.21-2.32 4.18v.609h14.024l-.006-.728zm14.558 14.877c-3.175-.875-6.237-3.938-7.443-7.445-.88-2.561-.888-6.857-.016-9.392 1.206-3.504 4.067-6.322 7.245-7.137 2.23-.571 5.568-.424 7.82.345l1.919.655V6.765c0-4.406.088-6.207.317-6.435.47-.471 2.737-.4 3.237.1.374.373.41 2.233.35 17.518l-.068 17.101-.71.398c-1.12.63-2.115.146-2.556-1.241l-.356-1.12-1.078.924c-2.145 1.835-5.842 2.624-8.661 1.847zm5.96-4.054c1.221-.649 1.831-1.16 2.837-2.376l.728-.88v-5.795c0-6.663.176-6.218-2.768-6.984-4.463-1.161-8.11.126-9.837 3.47-2.417 4.683-.47 11.366 3.772 12.945 1.388.516 3.926.334 5.268-.38zM129.97 35.32l-.588-.412V23.842c0-12.354-.097-11.754 1.878-11.61 1.063.079 1.144.144 1.496 1.205l.373 1.122.85-.648c2.187-1.669 5.954-2.71 8.696-2.402 4.24.476 6.571 2.64 7.485 6.95.428 2.023.557 16.067.153 16.705-.302.476-2.452.705-3.144.334-.53-.284-.55-.524-.634-8.053l-.087-7.76-.794-1.548c-1.11-2.166-2.424-2.87-5.056-2.712-2.159.13-4.657 1.153-6.267 2.567l-.98.86v8.166c0 7.802-.023 8.177-.512 8.439-.753.403-2.196.333-2.869-.138zm25.275.126c-.433-.252-.463-1.373-.463-17.577 0-16.841.014-17.315.512-17.582.281-.15.977-.274 1.547-.274 2.028 0 1.91-1.11 1.91 17.931v16.964l-.588.412c-.664.465-2.22.532-2.918.126zm8.183-.045c-.414-.304-.445-1.247-.38-11.708l.069-11.377h3.704l.07 11.377c.077 12.792.198 12.039-1.922 12.039-.6 0-1.293-.149-1.54-.33zm8.732 0c-.415-.304-.446-1.247-.382-11.708l.07-11.377 1.374-.08 1.375-.079.32 1.072c.177.59.393 1.072.48 1.072.086 0 .736-.412 1.444-.916 2.305-1.638 5.47-2.303 8.248-1.73 2.06.425 2.908.868 4.372 2.286l1.208 1.17 1.75-1.173c2.666-1.787 4.408-2.375 7.078-2.387 3.682-.017 6.07 1.143 7.548 3.665 1.204 2.055 1.438 4.06 1.443 12.37.005 8.526.098 8.146-1.98 8.146-2.068 0-1.983.329-1.99-7.749-.008-7.66-.16-8.99-1.217-10.597-1.837-2.794-6.672-2.647-10.364.314l-.905.726.041 8.372c.04 8.1.025 8.381-.483 8.653-.717.383-2.478.354-3.013-.05-.386-.292-.446-1.242-.513-8.136-.075-7.6-.093-7.838-.704-9.08-1.717-3.486-6.886-3.822-10.458-.678l-1.218 1.072v8.165c0 8.137-.002 8.165-.588 8.576-.707.495-2.312.54-2.936.081zm40.216 0c-.414-.304-.445-1.247-.381-11.708l.07-11.377 1.58-.08c1.261-.066 1.648.011 1.918.38.261.358.338 2.914.338 11.26 0 10.445-.017 10.815-.53 11.327-.608.608-2.284.72-2.995.198zM162.963 6.118c-1.66-1.66-.529-4.59 1.774-4.59 1.416 0 2.18.454 2.65 1.576.509 1.219.257 2.28-.74 3.119-1.147.965-2.656.922-3.684-.105zm49.31.267c-2.266-1.417-1.153-5.05 1.545-5.05.824 0 1.24.175 1.838.773 2.246 2.247-.692 5.961-3.384 4.277z" fill="currentColor" style="opacity: 0.7" /><g fill="#f90"><path d="M13.814 35.338L3.69 23.064h-.05v12.274H0V.012h3.64V20.07h.05l8.678-8.333h4.738l-10.374 9.63 11.72 13.97zM22.69 6.798a2.555 2.555 0 01-2.542-2.545A2.554 2.554 0 0122.69 1.71a2.554 2.554 0 012.543 2.544 2.555 2.555 0 01-2.543 2.545zm-1.795 28.54v-23.6h3.64v23.6zM44.051 35.338v-14.52c0-2.943-.498-6.237-4.09-6.237-2.892 0-5.535 2.046-7.33 3.594v17.164h-3.64V11.737h2.992l.499 2.844c2.592-1.995 5.137-3.442 8.428-3.442 3.39 0 6.783 2.444 6.783 8.333v15.867H44.05zM63.372 35.837c-6.583 0-12.119-3.842-12.119-11.975 0-7.334 5.286-12.723 12.168-12.723 1.696 0 2.894.15 3.84.399V.012h3.641V34.14c-1.446.849-4.188 1.697-7.53 1.697zm3.89-20.906c-.947-.35-1.795-.598-3.64-.598-4.639 0-8.678 3.642-8.678 9.28 0 5.339 2.943 9.131 9.076 9.131 1.197 0 2.494-.25 3.242-.598zM78.866 35.837c-2.893 0-4.14-1.846-4.14-4.341V.012h3.642V29.85c0 2.245.548 2.695 1.944 2.695.25 0 .649 0 1.247-.15l.45 2.645c-1.098.548-1.946.798-3.143.798zM87.325 24.162c0 4.49 2.593 8.53 7.68 8.53 2.145 0 4.34-.847 5.736-1.745l1.147 2.594c-1.746 1.198-4.738 2.295-7.332 2.295-7.53 0-11.122-6.037-11.122-12.773 0-6.836 3.89-11.925 9.576-11.925 6.084 0 9.425 4.84 9.425 12.175v.849zm5.735-9.93c-3.49 0-5.686 3.094-5.686 6.836h11.123c0-3.293-1.845-6.835-5.437-6.835z"/></g></svg>