<svg xmlns="http://www.w3.org/2000/svg" viewBox="0 0 320 56.896">
    <g transform="translate(-600 -93)">
        <path
            d="M23.274,35.625,53.76,43.268V53.76H23.274ZM3.136,30.576l17,4.262V53.76h-17Zm33.62,5.2,17-31.3V40.035ZM3.136,27.344V3.136h17v28.47Zm20.138,5.048V3.136H50.918l-17.3,31.849ZM0,56.9H56.9V0H0Z"
            transform="translate(600 93)" fill="currentColor" />
        <path
            d="M152.286,20.848,136.292,1.61V1.473h-4.759V29.819h4.759V10.445l15.994,19.238v.136h4.759V1.473h-4.759ZM65.918,18.537,56.467,1.471H51.746V29.816h4.721V12.682L63.2,24.047l-.034.063h5.511l-.034-.063,6.73-11.365V29.816h4.721V1.471H75.37Zm161.8-17.068h-10.5l-8,28.345h5.155l1.509-5.7h13.171l1.51,5.7h5.155ZM217.042,19.732l3.645-13.54h3.555l3.645,13.54ZM100.787,1.473l-8,28.345h5.155l1.509-5.7h13.171l1.509,5.7h5.155l-8-28.345Zm-.171,18.262L104.262,6.2h3.554l3.645,13.54ZM23.6,1.453l-5.219-.091L8.4,19.121l-3.573-1.4V1.453H0V29.825H4.822V22.691l19.162,7.583V25.246L12.789,20.83Zm161.615,3.2A10.926,10.926,0,0,1,193,7.87l1.643,1.643,3.287-3.287-1.643-1.643A15.647,15.647,0,0,0,174.155,26.71a15.648,15.648,0,0,0,22.129,0l.68-.681V15.921h-8.626V20.57h3.978v3.48a11,11,0,1,1-7.1-19.4"
            transform="translate(684.286 105.77)" fill="currentColor" />
    </g>
</svg>
