<?xml version="1.0" encoding="utf-8"?>
<!-- Generator: Adobe Illustrator 22.0.1, SVG Export Plug-In . SVG Version: 6.00 Build 0)  -->
<svg version="1.1" id="Layer_1" xmlns="http://www.w3.org/2000/svg" xmlns:xlink="http://www.w3.org/1999/xlink" x="0px" y="0px"
	 viewBox="0 0 149.8 28.6" style="enable-background:new 0 0 149.8 28.6;" xml:space="preserve">
<style type="text/css">
	.kobost0{fill:#C0272D;}
</style>
<polygon class="kobost0" points="96.9,0.4 100.2,0.4 100.2,12.2 104.8,6.8 108.8,6.8 103.5,12.9 109.2,21 105.3,21 100.3,13.8 
	100.2,13.8 100.2,21 96.9,21 "/>
<g>
	<path class="kobost0" d="M115.2,19c2.4,0,2.7-2.4,2.7-5.1c0-2.6-0.4-5.1-2.7-5.1c-2.4,0-2.7,2.4-2.7,5.1C112.4,16.5,112.8,19,115.2,19
		 M108.9,13.9c0-4.6,2.2-7.4,6.3-7.4c4.1,0,6.2,2.8,6.2,7.4c0,4.6-2.2,7.4-6.2,7.4C111.1,21.3,108.9,18.5,108.9,13.9"/>
	<path class="kobost0" d="M129.2,19c2.1,0,2.5-2.8,2.5-5.1c0-2.6-0.3-5.3-2.5-5.3c-2,0-2.6,2.9-2.6,5.3C126.5,17.4,127.1,19,129.2,19
		 M126.5,8.5L126.5,8.5c0.5-0.7,1.6-2,3.7-2c3.4,0,4.9,2.9,4.9,7.4c0,4-1.4,7.4-6,7.4c-3.7,0-5.9-2.1-5.9-6.3V0.4h3.3V8.5z"/>
	<path class="kobost0" d="M143.1,19c2.4,0,2.7-2.4,2.7-5.1c0-2.6-0.4-5.1-2.7-5.1c-2.4,0-2.7,2.4-2.7,5.1C140.3,16.5,140.7,19,143.1,19
		 M136.8,13.9c0-4.6,2.2-7.4,6.3-7.4s6.3,2.8,6.3,7.4c0,4.6-2.2,7.4-6.3,7.4S136.8,18.5,136.8,13.9"/>
	<polygon class="kobost0" points="73.6,23.8 18.6,23.8 23,28.1 	"/>
	<path class="kobost0" d="M23.7,6.1v0.7c-1-0.7-1.9-1-3.2-1c-3.9,0-6.8,3.5-6.8,7.8c0,4.3,2.9,7.8,6.8,7.8c1.3,0,2.2-0.4,3.2-1V21h3.4
		V6.1H23.7z M20.5,17.7c-1.9,0-3.3-1.9-3.3-4.2c0-2.4,1.4-4.2,3.3-4.2c1.9,0,3.2,1.9,3.2,4.2C23.7,15.9,22.4,17.7,20.5,17.7"/>
	<path class="kobost0" d="M50.8,6.1v8.8c0,1.6-1.1,3-2.8,3c-1.6,0-2.8-1.4-2.8-3V6.1h-3.4v8.8c0,3.6,2.5,6.5,6.1,6.5
		c1.7,0,2.9-0.9,2.9-0.9V21h3.4V6.1H50.8z"/>
	<path class="kobost0" d="M82.4,21v-8.8c0-1.6,1.1-3,2.8-3c1.6,0,2.8,1.4,2.8,3V21h3.4v-8.8c0-3.6-2.5-6.5-6.1-6.5
		c-1.7,0-2.9,0.9-2.9,0.9V6.1H79V21H82.4z"/>
	<path class="kobost0" d="M4,21v-5.8h2.5l4.3,5.8h4.4L10,14c1.6-1.2,2.7-3.1,2.7-5.2c0-3.5-2.9-6.4-6.4-6.4H0.4V21H4z M4,5.9h2.3
		c1.6,0,2.9,1.3,2.9,2.9c0,1.6-1.3,2.9-2.9,2.9H4V5.9z"/>
	<path class="kobost0" d="M63.3,17.4c-0.3,0.2-0.7,0.4-1.1,0.4c-0.6,0-1.6-0.4-1.6-1.8V9.6h2.9V6.1h-2.9V2.3h-3.4v3.7h-1.8v3.5h1.8V16
		c0,3.3,2.5,5.3,5,5.3c0.9,0,2.2-0.3,3.3-0.9L63.3,17.4z"/>
	<polygon class="kobost0" points="35.5,13 41.3,6.1 36.6,6.1 32.5,11.2 32.5,1.1 29,1.1 29,21 32.5,21 32.5,14.8 37.5,21 42.2,21 	"/>
	<path class="kobost0" d="M71.2,5.7c-3.9,0-6.7,3.4-6.7,7.8c0,4.6,3.5,7.8,7.1,7.8c1.8,0,4.1-0.6,6-3.3l-3-1.7c-2.3,3.4-6.2,1.7-6.6-1.7
		l9.8,0C78.5,9.2,75,5.7,71.2,5.7 M74.1,11.6H68C68.7,8.1,73.5,7.9,74.1,11.6"/>
</g>
</svg>
