<svg xmlns="http://www.w3.org/2000/svg" viewBox="0 0 479 148">
  <path fill="currentColor" d="M74 0A74 74 0 0 0 0 74a74 74 0 0 0 74 74 74 74 0 0 0 74-74A74 74 0 0 0 74 0Zm0 11a63 63 0 0 1 63 63 63 63 0 0 1-63 63 63 63 0 0 1-63-63 63 63 0 0 1 63-63zM39 30v83h30V79l-10-8v31h-9V52l24 19 24-19v50h-9V71l-10 8v34h30V30L74 56 39 30zm129 10v69h10V55l10 54h6l10-54v54h10V40h-15l-8 41-8-41zm63 0-12 69h11l2.2-15h11.6l2.2 15h11l-12-69Zm32 0v69h10V66l14 43h10V40h-10v40l-14-40Zm61 0c-9.4 0-17 7.1-17 16v38c0 8.9 7 16 15 16 5.3 0 8-2.2 11-5.8l2 4.8h6V74h-19v10h8v11c0 2.8-2.7 5-6 5s-6-2.2-6-5V55c0-2.8 2.7-5 6-5s6 2.2 6 5v8h11v-7c0-8.9-7.6-16-17-16zm35 0-12 69h11l2.2-15h11.6l2.2 15h11l-12-69Zm31 0v69h10V55l10 54h6l10-54v54h10V40h-15l-8 41-8-41zm72 0c-9.4 0-17 7.1-17 16v38c0 8.9 7.6 16 17 16s17-7.1 17-16V56c0-8.9-7.6-16-17-16zm0 10c3.3 0 6 2.2 6 5v40c0 2.8-2.7 5-6 5s-6-2.2-6-5V55c0-2.8 2.7-5 6-5zm-224 4 4.2 29h-8.4zm128 0 4.2 29h-8.4z"/>
</svg>