<svg xmlns="http://www.w3.org/2000/svg" version="1.2" viewBox="0 0 453.036 118.23"><path d="M124.43 75.2H23.77a2.24 2.24 0 010-4.47h100.66a2.24 2.24 0 010 4.47m0 8.48H23.77a2.24 2.24 0 110-4.47h100.66a2.24 2.24 0 010 4.47" fill="#f79421"/><path d="M114.36 92.42l6.4 3.71V81.17h-12.8v14.96z" fill="#f79421"/><path d="M112.08 33.9h16.83v9.33h-16.83z" fill="#272b30"/><path d="M137.96 45.6l-.26-.2a22.94 22.94 0 01-4.84-5.88l-.03-.07a22.6 22.6 0 01-2.76-8.22l-.05-.54v-.03a5.79 5.79 0 00-1.26-2.77l-.18-.2a39.88 39.88 0 00-20.27-12.24 25.13 25.13 0 013.1-13.32c.1-.2.17-.44.17-.69 0-.8-.64-1.44-1.44-1.44h-.1l-.25.04a52.75 52.75 0 00-37.28 26.3 48.26 48.26 0 00-6.58-2.92 49.17 49.17 0 00-21.17-2.66A49.32 49.32 0 000 69.86v12.36a21.16 21.16 0 0020.62 21.16h31.4a6.13 6.13 0 01.93 0c.05 0 .1 0 .15.02a7.43 7.43 0 016.82 7.4v.16a7.46 7.46 0 007.41 7.27 7.42 7.42 0 007.4-6.9l.01-.3v-.41a22.27 22.27 0 00-16-21.37 22.35 22.35 0 00-6.25-.9H26.3c-.06.02-.13.02-.2.02l-.18-.01a11.165 11.165 0 01.19-22.33h99.81a5.81 5.81 0 005.52-4.01l.08-.27a5.78 5.78 0 011.93-2.82h.01l.23-.17a11.41 11.41 0 004.26-13.15m-13.34-4.46c-.24 0-.47-.06-.67-.17a7.79 7.79 0 00-5.44-.9c-.81.16-1.58.45-2.27.83l-.04.02-.12.08c-.19.1-.4.14-.63.14a1.41 1.41 0 01-.78-2.57l.14-.08a10.69 10.69 0 0110.45 0l.14.08a1.4 1.4 0 01-.78 2.57" fill="#f1f1f1"/><path d="M137.96 45.6l-.26-.2a22.94 22.94 0 01-4.84-5.88l-.03-.07a22.6 22.6 0 01-2.76-8.22l-.05-.54v-.03a5.79 5.79 0 00-1.26-2.77l-.18-.2a39.88 39.88 0 00-20.27-12.24 25.13 25.13 0 013.1-13.32c.1-.2.17-.44.17-.69 0-.8-.64-1.44-1.44-1.44h-.1l-.25.04a52.75 52.75 0 00-37.28 26.3 48.26 48.26 0 00-6.58-2.92 49.17 49.17 0 00-21.17-2.66A49.32 49.32 0 000 69.86v12.36a21.16 21.16 0 0020.62 21.16h31.4a6.13 6.13 0 01.93 0c.05 0 .1 0 .15.02a7.43 7.43 0 016.82 7.4v.16a7.46 7.46 0 007.41 7.27 7.42 7.42 0 007.4-6.9l.01-.3v-.41a22.27 22.27 0 00-16-21.37 22.35 22.35 0 00-6.25-.9H26.3c-.06.02-.13.02-.2.02l-.18-.01a11.165 11.165 0 01.19-22.33h99.81a5.81 5.81 0 005.52-4.01l.08-.27a5.78 5.78 0 011.93-2.82h.01l.23-.17a11.41 11.41 0 004.26-13.15m-13.34-4.46c-.24 0-.47-.06-.67-.17a7.79 7.79 0 00-5.44-.9c-.81.16-1.58.45-2.27.83l-.04.02-.12.08c-.19.1-.4.14-.63.14a1.41 1.41 0 01-.78-2.57l.14-.08a10.69 10.69 0 0110.45 0l.14.08a1.4 1.4 0 01-.78 2.57" fill="none"/><path d="M72.67 26.1c2.68 12.9 13.9 22.6 27.32 22.6 7.9 0 15.04-3.36 20.12-8.76h-.08a7.56 7.56 0 00-3.8.97l-.03.02a.5.5 0 00-.12.08c-.19.1-.4.14-.63.14-.77 0-1.4-.63-1.4-1.4 0-.5.24-.92.62-1.17l.14-.08a10.66 10.66 0 017.46-1.13 28.75 28.75 0 005-11.08 39.82 39.82 0 00-18.96-10.84 25.13 25.13 0 013.1-13.32c.1-.2.17-.43.17-.69 0-.8-.64-1.44-1.44-1.44h-.1l-.25.05A52.75 52.75 0 0072.66 26.1" fill="#f79421"/><path d="M130.55 52.79c-1.21-.36-2.42-.72-3.65-1a64.3 64.3 0 00-11.12-1.75c-2.49-.2-4.99-.1-7.47.09l-1.87.2c-.62.1-1.22.24-1.84.35-1.26.16-2.43.61-3.68.87a27.44 27.44 0 017.29-2.18c2.52-.38 5.1-.51 7.64-.32 2.54.18 5.07.56 7.54 1.2a37 37 0 017.16 2.54m-1.09 2.29c-1.26-.17-2.5-.35-3.76-.43a64.15 64.15 0 00-11.25-.08c-2.5.16-4.96.63-7.39 1.19l-1.81.48c-.6.18-1.18.42-1.77.62-1.22.33-2.32.96-3.5 1.4a27.44 27.44 0 016.87-3.24 34.27 34.27 0 017.51-1.45c2.54-.2 5.1-.2 7.63.06 2.53.26 5.05.69 7.47 1.45m-.18 2.68c-1.26.1-2.51.2-3.76.38a64.38 64.38 0 00-11 2.35c-2.4.7-4.7 1.69-6.96 2.76l-1.66.86c-.55.3-1.06.66-1.6.98-1.12.6-2.05 1.44-3.12 2.14 1.78-1.8 3.79-3.41 6.02-4.66a34.17 34.17 0 017.02-3.03c2.44-.74 4.93-1.3 7.46-1.59 2.53-.3 5.08-.42 7.6-.2" fill="#272b30"/><path d="M137.7 45.4c-.42-.37-.82-.76-1.22-1.15a3.7 3.7 0 001.91 6.87h.06c.02-.16.06-.31.07-.47a11.28 11.28 0 00-.57-5.04l-.25-.22" fill="#f27baa"/><path d="M107.03 17.36v.53a39.8 39.8 0 00-12.1 7.7 21.25 21.25 0 0116.62-23.82 29 29 0 00-4.52 15.59" fill="#fff"/><path d="M68.11 94.76a22.3 22.3 0 00-1.54-1.37 17.25 17.25 0 00-12.41 10.17 7.42 7.42 0 015.76 7.07v.33a7.47 7.47 0 003.5 6.16 7.42 7.42 0 0011.31-6.09c.02-.08.02-.15.02-.23v-.18a22.26 22.26 0 00-6.64-15.86" fill="#f79421"/><g aria-label="MangaDex" style="line-height:1.25;-inkscape-font-specification:Ubuntu" font-weight="400" font-size="55.022" font-family="Ubuntu" letter-spacing="0" word-spacing="0" fill="#272b30" stroke-width="4.127"><path d="M209.076 71.698q-.55-1.32-1.485-3.356-.88-2.036-1.926-4.402-1.046-2.366-2.256-4.842-1.155-2.53-2.2-4.731-1.046-2.256-1.982-4.017-.88-1.76-1.43-2.696-.605 6.492-.99 14.085-.386 7.538-.66 15.241h-5.228q.22-4.952.495-9.959.275-5.061.606-9.903.385-4.897.77-9.52.44-4.62.935-8.748h4.677q1.486 2.421 3.191 5.723 1.706 3.301 3.412 6.932 1.705 3.577 3.3 7.208 1.597 3.577 2.917 6.548 1.32-2.971 2.916-6.548 1.596-3.631 3.301-7.208 1.706-3.631 3.412-6.932 1.705-3.302 3.191-5.723h4.677q1.87 18.433 2.806 38.13h-5.227q-.275-7.703-.66-15.24-.385-7.594-.99-14.086-.55.935-1.486 2.696-.88 1.76-1.926 4.017-1.045 2.2-2.256 4.731-1.155 2.476-2.2 4.842-1.046 2.366-1.982 4.402-.88 2.036-1.43 3.356zM249.247 73.294q1.816 0 3.191-.055 1.43-.11 2.366-.33V64.38q-.55-.275-1.815-.44-1.21-.22-2.972-.22-1.155 0-2.476.165-1.265.165-2.365.716-1.046.495-1.761 1.43-.715.88-.715 2.366 0 2.751 1.76 3.852 1.76 1.045 4.787 1.045zm-.44-25.64q3.081 0 5.172.825 2.146.77 3.411 2.256 1.32 1.43 1.871 3.466.55 1.981.55 4.402v17.882q-.66.11-1.87.33-1.156.165-2.642.33-1.485.166-3.246.276-1.705.165-3.411.165-2.421 0-4.457-.496-2.036-.495-3.521-1.54-1.486-1.1-2.311-2.861-.825-1.761-.825-4.237 0-2.366.935-4.072.99-1.705 2.64-2.75 1.652-1.046 3.852-1.541 2.201-.495 4.622-.495.77 0 1.596.11.825.055 1.54.22.77.11 1.321.22.55.11.77.165v-1.43q0-1.266-.275-2.477-.275-1.265-.99-2.2-.715-.99-1.981-1.541-1.21-.605-3.191-.605-2.531 0-4.457.385-1.87.33-2.806.715l-.605-4.237q.99-.44 3.301-.825 2.31-.44 5.007-.44zM268.256 49.195q1.76-.44 4.677-.936 2.916-.495 6.713-.495 3.411 0 5.667.99 2.256.936 3.576 2.696 1.376 1.706 1.926 4.127t.55 5.337V76.98h-5.117V62.015q0-2.642-.385-4.512-.33-1.871-1.155-3.026-.826-1.156-2.201-1.651-1.376-.55-3.412-.55-.825 0-1.705.055-.88.055-1.706.165-.77.055-1.43.165-.606.11-.88.165V76.98h-5.118zM317.788 74.12q-.66.44-2.586 1.155-1.871.66-4.402.66-2.586 0-4.897-.825-2.256-.826-3.962-2.531-1.705-1.761-2.696-4.347-.99-2.586-.99-6.162 0-3.137.935-5.723.936-2.64 2.696-4.511 1.816-1.926 4.402-2.972 2.586-1.1 5.832-1.1 3.577 0 6.218.55 2.696.495 4.512.936v25.53q0 6.602-3.412 9.573-3.411 2.971-10.344 2.971-2.696 0-5.117-.44-2.366-.44-4.126-1.045l.935-4.457q1.54.605 3.741 1.046 2.256.495 4.677.495 4.567 0 6.548-1.816 2.036-1.816 2.036-5.777zm-.055-21.24q-.77-.22-2.091-.384-1.266-.22-3.466-.22-4.127 0-6.383 2.696-2.2 2.696-2.2 7.153 0 2.476.604 4.236.66 1.76 1.706 2.916 1.1 1.156 2.476 1.706 1.43.55 2.916.55 2.036 0 3.742-.55 1.705-.605 2.696-1.375zM341.344 73.294q1.816 0 3.191-.055 1.43-.11 2.366-.33V64.38q-.55-.275-1.816-.44-1.21-.22-2.97-.22-1.156 0-2.477.165-1.265.165-2.366.716-1.045.495-1.76 1.43-.716.88-.716 2.366 0 2.751 1.76 3.852 1.762 1.045 4.788 1.045zm-.44-25.64q3.08 0 5.172.825 2.146.77 3.411 2.256 1.32 1.43 1.87 3.466.551 1.981.551 4.402v17.882q-.66.11-1.87.33-1.156.165-2.642.33-1.485.166-3.246.276-1.706.165-3.411.165-2.421 0-4.457-.496-2.036-.495-3.522-1.54-1.485-1.1-2.31-2.861-.826-1.761-.826-4.237 0-2.366.936-4.072.99-1.705 2.64-2.75 1.651-1.046 3.852-1.541 2.201-.495 4.622-.495.77 0 1.596.11.825.055 1.54.22.77.11 1.32.22t.771.165v-1.43q0-1.266-.275-2.477-.275-1.265-.99-2.2-.716-.99-1.981-1.541-1.21-.605-3.192-.605-2.53 0-4.456.385-1.871.33-2.806.715l-.606-4.237q.99-.44 3.302-.825 2.31-.44 5.007-.44zM391.99 57.888q0 4.952-1.54 8.638-1.54 3.632-4.347 6.053-2.806 2.366-6.713 3.576-3.906 1.156-8.583 1.156-2.31 0-5.117-.22-2.751-.166-5.007-.716V39.401q2.256-.55 5.007-.716 2.806-.22 5.117-.22 4.677 0 8.583 1.21 3.907 1.156 6.713 3.577 2.806 2.366 4.347 6.053 1.54 3.631 1.54 8.583zm-20.743 14.746q7.593 0 11.335-3.852 3.741-3.906 3.741-10.894 0-6.988-3.741-10.84-3.742-3.906-11.335-3.906-2.256 0-3.521.055-1.21.055-1.706.11V72.47q.495.055 1.706.11 1.265.055 3.521.055zM397.982 62.73q0-3.797 1.1-6.603 1.1-2.86 2.916-4.732 1.816-1.87 4.182-2.806 2.366-.935 4.842-.935 5.777 0 8.858 3.631 3.081 3.577 3.081 10.95v.88q0 .495-.055.935H403.32q.33 4.457 2.586 6.768 2.256 2.31 7.043 2.31 2.696 0 4.511-.44 1.871-.494 2.806-.935l.716 4.292q-.936.495-3.302 1.045-2.31.55-5.282.55-3.741 0-6.492-1.1-2.696-1.155-4.457-3.136-1.76-1.98-2.641-4.677-.825-2.75-.825-5.997zm19.642-2.806q.055-3.467-1.76-5.668-1.761-2.255-4.897-2.255-1.76 0-3.136.715-1.321.66-2.256 1.76-.936 1.101-1.486 2.532-.495 1.43-.66 2.916zM447.424 76.98q-.606-1.21-1.486-2.696-.88-1.485-1.926-3.026-1.045-1.595-2.145-3.136-1.1-1.54-2.146-2.916-1.046 1.375-2.146 2.971-1.1 1.54-2.146 3.136-.99 1.54-1.87 3.026-.881 1.486-1.486 2.641h-5.282q1.925-3.741 4.566-7.593 2.696-3.906 5.338-7.427l-9.464-13.59h5.777l6.823 10.013 6.877-10.014h5.448l-9.244 13.26q2.641 3.577 5.392 7.593 2.806 3.962 4.732 7.758z"/></g></svg>