<svg xmlns="http://www.w3.org/2000/svg" version="1.2" viewBox="0 0 430.72 118.22">
  <path d="M124.43 75.2H23.77a2.24 2.24 0 010-4.47h100.66a2.24 2.24 0 010 4.47M124.43 83.68H23.77a2.24 2.24 0 110-4.47h100.66a2.24 2.24 0 010 4.47" fill="#f79421"/>
  <path fill="#f79421" d="M114.36 92.42l6.4 3.71V81.17h-12.8v14.96z"/>
  <path fill="#272b30" d="M112.08 33.9h16.83v9.33h-16.83z"/>
  <path d="M137.96 45.6l-.26-.2a22.94 22.94 0 01-4.84-5.88l-.03-.07a22.6 22.6 0 01-2.76-8.22l-.05-.54v-.03a5.79 5.79 0 00-1.26-2.77l-.18-.2a39.88 39.88 0 00-20.27-12.24 25.13 25.13 0 013.1-13.32c.1-.2.17-.44.17-.69 0-.8-.64-1.44-1.44-1.44h-.1l-.25.04a52.75 52.75 0 00-37.28 26.3 48.26 48.26 0 00-6.58-2.92 49.17 49.17 0 00-21.17-2.66A49.32 49.32 0 000 69.86v12.36a21.16 21.16 0 0020.62 21.16h31.4a6.13 6.13 0 01.93 0c.05 0 .1 0 .15.02a7.43 7.43 0 016.82 7.4v.16a7.46 7.46 0 007.41 7.27 7.42 7.42 0 007.4-6.9l.01-.3V110.62a22.27 22.27 0 00-16-21.37 22.35 22.35 0 00-6.25-.9H26.3c-.06.02-.13.02-.2.02l-.18-.01a11.15 11.15 0 01.19-22.33h99.81a5.81 5.81 0 005.52-4.01l.08-.27a5.78 5.78 0 011.93-2.82h.01l.23-.17a11.41 11.41 0 004.26-13.15m-13.34-4.46c-.24 0-.47-.06-.67-.17a7.79 7.79 0 00-5.44-.9c-.81.16-1.58.45-2.27.83l-.04.02-.12.08c-.19.1-.4.14-.63.14a1.41 1.41 0 01-.78-2.57l.14-.08a10.69 10.69 0 0110.45 0l.14.08a1.4 1.4 0 01-.78 2.57" fill="#f1f1f1"/>
  <path d="M137.96 45.6l-.26-.2a22.94 22.94 0 01-4.84-5.88l-.03-.07a22.6 22.6 0 01-2.76-8.22l-.05-.54v-.03a5.79 5.79 0 00-1.26-2.77l-.18-.2a39.88 39.88 0 00-20.27-12.24 25.13 25.13 0 013.1-13.32c.1-.2.17-.44.17-.69 0-.8-.64-1.44-1.44-1.44h-.1l-.25.04a52.75 52.75 0 00-37.28 26.3 48.26 48.26 0 00-6.58-2.92 49.17 49.17 0 00-21.17-2.66A49.32 49.32 0 000 69.86v12.36a21.16 21.16 0 0020.62 21.16h31.4a6.13 6.13 0 01.93 0c.05 0 .1 0 .15.02a7.43 7.43 0 016.82 7.4v.16a7.46 7.46 0 007.41 7.27 7.42 7.42 0 007.4-6.9l.01-.3V110.62a22.27 22.27 0 00-16-21.37 22.35 22.35 0 00-6.25-.9H26.3c-.06.02-.13.02-.2.02l-.18-.01a11.15 11.15 0 01.19-22.33h99.81a5.81 5.81 0 005.52-4.01l.08-.27a5.78 5.78 0 011.93-2.82h.01l.23-.17a11.41 11.41 0 004.26-13.15m-13.34-4.46c-.24 0-.47-.06-.67-.17a7.79 7.79 0 00-5.44-.9c-.81.16-1.58.45-2.27.83l-.04.02-.12.08c-.19.1-.4.14-.63.14a1.41 1.41 0 01-.78-2.57l.14-.08a10.69 10.69 0 0110.45 0l.14.08a1.4 1.4 0 01-.78 2.57" fill="none"/>
  <path d="M72.67 26.1C75.35 39 86.57 48.7 99.99 48.7c7.9 0 15.04-3.36 20.12-8.76h-.08a7.56 7.56 0 00-3.8.97l-.03.02a.5.5 0 00-.12.08c-.19.1-.4.14-.63.14-.77 0-1.4-.63-1.4-1.4 0-.5.24-.92.62-1.17l.14-.08a10.66 10.66 0 017.46-1.13 28.75 28.75 0 005-11.08 39.82 39.82 0 00-18.96-10.84 25.13 25.13 0 013.1-13.32c.1-.2.17-.43.17-.69 0-.8-.64-1.44-1.44-1.44h-.1l-.25.05A52.75 52.75 0 0072.66 26.1" fill="#f79421"/>
  <path d="M130.55 52.79c-1.21-.36-2.42-.72-3.65-1a64.3 64.3 0 00-11.12-1.75c-2.49-.2-4.99-.1-7.47.09l-1.87.2c-.62.1-1.22.24-1.84.35-1.26.16-2.43.61-3.68.87a27.44 27.44 0 017.29-2.18c2.52-.38 5.1-.51 7.64-.32 2.54.18 5.07.56 7.54 1.2a37 37 0 017.16 2.54M129.46 55.08c-1.26-.17-2.5-.35-3.76-.43a64.15 64.15 0 00-11.25-.08c-2.5.16-4.96.63-7.39 1.19l-1.81.48c-.6.18-1.18.42-1.77.62-1.22.33-2.32.96-3.5 1.4a27.44 27.44 0 016.87-3.24 34.27 34.27 0 017.51-1.45c2.54-.2 5.1-.2 7.63.06 2.53.26 5.05.69 7.47 1.45M129.28 57.76c-1.26.1-2.51.2-3.76.38a64.38 64.38 0 00-11 2.35c-2.4.7-4.7 1.69-6.96 2.76l-1.66.86c-.55.3-1.06.66-1.6.98-1.12.6-2.05 1.44-3.12 2.14 1.78-1.8 3.79-3.41 6.02-4.66a34.17 34.17 0 017.02-3.03c2.44-.74 4.93-1.3 7.46-1.59 2.53-.3 5.08-.42 7.6-.2" fill="#272b30"/>
  <path d="M137.7 45.4c-.42-.37-.82-.76-1.22-1.15a3.7 3.7 0 001.91 6.87h.06c.02-.16.06-.31.07-.47a11.28 11.28 0 00-.57-5.04l-.25-.22" fill="#f27baa"/>
  <path d="M107.03 17.36v.53a39.8 39.8 0 00-12.1 7.7 21.25 21.25 0 0116.62-23.82 29 29 0 00-4.52 15.59" fill="#fff"/>
  <path d="M68.11 94.76a22.3 22.3 0 00-1.54-1.37 17.25 17.25 0 00-12.41 10.17 7.42 7.42 0 015.76 7.07V110.96a7.47 7.47 0 003.5 6.16 7.42 7.42 0 0011.31-6.09c.02-.08.02-.15.02-.23v-.18a22.26 22.26 0 00-6.64-15.86" fill="#f79421"/>
  <g aria-label="Mangadex" style="line-height:1.25;-inkscape-font-specification:'Proxima Nova Bold'" font-weight="700" font-size="57.78" font-family="Proxima Nova" letter-spacing="0" word-spacing="0" fill="#272b30" stroke-width="1.44">
    <path d="M195.67 83.68h8.27V45.14h-11.56l-9.36 24.04-9.36-24.04h-11.5v38.54h8.2V55.95l10.87 27.73h3.58l10.86-27.73zM228.15 83.68h7.33V65.65c0-8.03-5.83-10.57-12.19-10.57a18.3 18.3 0 00-12.19 4.4l2.77 4.9c2.37-2.2 5.15-3.3 8.15-3.3 3.7 0 6.13 1.86 6.13 4.69v3.87c-1.85-2.25-5.15-3.4-8.84-3.4-4.45 0-9.71 2.36-9.71 8.89 0 6.24 5.26 9.24 9.7 9.24 3.65 0 6.94-1.32 8.85-3.58zm0-6.7c-1.22 1.62-3.53 2.42-5.9 2.42-2.89 0-5.26-1.5-5.26-4.1 0-2.66 2.37-4.22 5.26-4.22 2.37 0 4.68.81 5.9 2.43zM261.6 83.68h7.34v-19.7c0-5.43-2.95-8.9-9.07-8.9-4.57 0-7.98 2.2-9.77 4.33v-3.64h-7.34v27.91h7.34V64.9a7.95 7.95 0 016.36-3.3c3.12 0 5.14 1.34 5.14 5.2zM275.64 90.85c3.47 3.06 7.22 4.16 12.02 4.16 6.87 0 15.08-2.6 15.08-13.24v-26h-7.4v3.59a10.75 10.75 0 00-8.6-4.28c-7.06 0-12.31 5.08-12.31 14.21 0 9.3 5.31 14.22 12.3 14.22 3.41 0 6.42-1.62 8.61-4.4v2.84c0 5.49-4.16 7.05-7.68 7.05-3.53 0-6.47-.99-8.73-3.47zm19.7-17.05a8.13 8.13 0 01-6.3 3.18c-4.16 0-7.04-2.9-7.04-7.69 0-4.8 2.88-7.68 7.04-7.68 2.43 0 5.09 1.33 6.3 3.18zM326.77 83.68h7.34V65.65c0-8.03-5.83-10.57-12.19-10.57a18.3 18.3 0 00-12.2 4.4l2.78 4.9c2.37-2.2 5.15-3.3 8.15-3.3 3.7 0 6.12 1.86 6.12 4.69v3.87c-1.84-2.25-5.14-3.4-8.84-3.4-4.44 0-9.7 2.36-9.7 8.89 0 6.24 5.26 9.24 9.7 9.24 3.64 0 6.94-1.32 8.84-3.58zm0-6.7c-1.2 1.62-3.52 2.42-5.89 2.42-2.89 0-5.26-1.5-5.26-4.1 0-2.66 2.37-4.22 5.26-4.22 2.37 0 4.68.81 5.9 2.43zM360.57 83.68h7.4V45.14h-7.4v14.22a10.75 10.75 0 00-8.6-4.28c-7.11 0-12.37 5.55-12.37 14.68 0 9.3 5.32 14.61 12.37 14.61 3.35 0 6.4-1.5 8.6-4.21zm0-9.01a8.07 8.07 0 01-6.35 3.17c-4.16 0-7.05-3.29-7.05-8.08 0-4.86 2.89-8.15 7.05-8.15a8.07 8.07 0 016.35 3.18zM373.46 69.7c0 8.95 6.41 14.67 14.9 14.67 4.34 0 8.67-1.27 11.5-3.87l-3.23-4.74c-1.8 1.74-4.85 2.78-7.45 2.78-4.74 0-7.57-2.95-8.04-6.47h20.75v-1.62c0-9.13-5.67-15.37-13.99-15.37-8.49 0-14.44 6.53-14.44 14.62zm14.44-8.78c4.86 0 6.7 3.52 6.88 6.18h-13.75c.35-2.78 2.31-6.18 6.87-6.18z" style="-inkscape-font-specification:'Proxima Nova Bold'"/>
    <path d="M422.51 83.68h8.2l-9.99-14.33 9.36-13.58h-8.2l-5.72 8.61-5.78-8.6h-8.2l9.3 13.57-9.88 14.33h8.14l6.42-9.42z" style="-inkscape-font-specification:'Proxima Nova Bold'"/>
  </g>
</svg>