<svg xmlns="http://www.w3.org/2000/svg" viewBox="0 0 571.2 118.2">
  <path d="M124.4 75.2H23.8a2.2 2.2 0 0 1 0-4.5h100.6a2.2 2.2 0 0 1 0 4.5m0 8.5H23.8a2.2 2.2 0 1 1 0-4.5h100.6a2.2 2.2 0 0 1 0 4.5" fill="#ff6740"/>
  <path d="m114.4 92.4 6.4 3.7v-15H108v15z" fill="#ff6740"/>
  <path d="M112 33.9h17v9.3h-17z" fill="#272b30"/>
  <path d="m138 45.6-.3-.2a23 23 0 0 1-4.8-5.9 22.6 22.6 0 0 1-2.8-8.3v-.5a5.8 5.8 0 0 0-1.3-2.8l-.2-.2a39.9 39.9 0 0 0-20.3-12.3 25.1 25.1 0 0 1 3.1-13.3l.2-.7c0-.8-.7-1.4-1.5-1.4h-.3a52.8 52.8 0 0 0-37.3 26.3 48.3 48.3 0 0 0-6.6-2.9 49.2 49.2 0 0 0-21.1-2.6A49.3 49.3 0 0 0 0 69.8v12.4a21.2 21.2 0 0 0 20.6 21.2H52a6.1 6.1 0 0 1 1 0h.1a7.4 7.4 0 0 1 6.8 7.4v.2a7.5 7.5 0 0 0 7.4 7.2 7.4 7.4 0 0 0 7.4-6.9v-.7a22.3 22.3 0 0 0-16-21.4 22.4 22.4 0 0 0-6.2-.9H25.9a11.2 11.2 0 0 1 .2-22.3H126a5.8 5.8 0 0 0 5.5-4l.1-.3a5.8 5.8 0 0 1 2-2.8l.2-.1a11.4 11.4 0 0 0 4.3-13.2m-13.4-4.5-.7-.1a7.8 7.8 0 0 0-5.4-1c-.8.2-1.6.5-2.3 1h-.1l-.7.1a1.4 1.4 0 0 1-.7-2.5l.1-.1a10.7 10.7 0 0 1 10.4 0h.2a1.4 1.4 0 0 1-.8 2.6" fill="#e6e6e6"/>
  <path d="m138 45.6-.3-.2a23 23 0 0 1-4.8-5.9 22.6 22.6 0 0 1-2.8-8.3v-.5a5.8 5.8 0 0 0-1.3-2.8l-.2-.2a39.9 39.9 0 0 0-20.3-12.3 25.1 25.1 0 0 1 3.1-13.3l.2-.7c0-.8-.7-1.4-1.5-1.4h-.3a52.8 52.8 0 0 0-37.3 26.3 48.3 48.3 0 0 0-6.6-2.9 49.2 49.2 0 0 0-21.1-2.6A49.3 49.3 0 0 0 0 69.8v12.4a21.2 21.2 0 0 0 20.6 21.2H52a6.1 6.1 0 0 1 1 0h.1a7.4 7.4 0 0 1 6.8 7.4v.2a7.5 7.5 0 0 0 7.4 7.2 7.4 7.4 0 0 0 7.4-6.9v-.7a22.3 22.3 0 0 0-16-21.4 22.4 22.4 0 0 0-6.2-.9H25.9a11.2 11.2 0 0 1 .2-22.3H126a5.8 5.8 0 0 0 5.5-4l.1-.3a5.8 5.8 0 0 1 2-2.8l.2-.1a11.4 11.4 0 0 0 4.3-13.2m-13.4-4.5-.7-.1a7.8 7.8 0 0 0-5.4-1c-.8.2-1.6.5-2.3 1h-.1l-.7.1a1.4 1.4 0 0 1-.7-2.5l.1-.1a10.7 10.7 0 0 1 10.4 0h.2a1.4 1.4 0 0 1-.8 2.6" fill="none"/>
  <path d="M72.7 26.1A28.1 28.1 0 0 0 100 48.7c7.9 0 15-3.4 20.1-8.8a7.6 7.6 0 0 0-3.9 1 .5.5 0 0 0-.1.1l-.6.1a1.4 1.4 0 0 1-.8-2.5l.1-.1a10.7 10.7 0 0 1 7.5-1.1 28.8 28.8 0 0 0 5-11.1 39.8 39.8 0 0 0-19-10.9 25.1 25.1 0 0 1 3.1-13.3l.2-.7c0-.8-.7-1.4-1.5-1.4h-.3a52.8 52.8 0 0 0-37.1 26.1" fill="#ff6740"/>
  <path d="m130.6 52.8-3.7-1a64.3 64.3 0 0 0-11.1-1.8c-2.5-.2-5 0-7.5.1l-1.9.2-1.8.4c-1.3.1-2.4.6-3.7.9a27.4 27.4 0 0 1 7.3-2.2 41.8 41.8 0 0 1 15.2.9 37 37 0 0 1 7.2 2.5m-1.1 2.3c-1.3-.2-2.5-.4-3.8-.4a64.2 64.2 0 0 0-11.3-.1c-2.5.1-5 .6-7.3 1.2l-1.8.4-1.8.7c-1.2.3-2.3 1-3.5 1.4a27.4 27.4 0 0 1 6.9-3.3 34.3 34.3 0 0 1 7.5-1.4 42.3 42.3 0 0 1 15 1.5m-.1 2.7a59 59 0 0 0-3.8.3 64.4 64.4 0 0 0-11 2.4c-2.4.7-4.7 1.7-7 2.8l-1.6.8-1.6 1c-1.1.6-2 1.4-3.1 2.1 1.8-1.8 3.8-3.4 6-4.6a34.2 34.2 0 0 1 7-3 42.3 42.3 0 0 1 15-1.9" fill="#272b30"/>
  <path d="m137.7 45.4-1.2-1.1a3.7 3.7 0 0 0 1.9 6.8l.1-.5a11.3 11.3 0 0 0-.6-5l-.2-.2" fill="#f27baa"/>
  <path d="M107 17.4v.5a39.8 39.8 0 0 0-12 7.7 21.3 21.3 0 0 1 16.5-23.8 29 29 0 0 0-4.5 15.6" fill="#fff"/>
  <path d="M68.1 94.8a22.3 22.3 0 0 0-1.5-1.4 17.3 17.3 0 0 0-12.4 10.2 7.4 7.4 0 0 1 5.7 7v.4a7.5 7.5 0 0 0 3.5 6.1 7.4 7.4 0 0 0 11.3-6v-.5a22.3 22.3 0 0 0-6.6-15.8" fill="#ff6740"/>
  <path d="M169.9 96.1h12.4l4-41 14.4 39.5h7.6L222.8 55l4 41h12.4l-6.3-63.4h-13.2l-15.2 39.7-15.1-39.7h-13.2zm90.7 1.3a18 18 0 0 0 13.7-6.5v5.2h11.8V56.8h-11.8v4.8a15.7 15.7 0 0 0-6-4.4 18 18 0 0 0-7.7-1.6 18.6 18.6 0 0 0-17 10.2 22.2 22.2 0 0 0-2.5 10.6c0 4 .9 7.6 2.6 10.8a18.6 18.6 0 0 0 16.9 10.1zm3.5-10c-3 0-5.6-1-7.6-3.1-2-2-3-4.7-3-7.8 0-3.2 1-5.8 3-7.8s4.5-3.1 7.6-3.1c3 0 5.5 1 7.5 3s3 4.7 3 7.9c0 3.1-1 5.7-3 7.8-2 2-4.5 3-7.5 3zm28.2 8.7h11.8V72.8c0-2.2.8-4.1 2.3-5.7a8.2 8.2 0 0 1 6.2-2.3c2.5 0 4.5.8 6 2.4a9.2 9.2 0 0 1 2.2 6.5v22.4h11.8V71.2c0-3.1-.6-5.8-2-8.2a14 14 0 0 0-5.3-5.5 17.7 17.7 0 0 0-21.1 3.6v-4.3h-11.9zm64.7 21.2a28 28 0 0 0 12.9-2.6c3.4-1.8 6-4.1 7.6-7.2 1.7-3 2.5-6.4 2.5-10.3V56.8h-11.8v4.8a15.9 15.9 0 0 0-5.8-4.4c-2.4-1.1-5-1.6-7.7-1.6a19 19 0 0 0-17.2 10.1 22.3 22.3 0 0 0-2.5 10.8c0 4 .9 7.6 2.6 10.8a20 20 0 0 0 7 7.4 18.4 18.4 0 0 0 23.6-3.8v5.6c0 3.2-1 5.7-3.1 7.7a11 11 0 0 1-8.1 2.9c-2.5 0-4.8-.6-6.9-1.6-2-1.1-3.7-2.6-4.7-4.4l-9.6 4.7a17 17 0 0 0 7.8 8.5c3.7 2 8.1 3 13.4 3zm.9-30c-3 0-5.6-1-7.6-3s-2.9-4.6-2.9-7.8c0-3.1 1-5.8 3-7.8s4.6-3.1 7.6-3.1 5.5 1 7.5 3c2 2.1 3 4.8 3 8a10.2 10.2 0 0 1-10.6 10.7zm44.7 10a17.9 17.9 0 0 0 13.8-6.4v5.2h11.8V56.8h-11.8v4.8a15.7 15.7 0 0 0-6-4.4c-2.4-1.1-5-1.6-7.8-1.6a18.6 18.6 0 0 0-17 10.2 22.2 22.2 0 0 0-2.4 10.6c0 4 .8 7.6 2.6 10.8a18.6 18.6 0 0 0 16.9 10.1zm3.5-10c-3 0-5.5-1-7.5-3s-3-4.7-3-7.8c0-3.2 1-5.8 3-7.8s4.5-3.1 7.5-3.1 5.6 1 7.6 3 3 4.7 3 7.9a10.2 10.2 0 0 1-10.6 10.8zm30 8.8h17.4a32.8 32.8 0 0 0 22.7-9 30.5 30.5 0 0 0 9.2-22.6 31.4 31.4 0 0 0-32-31.8h-17.3zM448.5 85V43.9h3.6a19.6 19.6 0 0 1 20 20.6c0 3.9-.9 7.4-2.6 10.5A19.2 19.2 0 0 1 452 85zm59 12.4c4.2 0 8-1 11.3-2.7 3.4-1.8 6-4.3 7.9-7.5l-8.5-4.3c-1.5 1.8-3 3-4.6 3.9-1.6.7-3.4 1.1-5.4 1.1-3.3 0-6-.9-8-2.7-2-1.8-3-4.2-3-7.2h30.2a14.5 14.5 0 0 0 .2-2.2c0-4-.9-7.6-2.6-10.6a20.5 20.5 0 0 0-18-9.6 22.2 22.2 0 0 0-19 10.2c-2 3.2-2.9 6.7-2.9 10.7a20 20 0 0 0 11 18.1c3.3 1.9 7.2 2.8 11.4 2.8zm-9.8-26c.2-2.2 1.2-4 2.8-5.3 1.7-1.3 3.8-2 6.3-2s4.5.7 6.1 2a8.5 8.5 0 0 1 3 5.4zm25.5 24.7h14.2l9.8-12.4 9.9 12.4h14l-16.7-20.5 14.4-18.8h-13.7l-7.9 10.5-7.9-10.5h-13.7L540 75.6z" fill="currentColor"/>
</svg>