<?xml version="1.0" encoding="UTF-8" standalone="no"?>
<!-- Created with Inkscape (http://www.inkscape.org/) -->

<svg
   xmlns:dc="http://purl.org/dc/elements/1.1/"
   xmlns:cc="http://creativecommons.org/ns#"
   xmlns:rdf="http://www.w3.org/1999/02/22-rdf-syntax-ns#"
   xmlns:svg="http://www.w3.org/2000/svg"
   xmlns="http://www.w3.org/2000/svg"
   xmlns:xlink="http://www.w3.org/1999/xlink"
   xmlns:sodipodi="http://sodipodi.sourceforge.net/DTD/sodipodi-0.dtd"
   xmlns:inkscape="http://www.inkscape.org/namespaces/inkscape"
   version="1.1"
   id="svg976"
   width="752"
   height="341.12799"
   viewBox="0 0 752 341.12799"
   sodipodi:docname="mplus.svg"
   inkscape:version="0.92.4 (5da689c313, 2019-01-14)">
  <metadata
     id="metadata982">
    <rdf:RDF>
      <cc:Work
         rdf:about="">
        <dc:format>image/svg+xml</dc:format>
        <dc:type
           rdf:resource="http://purl.org/dc/dcmitype/StillImage" />
        <dc:title></dc:title>
      </cc:Work>
    </rdf:RDF>
  </metadata>
  <defs
     id="defs980">
    <linearGradient
       inkscape:collect="always"
       id="linearGradient1537">
      <stop
         style="stop-color:#e5000f;stop-opacity:1"
         offset="0"
         id="stop1533" />
      <stop
         style="stop-color:#e85100;stop-opacity:1"
         offset="1"
         id="stop1535" />
    </linearGradient>
    <linearGradient
       inkscape:collect="always"
       xlink:href="#linearGradient1537"
       id="linearGradient1539"
       x1="101.88679"
       y1="172.32123"
       x2="101.88679"
       y2="56.20137"
       gradientUnits="userSpaceOnUse"
       gradientTransform="translate(-82.886792,-16.842953)" />
  </defs>
  <sodipodi:namedview
     pagecolor="#ffffff"
     bordercolor="#666666"
     borderopacity="1"
     objecttolerance="10"
     gridtolerance="10"
     guidetolerance="10"
     inkscape:pageopacity="0"
     inkscape:pageshadow="2"
     inkscape:window-width="1920"
     inkscape:window-height="1048"
     id="namedview978"
     showgrid="false"
     showguides="true"
     inkscape:guide-bbox="true"
     fit-margin-top="0"
     fit-margin-left="0"
     fit-margin-right="0"
     fit-margin-bottom="0"
     inkscape:zoom="1.06"
     inkscape:cx="333.56503"
     inkscape:cy="382.49104"
     inkscape:window-x="1920"
     inkscape:window-y="677"
     inkscape:window-maximized="1"
     inkscape:current-layer="svg976" />
  <path
     style="fill:#221714;fill-opacity:1"
     d="m 471.5,339.27042 c -7.96813,-2.31626 -11.12652,-4.07297 -17.29677,-9.62056 -6.24967,-5.61899 -11.50272,-15.65458 -13.86744,-26.49281 -2.34743,-10.75894 -2.62926,-74.56184 -0.33579,-76.0174 2.3287,-1.47791 31.27322,-1.24519 33.25775,0.2674 1.44934,1.10468 1.67501,5.0284 1.94113,33.75 0.32869,35.47594 0.44452,36.21454 6.416,40.9117 3.63767,2.8614 11.13521,2.85932 14.77544,-0.004 5.65736,-4.45007 5.96618,-6.4747 6.3913,-41.90161 0.27902,-23.25102 0.7211,-32.70468 1.55416,-33.23468 1.39396,-0.88686 30.81867,-1.03302 33.08243,-0.16433 1.40074,0.53751 1.5798,4.57229 1.56443,35.25 -0.0192,38.40606 -0.55871,43.27819 -6.07071,54.82755 -5.52237,11.57108 -15.27335,19.35128 -28.60523,22.82379 -7.90287,2.05844 -25.07813,1.85167 -32.8067,-0.39496 z m 105.87267,-0.0921 C 564.82125,335.88762 552,328.209 552,323.98267 c 0,-2.62273 9.89237,-21.84709 11.57403,-22.4924 0.71657,-0.27497 4.14305,1.07837 7.61441,3.00743 16.33947,9.07998 33.81156,10.3364 33.81156,2.43139 0,-3.68268 -3.04186,-5.69929 -13.41112,-8.89096 -24.08551,-7.41355 -33.14636,-14.77858 -36.60633,-29.7551 -3.14507,-13.61352 2.21884,-28.24967 13.37923,-36.50701 8.0766,-5.97571 16.26554,-7.90127 31.39739,-7.38281 14.6102,0.50057 21.86791,2.41832 32.12055,8.48736 9.26768,5.486 9.32674,5.90419 2.70001,19.11751 -6.38373,12.72879 -6.70849,12.90717 -14.62748,8.03457 -9.39582,-5.78131 -23.33873,-8.67339 -27.12138,-5.6256 -5.63602,4.5411 -1.63863,8.5869 13.16913,13.32864 19.36258,6.20027 26.63017,10.71451 31.55104,19.59781 2.78571,5.02885 2.94896,5.96016 2.94896,16.82355 0,9.63783 -0.34609,12.2485 -2.13733,16.1224 -4.51854,9.77226 -12.82726,16.20076 -25.05597,19.38593 -8.22587,2.14257 -26.86778,1.88989 -35.93403,-0.48707 z m -332.39742,-3.58637 c -1.57492,-4.14234 -1.26929,-149.29639 0.32095,-152.4349 l 1.26672,-2.5 33.96854,0.0255 c 28.95128,0.0217 34.98763,0.28321 40.86809,1.7703 10.03554,2.53784 18.57737,6.96438 24.28981,12.58742 10.64687,10.48026 14.6873,22.22674 14.65885,42.61679 -0.0128,9.18569 -0.53137,14.90716 -1.76736,19.5 -3.88234,14.42643 -12.39874,25.36519 -24.48804,31.45326 -10.59228,5.33419 -17.66261,6.81748 -35.59281,7.46708 l -16,0.57966 -0.2722,19.42429 c -0.17187,12.26423 -0.67777,19.91296 -1.37245,20.75 -0.83429,1.00525 -5.18584,1.3257 -18.00255,1.3257 h -16.9023 z m 62.2934,-77.81524 c 9.99286,-3.00741 14.66925,-9.33455 14.70939,-19.90178 0.0357,-9.40411 -3.39568,-15.14236 -10.97804,-18.35835 -3.87394,-1.64311 -22.21922,-3.02329 -26.36261,-1.98337 L 282,218.19515 v 19.81429 c 0,10.89785 0.3,20.11428 0.66667,20.48094 1.22819,1.2282 19.95467,0.68497 24.60198,-0.71367 z m 72.33834,78.79855 C 379.27314,335.70528 379,300.86242 379,259.14669 c 0,-67.61829 0.17048,-76.01726 1.57143,-77.41821 2.3171,-2.31711 30.54004,-2.31711 32.85714,0 1.40109,1.40108 1.57143,9.83463 1.57143,77.8 0,57.95555 -0.28766,76.51623 -1.2,77.42857 -0.83453,0.83453 -6.13178,1.2 -17.39301,1.2 -13.84342,0 -16.28109,-0.22952 -16.8,-1.58179 z M 469,211.65705 c 0,-0.825 0.85338,-1.5 1.89641,-1.5 1.74658,0 8.12612,-6.14172 8.08623,-7.7848 -0.01,-0.39336 -0.67809,-3.83416 -1.48565,-7.64622 -1.55107,-7.32182 -1.45344,-8.14998 0.85626,-7.26367 0.84228,0.32322 1.72887,2.65633 2.13696,5.62354 0.38361,2.78913 1.03044,5.07115 1.43741,5.07115 0.40697,0 2.44454,-2.475 4.52794,-5.5 2.36429,-3.43285 4.50765,-5.5 5.70276,-5.5 1.5111,0 0.2948,2.16086 -5.76948,10.25 -4.22633,5.6375 -8.82697,11.4875 -10.22363,13 -2.74441,2.97202 -7.16521,3.74325 -7.16521,1.25 z m -17.49143,-7.62195 c -0.64941,-1.69838 4.95851,-23.74513 6.40885,-25.19547 1.84444,-1.84444 2.51229,0.2555 1.403,4.41148 -1.06387,3.9858 -1.04646,4.02829 1.55182,3.78716 4.12689,-0.38299 7.06814,1.03306 7.74469,3.72864 0.84707,3.37502 -1.55278,9.2531 -4.75338,11.64269 -3.35528,2.50508 -11.60369,3.5903 -12.35498,1.6255 z m 9.43267,-3.34767 c 3.27525,-1.69369 5.31282,-6.32501 3.89632,-8.85616 -0.54872,-0.9805 -2.16966,-1.67422 -3.912,-1.67422 -3.20473,0 -4.17662,1.49086 -5.47151,8.39324 -0.77739,4.14383 0.58248,4.67347 5.48719,2.13714 z M 513,203.86914 c -2.8845,-1.45198 -4.16488,-6.71209 -1.63381,-6.71209 0.82447,0 1.76926,0.85141 2.09954,1.89203 1.14798,3.61698 6.35697,3.43638 9.48173,-0.32872 1.09226,-1.3161 0.51179,-2.25864 -3.90496,-6.34077 -4.53288,-4.18946 -5.10143,-5.13954 -4.50284,-7.52453 1.48506,-5.91694 10.16675,-8.88988 13.90331,-4.76102 1.7473,1.93074 1.41052,4.06301 -0.64174,4.06301 -0.59441,0 -1.62284,-0.74136 -2.2854,-1.64746 -1.5042,-2.05713 -5.99053,-1.16326 -6.97055,1.38883 -0.49802,1.29688 0.52327,2.77056 3.88969,5.6127 6.47313,5.46499 6.07109,11.28306 -0.98334,14.23059 -4.12716,1.72443 -5.24552,1.74129 -8.45163,0.12743 z m 57.47885,-0.97662 c -3.42504,-2.9461 -3.60938,-6.26528 -0.91833,-16.53528 1.95561,-7.46326 2.92327,-9.1164 4.44533,-7.59434 0.67446,0.67446 0.28324,3.80111 -1.18747,9.49028 -1.20632,4.66643 -1.89548,9.26056 -1.53147,10.20916 1.10538,2.88059 5.31533,3.88775 9.29691,2.22413 3.90382,-1.63112 5.33072,-4.29715 8.0112,-14.96819 1.49493,-5.95137 3.46695,-8.8326 4.99766,-7.30188 0.7825,0.7825 -4.12926,17.38443 -5.97805,20.20605 -2.28022,3.48005 -5.85495,5.62302 -10.39586,6.23208 -3.11909,0.41836 -4.40917,0.0428 -6.73992,-1.96201 z m 68.02075,-0.14496 c -2.82266,-2.82266 -2.88622,-4.88642 -0.16673,-5.41383 0.99442,-0.19286 1.66713,0.32018 1.66713,1.27143 0,0.87712 1.10657,2.09895 2.45904,2.71518 1.96918,0.89722 2.9652,0.78876 5,-0.54449 3.69907,-2.42373 3.21109,-5.17068 -1.44014,-8.10687 -4.95336,-3.12692 -6.06824,-6.62641 -3.29701,-10.34898 2.56716,-3.44845 6.4531,-4.83799 10.02811,-3.58587 3.08323,1.07988 4.54045,5.42292 1.81955,5.42292 -0.86325,0 -1.56955,-0.41968 -1.56955,-0.93261 0,-1.55624 -3.79356,-2.24824 -5.96223,-1.08761 -3.09175,1.65466 -2.47661,4.58588 1.47488,7.02804 3.64215,2.25097 5.48735,4.74291 5.48735,7.41066 0,2.85846 -5.30601,7.62016 -9.17653,8.23517 -3.07957,0.48933 -4.10639,0.15434 -6.32387,-2.06314 z m 52.09626,1.56459 c -0.28904,-0.46767 3.31795,-6.54388 8.01551,-13.5027 10.21198,-15.12767 11.8462,-15.91489 12.77213,-6.1524 0.33908,3.575 0.89392,9.425 1.233,13 0.58299,6.14678 0.50148,6.5 -1.5,6.5 -1.66937,0 -2.1165,-0.6134 -2.1165,-2.90349 0,-2.79049 -0.20404,-2.91724 -5.24292,-3.25708 -4.00358,-0.27001 -5.65826,0.0618 -7,1.40349 -0.96639,0.96639 -1.75708,2.19125 -1.75708,2.7219 0,1.35216 -3.76493,3.22455 -4.40414,2.19028 z m 17.91578,-10.4051 c 0.24688,-0.6875 0.12026,-3.46099 -0.28138,-6.16331 l -0.73026,-4.91332 -3.75,5.64793 c -2.0625,3.10636 -3.75,5.87985 -3.75,6.16332 0,1.14099 8.08881,0.44287 8.51164,-0.73462 z m -173.98165,8 c 4.5944,-18.19678 6.30666,-23.27579 7.95578,-23.59899 1.47947,-0.28994 1.66542,0.11045 1.09915,2.36667 -0.37487,1.4936 -0.94109,4.01315 -1.25825,5.59898 l -0.57667,2.88334 h 6.93595 6.93595 l 1.28088,-4.99774 c 0.70449,-2.74875 1.68956,-5.25031 2.18905,-5.55902 2.55263,-1.57761 2.41619,1.66936 -0.5381,12.80521 -2.35981,8.89505 -3.70278,12.34013 -4.902,12.57487 -1.9935,0.39023 -2.00405,0.0893 -0.23037,-6.57332 l 1.39762,-5.25 h -7.27285 -7.27284 l -1.27329,6 c -1.0096,4.75745 -1.66312,6 -3.1557,6 -1.45378,0 -1.75305,-0.51233 -1.31431,-2.25 z m 62.75573,0.9478 c 0.29275,-0.76289 1.51481,-5.16948 2.71568,-9.79243 1.20088,-4.62296 2.62673,-9.86787 3.16856,-11.65537 l 0.98514,-3.25 h 7.99578 c 7.07794,0 7.95672,0.20088 7.65559,1.75 -0.27927,1.43668 -1.49752,1.76984 -6.8044,1.86084 -5.9179,0.10147 -6.52079,0.31276 -7.13347,2.5 -1.28323,4.58107 -1.0544,4.88916 3.6314,4.88916 3.33333,0 4.5,0.38889 4.5,1.5 0,1.13094 -1.21566,1.5 -4.94098,1.5 -5.52702,0 -5.60474,0.0616 -6.5696,5.20469 l -0.69214,3.68945 5.61286,0.30293 c 8.77367,0.47352 7.19821,2.26422 -2.28341,2.59536 -6.81129,0.23789 -8.27398,0.0337 -7.84101,-1.09463 z m 28.16577,-10.66192 c 2.94278,-11.44317 4.67323,-15.24449 6.23065,-13.68707 0.39351,0.39351 0.15769,2.83851 -0.52405,5.43333 -5.06082,19.26245 -5.3954,20.21786 -7.08028,20.21786 -1.52757,0 -1.386,-1.23299 1.37368,-11.96412 z m 35.56591,11.28744 c 0.0471,-2.22799 6.08838,-23.8291 6.88807,-24.62879 2.12487,-2.12487 2.96555,0.41618 1.61849,4.89211 -1.63761,5.44139 -1.35003,5.65307 7.08801,5.21738 l 5.88803,-0.30402 1.01764,-4.21764 c 1.07195,-4.4427 2.96217,-7.13588 4.1645,-5.93355 0.39351,0.39351 0.15769,2.83851 -0.52405,5.43333 -5.12941,19.52353 -5.37564,20.21786 -7.16977,20.21786 -1.66757,0 -1.6948,-0.3249 -0.39045,-4.65893 2.21972,-7.37559 2.24595,-7.34107 -5.57882,-7.34107 -6.79792,0 -6.99728,0.0721 -7.6038,2.75 -0.34257,1.5125 -0.94207,4.09931 -1.33222,5.74847 -0.61815,2.61286 -4.11246,5.04076 -4.06563,2.82485 z"
     id="path1529"
     inkscape:connector-curvature="0"
     sodipodi:nodetypes="cssccsccscccsscccscssssscssssssscsccsccccscssscscscssccscscscsccssscssccccscsscscssscscccscccsccsccscccccccsssccccccscsccsssssccsssccccssccsccscssccccccccccscscccsscccccsccssssccscccscsccscsccscsssccc" />
  <path
     inkscape:connector-curvature="0"
     id="path1531"
     d="M 428.87637,153.2786 C 424.81937,149.98612 407.325,135.14124 390,120.28996 L 358.5,93.287627 358,123.75984 c -0.4204,25.62105 -0.7388,30.62301 -2,31.4194 -2.06527,1.30412 -39.61746,1.25291 -42.06574,-0.0574 C 312.04858,154.11268 312,152.22211 312,79.844369 c 0,-65.57662 0.1817,-74.5017239 1.5567,-76.4648159 3.06193,-4.37150799 7.12374,-2.50025199 21.4433,9.8788179 5.83779,5.046688 37.13572,31.678467 51.00256,43.398676 4.55515,3.85 8.8609,7.5625 9.56834,8.25 3.21389,3.123327 3.4291,1.353904 3.4291,-28.193296 0,-29.2922499 0.0114,-29.4512819 2.22251,-30.9999999 1.81998,-1.274763 5.62337,-1.556704 21,-1.556704 17.44416,0 18.9195,0.142014 20.77749,2 1.96362,1.963622 1.99973,3.323237 1.98526,74.7499999 -0.0114,56.433043 -0.29691,73.310723 -1.27281,75.250003 -0.86225,1.71345 -2.23364,2.59562 -4.35889,2.80393 -2.52875,0.24786 -4.46169,-0.80048 -10.47719,-5.68238 z m 86.95449,4.92462 c -29.29987,-5.37938 -49.90495,-23.56698 -57.86217,-51.07354 -2.76153,-9.546043 -3.77337,-30.643422 -2.00269,-41.757204 2.77689,-17.429395 9.50665,-30.815708 21.55261,-42.870752 6.21948,-6.224169 10.11141,-9.141911 16.43572,-12.321713 C 507.08568,3.5776961 514.96678,1.8431781 532,1.8067011 c 17.50302,-0.03748 26.68448,1.966931 40.78399,8.9036019 C 583.82527,16.142387 589,20.336802 589,23.854304 c 0,2.390066 -13.57576,27.940614 -16.7649,31.552743 -2.1812,2.470497 -3.31119,2.261851 -12.69192,-2.343488 -20.01349,-9.825347 -41.78234,-7.675163 -50.93442,5.030965 C 503.36254,65.378035 502,70.026212 502,80.639771 c 0,11.405316 2.18402,18.172636 7.99567,24.775019 5.97837,6.79179 12.05853,9.008 23.54937,8.58374 C 543.68986,113.62397 547,112.02574 547,107.50206 c 0,-2.20228 -0.36919,-2.34501 -6.06574,-2.34501 -10.2663,0 -9.93426,0.65175 -9.93426,-19.500003 0,-16.459661 0.11234,-17.489753 2.01858,-18.509945 3.18017,-1.701975 56.18438,-0.900147 58.32967,0.88239 1.47837,1.228383 1.65175,5.066125 1.65175,36.561438 0,41.00944 1.04188,37.35251 -12.4264,43.61562 -16.29808,7.57904 -26.77793,9.96261 -46.0736,10.47914 -7.7,0.20613 -16.10111,-0.011 -18.66914,-0.48247 z M 1.571429,154.58562 C 0.171241,153.18543 0,144.97015 0,79.196402 0,9.1355511 0.0932,5.2635151 1.831282,3.1170771 5.381744,-1.2675579 8.245388,0.94503311 31.074998,25.712209 c 4.08375,4.430339 14.625,15.831148 23.425,25.335131 8.8,9.503983 16.35986,17.91666 16.79969,18.694838 0.43983,0.778178 1.17962,1.414869 1.64397,1.414869 0.80629,0 23.77382,-24.421022 44.127442,-46.920043 16.69535,-18.4551379 21.86348,-23.2259479 24.78927,-22.8834939 5.16603,0.604668 5.10902,-0.267389 5.12489,78.3985489 0.014,69.553741 -0.0739,73.175201 -1.814,74.750001 -1.56826,1.41926 -4.56883,1.65499 -21.06574,1.65499 -11.34821,0 -20.03021,-0.42451 -21.17126,-1.03518 C 101.1051,154.14293 101,152.79361 101,130.28853 c 0,-13.08898 -0.28301,-24.08116 -0.62892,-24.42707 -0.34591,-0.3459 -6.017452,4.9791 -12.603432,11.83334 -8.87113,9.23246 -12.60307,12.46225 -14.39981,12.46225 -1.76977,0 -5.16067,-2.83538 -12.54567,-10.49038 -5.56621,-5.7697 -10.7538,-11.3947 -11.52798,-12.5 -0.77418,-1.10529 -1.83208,-2.00962 -2.35089,-2.00962 -0.56478,0 -0.9433,9.6018 -0.9433,23.92857 0,20.41991 -0.23042,24.15899 -1.57143,25.5 -1.32305,1.32306 -4.70995,1.57143 -21.42857,1.57143 -16.718613,0 -20.105514,-0.24837 -21.428569,-1.57143 z m 150.504351,-0.28698 c -1.01781,-1.90179 -1.38129,-1.08443 29.52431,-66.391593 4.61995,-9.7625 12.17188,-25.7375 16.78207,-35.5 24.04331,-50.9139029 24.82802,-52.24999989 30.68714,-52.24999989 3.84229,0 8.21055,3.98767899 11.21074,10.23401889 3.92489,8.171564 12.6776,26.599558 21.49988,45.265981 4.41907,9.35 11.67639,24.593948 16.12738,33.87544 4.45098,9.28149 8.0927,16.987543 8.0927,17.124563 0,0.13702 3.64791,7.84307 8.10647,17.12456 13.91812,28.97369 14.48031,30.55256 11.31174,31.76845 -2.58578,0.99226 -42.39685,0.68879 -44.31505,-0.3378 -0.97095,-0.51964 -4.16043,-6.37873 -7.08774,-13.02022 l -5.32237,-12.07542 -20.06846,0.27021 -20.06846,0.27022 -5.02807,11.11265 c -2.76543,6.11196 -5.64566,11.84946 -6.4005,12.75 -1.19232,1.42245 -4.17361,1.63735 -22.71482,1.63735 -19.77688,0 -21.41533,-0.13632 -22.33696,-1.85841 z m 85.46979,-61.215323 c 0.83143,-1.34528 -7.71648,-21.974623 -8.94967,-21.598954 -0.49726,0.15148 -2.93991,4.901209 -5.42811,10.554954 -3.73749,8.49237 -4.27573,10.43666 -3.0959,11.18332 2.02883,1.28395 16.66618,1.16724 17.47368,-0.13932 z m 359.78228,61.485713 c -0.91649,-2.38835 0.46309,-5.79419 12.92641,-31.91198 10.92168,-22.887183 44.16182,-92.849805 51.45818,-108.307276 9.52209,-20.1727209 16.57611,-19.2124729 27.48934,3.74206 3.28563,6.910867 11.61432,24.490213 18.50821,39.065213 6.89389,14.575 19.67937,41.53111 28.41218,59.902473 C 744.85498,135.43088 752,151.47024 752,152.70253 c 0,1.2323 -0.7118,2.51369 -1.58179,2.84753 -0.86998,0.33385 -10.90897,0.60699 -22.30887,0.60699 -15.05143,0 -21.17046,-0.34228 -22.34626,-1.25 -0.89055,-0.6875 -3.96224,-6.54662 -6.82598,-13.02028 l -5.20679,-11.77027 -20.07833,0.27027 -20.07834,0.27028 -4.80982,11 c -2.6454,6.05 -5.74932,11.7875 -6.8976,12.75 -1.84247,1.54437 -4.54602,1.75 -23.00839,1.75 -18.18898,0 -21.00017,-0.20735 -21.52998,-1.58802 z m 84.61103,-61.353043 c 1.21382,-0.76804 1.00549,-1.97784 -1.33194,-7.73469 -3.93057,-9.680576 -5.96887,-13.611647 -7.01666,-13.53235 -1.29316,0.09786 -9.82372,20.02137 -9.08455,21.21737 0.76705,1.24111 15.4839,1.28304 17.43315,0.0497 z"
     style="fill:url(#linearGradient1539);fill-opacity:1"
     sodipodi:nodetypes="cscsccscsscssscscsccssssssssssssssssccsssccssssssssscscscssccsscsccssssssssccscccccscscccsssscssscscscccscsscscscc" />
</svg>
