<svg xmlns="http://www.w3.org/2000/svg" viewBox="0 0 1195.8 249.4">
  <path fill="#0d44b4" d="M57.5 201.5c0-24 0-33.7.2-21.7.2 12 .2 31.5 0 43.5-.1 12-.2 2.1-.2-21.8zm899.2 39.2c-1.6-1.7-1.7-10-1.7-100 0-96.9 0-98.2 2-100.2s3.3-2 41.8-2c50.9 0 63 1.5 79.7 9.5a51 51 0 0 1 27.3 31.3c2.2 6.8 2.6 9.4 2.6 21.7 0 21.6-4.2 33.7-16 45.2-13.4 13.1-33.4 19.2-63.4 19.3-7.4 0-14 .4-14.7.8-.9.6-1.3 10.1-1.5 36.8-.2 28.8-.6 36.4-1.7 37.8-1.2 1.4-4.4 1.6-27 1.6-23.7 0-26-.1-27.4-1.8zm99.3-118c0-.4-5.8-11.7-13-25.2-10.8-20.6-13.2-24.5-15-24.5-1.9 0-4.3 4-15.1 24.4-7.1 13.4-12.9 24.7-12.9 25.2s12.2 1 28 1c15.4 0 28-.4 28-.8zm57.5 118.8c-12.6-2.8-21.4-8.6-25-16.7-2-4.5-1.9-14 .4-18.8 5.7-12.6 22.1-17 39.4-10.5 14.6 5.5 21.3 15.8 18.7 28.5-2.3 11.1-10.4 17.5-22.9 18.1-3.6.2-8.4 0-10.6-.6zm-532.7-21.7c.6-.2 1.8-.2 2.5 0 .6.3 0 .5-1.3.5-1.4 0-2-.2-1.2-.5zm27 0c.6-.2 1.8-.2 2.5 0 .6.3 0 .5-1.3.5-1.4 0-2-.2-1.2-.5zm-455.5-3c12.6-.2 32.8-.2 45 0 12.2.1 2 .2-22.8.2-24.7 0-34.7 0-22.2-.2zm178 0c12.5-.2 33-.2 45.5 0 12.5.1 2.2.2-22.8.2s-35.3 0-22.7-.2zM224 215c0-.2.8-1 1.8-1.7 1.5-1.3 1.6-1.2.3.4S224 216 224 215zm623.6-1.7c-4.3-.4-8-1-8-1.1l-30.4-57.6L779 97.4V69.9c0-26 .1-27.5 2-29.4 1.9-1.9 3.3-2 26.4-2 21.8 0 24.6.2 26.5 1.8 2 1.7 2 2.6 2.4 50.7.3 54.4.5 55.8 7 63.2 7 8 21 10 31.6 4.6 5-2.5 6-3.6 9.1-9.7l3.5-6.9.3-66c.3-59.2.5-66.3 1.9-68 1.5-1.5 4-1.7 27.3-1.7 22.7 0 26 .2 27.1 1.7 1.2 1.3 1.4 13.5 1.4 70.2 0 62.7-.2 69.3-1.8 77.1-7.4 34.2-31.4 54-70.2 58a93 93 0 0 1-25.9 0zM124.1 211c0-1.1.3-1.4.6-.6.3.7.2 1.6-.1 2-.3.3-.6-.3-.5-1.4zm1000.5-26c-17-4-19.5-5-20.2-8a4723 4723 0 0 1 30-173.4c2.2-5 4.6-4.8 31.3 1.4a186 186 0 0 1 27.3 7.5c1.4 1 2.6 3 2.8 4.3.2 1.4-8.3 32.2-18.8 68.4-27.6 95-29 99.7-30.7 101.7-2.2 2.4-5.5 2-21.7-1.8zm-779.1-68.4c0-36 .1-50.8.2-32.7.2 18 .2 47.4 0 65.5-.1 18-.2 3.2-.2-32.8zm-274 55.8-6-6.3 6.3 6c5.8 5.5 6.7 6.5 6 6.5-.2 0-3-2.8-6.3-6.2zM112 170c3.5-3.6 6.7-6.5 7-6.5.2 0-2.5 3-6 6.5a68.7 68.7 0 0 1-7 6.5c-.2 0 2.5-3 6-6.5zm502.4-23c0-8.8.2-12.3.3-7.7.2 4.6.2 11.8 0 16-.1 4.2-.3.5-.3-8.3zm-45.5 12.8c-1.3-1.6-1.2-1.7.4-.4 1.6 1.3 2.1 2.1 1.3 2.1-.2 0-1-.8-1.7-1.7zm-.4-55.3c1-1 2-2 2.3-2 .3 0-.3 1-1.3 2-1 1.1-2 2-2.3 2-.3 0 .3-.9 1.3-2zm76.5-.4c0-.2.8-1 1.8-1.7 1.5-1.3 1.6-1.2.3.4S645 105 645 104zm-53.2-10.3c.7-.3 1.6-.2 2 .1.3.3-.3.6-1.4.5-1.1 0-1.4-.3-.6-.6zm12 0c.6-.2 1.8-.2 2.5 0 .6.3 0 .5-1.3.5-1.4 0-2-.2-1.2-.5zM525 68a19 19 0 0 1 3.9-3.5c.3 0-1 1.6-2.9 3.5a19 19 0 0 1-3.9 3.5c-.3 0 1-1.6 2.9-3.5zM24.5 55.3 14.5 45l10.3 10c9.5 9.3 10.7 10.5 10 10.5-.2 0-4.8-4.6-10.3-10.2zM164 48a19 19 0 0 1 3.9-3.5c.3 0-1 1.6-2.9 3.5a19 19 0 0 1-3.9 3.5c-.3 0 1-1.6 2.9-3.5zm106.4-4.7-1.9-2.3 2.3 2c2 1.7 2.7 2.5 1.9 2.5-.2 0-1.2-1-2.3-2.2zm313.4-1.5c.6-.2 1.8-.2 2.5 0 .6.3 0 .5-1.3.5-1.4 0-2-.2-1.2-.5zm23 0c.6-.2 1.8-.2 2.5 0 .6.3 0 .5-1.3.5-1.4 0-2-.2-1.2-.5z"/>
  <path fill="currentColor" d="M3.7 248.8c-1-.2-2.2-1.6-2.8-3-.5-1.4-.9-41-.9-99.4C0 41.2-.1 43.4 5.3 42c1.4-.4 3.7 0 5.3.8 1.6.9 20.4 18.7 41.7 39.7L91 120.8l38.2-38c21-21 39.8-38.8 41.6-39.7 4-2 7.5-1.4 9.3 1.7 1 1.7 1.4 17.8 1.8 71.2l.5 69 36.5-69.3c20-38.1 37.8-70.6 39.4-72.2 4-4.1 8.2-4 12.3.3 3.7 3.8 2 .8 41.7 76.2 17.4 33 32 60.4 32.6 61 .7.6 1-22.2 1-66.7V46.6l2.3-2.7c2-2.3 2.8-2.6 6-2 4.3.8 2.8-.3 56.8 41.9 22.4 17.4 41 31.7 41.3 31.7.3 0 .6-22.2.6-49.3 0-41 .2-49.6 1.4-51.3 1.4-1.8 2.9-1.9 27-1.9 19.6 0 25.8.3 26.8 1.3s1.4 9.8 1.8 38l.5 36.7 3.4-6c4.5-8 18.8-22.1 27.7-27.3 16.2-9.5 33-13.7 55.5-13.7 21.8 0 36.5 3.4 54.7 12.6C662.4 60 667 63.8 667 67.4c0 3-17 31.6-21.4 36-3 2.9-3.5 2.8-17.3-3.3-4.5-2-11.6-4.3-15.8-5.1-32.1-6.2-53.5 8.6-53.5 37 0 18 9.3 31.6 25 36.2a62 62 0 0 0 26.8-.6c3.6-2 4.2-5.1 4.2-22.1 0-15.3 0-16 2.2-17.4 1.9-1.3 6.1-1.6 26.3-1.6 25.4 0 27.5.4 27.7 4.5 0 1.1-9.9 21-22.1 44.2l-22.3 42.1-6.1 1.1a175 175 0 0 1-40.2 1.2c-29.4-3.6-52.3-16.7-66.4-38l-3.6-5.4-.5 20c-.4 18-.7 20.3-2.4 22.2-2.7 3-6.6 2.6-12.4-1.2-2.7-1.9-24.3-18.5-48-37a2281.4 2281.4 0 0 0-43.6-33.7c-.4 0-.6 14.8-.6 32.8 0 28-.2 33-1.6 35l-1.5 2.2h-47.2c-41.5 0-47.5-.2-49.5-1.6a336 336 0 0 1-20.7-38.5 1016 1016 0 0 0-19-36.9c-.3 0-8.5 16.3-18.3 36.3-12.6 25.6-18.7 37-20.6 38.5l-2.9 2.2h-46.6c-38.8 0-47-.2-48.7-1.4-1.8-1.3-2-3.2-2.4-28.7l-.5-27.3-14.7 14.2c-12.3 11.8-15.3 14.2-17.8 14.2-2.4 0-5.6-2.5-18.2-14.5l-15.3-14.5-.2 43.7c-.3 43.3-.3 43.8-2.4 45.6-1.9 1.5-4.6 1.7-25.8 1.6-13 0-24.4-.3-25.4-.6zM639.5 218c-1-1-1.3-2.4-.9-3.7a6575 6575 0 0 1 89.1-167.9c5-5.3 10.7-4 15.6 3.5A6074 6074 0 0 1 830 215.2c0 4.1-1.4 4.3-27.7 4.3-20.9 0-26-.3-28.4-1.5-2.5-1.3-6-7.5-21.8-39.3L733.3 141l-18.6 37.8c-17.6 35.7-18.8 37.9-22.1 39.2-2.8 1.2-8.7 1.5-27.5 1.5-20.7 0-24.2-.2-25.6-1.6z"/>
</svg>
