<svg xmlns="http://www.w3.org/2000/svg" viewBox="0 0 711.655 103.133">
    <g fill="currentColor">
        <path
            d="M163.772 81.059c-16.503 0-30.156-13.505-30.156-29.902s13.653-29.902 30.156-29.902c9.205 0 15.549 3.538 20.316 8.357l-5.709 5.783c-3.495-3.22-8.251-5.783-14.596-5.783-12.065 0-21.269 9.65-21.269 21.862 0 11.895 9.205 21.862 21.269 21.862 7.616 0 12.065-3.22 14.914-6.112 2.224-2.246 3.813-5.783 4.438-10.285h-19.363v-8.357h27.296c.318 1.61.318 3.22.318 5.148 0 6.112-1.589 13.823-6.98 18.971-5.085 5.467-11.747 8.358-20.634 8.358zM233.596 61.771c0 11.249-8.569 19.288-18.727 19.288s-18.727-8.039-18.727-19.288 8.569-19.288 18.727-19.288 18.727 8.357 18.727 19.288zm-8.252 0c0-7.076-4.766-11.577-10.476-11.577-5.709 0-10.476 4.819-10.476 11.577 0 6.747 4.766 11.577 10.476 11.577 5.72 0 10.476-4.501 10.476-11.577zM275.816 61.771c0 11.249-8.569 19.288-18.727 19.288-10.476 0-18.727-8.039-18.727-19.288s8.569-19.288 18.727-19.288c10.476 0 18.727 8.357 18.727 19.288zm-8.251 0c0-7.076-4.767-11.577-10.476-11.577s-10.475 4.819-10.475 11.577c0 6.747 4.766 11.577 10.476 11.577 5.708.318 10.475-4.501 10.475-11.577zM317.073 43.764v34.721c0 14.141-8.251 19.935-18.091 19.935-9.205 0-14.914-6.429-16.82-11.249l7.298-3.22c1.271 3.22 4.449 6.747 9.522 6.747 6.345 0 10.158-3.856 10.158-11.249v-2.892h-.318c-1.907 2.246-5.391 4.502-10.158 4.502-9.522 0-18.409-8.357-18.409-19.288s8.887-19.288 18.409-19.288c4.449 0 8.251 1.928 10.158 4.184h.318v-2.892h7.934l-.001-.011zm-7.298 18.007c0-6.747-4.449-11.895-10.158-11.895s-10.793 4.819-10.793 11.895c0 6.747 4.756 11.577 10.793 11.577 5.72.318 10.158-4.819 10.158-11.577zM331.68 23.194v56.584h-8.251V23.194h8.251zM364.685 68.2l6.663 4.502c-2.224 3.22-7.298 8.686-15.867 8.686-10.793 0-18.727-8.357-18.727-19.288 0-11.577 7.934-19.288 17.774-19.288s14.924 8.039 16.503 12.213l.953 2.246-25.707 10.613c1.907 3.856 5.074 5.783 9.205 5.783 4.129-.001 6.989-2.247 9.203-5.467zm-19.998-7.075l17.138-7.076c-.953-2.256-3.813-4.184-6.98-4.184-4.438.011-10.476 3.866-10.158 11.26z" />
        <g>
            <path
                d="M399.863 58.651V79.98h-6.686V27.32h17.72c4.506 0 8.323 1.523 11.473 4.558 3.192 3.035 4.787 6.738 4.787 11.108 0 4.464-1.596 8.187-4.787 11.181-3.098 2.993-6.925 4.485-11.473 4.485h-11.034v-.001zm0-24.865v18.388h11.181c2.66 0 4.86-.907 6.602-2.722 1.794-1.815 2.691-3.974 2.691-6.477 0-2.451-.897-4.589-2.691-6.394-1.742-1.867-3.943-2.795-6.602-2.795h-11.181zM439.455 27.32v52.66h-6.686V27.32h6.686zM451.523 68.946c0 1.763.73 3.233 2.18 4.412 1.502 1.179 3.244 1.763 5.225 1.763 2.806 0 5.298-1.053 7.478-3.16 2.222-2.107 3.338-4.589 3.338-7.426-2.086-1.669-4.985-2.503-8.709-2.503-2.712 0-4.985.657-6.821 1.982-1.794 1.323-2.691 2.971-2.691 4.932zm8.636-26.19c4.933 0 8.834 1.345 11.692 4.047 2.858 2.649 4.287 6.3 4.287 10.962v22.216h-6.383v-5.006h-.292c-2.764 4.12-6.435 6.174-11.045 6.174-3.922 0-7.217-1.179-9.877-3.525-2.607-2.357-3.922-5.298-3.922-8.824 0-3.723 1.377-6.696 4.141-8.897 2.806-2.211 6.529-3.306 11.181-3.306 3.963 0 7.238.741 9.804 2.211v-1.544c0-2.357-.918-4.339-2.764-5.955-1.836-1.669-3.995-2.503-6.467-2.503-3.723 0-6.686 1.596-8.855 4.777l-5.882-3.755c3.253-4.715 8.051-7.072 14.382-7.072zM514.185 43.935l-22.289 51.92h-6.905l8.281-18.169-14.664-33.751h7.259l10.597 25.887h.136l10.315-25.887h7.27z" />
        </g>
        <g>
            <path
                d="M531.384 29.7h18.219c2.552 0 4.95.592 7.195 1.773 2.244 1.182 4.029 2.812 5.353 4.891 1.322 2.08 1.985 4.42 1.985 7.018 0 2.458-.627 4.608-1.879 6.451-1.253 1.843-2.942 3.261-5.069 4.253v.284c2.552.851 4.631 2.316 6.239 4.395 1.606 2.08 2.41 4.514 2.41 7.302 0 2.742-.698 5.211-2.091 7.408-1.395 2.197-3.261 3.911-5.601 5.139-2.339 1.23-4.856 1.843-7.549 1.843h-19.212V29.7zm18.218 21.976c1.701 0 3.201-.401 4.501-1.205 1.3-.803 2.304-1.831 3.013-3.084.709-1.252 1.063-2.54 1.063-3.864 0-1.276-.343-2.54-1.027-3.792-.686-1.252-1.655-2.28-2.907-3.084-1.253-.803-2.706-1.205-4.359-1.205h-12.547v16.234h12.263zm1.347 23.04c1.701 0 3.226-.426 4.573-1.276 1.347-.851 2.386-1.949 3.119-3.296.733-1.347 1.099-2.729 1.099-4.147 0-1.418-.379-2.801-1.134-4.148-.757-1.347-1.82-2.433-3.19-3.261-1.372-.827-2.954-1.241-4.75-1.241h-13.327v17.368h13.61v.001zM578.312 79.04c-2.836-1.702-5.045-4.017-6.628-6.948-1.584-2.93-2.375-6.168-2.375-9.712s.791-6.781 2.375-9.712c1.583-2.93 3.793-5.246 6.628-6.948 2.836-1.701 6.026-2.552 9.57-2.552 3.545 0 6.735.851 9.571 2.552s5.044 4.017 6.628 6.948c1.583 2.931 2.374 6.168 2.374 9.712s-.792 6.782-2.374 9.712c-1.584 2.931-3.792 5.246-6.628 6.948-2.836 1.701-6.026 2.552-9.571 2.552-3.544 0-6.734-.85-9.57-2.552zm15.774-4.572c1.914-1.11 3.449-2.705 4.608-4.785 1.157-2.08 1.736-4.513 1.736-7.302 0-2.788-.579-5.222-1.736-7.302-1.159-2.079-2.694-3.674-4.608-4.785-1.914-1.11-3.982-1.666-6.203-1.666s-4.301.556-6.238 1.666c-1.938 1.111-3.486 2.706-4.643 4.785-1.159 2.08-1.737 4.514-1.737 7.302 0 2.789.578 5.222 1.737 7.302 1.157 2.08 2.705 3.675 4.643 4.785a12.334 12.334 0 006.238 1.666 12.159 12.159 0 006.203-1.666zM618.648 79.04c-2.836-1.702-5.045-4.017-6.628-6.948-1.584-2.93-2.375-6.168-2.375-9.712s.791-6.781 2.375-9.712c1.583-2.93 3.792-5.246 6.628-6.948 2.836-1.701 6.026-2.552 9.57-2.552 3.545 0 6.735.851 9.571 2.552s5.044 4.017 6.628 6.948c1.583 2.931 2.374 6.168 2.374 9.712s-.792 6.782-2.374 9.712c-1.584 2.931-3.792 5.246-6.628 6.948-2.836 1.701-6.026 2.552-9.571 2.552-3.544 0-6.734-.85-9.57-2.552zm15.773-4.572c1.914-1.11 3.449-2.705 4.608-4.785 1.157-2.08 1.736-4.513 1.736-7.302 0-2.788-.579-5.222-1.736-7.302-1.159-2.079-2.694-3.674-4.608-4.785-1.914-1.11-3.982-1.666-6.203-1.666s-4.301.556-6.238 1.666c-1.938 1.111-3.486 2.706-4.643 4.785-1.159 2.08-1.737 4.514-1.737 7.302 0 2.789.578 5.222 1.737 7.302 1.157 2.08 2.705 3.675 4.643 4.785a12.334 12.334 0 006.238 1.666 12.156 12.156 0 006.203-1.666zM651.542 29.7h6.026v31.901l17.014-17.297h7.656v.283l-14.177 14.32 14.532 21.267v.284h-7.159L663.808 63.09l-6.238 6.238v11.13h-6.026V29.7h-.002z" />
            <path
                d="M687.624 78.863c-2.6-1.819-4.443-4.147-5.529-6.982l5.387-2.411c.897 2.174 2.233 3.853 4.006 5.033a10.317 10.317 0 005.848 1.773c2.269 0 4.206-.461 5.813-1.383 1.606-.921 2.41-2.233 2.41-3.934 0-1.512-.637-2.729-1.914-3.651-1.276-.922-3.285-1.712-6.026-2.375l-4.395-1.134c-2.884-.709-5.246-1.914-7.089-3.615s-2.764-3.899-2.764-6.593c0-2.079.626-3.91 1.878-5.494 1.252-1.583 2.918-2.8 4.998-3.651 2.079-.851 4.324-1.276 6.734-1.276 3.166 0 5.99.685 8.471 2.056 2.481 1.372 4.241 3.285 5.281 5.743l-5.246 2.41c-1.607-3.213-4.466-4.821-8.577-4.821-1.985 0-3.722.461-5.211 1.383-1.489.921-2.233 2.091-2.233 3.509 0 1.324.52 2.4 1.559 3.226 1.039.827 2.599 1.501 4.679 2.021l5.246 1.347c3.544.898 6.214 2.233 8.011 4.005 1.795 1.773 2.694 3.934 2.694 6.487 0 2.221-.638 4.171-1.914 5.848-1.276 1.678-3.001 2.967-5.175 3.864-2.174.897-4.584 1.347-7.231 1.347-3.875-.003-7.113-.914-9.711-2.732z" />
        </g>
    </g>
    <path fill="#1C51A4"
        d="M85.754 41.674L46.885 19.008l-.012 36.9c.006.287-.07.568-.223.803-.152.24-.299.381-.557.486a1.35 1.35 0 01-1.512-.328L31.374 43.385 18.125 56.787a1.356 1.356 0 01-.697.363 1.313 1.313 0 01-.779-.094c-.246-.111-.311-.1-.457-.334a1.45 1.45 0 01-.229-.779l.275-54.796-.557-.246C8.397-2.222 0 3.134 0 11.437V91.7c0 8.79 9.417 14.281 16.953 9.886l68.801-40.129c7.53-4.401 7.53-15.388 0-19.783z" />
    <path fill="#80D7FB"
        d="M16.959 1.551a11.815 11.815 0 00-1.272-.639l.023 55.124c0 .275.082.545.229.779.146.229.357.41.604.522a1.321 1.321 0 001.476-.269l13.32-13.308L44.67 57.08a1.346 1.346 0 001.512.328 1.4 1.4 0 00.621-.533 1.45 1.45 0 00.223-.803V19.096L16.959 1.551z" />
</svg>
