<svg xmlns="http://www.w3.org/2000/svg" viewBox="0 0 4548.56 1470.973"><g transform="translate(0 .037) scale(2.94197)"><path d="M428.2 221.9L49.2 6.5C33-2.6 18.5-1.7 9.7 6.8 3.4 12.8 0 22.4 0 34.9v429.9C0 477.4 3.7 487 9.7 493c9.1 8.8 23.3 9.7 39.5.3l379.1-215.4c27.2-15.4 27.2-40.4-.1-56z" fill="#0b5e9f"/><linearGradient gradientTransform="matrix(.9998 0 0 -.9998 1.213 8180.705)" y2="8182.269" x2="223.168" y1="7682.241" x1="223.168" gradientUnits="userSpaceOnUse" id="a"><stop offset="0" stop-color="#fff" stop-opacity="0"/><stop offset="1" stop-color="#fff" stop-opacity=".1"/></linearGradient><path d="M428.3 221.9l-95-54-1.7-1.1-.1.1L49.2 6.6c-15.7-9-29.9-8.3-38.9-.2L8.8 7.7C3.2 13.7 0 23 0 35.1v429.7c0 12.1 3.2 21.4 9.1 27.2l-.2.2c8.9 9.5 23.7 10.6 40.4 1.3L331.5 333l.1.1s1.7-1.1 1.8-1.1l95-54c27.1-15.5 27.1-40.8-.1-56.1z" clip-rule="evenodd" fill="url(#a)" fill-rule="evenodd"/><path d="M49.2 9.4l379 215.3c12.3 6.9 19.2 16 20.3 25.3 0-10.1-6.7-20.3-20.3-28.1L49.2 6.6C22-9 0 4 0 35.1v2.8C0 6.8 22-5.9 49.2 9.4z" clip-rule="evenodd" opacity=".25" fill="#fff" fill-rule="evenodd"/><path d="M358.2 70.2H135.9V444l242.9-138V90.9c0-11.4-9.2-20.7-20.6-20.7z" fill="#40dcff"/><linearGradient gradientTransform="matrix(38.316 0 0 -36.19 -272599.25 -11433.2)" y2="-327.498" x2="7123.592" y1="-324.192" x1="7121.753" gradientUnits="userSpaceOnUse" id="b"><stop offset="0" stop-color="#5b7c8c" stop-opacity="0"/><stop offset="1" stop-color="#5b7c8c" stop-opacity=".4"/></linearGradient><path d="M358.2 70.2H135.9v373.6l242.9-137.9v-215c0-11.4-9.2-20.7-20.6-20.7z" fill="url(#b)"/><path fill="#009bf0" d="M135.9 70.2H70.3v411l65.6-37.2z"/><path d="M358.2 70.2H70.3v2.3h287.9c11.4 0 20.7 6.9 20.7 18.3-.1-11.3-9.3-20.6-20.7-20.6z" opacity=".15" fill="#fff"/><path fill="#fafafa" d="M329.9 70.2h-68.8v103.1l33.8-20.9 35 20.9z"/></g><g style="line-height:1.25;-inkscape-font-specification:'Product Sans Bold'"><path d="M1935.205 607.13q-45.494 0-86.172-17.127-40.143-17.663-70.65-47.1-30.509-29.973-48.172-69.58-17.662-40.143-17.662-85.638 0-45.495 17.662-85.102 17.663-40.142 48.171-69.58 30.508-29.973 70.65-47.1 40.679-17.663 86.173-17.663 50.312 0 86.708 17.663 36.93 17.127 63.693 42.818l-42.284 42.284q-19.268-18.198-46.03-30.509-26.226-12.31-62.087-12.31-33.184 0-62.087 12.846-28.367 12.31-49.776 34.254-21.41 21.41-33.72 50.312-11.775 28.903-11.775 62.087 0 33.185 11.775 62.087 12.31 28.903 33.72 50.847 21.409 21.41 49.776 34.255 28.903 12.31 62.087 12.31 21.41 0 38.537-3.746 17.127-4.282 30.508-10.17 13.381-6.422 23.55-13.916 10.17-8.028 18.198-16.057 26.227-26.226 32.65-75.467h-143.443v-59.946h201.783q3.211 16.057 3.211 37.466 0 17.127-2.676 35.325-2.676 18.198-8.564 36.931-5.887 18.198-16.057 35.86-9.634 17.128-24.62 32.115-28.903 30.508-66.37 46.03-37.465 15.521-86.707 15.521zm368.24 0q-29.438 0-55.129-10.704-25.691-10.705-44.96-29.438-19.268-18.733-30.508-44.424-11.24-26.227-11.24-56.735t11.24-56.2q11.24-26.226 30.509-44.959 19.268-19.268 44.96-29.438 25.69-10.704 55.128-10.704t55.129 10.704q25.691 10.17 44.96 29.438 19.268 18.733 30.508 44.96 11.24 25.69 11.24 56.2 0 30.507-11.24 56.734-11.24 25.69-30.508 44.424-19.269 18.733-44.96 29.438-25.691 10.704-55.129 10.704zm0-55.664q16.057 0 30.508-6.422 14.452-6.423 25.156-17.663 11.24-11.24 17.663-26.762 6.423-16.057 6.423-34.79 0-19.268-6.423-34.79-6.423-16.057-17.663-27.297-10.704-11.24-25.156-17.127-14.45-6.423-30.508-6.423-16.057 0-30.508 6.423-14.451 5.887-25.691 17.127-10.705 11.24-17.128 27.297-6.423 15.522-6.423 34.79 0 18.733 6.423 34.79 6.423 15.522 17.128 26.762 11.24 11.24 25.69 17.663 14.452 6.422 30.51 6.422zm309.364 55.664q-29.437 0-55.129-10.704-25.69-10.705-44.96-29.438-19.267-18.733-30.507-44.424-11.24-26.227-11.24-56.735t11.24-56.2q11.24-26.226 30.508-44.959 19.268-19.268 44.96-29.438 25.69-10.704 55.128-10.704t55.13 10.704q25.69 10.17 44.959 29.438 19.268 18.733 30.508 44.96 11.24 25.69 11.24 56.2 0 30.507-11.24 56.734-11.24 25.69-30.508 44.424-19.269 18.733-44.96 29.438-25.69 10.704-55.129 10.704zm0-55.664q16.057 0 30.509-6.422 14.45-6.423 25.156-17.663 11.24-11.24 17.662-26.762 6.423-16.057 6.423-34.79 0-19.268-6.423-34.79-6.423-16.057-17.662-27.297-10.705-11.24-25.156-17.127-14.452-6.423-30.509-6.423-16.057 0-30.508 6.423-14.451 5.887-25.691 17.127-10.705 11.24-17.128 27.297-6.422 15.522-6.422 34.79 0 18.733 6.423 34.79 6.422 15.522 17.127 26.762 11.24 11.24 25.691 17.663 14.451 6.422 30.508 6.422zm304.012 182.515q-25.69 0-46.565-8.029-20.339-7.493-35.86-19.804-15.522-11.775-26.227-26.761-10.704-14.987-16.592-28.903l54.058-22.48q3.747 8.564 9.635 17.663 6.422 9.1 14.986 16.057 9.099 7.493 20.339 11.775 11.775 4.817 26.226 4.817 35.326 0 55.13-21.409 20.338-20.874 20.338-61.552v-20.338h-2.14q-10.705 12.845-29.974 22.48-18.733 9.633-44.424 9.633-26.762 0-51.382-10.704-24.086-11.24-42.819-29.973-18.733-18.733-29.973-44.424-11.24-25.692-11.24-55.665t11.24-55.664q11.24-26.226 29.973-44.96 18.733-19.268 42.819-29.972 24.62-11.24 51.382-11.24 25.691 0 44.424 9.634 19.269 9.634 29.973 21.945h2.141v-23.015h58.876v253.7q0 39.072-10.705 66.904-10.705 27.832-29.438 45.494-18.198 18.198-42.818 26.227-24.086 8.564-51.383 8.564zm4.282-182.515q16.057 0 29.438-6.422 13.916-6.423 24.085-17.663 10.17-11.24 16.057-26.762 5.888-15.521 5.888-34.255 0-18.733-5.888-34.254-5.887-16.057-16.057-27.297-10.169-11.775-24.085-18.198-13.38-6.423-29.438-6.423-16.057 0-30.508 6.423-13.916 6.423-25.156 18.198-10.705 11.24-17.127 27.297-5.888 15.521-5.888 34.254 0 18.734 5.888 34.255 6.422 15.522 17.127 26.762 11.24 11.24 25.156 17.663 14.451 6.422 30.508 6.422zm234.967 47.1h-62.087v-415.34h62.087zm170.204 8.564q-29.973 0-55.664-10.704-25.691-11.24-44.424-29.973-18.734-19.269-29.438-44.96-10.705-25.69-10.705-55.664 0-31.579 10.705-57.27 10.704-26.226 28.367-44.96 18.198-18.732 42.283-28.902 24.621-10.17 51.918-10.17t48.17 9.635q20.875 9.634 35.326 23.55 14.987 13.916 24.086 29.438 9.099 15.522 13.38 27.297l6.423 16.057-188.937 78.144q21.945 42.818 68.51 42.818 24.085 0 40.678-10.704 16.592-10.705 28.902-28.368l48.171 32.114q-5.887 8.564-16.057 19.804-9.634 10.705-24.62 20.339-14.452 9.634-33.72 16.057-19.269 6.422-43.354 6.422zm47.636-198.035q-5.353-13.381-19.804-21.41-13.916-8.563-32.65-8.563-11.774 0-25.155 5.352-13.38 4.817-24.62 15.522-10.705 10.169-17.663 25.69-6.958 15.522-6.423 35.861z" style="-inkscape-font-specification:'Product Sans Bold'" aria-label="google_logo" font-weight="700" font-size="535.232" font-family="Product Sans" letter-spacing="0" word-spacing="0" fill="#747474"/></g><g style="line-height:1.25;-inkscape-font-specification:'Product Sans'"><path d="M3633.83 431.782v166.046h-52.677V187.866h139.708q53.25 0 90.466 35.5 37.79 35.499 37.79 86.458 0 52.104-37.79 87.03-36.644 34.928-90.466 34.928zm0-193.53v143.143h88.176q31.492 0 52.104-21.185 21.185-21.185 21.185-50.386 0-28.629-21.185-49.814-20.613-21.758-52.104-21.758zm317.384-50.386v409.962h-52.677V187.866zm98.635 324.076q0 20.612 17.177 34.354 17.75 13.742 41.225 13.742 33.21 0 58.975-24.62 26.338-24.621 26.338-57.83-24.62-19.468-68.708-19.468-32.064 0-53.822 15.46-21.185 15.459-21.185 38.362zm68.136-203.836q58.402 0 92.184 31.492 33.782 30.918 33.782 85.313v172.917h-50.387v-38.935h-2.29q-32.637 48.096-87.031 48.096-46.378 0-77.87-27.484-30.919-27.483-30.919-68.708 0-43.516 32.637-69.282 33.209-25.765 88.176-25.765 46.95 0 77.297 17.177v-12.024q0-27.484-21.758-46.379-21.757-19.467-50.958-19.467-44.089 0-69.854 37.217l-46.379-29.201q38.363-54.967 113.37-54.967zm430.575 9.161l-175.78 404.236h-54.395l65.273-141.425-115.66-262.81h57.258l83.596 201.545h1.145l81.305-201.546z" style="-inkscape-font-specification:'Product Sans'" aria-label="Play" font-weight="400" font-size="572.573" font-family="Product Sans" letter-spacing="0" word-spacing="0" fill="#747474" stroke-width="42.943"/></g><g style="line-height:1.25;-inkscape-font-specification:'Product Sans'"><path d="M1736.84 1264.309V888.657h135.885q44.595 0 76.6 29.38 32.003 28.856 32.003 72.927 0 55.614-50.891 78.174v2.098q28.856 9.444 46.17 33.053 17.313 23.085 17.313 52.99 0 46.17-33.578 76.6-32.529 30.43-80.272 30.43zm48.268-329.483v114.9h87.617q25.708 0 43.021-17.314 17.314-17.838 17.314-40.398 0-22.036-16.789-39.874-16.789-17.314-41.448-17.314zm0 160.02v123.293h97.06q26.233 0 44.596-18.363 17.838-18.363 17.838-43.546 0-24.659-18.363-43.022-18.362-18.362-46.169-18.362zm240.16 40.923q0-59.286 37.25-98.11 37.775-38.825 94.962-38.825 57.188 0 94.438 38.825 37.775 38.824 37.775 98.11 0 59.81-37.775 98.11-37.25 38.824-94.437 38.824-57.188 0-94.963-38.824-37.25-38.824-37.25-98.11zm48.268 0q0 41.447 24.134 67.155t59.81 25.708q35.677 0 59.81-25.708 24.135-25.708 24.135-67.155 0-40.923-24.134-66.631-24.659-26.233-59.81-26.233-35.152 0-59.811 26.233-24.134 25.708-24.134 66.63zm245.824 0q0-59.286 37.251-98.11 37.775-38.825 94.962-38.825 57.187 0 94.438 38.825 37.775 38.824 37.775 98.11 0 59.81-37.775 98.11-37.25 38.824-94.438 38.824-57.187 0-94.962-38.824-37.25-38.824-37.25-98.11zm48.269 0q0 41.447 24.134 67.155t59.81 25.708q35.677 0 59.81-25.708 24.135-25.708 24.135-67.155 0-40.923-24.134-66.631-24.659-26.233-59.81-26.233-35.153 0-59.811 26.233-24.134 25.708-24.134 66.63zm483.566 128.54h-58.236l-80.272-121.195-39.35 38.824v82.37h-48.267v-375.65h48.268v231.372l111.226-112.8h61.91v2.098l-100.21 99.684 104.931 153.2zm218.6-71.353q0 33.578-29.38 56.662-29.38 23.085-73.976 23.085-38.825 0-68.205-19.937-29.381-20.461-41.973-53.514l43.022-18.363q9.444 23.085 27.282 36.2 18.363 12.593 39.874 12.593 23.084 0 38.3-9.969 15.739-9.968 15.739-23.61 0-24.658-37.775-36.2l-44.071-11.018q-75.025-18.888-75.025-72.402 0-35.152 28.33-56.138 28.857-21.51 73.452-21.51 34.103 0 61.385 16.263 27.806 16.265 38.824 43.547l-43.021 17.838q-7.346-16.264-24.135-25.184-16.264-9.443-36.725-9.443-18.888 0-34.103 9.443-14.69 9.444-14.69 23.085 0 22.036 41.447 31.48l38.825 9.968q76.6 18.887 76.6 77.124z" style="-inkscape-font-specification:'Product Sans'" aria-label="Books" font-weight="400" font-size="524.653" font-family="Product Sans" letter-spacing="0" word-spacing="0" fill="#009bf0" stroke-width="39.349"/></g></svg>