<?xml version="1.0" encoding="UTF-8"?>
<svg id="renta" xmlns="http://www.w3.org/2000/svg" viewBox="0 0 200 53">
  <defs>
    <style>
      #renta .b {
        fill: #231815;
      }

      #renta .b,
      #renta .c,
      #renta .d {
        stroke-width: 0px;
      }

      #renta .c {
        fill: #923d70;
      }

      #renta .d {
        fill: #fff;
      }
    </style>
  </defs>
  <path class="c"
    d="M17.077054,33.026422h-4.314831v10.950052c0,2.900369-.036064,3.91549-.797576,5.438567-.906718,1.81217-3.045627,3.117702-5.583509,3.117702-2.537935,0-4.677318-1.305532-5.583562-3.117702-.761512-1.523077-.797576-2.538198-.797576-5.438567V8.407957c0-1.8853,0-4.242234,1.776422-6.019125C3.552792.612673,5.909984.612673,7.795548.612673h12.726159c11.456954,0,17.620758,8.121232,17.620758,16.605689,0,5.474631-2.900896,10.587249-8.230585,13.415068l6.091728,10.695705c1.449947,2.538145,1.885037,3.661933,1.885037,5.25735,0,2.175391-1.087988,3.879474-3.11823,5.040016-1.015385.579821-2.10332.906243-3.19078.906243-3.263435,0-4.821522-2.538198-6.272471-5.075869l-8.23011-14.430453Z" />
  <path class="c"
    d="M53.368491,36.579478c0,3.191043,2.465806,6.16354,7.033983,6.16354,2.102845,0,4.205637-.652107,5.872865-1.739831,1.740886-1.16059,2.828873-1.523288,4.134142-1.523288,2.175395,0,4.712802,2.175922,4.712802,4.931402,0,1.885511-1.08746,3.553266-3.697945,5.365964-2.827819,1.958167-6.671022,2.900421-11.16707,2.900421-8.629136,0-18.564067-3.11823-18.564067-19.941411,0-12.762223,7.251791-19.941147,17.47608-19.941147,10.877186,0,17.04099,7.758956,17.47608,17.040726.072603,1.885564-.181217,3.879478-1.595153,5.293677-1.413883,1.413619-3.226844,1.449947-4.895127,1.449947h-16.78659ZM64.970598,28.67558c0-.942307-.145206-2.030506-.652845-3.045627-.797576-1.667755-2.320126-3.04589-5.148472-3.04589-2.827291,0-4.387434,1.378135-5.148419,3.04589-.471681,1.015121-.652371,2.103319-.652371,3.045627h11.602107Z" />
  <path class="c"
    d="M103.895718,28.893072c0-4.496048-3.19078-5.365964-4.785458-5.365964-1.596154,0-4.78646.869915-4.78646,5.365964v15.590832c0,2.827818-.072603,3.84315-.724974,5.148155-.834115,1.704083-2.827819,2.900949-5.221022,2.900949-2.393256,0-4.387434-1.196865-5.221075-2.900949-.652898-1.305005-.725501-2.320337-.725501-5.148155v-23.494994c0-2.828029.072603-3.84315.725501-5.148683.83364-1.70403,2.827819-2.900421,5.221075-2.900421,3.263383,0,4.71333,1.812697,5.583509,3.480453,2.393256-2.392729,6.018651-3.625395,9.136828-3.625395,3.697998,0,6.671496,1.232666,8.774341,3.336038,3.335511,3.335247,3.916333,7.033983,3.916333,11.166806v17.186195c0,2.827818-.07313,3.84315-.726028,5.148155-.833113,1.704083-2.827819,2.900949-5.221022,2.900949-2.392729,0-4.38696-1.196865-5.221075-2.900949-.652898-1.305005-.724974-2.320337-.724974-5.148155v-15.590832Z" />
  <path class="c"
    d="M136.481406,52.24286c-8.411855,0-11.964594-6.16354-11.964594-11.529557v-16.823709h-.036591c-2.211986,0-2.93696-.108403-3.915753-.580295-1.41441-.688651-2.247523-2.139125-2.247523-3.987618,0-1.849763.833113-3.29971,2.247523-3.988883.978793-.471154,1.703767-.580295,3.915753-.580295h.036591v-3.40785c0-2.827555.072076-3.84315.724974-5.148419.834115-1.704294,2.827766-2.900949,5.220495-2.900949,2.393256,0,4.387434,1.196654,5.221549,2.900949.652898,1.305269.724974,2.320864.724974,5.148419v3.40785h1.377871c2.211512,0,2.936485.109141,3.915806.580295,1.413883.689173,2.247523,2.13912,2.247523,3.988883,0,1.848493-.83364,3.298967-2.247523,3.987618-.979321.471892-1.704294.580295-3.915806.580295h-1.377871v15.953262c0,1.522554.725501,2.393261,2.212039,2.465336,1.377344.072862,2.284062.325944,2.936433.652898,1.449947.724974,2.392729,2.175448,2.392729,4.278029,0,2.103319-1.014857,3.480927-2.465332,4.205901-1.014857.507692-2.61001.79784-4.785932.79784h-.217334Z" />
  <path class="c"
    d="M180.094125,44.48364c0,2.828082-.072076,3.843678-.724974,5.148683-.83306,1.704083-2.827766,2.900949-5.220495,2.900949-3.263435,0-4.713382-1.813225-5.583562-3.48098-2.719679,2.538198-4.713857,3.553056-8.774816,3.553056-3.915806,0-7.179241-1.305532-9.354636-3.48098-2.247523-2.247523-3.407586-5.510642-3.407586-9.136564,0-5.873656,3.988356-11.312223,13.487671-11.312223h7.686407v-1.015121c0-3.553583-1.812434-4.858588-5.511486-4.858588-1.377344,0-3.480189.507165-4.858008,1.087724-1.559141.652634-2.68314.942782-3.625922.942782-1.160063,0-2.464805-.507692-3.335511-1.594889-.978793-1.196865-1.305216-2.248841-1.305216-3.553794,0-2.538198,2.10332-4.097287,3.625869-4.785985,3.081638-1.377608,5.946523-2.102581,9.716596-2.102581,11.168125,0,17.185669,4.640779,17.185669,14.140358v17.548155ZM168.202134,36.579478h-5.655637c-2.756218,0-4.133614,1.233404-4.133614,3.191043,0,1.812697,1.377397,3.190305,4.277766,3.190305,1.958167,0,3.046154-.289884,4.27882-1.377608.942729-.869915,1.232666-1.958378,1.232666-3.988145v-1.015596Z" />
  <path class="c"
    d="M186.222445,45.571838c0-3.771075,3.11823-6.889305,6.889305-6.889305,3.770073,0,6.88825,3.11823,6.88825,6.889305,0,3.770337-3.118177,6.888566-6.88825,6.888566-3.771075,0-6.889305-3.11823-6.889305-6.888566M186.693546,8.87911c0-2.900421.036591-3.915806.798104-5.438619.906243-1.813172,3.0451-3.118177,5.583562-3.118177,2.537882,0,4.677318,1.305005,5.583509,3.118177.761512,1.522813.797576,2.538198.797576,5.438619v17.911433c0,2.900369-.036064,3.915226-.797576,5.438567-.906191,1.812697-3.045627,3.117702-5.583509,3.117702-2.538462,0-4.677318-1.305005-5.583562-3.117702-.761512-1.523341-.798104-2.538198-.798104-5.438567V8.87911Z" />
  <path class="d"
    d="M11.079546,24.053307c-2.530184,0-4.580515-2.050541-4.580515-4.580989v-5.286718c0-2.530184,2.050331-4.580778,4.580515-4.580778s4.581042,2.050594,4.581042,4.580778v5.286718c0,2.530448-2.050858,4.580989-4.581042,4.580989" />
  <path class="d"
    d="M24.823146,24.053307c-2.530184,0-4.580515-2.050541-4.580515-4.580989v-5.286718c0-2.530184,2.050331-4.580778,4.580515-4.580778s4.580515,2.050594,4.580515,4.580778v5.286718c0,2.530448-2.050331,4.580989-4.580515,4.580989" />
  <path class="b"
    d="M31.387557,16.841424c0,2.066048-1.674979,3.740499-3.740705,3.740499-2.065779,0-3.740231-1.674452-3.740231-3.740499,0-2.065721,1.674452-3.740173,3.740231-3.740173,2.065726,0,3.740705,1.674452,3.740705,3.740173" />
  <path class="b"
    d="M17.644485,16.841424c0,2.066048-1.674452,3.740499-3.740231,3.740499-2.065726,0-3.740705-1.674452-3.740705-3.740499,0-2.065721,1.674979-3.740173,3.740705-3.740173,2.065779,0,3.740231,1.674452,3.740231,3.740173" />
</svg>
