<?xml version="1.0" encoding="UTF-8"?>
<svg id="renta" xmlns="http://www.w3.org/2000/svg" viewBox="-7 0 53 53">
  <defs>
    <style>
      #renta .b {
        fill: #231815;
      }

      #renta path {
        stroke-width: 0px;
      }

      #renta .c {
        fill: #923d70;
      }

      #renta .d {
        fill: #fff;
      }
    </style>
  </defs>
  <path class="c"
    d="M17.077054,33.026422h-4.314831v10.950052c0,2.900369-.036064,3.91549-.797576,5.438567-.906718,1.81217-3.045627,3.117702-5.583509,3.117702-2.537935,0-4.677318-1.305532-5.583562-3.117702-.761512-1.523077-.797576-2.538198-.797576-5.438567V8.407957c0-1.8853,0-4.242234,1.776422-6.019125C3.552792.612673,5.909984.612673,7.795548.612673h12.726159c11.456954,0,17.620758,8.121232,17.620758,16.605689,0,5.474631-2.900896,10.587249-8.230585,13.415068l6.091728,10.695705c1.449947,2.538145,1.885037,3.661933,1.885037,5.25735,0,2.175391-1.087988,3.879474-3.11823,5.040016-1.015385.579821-2.10332.906243-3.19078.906243-3.263435,0-4.821522-2.538198-6.272471-5.075869l-8.23011-14.430453Z" />
  <path class="d"
    d="M11.079546,24.053307c-2.530184,0-4.580515-2.050541-4.580515-4.580989v-5.286718c0-2.530184,2.050331-4.580778,4.580515-4.580778s4.581042,2.050594,4.581042,4.580778v5.286718c0,2.530448-2.050858,4.580989-4.581042,4.580989" />
  <path class="d"
    d="M24.823146,24.053307c-2.530184,0-4.580515-2.050541-4.580515-4.580989v-5.286718c0-2.530184,2.050331-4.580778,4.580515-4.580778s4.580515,2.050594,4.580515,4.580778v5.286718c0,2.530448-2.050331,4.580989-4.580515,4.580989" />
  <path class="b"
    d="M31.387557,16.841424c0,2.066048-1.674979,3.740499-3.740705,3.740499-2.065779,0-3.740231-1.674452-3.740231-3.740499,0-2.065721,1.674452-3.740173,3.740231-3.740173,2.065726,0,3.740705,1.674452,3.740705,3.740173" />
  <path class="b"
    d="M17.644485,16.841424c0,2.066048-1.674452,3.740499-3.740231,3.740499-2.065726,0-3.740705-1.674452-3.740705-3.740499,0-2.065721,1.674979-3.740173,3.740705-3.740173,2.065779,0,3.740231,1.674452,3.740231,3.740173" />
</svg>
