<svg xmlns="http://www.w3.org/2000/svg" viewBox="0 0 150 33">
  <circle cx="25.5" cy="11.5" r="8.5" fill="#dc0782"/>
  <path fill="currentColor" d="M8.494 3.006a8.5 8.5 0 00-8.5 8.5A8.484 8.484 0 002.5 17.5L17 32l14.5-14.5-12-12L17 8l-2.5-2.5a8.5 8.5 0 00-6.006-2.494z"/>
  <path fill="currentColor" d="M39.639 31.706h-3.93v.48h13.319v-.48h-3.974V16.072h4.804c2.402 0 4.498.699 5.066 3.669.218 1.179.218 4.28.218 5.065 0 3.843 1.266 7.73 7.206 7.73 2.227 0 3.144-.611 3.93-1.223l-.35-.48c-.436.35-1.222 1.048-2.445 1.048-2.446 0-2.446-2.183-2.49-5.284-.043-4.891-.087-9.433-8.908-10.743v-.175c3.363-.699 7.73-2.707 7.73-6.725 0-5.983-6.42-8.035-11.398-8.035-.83 0-1.704.043-2.533.087-.874.044-1.703.087-2.577.087h-7.599v.48h3.93zm5.415-30.089c.699-.043 2.27-.218 3.363-.218 4.541 0 5.764 3.45 5.764 7.555 0 5.852-2.227 6.638-4.323 6.638h-4.804zm38.594 26.596c-1.703 3.493-5.066 4.323-7.118 4.323-4.76 0-4.76-4.585-4.76-9.39v-1.571h12.446c-.044-6.07-4.367-9.258-7.992-9.258-4.804 0-9.345 4.803-9.345 10.874 0 6.113 4.454 9.825 9.65 9.825 3.145 0 6.333-1.659 7.556-4.629zM71.77 21.094c.043-5.11.305-8.297 4.28-8.297 3.275 0 3.974 2.009 4.017 8.297zm17.006 10.612H85.63v.48H96.2v-.48h-3.057v-12.01c0-2.838 1.354-6.9 4.89-6.9 2.84 0 3.32 2.447 3.32 6.42v12.49h-3.057v.48h10.568v-.48h-3.144V20.745c0-2.14-.218-4.323-1.747-6.201-1.048-1.31-3.057-2.227-5.546-2.227-3.275 0-4.717 2.489-5.284 4.148v-3.319H85.63v.48h3.145zm24.424-18.56h-3.363v.48h3.362V26.86c0 4.236 1.31 6.157 4.63 6.157 2.008 0 3.886-.873 4.541-3.406l-.48-.13c-.786 2.532-2.402 2.838-3.057 2.838-.873 0-1.266-.306-1.266-1.922v-16.77h4.367v-.48h-4.367v-7.86c-1.005 1.615-2.315 2.401-3.494 2.401-.306 0-.568 0-.874-.087zm25.11 8.429c0-7.73-4.412-9.258-7.338-9.258-3.58 0-5.764 2.14-5.764 3.755 0 1.267 1.485 1.354 2.314 1.354.393 0 2.053 0 2.053-1.441 0-.262-.131-1.354-.131-1.616 0-1.004.306-1.572 1.747-1.572 2.62 0 2.926 1.921 2.926 4.978 0 2.359-.961 4.28-3.93 5.11l-2.14.611c-3.538.961-5.066 2.01-5.066 4.586 0 2.97 3.013 4.934 6.812 4.934 2.708 0 3.843-1.135 4.76-2.401.393.567 1.267 2.052 4.018 2.052 1.922 0 2.315-.699 2.882-1.703l-.48-.218c-.35.611-.742 1.31-1.572 1.31-.743 0-1.092-.524-1.092-2.533zm-4.368 6.332c0 .306 0 1.223.306 2.184-.655 1.048-1.703 2.314-3.93 2.314-2.01 0-2.84-.96-2.84-4.236 0-3.275.787-3.625 3.058-4.716 1.572-.743 2.533-1.267 3.406-2.664zm13.887-3.407l1.921-20.918c.044-.436.044-.917.044-1.179 0-1.66-1.397-2.096-2.27-2.096-.874 0-2.272.437-2.272 2.096 0 .262 0 .743.044 1.18l1.922 20.918zm-2.882 5.59a2.581 2.581 0 002.576 2.577 2.554 2.554 0 002.577-2.576 2.554 2.554 0 00-2.577-2.577 2.554 2.554 0 00-2.576 2.577z" aria-label="Renta!" font-weight="400" font-size="43.671" font-family="Didot LT Std" letter-spacing="-1.2" word-spacing="0" stroke-width="3.275"/>
  <path d="M19.494 5.494A8.5 8.5 0 0017 11.5a8.5 8.5 0 008.5 8.5 8.5 8.5 0 006.006-2.494L19.494 5.494z" fill="#666"/>
</svg>