<svg xmlns="http://www.w3.org/2000/svg" viewBox="0 0 416.652 416.652">
  <circle r="208.326" cy="208.326" cx="208.326" fill="#dc0782"/>
  <circle cx="208.326" cy="208.326" r="177.326" fill="#fff"/>
  <g transform="matrix(8.38516 0 0 8.38516 64.434 77.444)">
    <circle r="8.5" cy="11.5" cx="25.5" fill="#dc0782"/>
    <path d="M8.494 3.006a8.5 8.5 0 00-8.5 8.5A8.484 8.484 0 002.5 17.5L17 32l14.5-14.5-12-12L17 8l-2.5-2.5a8.5 8.5 0 00-6.006-2.494z"/>
    <path d="M19.494 5.494A8.5 8.5 0 0017 11.5a8.5 8.5 0 008.5 8.5 8.5 8.5 0 006.006-2.494z" fill="#666"/>
  </g>
</svg>