<svg xmlns="http://www.w3.org/2000/svg" viewBox="0 0 657.05 201.81">
  <path fill="currentcolor" d="M51.04 0c-4.27.07-9.15 1.18-14.76 3.28-11.96 4.5-20.46 9.58-26.56 15.86-6.4 6.58-7.48 12.34-4.09 21.72l2.63 7.27L5 51.33c-2.17 2.13-3.1 4.45-2.8 7 .37 3.24 1.16 3.86 5.41 4.22l4.98.41-3.86 7.98C2.29 84.27-.07 96.47 0 116.01c.1 26.81 5.36 43.2 18.44 57.49 10.75 11.74 25.96 18.9 47.24 22.2 4.58.71 19.67 1.1 33.53.85 28.18-.5 39.66-2.7 55.3-10.59 24.44-12.34 34.32-33.18 34.13-72.05-.1-18.94-1.86-29.2-7.7-44.82-8.74-23.35-39.06-39.13-78.53-40.86-16.54-.73-17.69-.96-16.44-3.3 3.16-5.9-.88-10.26-8.35-9-4.85.82-5.27.58-8.36-4.92C65.03 3.49 59.17-.13 51.04.01zm82.41 98.05a5.26 5.26 0 015.26 5.27 5.26 5.26 0 01-5.26 5.26 5.26 5.26 0 01-5.26-5.26 5.26 5.26 0 015.26-5.27zm-74.42 1.79a5.26 5.26 0 015.26 5.26 5.26 5.26 0 01-5.26 5.26 5.26 5.26 0 01-5.27-5.26 5.26 5.26 0 015.27-5.26zm69.02 25.47c5.9-.03 9.7.08 10 .35 1.58 1.5-6.42 13.28-11.84 17.41-2.62 2-7.66 4.92-11.2 6.49-13.79 6.1-31.13 4.4-44.8-4.36-6.63-4.25-15.09-13.48-15.09-16.45 0-.97 3.52-1.57 9.45-1.62 5.2-.03 23.62-.6 40.93-1.26a753.2 753.2 0 0122.55-.56zM476.7 200.81c-.36-.59.76-1 2.75-1 3.05 0 5.76-1.42 5.76-3.02 0-.35-1.36-.43-3.01-.19-4.6.68-6-1.15-6-7.9 0-3.26.46-5.89 1-5.89.56 0 1 2.5 1 5.54 0 4.2.4 5.68 1.64 6.15 3.05 1.17 4.85-1.1 5.17-6.54.46-7.83 2.2-6.14 2.2 2.13 0 8.93-1.55 11.72-6.5 11.72-1.86 0-3.66-.45-4-1zm68 0c-.36-.6.96-1 3.34-1 3.42 0 5.17-1.15 5.17-3.4 0-.14-1.36-.05-3.01.2-4.6.67-6-1.16-6-7.92 0-7.57 1.81-7.68 2.2-.13.3 5.66.36 5.75 3.3 5.75 2.96 0 3.01-.09 3.3-5.75.46-8.6 2.2-6.93 2.2 2.1 0 6.33-.34 8.16-1.82 9.5-2 1.81-7.69 2.24-8.67.65zm-145.17-4.45a12.86 12.86 0 01-4.83-3.92c-1.6-2.43-1.4-3.47 4.89-26.83a1774.8 1774.8 0 007.21-27.3c.65-2.92.6-2.9-2.31 1.04-6.94 9.39-15.29 13.92-24.43 13.26-7.14-.52-11.35-3.92-13-10.5l-1.08-4.26-4.4 4.9c-11.62 12.91-30.49 13.72-36.37 1.56-1.1-2.27-2-4.66-2-5.31 0-1.98-1.08-1.38-6.18 3.38-7.25 6.79-14.52 9.81-24.65 10.27-6.11.28-9.5-.07-12.7-1.3-4.82-1.83-10.08-7.13-11.09-11.15-1.2-4.79.47-19.81 3.49-31.37 1.65-6.31 2.87-11.61 2.7-11.78-.17-.16-3.55.24-7.53.9-8.17 1.34-8.41 1.21-9.46-5.34-.71-4.45.75-11 2.83-12.73.78-.64 5.56-1.93 10.64-2.87l9.24-1.71 3.76-13.77c2.06-7.58 4.35-14.5 5.07-15.37 1.96-2.36 13.52-1.35 18.28 1.6 4.45 2.74 4.5 4.02.6 15.55-1.65 4.89-3 8.95-3 9.04 0 .1 3.94.47 8.75.84 15.8 1.21 19.28 1.82 20.2 3.55 1.05 1.95-.9 13.2-3.04 17.57-1.64 3.37.25 3.2-20.93 1.95l-12.53-.73-3.86 13.36c-4.26 14.74-4.7 19.57-2.18 23.44 2.52 3.83 6.12 4.87 12.21 3.53 10.31-2.28 16.25-7.88 23.38-22.05 3.95-7.83 15.28-19.44 22.33-22.87 10.47-5.09 21.27-6.32 33.3-3.8 8.26 1.73 11.37 3.87 11.37 7.8 0 1.7-1.53 8.1-3.39 14.23-5.06 16.65-5.79 19.87-5.43 24.09.47 5.67 2.71 6.64 8.4 3.62 10-5.3 19.23-21.78 25.45-45.42 1.28-4.88 2.95-9.49 3.72-10.25 3.21-3.22 17.37-.59 21.1 3.92 1.14 1.38 1.1 2.37-.25 6.34a62.5 62.5 0 00-1.6 5.1c0 .23 2.2-1.2 4.87-3.16 18.3-13.43 33.47-8.51 34.89 11.3.61 8.56-.93 15.71-5.23 24.3-3.3 6.62-3.34 6.8-1.21 6.78 3.29-.03 9.82-3.33 13.04-6.58 1.58-1.6 4.8-6.95 7.17-11.9 7.9-16.57 20.62-27.3 36.2-30.55 6.47-1.35 21.05-.75 25.77 1.05 7.86 3 8.2 6.56 2.4 24.7-2.24 7.04-4.33 15.37-4.63 18.51-.5 5.36-.39 5.78 1.95 6.85 2.05.93 3.21.76 6.55-.94 5.26-2.68 9.31-7.8 18.27-23.12 8.13-13.88 14.64-22.76 19.34-26.34 9.36-7.12 20.14-9.35 29.01-6 6.48 2.44 7.76 4.49 4.79 7.66-2.92 3.1-3.62 8.05-1.94 13.68l1.35 4.5 10-.34c8.27-.28 10.25-.06 11.35 1.27 1.76 2.12.83 10.04-1.9 16.21l-2.05 4.64-5.54-.65c-3.04-.36-6.05-.76-6.68-.89-.67-.14-1.47 1.8-1.9 4.61-1.83 12.07-13.91 20.65-29.06 20.65-6.9 0-11.3-1.65-14.97-5.62-5.54-6-5.58-16.05-.08-23.35 3.6-4.79 4.76-5.67 12.02-9.2 6.97-3.38 6.96-3.33 2.94-11.58-1.14-2.33-2.65-4.25-3.35-4.25-1.66 0-10.12 8.5-13.5 13.57A1790.5 1790.5 0 00582 127.8c-12.44 19.25-19.11 24.5-31.13 24.5-6.45 0-7-.18-9.74-3.25a21.9 21.9 0 01-4.05-7.8l-1.14-4.54-1.74 2.86c-6.2 10.17-21.5 15.98-31.33 11.87-4.02-1.68-8.58-6.94-9.35-10.8-.79-3.93-1.45-4.1-5.4-1.45-4.94 3.3-9.44 4.61-15.92 4.61-4.52 0-6.08.44-7.6 2.11-5.4 5.98-17.9 8.76-24.36 5.41-6.4-3.3-8.97-11.18-5.87-18 2.75-6.03 14.38-9 20.23-5.17 2.59 1.7 2.64 1.68 3.82-1.06 1.94-4.5 1.58-16.17-.63-20.63-2.64-5.3-5.72-6.58-10.16-4.19-7.25 3.9-11.42 12.2-16.88 33.53-2.04 7.98-4.74 18.33-6.01 23-1.27 4.68-3.96 14.8-5.98 22.5-2.14 8.14-4.37 14.53-5.31 15.25-2.15 1.65-9.93 1.53-13.93-.2zm207.73-57.58c2.32-1.24 4.95-6.04 4.95-9.05 0-1.97-.39-2.13-4.08-1.63-4.98.67-7.92 3.14-7.92 6.67 0 4.47 3 6.18 7.05 4.01zm-250.69-3.94c4.16-4.6 10.57-16.9 13.23-25.38 1.77-5.63 1.77-5.9.04-7.17-2.49-1.82-6.4-.3-12.06 4.67-7.54 6.64-13.17 21.37-11.18 29.27 1.04 4.15 5.52 3.53 9.97-1.4zm95.2 2.47c1.9-1.47 1.9-1.53-.4-3.48-1.78-1.5-2.8-1.75-4.2-1-2.69 1.44-3.3 2.87-1.93 4.53 1.56 1.87 4.07 1.85 6.53-.05zm74.78-3.59c6.33-7.38 15.62-27.96 14.25-31.54-.87-2.26-4.97-1.55-9.92 1.73-5.5 3.64-7.74 6.58-11.73 15.36-6.6 14.56-1.4 24.73 7.4 14.45zm-96.34 53.6v-9.5h5.96c7.72 0 10.04 2.13 10.04 9.23 0 7.01-2.95 9.76-10.46 9.76h-5.54zm12.17 5.84c2.33-2.11 2.5-9.54.26-11.77-1.82-1.82-5.47-2.9-8.1-2.4-1.56.3-1.88 1.51-2.12 8.09l-.3 7.73h4.22c2.51 0 4.95-.66 6.04-1.65zm8.62 2.61c-2.6-1.54-3.36-7.44-1.35-10.5 1.47-2.25 2.25-2.51 6.61-2.25l4.95.3v13l-4.25.23c-2.34.12-5.02-.22-5.96-.78zm7.72-3.33c1.26-1.93 1.33-2.87.39-4.95-.65-1.41-1.85-2.83-2.68-3.14-2.16-.83-6.22 2.14-6.22 4.55 0 5.77 5.54 8.07 8.51 3.54zm6.49-2.63c0-4 .43-7 1-7 .57 0 1 3 1 7s-.43 7-1 7c-.57 0-1-3-1-7zm5.66 6.34c-1.07-1.07-.76-19.16.34-19.84.64-.4 1 3.16 1 9.95 0 10.54-.08 11.14-1.34 9.89zm27.32-.86c-1.84-2.21-.48-2.94 2.1-1.13 1.63 1.14 2.73 1.29 4.1.56 2.4-1.28 1.58-2.56-2.82-4.4-2.96-1.24-3.45-1.88-3.18-4.23.29-2.5.7-2.78 4.23-2.78 2.49 0 4.1.52 4.4 1.41.34 1.04-.04 1.21-1.43.64-3.41-1.4-4.88-1.1-4.88.95 0 1.29.77 2.11 2.14 2.31 3.49.5 5.74 3.62 4.4 6.11-1.35 2.53-7.13 2.88-9.06.56zm13.68.86c-.36-.37-.66-3.03-.66-5.92 0-3.22-.48-5.47-1.25-5.83-1-.47-1-.7 0-1.17.69-.32 1.25-1.44 1.25-2.5 0-1.05.45-1.92 1-1.92s1 .9 1 2c0 1.12.66 2 1.5 2 .82 0 1.5.45 1.5 1s-.68 1-1.5 1c-1.14 0-1.5 1.23-1.5 5 0 3.87.35 5 1.56 5 .85 0 1.28.45.94 1-.7 1.14-2.84 1.33-3.84.34zm7.93-1.24c-2.29-2.52-2.33-7.62-.09-10.1 4.08-4.5 11.83-1.23 11.83 5 0 6.16-7.74 9.52-11.74 5.1zm8.96-2.53c1.3-2 1.37-2.85.37-4.75-2.15-4.08-4.72-4.87-7.35-2.24-1.86 1.86-2.07 6.53-.37 8.22 2 2 5.63 1.39 7.35-1.23zm5.45-2.4v-6.84l4.25-.1c3.38-.08 3.8.08 2.06.78-2.93 1.19-4.31 4.03-4.31 8.93 0 2.23-.45 4.06-1 4.06-.57 0-1-2.94-1-6.83zm31.98 5.31c-1.62-1.95-.5-3.15 1.44-1.54 1.87 1.55 6.08 1 6.08-.8 0-.76-1.58-1.88-3.5-2.5-2.97-.96-3.5-1.59-3.5-4.14 0-2.82.23-3 3.91-3 2.4 0 4.1.53 4.37 1.35.35 1.06.02 1.12-1.6.25-2.32-1.24-5.18-.5-5.18 1.36 0 .68 1.8 1.95 4 2.81 4.13 1.63 5.2 4.13 2.8 6.53-1.7 1.7-7.32 1.5-8.82-.32zm12.66.4c-.41-.89-.62-4.02-.45-6.97l.3-5.35 4.31-.36c5.98-.5 7.2.85 7.2 7.93 0 3.25-.45 5.87-1 5.87s-1-2.42-1-5.37c0-6.24-1.62-8.43-4.93-6.67-2.11 1.13-2.8 3-3.35 9.04-.23 2.5-.54 3.04-1.08 1.89zm16-.71c-2.23-2.48-2.12-8.42.2-10.52 1.25-1.13 3.36-1.62 6.5-1.5l4.66.18v13.24l-4.85.21c-3.62.16-5.27-.25-6.5-1.61zm8.32-2.1c1.65-3.08 1.22-5.83-1.18-7.5-2.77-1.95-3.26-1.95-5.21 0-1.86 1.87-2.07 6.54-.37 8.23 1.84 1.84 5.6 1.43 6.76-.73zm7.53 1.92c-2.35-2.6-2.33-7.4.04-10.02 1.41-1.56 2.84-1.99 5.92-1.76 2.23.16 3.9.74 3.7 1.3-.2.54-.87.83-1.5.62-3.66-1.18-4.5-1.13-6 .37-2.07 2.06-2.14 6.85-.14 8.51.93.77 2.88 1.03 5.08.67 3.04-.49 3.4-.36 2.37.87-1.78 2.15-7.32 1.82-9.47-.56zm12.5-7.93c0-11.21 1.75-14.82 2.21-4.56l.3 6.55 3.8-3.14c2.1-1.72 4.12-2.82 4.5-2.43.38.39-.61 1.75-2.21 3.03l-2.91 2.32 2.66 3.17c3.81 4.53 3.28 6-.76 2.09-3.68-3.57-5.58-3.4-5.58.47 0 1.35-.45 2.44-1 2.44-.6 0-1-3.98-1-9.94zm13.99 8.42c-1.84-2.21-.48-2.94 2.1-1.13 1.61 1.13 2.74 1.29 4.07.57 2.78-1.48 2.27-2.45-2.22-4.21-3.58-1.4-4.04-1.94-3.75-4.4.27-2.38.83-2.86 3.7-3.13 1.85-.18 3.85.15 4.43.73 1.57 1.58-.02 2.58-1.77 1.12-.84-.69-2.2-.99-3.03-.67-2.64 1.01-1.64 3.45 1.9 4.62 3.88 1.27 5.05 3.3 3.55 6.1-1.27 2.37-7.13 2.64-8.98.4zM465.2 179.81a1 1 0 011-1 1 1 0 011 1 1 1 0 01-1 1 1 1 0 01-1-1z"/>
</svg>