<svg xmlns="http://www.w3.org/2000/svg" version="1.1" viewBox="0 0 48 48">
  <path fill="currentColor" d="M21.1 3c-.4 0-.8 0-1.1.2-2.3.9 0 3.7 0 3.7s-3-.3-3 1.7c0 3.5 9.2 4.4 9.2 4.4s-5.3 1.4-9.5-1.6c-2.5.9-9.3 6.4-10.4 12.1-1.5-.2-6.3 1.4-6.3 6.3 0 5.8 4 9.4 8.2 11.7 3.2 1.8 5.4 2.7 10.6 2.7 6.8 0 13.3-2.5 17.3-7.1-5.3-2.5-6.6-12.3-6.6-12.3S35.8 41.3 45.2 35c2.3-1.6 3.9-5.6 2-8.4-1-1.4-2.3-2.6-3.2-4l-3.3-4.8a6.4 6.4 0 0 0-6.3-2.8c-1.2-1.5-2.9-2.7-4.5-3.4 0-4.3-5.6-8.4-8.8-8.6zm-7.8 14h.2c.8.2.5 1.6.2 2.3l-2.4 5.5c3.2.4 6.9 1.7 6.9 3.5 0 1.4-2.4 3-5.3 3.7-3.8 1-5-.2-6.4-2.6-.5-.8-1.7-3-.6-4 1-1 2.5-.7 4-.7 0-.2.5-3.6 1-4.8.4-1 1.3-3 2.4-3zm11.6 1.3h.3c.8.2.7 1.7.4 2.4L23.4 26c-.2.5-.8 1-1.4.6-.7-.5-.3-3 .1-4.4.5-1.5 1.4-4 2.8-4z" />
</svg>