<svg xmlns="http://www.w3.org/2000/svg" viewBox="0 0 1079.5 408.3">
  <path fill="currentColor" d="M392.4 407.3c-10.9-2.6-21.4-10.8-23.7-18.5-1-3.6 0-8.5 17.5-73.4l19-71c.8-2 0-1-6.8 8a109.3 109.3 0 0 1-45.8 36.6 51.6 51.6 0 0 1-43.3-4.4c-8.8-6-16.3-23-15.3-34.4l.5-6-3 5.3a86.8 86.8 0 0 1-51.9 40.4 76 76 0 0 1-35.1-1.4 40.6 40.6 0 0 1-25.7-28.3c-3.4-13.1-2.5-13-12-2.1a99 99 0 0 1-51.7 33c-8.7 2.3-11.9 2.6-25.9 2.7-18.1 0-24.2-1-36.1-7-12.1-5.8-21-17.4-24.4-31.3a82 82 0 0 1-.7-20c.7-16.7 4.2-35.6 13.2-71l5.5-22c0-.7-30.4 3.7-38 5.4-3.3.7-4.3-.5-6.4-7.4-3.5-12-3-30.6 1.3-39 4.3-8.2 9-10 42.2-15.7l15.7-2.7 10-37.1c5.7-20.4 11-38.2 12-39.6C87 1.6 92.2-.1 102.7 0c15.3.2 30.3 5.2 39 13 3.2 3 4 4.3 4 7.2 0 1.9-3.8 15-8.5 29.1a568.7 568.7 0 0 0-8.5 26.9c0 .9 3.8 1.2 14 1.2 25 0 60.6 4.2 63.9 7.5 3.3 3.3.8 25-5 42.8-2.7 8.3-7.4 15.6-10.7 16.4-1.4.3-7.3-.1-13.1-1a386.9 386.9 0 0 0-50.3-4.4l-18.7-.6-1.1 2.8a1308 1308 0 0 0-19.2 63.8c-3 12-3.1 13.3-2.1 20.2 1.4 9.6 4.8 15.5 11 19.2 4.5 2.6 5.5 2.8 15.8 2.7 9.8 0 12-.4 19.4-3.2 17-6.4 30-16.2 38.6-29.2 2.4-3.6 8.2-13.9 13-23a153.3 153.3 0 0 1 28.3-41.2 123.4 123.4 0 0 1 92-40.8c29.1 0 51.2 5.1 60.4 14 4.6 4.4 4.8 4.9 4.8 10.1 0 4-2.1 12.7-7.4 30.5-18 60.6-20.7 73.3-17.2 81.9 1.8 4.1 4.2 5.5 9.9 5.5 19.4 0 44.1-27.5 62.1-69.2a406.2 406.2 0 0 0 20.2-61.3c4.9-19.1 5.6-21.2 8.4-23.6 4.2-3.6 9.3-4.9 19-4.9 13.8 0 29.1 5.4 37.2 13 5 4.8 5 7.3-.2 22.5l-4 12.2c0 .2 6-4.2 13.2-9.7 21.8-16.5 34.4-21.5 53.3-20.8 8.2.2 11 .8 15.5 3 11.1 5 19 14.9 23.6 29.2a67.7 67.7 0 0 1 3.2 22.2c.5 15.9-1 27.7-5.4 41a203.2 203.2 0 0 1-18.4 38.9c0 1.3 12.1-.3 18.3-2.4a64.4 64.4 0 0 0 31.3-24.7c1.8-2.8 6-11.3 9.3-18.8 7-16 10-21.2 20.2-35a127.3 127.3 0 0 1 76.4-50.8 200 200 0 0 1 51.7-1.8c28.4 3.2 38.8 10.3 38.8 26.7 0 7.9-2.5 17.7-11.5 45.4-12.5 38.6-16.3 56.6-13 62.8 1.7 3.4 8 7 12.1 7a43 43 0 0 0 10.3-4c15.8-7.9 24.5-18.9 50.6-63.9a838 838 0 0 1 22.6-37c19.4-28.7 40.8-46 64.9-52.6a87.2 87.2 0 0 1 36 0 60 60 0 0 1 22.8 11c3.4 4.4 2.8 7-3.2 13.5-6.9 7.5-8 11-7.3 22.5.5 9.2 4.5 23.3 7 25.5 1 .7 5.4.5 14.2-.5 15.7-1.9 34.3-1.5 39.7.9 3 1.3 3.9 2.3 4.9 5.9 2.3 8.5-1.1 27.7-7.3 41-3.3 7.4-8.9 13.2-11.6 12.4-1-.3-7.1-1.4-13.7-2.6l-14.1-2.6c-2-.5-2.2 0-2.9 5.8-2 18.6-6.3 28-18.9 40.3a73.4 73.4 0 0 1-35.1 20c-11 3.3-29.8 4.5-39.7 2.6a56.5 56.5 0 0 1-26.3-13.5 47 47 0 0 1-9.5-48c7.4-21.7 23-36.1 49-45.6 5.8-2.2 7.6-3.3 7.8-5 .5-3-3.3-14.2-8-23.5-6.4-12.7-5.5-12.1-12.4-7.7-15.8 10.4-26.2 23.3-54.4 68.2-21.3 33.8-33.2 49.1-45.8 59.1-27.5 22-60.6 22.8-74.1 1.9-5.4-8.3-8-16.8-8.1-25.4v-7.1l-4 7a78.8 78.8 0 0 1-62.3 40c-25.9 2.1-46.9-12.6-51.7-36.3l-1.6-7c-.2-.7-3 .8-7.1 4a72.4 72.4 0 0 1-48.4 15.2l-13.5.1-6.8 6.2a78 78 0 0 1-40 18.8c-6.6.8-17.3-1-24-4a36 36 0 0 1-20.2-41.6c3.8-14.9 15-24.2 32.2-27 11.4-1.7 23.4 1.2 30.2 7.4 1.2 1.1 2.4 1.8 2.7 1.5a94 94 0 0 0 6-18.8c3.8-17.3-.3-40.2-9.2-51.8a20.7 20.7 0 0 0-13.3-7.2c-7.2 0-20.9 10.6-29 22.4a147 147 0 0 0-14.5 30.4 6142 6142 0 0 0-27.5 103.4c-27.3 105-24.8 97.5-34.3 100.3a67.9 67.9 0 0 1-25 .4zm549-153.4c9.3-4 17.3-17 17.3-28.3V222l-6.2.6c-17.4 1.7-26.7 8.1-27.5 19-.8 10.8 6.6 16.3 16.5 12.2zm-683-3.5c9.1-5.2 20-20.4 30.8-43.3 18.2-38.3 20.9-55.8 8.5-55.7-9.2.1-27.1 12.6-37.5 26a113.1 113.1 0 0 0-21.5 58.8c0 15.9 7.4 21.2 19.7 14.2zm262.9.4c2.1-1.4 4.7-3.7 5.7-5 1.9-2.5 1.9-2.5-1.7-6-8.2-7.6-19.6-4.2-19.6 6 0 7.1 8.2 9.8 15.6 5zm193.8-1.4c9.9-3.7 24.3-25.2 38-56.4 11-24.8 14-37.3 10-41.8-7.5-8.2-37 12-49.3 33.5-17.3 30.7-21.2 58.2-9 64.4 3 1.5 6.9 1.6 10.3.3z"/>
</svg>