<?xml version="1.0" encoding="UTF-8" standalone="no"?>
<svg
   xmlns:dc="http://purl.org/dc/elements/1.1/"
   xmlns:cc="http://creativecommons.org/ns#"
   xmlns:rdf="http://www.w3.org/1999/02/22-rdf-syntax-ns#"
   xmlns:svg="http://www.w3.org/2000/svg"
   xmlns="http://www.w3.org/2000/svg"
   xmlns:xlink="http://www.w3.org/1999/xlink"
   id="svg882"
   version="1.1"
   viewBox="0 0 68 68"
   height="68"
   width="68">
  <defs
     id="defs876">
    <linearGradient
       id="linearGradient1519">
      <stop
         id="stop1515"
         offset="0"
         style="stop-color:#ff4e8e;stop-opacity:1" />
      <stop
         id="stop1517"
         offset="1"
         style="stop-color:#fc933e;stop-opacity:1" />
    </linearGradient>
    <linearGradient
       gradientUnits="userSpaceOnUse"
       y2="222.23631"
       x2="-153.41846"
       y1="290.23633"
       x1="-221.41846"
       id="linearGradient1521"
       xlink:href="#linearGradient1519" />
  </defs>
  <metadata
     id="metadata879">
    <rdf:RDF>
      <cc:Work
         rdf:about="">
        <dc:format>image/svg+xml</dc:format>
        <dc:type
           rdf:resource="http://purl.org/dc/dcmitype/StillImage" />
        <dc:title></dc:title>
      </cc:Work>
    </rdf:RDF>
  </metadata>
  <g
     transform="translate(221.41846,-222.23631)"
     id="layer1">
    <rect
       ry="14.555954"
       y="222.23631"
       x="-221.41846"
       height="68.000008"
       width="68.000008"
       id="rect1513"
       style="opacity:1;fill:url(#linearGradient1521);fill-opacity:1;stroke:none;stroke-width:8.33476543;stroke-linejoin:round;stroke-miterlimit:4;stroke-dasharray:none;stroke-opacity:1" />
    <path
       id="path1636"
       d="m -178.84355,267.28487 -12.56591,13.02494 2.18039,-7.68873 c 0.43775,-1.54365 -0.69339,-2.56049 -1.95087,-3.38534 l -7.2297,-15.60697 25.41871,0.17213 z"
       style="fill:#000000;stroke:none;stroke-width:1px;stroke-linecap:butt;stroke-linejoin:miter;stroke-opacity:1" />
    <ellipse
       ry="15.004502"
       rx="19.135761"
       cy="248.49338"
       cx="-187.59378"
       id="path1634"
       style="opacity:1;fill:#000000;fill-opacity:1;stroke:none;stroke-width:2.29039359;stroke-linejoin:round;stroke-miterlimit:4;stroke-dasharray:none;stroke-opacity:1" />
    <path
       id="rect1569"
       transform="translate(-221.41846,222.23631)"
       d="m 40.423828,19.394531 v 9.087891 h 4.345703 c 1.558036,0 2.8125,-1.254464 2.8125,-2.8125 0,-0.804558 -0.3389,-1.523481 -0.876953,-2.035156 0.280225,-0.430365 0.445313,-0.944045 0.445313,-1.498047 0,-1.519917 -1.222271,-2.742188 -2.742188,-2.742188 z m 2.351563,1.970703 h 1.248047 c 0.41333,0 0.746093,0.332754 0.746093,0.746094 0,0.41333 -0.332763,0.746094 -0.746093,0.746094 h -1.248047 z m 0,3.515625 H 44.375 c 0.48042,0 0.867188,0.386768 0.867188,0.867188 -10e-7,0.48042 -0.386768,0.867187 -0.867188,0.867187 h -1.599609 z"
       style="opacity:1;fill:#ffffff;fill-opacity:1;stroke:none;stroke-width:10;stroke-linejoin:round;stroke-miterlimit:4;stroke-dasharray:none;stroke-opacity:1" />
    <path
       id="rect1545"
       transform="translate(-221.41846,222.23631)"
       d="M 33.066406 19.394531 L 33.066406 28.482422 L 38.707031 28.482422 L 38.707031 26.615234 L 35.373047 26.615234 L 35.373047 24.880859 L 38.242188 24.880859 L 38.242188 22.857422 L 35.373047 22.857422 L 35.373047 21.365234 L 38.707031 21.365234 L 38.707031 19.394531 L 33.066406 19.394531 z "
       style="opacity:1;fill:#ffffff;fill-opacity:1;stroke:none;stroke-width:10;stroke-linejoin:round;stroke-miterlimit:4;stroke-dasharray:none;stroke-opacity:1" />
    <path
       id="rect1527"
       transform="translate(-221.41846,222.23631)"
       d="M 20.652344 19.394531 L 20.652344 25.480469 C 20.652344 27.143786 21.99098 28.482422 23.654297 28.482422 L 24.060547 28.482422 C 24.790009 28.482422 25.447664 28.214651 25.966797 27.785156 C 26.48593 28.214651 27.143585 28.482422 27.873047 28.482422 L 28.279297 28.482422 C 29.942614 28.482422 31.28125 27.143786 31.28125 25.480469 L 31.28125 19.394531 L 28.980469 19.394531 L 28.980469 25.337891 C 28.980469 25.866111 28.555564 26.291016 28.027344 26.291016 C 27.499134 26.291016 27.074219 25.866111 27.074219 25.337891 L 27.074219 19.394531 L 24.859375 19.394531 L 24.859375 25.337891 C 24.859375 25.866111 24.43447 26.291016 23.90625 26.291016 C 23.37803 26.291016 22.953125 25.866111 22.953125 25.337891 L 22.953125 19.394531 L 20.652344 19.394531 z "
       style="opacity:1;fill:#ffffff;fill-opacity:1;stroke:none;stroke-width:10;stroke-linejoin:round;stroke-miterlimit:4;stroke-dasharray:none;stroke-opacity:1" />
    <g
       transform="matrix(0.9402669,0,0,0.9402669,-11.620001,15.642917)"
       id="text1584"
       style="font-style:normal;font-variant:normal;font-weight:normal;font-stretch:normal;font-size:15.95501232px;line-height:1.25;font-family:'O PTIDynamo';-inkscape-font-specification:'O PTIDynamo';letter-spacing:0px;word-spacing:0px;fill:#000000;fill-opacity:1;stroke:#000000;stroke-width:2.29039359;stroke-linejoin:round;stroke-miterlimit:4;stroke-dasharray:none;stroke-opacity:1"
       aria-label="COMICS">
      <path
         id="path1586"
         style="fill:#000000;fill-opacity:1;stroke:#000000;stroke-width:2.29039359;stroke-linejoin:round;stroke-miterlimit:4;stroke-dasharray:none;stroke-opacity:1"
         d="m -211.57276,254.81242 -0.20742,0.36697 c -1.70718,-0.27124 -4.2919,0.12764 -6.12672,2.50493 -1.48382,1.9146 -1.54764,4.49932 -0.7818,6.28628 0.90944,2.16988 3.09528,3.6537 5.12156,3.86111 1.54764,0.1436 3.31864,-0.12764 4.99392,-1.57955 l -1.77101,-3.66965 c -0.92539,1.05303 -1.86673,1.40404 -2.77617,1.24449 -0.68606,-0.11168 -1.57954,-0.62224 -1.89864,-1.48381 -0.22337,-0.62225 -0.25528,-1.5955 0.20741,-2.29752 0.57438,-0.87753 1.37213,-1.16472 2.10606,-1.16472 0.81371,0 1.49977,0.33505 2.36134,1.14876 l 1.91461,-4.06853 z" />
      <path
         id="path1588"
         style="fill:#000000;fill-opacity:1;stroke:#000000;stroke-width:2.29039359;stroke-linejoin:round;stroke-miterlimit:4;stroke-dasharray:none;stroke-opacity:1"
         d="m -202.01573,255.13152 c -3.5101,0 -6.38201,2.85595 -6.38201,6.36605 0,3.5101 2.87191,6.36605 6.38201,6.36605 3.5101,0 6.36605,-2.85595 6.36605,-6.36605 0,-3.5101 -2.85595,-6.36605 -6.36605,-6.36605 z m 0,3.92493 c 1.34022,0 2.42516,1.1009 2.42516,2.44112 0,1.34022 -1.08494,2.44112 -2.42516,2.44112 -1.35618,0 -2.44112,-1.1009 -2.44112,-2.44112 0,-1.34022 1.08494,-2.44112 2.44112,-2.44112 z" />
      <path
         id="path1590"
         style="fill:#000000;fill-opacity:1;stroke:#000000;stroke-width:2.29039359;stroke-linejoin:round;stroke-miterlimit:4;stroke-dasharray:none;stroke-opacity:1"
         d="m -190.51218,267.70407 v -6.79683 l 2.16989,2.74426 2.15392,-2.79213 v 6.8447 h 3.84516 v -12.44491 h -3.86111 l -2.18584,2.58471 -2.12202,-2.58471 h -3.78133 l -1.03708,3.84516 h 0.92539 v 8.59975 z" />
      <path
         id="path1592"
         style="fill:#000000;fill-opacity:1;stroke:#000000;stroke-width:2.29039359;stroke-linejoin:round;stroke-miterlimit:4;stroke-dasharray:none;stroke-opacity:1"
         d="m -180.39672,255.25916 -1.03708,3.84516 h 0.92539 v 8.59975 h 3.89302 v -12.44491 z" />
      <path
         id="path1594"
         style="fill:#000000;fill-opacity:1;stroke:#000000;stroke-width:2.29039359;stroke-linejoin:round;stroke-miterlimit:4;stroke-dasharray:none;stroke-opacity:1"
         d="m -167.98375,254.81242 -0.20742,0.36697 c -1.70718,-0.27124 -4.2919,0.12764 -6.12672,2.50493 -1.48382,1.9146 -1.54764,4.49932 -0.7818,6.28628 0.90944,2.16988 3.09527,3.6537 5.12156,3.86111 1.54764,0.1436 3.31864,-0.12764 4.99392,-1.57955 l -1.77101,-3.66965 c -0.92539,1.05303 -1.86673,1.40404 -2.77617,1.24449 -0.68607,-0.11168 -1.57955,-0.62224 -1.89865,-1.48381 -0.22337,-0.62225 -0.25528,-1.5955 0.20742,-2.29752 0.57438,-0.87753 1.37213,-1.16472 2.10606,-1.16472 0.81371,0 1.49977,0.33505 2.36134,1.14876 l 1.9146,-4.06853 z" />
      <path
         id="path1596"
         style="fill:#000000;fill-opacity:1;stroke:#000000;stroke-width:2.29039359;stroke-linejoin:round;stroke-miterlimit:4;stroke-dasharray:none;stroke-opacity:1"
         d="m -159.12875,254.73265 -0.11168,0.41483 c -1.14876,-0.17551 -3.17505,-0.28719 -4.45145,0.94134 -1.05303,1.00517 -1.24449,2.58471 -1.03707,3.54201 0.36696,1.67528 1.70718,2.48899 3.33459,3.0155 l 0.39888,0.1436 c 0.47865,0.14359 1.22853,0.35101 1.22853,0.8137 0,0.23933 -0.0638,0.41483 -0.23932,0.52652 -0.68607,0.44674 -3.06336,-0.74989 -3.79729,-1.14876 l -1.05303,3.68561 c 1.43595,0.71797 3.191,1.18067 4.35571,1.21258 1.13281,0.016 2.87191,-0.23933 4.00471,-1.70719 0.79775,-1.05303 1.02112,-2.44112 0.67011,-3.54201 -0.55842,-1.86674 -1.94651,-2.3773 -3.39842,-2.88786 l -0.33505,-0.11169 c -0.49461,-0.12764 -1.1009,-0.36696 -1.19663,-0.60629 -0.0957,-0.19146 0,-0.43078 0.17551,-0.55842 0.68606,-0.43079 3.22291,0.62224 3.73347,0.87752 l 1.13281,-3.92493 z" />
    </g>
    <g
       transform="matrix(0.9402669,0,0,0.9402669,-10.540977,16.72194)"
       aria-label="COMICS"
       style="font-style:normal;font-variant:normal;font-weight:normal;font-stretch:normal;font-size:15.95501232px;line-height:1.25;font-family:'O PTIDynamo';-inkscape-font-specification:'O PTIDynamo';letter-spacing:0px;word-spacing:0px;fill:#000000;fill-opacity:1;stroke:#000000;stroke-width:2.29039359;stroke-linejoin:round;stroke-miterlimit:4;stroke-dasharray:none;stroke-opacity:1"
       id="g1625">
      <path
         d="m -211.57276,254.81242 -0.20742,0.36697 c -1.70718,-0.27124 -4.2919,0.12764 -6.12672,2.50493 -1.48382,1.9146 -1.54764,4.49932 -0.7818,6.28628 0.90944,2.16988 3.09528,3.6537 5.12156,3.86111 1.54764,0.1436 3.31864,-0.12764 4.99392,-1.57955 l -1.77101,-3.66965 c -0.92539,1.05303 -1.86673,1.40404 -2.77617,1.24449 -0.68606,-0.11168 -1.57954,-0.62224 -1.89864,-1.48381 -0.22337,-0.62225 -0.25528,-1.5955 0.20741,-2.29752 0.57438,-0.87753 1.37213,-1.16472 2.10606,-1.16472 0.81371,0 1.49977,0.33505 2.36134,1.14876 l 1.91461,-4.06853 z"
         style="fill:#000000;fill-opacity:1;stroke:#000000;stroke-width:2.29039359;stroke-linejoin:round;stroke-miterlimit:4;stroke-dasharray:none;stroke-opacity:1"
         id="path1613" />
      <path
         d="m -202.01573,255.13152 c -3.5101,0 -6.38201,2.85595 -6.38201,6.36605 0,3.5101 2.87191,6.36605 6.38201,6.36605 3.5101,0 6.36605,-2.85595 6.36605,-6.36605 0,-3.5101 -2.85595,-6.36605 -6.36605,-6.36605 z m 0,3.92493 c 1.34022,0 2.42516,1.1009 2.42516,2.44112 0,1.34022 -1.08494,2.44112 -2.42516,2.44112 -1.35618,0 -2.44112,-1.1009 -2.44112,-2.44112 0,-1.34022 1.08494,-2.44112 2.44112,-2.44112 z"
         style="fill:#000000;fill-opacity:1;stroke:#000000;stroke-width:2.29039359;stroke-linejoin:round;stroke-miterlimit:4;stroke-dasharray:none;stroke-opacity:1"
         id="path1615" />
      <path
         d="m -190.51218,267.70407 v -6.79683 l 2.16989,2.74426 2.15392,-2.79213 v 6.8447 h 3.84516 v -12.44491 h -3.86111 l -2.18584,2.58471 -2.12202,-2.58471 h -3.78133 l -1.03708,3.84516 h 0.92539 v 8.59975 z"
         style="fill:#000000;fill-opacity:1;stroke:#000000;stroke-width:2.29039359;stroke-linejoin:round;stroke-miterlimit:4;stroke-dasharray:none;stroke-opacity:1"
         id="path1617" />
      <path
         d="m -180.39672,255.25916 -1.03708,3.84516 h 0.92539 v 8.59975 h 3.89302 v -12.44491 z"
         style="fill:#000000;fill-opacity:1;stroke:#000000;stroke-width:2.29039359;stroke-linejoin:round;stroke-miterlimit:4;stroke-dasharray:none;stroke-opacity:1"
         id="path1619" />
      <path
         d="m -167.98375,254.81242 -0.20742,0.36697 c -1.70718,-0.27124 -4.2919,0.12764 -6.12672,2.50493 -1.48382,1.9146 -1.54764,4.49932 -0.7818,6.28628 0.90944,2.16988 3.09527,3.6537 5.12156,3.86111 1.54764,0.1436 3.31864,-0.12764 4.99392,-1.57955 l -1.77101,-3.66965 c -0.92539,1.05303 -1.86673,1.40404 -2.77617,1.24449 -0.68607,-0.11168 -1.57955,-0.62224 -1.89865,-1.48381 -0.22337,-0.62225 -0.25528,-1.5955 0.20742,-2.29752 0.57438,-0.87753 1.37213,-1.16472 2.10606,-1.16472 0.81371,0 1.49977,0.33505 2.36134,1.14876 l 1.9146,-4.06853 z"
         style="fill:#000000;fill-opacity:1;stroke:#000000;stroke-width:2.29039359;stroke-linejoin:round;stroke-miterlimit:4;stroke-dasharray:none;stroke-opacity:1"
         id="path1621" />
      <path
         d="m -159.12875,254.73265 -0.11168,0.41483 c -1.14876,-0.17551 -3.17505,-0.28719 -4.45145,0.94134 -1.05303,1.00517 -1.24449,2.58471 -1.03707,3.54201 0.36696,1.67528 1.70718,2.48899 3.33459,3.0155 l 0.39888,0.1436 c 0.47865,0.14359 1.22853,0.35101 1.22853,0.8137 0,0.23933 -0.0638,0.41483 -0.23932,0.52652 -0.68607,0.44674 -3.06336,-0.74989 -3.79729,-1.14876 l -1.05303,3.68561 c 1.43595,0.71797 3.191,1.18067 4.35571,1.21258 1.13281,0.016 2.87191,-0.23933 4.00471,-1.70719 0.79775,-1.05303 1.02112,-2.44112 0.67011,-3.54201 -0.55842,-1.86674 -1.94651,-2.3773 -3.39842,-2.88786 l -0.33505,-0.11169 c -0.49461,-0.12764 -1.1009,-0.36696 -1.19663,-0.60629 -0.0957,-0.19146 0,-0.43078 0.17551,-0.55842 0.68606,-0.43079 3.22291,0.62224 3.73347,0.87752 l 1.13281,-3.92493 z"
         style="fill:#000000;fill-opacity:1;stroke:#000000;stroke-width:2.29039359;stroke-linejoin:round;stroke-miterlimit:4;stroke-dasharray:none;stroke-opacity:1"
         id="path1623" />
    </g>
    <g
       transform="matrix(0.9402669,0,0,0.9402669,-11.620001,15.642917)"
       aria-label="COMICS"
       style="font-style:normal;font-variant:normal;font-weight:normal;font-stretch:normal;font-size:15.95501232px;line-height:1.25;font-family:'O PTIDynamo';-inkscape-font-specification:'O PTIDynamo';letter-spacing:0px;word-spacing:0px;fill:#ffea00;fill-opacity:1;stroke:none;stroke-width:2.29039359;stroke-linejoin:round;stroke-miterlimit:4;stroke-dasharray:none;stroke-opacity:1"
       id="g1611">
      <path
         d="m -211.57276,254.81242 -0.20742,0.36697 c -1.70718,-0.27124 -4.2919,0.12764 -6.12672,2.50493 -1.48382,1.9146 -1.54764,4.49932 -0.7818,6.28628 0.90944,2.16988 3.09528,3.6537 5.12156,3.86111 1.54764,0.1436 3.31864,-0.12764 4.99392,-1.57955 l -1.77101,-3.66965 c -0.92539,1.05303 -1.86673,1.40404 -2.77617,1.24449 -0.68606,-0.11168 -1.57954,-0.62224 -1.89864,-1.48381 -0.22337,-0.62225 -0.25528,-1.5955 0.20741,-2.29752 0.57438,-0.87753 1.37213,-1.16472 2.10606,-1.16472 0.81371,0 1.49977,0.33505 2.36134,1.14876 l 1.91461,-4.06853 z"
         style="fill:#ffea00;fill-opacity:1;stroke:none;stroke-width:2.29039359;stroke-linejoin:round;stroke-miterlimit:4;stroke-dasharray:none;stroke-opacity:1"
         id="path1599" />
      <path
         d="m -202.01573,255.13152 c -3.5101,0 -6.38201,2.85595 -6.38201,6.36605 0,3.5101 2.87191,6.36605 6.38201,6.36605 3.5101,0 6.36605,-2.85595 6.36605,-6.36605 0,-3.5101 -2.85595,-6.36605 -6.36605,-6.36605 z m 0,3.92493 c 1.34022,0 2.42516,1.1009 2.42516,2.44112 0,1.34022 -1.08494,2.44112 -2.42516,2.44112 -1.35618,0 -2.44112,-1.1009 -2.44112,-2.44112 0,-1.34022 1.08494,-2.44112 2.44112,-2.44112 z"
         style="fill:#ffea00;fill-opacity:1;stroke:none;stroke-width:2.29039359;stroke-linejoin:round;stroke-miterlimit:4;stroke-dasharray:none;stroke-opacity:1"
         id="path1601" />
      <path
         d="m -190.51218,267.70407 v -6.79683 l 2.16989,2.74426 2.15392,-2.79213 v 6.8447 h 3.84516 v -12.44491 h -3.86111 l -2.18584,2.58471 -2.12202,-2.58471 h -3.78133 l -1.03708,3.84516 h 0.92539 v 8.59975 z"
         style="fill:#ffea00;fill-opacity:1;stroke:none;stroke-width:2.29039359;stroke-linejoin:round;stroke-miterlimit:4;stroke-dasharray:none;stroke-opacity:1"
         id="path1603" />
      <path
         d="m -180.39672,255.25916 -1.03708,3.84516 h 0.92539 v 8.59975 h 3.89302 v -12.44491 z"
         style="fill:#ffea00;fill-opacity:1;stroke:none;stroke-width:2.29039359;stroke-linejoin:round;stroke-miterlimit:4;stroke-dasharray:none;stroke-opacity:1"
         id="path1605" />
      <path
         d="m -167.98375,254.81242 -0.20742,0.36697 c -1.70718,-0.27124 -4.2919,0.12764 -6.12672,2.50493 -1.48382,1.9146 -1.54764,4.49932 -0.7818,6.28628 0.90944,2.16988 3.09527,3.6537 5.12156,3.86111 1.54764,0.1436 3.31864,-0.12764 4.99392,-1.57955 l -1.77101,-3.66965 c -0.92539,1.05303 -1.86673,1.40404 -2.77617,1.24449 -0.68607,-0.11168 -1.57955,-0.62224 -1.89865,-1.48381 -0.22337,-0.62225 -0.25528,-1.5955 0.20742,-2.29752 0.57438,-0.87753 1.37213,-1.16472 2.10606,-1.16472 0.81371,0 1.49977,0.33505 2.36134,1.14876 l 1.9146,-4.06853 z"
         style="fill:#ffea00;fill-opacity:1;stroke:none;stroke-width:2.29039359;stroke-linejoin:round;stroke-miterlimit:4;stroke-dasharray:none;stroke-opacity:1"
         id="path1607" />
      <path
         d="m -159.12875,254.73265 -0.11168,0.41483 c -1.14876,-0.17551 -3.17505,-0.28719 -4.45145,0.94134 -1.05303,1.00517 -1.24449,2.58471 -1.03707,3.54201 0.36696,1.67528 1.70718,2.48899 3.33459,3.0155 l 0.39888,0.1436 c 0.47865,0.14359 1.22853,0.35101 1.22853,0.8137 0,0.23933 -0.0638,0.41483 -0.23932,0.52652 -0.68607,0.44674 -3.06336,-0.74989 -3.79729,-1.14876 l -1.05303,3.68561 c 1.43595,0.71797 3.191,1.18067 4.35571,1.21258 1.13281,0.016 2.87191,-0.23933 4.00471,-1.70719 0.79775,-1.05303 1.02112,-2.44112 0.67011,-3.54201 -0.55842,-1.86674 -1.94651,-2.3773 -3.39842,-2.88786 l -0.33505,-0.11169 c -0.49461,-0.12764 -1.1009,-0.36696 -1.19663,-0.60629 -0.0957,-0.19146 0,-0.43078 0.17551,-0.55842 0.68606,-0.43079 3.22291,0.62224 3.73347,0.87752 l 1.13281,-3.92493 z"
         style="fill:#ffea00;fill-opacity:1;stroke:none;stroke-width:2.29039359;stroke-linejoin:round;stroke-miterlimit:4;stroke-dasharray:none;stroke-opacity:1"
         id="path1609" />
    </g>
  </g>
</svg>
