<svg xmlns="http://www.w3.org/2000/svg" viewBox="0 0 66.21 8.72">
  <path d="m353.79 424.29-.28 1.04c-2.88-.44-7.96-.72-11.16 2.36-2.64 2.52-3.12 6.47-2.6 8.87.92 4.2 4.28 6.25 8.36 7.57l1 .35c1.2.36 3.08.89 3.08 2.05 0 .6-.16 1.04-.6 1.32-1.72 1.12-7.68-1.89-9.52-2.89l-2.64 9.25c3.6 1.8 8 2.96 10.92 3.04 2.84.04 7.2-.6 10.04-4.29 2-2.64 2.56-6.11 1.68-8.87-1.4-4.68-4.88-5.96-8.52-7.24l-.84-.29c-1.24-.32-2.76-.92-3-1.52-.24-.48 0-1.08.44-1.4 1.72-1.08 8.08 1.57 9.36 2.2l2.84-9.83zm-131.48.2-.52.92a16.15 16.15 0 0 0-15.36 6.28c-3.72 4.8-3.88 11.28-1.96 15.76 2.28 5.44 7.76 9.15 12.84 9.67 3.88.36 8.32-.31 12.52-3.95l-4.44-9.2c-2.32 2.63-4.68 3.52-6.96 3.12-1.72-.28-3.96-1.56-4.76-3.72-.56-1.56-.64-4 .52-5.76a6.09 6.09 0 0 1 5.28-2.92c2.04 0 3.76.83 5.92 2.87l4.8-10.2zm109.28 0-.52.92a16.15 16.15 0 0 0-15.36 6.28c-3.72 4.8-3.88 11.28-1.96 15.76 2.28 5.44 7.76 9.15 12.84 9.67 3.88.36 8.32-.31 12.52-3.95l-4.44-9.2c-2.32 2.63-4.68 3.52-6.96 3.12-1.72-.28-3.96-1.56-4.76-3.72-.56-1.56-.64-4 .52-5.76a6.08 6.08 0 0 1 5.28-2.92c2.04 0 3.76.83 5.92 2.87l4.8-10.2zm-85.32.8c-8.8 0-16 7.16-16 15.96s7.2 15.96 16 15.96 15.96-7.16 15.96-15.96-7.16-15.96-15.96-15.96zm-134.04.32 7.28 31.2h9.6l2.92-13.04 3.04 13.03h9.6l7.28-31.2h-10.28l-2.2 14.09-3.76-14.08h-7.24l-3.6 13.88-2.36-13.88zm42 0-2.6 9.64h2.32v21.55h18.4l2.44-9.6H163.7v-2.03h9.08l1.96-7.92H163.7v-1.8h9.04l2.52-9.84zm24.04 0-2.6 9.64h2.32v21.55h12.92c3.64 0 7.2-.52 9.28-2.84 1.88-2.12 2.12-5.32 1.76-7.24a8.3 8.3 0 0 0-4.56-6.11c.76-.6 1.32-1.05 2.04-1.8 2.28-2.4 2.36-6.44 1.36-8.56-1.88-4.08-6.28-4.64-9.32-4.64zm87.08 0v31.2h9.76v-17.04l5.44 6.87 5.4-7v17.16h9.64v-31.2h-9.68l-5.48 6.49-5.32-6.48zm35.12 0-2.6 9.64h2.32v21.55h9.76v-31.2zm-112.72 8.64h2.56c2.44 0 2.68 3.52-.04 3.52h-2.52zm58.52.88a6.11 6.11 0 0 1 0 12.24 6.12 6.12 0 1 1 0-12.24zm-58.52 8.75h2.64c3.04 0 3.2 4.2-.12 4.2h-2.52z" fill="currentColor" transform="translate(-29.7 -112.26) scale(.26458)" />
</svg>
