<svg xmlns="http://www.w3.org/2000/svg" viewBox="0 0 260.63 93.03">
  <path d="M143.98 82.82v-10.2h-.31c-.18 0-26.7 1.41-58.94 3.14-32.24 1.73-58.63 3.13-58.64 3.11C26.04 78.82-.02.02 0 0c.05-.05 260.58 11.98 260.63 12.03.06.06-6.96 54.56-7.03 54.64-.03.03-24.6 5.94-54.6 13.15l-54.78 13.15-.24.06v-10.2z" fill="#00dc64"/>
  <path d="M35.84 23.62c-.72 0-1.1.02-1.18.05a.91.91 0 00-.36.3c-.13.2.03.74 4.5 14.8 2.62 8.28 4.7 14.66 4.78 14.75.08.09.29.18.46.21.17.03 2.47.03 5.1.01 4.31-.04 4.83-.06 5.07-.19a.9.9 0 00.35-.38c.18-.45 4.57-15.14 4.63-15.47.13-.78.25-.85.34-.2.05.34 3.23 11.66 4.28 15.24.27.92-.11.86 5.47.8 5.19-.04 5.15-.04 5.35-.54.22-.56 8.56-27.66 8.56-27.83 0-.1-.1-.28-.21-.4-.22-.2-.25-.2-2.31-.25-1.15-.03-2.97-.06-4.04-.07-2.33 0-2.2-.07-2.57 1.16a352.13 352.13 0 00-4.54 17.14c-.1.62-.22.53-.34-.23-.15-.9-2.21-8.67-3.38-12.74-1.25-4.31-1.53-5.18-1.77-5.39-.26-.22-.89-.26-5.52-.34L55.2 24l-.26.24c-.23.23-.47.97-2.86 9.01a582.67 582.67 0 00-2.68 9.14c-.12.65-.16.78-.24.73-.04-.03-.1-.23-.14-.45a29.7 29.7 0 00-.5-2.01c-.25-.89-1.03-3.76-1.73-6.4-1.24-4.62-2.5-9.16-2.73-9.85-.22-.66-.1-.64-4.9-.74-1.5-.03-2.59-.05-3.32-.05zM87 24.7c-1.46 0-1.5 0-1.73.2l-.24.2-.1 13.88c-.05 7.8-.06 13.93-.02 14.02.04.08.18.2.3.27.25.13 1.63.13 16.47-.03l5.05-.05.2-.2.2-.19.07-2.78c.05-2.43.04-2.82-.07-3.04a1.06 1.06 0 00-.24-.33c-.06-.03-3.1-.08-6.75-.1l-6.65-.05-.02-1.8c-.02-1.27 0-1.85.07-1.93.08-.1 1.06-.12 5.77-.12 3.9 0 5.72-.03 5.84-.1.38-.2.4-.47.4-3.7v-3.06l-.24-.27-.25-.28-5.66-.07c-3.1-.04-5.7-.08-5.76-.1-.08-.03-.1-.45-.1-1.74 0-1.28.02-1.7.1-1.73.06-.02 2.98.01 6.5.07 6.74.12 6.82.11 7-.25.05-.09.1-1.42.13-2.97.05-3 .04-3.03-.37-3.25-.17-.1-16.2-.5-19.9-.5zm24.67.54c-.86 0-1.08.03-1.19.09-.14.07-.27.2-.3.28-.04.08-.09 6.23-.11 13.66l-.05 13.5.23.2c.24.18.27.18 3.3.17 1.68 0 5.06-.04 7.5-.08 4.6-.07 5.31-.12 6.9-.5 2.52-.6 4.34-1.85 5.19-3.56a7.68 7.68 0 00.27-6.08 7.5 7.5 0 00-2.47-3.22c-.26-.2-.5-.39-.53-.43-.08-.14.03-.3.48-.64 1-.79 1.93-2.3 2.26-3.69.24-.96.24-2.53.01-3.63-.59-2.84-2.8-4.69-6.46-5.42-1.85-.37-2.34-.4-10.07-.56a290.6 290.6 0 00-4.96-.09zm25.24.75c-1.2 0-1.26.04-1.37.13l-.22.16-.03 3.25c-.02 3.45-.01 3.53.38 3.71.14.06 1.32.12 3.34.15 2.69.05 3.16.08 3.27.19.12.12.13 1.04.08 9.4-.05 7.38-.04 9.32.05 9.49.22.44.25.44 4 .38 3.18-.04 3.49-.06 3.68-.2l.21-.16.02-9.38c.02-5.92.06-9.42.1-9.47.06-.05 1.31-.07 3.3-.06l3.23.02.25-.25.26-.26v-6.2l-.24-.24c-.23-.23-.25-.24-1.59-.3l-10.6-.22c-4.61-.09-6.93-.13-8.12-.14zm34.45.1c-2.25.02-4.48.5-6.33 1.42-5.48 2.75-8.07 8.82-6.68 15.7 1.08 5.38 4.64 8.72 10.33 9.68 2.06.35 4.57.36 6.28 0 5.14-1.04 8.69-4.99 9.68-10.75.33-1.92.36-4.1.08-5.67a12.25 12.25 0 00-8.26-9.6c-1.59-.55-3.35-.8-5.1-.79zm28.2.74c-1.04 0-2.17.1-2.82.23a13 13 0 00-4.91 2.16c-.94.7-2.22 2.04-2.82 2.95a14 14 0 00-1.92 10.48 12.39 12.39 0 009.96 9.98c1.31.25 1.35.25 3.08.22a12.36 12.36 0 0012.36-10.1c.77-3.76.14-7.32-1.85-10.35-.65-.98-2.28-2.6-3.3-3.29a14 14 0 00-7.78-2.28zm17.18 1c-.57-.01-.97 0-1.04.02a.62.62 0 00-.32.26c-.06.13-.12 2.05-.18 5.94a7454.92 7454.92 0 01-.25 16.45c0 1.27 0 1.3.2 1.5l.21.22h6.52l.24-.2.23-.21.07-4.56c.1-8.07.08-7.35.29-7.38.19-.03.6.56 4.84 7.05 1.74 2.67 3.28 4.84 3.53 5 .15.1.66.12 3.08.07 2.8-.05 2.91-.06 3.12-.24.16-.13.22-.28.24-.6.02-.23.19-4.55.37-9.6l.41-10.88c.08-1.8.04-2.07-.3-2.2-.2-.08-5.81-.25-6.07-.18-.47.12-.47.12-.6 4.5-.24 8.1-.22 7.64-.36 7.7a.24.24 0 01-.24-.06c-.06-.06-1.08-1.54-2.28-3.29-2.04-2.95-4.19-6-5.76-8.14a4.2 4.2 0 00-.88-.99 61.9 61.9 0 00-5.07-.19zm-96.64 3.63c1.29.01 2.81.05 3.2.1 1.2.17 1.83.66 2 1.58.18.96-.2 1.84-.94 2.22-.66.34-1.16.37-4.96.28-.81-.02-1.2-.06-1.24-.13-.11-.17-.09-3.93.02-4 .04-.02.33-.04.76-.04h1.16zm51.15 2.3c.8 0 1.66.09 2.17.25 1.18.37 2.05.99 2.71 1.91.8 1.12 1.1 2.31 1.03 4.1-.03.82-.1 1.33-.23 1.78a5.1 5.1 0 01-3.68 3.68c-.65.17-1.97.23-2.65.12a5.4 5.4 0 01-4.44-4.01c-.17-.6-.2-.85-.19-2.12 0-1.32.03-1.5.23-2.11a5 5 0 015.05-3.6zm28.47.35c.14 0 .27 0 .4.02 1.57.1 2.65.55 3.63 1.53 1.07 1.07 1.54 2.38 1.54 4.22 0 2.81-1.45 4.9-3.86 5.51-.65.17-1.89.23-2.53.13a5.08 5.08 0 01-4.29-3.86c-.14-.53-.18-.9-.18-1.85 0-1.38.16-2.13.68-3.11a5.06 5.06 0 014.61-2.59zm-79.89 8.55h1.37c3.3.05 3.5.08 4.18.75.33.32.41.46.5.88.17.87-.06 1.76-.56 2.16-.12.1-.44.26-.7.36-.46.18-.6.2-3.44.22-1.63.02-3 0-3.03-.03-.03-.03-.06-.98-.06-2.11 0-1.7.02-2.07.12-2.15a6 6 0 011.62-.08z" fill="#fff"/>
</svg>