<?xml version="1.0" encoding="UTF-8" standalone="no"?>
<!-- Created with Inkscape (http://www.inkscape.org/) -->

<svg width="512" height="512" viewBox="0 0 512 512" version="1.1" id="svg5"
  inkscape:version="1.2.2 (b0a8486541, 2022-12-01)" xml:space="preserve" sodipodi:docname="anisearch.svg"
  xmlns:inkscape="http://www.inkscape.org/namespaces/inkscape"
  xmlns:sodipodi="http://sodipodi.sourceforge.net/DTD/sodipodi-0.dtd" xmlns:xlink="http://www.w3.org/1999/xlink"
  xmlns="http://www.w3.org/2000/svg" xmlns:svg="http://www.w3.org/2000/svg">
  <sodipodi:namedview id="namedview7" pagecolor="#ffffff" bordercolor="#666666" borderopacity="1.0"
    inkscape:pageshadow="2" inkscape:pageopacity="0.0" inkscape:pagecheckerboard="0" inkscape:document-units="px"
    showgrid="false" units="px" width="793.70081px" scale-x="1" inkscape:showpageshadow="2" inkscape:deskcolor="#d1d1d1"
    inkscape:zoom="1.158716" inkscape:cx="351.25087" inkscape:cy="296.01732" inkscape:window-width="3440"
    inkscape:window-height="1403" inkscape:window-x="1920" inkscape:window-y="0" inkscape:window-maximized="1"
    inkscape:current-layer="layer1" />
  <defs id="defs2">
    <linearGradient inkscape:collect="always" id="linearGradient4929">
      <stop style="stop-color:#ee7123;stop-opacity:1;" offset="0" id="stop4925" />
      <stop style="stop-color:#ef495f;stop-opacity:1;" offset="1" id="stop4927" />
    </linearGradient>
    <filter height="1.0702766" y="-0.035130271" width="1.1136438" x="-0.056980723" id="filter850"
      style="color-interpolation-filters:sRGB">
      <feGaussianBlur id="feGaussianBlur852" stdDeviation="0.3472016" />
    </filter>
    <filter height="1.1101814" y="-0.055089035" width="1.1279471" x="-0.063947527" id="filter854"
      style="color-interpolation-filters:sRGB">
      <feGaussianBlur id="feGaussianBlur856" stdDeviation="0.3472016" />
    </filter>
    <linearGradient inkscape:collect="always" xlink:href="#linearGradient4929" id="linearGradient4931" x1="19.524168"
      y1="270.79294" x2="19.608074" y2="279.5141" gradientUnits="userSpaceOnUse" />
  </defs>
  <g inkscape:label="Layer 1" inkscape:groupmode="layer" id="layer1">
    <g transform="matrix(10.00193,0,0,10.00193,-46.378777,-2404.3423)" id="g868" style="opacity:1">
      <path id="path509"
        d="m 42.333334,250.6979 c -2.645834,0 -7.688377,2.41597 -10.583333,5.29166 -1.28993,1.28135 -1.951119,3.58547 -1.322917,5.29167 0.86195,2.34107 6.040884,4.60849 9.260417,6.61458 3.199346,1.99351 3.75476,4.5147 2.645833,6.61459 -1.134485,2.14829 -5.744553,3.27759 -9.260416,3.96875 -1.368288,0.26898 -3.672664,0.63862 -3.968751,1.32291 -0.330406,0.76361 0.492755,2.06101 1.322917,2.11667 3.81727,0.25596 9.779885,-1.11016 13.758334,-3.70417 2.359771,-1.53861 5.359725,-4.35951 3.704167,-9.78958 -0.910083,-2.98498 -4.58164,-4.99147 -6.879167,-6.35 -1.39363,-0.82406 -3.567332,-1.73298 -4.233334,-2.38125 -0.44688,-0.43498 -0.689884,-1.15607 0.264584,-1.85208 1.450181,-1.05749 3.056015,-2.02962 5.291666,-2.38125 1.559999,-0.24536 2.71481,-1.40049 2.645834,-2.64584 -0.06246,-1.12771 -1.516395,-2.11666 -2.645834,-2.11666 z"
        style="fill:#ffffff;stroke:#f27279;stroke-width:10.9901789;stroke-linecap:butt;stroke-linejoin:miter;stroke-miterlimit:4;stroke-dasharray:none;stroke-opacity:1" />
      <path id="path511" transform="matrix(0.26458334,0,0,0.26458334,0,237.46873)"
        d="m 78.535156,91.826172 c -10.953282,0 -23.5649,4.012478 -30.339844,12.619138 -2.830427,3.59569 -5.279299,10.22124 -2.148437,13.5586 5.429681,5.78778 12.331576,-0.23145 17.183594,-3.49024 3.674279,-2.46792 6.273369,-5.88799 10.203125,-5.90625 3.854271,-0.0189 5.101562,1.64555 5.101562,3.75781 0,1.31195 -0.01232,2.51261 -0.01953,3.75782 -1.692209,0.004 -3.387923,0.0985 -4.947266,0.13672 -5.750789,0.14109 -10.149698,0.51703 -16.78125,4.02734 -9.402731,4.97718 -19.196606,15.58047 -18.257812,26.17773 1.268315,14.31697 12.043645,17.31642 21.076172,17.04883 6.140124,-0.1819 12.310004,-1.43236 18.289062,-3.32617 0.816825,4.97861 4.644457,6.78635 8.292969,6.95117 4.781635,0.21619 10.740234,-3.268 10.740234,-9.53125 0,-1.85558 0.01658,-3.74457 0.04297,-5.65234 0.746436,-0.39847 1.510068,-0.79106 2.238281,-1.19531 2.907914,-1.61428 4.643904,-5.48414 4.027344,-9.12696 -0.4792,-2.83121 -2.44578,-4.98237 -5.882812,-6.02343 0.192276,-6.90551 0.378906,-13.88557 0.378906,-20.69336 0,-11.20559 -5.579707,-23.089848 -19.197266,-23.089848 z m -6.578125,41.212888 c 7.029343,0.0388 5.773438,9.26367 5.773438,9.26367 0,0 -8.460106,3.3144 -12.753907,4.16211 -4.414163,0.87149 -8.573032,-1.23059 -5.638671,-5.77343 2.632085,-4.07486 7.699832,-7.6788 12.61914,-7.65235 z"
        style="fill:#ffffff;stroke:#f27279;stroke-width:41.53768297;stroke-linecap:butt;stroke-linejoin:miter;stroke-miterlimit:4;stroke-dasharray:none;stroke-opacity:1" />
      <path id="path858"
        d="m 42.333334,250.6979 c -2.645834,0 -7.688377,2.41597 -10.583333,5.29166 -1.28993,1.28135 -1.951119,3.58547 -1.322917,5.29167 0.86195,2.34107 6.040884,4.60849 9.260417,6.61458 3.199346,1.99351 3.75476,4.5147 2.645833,6.61459 -1.134485,2.14829 -5.744553,3.27759 -9.260416,3.96875 -1.368288,0.26898 -3.672664,0.63862 -3.968751,1.32291 -0.330406,0.76361 0.492755,2.06101 1.322917,2.11667 3.81727,0.25596 9.779885,-1.11016 13.758334,-3.70417 2.359771,-1.53861 5.359725,-4.35951 3.704167,-9.78958 -0.910083,-2.98498 -4.58164,-4.99147 -6.879167,-6.35 -1.39363,-0.82406 -3.567332,-1.73298 -4.233334,-2.38125 -0.44688,-0.43498 -0.689884,-1.15607 0.264584,-1.85208 1.450181,-1.05749 3.056015,-2.02962 5.291666,-2.38125 1.559999,-0.24536 2.71481,-1.40049 2.645834,-2.64584 -0.06246,-1.12771 -1.516395,-2.11666 -2.645834,-2.11666 z"
        style="fill:#ffffff;stroke:#ffffff;stroke-width:6.64104;stroke-linecap:butt;stroke-linejoin:miter;stroke-miterlimit:4;stroke-dasharray:none;stroke-opacity:1" />
      <path id="path860" transform="matrix(0.26458334,0,0,0.26458334,0,237.46873)"
        d="m 78.535156,91.826172 c -10.953282,0 -23.5649,4.012478 -30.339844,12.619138 -2.830427,3.59569 -5.279299,10.22124 -2.148437,13.5586 5.429681,5.78778 12.331576,-0.23145 17.183594,-3.49024 3.674279,-2.46792 6.273369,-5.88799 10.203125,-5.90625 3.854271,-0.0189 5.101562,1.64555 5.101562,3.75781 0,1.31195 -0.01232,2.51261 -0.01953,3.75782 -1.692209,0.004 -3.387923,0.0985 -4.947266,0.13672 -5.750789,0.14109 -10.149698,0.51703 -16.78125,4.02734 -9.402731,4.97718 -19.196606,15.58047 -18.257812,26.17773 1.268315,14.31697 12.043645,17.31642 21.076172,17.04883 6.140124,-0.1819 12.310004,-1.43236 18.289062,-3.32617 0.816825,4.97861 4.644457,6.78635 8.292969,6.95117 4.781635,0.21619 10.740234,-3.268 10.740234,-9.53125 0,-1.85558 0.01658,-3.74457 0.04297,-5.65234 0.746436,-0.39847 1.510068,-0.79106 2.238281,-1.19531 2.907914,-1.61428 4.643904,-5.48414 4.027344,-9.12696 -0.4792,-2.83121 -2.44578,-4.98237 -5.882812,-6.02343 0.192276,-6.90551 0.378906,-13.88557 0.378906,-20.69336 0,-11.20559 -5.579707,-23.089848 -19.197266,-23.089848 z m -6.578125,41.212888 c 7.029343,0.0388 5.773438,9.26367 5.773438,9.26367 0,0 -8.460106,3.3144 -12.753907,4.16211 -4.414163,0.87149 -8.573032,-1.23059 -5.638671,-5.77343 2.632085,-4.07486 7.699832,-7.6788 12.61914,-7.65235 z"
        style="fill:#ffffff;stroke:#ffffff;stroke-width:25.1;stroke-linecap:butt;stroke-linejoin:miter;stroke-miterlimit:4;stroke-dasharray:none;stroke-opacity:1" />
      <path id="path838"
        d="m 42.004128,250.9564 c -2.645834,0 -7.688377,2.41597 -10.583333,5.29166 -1.28993,1.28135 -1.951119,3.58547 -1.322917,5.29167 0.86195,2.34107 6.040884,4.60849 9.260417,6.61458 3.199346,1.99351 3.75476,4.5147 2.645833,6.61459 -1.134485,2.14829 -5.744553,3.27759 -9.260416,3.96875 -1.368288,0.26898 -3.672664,0.63862 -3.968751,1.32291 -0.330406,0.76361 0.492755,2.06101 1.322917,2.11667 3.81727,0.25596 9.779885,-1.11016 13.758334,-3.70417 2.359771,-1.53861 5.359725,-4.35951 3.704167,-9.78958 -0.910083,-2.98498 -4.58164,-4.99147 -6.879167,-6.35 -1.39363,-0.82406 -3.567332,-1.73298 -4.233334,-2.38125 -0.44688,-0.43498 -0.689884,-1.15607 0.264584,-1.85208 1.450181,-1.05749 3.056015,-2.02962 5.291666,-2.38125 1.559999,-0.24536 2.71481,-1.40049 2.645834,-2.64584 -0.06246,-1.12771 -1.516395,-2.11666 -2.645834,-2.11666 z"
        style="fill:#000000;stroke:#000000;stroke-width:0.529167;stroke-linecap:butt;stroke-linejoin:miter;stroke-miterlimit:4;stroke-dasharray:none;stroke-opacity:1;filter:url(#filter850)" />
      <path id="path840"
        d="m 20.449888,262.02291 c -2.898056,0 -6.23488,1.06163 -8.027417,3.33881 -0.748884,0.95136 -1.396815,2.70437 -0.568441,3.58738 1.436603,1.53135 3.26273,-0.0612 4.546493,-0.92346 0.972153,-0.65297 1.659829,-1.55786 2.699577,-1.5627 1.019776,-0.005 1.349788,0.43539 1.349788,0.99426 0,0.34712 -0.0033,0.66479 -0.0052,0.99425 -0.447731,9.8e-4 -0.896388,0.0261 -1.308965,0.0362 -1.521562,0.0373 -2.685441,0.1368 -4.440039,1.06557 -2.487806,1.31687 -5.0791014,4.12233 -4.8307122,6.92619 0.3355742,3.78803 3.1865472,4.58163 5.5764032,4.51083 1.624575,-0.0481 3.257022,-0.37898 4.838982,-0.88005 0.216118,1.31726 1.228845,1.79556 2.194181,1.83917 1.265141,0.0572 2.841687,-0.86466 2.841687,-2.52181 0,-0.49096 0.0044,-0.99075 0.01137,-1.49552 0.197494,-0.10543 0.399539,-0.2093 0.592212,-0.31626 0.769386,-0.42711 1.2287,-1.45101 1.065568,-2.41484 -0.126788,-0.74909 -0.647112,-1.31825 -1.556494,-1.5937 0.05087,-1.82708 0.100252,-3.67389 0.100252,-5.47512 0,-2.96481 -1.476298,-6.10918 -5.079277,-6.10918 z m -1.740462,10.90424 c 1.859847,0.0103 1.527555,2.45101 1.527555,2.45101 0,0 -2.238403,0.87694 -3.374471,1.10123 -1.167914,0.23058 -2.268281,-0.3256 -1.491898,-1.52756 0.696406,-1.07814 2.037247,-2.03168 3.338814,-2.02468 z"
        style="fill:#000000;stroke:#000000;stroke-width:0.529167;stroke-linecap:butt;stroke-linejoin:miter;stroke-miterlimit:4;stroke-dasharray:none;stroke-opacity:1;filter:url(#filter854)" />
      <path
        style="fill:#fea379;stroke:#c83737;stroke-width:0.29924228;stroke-linecap:butt;stroke-linejoin:miter;stroke-miterlimit:4;stroke-dasharray:none;stroke-opacity:1;paint-order:markers stroke fill;fill-opacity:1"
        d="m 42.533295,249.6981 c -2.645834,0 -7.688377,2.41597 -10.583333,5.29166 -1.28993,1.28135 -1.951119,3.58547 -1.322917,5.29167 0.86195,2.34107 6.040884,4.60849 9.260417,6.61458 3.199346,1.99351 3.75476,4.5147 2.645833,6.61459 -1.134485,2.14829 -5.744553,3.27759 -9.260416,3.96875 -1.368288,0.26898 -3.672664,0.63862 -3.968751,1.32291 -0.330406,0.76361 0.492755,2.06101 1.322917,2.11667 3.81727,0.25596 9.779885,-1.11016 13.758334,-3.70417 2.359771,-1.53861 5.359725,-4.35951 3.704167,-9.78958 -0.910083,-2.98498 -4.58164,-4.99147 -6.879167,-6.35 -1.39363,-0.82406 -3.567332,-1.73298 -4.233334,-2.38125 -0.44688,-0.43498 -0.689884,-1.15607 0.264584,-1.85208 1.450181,-1.05749 3.056015,-2.02962 5.291666,-2.38125 1.559999,-0.24536 2.71481,-1.40049 2.645834,-2.64584 -0.06246,-1.12771 -1.516395,-2.11666 -2.645834,-2.11666 z"
        id="path828" />
      <path
        style="fill:#fedb62;stroke:#c83737;stroke-width:0.29924228;stroke-linecap:butt;stroke-linejoin:miter;stroke-miterlimit:4;stroke-dasharray:none;stroke-opacity:1;paint-order:markers stroke fill;fill-opacity:1"
        d="m 20.979055,260.7646 c -2.898056,0 -6.23488,1.06164 -8.027417,3.33882 -0.748884,0.95136 -1.396815,2.70437 -0.568441,3.58738 1.436603,1.53135 3.26273,-0.0612 4.546493,-0.92346 0.972153,-0.65297 1.659829,-1.55787 2.699577,-1.5627 1.019775,-0.005 1.349788,0.43539 1.349788,0.99426 0,0.34712 -0.0033,0.66479 -0.0052,0.99425 -0.447731,10e-4 -0.896388,0.0261 -1.308965,0.0362 -1.521563,0.0373 -2.685441,0.13679 -4.440039,1.06556 -2.487806,1.31688 -5.079101,4.12234 -4.830713,6.9262 0.335575,3.78803 3.186548,4.58163 5.576404,4.51083 1.624575,-0.0481 3.257022,-0.37898 4.838981,-0.88005 0.216119,1.31726 1.228846,1.79556 2.194182,1.83917 1.265141,0.0572 2.841687,-0.86466 2.841687,-2.52181 0,-0.49096 0.0044,-0.99075 0.01137,-1.49552 0.197495,-0.10543 0.399539,-0.2093 0.592212,-0.31626 0.769385,-0.42711 1.2287,-1.45101 1.065568,-2.41484 -0.126788,-0.74909 -0.647113,-1.31825 -1.556494,-1.5937 0.05087,-1.82708 0.100252,-3.67389 0.100252,-5.47512 0,-2.96481 -1.476297,-6.10919 -5.079277,-6.10919 z m -1.740462,10.90425 c 1.859847,0.0103 1.527555,2.45101 1.527555,2.45101 0,0 -2.238403,0.87694 -3.374471,1.10123 -1.167914,0.23058 -2.268282,-0.3256 -1.491899,-1.52756 0.696406,-1.07814 2.037248,-2.03168 3.338815,-2.02468 z"
        id="path830" />
      <path id="path2276"
        style="fill:#ff6203;stroke:none;stroke-width:0.299242;stroke-linecap:butt;stroke-linejoin:miter;stroke-miterlimit:4;stroke-dasharray:none;stroke-opacity:1;paint-order:markers stroke fill;fill-opacity:1"
        d="M 41.186569 267.85617 C 43.218769 269.65997 43.470664 271.73568 42.53338 273.51054 C 41.398896 275.65883 36.788722 276.78815 33.272862 277.47931 C 31.904576 277.74829 29.600184 278.11801 29.304097 278.8023 C 28.973691 279.56591 29.796923 280.86322 30.627084 280.91888 C 34.44435 281.17484 40.406921 279.80872 44.385366 277.21471 C 46.50644 275.83174 49.143961 273.41239 48.453721 268.99384 C 45.787912 268.65024 43.316698 268.27814 41.186569 267.85617 z " />
      <path id="path4207"
        style="fill:url(#linearGradient4931);stroke:none;stroke-width:0.299242;stroke-linecap:butt;stroke-linejoin:miter;stroke-miterlimit:4;stroke-dasharray:none;stroke-opacity:1;paint-order:markers stroke fill;fill-opacity:1"
        d="M 12.900818 269.96826 C 11.369288 271.40774 10.225191 273.31476 10.394075 275.22115 C 10.729649 279.00918 13.580684 279.8028 15.970538 279.732 C 17.595111 279.6839 19.22749 279.35297 20.809447 278.8519 C 21.025566 280.16915 22.038415 280.64738 23.00375 280.69099 C 24.26889 280.74819 25.84539 279.82636 25.84539 278.16922 C 25.84539 277.67826 25.849745 277.17857 25.856715 276.6738 C 26.05421 276.56837 26.256311 276.46442 26.448984 276.35746 C 27.218368 275.93035 27.67773 274.90652 27.514599 273.94269 C 27.387811 273.1936 26.867443 272.6243 25.958063 272.34885 C 25.965866 272.06859 25.97335 271.78739 25.98091 271.50644 C 21.646949 271.32694 17.28662 270.81012 12.900818 269.96826 z M 19.238657 271.66891 C 21.098502 271.67921 20.766096 274.1198 20.766096 274.1198 C 20.766096 274.1198 18.527815 274.99686 17.391748 275.22115 C 16.223835 275.45173 15.123466 274.89548 15.899848 273.69352 C 16.596253 272.61538 17.937091 271.66191 19.238657 271.66891 z " />
    </g>
  </g>
</svg>
