<svg xmlns="http://www.w3.org/2000/svg" viewBox="0 0 112.18 158.75">
  <path fill="#dee2e6" d="M0 0h112.18v158.75H0z"/>
  <path d="M68.34 49.53c-.68 0-1.04 1.4-1.54 5.95-.34 3.05-.34 5.31 0 6.24.16.4.71.8 1.59 1.13.74.28 2.9.2 3.48-.13.6-.34 1.13-.83 1.04-.97-.05-.07 0-.17.08-.22.51-.32-.1-4.44-.98-6.54l-.43-1.06c-.93-2.28-2.48-4.4-3.24-4.4zm-24.49.41c-.14 0-.32.14-.71.5-1 .9-1.86 2.3-2.63 4.23l-.56 1.38a15.29 15.29 0 00-.86 5.1c.07 1.09.44 1.7 1.28 2.13.79.4 2.9.32 3.91-.16 1.62-.76 1.76-2.26.87-9.27-.27-2.18-.6-3.35-1.04-3.75-.1-.1-.17-.15-.26-.16zm27.07 15.43c-.72 0-1.53.09-2.53.24-2.45.36-3.72 1.29-3.72 2.71 0 1.1 1.16 2.35 2.48 2.67 1.3.31 3.9.28 5.5-.07 1.19-.26 1.44-.38 2.02-.96.55-.55.67-.78.73-1.44.04-.52-.02-.94-.18-1.2a9.33 9.33 0 01-.41-.77c-.22-.46-.7-.71-1.9-.97a9 9 0 00-2-.2zm-27.98.67c-1.75 0-3.96.4-4.7.87-1.47.94-1.85 2.1-1.08 3.31a3.9 3.9 0 002.07 1.56c.22.04 1.46.06 2.76.03 2.53-.06 4.1-.42 4.83-1.1.44-.4.76-1.45.63-2.04-.4-1.8-1.3-2.42-3.78-2.6a9.86 9.86 0 00-.73-.03zm29.97 6.68c-.56-.02-1.55.04-3.5.16-3.7.23-4.08.4-3.57 1.52.23.5.86.8 2.35 1.05 1.42.26 4.35-.28 5.33-.97.65-.47.78-1.1.3-1.48-.22-.17-.35-.27-.9-.28zm-27.62.6c-.68-.02-1.8.05-3.77.18-3.28.22-3.67.43-3.04 1.64.19.36.43.51 1.18.7 1.61.43 3.32.32 5.55-.37 1.17-.36 1.79-1.33 1.19-1.87-.2-.18-.43-.27-1.11-.28zm25.7 4.07l-.46.01c-.82.02-1.6.1-1.71.2-.12.1-.29.14-.38.08-.24-.15-.78.25-1.24.91-.38.55-.41.74-.5 3.43-.1 2.78.29 12.66.51 13.25.23.6.93.15 1.46-.94a50.72 50.72 0 003.2-9.63c.37-1.8.97-5.53.97-6.03 0-.35-.14-.65-.41-.91-.33-.31-.5-.37-1.45-.37zm-29.24.39a3 3 0 00-1.02.12c-1 .41-1.08 1.1-.53 4.2.7 4.03 1.36 6.62 2.12 8.47a23.32 23.32 0 002.32 5.27c.3.36.75.23.84-.25.23-1.18.45-7.76.4-11.63-.06-4.94-.1-5.08-1.28-5.67-.62-.3-1.89-.51-2.85-.51zm18.72 22.18c-.88 0-2 0-3.48.03-4.51.06-5.36.12-5.78.35a2.6 2.6 0 01-.6.26c-.28 0-1.27.78-1.43 1.11-.67 1.43.29 2.36 3.1 3 .99.23 1.88.27 4.73.24a24.5 24.5 0 004-.23c.26-.1.95-.32 1.51-.47a2.94 2.94 0 001.68-.98c.86-.94.88-1.55.03-2.37-.74-.71-1.12-.92-3.76-.94zm-2.95 6.87c-1.48 0-3.04.06-3.67.16-1.45.22-1.78.39-1.71.85.06.45.9.87 2.37 1.18 2.46.5 5.62.03 6.58-1 .45-.47.32-.88-.35-1.07-.32-.09-1.73-.13-3.22-.12z" fill="#fff"/>
</svg>