<svg xmlns="http://www.w3.org/2000/svg" viewBox="0 0 112.18 158.75" width="424" height="600">
  <defs/>
  <path fill="#dee2e6" d="M0 0h112.18v158.75H0z"/>
  <g fill="#fff">
    <path d="M20.96 62.97v28.6h6.91V74.19l6.1 7.88 6.1-7.82v17.32h6.9v-28.6h-6.8l-6.26 8.85-6.15-8.85z"/>
    <path d="M52.96 95.78l5.67-4.21c-2.78-4.75-3.13-9.5-3.13-9.5h8.63v9.5h7.77V69.99h-7.66v6.04H56.9S58.27 69 64.67 69h8.1l-1.73-6.04H65.1c-17.5 0-19.64 19.9-12.14 32.8zm21.75-32.8v28.48h14.9l1.61-6.04h-9.6V62.97z"/>
  </g>
</svg>