<?xml version="1.0" encoding="UTF-8" standalone="no"?>
<svg
   viewBox="0 0 16 16"
   version="1.1"
   id="svg6"
   sodipodi:docname="icon-foreground.svg"
   xml:space="preserve"
   inkscape:version="1.2.2 (b0a8486541, 2022-12-01)"
   xmlns:inkscape="http://www.inkscape.org/namespaces/inkscape"
   xmlns:sodipodi="http://sodipodi.sourceforge.net/DTD/sodipodi-0.dtd"
   xmlns="http://www.w3.org/2000/svg"
   xmlns:svg="http://www.w3.org/2000/svg"><defs
     id="defs10" /><sodipodi:namedview
     id="namedview8"
     pagecolor="#ffffff"
     bordercolor="#666666"
     borderopacity="1.0"
     inkscape:showpageshadow="2"
     inkscape:pageopacity="0.0"
     inkscape:pagecheckerboard="0"
     inkscape:deskcolor="#d1d1d1"
     showgrid="false"
     inkscape:zoom="18.539456"
     inkscape:cx="4.0723957"
     inkscape:cy="10.41023"
     inkscape:window-width="1920"
     inkscape:window-height="1043"
     inkscape:window-x="1920"
     inkscape:window-y="304"
     inkscape:window-maximized="1"
     inkscape:current-layer="svg6" /><path
     d="m 9.7390789,4.1366345 c -0.097729,0 -0.1491658,0.2013374 -0.2226467,0.8611952 -0.048497,0.4408849 -0.048497,0.766405 0.00147,0.9001401 0.022044,0.058784 0.1021384,0.1160996 0.227791,0.1638622 0.1072816,0.03968 0.4188398,0.027923 0.5026088,-0.019105 0.08818,-0.049232 0.163862,-0.1190389 0.15137,-0.1396135 -0.0073,-0.00955 0,-0.024249 0.01249,-0.032332 0.07348,-0.045558 -0.01617,-0.6414875 -0.141817,-0.9442285 L 10.207156,4.774448 C 10.072685,4.4437843 9.8478341,4.1366345 9.7390822,4.1366345 Z m -3.5373665,0.060255 c -0.020575,0 -0.046293,0.01984 -0.1036079,0.072011 C 5.9555517,4.3982262 5.8291646,4.6010333 5.7174738,4.8802604 L 5.6388493,5.0801283 C 5.563164,5.2711784 5.5014402,5.6378476 5.5139319,5.8171409 5.524954,5.9736551 5.5778602,6.0610972 5.6991036,6.1235559 5.8129989,6.1816058 6.1164747,6.169114 6.2634363,6.100042 6.4963705,5.9898208 6.5169451,5.7737872 6.3890885,4.7612214 6.3494088,4.445254 6.3031159,4.2762481 6.2384528,4.218933 6.2237566,4.2049716 6.2134693,4.1976236 6.2017124,4.1968895 Z m 3.9091796,2.2294077 c -0.103608,0 -0.2197075,0.012492 -0.364465,0.033801 -0.3541774,0.053641 -0.5364098,0.1859064 -0.5364098,0.3923876 0,0.1587186 0.1660667,0.3394814 0.3571168,0.3857743 0.1873763,0.045558 0.563598,0.040414 0.793593,-0.010287 0.17121,-0.036741 0.20942,-0.055846 0.292454,-0.1388789 0.08009,-0.080094 0.09699,-0.1138951 0.105077,-0.2094202 A 0.29539291,0.29539291 0 0 0 10.73254,6.7069936 1.3380858,1.3380858 0 0 1 10.673755,6.5967724 C 10.642893,6.5291701 10.573821,6.4938993 10.400406,6.4564241 A 1.3086934,1.3086934 0 0 0 10.110892,6.4262972 Z M 6.0709165,6.5232915 C 5.8174077,6.5240264 5.4977661,6.5798718 5.3904841,6.648209 5.1781245,6.7841485 5.1252184,6.9524196 5.2361744,7.1280387 5.299368,7.2287075 5.4345726,7.330111 5.5337717,7.3514205 c 0.031596,0.00735 0.2116248,0.00882 0.3990009,0.00441 C 6.298707,7.3477464 6.525028,7.2970446 6.6308404,7.1993152 A 0.38871355,0.38871355 0 0 0 6.7212218,6.9024526 C 6.6624372,6.6415957 6.532376,6.5519491 6.1745244,6.5262308 a 1.5092961,1.5092961 0 0 0 -0.1036079,-0.00294 z m 4.3294895,0.9648033 a 7.7522267,7.7522267 0 0 0 -0.5070169,0.022779 c -0.5342058,0.032332 -0.5900512,0.055845 -0.5158356,0.2182381 0.033801,0.073481 0.1249174,0.1153648 0.3380115,0.1535748 0.2057464,0.036741 0.6312,-0.041884 0.771549,-0.141818 0.09332,-0.066868 0.112426,-0.1572489 0.04409,-0.2130943 -0.0316,-0.024983 -0.04923,-0.037475 -0.130796,-0.03968 z m -3.9922125,0.085973 c -0.098464,-0.00221 -0.2601221,0.00735 -0.5437581,0.025718 -0.4739513,0.031597 -0.5297968,0.061724 -0.4394153,0.2373431 0.027188,0.052171 0.063194,0.073481 0.1704755,0.1014035 0.233669,0.061724 0.4812994,0.045558 0.8024106,-0.052906 0.1697407,-0.052171 0.2571828,-0.1925198 0.1712103,-0.271879 -0.028657,-0.024983 -0.062458,-0.036741 -0.1616578,-0.03968 z m 3.7129855,0.5878466 -0.06613,0.00221 c -0.1183037,0.00221 -0.2277907,0.015431 -0.245426,0.029393 -0.017634,0.014696 -0.043351,0.01984 -0.055848,0.011756 -0.035267,-0.022044 -0.1131604,0.034536 -0.1800279,0.1293262 -0.05511,0.080094 -0.058784,0.1072821 -0.071276,0.4952608 -0.013227,0.4026749 0.042619,1.8304076 0.074216,1.9149106 0.033801,0.08597 0.1330009,0.02131 0.2101556,-0.136674 C 9.9507049,10.26935 10.165269,9.6234533 10.248302,9.2171043 10.301942,8.957717 10.387915,8.4198374 10.387915,8.3478262 A 0.17341474,0.17341474 0 0 0 10.32913,8.2155549 c -0.04776,-0.044088 -0.07127,-0.054376 -0.207951,-0.052907 z m -4.2222076,0.056581 a 0.43059761,0.43059761 0 0 0 -0.1484313,0.017635 c -0.1432875,0.058784 -0.1550445,0.1579838 -0.075685,0.6084212 0.1028731,0.5804985 0.195459,0.9537815 0.3056802,1.2212524 0.010287,0.02572 0.024983,0.06834 0.031596,0.09479 0.03821,0.146962 0.2366082,0.584907 0.302741,0.665737 0.043354,0.05291 0.1087516,0.03527 0.1219781,-0.03453 C 6.4699173,10.621319 6.5029831,9.6704775 6.495635,9.1112879 6.4860831,8.3977874 6.4809395,8.3772127 6.310464,8.2934446 6.2200826,8.249356 6.0371153,8.219229 5.8989714,8.2184954 Z m 2.7040942,3.2044986 c -0.1278566,-0.0015 -0.290984,0.0015 -0.5040784,0.0044 -0.6510401,0.0095 -0.7737531,0.01543 -0.8340073,0.04923 a 0.41884068,0.41884068 0 0 1 -0.088177,0.03968 c -0.03968,0 -0.1814977,0.110222 -0.2050115,0.159453 -0.09626,0.205747 0.041884,0.340951 0.4467633,0.433538 0.1432877,0.03307 0.2718792,0.03968 0.6833717,0.03453 0.306415,-0.0037 0.5349404,-0.0169 0.5782941,-0.03307 0.038944,-0.0147 0.1374091,-0.04629 0.2197076,-0.06907 a 0.4210451,0.4210451 0 0 0 0.2410172,-0.14038 c 0.1249174,-0.13594 0.1263869,-0.225587 0.00367,-0.343156 C 9.0380721,11.455325 8.9829615,11.425933 8.6023308,11.422993 Z M 8.176142,12.414985 a 5.0121268,5.0121268 0 0 0 -0.5305315,0.02278 c -0.2094203,0.03233 -0.2571828,0.05658 -0.2476303,0.123449 0.00882,0.06613 0.1307958,0.125652 0.3409509,0.169005 0.3563821,0.07421 0.8134327,0.0058 0.9530463,-0.143287 0.064663,-0.06834 0.044089,-0.127857 -0.051436,-0.15431 -0.047028,-0.01396 -0.2505697,-0.01911 -0.4651336,-0.01763 z"
     fill="#ffffff"
     id="path4"
     style="fill:#000000;stroke-width:0.734808" /></svg>
