<?xml version="1.0" encoding="UTF-8" standalone="no"?>
<!-- Created with Inkscape (http://www.inkscape.org/) -->

<svg
   xmlns:dc="http://purl.org/dc/elements/1.1/"
   xmlns:cc="http://creativecommons.org/ns#"
   xmlns:rdf="http://www.w3.org/1999/02/22-rdf-syntax-ns#"
   xmlns:svg="http://www.w3.org/2000/svg"
   xmlns="http://www.w3.org/2000/svg"
   xmlns:sodipodi="http://sodipodi.sourceforge.net/DTD/sodipodi-0.dtd"
   xmlns:inkscape="http://www.inkscape.org/namespaces/inkscape"
   version="1.1"
   id="svg2"
   width="24"
   height="24"
   viewBox="0 0 24 24"
   sodipodi:docname="icon.svg"
   inkscape:version="0.92.4 (5da689c313, 2019-01-14)"
   inkscape:export-filename="/home/cschreiner/projects/anime-downloader/frontend/src/assets/icon-192.png"
   inkscape:export-xdpi="768"
   inkscape:export-ydpi="768">
  <metadata
     id="metadata8">
    <rdf:RDF>
      <cc:Work
         rdf:about="">
        <dc:format>image/svg+xml</dc:format>
        <dc:type
           rdf:resource="http://purl.org/dc/dcmitype/StillImage" />
        <dc:title></dc:title>
      </cc:Work>
    </rdf:RDF>
  </metadata>
  <defs
     id="defs6">
    <filter
       inkscape:collect="always"
       style="color-interpolation-filters:sRGB"
       id="filter871"
       x="-0.024"
       width="1.048"
       y="-0.024"
       height="1.048">
      <feGaussianBlur
         inkscape:collect="always"
         stdDeviation="0.23"
         id="feGaussianBlur873" />
    </filter>
  </defs>
  <sodipodi:namedview
     pagecolor="#ffffff"
     bordercolor="#666666"
     borderopacity="1"
     objecttolerance="10"
     gridtolerance="10"
     guidetolerance="10"
     inkscape:pageopacity="0"
     inkscape:pageshadow="2"
     inkscape:window-width="1920"
     inkscape:window-height="1048"
     id="namedview4"
     showgrid="false"
     inkscape:zoom="11.932427"
     inkscape:cx="15.901633"
     inkscape:cy="3.1701958"
     inkscape:window-x="1920"
     inkscape:window-y="489"
     inkscape:window-maximized="1"
     inkscape:current-layer="svg2" />
  <circle
     r="11.5"
     cy="12"
     cx="12"
     id="circle865"
     style="opacity:1;fill:#000000;fill-opacity:1;stroke:none;stroke-width:0.95833331;stroke-linejoin:round;stroke-miterlimit:4;stroke-dasharray:none;stroke-opacity:1;filter:url(#filter871)" />
  <circle
     style="opacity:1;fill:#484848;fill-opacity:1;stroke:none;stroke-width:0.97916669;stroke-linejoin:round;stroke-miterlimit:4;stroke-dasharray:none;stroke-opacity:1"
     id="path863"
     cx="12"
     cy="11.75"
     r="11.75" />
  <path
     style="opacity:1;fill:#ffffff;fill-opacity:1;stroke:none;stroke-width:0.8031497;stroke-linejoin:round;stroke-miterlimit:4;stroke-dasharray:none;stroke-opacity:1"
     d="M 12.198722,1.7499983 C 11.397556,1.7501816 10.283357,1.9379982 9.8015905,2.1540814 9.7064655,2.196748 9.5893406,2.2436147 9.5413489,2.2582397 9.448499,2.2864897 8.8957576,2.5438312 8.8214993,2.5933062 8.797166,2.6094728 8.7068411,2.6704728 8.6207078,2.7288394 8.4577328,2.8392977 7.5718583,3.7398972 7.4042167,3.9655638 7.1016586,4.3728635 6.958467,4.6190884 6.7139338,5.1526381 6.6605171,5.2692464 6.4036256,6.023596 6.290009,6.3975208 6.2363424,6.5742124 6.1363174,7.0350205 6.0678091,7.4215369 5.9649008,8.0020864 5.9400425,8.2639614 5.9247425,8.9274444 c -0.037083,1.6067816 0.087933,3.4488056 0.3324832,4.8992136 0.1816832,1.077566 0.4832414,2.419307 0.654908,2.914157 0.064583,0.186241 0.1567999,0.474125 0.2048665,0.639774 0.048083,0.16565 0.115225,0.373467 0.1492583,0.461817 0.1122999,0.2915 0.2213749,0.559758 0.2985165,0.733966 0.041833,0.09446 0.076083,0.19045 0.076083,0.213342 0,0.02292 0.052167,0.153391 0.1159249,0.290041 0.06375,0.13665 0.1731666,0.374975 0.2432166,0.529575 0.070083,0.154608 0.2108415,0.4076 0.3128665,0.562208 0.1832665,0.277717 0.6780663,0.823225 0.7466829,0.823225 0.0195,0 0.1168749,0.055 0.2164749,0.122199 0.2519415,0.170042 0.607183,0.34415 0.7742832,0.379459 0.07733,0.01633 0.158625,0.04342 0.180708,0.06017 0.03758,0.02858 0.943983,0.146117 1.345274,0.174433 0.421475,0.02975 0.939008,0.024 1.231941,-0.01358 0.611158,-0.07842 1.239883,-0.221033 1.52489,-0.345966 0.06958,-0.0305 0.136867,-0.05542 0.149492,-0.05542 0.128875,0 0.941008,-0.479933 1.096799,-0.648166 0.220534,-0.23815 0.552083,-0.742875 0.708558,-1.078608 0.394859,-0.847175 0.56315,-1.302541 0.771858,-2.088191 0.07333,-0.276083 0.172225,-0.646533 0.219692,-0.823224 0.08551,-0.318325 0.109358,-0.4383 0.303141,-1.523949 0.110384,-0.618442 0.237309,-1.670016 0.27655,-2.291016 0.014,-0.220866 0.04242,-0.573249 0.06325,-0.783074 0.074,-0.747333 0.159092,-2.1561488 0.159225,-2.6365066 C 18.081918,8.5283784 17.814352,6.5387707 17.576102,5.6842795 17.423577,5.1372215 17.225877,4.769805 16.652561,3.9680138 16.422019,3.6455973 15.59772,2.868881 15.30642,2.6995311 15.265087,2.6754478 15.199495,2.6278645 15.160695,2.5937228 15.061004,2.5060812 14.261362,2.1207731 14.179188,2.1207731 c -0.0375,0 -0.07933,-0.018083 -0.09302,-0.040167 -0.01367,-0.022083 -0.0605,-0.040167 -0.104158,-0.040167 -0.04367,0 -0.120142,-0.02675 -0.169967,-0.059333 C 13.652235,1.8763982 12.769003,1.749915 12.198761,1.7500483 Z m 2.76914,3.4227232 c 0.185317,0 0.568208,0.5210247 0.796799,1.0842494 0.03133,0.077333 0.07967,0.1947665 0.107217,0.2610248 0.2147,0.5156498 0.367075,1.5291247 0.241575,1.6066907 -0.02242,0.01392 -0.03208,0.03942 -0.02133,0.05675 0.02158,0.03492 -0.106166,0.154158 -0.255299,0.2382 -0.14245,0.08025 -0.674516,0.09988 -0.8568,0.03158 -0.215662,-0.08075 -0.350403,-0.177505 -0.388478,-0.278905 -0.08527,-0.227066 -0.08662,-0.7832745 -0.0033,-1.5339074 0.124325,-1.1242744 0.212883,-1.4657409 0.379925,-1.4657409 z M 8.9412659,5.2751464 c 0.020833,7.667e-4 0.039,0.014667 0.06475,0.038 0.1090916,0.098725 0.1887832,0.3857748 0.2564749,0.9237745 C 9.479574,7.9622954 9.4449073,8.3301614 9.0475075,8.5171944 8.797891,8.6346694 8.2797913,8.6556194 8.086083,8.5561114 7.8791415,8.4498034 7.7890082,8.3007784 7.7705415,8.0345364 7.7492916,7.7282118 7.8553165,7.1041704 7.9838831,6.7790706 8.0406331,6.635504 8.101508,6.4819041 8.1190997,6.4377291 8.3086496,5.9617627 8.5229995,5.6172296 8.7663244,5.3973963 8.864116,5.3090547 8.9064576,5.2739297 8.9412326,5.2751964 Z m 6.6608871,3.79724 c 0.176417,-8.34e-4 0.331267,0.01567 0.49185,0.05025 0.295175,0.06358 0.413291,0.124225 0.465416,0.238908 0.022,0.04833 0.06708,0.1331 0.100242,0.188316 0.03933,0.06558 0.05458,0.167809 0.04392,0.2950588 -0.01367,0.1631908 -0.0425,0.2209488 -0.178591,0.3570238 -0.141317,0.141317 -0.205683,0.171909 -0.497416,0.236084 -0.391784,0.08619 -1.032925,0.09431 -1.351941,0.01708 -0.324558,-0.07858 -0.609582,-0.38535 -0.609582,-0.6561658 0,-0.3507248 0.31174,-0.5788498 0.914757,-0.6694248 0.246941,-0.03708 0.444924,-0.05608 0.621349,-0.05717 z m -6.883087,0.164941 c 0.06175,-10e-5 0.1211833,0.0017 0.1770166,0.0058 0.609583,0.04325 0.8316829,0.195941 0.9307662,0.6397738 0.0325,0.1456828 -0.046917,0.4062998 -0.1539666,0.5054168 -0.1794916,0.166183 -0.5655914,0.252974 -1.1887244,0.267141 -0.3202581,0.0075 -0.625908,0.0042 -0.6792246,-0.0075 C 7.635025,10.611459 7.4038417,10.438284 7.2952751,10.266309 7.1067336,9.9676432 7.2004081,9.6807684 7.5617167,9.4500604 7.7443166,9.3334604 8.2870163,9.2383184 8.719066,9.2375854 Z m 7.375095,1.6426156 c 0.137842,0.0033 0.168792,0.02542 0.222275,0.06867 0.116692,0.09449 0.08454,0.249666 -0.07542,0.363533 -0.239233,0.17035 -0.961732,0.302908 -1.311624,0.240633 -0.364649,-0.06492 -0.519841,-0.135025 -0.577108,-0.260708 -0.125932,-0.276392 -0.02992,-0.317033 0.878283,-0.372167 0.481008,-0.02917 0.7257,-0.04367 0.863549,-0.04 z m -6.7992453,0.14675 c 0.1672749,0.0033 0.2256249,0.02592 0.2735749,0.06933 0.1480666,0.134 -0.00333,0.372833 -0.2926332,0.46165 -0.546908,0.167908 -0.9673495,0.196225 -1.3653576,0.09185 -0.1829332,-0.048 -0.2447915,-0.08512 -0.2911415,-0.17475 -0.1542583,-0.2983 -0.05825,-0.350158 0.7481746,-0.403925 0.4838747,-0.03225 0.7601079,-0.04767 0.9273828,-0.04417 z m 6.3231543,1.003149 c 0.233266,-0.0017 0.273825,0.0135 0.35475,0.08949 0.06775,0.06367 0.101099,0.137967 0.101099,0.225333 0,0.122567 -0.147308,1.039091 -0.238199,1.481991 -0.141975,0.691858 -0.507583,1.791974 -0.787383,2.36929 -0.130367,0.268992 -0.300933,0.379942 -0.357492,0.23255 -0.05492,-0.143175 -0.149899,-2.575732 -0.127299,-3.261223 0.02183,-0.660858 0.02858,-0.707483 0.122983,-0.843308 0.112725,-0.162241 0.246458,-0.259083 0.306516,-0.221966 0.02217,0.01367 0.06425,0.005 0.09341,-0.01917 0.02917,-0.02425 0.217784,-0.04733 0.41915,-0.05133 0.04183,-8.25e-4 0.07917,-0.0017 0.112467,-0.0017 z m -7.1929705,0.09467 c 0.2355666,8.33e-4 0.5479831,0.0515 0.7015747,0.127217 0.2913331,0.143674 0.2991415,0.178358 0.3152248,1.394224 0.012583,0.952866 -0.043667,2.570873 -0.099533,2.861215 -0.02275,0.118275 -0.1330666,0.150408 -0.2067499,0.06025 C 9.0234242,16.430115 8.6837827,15.684757 8.6186744,15.432966 8.6072578,15.388799 8.5830911,15.316507 8.5648411,15.272332 8.3775579,14.817499 8.218108,14.180866 8.0434997,13.1905 7.9083081,12.423684 7.9292998,12.256859 8.1736163,12.155659 c 0.053167,-0.022 0.1443833,-0.03167 0.2514582,-0.03117 z m 4.6065055,5.459147 c 0.648834,0.005 0.7421,0.05492 0.924008,0.230275 0.208025,0.2005 0.206075,0.351583 -0.0075,0.583225 -0.125491,0.13615 -0.210208,0.1858 -0.411616,0.241341 -0.139475,0.0385 -0.307783,0.09046 -0.374042,0.115608 -0.07283,0.02767 -0.461774,0.04992 -0.983858,0.05625 -0.701182,0.0085 -0.919966,-0.0025 -1.164566,-0.05858 -0.689241,-0.15815 -0.924782,-0.386575 -0.759699,-0.736791 0.03917,-0.083 0.282616,-0.272567 0.350908,-0.273183 0.015,-1.17e-4 0.0815,-0.03008 0.147767,-0.0665 0.102775,-0.05658 0.311483,-0.06908 1.420649,-0.08494 0.3636,-0.005 0.641616,-0.0084 0.857899,-0.0067 z m -0.725191,1.689429 c 0.365117,-0.0017 0.711758,0.0075 0.792091,0.03 0.163584,0.04575 0.196492,0.146525 0.0862,0.263925 -0.237708,0.253025 -1.014557,0.369858 -1.621124,0.24385 -0.359075,-0.07458 -0.566149,-0.177441 -0.582049,-0.289108 -0.01625,-0.114092 0.0645,-0.154208 0.421733,-0.209258 0.154383,-0.02375 0.538033,-0.03733 0.903149,-0.03933 z"
     id="rect819"
     inkscape:connector-curvature="0" />
</svg>
