<svg xmlns="http://www.w3.org/2000/svg" viewBox="0 0 16 16"><path fill="#204a82" d="M0 0h16v16H0z"/><path d="M10.371 2.734c-.133 0-.203.274-.303 1.172-.066.6-.066 1.043.002 1.225.03.08.139.158.31.223.146.054.57.038.684-.026.12-.067.223-.162.206-.19-.01-.013 0-.033.017-.044.1-.062-.022-.873-.193-1.285l-.086-.207c-.183-.45-.489-.868-.637-.868zm-4.814.082c-.028 0-.063.027-.141.098-.194.176-.366.452-.518.832l-.107.272c-.103.26-.187.759-.17 1.003.015.213.087.332.252.417.155.079.568.062.768-.032.317-.15.345-.444.171-1.822-.054-.43-.117-.66-.205-.738-.02-.019-.034-.029-.05-.03zm5.32 3.034c-.141 0-.299.017-.496.046-.482.073-.73.253-.73.534 0 .216.226.462.486.525.255.062.767.055 1.08-.014.233-.05.285-.076.398-.189.109-.109.132-.155.143-.285a.402.402 0 00-.035-.235 1.821 1.821 0 01-.08-.15c-.042-.092-.136-.14-.372-.191a1.781 1.781 0 00-.394-.041zm-5.498.132c-.345.001-.78.077-.926.17-.289.185-.361.414-.21.653.086.137.27.275.405.304.043.01.288.012.543.006.498-.011.806-.08.95-.213a.529.529 0 00.123-.404c-.08-.355-.257-.477-.744-.512a2.054 2.054 0 00-.141-.004zm5.892 1.313a10.55 10.55 0 00-.69.031c-.727.044-.803.076-.702.297.046.1.17.157.46.209.28.05.859-.057 1.05-.193.127-.091.153-.214.06-.29-.043-.034-.067-.051-.178-.054zm-5.433.117c-.134-.003-.354.01-.74.035-.645.043-.721.084-.598.323.037.071.086.1.232.138.318.084.655.062 1.092-.072.231-.071.35-.262.233-.37-.039-.034-.085-.05-.22-.054zm5.053.8l-.09.003c-.161.003-.31.021-.334.04-.024.02-.059.027-.076.016-.048-.03-.154.047-.245.176-.075.109-.08.146-.097.674-.018.548.058 2.491.101 2.606.046.117.181.029.286-.186.223-.461.515-1.34.628-1.893.073-.353.19-1.085.19-1.183a.236.236 0 00-.08-.18c-.065-.06-.097-.074-.283-.072zm-5.746.077a.586.586 0 00-.202.024c-.195.08-.211.215-.103.828.14.79.266 1.298.416 1.662.014.035.034.093.043.129.052.2.322.796.412.906.059.072.148.048.166-.047.045-.232.09-1.526.08-2.287-.013-.971-.02-.999-.252-1.113-.123-.06-.372-.101-.56-.102zm3.68 4.361c-.174-.002-.396.002-.686.006-.886.013-1.053.021-1.135.067a.57.57 0 01-.12.054c-.054 0-.247.15-.279.217-.131.28.057.464.608.59.195.045.37.054.93.047.417-.005.728-.023.787-.045.053-.02.187-.063.299-.094a.573.573 0 00.328-.191c.17-.185.172-.307.005-.467-.145-.14-.22-.18-.738-.184zM8.244 14a6.821 6.821 0 00-.722.031c-.285.044-.35.077-.337.168.012.09.178.171.464.23.485.101 1.107.008 1.297-.195.088-.093.06-.174-.07-.21-.064-.019-.341-.026-.633-.024z" fill="#fff"/></svg>
