<?xml version="1.0" encoding="UTF-8" standalone="no"?>
<svg
   viewBox="0 0 16 16"
   version="1.1"
   id="svg6"
   sodipodi:docname="icon-maskable.svg"
   xml:space="preserve"
   inkscape:version="1.2.2 (b0a8486541, 2022-12-01)"
   xmlns:inkscape="http://www.inkscape.org/namespaces/inkscape"
   xmlns:sodipodi="http://sodipodi.sourceforge.net/DTD/sodipodi-0.dtd"
   xmlns="http://www.w3.org/2000/svg"
   xmlns:svg="http://www.w3.org/2000/svg"><defs
     id="defs10" /><sodipodi:namedview
     id="namedview8"
     pagecolor="#ffffff"
     bordercolor="#666666"
     borderopacity="1.0"
     inkscape:showpageshadow="2"
     inkscape:pageopacity="0.0"
     inkscape:pagecheckerboard="0"
     inkscape:deskcolor="#d1d1d1"
     showgrid="false"
     inkscape:zoom="52.4375"
     inkscape:cx="10.174017"
     inkscape:cy="9.8593564"
     inkscape:window-width="1920"
     inkscape:window-height="1043"
     inkscape:window-x="1920"
     inkscape:window-y="304"
     inkscape:window-maximized="1"
     inkscape:current-layer="svg6" /><path
     fill="#204a82"
     d="M0 0h16v16H0z"
     id="path2" /><path
     d="m 10.112508,3.3070613 c -0.1187144,0 -0.1811959,0.2445702 -0.2704551,1.046118 -0.058911,0.5355553 -0.058911,0.9309737 0.00179,1.0934255 0.026778,0.071407 0.1240703,0.1410295 0.2767041,0.199048 0.130318,0.0482 0.508777,0.033919 0.610533,-0.023207 0.107111,-0.059804 0.199048,-0.1445999 0.183874,-0.1695925 -0.0089,-0.011604 0,-0.029456 0.01517,-0.039274 0.08926,-0.055341 -0.01964,-0.779233 -0.17227,-1.146981 l -0.07676,-0.184767 c -0.163345,-0.4016665 -0.436478,-0.77477 -0.568582,-0.77477 z m -4.2969385,0.073193 c -0.024993,0 -0.056233,0.0241 -0.1258555,0.087474 C 5.5165511,3.6248241 5.3630252,3.8711795 5.2273512,4.2103646 L 5.1318438,4.4531497 C 5.0399068,4.6852236 4.9649291,5.1306271 4.9801031,5.3484196 4.993492,5.5385418 5.0577587,5.6447602 5.2050364,5.7206306 5.3433882,5.7911454 5.7120288,5.7759713 5.8905472,5.6920676 6.1734989,5.5581788 6.1984915,5.2957567 6.0431805,4.0657646 5.9949805,3.68195 5.9387472,3.4766538 5.8601991,3.4070316 5.8423472,3.3900723 5.8298509,3.3811464 5.8155695,3.3802543 Z M 10.56416,6.0883786 c -0.125856,0 -0.266885,0.015174 -0.442726,0.041059 -0.4302292,0.065159 -0.6515921,0.2258258 -0.6515921,0.4766443 0,0.1927999 0.2017259,0.4123776 0.4337999,0.4686109 0.2276112,0.055341 0.6846182,0.049092 0.9639992,-0.012496 0.207974,-0.04463 0.254389,-0.067837 0.355252,-0.1687 0.09729,-0.097293 0.117822,-0.1383517 0.127641,-0.2543887 A 0.35882207,0.35882207 0 0 0 11.319293,6.4293488 1.6254104,1.6254104 0 0 1 11.247886,6.29546 C 11.210397,6.2133415 11.126493,6.1704971 10.915841,6.1249749 A 1.5897067,1.5897067 0 0 0 10.56416,6.0883786 Z M 5.656688,6.2062007 C 5.3487437,6.2070933 4.9604661,6.2749303 4.8301477,6.3579414 4.5721885,6.523071 4.5079219,6.7274746 4.6427033,6.9408041 c 0.076763,0.1222852 0.2409999,0.2454629 0.3614998,0.2713481 0.038381,0.00893 0.2570666,0.010711 0.4846776,0.00536 C 5.9333916,7.2076892 6.20831,7.1461003 6.3368433,7.0273856 A 0.47218128,0.47218128 0 0 0 6.4466321,6.6667783 C 6.3752248,6.3499081 6.2172359,6.2410118 5.7825435,6.2097711 A 1.8333844,1.8333844 0 0 0 5.656688,6.2062007 Z m 5.259153,1.1719736 a 9.4168478,9.4168478 0 0 0 -0.615888,0.02767 c -0.6489148,0.039274 -0.7167518,0.067837 -0.6266,0.2650999 0.041059,0.089259 0.1517406,0.1401369 0.410592,0.1865517 0.249926,0.04463 0.766737,-0.050878 0.937222,-0.1722703 0.113359,-0.081226 0.136567,-0.1910147 0.05356,-0.2588517 -0.03838,-0.030348 -0.0598,-0.045522 -0.158882,-0.0482 z M 6.0663879,7.4826076 c -0.1196074,-0.00268 -0.3159777,0.00893 -0.6605183,0.031241 -0.5757219,0.038382 -0.643559,0.074978 -0.5337701,0.2883073 0.033026,0.063374 0.076763,0.089259 0.2070814,0.1231777 0.2838443,0.074978 0.5846479,0.055341 0.9747107,-0.064267 0.2061888,-0.063374 0.3124072,-0.2338592 0.207974,-0.3302591 -0.034811,-0.030348 -0.07587,-0.04463 -0.1963703,-0.0482 z m 4.5102681,0.7140738 -0.08033,0.00268 c -0.143707,0.00268 -0.276704,0.018745 -0.298126,0.035704 -0.02142,0.017852 -0.05266,0.0241 -0.06784,0.014281 -0.04284,-0.026778 -0.137459,0.041952 -0.2186849,0.1570962 -0.066944,0.097293 -0.071407,0.1303185 -0.086581,0.6016072 -0.016067,0.4891405 0.05177,2.2234482 0.090152,2.3260962 0.041059,0.104433 0.1615599,0.02589 0.2552819,-0.166022 0.199048,-0.411485 0.459685,-1.1960746 0.560548,-1.6896781 0.06516,-0.3150851 0.169592,-0.9684626 0.169592,-1.0559366 A 0.21065176,0.21065176 0 0 0 10.82926,8.2618406 c -0.05802,-0.053555 -0.08658,-0.066052 -0.252604,-0.064267 z m -5.1288345,0.06873 a 0.52305903,0.52305903 0 0 0 -0.1803037,0.021422 c -0.1740554,0.071407 -0.1883369,0.1919073 -0.091937,0.7390663 0.1249629,0.7051479 0.2374296,1.1585853 0.3713184,1.4834893 0.012496,0.03124 0.030348,0.08301 0.038381,0.115144 0.046415,0.178519 0.2874147,0.710503 0.367748,0.808689 0.052663,0.06427 0.1321036,0.04284 0.1481703,-0.04195 0.040167,-0.207082 0.080333,-1.362096 0.071407,-2.0413593 C 6.1610026,8.4832035 6.1547545,8.4582109 5.9476731,8.3564554 5.8378843,8.3028998 5.6156288,8.2663036 5.4478215,8.2654114 Z m 3.2847393,3.8925946 c -0.1553111,-0.0018 -0.3534665,0.0018 -0.6123183,0.0054 -0.7908367,0.0116 -0.9398996,0.01874 -1.0130921,0.0598 a 0.50877756,0.50877756 0 0 1 -0.1071111,0.0482 c -0.0482,0 -0.2204703,0.133889 -0.2490332,0.193692 -0.1169296,0.249926 0.050878,0.414163 0.542696,0.52663 0.1740555,0.04017 0.3302592,0.0482 0.8301108,0.04195 0.3722109,-0.0045 0.6498071,-0.02053 0.7024701,-0.04017 0.047307,-0.01785 0.1669147,-0.05623 0.266885,-0.0839 A 0.51145533,0.51145533 0 0 0 9.3859383,12.739084 C 9.537679,12.573954 9.5394641,12.465058 9.3904012,12.322243 9.2609754,12.197281 9.194031,12.161577 8.7316682,12.158006 Z m -0.5185961,1.205 a 6.0883714,6.0883714 0 0 0 -0.6444516,0.02767 c -0.2543887,0.03927 -0.3124072,0.06873 -0.3008035,0.149956 0.010711,0.08033 0.1588814,0.152633 0.4141627,0.205296 0.4329073,0.09015 0.9880996,0.0071 1.1576921,-0.174055 0.078548,-0.08301 0.053556,-0.155312 -0.062481,-0.187445 -0.057126,-0.01696 -0.304374,-0.02321 -0.5650109,-0.02142 z"
     fill="#ffffff"
     id="path4"
     style="stroke-width:0.892592" /></svg>
