<?xml version="1.0" encoding="UTF-8" standalone="no"?>
<!-- Created with Inkscape (http://www.inkscape.org/) -->

<svg
   xmlns:dc="http://purl.org/dc/elements/1.1/"
   xmlns:cc="http://creativecommons.org/ns#"
   xmlns:rdf="http://www.w3.org/1999/02/22-rdf-syntax-ns#"
   xmlns:svg="http://www.w3.org/2000/svg"
   xmlns="http://www.w3.org/2000/svg"
   xmlns:sodipodi="http://sodipodi.sourceforge.net/DTD/sodipodi-0.dtd"
   xmlns:inkscape="http://www.inkscape.org/namespaces/inkscape"
   version="1.1"
   id="svg2"
   width="16"
   height="24"
   viewBox="0 0 16 24"
   sodipodi:docname="noface.svg"
   inkscape:version="0.92.5 (2060ec1f9f, 2020-04-08)">
  <metadata
     id="metadata8">
    <rdf:RDF>
      <cc:Work
         rdf:about="">
        <dc:format>image/svg+xml</dc:format>
        <dc:type
           rdf:resource="http://purl.org/dc/dcmitype/StillImage" />
        <dc:title />
      </cc:Work>
    </rdf:RDF>
  </metadata>
  <defs
     id="defs6" />
  <sodipodi:namedview
     pagecolor="#ffffff"
     bordercolor="#666666"
     borderopacity="1"
     objecttolerance="10"
     gridtolerance="10"
     guidetolerance="10"
     inkscape:pageopacity="0"
     inkscape:pageshadow="2"
     inkscape:window-width="1848"
     inkscape:window-height="1016"
     id="namedview4"
     showgrid="false"
     inkscape:zoom="81.5"
     inkscape:cx="8"
     inkscape:cy="11.881481"
     inkscape:window-x="72"
     inkscape:window-y="1214"
     inkscape:window-maximized="1"
     inkscape:current-layer="svg2" />
  <path
     style="opacity:1;fill:#000000;fill-opacity:1;stroke:none;stroke-width:0.96378016;stroke-linejoin:round;stroke-miterlimit:4;stroke-dasharray:none;stroke-opacity:1"
     d="M 11.560547 4.1074219 C 11.361109 4.1095586 11.254269 4.5196252 11.105469 5.8652344 C 11.005529 6.7659944 11.007055 7.4345513 11.109375 7.7070312 C 11.155065 7.8287112 11.317382 7.9441156 11.576172 8.0410156 C 11.794912 8.1229756 12.432576 8.1002062 12.603516 8.0039062 C 12.782476 7.9030562 12.936056 7.7586969 12.910156 7.7167969 C 12.897256 7.6959969 12.908647 7.6670906 12.935547 7.6503906 C 13.086147 7.5573106 12.904124 6.3394831 12.646484 5.7207031 C 12.613424 5.6411931 12.555178 5.5010031 12.517578 5.4082031 C 12.243781 4.7335959 11.785347 4.1097518 11.5625 4.1074219 L 11.560547 4.1074219 z M 4.3300781 4.2304688 C 4.2883481 4.2289488 4.2364906 4.2709431 4.1191406 4.3769531 C 3.8271506 4.6407531 3.57121 5.05384 3.34375 5.625 C 3.32264 5.67801 3.2477875 5.8628763 3.1796875 6.0351562 C 3.0254075 6.4252763 2.8983281 7.1734256 2.9238281 7.5410156 C 2.9459881 7.8605056 3.0544044 8.0403987 3.3027344 8.1679688 C 3.5351844 8.2873788 4.1574912 8.2620637 4.4570312 8.1210938 C 4.9339112 7.8966537 4.9753438 7.4552156 4.7148438 5.3847656 C 4.6336138 4.7391656 4.53716 4.3938606 4.40625 4.2753906 C 4.37535 4.2473906 4.3550781 4.2313887 4.3300781 4.2304688 z M 12.322266 8.7871094 C 12.110556 8.7884094 11.872502 8.8109688 11.576172 8.8554688 C 10.852552 8.9641587 10.478516 9.2373331 10.478516 9.6582031 C 10.478516 9.9831831 10.821468 10.351012 11.210938 10.445312 C 11.593758 10.537983 12.363844 10.529211 12.833984 10.425781 C 13.184064 10.348771 13.260108 10.312158 13.429688 10.142578 C 13.592998 9.9792882 13.628131 9.9106738 13.644531 9.7148438 C 13.657331 9.5621438 13.638997 9.438075 13.591797 9.359375 C 13.552007 9.293115 13.497103 9.1927656 13.470703 9.1347656 C 13.408153 8.9971456 13.266319 8.9239562 12.912109 8.8476562 C 12.719409 8.8061563 12.533966 8.7861094 12.322266 8.7871094 z M 4.0625 8.984375 C 3.54404 8.985255 2.8929481 9.1003144 2.6738281 9.2402344 C 2.2402581 9.5170844 2.1272656 9.8603501 2.3535156 10.21875 C 2.4837956 10.42512 2.7629069 10.633934 2.9667969 10.677734 C 3.0307769 10.691734 3.39694 10.6965 3.78125 10.6875 C 4.52901 10.6705 4.9916412 10.564654 5.2070312 10.365234 C 5.3354913 10.246294 5.4315781 9.9345856 5.3925781 9.7597656 C 5.2736781 9.2271656 5.0068906 9.0440875 4.2753906 8.9921875 C 4.2083906 8.9871875 4.1366 8.984255 4.0625 8.984375 z M 12.912109 10.955078 C 12.746689 10.950678 12.454163 10.968906 11.876953 11.003906 C 10.787113 11.070066 10.671147 11.119502 10.822266 11.451172 C 10.890986 11.601992 11.078045 11.685772 11.515625 11.763672 C 11.935495 11.838402 12.802764 11.679029 13.089844 11.474609 C 13.281794 11.337969 13.319717 11.152453 13.179688 11.039062 C 13.115507 10.987163 13.077519 10.959078 12.912109 10.955078 z M 4.7539062 11.132812 C 4.5531763 11.128613 4.221275 11.146847 3.640625 11.185547 C 2.672915 11.250067 2.5590306 11.311962 2.7441406 11.669922 C 2.7997606 11.777482 2.8722769 11.821306 3.0917969 11.878906 C 3.5694069 12.004156 4.0741787 11.971021 4.7304688 11.769531 C 5.0776288 11.662951 5.2597112 11.375644 5.0820312 11.214844 C 5.0244913 11.162744 4.9546363 11.136812 4.7539062 11.132812 z M 12.341797 12.335938 C 12.301837 12.335938 12.257231 12.336901 12.207031 12.337891 C 11.965391 12.342691 11.738125 12.369338 11.703125 12.398438 C 11.668135 12.427437 11.618397 12.438275 11.591797 12.421875 C 11.519727 12.377335 11.359879 12.494763 11.224609 12.689453 C 11.111329 12.852443 11.102372 12.908142 11.076172 13.701172 C 11.049052 14.523762 11.162616 17.441471 11.228516 17.613281 C 11.296386 17.790151 11.501763 17.658728 11.658203 17.335938 C 11.993963 16.643157 12.433146 15.322418 12.603516 14.492188 C 12.712586 13.960707 12.888672 12.859971 12.888672 12.712891 C 12.888672 12.608051 12.848878 12.519759 12.767578 12.443359 C 12.670468 12.352169 12.621717 12.333937 12.341797 12.335938 z M 3.7109375 12.449219 C 3.5824475 12.448619 3.4720031 12.459928 3.4082031 12.486328 C 3.1150231 12.607768 3.0897231 12.808336 3.2519531 13.728516 C 3.4614831 14.916956 3.6522131 15.680763 3.8769531 16.226562 C 3.8988531 16.279573 3.9296594 16.366922 3.9433594 16.419922 C 4.0214894 16.722072 4.42787 17.61649 4.5625 17.78125 C 4.65092 17.88944 4.7832469 17.850914 4.8105469 17.708984 C 4.8775869 17.360574 4.9447875 15.418831 4.9296875 14.275391 C 4.9103875 12.816351 4.9023344 12.773972 4.5527344 12.601562 C 4.3684244 12.510702 3.9936175 12.450219 3.7109375 12.449219 z M 9.2382812 19 C 8.9787413 18.9979 8.6453044 19.001812 8.2089844 19.007812 C 6.8779844 19.026842 6.6272363 19.043428 6.5039062 19.111328 C 6.4243863 19.155028 6.3441719 19.189313 6.3261719 19.189453 C 6.2442219 19.190193 5.9512969 19.417978 5.9042969 19.517578 C 5.7061969 19.937838 5.9893162 20.212564 6.8164062 20.402344 C 7.1099262 20.469644 7.3734238 20.482856 8.2148438 20.472656 C 8.8413438 20.465056 9.3071312 20.437497 9.3945312 20.404297 C 9.4740413 20.374117 9.67638 20.311825 9.84375 20.265625 C 10.08544 20.198975 10.187301 20.139943 10.337891 19.976562 C 10.594181 19.698592 10.597286 19.517944 10.347656 19.277344 C 10.129366 19.066914 10.016881 19.006 9.2382812 19 z M 8.3671875 21.027344 C 7.9290475 21.029744 7.4684631 21.045719 7.2832031 21.074219 C 6.8545231 21.140279 6.7578438 21.189262 6.7773438 21.326172 C 6.7964237 21.460172 7.0456725 21.584328 7.4765625 21.673828 C 8.2044425 21.825038 9.136625 21.684489 9.421875 21.380859 C 9.554225 21.239979 9.5146594 21.119353 9.3183594 21.064453 C 9.2219594 21.037453 8.8053275 21.025344 8.3671875 21.027344 z "
     id="path830" />
</svg>
