<?xml version="1.0" encoding="UTF-8" standalone="no"?>
<!-- Created with Inkscape (http://www.inkscape.org/) -->

<svg
   xmlns:dc="http://purl.org/dc/elements/1.1/"
   xmlns:cc="http://creativecommons.org/ns#"
   xmlns:rdf="http://www.w3.org/1999/02/22-rdf-syntax-ns#"
   xmlns:svg="http://www.w3.org/2000/svg"
   xmlns="http://www.w3.org/2000/svg"
   xmlns:sodipodi="http://sodipodi.sourceforge.net/DTD/sodipodi-0.dtd"
   xmlns:inkscape="http://www.inkscape.org/namespaces/inkscape"
   version="1.1"
   id="svg2"
   width="16"
   height="24"
   viewBox="0 0 16 24"
   sodipodi:docname="noface.svg"
   inkscape:version="0.92.3 (2405546, 2018-03-11)">
  <metadata
     id="metadata8">
    <rdf:RDF>
      <cc:Work
         rdf:about="">
        <dc:format>image/svg+xml</dc:format>
        <dc:type
           rdf:resource="http://purl.org/dc/dcmitype/StillImage" />
        <dc:title></dc:title>
      </cc:Work>
    </rdf:RDF>
  </metadata>
  <defs
     id="defs6" />
  <sodipodi:namedview
     pagecolor="#ffffff"
     bordercolor="#666666"
     borderopacity="1"
     objecttolerance="10"
     gridtolerance="10"
     guidetolerance="10"
     inkscape:pageopacity="0"
     inkscape:pageshadow="2"
     inkscape:window-width="1855"
     inkscape:window-height="1020"
     id="namedview4"
     showgrid="false"
     inkscape:zoom="33.75"
     inkscape:cx="8"
     inkscape:cy="12"
     inkscape:window-x="65"
     inkscape:window-y="770"
     inkscape:window-maximized="1"
     inkscape:current-layer="svg2" />
  <path
     style="opacity:1;fill:#000000;fill-opacity:1;stroke:none;stroke-width:0.96378016;stroke-linejoin:round;stroke-miterlimit:4;stroke-dasharray:none;stroke-opacity:1"
     d="M 8.2384668,-1.2886988e-5 C 7.2770668,2.0711301e-4 5.9400268,0.22558711 5.3619068,0.48488711 c -0.11415,0.0512 -0.2547,0.10744 -0.31229,0.12499 -0.11142,0.0339 -0.77471,0.34271 -0.86382,0.40207999 -0.0292,0.0194 -0.13759,0.0926 -0.24095,0.16264 -0.19557,0.13255 -1.25862,1.21327 -1.45979,1.48407 -0.36307,0.48876 -0.5349,0.78423 -0.82834,1.42449 -0.0641,0.13993 -0.37237,1.04515 -0.50871,1.49386 -0.0644,0.21203 -0.18443003,0.765 -0.26664003,1.22882 -0.12349,0.69666 -0.15332,1.01091 -0.17168,1.80709 -0.0445,1.9281399 0.10552,4.1385699 0.39898003,5.8790599 0.21802,1.29308 0.57989,2.90317 0.78589,3.49699 0.0775,0.22349 0.18816,0.56895 0.24584,0.76773 0.0577,0.19878 0.13827,0.44816 0.17911,0.55418 0.13476,0.3498 0.26565,0.67171 0.35822,0.88076 0.0502,0.11335 0.0913,0.22854 0.0913,0.25601 0,0.0275 0.0626,0.18407 0.13911,0.34805 0.0765,0.16398 0.2078,0.44997 0.29186,0.63549 0.0841,0.18553 0.25301,0.48912 0.37544,0.67465 0.21992,0.33326 0.81368,0.98787 0.89602,0.98787 0.0234,0 0.14025,0.066 0.25977,0.14664 0.30233,0.20405 0.72862,0.41298 0.92914,0.45535 0.0928,0.0196 0.19035,0.0521 0.21685,0.0722 0.0451,0.0343 1.13278,0.17534 1.61433,0.20932 0.50577,0.0357 1.12681,0.0288 1.47833,-0.0163 0.73339,-0.0941 1.4878602,-0.26524 1.8298692,-0.41516 0.0835,-0.0366 0.16424,-0.0665 0.17939,-0.0665 0.15465,0 1.12921,-0.57592 1.31616,-0.7778 0.26464,-0.28578 0.6625,-0.89145 0.85027,-1.29433 0.47383,-1.01661 0.67578,-1.56305 0.92623,-2.50583 0.088,-0.3313 0.20667,-0.77584 0.26363,-0.98787 0.10261,-0.38199 0.13123,-0.52596 0.36377,-1.82874 0.13246,-0.74213 0.28477,-2.00402 0.33186,-2.74922 0.0168,-0.26504 0.0509,-0.6879 0.0759,-0.93969 0.0888,-0.8968 0.19091,-2.5873799 0.19107,-3.1638099 2.8e-4,-1.09793 -0.3208,-3.48546 -0.6067,-4.51085 -0.18303,-0.65647 -0.42027,-1.09737 -1.10825,-2.05952 -0.27665,-0.3869 -1.26581,-1.31896 -1.61537,-1.52218 -0.0496,-0.0289 -0.12831,-0.086 -0.17487,-0.12697 -0.11963,-0.10516999 -1.0792,-0.56753999 -1.177809,-0.56753999 -0.045,0 -0.0952,-0.0217 -0.11162,-0.0482 -0.0164,-0.0265 -0.0726,-0.0482 -0.12499,-0.0482 -0.0524,0 -0.14417,-0.0321 -0.20396,-0.0712 C 9.9826868,0.15166711 8.9228068,-1.1288699e-4 8.2385168,4.7113012e-5 Z M 11.561436,4.1072571 c 0.22238,0 0.68185,0.62523 0.95616,1.3011 0.0376,0.0928 0.0956,0.23372 0.12866,0.31323 0.25764,0.61878 0.44049,1.83495 0.28989,1.92803 -0.0269,0.0167 -0.0385,0.0473 -0.0256,0.0681 0.0259,0.0419 -0.1274,0.18499 -0.30636,0.28584 -0.17094,0.0963 -0.80942,0.11986 -1.02816,0.0379 -0.25879,-0.0969 -0.42048,-0.21301 -0.46617,-0.33469 -0.10232,-0.27248 -0.10394,-0.93993 -0.004,-1.84069 0.14919,-1.34913 0.25546,-1.75889 0.45591,-1.75889 z m -7.2319192,0.12291 c 0.025,9.2e-4 0.0468,0.0176 0.0777,0.0456 0.13091,0.11847 0.22654,0.46293 0.30777,1.10853 0.2605,2.07045 0.2189,2.51189 -0.25798,2.73633 -0.29954,0.14097 -0.92126,0.16611 -1.15371,0.0467 -0.24833,-0.12757 -0.35649,-0.3064 -0.37865,-0.62589 -0.0255,-0.36759 0.10173,-1.11644 0.25601,-1.50656 0.0681,-0.17228 0.14115,-0.3566 0.16226,-0.40961 0.22746,-0.57116 0.48468,-0.9846 0.77667,-1.2484 0.11735,-0.10601 0.16816,-0.14816 0.20989,-0.14664 z m 7.9930692,4.55669 c 0.2117,-0.001 0.39752,0.0188 0.59022,0.0603 0.35421,0.0763 0.49595,0.14907 0.5585,0.28669 0.0264,0.058 0.0805,0.15972 0.12029,0.22598 0.0472,0.0787 0.0655,0.20137 0.0527,0.35407 -0.0164,0.19583 -0.051,0.26514 -0.21431,0.4284299 -0.16958,0.16958 -0.24682,0.20629 -0.5969,0.2833 -0.47014,0.10343 -1.23951,0.11317 -1.62233,0.0205 -0.38947,-0.0943 -0.731499,-0.4624199 -0.731499,-0.7873999 0,-0.42087 0.374089,-0.69462 1.097709,-0.80331 0.29633,-0.0445 0.53391,-0.0673 0.74562,-0.0686 z m -8.2597092,0.19793 c 0.0741,-1.2e-4 0.14542,0.002 0.21242,0.007 0.7315,0.0519 0.99802,0.23513 1.11692,0.76773 0.039,0.17482 -0.0563,0.4875599 -0.18476,0.6064999 -0.21539,0.19942 -0.67871,0.30357 -1.42647,0.32057 -0.38431,0.009 -0.75109,0.005 -0.81507,-0.009 -0.20389,-0.0438 -0.48131,-0.25161 -0.61159,-0.45798 -0.22625,-0.3583999 -0.11384,-0.7026499 0.31973,-0.9794999 0.21912,-0.13992 0.87036,-0.25409 1.38882,-0.25497 z m 8.8501192,1.9711399 c 0.16541,0.004 0.20255,0.0305 0.26673,0.0824 0.14003,0.11339 0.10145,0.2996 -0.0905,0.43624 -0.28708,0.20442 -1.15408,0.36349 -1.57395,0.28876 -0.43758,-0.0779 -0.62381,-0.16203 -0.69253,-0.31285 -0.151119,-0.33167 -0.0359,-0.38044 1.05394,-0.4466 0.57721,-0.035 0.87084,-0.0524 1.03626,-0.048 z m -8.1590992,0.1761 c 0.20073,0.004 0.27075,0.0311 0.32829,0.0832 0.17768,0.1608 -0.004,0.4474 -0.35116,0.55398 -0.65629,0.20149 -1.16082,0.23547 -1.63843,0.11022 -0.21952,-0.0576 -0.29375,-0.10214 -0.34937,-0.2097 -0.18511,-0.35796 -0.0699,-0.42019 0.89781,-0.48471 0.58065,-0.0387 0.91213,-0.0572 1.11286,-0.053 z m 7.5877892,1.20378 c 0.27992,-0.002 0.32859,0.0162 0.4257,0.10739 0.0813,0.0764 0.12132,0.16556 0.12132,0.2704 0,0.14708 -0.17677,1.24691 -0.28584,1.77839 -0.17037,0.83023 -0.6091,2.15037 -0.94486,2.84315 -0.15644,0.32279 -0.36112,0.45593 -0.42899,0.27906 -0.0659,-0.17181 -0.17988,-3.09088 -0.15276,-3.91347 0.0262,-0.79303 0.0343,-0.84898 0.14758,-1.01197 0.13527,-0.19469 0.29575,-0.3109 0.36782,-0.26636 0.0266,0.0164 0.0771,0.006 0.11209,-0.023 0.035,-0.0291 0.26134,-0.0568 0.50298,-0.0616 0.0502,-9.9e-4 0.095,-0.002 0.13496,-0.002 z m -8.6315692,0.1136 c 0.28268,10e-4 0.65758,0.0618 0.84189,0.15266 0.3496,0.17241 0.35897,0.21403 0.37827,1.67307 0.0151,1.14344 -0.0524,3.08505 -0.11944,3.43346 -0.0273,0.14193 -0.15968,0.18049 -0.2481,0.0723 -0.13463,-0.16476 -0.5422,-1.05919 -0.62033,-1.36134 -0.0137,-0.053 -0.0427,-0.13975 -0.0646,-0.19276 -0.22474,-0.5458 -0.41608,-1.30976 -0.62561,-2.4982 -0.16223,-0.92018 -0.13704,-1.12037 0.15614,-1.24181 0.0638,-0.0264 0.17326,-0.038 0.30175,-0.0374 z m 5.52781,6.55098 c 0.7786002,0.006 0.8905202,0.0659 1.1088102,0.27633 0.24963,0.2406 0.24729,0.4219 -0.009,0.69987 -0.15059,0.16338 -0.25225,0.22296 -0.4939402,0.28961 -0.16737,0.0462 -0.36934,0.10855 -0.44885,0.13873 -0.0874,0.0332 -0.55413,0.0599 -1.18063,0.0675 -0.84142,0.0102 -1.10396,-0.003 -1.39748,-0.0703 -0.82709,-0.18978 -1.10974,-0.46389 -0.91164,-0.88415 0.047,-0.0996 0.33914,-0.32708 0.42109,-0.32782 0.018,-1.4e-4 0.0978,-0.0361 0.17732,-0.0798 0.12333,-0.0679 0.37378,-0.0829 1.70478,-0.10193 0.43632,-0.006 0.76994,-0.0101 1.02948,-0.008 z m -0.87023,2.02732 c 0.43814,-0.002 0.85411,0.009 0.95051,0.036 0.1963,0.0549 0.23579,0.17583 0.10344,0.31671 -0.28525,0.30363 -1.21747,0.44383 -1.94535,0.29262 -0.43089,-0.0895 -0.67938,-0.21293 -0.69846,-0.34693 -0.0195,-0.13691 0.0774,-0.18505 0.50608,-0.25111 0.18526,-0.0285 0.64564,-0.0448 1.08378,-0.0472 z"
     id="rect819"
     inkscape:connector-curvature="0" />
</svg>
