<svg xmlns="http://www.w3.org/2000/svg" xmlns:xlink="http://www.w3.org/1999/xlink">
  <symbol class="bi bi-manga" viewBox="0 0 16 16" id="manga">
    <path
      d="M4 0a2 2 0 0 0-2 2v12c0 1.1.9 2 2 2h8a2 2 0 0 0 2-2V2a2 2 0 0 0-2-2H4zm0 1h8a1 1 0 0 1 1 1v12a1 1 0 0 1-1 1H4a1 1 0 0 1-1-1V7.2l3.5.7a.5.5 0 1 0 .2-1L3 6.2V2a1 1 0 0 1 1-1zm4.5 1c-.3 0-.5.2-.5.5v11a.5.5 0 1 0 1 0v-5l2.3.4c.3 0 .5-.1.6-.4 0-.3-.1-.5-.4-.6l-2.4-.5H9V2.5c0-.3-.2-.5-.5-.5z" />
  </symbol>
  <symbol class="bi bi-manhua" viewBox="0 0 16 16" id="manhua">
    <path
      d="M16 4a2 2 0 0 0-2-2H2a2 2 0 0 0-2 2v8a2 2 0 0 0 2 2h12a2 2 0 0 0 2-2zm-1 0v8a1 1 0 0 1-1 1H2a1 1 0 0 1-1-1V4a1 1 0 0 1 1-1h12a1 1 0 0 1 1 1z" />
    <path
      d="m4.2 4.6 1.2 3.8L2.2 6h4L3 8.4zM8 4l-.2 1.2-.6-1.1 1.2.5L7 5ZM9.6 5.5 9 6.6l-.2-1.3 1 1L8.3 6zM9.8 7.8l-1.1.8.4-1.2.4 1.2-1-.7zM8 8.8l-.1 1.3-.8-1 1.3.4-1.3.3z" />
  </symbol>
  <symbol class="bi bi-manhwa" viewBox="0 0 16 16" id="manhwa">
    <defs id="defs897">
      <path id="b1" d="M-12-2h24v4h-24z" />
      <g id="b2-6">
        <path id="rect3" d="M-12-2h11v4h-11z" />
        <path id="rect5" d="M1-2h11v4H1z" />
      </g>
    </defs>
    <path id="path1774" stroke-linecap="round" stroke-width="2"
      d="M8 5.3a2.7 2.7 0 1 0 0 5.4 2.7 2.7 0 0 0 0-5.4zM8 6a2 2 0 0 1 1.7 3A1 1 0 0 0 8 8a1 1 0 0 1-1.4.3 1 1 0 0 1-.3-1.4 2 2 0 0 1 1.7-1Z" />
    <path id="path891"
      d="M16 4a2 2 0 0 0-2-2H2a2 2 0 0 0-2 2v8a2 2 0 0 0 2 2h12a2 2 0 0 0 2-2zm-1 0v8a1 1 0 0 1-1 1H2a1 1 0 0 1-1-1V4a1 1 0 0 1 1-1h12a1 1 0 0 1 1 1z" />
    <g id="g1926" transform="matrix(.11166 0 0 .11166 8 8)">
      <g id="g24" transform="rotate(56.3)">
        <use xlink:href="#b2-6" id="use12" width="100%" height="100%" x="0" y="0" transform="translate(0 -38)" />
        <use xlink:href="#b1" id="use14" width="100%" height="100%" x="0" y="0" transform="translate(0 -44)" />
        <use xlink:href="#b2-6" id="use16" width="100%" height="100%" x="0" y="0" transform="translate(0 -50)" />
        <use xlink:href="#b1" id="use18" width="100%" height="100%" x="0" y="0" transform="translate(0 38)" />
        <use xlink:href="#b2-6" id="use20" width="100%" height="100%" x="0" y="0" transform="translate(0 44)" />
        <use xlink:href="#b1" id="use22" width="100%" height="100%" x="0" y="0" transform="translate(0 50)" />
      </g>
      <g id="g42" transform="rotate(-56.3)">
        <use xlink:href="#b1" id="use26" width="100%" height="100%" x="0" y="0" transform="translate(0 -38)" />
        <use xlink:href="#b1" id="use28" width="100%" height="100%" x="0" y="0" transform="translate(0 -44)" />
        <use xlink:href="#b1" id="use30" width="100%" height="100%" x="0" y="0" transform="translate(0 -50)" />
        <use xlink:href="#b2-6" id="use32" width="100%" height="100%" x="0" y="0" transform="translate(0 38)" />
        <use xlink:href="#b2-6" id="use34" width="100%" height="100%" x="0" y="0" transform="translate(0 44)" />
        <use xlink:href="#b2-6" id="use36" width="100%" height="100%" x="0" y="0" transform="translate(0 50)" />
      </g>
    </g>
  </symbol>
  <symbol class="bi bi-oneshot" viewBox="0 0 16 16" id="oneshot">
    <path
      d="M4 0a2 2 0 0 0-2 2v12a2 2 0 0 0 2 2h8a2 2 0 0 0 2-2V2a2 2 0 0 0-2-2H4zm0 1h8a1 1 0 0 1 1 1v12a1 1 0 0 1-1 1H4a1 1 0 0 1-1-1V2a1 1 0 0 1 1-1z" />
    <path d="M9 11.3V4.1H7.8L6.1 5.4v1.1l1.7-1.2v6H9Z" />
  </symbol>
</svg>