<svg xmlns="http://www.w3.org/2000/svg" xmlns:xlink="http://www.w3.org/1999/xlink">
  <symbol class="bi bi-manhua" viewBox="0 0 16 16" id="file-manhua">
    <path
      d="M4 0a2 2 0 0 0-2 2v12a2 2 0 0 0 2 2h8a2 2 0 0 0 2-2V2a2 2 0 0 0-2-2H4zm0 1h8a1 1 0 0 1 1 1v12a1 1 0 0 1-1 1H4a1 1 0 0 1-1-1V2a1 1 0 0 1 1-1z" />
    <path
      d="m5.5 2.4 1.2 3.8-3.2-2.3h4L4.3 6.2ZM9.3 1.8 9.2 3l-.7-1.2 1.2.6-1.3.3ZM10.9 3.3l-.6 1.2-.2-1.3 1 1-1.4-.3ZM11 5.7l-1 .8.4-1.3.4 1.3-1-.8ZM9.2 6.6V8l-.7-1.1 1.2.4-1.3.4Z" />
  </symbol>
  <symbol class="bi bi-manhwa" viewBox="0 0 16 16" id="file-manhwa">
    <defs id="defs897">
      <path id="b1" d="M-12-2h24v4h-24z" />
      <g id="b2-6">
        <path id="rect3" d="M-12-2h11v4h-11z" />
        <path id="rect5" d="M1-2h11v4H1z" />
      </g>
    </defs>
    <path id="path1774" stroke-linecap="round" stroke-width="1.5"
      d="M8 6a2 2 0 1 0 0 4 2 2 0 0 0 0-4zm0 .5a1.5 1.5 0 0 1 1.3 2.3A.8.8 0 0 0 8 8a.8.8 0 0 1-1 .2.8.8 0 0 1-.2-1A1.5 1.5 0 0 1 8 6.4z" />
    <path id="path891"
      d="M4 0a2 2 0 0 0-2 2v12a2 2 0 0 0 2 2h8a2 2 0 0 0 2-2V2a2 2 0 0 0-2-2H4zm0 1h8a1 1 0 0 1 1 1v12a1 1 0 0 1-1 1H4a1 1 0 0 1-1-1V2a1 1 0 0 1 1-1z" />
    <g id="g1926" transform="matrix(.08334 0 0 .08334 8 8)">
      <g id="g24" transform="rotate(56.3)">
        <use xlink:href="#b2-6" id="use12" width="100%" height="100%" x="0" y="0" transform="translate(0 -38)" />
        <use xlink:href="#b1" id="use14" width="100%" height="100%" x="0" y="0" transform="translate(0 -44)" />
        <use xlink:href="#b2-6" id="use16" width="100%" height="100%" x="0" y="0" transform="translate(0 -50)" />
        <use xlink:href="#b1" id="use18" width="100%" height="100%" x="0" y="0" transform="translate(0 38)" />
        <use xlink:href="#b2-6" id="use20" width="100%" height="100%" x="0" y="0" transform="translate(0 44)" />
        <use xlink:href="#b1" id="use22" width="100%" height="100%" x="0" y="0" transform="translate(0 50)" />
      </g>
      <g id="g42" transform="rotate(-56.3)">
        <use xlink:href="#b1" id="use26" width="100%" height="100%" x="0" y="0" transform="translate(0 -38)" />
        <use xlink:href="#b1" id="use28" width="100%" height="100%" x="0" y="0" transform="translate(0 -44)" />
        <use xlink:href="#b1" id="use30" width="100%" height="100%" x="0" y="0" transform="translate(0 -50)" />
        <use xlink:href="#b2-6" id="use32" width="100%" height="100%" x="0" y="0" transform="translate(0 38)" />
        <use xlink:href="#b2-6" id="use34" width="100%" height="100%" x="0" y="0" transform="translate(0 44)" />
        <use xlink:href="#b2-6" id="use36" width="100%" height="100%" x="0" y="0" transform="translate(0 50)" />
      </g>
    </g>
  </symbol>
</svg>