<svg viewBox="0 0 400 400"><path d="M121.5 276.7c0 14.5-13.5 26.1-29.8 26.1s-30-12-30-26.3 13.5-25.8 30-25.8c16.6 0 29.8 11.6 29.8 26m265.4.4c0 14.7-12.5 25.1-29.5 25.1s-29.7-10.6-29.7-25.5 12.9-25.8 29.9-25.8c17.1 0 29.4 11.3 29.4 26.2M34 207.6l63.7-19.2c3-.8 6.4 1.3 7.4 4l8.3 27.6c.8 2.9-1.1 6-4 6.9l-63.9 19.6c-2.8.7-5.7-.9-6.6-3.7l-8.5-27.7c-.8-2.8.7-6.7 3.6-7.5m45-65.8a7 7 0 0 1 3.2 9.3l-7.8 15.4 19.9-5.9a32 32 0 0 1 38.7 20l9.8 32.3a32 32 0 0 1-17.3 37.6c-5.5-6.3-9.8-8.2-13-10.4l3.5-1.4c10.4-2.7 13.7-14.2 13-14.7 0 0 .2-4.8-.5-7.1l-9.2-30.8c-3.2-9.5-12-13.7-21.7-11.6l-71.6 22c-9.6 2.8-13.5 12-10.6 21.6l9 30.6c3.4 9.3 12.6 13.5 22.1 10.5l4.8-.8c-2.7 8.3-2.6 7-3.8 15.8-15.5 2.4-31.6-5-36.4-20.8L1.3 221a30.6 30.6 0 0 1 20.4-38.2l20.7-6.4-15.1-8.3A7 7 0 1 1 34 156l23.3 13 12.4-24.2a7 7 0 0 1 9.3-3m182.7 51.4c.5 11.9-13.6 20.4-29.1 18.6-15.6-1.6-27.7-12.2-26.5-24.3s14-20.4 29.6-18.2 25.4 12 26 23.8m-144.5-48.4c-4.8 4.7 12.4-19.6 20.6-31 3-4 6-10.1 8-17.2C152.4 72 159.1 23 162 16c2.7-15 29-22.4 37.5-9 6.1 6.2 14.7 24 35.6 50.6a42 42 0 0 0 52.4 3.7L326 34.6a22 22 0 0 1 36.7 11.8c.8 2 .9 11.7.1 11.6 0 0-9 43.4-11.7 65.4-.7 7.2-1.2 11.3-1.2 17.7.2 5.5.6 11 3.3 20 1.3.8 6.7 23.2 7.6 40.7.5 24.7-.8 25.5-1.8 34.3-25.2-.9-59.8 26.7-40.6 58.8l-69 .3a54.3 54.3 0 0 0-82.4-.6l-35.3.3c.4-.9-.2-1.4.4-2.2 4.8-6.4 4.4-21.8 1.8-27.2a50 50 0 0 0 24-28.8c17 9.3 31.9 14 52.7-3.7 6.4-5.5 22.7-7 29 2.7 12.2 19.1 16 20 18.9 21.3a38 38 0 0 0 38.6-.7c6.3-6.4 10.4-8.6 12.7-19.6 1.7-6.5 1.5-9 1-15.3-6.5-33-44.5-54.4-82.6-57.8-12.6-.7-15.4-2.7-30.4-.4-32 8.3-37.4 17.8-44.6 26.2-7.1-24.1-9.6-29.2-35.8-44.4m57.8-15.7c-7 0-11.7 5.4-11.7 12.4s4.6 11.2 11.7 11.2c7.2 0 11.9-4.9 11.9-11.7 0-7.1-4.7-12-11.9-12m131.7 24.3c-6.9 0-11.5 4.6-11.5 11.3s4.6 12.1 11.5 12.1c6.8 0 11.5-5.5 11.5-12.2s-4.7-11.2-11.5-11.2m-221 210.2-.2.2v12.5c0 3.3-3 5.6-6.1 5.4a6 6 0 0 1-5-4l-.3-2.5v-31.7a22 22 0 0 1 26-23.5 22 22 0 0 1 17.7 22.8v33.4c0 5.3-6.7 7.4-10.1 3.4-1.4-1.7-1.3-3.4-1.3-5.3V364q0-.4-.2-.4zm0-11h20.5l.2-.3v-11c0-5.7-4.6-10.5-10.4-10.5s-10.6 4.8-10.5 10.6v11q0 .2.2.2m156 25a5.6 5.6 0 0 1-10.7.2q-.3-.8-.3-3v-36.4q0-2.5.3-4a18.2 18.2 0 0 1 29.9-10.2l.3.3h.3a18.4 18.4 0 0 1 30.6 13.5v38.3c0 3.2-2.8 5.7-6.1 5.4a5.4 5.4 0 0 1-5-4.1l-.2-2.9v-37q0-1.3-.3-2.3a7 7 0 0 0-8.1-4.6q-5.4 1.8-5.3 7.6V375q0 2.2-.4 3c-1.7 5-9 5-10.6 0l-.4-3.5v-36.8a7 7 0 0 0-6.1-7q-1 0-2.4.3a7 7 0 0 0-5 4.8l-.2 2.6v37.3q0 1.2-.2 2m73.8-14-.2.2v12c0 6.7-9 8.3-11 2q-.4-.9-.4-2.6v-31.2q-.1-5 1-9.4a22 22 0 0 1 18.5-14.7c11.1-1.2 21.3 6 23.7 16.9l.4 3.2v35.2q0 1.8-.3 2.6c-1.6 5.2-9.2 5.3-10.7 0l-.3-3v-11h-.1zm.1-11h20.4q.2 0 .2-.4v-10.9c0-5.9-4.6-10.5-10.4-10.5s-10.5 4.7-10.5 10.5v11zm-147-1.5a17.8 17.8 0 0 1-11.2 29.8l-2.3.2h-12.5l-3.4-.2c-5-.6-9.2-4.5-10-9.5q-.3-1.2-.3-4.2V333q0-8.6 7.8-11.7 1.3-.6 2.8-.6 6.5-.3 13.1 0 1.5 0 3 .5a18 18 0 0 1 10.3 27.2v.4q1.5.9 2.9 2.4zm-26.6-19.6c-.9 0-1.9.8-1.9 1.6v12.1h9.1l3.3-.2c4-1.2 6.1-5.5 4.4-9.3q-1.8-4.2-6.8-4.2zM157 370c2.9-.7 5-3.2 5.4-6.2 0-3-1.7-5.6-4.4-6.7a10 10 0 0 0-3.6-.6h-13.8l-.3.2V368q0 2.4 2.5 2.2zm35.3 11c-5-1-8.6-5-9.2-9.8l-.1-4.2v-36c.6-5 4.2-8.8 9-9.8q.9-.5 1.9-.5h20.7q1.2 0 2.4.4c4.9 2.3 4.4 8.5-.6 10.4l-2 .2H196q-2 0-1.9 2.3v11.3l.1.3 18.7.3c4.6 1.7 4.6 8.2 0 10.2q-1.4.4-3.2.4h-15.3l-.3.2V368q0 2.4 2.1 2.3h17.5q1.8 0 2.6.2c5.1 1.6 5.5 8.9.1 10.4q-1 .4-3.5.4h-16.4q-2.3 0-4.2-.4" fill="currentColor" /></svg>