<svg viewBox="0 0 1280 293" xmlns="http://www.w3.org/2000/svg" ><path d="M54.8 207a.7.4-89.4 0 0-.5.7Q54 237 54 266.4c0 15-14 25.7-28 24.9a27 27 0 0 1-23.6-18.6Q1.3 269 1.3 261V113c0-13.8.8-30 5.2-42.9a102 102 0 0 1 116-66.8A100.4 100.4 0 0 1 205 109.2v156.2c0 25-31.3 34.7-47 16.2-6.5-7.7-5.8-15.9-5.8-25v-48.4a1.2 1.2 0 0 0-1.2-1.2zm.8-51.8h95.3a1.4 1.4 0 0 0 1.4-1.4V103a49.7 49 90 0 0-49-49.7A49.7 49 90 0 0 54.1 103v51a1.4 1.4 0 0 0 1.4 1.3m728.7 117.4c-7.3 24.5-42.3 24.9-50.4.5q-1.3-4-1.3-13.7V88.8q0-11.2 1.3-18A85.1 85.1 0 0 1 875.2 24a1 1-44.3 0 0 1.3 0q30.7-26.8 69.9-21.7a84 84 0 0 1 71.5 66.6q1.4 6.7 1.4 18.3V266a26 26 0 0 1-28.4 25.2 26 26 0 0 1-23.3-19.5q-1-4-1-13.1V86q0-6.4-1.4-10.3c-4.8-15.3-21.7-26-37.9-21.5-17.4 4.8-24.8 18-24.9 35.3q-.3 85.3-.1 170.7 0 9.7-1.5 14c-8 23.1-42.2 22.7-49.6-.8q-1.5-4.7-1.5-16 .2-85.4-.2-170.9a32.4 32.4 0 0 0-28.4-33q-5.4-1-11.5.9-18 5.4-23 22.2-1.4 4.5-1.4 12.5v173.6q0 6.4-1 10M1225 207h-95.8a1 1 0 0 0-1 1v55.3c0 31.5-42.5 39-51.9 9.7q-1.3-4.3-1.3-12.1V115c0-14.4.5-30.4 4.8-43.7A102 102 0 0 1 1166.2 2a101.7 101.7 0 0 1 110.4 79.2q.8 3.6 1.6 15.4.5 7 .5 15.5v148.5q0 8.2-1.3 12.5c-7.6 24-42.8 24.5-50.4-.4q-1.2-4-1.2-13.7v-51.3a1 1 0 0 0-.7-.7m-95.3-51.8h94.6a1.6 1.6 0 0 0 1.6-1.6v-51a49.4 49-90 0 0-48.9-49.4 49.4 49 90 0 0-49 49.5v51a1.6 1.6 0 0 0 1.7 1.5m-686.1-6.9a82.5 82.5 0 0 1 6.9 104.3c-13.2 18.3-36.2 34-59.7 35-3.7.2-7.4.9-11 .9h-58.3c-5.4 0-10.9-.7-16.4-1-3.2-.3-8.1-1.4-11.2-2.5q-30.3-11.4-35.7-41.6-1-6-1-20V63.5q0-40.6 36.5-54.8a51 51 0 0 1 13.1-3q30.7-1 61.4 0a66 66 0 0 1 13.6 2.6C436 24 462.7 87 430 135.2a1.2 1.2-56.5 0 0 .3 1.7q7.3 4.6 13.5 11.4M318.6 56.7c-4 0-8.6 3.3-8.6 7.5v56.5l.5.5h41.9a65 65 0 0 0 15.2-1.6A31.7 31.7 0 0 0 388.3 76q-8.6-19.3-32.1-19.4zM388 235.8a32 32 0 0 0 25.2-29.2c.6-14-7.8-26.1-20.6-31.6a46 46 0 0 0-16.7-2.5h-65a1 1 0 0 0-1 1v52.8c0 8 3 10.4 11.1 10.4q24.5.1 48.9 0 14.4 0 18-.9m164.4 50.9a54 54 0 0 1-42.7-45.2q-.5-4-.6-20V66.9q0-6.8.6-13.4a53 53 0 0 1 41.6-46.2c3-.8 5.8-1.8 8.8-1.8q48.3-.3 96.5-.1c4.3 0 8 0 11.8 1.9 22.4 10.4 20.1 40.3-3 48.2q-3.8 1.3-9.9 1.3h-85.1c-7.1 0-8.8 4.3-8.8 10.8v53a1 1 0 0 0 .8.8q37.2-.2 74.7.2 8.4 0 12.3 1.5c21.8 8.3 21.4 38.4.4 47.5-4.5 2-10.6 2-15.5 2h-71.5a1.2 1.2 0 0 0-1.2 1.2V226c0 7.6 2.5 10.8 10 10.8h81.6q8 0 12.2 1.3c23.9 7.6 25.4 41 .7 48.8q-4.8 1.6-16.6 1.6h-77.7c-6 0-13.5-.5-19.4-1.8" fill="currentColor" /></svg>
