<svg xmlns="http://www.w3.org/2000/svg" viewBox="0 0 120.42 43.03">
  <defs>
    <linearGradient id="adngradient" x1="11.81" y1="39.88" x2="132.26" y2=".74" gradientUnits="userSpaceOnUse">
      <stop offset="0" stop-color="#0095ff" />
      <stop offset=".66" stop-color="#00edff" />
      <stop offset="1" stop-color="#76ffdf" />
    </linearGradient>
  </defs>
  <path
    d="M104.2 0v13.65L96.66 0H79v13.33A22.2 22.2 0 0059.41 0H41.75l3.69 17.66h13.33a4.14 4.14 0 014.33 3.85 4.14 4.14 0 01-4.33 3.86H47.21L50.9 43h7.87a22.12 22.12 0 0020.39-13.3V43h16V30.18L101.63 43h18.79V0zM30.46 19.37a2.09 2.09 0 11-2.09 2.09 2.12 2.12 0 012.09-2.09zm-10.78 0a2.09 2.09 0 11-2.09 2.09 2.12 2.12 0 012.09-2.09zm21.67-1.7H9.55L16.2 0h18.5zM50.9 43H32.08L31 39.8H20L18.83 43H0l6.47-17.63h37.78z"
    fill="url(#adngradient)" />
</svg>
