<svg xmlns="http://www.w3.org/2000/svg" xmlns:xlink="http://www.w3.org/1999/xlink" viewBox="0 0 84.4 30.6">
  <defs>
    <linearGradient xlink:href="#adngradient" id="adngradientb" x1="8.6" x2="93" y1="53.5" y2="53.5" gradientUnits="userSpaceOnUse"/>
    <linearGradient id="adngradient">
      <stop offset="0" style="stop-color:#0196fd;stop-opacity:1"/>
      <stop offset="1" style="stop-color:#4bf5f4;stop-opacity:1"/>
    </linearGradient>
  </defs>
  <path d="m 19.837891,38.142578 -4.625,12.601563 h 22.189453 l -4.625,-12.601563 z m 17.767578,0 2.640625,12.601563 h 9.71289 c 1.507539,0 2.720704,1.213164 2.720704,2.720703 0,1.507539 -1.213165,2.720703 -2.720704,2.720703 h -8.572265 l 2.636719,12.587891 h 5.671874 c 6.414728,0 11.882801,-3.905155 14.169922,-9.476563 v 9.476563 H 75.21875 v -9.177735 l 4.664062,9.177735 h 13.074219 v -30.63086 h -11.375 v 9.578125 l -5.43164,-9.578125 H 63.865234 v 9.478516 C 61.578192,42.048968 56.110165,38.142577 49.695312,38.142578 Z m 6.417969,30.63086 -4.623047,-12.587891 H 13.214844 L 8.5917969,68.773438 H 21.669922 l 0.845703,-2.291016 h 7.583984 l 0.845703,2.291016 z M 22.253906,51.921875 a 1.4946662,1.4946662 0 0 0 -1.49414,1.5 1.4946662,1.4946662 0 0 0 1.49414,1.494141 1.4946662,1.4946662 0 0 0 1.492188,-1.494141 1.4946662,1.4946662 0 0 0 -1.492188,-1.5 z m 7.525391,0 a 1.4946662,1.4946662 0 0 0 -1.494141,1.5 1.4946662,1.4946662 0 0 0 1.494141,1.494141 1.4946662,1.4946662 0 0 0 1.492187,-1.494141 1.4946662,1.4946662 0 0 0 -1.492187,-1.5 z" style="fill:url(#adngradientb)" transform="translate(-8.6 -38.1)"/>
</svg>