<svg xmlns="http://www.w3.org/2000/svg" viewBox="0 0 16 16">
  <path d="m -230.00392,49.432996 c -0.008,-0.01058 0.88357,-1.110361 1.66226,-2.053837 0.0438,-0.05314 0.27136,-0.330314 0.50545,-0.615991 0.23432,-0.285681 0.43667,-0.52655 0.45005,-0.535292 0.034,-0.02116 1.73937,-0.02116 1.75252,1.63e-4 0.004,0.0091 -0.27627,0.383505 -0.62631,0.831834 -0.35035,0.448325 -0.63663,0.823054 -0.63667,0.83273 0,0.0098 0.44313,0.01512 0.98471,0.01172 0.55477,-0.0033 0.98467,0.0025 0.98467,0.01323 0,0.01058 -0.085,0.05843 -0.18935,0.106616 -0.10431,0.04819 -0.81588,0.385088 -1.58165,0.748662 l -1.39232,0.661045 -0.95247,0.0064 c -0.52385,0.0036 -0.95625,3.29e-4 -0.96089,-0.0072 z m 5.29735,-0.01701 c -0.008,-0.01701 4e-5,-0.128989 0.0151,-0.24887 0.0393,-0.325175 0.10204,-0.843932 0.1765,-1.462361 0.14626,-1.216111 0.1746,-1.440256 0.18367,-1.466205 0.008,-0.02116 0.20635,-0.02721 0.89737,-0.02721 h 0.888 v 0.07491 c 0,0.04119 -0.008,0.170222 -0.0227,0.286739 -0.0113,0.116517 -0.0302,0.343316 -0.0438,0.504014 -0.0113,0.160698 -0.034,0.394412 -0.0438,0.519392 -0.0113,0.124982 -0.0453,0.543742 -0.0756,0.93058 -0.0302,0.386843 -0.062,0.750102 -0.0707,0.80725 l -0.0151,0.103894 -0.93875,0.0042 c -0.79616,0.0036 -0.94057,-3.97e-4 -0.95058,-0.02645 z m -1.96919,-4.064743 c 0.19313,-0.235076 0.53119,-0.646537 0.75137,-0.914349 0.22034,-0.267804 0.46887,-0.570485 0.55266,-0.672603 0.0839,-0.102118 0.32162,-0.391842 0.52835,-0.64383 l 0.37605,-0.458167 h 1.1118 c 1.10512,0 1.11185,2.57e-4 1.11185,0.04422 0,0.02419 -0.0189,0.260472 -0.0431,0.524804 -0.0227,0.264327 -0.0575,0.655898 -0.0756,0.870149 -0.0189,0.214251 -0.0522,0.623271 -0.076,0.90894 -0.0227,0.285681 -0.0495,0.57539 -0.0571,0.64383 l -0.0151,0.124454 h -0.88448 c -0.73932,0 -0.88452,-0.0049 -0.88452,-0.02986 0,-0.02532 0.076,-0.656197 0.15004,-1.246417 0.0113,-0.08904 0.0189,-0.164591 0.0151,-0.167917 -0.008,-0.0057 -0.32125,0.390909 -0.87681,1.103452 l -0.26569,0.340859 h -0.88527 -0.88532 z" style="fill:#e33011" transform="translate(230.004 -38.053)"/>
  <path d="m -222.56201,49.410817 c 0.008,-0.02192 0.33333,-0.749849 0.72563,-1.617696 l 0.71301,-1.577907 2.05135,-0.01096 c 2.29683,-0.01209 2.13862,-7.48e-4 2.3873,-0.171204 0.22677,-0.155558 0.46297,-0.525246 0.60375,-0.945725 0.14551,-0.435044 0.0964,-0.711647 -0.14701,-0.826013 -0.0707,-0.03326 -0.18708,-0.03704 -1.17965,-0.03704 l -1.10111,-1.66e-4 -0.33788,0.77297 -0.33787,0.772971 -0.87016,7.48e-4 -0.87015,7.22e-4 0.0609,-0.135262 c 0.57276,-1.276093 1.33229,-2.952494 1.34348,-2.965294 0.008,-0.0091 0.9683,-0.01625 2.13408,-0.01587 2.26659,6.54e-4 2.31202,0.0026 2.66145,0.110282 0.2245,0.06916 0.35073,0.141158 0.48644,0.276724 0.16894,0.169012 0.21996,0.305597 0.23243,0.621059 0.0113,0.261304 -0.0227,0.465506 -0.11905,0.777548 -0.13001,0.414946 -0.64608,1.540994 -0.9084,1.98263 -0.39131,0.658834 -0.84136,1.013265 -1.49806,1.179855 -0.39384,0.09989 -0.60386,0.11134 -2.10052,0.114476 -0.76747,0.0016 -1.40199,0.0098 -1.41004,0.01852 -0.008,0.0087 -0.1969,0.397875 -0.41992,0.865058 l -0.40526,0.849427 h -0.85349 c -0.8186,0 -0.85292,-0.0016 -0.84083,-0.0398 z" style="fill:currentColor" transform="translate(230.004 -38.053)"/>
</svg>