<svg xmlns="http://www.w3.org/2000/svg" viewBox="0 0 2857.5 319.9">
  <path d="m -230.00354,202.85308 c -0.0799,-0.12949 10.80237,-13.57503 20.32282,-25.10978 0.53611,-0.64954 3.31695,-4.03848 6.17964,-7.53098 2.8627,-3.4925 5.33851,-6.43747 5.5018,-6.54438 0.39762,-0.26034 21.26525,-0.25878 21.42617,0.002 0.0694,0.11225 -3.37641,4.68867 -7.6573,10.16981 -4.28089,5.48114 -7.78347,10.0625 -7.78351,10.1808 -4e-5,0.11831 5.4173,0.18297 12.03854,0.14369 6.78258,-0.0402 12.03862,0.03 12.03862,0.16075 0,0.12769 -1.0418,0.7142 -2.31511,1.30336 -1.27331,0.58916 -9.97499,4.708 -19.33708,9.15298 l -17.02198,8.08179 -11.64461,0.079 c -6.40455,0.0434 -11.69115,0.004 -11.748,-0.0886 z m 64.76479,-0.21017 c -0.0797,-0.20776 2.7e-4,-1.57698 0.17772,-3.04271 0.48123,-3.97537 1.24637,-10.31775 2.15684,-17.8785 1.79043,-14.86792 2.13347,-17.60826 2.24397,-17.92552 0.0896,-0.25734 2.52425,-0.33073 10.9714,-0.33073 h 10.85622 v 0.91566 c 0,0.50362 -0.11436,2.0812 -0.25413,3.50573 -0.13977,1.42454 -0.38095,4.19741 -0.53596,6.16194 -0.15501,1.96453 -0.39529,4.82203 -0.53397,6.35 -0.13867,1.52797 -0.55421,6.64766 -0.92341,11.37709 -0.3692,4.72942 -0.7587,9.17059 -0.86555,9.86926 l -0.19427,1.27032 -11.47699,0.0526 c -9.73377,0.0446 -11.49899,-0.005 -11.62187,-0.32514 z m 32.43607,0.21136 c -0.16171,-0.10007 0.46973,-1.78756 1.58406,-4.23334 1.01913,-2.23682 2.94769,-6.50772 4.28569,-9.4909 1.33801,-2.98317 3.00725,-6.67411 3.70944,-8.20208 0.70219,-1.52797 1.99365,-4.38547 2.86991,-6.35 3.34675,-7.50327 4.68911,-10.46235 4.89105,-10.78177 0.16134,-0.25522 2.53115,-0.33073 10.37992,-0.33073 5.593967,0 10.170846,0.0798 10.170846,0.17743 0,0.14905 -17.171216,38.97682 -17.328246,39.18286 -0.11795,0.15475 -20.3134,0.18278 -20.56267,0.0285 z m 49.765493,-0.36278 c -0.123529,-0.29104 -0.947997,-3.38667 -1.83215,-6.87917 -0.884153,-3.4925 -2.428796,-9.56468 -3.43254,-13.49375 -3.484118,-13.63823 -4.49322,-17.72331 -4.49322,-18.18958 0,-0.44294 0.681532,-0.46498 12.365291,-0.40001 l 12.365292,0.0688 1.139306,3.83646 c 0.626618,2.11005 2.6177,8.95615 4.424627,15.21354 1.806927,6.2574 3.84765,13.31015 4.534942,15.67279 0.687293,2.36263 1.192059,4.35326 1.121707,4.42361 -0.07035,0.0704 -5.942081,0.16136 -13.048284,0.20222 -12.704916,0.0731 -12.924113,0.0655 -13.144971,-0.45487 z m 38.034669,0.45397 c -0.1138,-0.18413 2.026867,-5.01222 12.460202,-28.10293 1.545178,-3.41974 3.311308,-7.3488 3.924732,-8.73125 l 1.115316,-2.51354 10.512097,-0.0692 10.5121049,-0.0692 -0.1357577,0.59838 c -0.074665,0.32911 -2.0014406,4.70603 -4.2817312,9.7265 -2.280282,5.02047 -5.380053,11.86656 -6.888376,15.21354 -1.508324,3.34698 -3.560422,7.87136 -4.560213,10.05417 l -1.817807,3.96875 -10.356239,0.066 c -5.695931,0.0363 -10.41388,-0.0272 -10.484328,-0.14122 z m 37.2351109,-0.40528 c 0.088768,-0.35375 0.639154,-1.66764 1.2230365,-2.91975 0.5839089,-1.25211 2.0589345,-4.51163 3.2778435,-7.24338 2.89512373,-6.48829 5.5729187,-12.44489 6.6337391,-14.75639 0.4674923,-1.01865 2.0210992,-4.47146 3.4524686,-7.67292 1.4313693,-3.20146 2.7162918,-5.96966 2.8554097,-6.15156 0.2000515,-0.26157 7.3818487,-0.33073 34.3410907,-0.33073 H 78.10433 l 0.667015,0.71935 c 0.781579,0.84291 1.418299,2.56979 1.635363,4.43547 0.597376,5.13417 -3.853577,15.62012 -9.652,22.73907 -3.907446,4.79735 -9.974156,8.70818 -16.044598,10.34299 -4.760991,1.28216 -4.089796,1.25527 -34.229886,1.37149 l -28.4090798,0.10954 z M 50.951466,184.6263 c 0.988695,-0.14296 2.244196,-0.48775 2.790031,-0.76621 2.095606,-1.06911 4.445582,-4.44417 5.735982,-8.23816 0.841904,-2.47523 0.848809,-3.70141 0.02619,-4.65764 -0.553058,-0.64297 -0.885348,-0.75593 -2.711979,-0.92197 -1.144931,-0.10407 -8.301513,-0.19769 -15.903522,-0.20805 l -13.821754,-0.0188 -0.759433,1.65365 c -4.01537,8.74341 -5.860415,12.87655 -5.860415,13.12815 0,0.38473 27.861471,0.41127 30.504897,0.029 z m 20.030519,18.27571 c 0,-0.0814 2.58961,-3.30667 5.754688,-7.16737 16.991197,-20.72552 20.546933,-25.05419 23.409967,-28.49888 l 3.13369,-3.77031 h 10.86972 10.86975 l -0.7433,0.99219 c -0.40878,0.5457 -2.19019,2.83765 -3.95867,5.09323 -1.76847,2.25557 -5.02917,6.42276 -7.24595,9.26041 l -4.03056,5.15938 12.05886,0.0688 c 6.63239,0.0378 12.05889,0.17111 12.05889,0.29614 0,0.12503 -2.7682,1.53994 -6.15156,3.14424 -3.38336,1.6043 -12.06887,5.72159 -19.30112,9.14953 l -13.149554,6.23262 -11.787425,0.094 c -6.483086,0.0517 -11.787426,0.0274 -11.787426,-0.054 z m 64.898665,-0.19774 c -0.0668,-0.17401 0.13229,-2.37667 0.44228,-4.89479 0.31001,-2.51812 0.79788,-6.54294 1.08413,-8.94403 0.28628,-2.40109 0.75573,-6.27063 1.04325,-8.59896 0.8431,-6.82762 1.53178,-12.57332 1.72837,-14.41979 0.1007,-0.94589 0.30347,-1.86862 0.45058,-2.05052 0.20632,-0.25506 2.8026,-0.33073 11.34761,-0.33073 h 11.08011 v 1.11381 c 0,0.61259 -0.1701,2.60689 -0.37798,4.43177 -0.20791,1.82488 -0.51078,4.62765 -0.6731,6.22838 -0.16229,1.60073 -0.40587,3.98198 -0.54126,5.29166 -0.13541,1.30969 -0.37372,3.63141 -0.52959,5.15938 -0.15584,1.52797 -0.39047,3.79016 -0.52133,5.02708 -0.13089,1.23693 -0.37224,3.61818 -0.53639,5.29167 -0.36952,3.76767 -0.72589,6.64037 -0.83717,6.74836 -0.0463,0.045 -5.24886,0.12254 -11.56118,0.17241 -8.73056,0.069 -11.50601,0.015 -11.59833,-0.2257 z m -325.19466,-49.75603 c 2.36072,-2.87403 6.49451,-7.90443 9.18621,-11.17864 2.6917,-3.27422 5.73216,-6.9746 6.75658,-8.22307 1.02442,-1.24848 3.9313,-4.79058 6.45974,-7.87136 l 4.59716,-5.60141 h 13.59295 c 13.51064,0 13.59294,0.003 13.59294,0.54039 0,0.29721 -0.23598,3.18448 -0.52439,6.41615 -0.28842,3.23166 -0.7033,8.01888 -0.92195,10.63825 -0.21866,2.61938 -0.63594,7.62 -0.92729,11.1125 -0.29135,3.4925 -0.60622,7.03461 -0.69972,7.87136 l -0.17,1.52135 h -10.81374 c -9.03851,0 -10.81374,-0.0602 -10.81374,-0.36657 0,-0.30999 0.92871,-8.02251 1.83494,-15.23839 0.13669,-1.08841 0.21528,-2.01217 0.17465,-2.05281 -0.0713,-0.0713 -3.92553,4.7792 -10.71977,13.49058 l -3.2501,4.16719 h -10.82334 -10.82334 z m 76.48596,4.89479 c 0.0726,-0.1819 1.80582,-4.02166 3.85159,-8.53281 2.04578,-4.51115 5.84716,-12.90505 8.44752,-18.65312 l 4.727933,-10.45105 9.570185,-0.0694 9.570186,-0.0694 -0.497893,1.26007 c -0.273841,0.69303 -2.301558,5.60585 -4.506037,10.91736 -2.204477,5.31151 -5.521383,13.31629 -7.3709,17.7884 l -3.362756,8.13112 -10.280908,0.005 c -8.12027,0.004 -10.25317,-0.0647 -10.14892,-0.3259 z m 23.213816,-0.43046 c 0.506097,-0.41865 10.683303,-8.9886 22.616012,-19.04432 l 21.695833,-18.28314 12.899199,-0.006 12.8992,-0.006 -0.99295,0.87448 c -0.546121,0.48096 -3.969512,3.31734 -7.607533,6.30306 -17.291145,14.19084 -27.502884,22.58634 -33.072916,27.19063 l -4.497917,3.71806 -12.429553,0.007 -12.429556,0.007 0.920181,-0.76119 z m 64.817053,0.54357 c 0,-0.21073 1.021308,-2.50169 8.336481,-18.70009 1.642925,-3.63802 4.116001,-9.11489 5.495727,-12.17083 1.3797197,-3.05594 2.6610174,-5.88367 2.847337,-6.28385 l 0.3387195,-0.72761 H 2.7619512 c 5.7974706,0 10.5408678,0.0767 10.5408678,0.17052 0,0.16299 -0.642885,1.6039 -3.8786066,8.69302 -0.7970308,1.74625 -4.0954325,9.00907 -7.329752,16.13959 l -5.8805763,12.96458 -10.5055321,0.0692 c -5.778043,0.038 -10.505533,-0.0315 -10.505533,-0.15451 z m 37.115644,-0.11311 c 0.07183,-0.1819 1.559322,-3.48588 3.305519,-7.34218 1.746171,-3.85631 4.867196,-10.76193 6.935576,-15.34584 2.06838,-4.5839 4.435316,-9.82265 5.259837,-11.64166 l 1.499103,-3.3073 26.718736,-0.0644 c 23.972467,-0.0578 26.949876,-0.0194 28.967668,0.37428 8.769059,1.71071 11.674634,7.53508 8.556889,17.15267 -1.662112,5.12725 -5.761778,12.4641 -8.427084,15.08125 -1.825096,1.79214 -4.122738,3.74033 -5.297435,4.49179 l -1.457219,0.93217 H 45.283959 c -26.370148,0 -33.069557,-0.0672 -32.965496,-0.33073 z m 52.445814,-6.06179 c 2.199428,-1.17041 3.917976,-3.39054 5.617819,-7.25748 1.464548,-3.33169 1.47394,-4.87118 0.03283,-5.37356 -0.567161,-0.19772 -5.407713,-0.29102 -15.097892,-0.29102 H 41.053959 l -0.94144,2.05052 c -2.498937,5.44274 -5.113735,11.33226 -5.113788,11.51814 -5.2e-5,0.11396 6.39953,0.17349 14.221275,0.13229 l 14.221354,-0.0749 z m 42.994793,6.24319 c 0,-0.0821 0.47225,-0.70721 1.04947,-1.38906 1.74678,-2.06348 25.302,-30.73382 28.13653,-34.2465 l 1.86814,-2.31511 h 14.37085 14.37084 v 0.90081 c 0,0.49544 -0.17571,2.48974 -0.39047,4.43177 -0.21474,1.94203 -0.87672,8.29346 -1.47106,14.1143 -0.5943,5.82083 -1.24851,12.19067 -1.45378,14.15521 -0.20526,1.96453 -0.37671,3.78023 -0.38102,4.03489 -0.007,0.43369 -0.73039,0.46302 -11.41437,0.46302 h -11.40653 l 0.15396,-0.85989 c 0.0847,-0.47295 0.45384,-3.36021 0.8204,-6.41615 0.36652,-3.05594 0.80602,-6.5391 0.97663,-7.74036 0.26408,-1.85951 0.21174,-2.84912 -0.12817,-2.42405 -0.9009,1.12662 -8.70635,11.14096 -10.75975,13.80472 l -2.77813,3.60388 -10.78177,0.0159 c -5.92997,0.009 -10.78177,-0.0513 -10.78177,-0.1334 z" style="fill:#e33011" transform="translate(869.3 -450.8) scale(3.77953)"/>
  <path d="m 371.28407,203.88168 c -0.0728,-0.0737 -1.79917,-0.20307 -3.83646,-0.28759 -6.51653,-0.27031 -11.09882,-1.14439 -14.34949,-2.73719 -2.3286,-1.14101 -3.51449,-2.39696 -4.79491,-5.07818 -0.903,-1.89086 -0.96338,-2.1774 -0.95512,-4.53202 0.007,-1.93128 0.14925,-2.90822 0.61502,-4.21731 0.99462,-2.79549 3.48485,-8.59336 3.82363,-8.90227 0.17327,-0.15801 2.63675,-0.71772 5.47441,-1.24382 2.83766,-0.52609 7.70641,-1.43861 10.81947,-2.02781 3.11307,-0.58921 5.74662,-1.07129 5.85235,-1.07129 0.10573,0 -0.41508,1.39898 -1.15731,3.10885 -2.50762,5.77661 -1.86661,6.94342 4.2641,7.76201 3.29155,0.4395 18.45847,0.16192 20.7404,-0.37958 4.01791,-0.95347 6.41323,-2.79231 8.16713,-6.26978 1.8197,-3.60794 1.63145,-5.62242 -0.6169,-6.6014 -1.17536,-0.51178 -2.62618,-0.71716 -11.25115,-1.59276 -1.40501,-0.14263 -3.0308,-0.31569 -3.61288,-0.38457 -1.06193,-0.12565 -1.7123,-0.19368 -6.44128,-0.67376 -1.40502,-0.14264 -3.0308,-0.31569 -3.61289,-0.38457 -0.58208,-0.0689 -1.71317,-0.19032 -2.51354,-0.26987 -0.80036,-0.0796 -2.05052,-0.21054 -2.77812,-0.29107 -9.18361,-1.01645 -13.00613,-5.32859 -11.68027,-13.17635 0.59555,-3.52498 1.76826,-6.92406 3.87286,-11.22538 3.10544,-6.3468 5.56784,-9.85585 9.69174,-13.81121 5.55924,-5.332 12.36602,-8.37479 21.66358,-9.6841 4.00677,-0.56425 22.07226,-0.81442 27.22245,-0.37698 16.00052,1.35902 19.69185,6.81575 14.19183,20.97916 -0.60748,1.56435 -1.16462,2.84428 -1.23809,2.84428 -0.0734,0 -4.20206,0.78159 -9.17467,1.73686 -13.49663,2.5928 -12.94643,2.50677 -12.78501,1.99909 0.075,-0.23576 0.49993,-1.44069 0.94438,-2.67762 0.44445,-1.23693 0.80968,-2.52276 0.81161,-2.85741 0.006,-0.98432 -0.7026,-2.06816 -1.63843,-2.50708 -2.18901,-1.02664 -3.07002,-1.1104 -11.71948,-1.11414 -8.95641,-0.004 -10.47078,0.15574 -13.40321,1.41274 -1.7647,0.75642 -3.92571,2.89021 -4.94118,4.8789 -2.19734,4.30316 -1.12543,5.5829 5.24751,6.26487 1.52797,0.16351 3.25438,0.34899 3.83646,0.41218 2.19453,0.23821 8.91992,0.93623 14.02292,1.45542 2.91041,0.29611 6.3424,0.71832 7.62666,0.93825 7.33153,1.25552 11.35727,4.6883 12.18071,10.38658 0.33411,2.31216 -0.16513,5.81203 -1.33499,9.35893 -0.90331,2.7387 -4.3439,9.70778 -6.16635,12.49023 -7.24805,11.06603 -17.25782,16.53819 -32.94353,18.00964 -2.04531,0.19187 -17.97476,0.48817 -18.12396,0.33712 z m 83.34375,8e-5 c -0.0728,-0.0735 -1.73964,-0.20104 -3.70417,-0.28336 -4.46675,-0.18716 -7.23156,-0.54817 -10.44924,-1.3644 -4.60121,-1.1672 -6.91293,-2.88853 -8.66857,-6.45475 -0.99343,-2.01794 -1.26789,-4.7006 -0.73258,-7.1603 0.25699,-1.18077 3.77325,-10.19012 4.12427,-10.56715 0.10795,-0.11594 -0.28892,-0.0382 12.26386,-2.40353 5.44455,-1.02594 9.94543,-1.8191 10.00194,-1.76259 0.0565,0.0565 -0.45379,1.39626 -1.13403,2.9772 -1.95784,4.55029 -1.85685,5.9487 0.50363,6.97503 2.06756,0.89896 5.34641,1.12359 14.33135,0.98181 9.38241,-0.14804 10.91737,-0.35275 13.678,-1.82414 2.89896,-1.54513 5.4972,-5.36988 5.71757,-8.41659 0.2228,-3.08009 -0.81669,-3.58597 -8.94453,-4.35296 -0.80037,-0.0755 -3.12209,-0.31772 -5.15938,-0.53821 -5.40758,-0.58526 -6.01247,-0.64934 -8.82253,-0.93461 -1.40502,-0.14264 -3.0308,-0.31569 -3.61288,-0.38457 -0.58209,-0.0689 -1.65365,-0.18374 -2.38125,-0.25526 -8.03225,-0.78947 -11.00836,-1.88301 -13.17422,-4.84072 -1.16379,-1.58931 -1.77474,-3.62841 -1.77474,-5.92335 0,-7.79558 7.17526,-21.99923 14.24942,-28.20716 6.95561,-6.10388 14.41593,-8.84327 26.49641,-9.72934 3.37886,-0.24783 18.73284,-0.1431 22.35729,0.15251 13.27939,1.08305 18.02636,5.68632 15.67024,15.19581 -0.67313,2.71672 -2.68967,8.20853 -3.10936,8.46791 -0.22873,0.14137 -3.73536,0.83443 -15.339,3.03165 -3.1287,0.59244 -5.94707,1.13391 -6.26306,1.20328 -0.55409,0.12164 -0.54195,0.0454 0.34216,-2.14718 1.1635,-2.88543 1.28209,-4.5547 0.39092,-5.50346 -1.54324,-1.64299 -4.17428,-1.99959 -14.04919,-1.90415 -8.4672,0.0818 -10.37444,0.3828 -13.17643,2.07935 -3.17302,1.92119 -5.86738,7.30573 -4.39331,8.77981 1.29017,1.29016 1.9199,1.39812 17.04057,2.92157 15.35314,1.54686 17.26944,1.87202 20.41639,3.46417 2.017,1.02049 4.26829,3.29881 5.13242,5.19404 1.05499,2.3139 1.21398,6.36204 0.38737,9.86366 -1.63793,6.9386 -6.53873,15.82335 -11.66225,21.14279 -4.73842,4.9196 -8.72823,7.4366 -15.10541,9.52938 -4.29601,1.40981 -7.59962,2.06622 -13.45602,2.67362 -1.64232,0.17034 -17.85482,0.46247 -17.99166,0.32419 z m -276.10626,-1.21529 c 0.0849,-0.26755 4.07699,-9.16747 8.8713,-19.7776 l 8.71693,-19.29115 25.07933,-0.13229 c 28.08023,-0.14812 26.14636,-0.009 29.18656,-2.09312 2.77476,-1.90178 5.66015,-6.42157 7.38121,-11.56226 1.78067,-5.31874 1.17904,-8.70044 -1.79668,-10.09864 -0.86574,-0.40679 -2.28891,-0.45152 -14.42241,-0.45334 l -13.4619,-0.002 -4.13289,9.45015 -4.1329,9.45016 -10.63842,0.009 -10.63842,0.009 0.74224,-1.65365 c 7.00246,-15.60122 16.28804,-36.09654 16.42475,-36.25304 0.0978,-0.11196 11.83865,-0.20013 26.09077,-0.19593 27.7109,0.008 28.26631,0.0312 32.53849,1.34854 2.74251,0.84569 4.28932,1.72568 5.9468,3.38316 2.06618,2.06618 2.6911,3.73609 2.84144,7.59295 0.12451,3.19472 -0.25731,5.69117 -1.45389,9.50609 -1.5912,5.07306 -7.89879,18.83987 -11.10578,24.23923 -4.78414,8.05474 -10.28602,12.38795 -18.31501,14.42467 -4.8147,1.22135 -7.38233,1.36128 -25.6802,1.3995 -9.38283,0.0196 -17.14034,0.12163 -17.23884,0.22674 -0.0985,0.10511 -2.40874,4.86431 -5.13379,10.57601 l -4.95467,10.38489 h -10.43421 c -10.00842,0 -10.42792,-0.0198 -10.27981,-0.48645 z m 71.84792,0.28009 c 0,-0.11351 10.55034,-13.06155 23.44521,-28.77344 12.89484,-15.71189 28.15876,-34.31183 33.91979,-41.33321 l 10.47462,-12.76615 h 13.73116 13.73119 l -0.16463,1.52136 c -0.0905,0.83674 -0.64039,7.35541 -1.22192,14.48593 -2.13371,26.16366 -5.27627,64.07143 -5.43415,65.55053 l -0.1624,1.52135 h -11.74797 c -11.0634,0 -11.74798,-0.0273 -11.74798,-0.46838 0,-0.25761 0.59706,-5.40707 1.32681,-11.44323 0.72974,-6.03617 1.56302,-12.93938 1.85174,-15.34047 0.28874,-2.4011 0.76337,-6.33016 1.05478,-8.73125 2.55345,-21.03959 3.1685,-26.28846 3.08968,-26.36729 -0.0784,-0.0784 -33.59341,42.71392 -33.73639,43.0749 -0.048,0.12128 5.50931,0.25145 12.34964,0.28926 l 12.43692,0.0687 -19.97958,9.45886 -19.97959,9.45885 h -11.61846 c -6.39017,0 -11.61847,-0.0929 -11.61847,-0.20637 z" style="fill:currentColor" transform="translate(869.3 -450.8) scale(3.77953)"/>
</svg>