<svg xmlns="http://www.w3.org/2000/svg" viewBox="0 0 16.933 16.933">
  <defs/>
  <path fill="#3b0087" d="M7.82 16.887c-.417-.083-.837-.296-2.558-1.301-.947-.553-2.111-1.23-2.587-1.506-.476-.275-.969-.59-1.094-.7a2.248 2.248 0 01-.663-1.035c-.1-.323-.105-.5-.103-3.789 0-2.131.021-3.538.054-3.682a2.35 2.35 0 01.605-1.076c.202-.199.971-.672 3.176-1.953C6.25.915 7.644.129 7.747.098c.104-.032.356-.07.56-.086.691-.052.767-.017 3.939 1.822 2.406 1.394 2.941 1.726 3.187 1.973.32.322.532.715.625 1.157.077.365.082 6.704.006 7.112a2.54 2.54 0 01-.63 1.2c-.181.182-.913.636-2.656 1.65-2.93 1.705-3.165 1.831-3.598 1.934a3.928 3.928 0 01-1.36.027zm-1.865-6.15c.1-.034.579-.344 1.066-.69.96-.681 1.15-.783 1.458-.783.272 0 .427.086 1.416.792.865.616 1.096.74 1.377.737.385-.004.813-.31.93-.667.096-.29.04-.717-.125-.932-.156-.206-2.544-2.002-2.933-2.207-.376-.198-.921-.214-1.297-.039-.155.073-.878.575-1.606 1.117-1.177.875-1.34 1.014-1.47 1.256-.218.41-.175.775.133 1.128a.974.974 0 001.051.288z"/>
</svg>