<svg xmlns="http://www.w3.org/2000/svg" viewBox="0 0 139.517 27.074">
  <defs/>
  <path fill="#3b0087" d="M11.2 26.999c-.666-.132-1.337-.473-4.09-2.08a1586.2 1586.2 0 00-4.136-2.407c-.761-.44-1.548-.944-1.749-1.119-.49-.427-.857-1-1.06-1.656-.159-.516-.167-.8-.165-6.057.002-3.408.035-5.657.088-5.887.14-.61.514-1.274.966-1.72.323-.319 1.553-1.076 5.078-3.123C8.69 1.463 10.919.206 11.085.156c.165-.05.568-.111.895-.136 1.105-.085 1.226-.028 6.297 2.911 3.846 2.23 4.703 2.761 5.095 3.156a3.663 3.663 0 011 1.849c.123.584.132 10.718.01 11.372-.123.655-.543 1.457-1.007 1.919-.291.29-1.46 1.016-4.248 2.638-4.683 2.725-5.059 2.927-5.753 3.09-.586.139-1.592.159-2.174.044zm-2.98-9.832c.158-.054.924-.551 1.703-1.104 1.535-1.09 1.838-1.252 2.331-1.252.435 0 .683.138 2.264 1.266 1.383.985 1.753 1.184 2.202 1.179.615-.007 1.3-.497 1.487-1.066.154-.465.063-1.147-.2-1.49-.25-.33-4.067-3.2-4.69-3.53-.6-.316-1.473-.342-2.073-.061-.248.116-1.403.919-2.568 1.785-1.882 1.4-2.142 1.622-2.349 2.01-.35.653-.282 1.238.212 1.802a1.557 1.557 0 001.68.461zm89.715 3.696c-1.59-.3-2.613-.813-3.627-1.817-.598-.592-.798-.86-1.115-1.5-.551-1.11-.697-1.82-.693-3.37.004-1.531.122-2.071.734-3.342.381-.792.515-.975 1.242-1.699.695-.692.932-.868 1.619-1.204 1.324-.647 2.579-.868 4.123-.726 2.397.22 4.378 1.554 5.322 3.584.4.86.546 1.484.602 2.582.04.783.023 1.037-.085 1.295-.241.573-.198.568-4.964.568-4.718 0-4.362-.054-4.075.616.445 1.038 1.536 1.665 2.904 1.669 1.151.003 2.048-.363 2.726-1.113.461-.51.465-.511.829-.452.811.131 1.57.635 1.814 1.204.065.15.117.492.116.762-.002 1.292-1.138 2.343-3.055 2.823-.95.238-3.436.305-4.417.12zm3.663-8.283c0-.837-.7-1.784-1.482-2.003-1.056-.296-2.08.011-2.687.806-.302.396-.632 1.23-.544 1.373.022.036 1.092.054 2.377.041l2.336-.024zm-68.45 8.187c-1.652-.354-2.735-1.43-3.015-2.994-.302-1.693.514-3.144 2.234-3.974 1.237-.596 2.693-.89 4.906-.99l1.248-.056v-.286c0-.669-.524-1.378-1.149-1.553-.606-.17-1.77-.072-2.28.19-.469.242-.675.442-1.006.976l-.223.36h-.616c-1.149 0-2.054-.367-2.441-.99-.166-.266-.2-.433-.198-.957.003-.854.239-1.377.89-1.98.862-.798 2.161-1.204 4.187-1.31 3.99-.208 6.313.658 7.323 2.73.575 1.18.6 1.46.574 6.275l-.023 4.233-.298.146c-.164.08-.597.19-.962.244-.837.125-1.613.002-2.232-.351-.49-.28-.764-.6-1.062-1.245l-.205-.442-.357.422c-1.134 1.345-3.298 1.98-5.295 1.552zm4.212-3.147c.766-.343 1.156-.975 1.226-1.99l.046-.677-.923.05c-1.541.085-2.252.305-2.7.837-.209.249-.227.325-.196.81.039.616.23.878.795 1.089.42.156 1.263.1 1.752-.119zm78.95 3.205c-2.237-.407-3.519-2.121-3.116-4.167.244-1.244 1.012-2.057 2.501-2.65 1.132-.452 3.305-.783 5.363-.817.716-.012.972-.046 1.004-.13.097-.252-.138-1.636-.355-2.094-.277-.585-.91-1.164-1.55-1.42-.413-.164-.634-.191-1.54-.19-.906.003-1.133.032-1.567.202-.902.352-1.606.928-2.047 1.675-.238.401-.211.39-.626.274-1.004-.278-.962-1.424.086-2.395.608-.562 1.45-1.007 2.375-1.254.945-.252 2.792-.274 3.64-.043 1.39.378 2.395 1.159 2.922 2.268.52 1.094.55 1.44.55 6.218v4.27l-.217.083c-.365.139-.842.097-1.085-.094-.346-.272-.474-.603-.544-1.41l-.064-.742-.138.254c-.41.756-1.566 1.611-2.644 1.957-.753.242-2.194.342-2.948.205zm2.83-1.58c1.105-.325 2.15-1.174 2.568-2.085.227-.495.375-1.344.378-2.159l.002-.529h-.656c-.9 0-2.465.146-3.281.305-2.04.397-2.956 1.089-3.068 2.32-.136 1.501 1.086 2.447 3 2.32a6 6 0 001.058-.172zm13.054 1.5c-1.189-.322-2.177-.994-2.783-1.894l-.28-.417-.03.938c-.026.842-.048.957-.221 1.13-.159.158-.286.193-.706.193-.457 0-.535-.026-.718-.237l-.204-.238V2.615l.233-.09c.293-.113.809-.05 1.09.135.118.078.287.3.376.495.148.326.16.601.165 3.697l.005 3.344.18-.254c.1-.14.452-.524.784-.855 1.985-1.984 5.44-1.944 7.513.085 1.204 1.178 1.808 2.646 1.906 4.63.165 3.316-1.334 5.894-3.968 6.83-.854.302-2.439.356-3.341.112zm2.541-1.697c1.814-.625 2.872-2.373 2.871-4.745 0-1.133-.142-1.796-.573-2.667-.75-1.518-2.026-2.33-3.661-2.328-1.305.002-2.256.38-3.113 1.236a5.232 5.232 0 00-.831 1.113l-.313.596v1.656c0 1.844.067 2.307.448 3.091.517 1.065 1.761 1.998 2.944 2.207.628.112 1.654.038 2.228-.16zm-87.787 1.558c-.44-.166-.786-.498-1.008-.97-.177-.374-.18-.474-.203-6.113l-.024-5.733.32-.162c.176-.09.522-.205.769-.257 1.648-.35 3.09.337 3.62 1.723l.14.367.774-.78c1.148-1.158 2.035-1.528 3.61-1.507 1.418.02 2.292.353 3.141 1.198.62.617.993 1.295 1.24 2.256.133.519.15 1.033.15 4.57v3.985l-.256.5c-.195.381-.353.559-.67.755-.39.242-.474.259-1.404.285-.56.016-1.141-.013-1.342-.067-.432-.117-.891-.507-1.138-.969-.18-.335-.187-.459-.232-3.69-.041-2.924-.066-3.388-.194-3.68-.317-.723-.829-1.018-1.66-.958-.655.047-1.14.27-1.516.698l-.267.304v3.21c0 2.002-.035 3.373-.092 3.642-.114.53-.513 1.069-.966 1.305-.283.148-.512.18-1.397.196-.77.013-1.15-.016-1.395-.108zm16.107.047c-.737-.222-1.183-.79-1.33-1.694-.123-.765-.12-9.168.005-9.882.125-.722.49-1.26 1.046-1.544.382-.195.516-.215 1.44-.215 1.175 0 1.5.088 1.935.522.611.611.607.566.607 6.166 0 3.985-.023 5.064-.115 5.334-.193.568-.508.953-.97 1.183-.39.194-.523.214-1.408.207-.538-.004-1.083-.038-1.21-.077zm7.302-.027c-.387-.123-.945-.69-1.1-1.116-.102-.281-.128-1.312-.15-6.03l-.027-5.69.323-.165c.744-.38 1.956-.437 2.832-.135.591.204 1.12.715 1.454 1.406l.286.591.3-.407c.638-.863 1.417-1.438 2.346-1.73.686-.215 2.077-.23 2.83-.032 1.028.271 1.921.968 2.39 1.866.133.254.26.46.284.46.023-.001.171-.193.329-.425a6.43 6.43 0 01.79-.89c.896-.829 1.807-1.164 3.14-1.156.46.003 1.032.05 1.273.106 1.493.346 2.522 1.378 2.992 3.002.127.442.15 1.02.176 4.473.033 4.375.01 4.664-.43 5.237-.433.564-.785.7-1.911.733-1.138.034-1.563-.063-2.028-.46-.633-.543-.639-.577-.689-4.437-.043-3.378-.047-3.435-.24-3.795-.47-.884-1.904-.93-2.698-.089l-.27.285-.03 3.43c-.028 2.921-.053 3.481-.171 3.785-.215.554-.484.857-.968 1.094-.42.206-.505.216-1.527.188-1-.028-1.113-.048-1.477-.262-.402-.236-.684-.599-.853-1.098-.06-.176-.112-1.533-.143-3.665-.046-3.186-.059-3.404-.218-3.674-.266-.452-.567-.628-1.142-.67-.426-.03-.584 0-.97.19-.255.124-.56.34-.678.482l-.216.256v3.322c0 3.823-.023 3.991-.623 4.592-.206.206-.49.39-.69.445-.428.119-2.105.107-2.496-.017zm38.502-.016a.706.706 0 01-.296-.362c-.035-.126-.065-4.124-.065-8.883 0-6.987.022-8.674.11-8.763.183-.182.981-.14 1.26.067.52.384.491-.119.515 9.109l.023 8.44-.199.23c-.161.188-.284.237-.657.262-.307.02-.536-.013-.69-.1zM63.391 5.919c-.808-.204-1.544-.85-1.75-1.534-.138-.463-.137-1.209.002-1.673.15-.502.734-1.126 1.281-1.37.372-.166.59-.2 1.302-.202.813-.002.885.012 1.44.294.448.228.646.39.853.7.88 1.314.34 3.168-1.069 3.664-.466.164-1.619.232-2.059.12z"/>
</svg>