<svg xmlns="http://www.w3.org/2000/svg" viewBox="0 0 59.8 55.8">
  <path fill="#00a3a6" d="m-764.6 1553.7 1.4 9 1.5 9.3-.3 1.5a22.7 22.7 0 0 0 8.4 22.7 22.6 22.6 0 0 0 17.4 4.7 23 23 0 0 0 20.3-20 31 31 0 0 0-.3-8.4c-.2-.9-.2-1 1.1-9.8l1.3-9-8.2 1.2-8.1 1.2-.8-.2c-2-.8-4.6-1.3-7.2-1.4-3.1 0-5.8.3-8.5 1.2l-1.3.4-8.3-1.2-8.4-1.2zm4.6 4.5 6.2.9h.4l-1.3 1.4c-3.6 3.9-4 4.3-4 4-.2-.2-1.3-6.2-1.3-6.3zm41.5.1a65.3 65.3 0 0 1-1.2 6.5 92.4 92.4 0 0 1-5.2-5.5l6.4-1zm-20.6 3.7a15.6 15.6 0 0 1 15.5 12.6c.3 1.4.3 5 0 6.4a15.4 15.4 0 0 1-13 12.4c-1.2.2-4 .2-5 0a15.8 15.8 0 0 1-11.5-8.5 15.2 15.2 0 0 1-1.6-7.7c.1-2 .3-3.1.8-4.8A15.7 15.7 0 0 1-739 1562zm-5.7 5.8v20l8.7-5 8.6-5-1.1-.7-16-9.2zm30.6 30.7c-1.6 0-5.1-.2-11 3.6-5.8 3.9-15.4.6-15.4.6 1.6 1.5 5.2 8.5 19.5 1.8.3-.2 12-5.3 12 1.9 0 4 4.3 4.1 4.3 0 0-7.1-7.8-8-9.4-7.9z" transform="translate(764.6 -1553.7)"/>
</svg>
