
<svg xmlns="http://www.w3.org/2000/svg" viewBox="0 0 4704.4 752">
  <path fill="currentColor" d="M-546.6 178.7c-2.2-.2-6.8-1.2-9-1.9a49.7 49.7 0 0 1-31.3-37 63.6 63.6 0 0 1-1.6-16c0-6.7.4-10.4 1.6-15.7a50.4 50.4 0 0 1 28.3-36 44.4 44.4 0 0 1 19.3-3.2c5.2.2 8.2.7 12.2 2.1a32.5 32.5 0 0 1 14.2 9.8c.1 0 .2-2 .2-4.5v-4.5h38.6V176h-38.6v-4.5l-.1-4.5-2.5 2.4c-5.1 5-11.2 8-18.7 9.1-2.5.4-10 .5-12.6.2zm21.4-36.2a18 18 0 0 0 11.7-13.2c.8-3 .8-7.9 0-10.8-1-3.7-2.4-6.3-5-9-2-1.8-2.7-2.4-4.6-3.3a20 20 0 0 0-16.8 0c-4.4 2.2-8 6.7-9.4 12a27 27 0 0 0 0 11.4c1.2 4.4 3.8 8.3 7.2 10.7 3.4 2.4 6.5 3.2 11.4 3 2.7 0 3.6-.1 5.5-.8zm466.6 36.2A58.4 58.4 0 0 1-89 167a51.6 51.6 0 0 1-19.8-34c-.6-4.4-.6-13.1 0-17.6a52.2 52.2 0 0 1 15.4-31 51.6 51.6 0 0 1 29.9-15c4.1-.7 15.2-.7 19.3 0A52 52 0 0 1 .4 123.3c0 5.9-.2 7.8-1.2 12.5L-1 137H-70.4l.6 1.1a23 23 0 0 0 6.5 6.3c6.7 3.5 16.5 4 23.8 1.1 2.1-.8 6.3-3.2 7.4-4.3.5-.5.7-.5 1.1-.2l12.7 10.7L-6 162.1l-1.2 1.3a52.4 52.4 0 0 1-24.2 13.4 63.7 63.7 0 0 1-17.6 2l-9.5-.1zm22.3-67.3c-.1-.5-.7-1.9-1.3-3-2-4.4-5.7-7.1-10.6-8.2-3-.6-8.5-.4-11.2.4a17 17 0 0 0-10.2 8.7L-71 112c0 .2 5 .3 17.4.3h17.3zm-421.1 12.5V71.8h38.6v9.9l.8-1A32 32 0 0 1-396.2 69a57 57 0 0 1 14 .5c14 3 23.8 13.4 27.3 29 1.6 7.2 1.5 5.9 1.6 43.2l.1 34.2h-38.6v-29c0-18.5-.1-29.7-.3-30.7-1.1-6.9-5.3-10.2-12.6-10.2-3.1 0-5 .4-7.3 1.6-1.9 1-4 3.4-5 5.7-1.9 3.8-1.8 2.9-1.8 34.3V176h-38.6zm119.8 0V71.8h38.6V176h-38.6zm55.3 0V71.8h38.6v9.5l2.4-2.3a33.4 33.4 0 0 1 17.2-9.4c3.2-.6 10.3-1 13.8-.5 6 .7 11.2 2.7 15.3 6 1.8 1.4 4.7 4.6 5.5 6.1.3.4.6.1 2.5-1.7A37.8 37.8 0 0 1-159 69c7.4 0 13.1 1.2 18.7 4a32.2 32.2 0 0 1 15 15.4c1.7 3.6 2.5 6.1 3.3 9.7 1.4 6.3 1.4 6.2 1.4 43.4V176H-159v-30.6c-.2-33.2 0-31.5-1.6-34.6a9.7 9.7 0 0 0-4-3.9c-2-.8-4.7-1.1-7.1-.8-5.1.7-8.1 3.5-9.7 9-.4 1.4-.5 3.8-.5 31.2l-.1 29.7h-38.6v-29.9c0-32.5 0-32.3-1.5-35.2-2.3-4.5-8.5-6.2-14.5-4-3 1.2-5.1 4-6.3 8.2l-.6 2v29.5l-.2 29.4h-38.6zm-40-60.5c-7-1.3-13.8-7.2-16.2-14a22.2 22.2 0 0 1 0-13.7A23.5 23.5 0 0 1-327 23.1c3-1.4 4.7-1.7 8.8-1.7 3.1 0 4 0 5.6.6a22.6 22.6 0 0 1 15 14.8c.7 2.6.8 8.2 0 10.9-2 7.3-8.2 13.6-15.3 15.5-2.3.6-7 .7-9.5.2z" transform="matrix(3.77953 0 0 3.77953 2224.2 -80.8)"/>
  <path fill="#00a3a6" d="M425.2 220.2c-18.6-1.8-32.9-9.8-40.7-22.9l-1-2c0-.3 14.9-9 15.3-9 0 0 .6.7 1 1.6 4.8 8.5 13.2 13.7 24.7 15.2 8.3 1.1 16.8.6 23-1.5 9-3 15.8-9.6 18.6-18 1.5-4.4 1.5-4.8 1.6-16.2l.2-10.6-1.8 2.4a43.3 43.3 0 0 1-27.8 17.6 52.4 52.4 0 0 1-54.3-23.6 56.5 56.5 0 0 1 .2-60c5-7.6 12.4-14.3 20.2-18.4a49.5 49.5 0 0 1 22.3-5.6c11.2-.4 20.3 2 28.7 7.6 3 2 8.4 7.3 10.7 10.5l1.6 2.2v-8.9l.1-8.8h18v52.8c-.2 57.7 0 54.4-1.6 60.5a43.5 43.5 0 0 1-24.2 29 57.8 57.8 0 0 1-17.9 5.7c-3.3.5-13.3.7-16.9.4zm12-60.2a36 36 0 0 0 30-28.4c.6-3.2.8-11 .2-14.7a36.3 36.3 0 0 0-24.2-28.7 33.6 33.6 0 0 0-12.6-1.7c-6.3 0-9 .4-13.6 2.1a36.7 36.7 0 0 0-21.7 22.6 33.8 33.8 0 0 0-1.7 12.3c0 5.4.5 8.3 1.9 12.5 2.1 6.5 7 13 12.8 17.4 2.5 2 7 4.3 10.2 5.3 5 1.6 13 2.2 18.6 1.3zm-367 18.3a50.4 50.4 0 0 1-33.1-18.8 50.7 50.7 0 0 1-10.5-42.3l.6-3.2c0-.7-1-7.5-3.2-21-1.8-10.8-3.3-19.8-3.2-19.9l18.7 2.7L58 78.5l3-1c5.9-2 12-2.7 18.8-2.5 6 .3 11.6 1.3 16.2 3l1.6.6 18.2-2.8 18.2-2.7c.1.1-1.2 9.1-2.8 20-2.9 19.7-3 20-2.6 21.9 1.1 6.3 1.4 13.6.8 18.7a51 51 0 0 1-59.1 44.6zM83 161.7c5-.6 10.3-2.7 14.5-5.4a34.4 34.4 0 0 0 14.7-22.2 54 54 0 0 0 0-14.5c-2-10-8.2-18.6-17-23.6A35 35 0 0 0 43 125.6c-.2 6.8.8 11.8 3.5 17.2A35.2 35.2 0 0 0 72 161.7c2.3.3 8.5.3 11 0zm-18.2-35v-22.1l.6.3 35.6 20.5 2.5 1.4L84.3 138 65 149c-.1 0-.2-10-.2-22.2zm57.5-36 1.2-7.2c-.1-.1-12.8 1.9-14.2 2.2-.6.1 0 .7 5.4 6.2l6.2 6 1.4-7.1zm-79.4-2.3 3-3.1-1-.2c-2-.3-13.7-2-13.8-1.9-.1.1 2.5 13.7 2.7 14.2.1.4 1-.4 9.1-9zm263.6 89.8a54.5 54.5 0 0 1-35.6-19 53 53 0 0 1-11.2-25.8c-.7-4.3-.7-14.7 0-19A52.8 52.8 0 0 1 313.5 69c14.7 0 26.3 4.7 36 14.6a54.9 54.9 0 0 1 15.8 39.8l-.2 7.6-.2 1h-87.4l.2 1.3a34.2 34.2 0 0 0 22.1 25.8c8.3 3 19.5 3.4 27.9 1a31.1 31.1 0 0 0 17.7-13.6l15.2 8.6-1.5 2.2c-8.6 12.1-20.6 19-36.2 20.9-4.2.5-12.3.4-16.4 0zm40.7-62.3c0-1-1-5.1-1.9-7.6A32.5 32.5 0 0 0 320 86.5c-2.9-.5-10.8-.4-14 .2a33.8 33.8 0 0 0-25.2 19 40.3 40.3 0 0 0-3 9.5l-.2 1.3H347.2v-.6zm202.4 62.6a54.2 54.2 0 0 1-46.9-47.8c-.4-3.6-.2-13.6.4-16.7a53.1 53.1 0 0 1 19.7-33.6A50 50 0 0 1 555 69.1c16.2 0 28.6 6 37.7 18.1l1.7 2.4v-9l.2-8.8h18V176h-18l-.1-8.9v-9l-1.8 2.4a44.6 44.6 0 0 1-37.8 18.1l-5.3-.1zm12.3-17.4a36.5 36.5 0 0 0 32.6-38.7 35.5 35.5 0 0 0-16-29.8 33.7 33.7 0 0 0-19.7-6 34 34 0 0 0-18.1 3.7 36.7 36.7 0 0 0-18.2 20.6c-1.7 5-2 6.6-2 13s.4 8.4 2 13c1.9 5.6 4.7 10 9.4 14.4 6.3 6 13.4 9.2 22.2 9.9 2.7.2 3.5.2 7.8-.1zm-409.5-37.2V71.8h18v7.4c0 8.5-.2 8 2.1 4.7 1.7-2.3 5.9-6.4 8.2-8a38.8 38.8 0 0 1 22-6.7 39.5 39.5 0 0 1 28 8.7 40.4 40.4 0 0 1 13.8 29.5c.1 1.8.3 16.7.3 35.9V176h-18v-31.7c0-19.6-.1-32.8-.3-34.8-1.3-14.8-10.6-23.2-25.8-23.2-8.7 0-15.7 2.6-21.3 7.8a29 29 0 0 0-8.3 16.7c-.5 2.8-.5 3.6-.6 34l-.1 31.2h-18V124zm482.6 0V71.8h18V176h-18zm6.4-71.5c-6-1.4-10.2-7.4-9.3-13.6.9-5.9 6.2-10.4 12.1-10.4 1.7 0 4.1.6 5.7 1.5a16 16 0 0 1 5.1 5.5 12.1 12.1 0 0 1-13.6 17z" transform="matrix(3.77953 0 0 3.77953 2224.2 -80.8)"/>
</svg>
