<svg xmlns="http://www.w3.org/2000/svg" xmlns:xlink="http://www.w3.org/1999/xlink" viewBox="0 0 128.07 24.28">
    <defs>
        <linearGradient id="aniverse-a">
            <stop offset="0" stop-color="#009cd9" />
            <stop offset="1" stop-color="#00518c" />
        </linearGradient>
        <linearGradient xlink:href="#aniverse-a" id="aniverse-b" gradientUnits="userSpaceOnUse" gradientTransform="translate(0 .1)"
            x1="48.24" y1="95.63" x2="71.77" y2="95.63" />
    </defs>
    <path style="line-height:1.25;-inkscape-font-specification:Futura"
        d="M62.62.28a2.32 2.32 0 00-2.27 2.36c0 1.29 1.02 2.35 2.27 2.35a2.33 2.33 0 002.27-2.35c0-1.3-1.02-2.36-2.27-2.36zM35.56 6.79c-3.38 0-5.72 2.91-5.72 6.3 0 3.4 2.38 6.33 5.77 6.33 1.34 0 2.74-.53 3.45-1.7h.05v1.31h4.05V7.18h-4.05v1.16a4.59 4.59 0 00-3.55-1.55zm18.06 0c-1.59 0-2.72.49-3.66 1.92h-.04V7.18h-4.06v11.85h4.06V12.9c0-1.48.46-2.75 2.11-2.75 2 0 1.83 1.99 1.83 3.12v5.77h4.06v-7.32c0-2.9-1.23-4.92-4.3-4.92zm33.07 0c-3.72 0-6.33 2.38-6.33 6.33 0 4.09 2.83 6.3 6.62 6.3 2.6 0 5.17-1.27 5.81-4.06h-3.9c-.44.78-1.07 1.08-1.93 1.08-1.68 0-2.55-.92-2.55-2.63h8.54v-.44c0-4.04-2.3-6.58-6.26-6.58zm23.35 0c-2.5 0-5.03 1.3-5.03 4.2 0 2.13 1.27 2.78 2.54 3.12 1.27.35 2.54.4 2.54 1.32 0 .64-.76.9-1.27.9-1 0-2.39-.6-3.21-1.2l-1.47 2.93a8.64 8.64 0 004.61 1.36c2.65 0 5.4-1.29 5.4-4.4 0-2.2-1.43-3.12-3.33-3.52-.55-.11-1.82-.23-1.82-1.04 0-.6.8-.8 1.27-.8.69 0 1.56.23 2.18.57l1.36-2.68a8.81 8.81 0 00-3.77-.76zm11.77 0c-3.72 0-6.33 2.38-6.33 6.33 0 4.09 2.83 6.3 6.62 6.3 2.6 0 5.17-1.27 5.82-4.06h-3.9c-.45.78-1.07 1.08-1.94 1.08-1.67 0-2.54-.92-2.54-2.63h8.53v-.44c0-4.04-2.3-6.58-6.26-6.58zm-19.21.23c-1.58 0-2.92.65-3.7 2.1h-.04V7.18H94.8v11.85h4.06v-4.78c0-2.03.55-3.58 2.8-3.58.63 0 1.16.07 1.72.4V7.01zm-42 .16v11.85h4.05V7.18zm5.05 0l6 11.85h2.58L80.2 7.18h-4.54l-2.72 6.08-2.74-6.08zm21.24 2.34c1.09 0 2.1.74 2.3 1.87h-4.7c.24-1.23 1.22-1.87 2.4-1.87zm35.12 0c1.1 0 2.1.74 2.3 1.87h-4.7c.24-1.23 1.22-1.87 2.4-1.87zm-85.38.92c1.65 0 2.61 1.22 2.61 2.68 0 1.5-.96 2.66-2.6 2.66-1.65 0-2.61-1.16-2.61-2.66 0-1.46.96-2.68 2.6-2.68z"
        font-weight="400" font-size="22.68" font-family="Futura" letter-spacing="0" word-spacing="0" fill="var(--bs-darkmode-text, #00518c)" />
    <g transform="translate(-47.81 -83.59)">
        <circle r="12.14" cy="95.73" cx="59.96" fill="url(#aniverse-b)" />
        <path d="M64.68 88.4l.38 1.92 1.91.38-1.91.37-.38 1.92-.37-1.92-1.92-.37 1.92-.38z" fill="#fff" />
        <path
            d="M47.94 93.99c-.16 1.08-.16 2.3-.01 3.37 0 0 4.83 2.94 10.5.5a12.18 12.18 0 01-10.49-3.87zm18.91.49c-4.72 11.22-15.2 10.1-15.2 10.1a12.02 12.02 0 004.01 2.5s9.22-1.78 11.2-12.6zm-3.1 2.27c-7.16 6.1-15.19 3.17-15.19 3.17.34.93.85 1.94 1.5 2.83 0 0 8.55 1.87 13.68-6z"
            opacity=".8" fill="#fff" />
        <path
            d="M67.96 90.73l.16.84.84.16-.84.17-.16.84-.17-.84-.84-.17.84-.16zM66.27 88.27l.11.58.58.11-.58.11-.11.58-.11-.58-.58-.11.58-.11z"
            fill="#fff" />
    </g>
</svg>