<?xml version="1.0" encoding="UTF-8"?>
<svg xmlns="http://www.w3.org/2000/svg" xmlns:xlink="http://www.w3.org/1999/xlink" viewBox="0 0 155 65" class="svg-logo aod">
  <defs>
    <path id="aod_a" d="M.032.04h60.314v50.153H.032z" />
    <path id="aod_c" d="M0 64.25h154.291V0H0z" />
  </defs>
  <g transform="translate(.5 -.162)" fill="none" fill-rule="evenodd">
    <path d="M27.521 42.923c-1.555 2.576-2.862 5.403-5.911 5.403-3.049 0-.684-3.33.374-5.34 2.22-3.496 3.298-5.465 5.848-5.59 3.045-.15 1.245 2.952-.31 5.527M55.645 21.42H18.748c-3.36 0-4.418 2.597-4.418 2.597s-1.018 1.82-2.862 5.318c-1.873 3.549 1.245 3.077 1.245 3.077h12.569c2.986 0 4.853-3.454 4.853-3.454s2.052-3.391 2.177-3.58c.126-.189 1.058-1.634 3.422-1.32 1.929.817.997 2.702.997 2.702l-.561 1.068s-2.178 4.208-2.924 5.402c-.748 1.194-2.738 1.507-2.738 1.507H11.032c-3.485 0-4.687 2.973-4.543 2.701.146-.272-4.79 8.817-6.097 11.182-1.244 2.451.872 2.451.872 2.451H39.22c1.928 0 2.612-1.572 2.612-1.572s14.56-24.938 15.432-26.571c.87-1.634-1.618-1.508-1.618-1.508M82.837 28.267c-.87 1.695-10.141 18.029-10.141 18.029s-2.118 3.014-4.42 1.822c-1.928-.785.997-5.34.997-5.34l3.483-5.968 6.098-10.554s1.618-2.575 3.797-2.01c2.178.566 1.057 2.324.186 4.02m20.41-6.847H66.347c-3.36 0-4.417 2.66-4.417 2.66L51.85 41.584s-2.614 4.586-3.858 7.037c-1.245 2.449.87 2.449.87 2.449H86.82a2.858 2.858 0 002.613-1.572s14.56-24.938 15.432-26.571c.87-1.633-1.619-1.508-1.619-1.508" fill="#B3BE18" />
    <g transform="translate(93.56)">
      <mask id="aod_b" fill="#fff">
        <use xlink:href="#aod_a" />
      </mask>
      <path d="M35.269 27.462c-.87 1.698-10.131 18.056-10.131 18.056s-2.114 3.02-4.413 1.825c-1.926-.786.995-5.348.995-5.348l3.48-5.977 6.09-10.57s1.616-2.579 3.791-2.012c2.176.566 1.057 2.327.188 4.026M51.945.347c-.35-.633-.435-.335-1.41 1.343-1.023 1.768-7.502 13.508-9.424 16.903-.093.167-1.036 1.897-3.273 1.897-6.215 0-18.203.01-19.08.01-3.356 0-4.227 2.58-4.227 2.58L4.275 40.693S1.665 45.287.423 47.74c-1.242 2.453.87 2.453.87 2.453h37.911a2.857 2.857 0 002.613-1.571s17.565-30.365 18.52-32.044c.314-.553-7.417-14.468-8.392-16.23" fill="#B3BE18" mask="url(#aod_b)" />
    </g>
    <mask id="aod_d" fill="#fff">
      <use xlink:href="#aod_c" />
    </mask>
    <path d="M23.527 59.103h2.188v-1.031h-2.188v1.03zm-2.189 5.146v-6.177c0-1.372.73-2.06 2.189-2.06h4.377v8.237h-2.189v-3.087h-2.188v3.087h-2.189zM29.545 64.25V58.07c0-1.37.73-2.059 2.189-2.059h4.377v8.237h-2.189v-6.178h-2.188v6.178h-2.189zM37.752 64.25v-8.238h1.642v8.237zM42.676 64.25V58.07c0-1.37.684-2.059 2.052-2.059h6.155v8.237h-2.05v-6.178h-1.026v4.12h-2.053v-4.12h-1.026v6.178h-2.052zM52.525 64.25V58.07c0-1.37.729-2.059 2.188-2.059h4.377v2.06h-4.377v1.03h2.737v2.059h-2.737v1.03h4.377v2.058h-6.565zM66.203 62.19h2.187v-4.118h-2.187v4.118zm-2.189 2.06v-6.178c0-1.372.73-2.06 2.189-2.06h4.377v6.178c0 1.372-.73 2.06-2.19 2.06h-4.376zM72.221 64.25V58.07c0-1.37.73-2.059 2.187-2.059h4.38v8.237h-2.191v-6.178h-2.189v6.178h-2.187zM85.9 62.19h2.187v-4.118H85.9v4.118zm-2.189 2.06v-8.238h6.566v6.178c0 1.372-.73 2.06-2.19 2.06H83.71zM91.918 64.25V58.07c0-1.37.73-2.059 2.187-2.059h4.379v2.06h-4.379v1.03h2.737v2.059h-2.737v1.03h4.379v2.058h-6.566zM100.125 64.25V58.07c0-1.37.684-2.059 2.052-2.059h6.155v8.237h-2.052v-6.178h-1.025v4.12h-2.052v-4.12h-1.026v6.178h-2.052zM112.161 59.103h2.19v-1.031h-2.19v1.03zm-2.187 5.146v-6.177c0-1.372.729-2.06 2.187-2.06h4.378v8.237h-2.189v-3.087h-2.189v3.087h-2.187zM118.18 64.25V58.07c0-1.37.73-2.059 2.19-2.059h4.376v8.237h-2.19v-6.178h-2.187v6.178h-2.188zM128.576 62.19h2.189v-4.118h-2.189v4.118zm-2.188 2.06v-8.238H132.953v6.178c0 1.372-.729 2.06-2.188 2.06h-4.377z" fill="#4A4A49" mask="url(#aod_d)" />
  </g>
</svg>