<svg xmlns="http://www.w3.org/2000/svg" viewBox="0 0 64 64">
  <path fill="#abbe45" d="M1 64c-.3 0-.4-.1-.6-.5C.1 63 0 56 .2 55.1c.2-1 .7-1.3 6-4.5 5.5-3.3 5.3-3.1 5.3-4.8 0-2.2-.1-3.7-.3-3.9l-.6-.4c-.4-.2-.5-.1-1 .3-.7.5-.8.8-.9 2.6 0 1.8-.1 2.5-.6 3.2-.3.4-.7.7-3.8 2.6-3.3 2-3.5 2-3.7 2a1 1 0 01-.4-.7 25.8 25.8 0 01-.2-4.7c.3-1 .3-1.1 10-6.9l9.2-5.4c.8-.3.8-1 .8 10.4 0 5.5 0 7.2-.2 7.6l-.2.5-9.2 5.5C4.3 62.2 1 64 .9 64zM11 56a9 9 0 00.4-3.7c0-1.9-.1-2.4-.6-2.6-.8-.2-1.8.9-2 2-.2 1.8-.1 4.5.2 5 .4.8 1.5.4 2-.7zm11.7-5.1c-.4-.1-.6-.8-.6-2.2-.2-5.3-.2-15 0-15.4 0-.3.4-.7.7-1a489.3 489.3 0 0118.9-11c.1.1.2 1.3.2 10.4 0 5.5 0 7.2-.2 7.6l-.2.5-9.3 5.6a117 117 0 01-9.5 5.5zm10.3-8.2c.2-.4.2-1.7.2-4.4l-.3-9c-.2-.7-.6-.9-1-.8-.8.2-1.2.7-1.4 1.6-.1.7 0 11.8.1 12.7.2.9.3 1 .9 1.1.6 0 1.2-.4 1.5-1.2zm11.8-5c-.5 0-.7-.7-.7-3-.2-4.6-.2-14.3 0-14.7 0-.2.3-.5.5-.8L50 16c5.2-3.1 5.2-3.2 5.4-4V5.9a106.6 106.7 0 01-.1-5.9c0-.1 3.3 1.7 6.5 3.7L64 5v21.1c-.2.4-.4.6-9.4 6-6.2 3.7-9.4 5.6-9.6 5.6zM55 30c.4-.7.5-1.6.4-7-.2-6.6-.2-6.8-.4-7.3-.2-.4-.5-.4-1.2-.3-.4.2-1 1-1.1 1.6-.1.6 0 11.6.1 12.5.2 1 .2 1 .8 1.2.5.2 1-.1 1.4-.7z"/>
</svg>