<svg xmlns="http://www.w3.org/2000/svg" xmlns:xlink="http://www.w3.org/1999/xlink" viewBox="0 -120 491.1 491.1">
  <defs>
    <linearGradient gradientTransform="translate(292.6 -353.8)" gradientUnits="userSpaceOnUse" y2="375.4" x2="64.6" y1="587.1" x1="64.6" id="anionetransicon" xlink:href="#anioneicon"/>
    <linearGradient id="anioneicon">
      <stop offset="0" stop-color="currentColor"/>
      <stop offset="1" stop-color="currentColor" stop-opacity="0"/>
    </linearGradient>
  </defs>
  <path d="m168.6 21.5-165 163h26.1l41.8-42.2h49.2L103 184.4h64l60.8-145.9c3.2-7.7 1.3-17-11-17zm-1 28.6H184l-2.4 4.7h-8.5c-9.5 0-18.3 6.7-22.4 16.4l-22.3 53h-39l69-69.7c2.4-2.4 5.5-4.4 9.2-4.4zm86.2 11.4c-10 0-21 8.2-24.7 18.3l-37.6 104.6h58l33.4-93c3.4-9.6 11-16.6 22.5-16.6h43.3L347 80h-7.2c-13.3 0-21.8 8-25.8 19l-30.4 85.5H340l37.6-104.6c3.6-10.1-1.6-18.3-11.7-18.3zm147.6 0-44 123h56.8l37-103.2c4.4-12.4-1-19.8-12.6-19.8z" fill="url(#anionetransicon)" stroke="currentColor" stroke-width="2" stroke-linecap="round"/>
  <circle r="27" cy="28.5" cx="462.6" fill="#a00" stroke="currentColor" stroke-width="2" stroke-linecap="round"/>
</svg>