<svg xmlns="http://www.w3.org/2000/svg" xmlns:xlink="http://www.w3.org/1999/xlink" viewBox="0 0 1033.5 185.9">
  <defs>
    <linearGradient gradientUnits="userSpaceOnUse" y2="375.4" x2="64.6" y1="587.1" x1="64.6" id="anionetrans" xlink:href="#anione" gradientTransform="translate(292.6 -353.8)"/>
    <linearGradient id="anione">
      <stop offset="0" stop-color="currentColor"/>
      <stop offset="1" stop-color="currentColor" stop-opacity="0"/>
    </linearGradient>
  </defs>
  <path d="m168.6 21.5-165 163h26.1l41.8-42.2h49.2L103 184.4h64l60.8-145.9c3.2-7.7 1.3-17-11-17zm424.6 0c-10 0-21.1 8.2-24.7 18.3L523 166.2c-3.7 10 1.5 18.2 11.6 18.2H647c10 0 21.1-8.1 24.7-18.2L717 39.8c3.7-10.1-1.6-18.3-11.6-18.3zm51.5 13.3h43.4l-1.8 5.1H679c-13.2 0-21.9 8.1-25.7 19L613 172.3h-20.3c-7.9 0-12.2-4.6-9-13.9l38.5-107c3.5-9.6 11-16.6 22.5-16.6zM167.6 50.1H184l-2.4 4.7h-8.5c-9.5 0-18.3 6.7-22.4 16.4l-22.3 53h-39l69-69.7c2.4-2.4 5.5-4.4 9.2-4.4zm86.2 11.4c-10 0-21 8.2-24.7 18.3l-37.6 104.6h58l33.4-93c3.4-9.6 11-16.6 22.5-16.6h43.3L347 80h-7.2c-13.3 0-21.8 8-25.8 19l-30.4 85.5H340l37.6-104.6c3.6-10.1-1.6-18.3-11.7-18.3zm147.6 0-44 123h56.8l37-103.2c4.4-12.4-1-19.8-12.6-19.8zm343.2 0a28.7 28.7 0 0 0-24.8 18.3l-37.6 104.6h58l33.4-93c3.4-9.6 11-16.6 22.5-16.6h43.3l-1.8 5.1h-7.1c-13.3 0-22 8.1-25.8 19l-30.4 85.5h56.5l37.6-104.6c3.6-10.1-1.6-18.3-11.7-18.3zm166.7 0A29.3 29.3 0 0 0 886 80.2l-30.7 85.5c-3.7 10.4 1.6 18.7 12 18.7h107.6c10.3 0 21.7-8.3 25.4-18.7l7.3-20.3h-51.3l-4.1 11.5a24 24 0 0 1-20.8 15.3h-18.8l12.4-34.6h68.6c9.8 0 19-6 22.8-16.7l14.6-40.7c3.7-10.3-1.7-18.7-12-18.7zm36.2 13.2h19.8c8.5 0 12.9 6.8 9.8 15.3l-7.3 20.5a24 24 0 0 1-20.8 15.2h-19.8zm-495.3 42.4-4.7 13.2h77.2l4.8-13.2z" fill="url(#anionetrans)" stroke="currentColor" stroke-width="2" stroke-linecap="round"/>
  <circle r="27" cy="28.5" cx="462.6" fill="#a00" stroke="currentColor" stroke-width="2" stroke-linecap="round"/>
</svg>