<svg xmlns="http://www.w3.org/2000/svg" viewBox="0 0 84.6 26.6">
  <path d="M39.08 26.46a29.04 29.04 0 0 1-11.33-3 19.2 19.2 0 0 1-5.44-3.86c-1.26-1.27-1.89-2.1-2.01-2.68-.1-.46.08-.75.5-.75.27 0 .71.26 1.47.85 3.32 2.58 7.94 4.45 13.08 5.28a41.02 41.02 0 0 0 19.1-1.46c1.1-.37 1.8-.66 2.93-1.21.74-.37.97-.46 1.21-.47.29-.03.3-.02.46.15.23.25.22.58-.03.96-.23.35-.64.76-1.25 1.25-3.13 2.52-8.22 4.33-13.68 4.86-.98.1-4.15.14-5.01.08zm20.48-2.98c-.32-.27-.26-.57.25-1.42a11.28 11.28 0 0 0 1.4-3.31c.11-.7-.07-.93-.84-1.07-.72-.12-2.41-.03-3.48.19-.2.04-.55.07-.78.07-.4 0-.45 0-.55-.12a.7.7 0 0 1-.15-.33c-.02-.18 0-.23.15-.4a7.1 7.1 0 0 1 4.59-1.6c1.57 0 2.84.38 3.26.98.15.22.16.24.18.97.01.54 0 .87-.07 1.21a7.9 7.9 0 0 1-1.45 3.24 8.82 8.82 0 0 1-1.74 1.59c-.4.2-.55.2-.77 0zM.25 15.84a.48.48 0 0 1-.17-.09C0 15.7 0 15.35 0 9.7c0-3.29.02-6 .03-6.03.09-.13.25-.16 1.03-.16.45 0 .84.02.88.03.11.04.15.16.27.74.06.3.13.56.15.58.02.02.09-.08.16-.22.16-.3.63-.8.94-.97a2.6 2.6 0 0 1 1.71-.34c1.36.21 2.3 1.37 2.72 3.33.1.5.13 2.16.04 2.8a5.27 5.27 0 0 1-1.14 2.78c-.57.6-1.1.87-1.83.9-.53.04-.88-.02-1.28-.22a2.9 2.9 0 0 1-1.03-.97 1.1 1.1 0 0 0-.2-.26c-.02 0-.04.87-.04 1.94 0 1.08-.02 1.99-.04 2.05-.07.17-.25.2-1.18.2-.47 0-.9-.01-.94-.03zm4.1-4.82c.33-.1.64-.44.82-.86.2-.48.28-.95.31-1.7.05-1.3-.25-2.4-.75-2.83-.16-.14-.58-.3-.77-.3-.97 0-1.6 1.11-1.6 2.83 0 1.23.25 2.1.72 2.58.34.33.81.44 1.28.28zm32 2.09a4.08 4.08 0 0 1-3.18-3.16c-.57-2.26.05-4.64 1.52-5.83a3.65 3.65 0 0 1 4.67.01c.56.5.89.96 1.2 1.72.25.62.35 1.16.38 2.02.02.4.01.77 0 .83-.07.27.07.25-2.78.25-1.43 0-2.61.02-2.63.04-.05.08.12.88.25 1.23.18.47.52.83.87.93.75.21 1.47-.13 1.71-.82.17-.47.19-.5.38-.52.14-.01 1.16.2 1.78.35.26.07.29.2.12.62-.18.48-.42.87-.75 1.22a3.45 3.45 0 0 1-2.7 1.13c-.35.01-.73 0-.85-.02zm2.1-5.9c0-.45-.28-1.28-.55-1.6a1.16 1.16 0 0 0-.83-.36c-.47 0-.83.22-1.1.67-.16.29-.35.85-.4 1.2l-.03.23h2.91zM9.28 12.84l-.12-.1V8.2c0-4.18 0-4.56.07-4.61.1-.08 1.66-.12 1.85-.04.15.06.2.17.31.78.05.27.1.5.13.52.01.02.1-.1.18-.26.2-.37.65-.85.96-1a2.8 2.8 0 0 1 1.87-.18c.37.1.52.23.52.44 0 .15-.3 1.4-.43 1.81-.1.3-.16.33-.6.16a3 3 0 0 0-1.04-.26c-.67 0-1.1.35-1.3 1.1-.08.23-.09.6-.11 3.2a22.69 22.69 0 0 1-.08 2.99c-.05.04-.32.06-1.08.07-.98.01-1.02 0-1.13-.08zm6.6.04a.23.23 0 0 1-.13-.1c-.02-.05-.05-8.19-.03-9.02 0-.23.14-.26 1.26-.26 1.11 0 1.13.01 1.15.3v4.54c0 4.35 0 4.41-.09 4.5-.08.08-.14.09-1.08.09-.55 0-1.04-.02-1.09-.05zm3.92 0a.3.3 0 0 1-.15-.15c-.03-.08-.04-1.76-.04-4.58 0-3.77 0-4.46.06-4.54.06-.08.13-.09.92-.1.58-.01.9 0 .98.04.13.05.15.1.3.9l.11.42c.02.01.1-.11.19-.28.28-.56.74-.98 1.3-1.18.21-.08.37-.1.78-.1.55 0 .77.04 1.23.27a3 3 0 0 1 .98 1c.1.17.18.3.2.3.01 0 .09-.09.17-.2a3.24 3.24 0 0 1 1.59-1.28 3.03 3.03 0 0 1 1.6 0c.92.32 1.46 1 1.8 2.27.08.35.09.45.1 3.7.02 2.9 0 3.37-.05 3.45-.06.08-.12.09-1.08.1-.98.01-1.03.01-1.14-.08l-.12-.1-.02-3.02c-.01-2.98-.01-3.03-.11-3.32-.2-.6-.53-.86-1.08-.86-.56 0-.96.3-1.17.89-.15.42-.17.96-.17 3.67 0 2.59 0 2.65-.1 2.74-.08.08-.14.09-1.07.09-1 0-1.11-.02-1.2-.18a35.6 35.6 0 0 1-.05-2.9c0-2.8-.01-3.14-.16-3.6-.2-.64-1-.92-1.63-.57-.41.22-.63.68-.7 1.49-.03.23-.05 1.58-.05 3v2.58l-.1.09c-.1.08-.15.09-1.06.09-.53 0-1-.03-1.06-.05zM16.52 2.8a1.5 1.5 0 0 1-.9-.78 1.76 1.76 0 0 1 0-1.21c.13-.29.41-.57.7-.7a1.8 1.8 0 0 1 1.22 0c.32.15.64.5.75.84.1.34.07.82-.08 1.15-.14.3-.47.58-.8.68-.24.07-.7.08-.89.02zm43.91 10.3c-1.12-.21-2.06-1.34-2.44-2.92a9.49 9.49 0 0 1-.04-3.72c.31-1.43 1-2.48 1.95-2.92a2.44 2.44 0 0 1 3.19.89c.12.18.24.32.26.3.03-.01.05-.81.05-2.03 0-1.97 0-2.01.09-2.1.09-.09.13-.1 1.13-.08a4.1 4.1 0 0 1 1.1.07c.1.1.12 1.02.1 6.6l-.02 5.54-.1.1c-.08.1-.11.1-.92.1a7.2 7.2 0 0 1-.91-.03c-.12-.05-.2-.24-.3-.81a3.2 3.2 0 0 0-.13-.55l-.15.26c-.2.38-.73.89-1.15 1.1-.18.09-.44.18-.57.2-.29.06-.84.06-1.14 0zm1.96-2.12c.73-.35 1.11-1.51 1.03-3.1-.07-1.43-.5-2.27-1.25-2.48a.87.87 0 0 0-.53-.02c-.73.16-1.13.81-1.28 2.05a6.6 6.6 0 0 0 .14 2.32c.17.64.47 1.06.89 1.26.25.12.73.1 1-.03zm7.97 2.1a3.1 3.1 0 0 1-1.12-.42 4.5 4.5 0 0 1-2.07-3.24c-.1-.59-.1-1.69 0-2.27a4.87 4.87 0 0 1 1.99-3.28 4.12 4.12 0 0 1 2-.59c.38 0 1 .12 1.36.26a4.02 4.02 0 0 1 2.12 2.22c.3.71.42 1.37.43 2.3 0 .63 0 .71-.08.8-.08.1-.1.1-2.71.1h-2.63v.15c0 .27.12.81.27 1.15.17.41.38.67.68.82.32.17.83.17 1.18.02.28-.12.6-.46.7-.73l.13-.37c.05-.16.08-.18.22-.19.2-.02 1.8.33 1.95.42.15.1.11.3-.14.83a3.78 3.78 0 0 1-1.07 1.35c-.7.52-1.26.7-2.25.72-.45.01-.76 0-.96-.04zm2.19-5.78c.04-.03.04-.1-.02-.43-.15-.79-.46-1.32-.9-1.52-.65-.3-1.4.1-1.72.92-.14.4-.26.97-.2 1.03.06.06 2.74.06 2.84 0zm6.71 5.78a4.2 4.2 0 0 1-2.7-2.25 6.53 6.53 0 0 1-.5-1.63c-.27-1.9.27-3.74 1.41-4.83a3.5 3.5 0 0 1 1.86-1c2.52-.51 4.7 1.55 4.82 4.58a5.74 5.74 0 0 1-.86 3.4 4.25 4.25 0 0 1-2.18 1.67 5 5 0 0 1-1.85.06zm1.35-2.02c.41-.2.72-.7.89-1.4.08-.36.1-.55.1-1.42 0-.81-.02-1.07-.08-1.34-.23-.97-.62-1.48-1.22-1.61-.8-.16-1.42.43-1.65 1.55-.28 1.35-.11 3.03.38 3.77.14.21.46.47.66.54.2.06.73.02.92-.09zm-33.49 1.78c-.09-.1-.13-.22-.4-1.23A349.58 349.58 0 0 0 45.6 7.6l-.85-3.06c-.11-.39-.2-.74-.2-.8 0-.2.12-.23 1.25-.23.95 0 1.07.01 1.16.08.08.07.15.33.45 1.67l.62 2.81c.23 1 .5 2.24.5 2.3 0 .15.07 0 .12-.25l.74-3.35c.6-2.7.68-3.08.76-3.16.06-.06.22-.08 1.13-.09 1.14 0 1.27.01 1.3.2.01.1-.14.67-.82 3.1l-.97 3.48c-.15.57-.27.98-.62 2.2-.05.17-.12.33-.16.37-.05.06-.26.07-1.44.07-1.3 0-1.38 0-1.45-.09zm6.97 0-.12-.1.01-4.53c.01-4.27.02-4.53.1-4.6.07-.07.18-.08 1.07-.1.85 0 1.03 0 1.14.06l.14.07v4.5c0 3.24-.02 4.55-.05 4.63a.27.27 0 0 1-.15.13c-.05.02-.53.03-1.06.03-.9 0-.97 0-1.08-.1zm.7-10.05c-.4-.1-.8-.47-.92-.86-.1-.27-.1-.7 0-1 .07-.28.39-.65.66-.79s.96-.16 1.25-.04c.33.15.54.34.7.64.11.25.13.32.13.68 0 .48-.09.7-.35.98-.27.28-.55.4-.97.42-.2 0-.42 0-.5-.03z" fill="#0779ff"/>
</svg>
