<?xml version="1.0" encoding="UTF-8"?>
<svg viewBox="0 0 66 34" version="1.1" xmlns="http://www.w3.org/2000/svg" xmlns:xlink="http://www.w3.org/1999/xlink">
    <!-- Generator: Sketch 61 (89581) - https://sketch.com -->
    <title>@1xtop_logo</title>
    <desc>Created with Sketch.</desc>
    <g id="top_logo" stroke="none" stroke-width="1" fill="none" fill-rule="evenodd">
        <path d="M48.3960204,12.0647001 C48.5464304,12.0897684 49.7246421,11.8265509 49.7747787,11.91429 C49.8499837,12.0270975 50.3764188,15.812416 50.2385429,15.8374844 C50.1006671,15.8625527 49.123002,16.0881677 49.123002,16.0881677 C49.047797,15.5742669 48.4085545,12.3905884 48.3960204,12.0647001 M50.2761454,11.7012092 L50.7900463,15.7748136 C51.0532638,15.7622794 52.118668,15.6870744 52.2189414,15.6745402 C52.0685314,14.1328376 51.8053138,11.7012092 51.8053138,11.7012092 C51.3039471,11.6009359 50.7775121,11.6009359 50.2761454,11.7012092 M49.2608779,17.3541186 C49.2608779,17.3541186 51.5796988,16.7650128 52.419488,17.0532986 C52.8456497,18.5950012 53.6227681,27.2435766 53.6979731,27.5945333 C53.1715381,27.6572041 51.441823,27.8076141 51.3039472,27.8452166 C51.1911397,27.1934399 49.2608779,17.7677461 49.2608779,17.3541186 M57.8467824,12.1649734 C57.9846583,12.2025759 59.2130067,12.0396317 59.2255408,12.1273709 C59.2506091,12.4281909 59.3759508,16.0630994 59.238075,16.0756336 C59.1001992,16.0881677 58.1225341,16.1759069 58.1225341,16.1759069 C58.0974658,15.6745402 57.8217141,12.5033959 57.8467824,12.1649734 M59.7394417,12.0647001 L59.839715,16.0881677 C60.1029325,16.0881677 61.1558026,16.1508386 61.2686101,16.1383044 C61.2435418,14.5966018 61.2686101,12.1649734 61.2686101,12.1649734 C60.7672434,12.0772342 60.2533425,12.0396317 59.7394417,12.0647001 M58.1225341,17.4669261 C58.1225341,17.4669261 60.4914917,17.1535719 61.2936784,17.529597 C61.4691568,19.334517 61.4440884,27.7449433 61.4691568,28.0958999 C60.9301876,28.0958999 59.2130067,28.1209683 59.0751308,28.1460366 C59.0500625,27.4942599 58.0849316,17.8805536 58.1225341,17.4669261 M52.6200347,7.12623815 C53.9862589,14.0952351 55.0265948,26.002694 55.0641973,26.7672782 C55.0641973,26.7672782 56.1421357,26.7923465 57.3579499,26.8675516 C56.6435024,19.3595854 55.7661107,7.36438733 55.7786448,6.97582815 C55.4778248,6.63740563 52.6200347,7.12623815 52.6200347,7.12623815 M49.6118346,23.6086681 C49.3486171,21.653338 42.3545518,19.4347904 38.4188232,20.1492379 C38.4188232,20.1492379 37.9299907,15.8374844 37.7419782,11.6636067 C37.579034,8.07883488 37.7169099,4.59433638 37.7545124,4.01776468 C37.4912949,3.82975218 34.6585731,5.18344223 33.1294047,5.74747975 C33.1294047,5.74747975 34.9593931,13.4935951 36.2880148,29.5623975 C36.2880148,29.5623975 38.4062891,29.7880125 42.0411976,29.0860992 C45.676106,28.3841858 49.9753254,26.1907065 49.6118346,23.6086681 M41.0635325,27.1307691 L40.4493583,22.706208 C40.5997683,22.631003 44.3725527,24.0348298 44.773646,24.2855131 C44.7109752,24.5612648 41.0635325,27.1307691 41.0635325,27.1307691 M19.2666157,12.0647001 C19.4170257,12.0897684 20.5952374,11.8265509 20.6453741,11.91429 C20.7205791,12.0270975 21.2470141,15.812416 21.1091383,15.8374844 C20.9712625,15.8625527 19.9935974,16.0881677 19.9935974,16.0881677 C19.9183924,15.5742669 19.2791499,12.3905884 19.2666157,12.0647001 M21.1467408,11.7012092 L21.6606416,15.7748136 C21.9238591,15.7622794 22.9892634,15.6870744 23.0895367,15.6745402 C22.9265925,14.1328376 22.6759092,11.7012092 22.6759092,11.7012092 C22.1745425,11.6009359 21.6481075,11.6009359 21.1467408,11.7012092 M20.1314732,17.3541186 C20.1314732,17.3541186 22.4502942,16.7650128 23.2900834,17.0532986 C23.7162451,18.5950012 24.4933634,27.2435766 24.5685684,27.5945333 C24.0421334,27.6572041 22.3124183,27.8076141 22.1745425,27.8452166 C22.061735,27.1934399 20.1314732,17.7677461 20.1314732,17.3541186 M28.7173778,12.1649734 C28.8552536,12.2025759 30.083602,12.0396317 30.0961362,12.1273709 C30.1212045,12.4281909 30.2465462,16.0630994 30.1086704,16.0756336 C29.9707945,16.0881677 28.9931295,16.1759069 28.9931295,16.1759069 C28.9680612,15.6745402 28.7048436,12.5033959 28.7173778,12.1649734 M30.6100371,12.0647001 L30.7103104,16.0881677 C30.9735279,16.0881677 32.0263979,16.1508386 32.1392055,16.1383044 C32.1141371,14.5966018 32.1392055,12.1649734 32.1392055,12.1649734 C31.6378388,12.0772342 31.1239379,12.0521659 30.6100371,12.0647001 M28.9931295,17.4669261 C28.9931295,17.4669261 31.3620871,17.1535719 32.1642738,17.529597 C32.3397521,19.334517 32.3146838,27.7449433 32.3397521,28.0958999 C31.8007829,28.0958999 30.083602,28.1209683 29.9457262,28.1460366 C29.933192,27.4942599 28.955527,17.8805536 28.9931295,17.4669261 M23.4906301,7.12623815 C24.8568543,14.0952351 25.8971902,26.002694 25.9347927,26.7672782 C25.9347927,26.7672782 27.012731,26.7923465 28.2285453,26.8675516 C27.5140978,19.3595854 26.636706,7.36438733 26.6492402,6.96329398 C26.3484202,6.63740563 23.4906301,7.12623815 23.4906301,7.12623815 M20.4824299,23.6086681 C20.2192124,21.653338 13.2251471,19.4347904 9.28941858,20.1492379 C9.28941858,20.1492379 8.80058605,15.8374844 8.61257355,11.6636067 C8.44962938,8.07883488 8.58750523,4.59433638 8.6251077,4.01776468 C8.3618902,3.84228633 5.5291684,5.18344223 4,5.74747975 C4,5.74747975 5.82998842,13.4935951 7.15861015,29.5623975 C7.15861015,29.5623975 9.27688442,29.7880125 12.9117929,29.0860992 C16.5467014,28.3841858 20.8459207,26.1907065 20.4824299,23.6086681 M11.9341279,27.1307691 L11.3199537,22.706208 C11.4703637,22.631003 15.243148,24.0348298 15.6442414,24.2855131 C15.5815705,24.5612648 11.9341279,27.1307691 11.9341279,27.1307691" id="形状" fill="#00A1D6" fill-rule="nonzero"></path>
    </g>
</svg>