<svg viewBox="0 0 96 24" xmlns="http://www.w3.org/2000/svg">
    <g fill="#06B6F2">
        <path d="M24.8873 6.12125C24.4204 5.24721 23.7396 4.56638 22.8655 4.09715C21.9869 3.62793 21.122 3.38872 18.8288 3.38872H18.5528L19.505 2.27777C20.0019 1.70044 19.9329 0.824096 19.3555 0.329573C18.7874 -0.158051 17.9203 -0.0982456 17.4073 0.479082L14.9117 3.39102H10.714L8.20454 0.462979C7.70771 -0.0982473 6.84056 -0.158048 6.27243 0.331875C5.6951 0.828699 5.6284 1.70274 6.12293 2.28007L7.07518 3.39102H6.76696C4.50824 3.39102 3.625 3.63023 2.78085 4.07415L2.73025 4.10175C1.8562 4.56868 1.17536 5.24951 0.708438 6.12585C0.239213 7.00449 0 7.87163 0 10.1648V17.2952C0.00460024 19.5079 0.243815 20.3796 0.680838 21.2169L0.708438 21.2675C1.17536 22.1415 1.8562 22.8223 2.73025 23.2916L2.80845 23.333C3.6434 23.7654 4.51974 24 6.76696 24H18.8932C21.1036 23.9954 21.9754 23.7562 22.8126 23.3192L22.8632 23.2916C23.7373 22.8246 24.4181 22.1438 24.885 21.2675C25.3543 20.3888 25.5935 19.5217 25.5935 17.2285V10.1648C25.5935 7.90384 25.3543 7.02059 24.9126 6.17645L24.8873 6.12125ZM22.7735 10.1602V17.2561C22.7735 18.1347 22.7321 18.7742 22.6516 19.2112L22.647 19.2388C22.5941 19.5102 22.5343 19.6781 22.3986 19.9334C22.1962 20.3129 21.9133 20.5958 21.5337 20.7982C21.2807 20.934 21.1128 20.9938 20.8414 21.0467C20.3998 21.1318 19.7397 21.1732 18.8288 21.1732H6.73706C5.85841 21.1732 5.21898 21.1318 4.78426 21.0513L4.75665 21.0467C4.48524 20.9938 4.31733 20.934 4.06432 20.7982C3.6848 20.5958 3.40188 20.3129 3.19947 19.9334C3.06376 19.6804 3.00396 19.5125 2.95106 19.2388C2.87055 18.8202 2.82915 18.2129 2.82455 17.3803V10.128C2.82455 9.2494 2.86596 8.60997 2.94646 8.17295L2.95106 8.14535C3.00396 7.87393 3.06376 7.70373 3.19947 7.45071C3.40188 7.0712 3.6848 6.78828 4.06432 6.58587C4.31733 6.45017 4.48524 6.39036 4.75665 6.33746C5.17298 6.25696 5.78021 6.21555 6.61285 6.21095H6.73706H18.861C19.7397 6.21095 20.3791 6.25236 20.8138 6.33286L20.8414 6.33746C21.1128 6.39036 21.2807 6.45017 21.5337 6.58587C21.9133 6.78828 22.1962 7.0712 22.3986 7.45071C22.5343 7.70373 22.5941 7.87163 22.647 8.14535C22.7321 8.58927 22.7735 9.2471 22.7735 10.1602Z" />
        <path d="M49.687 5.10229H47.7135C47.3317 5.10229 47.0234 5.41051 47.0234 5.79233V7.76582C47.0234 8.14764 47.3317 8.45586 47.7135 8.45586H49.687C50.0688 8.45586 50.377 8.14764 50.377 7.76582V5.79233C50.377 5.41051 50.0688 5.10229 49.687 5.10229Z" />
        <path d="M61.188 5.10229H59.2145C58.8326 5.10229 58.5244 5.41051 58.5244 5.79233V7.76582C58.5244 8.14764 58.8326 8.45586 59.2145 8.45586H61.188C61.5698 8.45586 61.878 8.14764 61.878 7.76582V5.79233C61.878 5.41051 61.5698 5.10229 61.188 5.10229Z" />
        <path d="M83.039 10.0935H81.0655C80.6837 10.0935 80.3755 10.4017 80.3755 10.7835V21.5941C80.3755 21.9759 80.6837 22.2841 81.0655 22.2841H83.039C83.4209 22.2841 83.7291 21.9759 83.7291 21.5941V10.7835C83.7291 10.404 83.4209 10.0935 83.039 10.0935Z" />
        <path d="M94.54 10.0935H92.5665C92.1847 10.0935 91.8765 10.4017 91.8765 10.7835V21.5941C91.8765 21.9759 92.1847 22.2841 92.5665 22.2841H94.54C94.9218 22.2841 95.23 21.9759 95.23 21.5941V10.7835C95.23 10.404 94.9218 10.0935 94.54 10.0935Z" />
        <path d="M88.7895 5.10229H86.816C86.4342 5.10229 86.126 5.41051 86.126 5.79233V21.5941C86.126 21.9759 86.4342 22.2841 86.816 22.2841H88.7895C89.1713 22.2841 89.4796 21.9759 89.4796 21.5941V5.79233C89.4796 5.41051 89.1713 5.10229 88.7895 5.10229Z" />
        <path d="M76.562 13.0193C77.3326 12.1659 77.6569 11.2344 77.6569 10.1855C77.6569 7.38401 75.3775 5.10229 72.5736 5.10229H67.6766H64.9717H64.9625C64.5807 5.10229 64.2725 5.41051 64.2725 5.79233V21.5941C64.2725 21.9759 64.5807 22.2841 64.9625 22.2841H65.0223H67.6766H73.9077C76.7092 22.2841 78.9909 20.0047 78.9909 17.2009C78.9909 15.4689 78.0226 13.7737 76.562 13.0193ZM72.5736 8.25345C73.6386 8.25345 74.5057 9.12059 74.5057 10.1855C74.5057 11.2505 73.6386 12.1176 72.5736 12.1176H67.6766V8.25345H72.5736ZM73.91 19.133H67.6789V15.2688H73.91C74.9749 15.2688 75.8421 16.1359 75.8421 17.2009C75.8398 18.2681 74.9749 19.133 73.91 19.133Z" />
        <path d="M8.28004 10.1211C9.29669 10.1211 10.1201 10.9445 10.1201 11.9612V15.4113C10.1201 16.428 9.29669 17.2514 8.28004 17.2514C7.26339 17.2514 6.43994 16.428 6.43994 15.4113V11.9612C6.43994 10.9445 7.26339 10.1211 8.28004 10.1211Z" />
        <path d="M17.4807 10.1211C18.4974 10.1211 19.3208 10.9445 19.3208 11.9612V15.4113C19.3208 16.428 18.4974 17.2514 17.4807 17.2514C16.4641 17.2514 15.6406 16.428 15.6406 15.4113V11.9612C15.6406 10.9445 16.4641 10.1211 17.4807 10.1211Z" />
        <path d="M49.687 10.0935H47.7135C47.3317 10.0935 47.0234 10.4017 47.0234 10.7835V21.5941C47.0234 21.9759 47.3317 22.2841 47.7135 22.2841H49.687C50.0688 22.2841 50.377 21.9759 50.377 21.5941V10.7835C50.377 10.404 50.0688 10.0935 49.687 10.0935Z" />
        <path d="M61.188 10.0935H59.2145C58.8326 10.0935 58.5244 10.4017 58.5244 10.7835V21.5941C58.5244 21.9759 58.8326 22.2841 59.2145 22.2841H61.188C61.5698 22.2841 61.878 21.9759 61.878 21.5941V10.7835C61.878 10.404 61.5698 10.0935 61.188 10.0935Z" />
        <path d="M55.438 5.10229H53.4645C53.0826 5.10229 52.7744 5.41051 52.7744 5.79233V21.5941C52.7744 21.9759 53.0826 22.2841 53.4645 22.2841H55.438C55.8198 22.2841 56.128 21.9759 56.128 21.5941V5.79233C56.128 5.41051 55.8198 5.10229 55.438 5.10229Z" />
        <path d="M83.039 5.10229H81.0655C80.6837 5.10229 80.3755 5.41051 80.3755 5.79233V7.76582C80.3755 8.14764 80.6837 8.45586 81.0655 8.45586H83.039C83.4209 8.45586 83.7291 8.14764 83.7291 7.76582V5.79233C83.7291 5.41051 83.4209 5.10229 83.039 5.10229Z" />
        <path d="M94.54 5.10229H92.5665C92.1847 5.10229 91.8765 5.41051 91.8765 5.79233V7.76582C91.8765 8.14764 92.1847 8.45586 92.5665 8.45586H94.54C94.9218 8.45586 95.23 8.14764 95.23 7.76582V5.79233C95.23 5.41051 94.9218 5.10229 94.54 5.10229Z" />
        <path d="M43.2105 13.0193C43.981 12.1659 44.3053 11.2344 44.3053 10.1855C44.3053 7.38401 42.0259 5.10229 39.222 5.10229H34.3251H31.6201H31.6109C31.2291 5.10229 30.9209 5.41051 30.9209 5.79233V21.5941C30.9209 21.9759 31.2291 22.2841 31.6109 22.2841H31.6707H34.3251H40.5561C43.3577 22.2841 45.6394 20.0047 45.6394 17.2009C45.6394 15.4689 44.671 13.7737 43.2105 13.0193ZM39.222 8.25345C40.287 8.25345 41.1541 9.12059 41.1541 10.1855C41.1541 11.2505 40.287 12.1176 39.222 12.1176H34.3251V8.25345H39.222ZM40.5584 19.133H34.3274V15.2688H40.5584C41.6234 15.2688 42.4905 16.1359 42.4905 17.2009C42.4882 18.2681 41.6234 19.133 40.5584 19.133Z" />
    </g>
</svg>
