<svg viewBox="0 0 26 24" fill="none" xmlns="http://www.w3.org/2000/svg">
  <g fill="#06B6F2">
    <path
      d="M24.8873 6.12125C24.4204 5.24721 23.7396 4.56638 22.8655 4.09715C21.9869 3.62793 21.122 3.38872 18.8288 3.38872H18.5528L19.505 2.27777C20.0019 1.70044 19.9329 0.824096 19.3555 0.329573C18.7874 -0.158051 17.9203 -0.0982456 17.4073 0.479082L14.9117 3.39102H10.714L8.20454 0.462979C7.70771 -0.0982473 6.84056 -0.158048 6.27243 0.331875C5.6951 0.828699 5.6284 1.70274 6.12293 2.28007L7.07518 3.39102H6.76696C4.50824 3.39102 3.625 3.63023 2.78085 4.07415L2.73025 4.10175C1.8562 4.56868 1.17536 5.24951 0.708438 6.12585C0.239213 7.00449 0 7.87163 0 10.1648V17.2952C0.00460024 19.5079 0.243815 20.3796 0.680838 21.2169L0.708438 21.2675C1.17536 22.1415 1.8562 22.8223 2.73025 23.2916L2.80845 23.333C3.6434 23.7654 4.51974 24 6.76696 24H18.8932C21.1036 23.9954 21.9754 23.7562 22.8126 23.3192L22.8632 23.2916C23.7373 22.8246 24.4181 22.1438 24.885 21.2675C25.3543 20.3888 25.5935 19.5217 25.5935 17.2285V10.1648C25.5935 7.90384 25.3543 7.02059 24.9126 6.17645L24.8873 6.12125ZM22.7735 10.1602V17.2561C22.7735 18.1347 22.7321 18.7742 22.6516 19.2112L22.647 19.2388C22.5941 19.5102 22.5343 19.6781 22.3986 19.9334C22.1962 20.3129 21.9133 20.5958 21.5337 20.7982C21.2807 20.934 21.1128 20.9938 20.8414 21.0467C20.3998 21.1318 19.7397 21.1732 18.8288 21.1732H6.73706C5.85841 21.1732 5.21898 21.1318 4.78426 21.0513L4.75665 21.0467C4.48524 20.9938 4.31733 20.934 4.06432 20.7982C3.6848 20.5958 3.40188 20.3129 3.19947 19.9334C3.06376 19.6804 3.00396 19.5125 2.95106 19.2388C2.87055 18.8202 2.82915 18.2129 2.82455 17.3803V10.128C2.82455 9.2494 2.86596 8.60997 2.94646 8.17295L2.95106 8.14535C3.00396 7.87393 3.06376 7.70373 3.19947 7.45071C3.40188 7.0712 3.6848 6.78828 4.06432 6.58587C4.31733 6.45017 4.48524 6.39036 4.75665 6.33746C5.17298 6.25696 5.78021 6.21555 6.61285 6.21095H6.73706H18.861C19.7397 6.21095 20.3791 6.25236 20.8138 6.33286L20.8414 6.33746C21.1128 6.39036 21.2807 6.45017 21.5337 6.58587C21.9133 6.78828 22.1962 7.0712 22.3986 7.45071C22.5343 7.70373 22.5941 7.87163 22.647 8.14535C22.7321 8.58927 22.7735 9.2471 22.7735 10.1602Z" />
    <path
      d="M8.28004 10.1211C9.29669 10.1211 10.1201 10.9445 10.1201 11.9612V15.4113C10.1201 16.428 9.29669 17.2514 8.28004 17.2514C7.26339 17.2514 6.43994 16.428 6.43994 15.4113V11.9612C6.43994 10.9445 7.26339 10.1211 8.28004 10.1211Z" />
    <path
      d="M17.4807 10.1211C18.4974 10.1211 19.3208 10.9445 19.3208 11.9612V15.4113C19.3208 16.428 18.4974 17.2514 17.4807 17.2514C16.4641 17.2514 15.6406 16.428 15.6406 15.4113V11.9612C15.6406 10.9445 16.4641 10.1211 17.4807 10.1211Z" />
  </g>
</svg>
