<svg viewBox="0 0 875 221" xmlns="http://www.w3.org/2000/svg"><path fill="#524bff" fill-rule="evenodd" d="M713.6 2.3A434 434 0 00695 50.6a77 77 0 005.2 15.3c6.5 15.4 6.5 15.4 24.4 15 10.8-.4 12.6-.7 14.3-2.4a127 127 0 0011.7-26.4c.5-2.2-1.4-8-7.6-23.7C732 .4 731.7 0 728 0h-3v12.9c0 10.4.3 13.1 1.6 14.1 2.3 2 1.4 7.2-1.5 8.7q-4.5 2-7.2-2.8c-.9-1.7-.7-2.7 1-5 1.9-2.5 2.1-4.2 2.1-15.4V0h-3q-3 0-4.4 2.3M426.2 142.8l.3 75.7h39l.3-75.7.2-75.8h-40zM66.5 73a76 76 0 00-45.6 22A68 68 0 000 146.8a70 70 0 007.7 34.1 51 51 0 0012.7 17.5A71 71 0 0051 217.2c9.2 3.1 10 3.2 27 3.3 20 0 25.2-1 38.8-7.7a62 62 0 0016-11.2l7.5-7.2-5.4-5a230 230 0 00-20.8-18.4c-.4 0-2.3 1.6-4.2 3.6a40 40 0 01-32.3 12.2A35 35 0 0152 175.4c-6-6.4-8.5-11.5-10.2-21.2a40 40 0 0120.8-43.8c5.5-2.7 6.7-2.9 17.4-2.9 10.4 0 12 .3 17.3 2.7 3.1 1.5 8.2 5 11.2 8l5.5 5.1 2.8-2.4 13-11.8 10.1-9.3-1.6-2.5c-5-7.7-23.6-18.8-37.3-22.2-9.3-2.3-25.1-3.3-34.5-2M708 94v6l14.8-.3 14.7-.3.3-5.7.3-5.8H708zm-515.8 14c-27 7.3-43.5 28.1-43.5 55a54 54 0 0030.3 49.9 65 65 0 0035.3 6.9 62 62 0 0034.2-9.9c29.9-18.9 34-64 7.9-87.8A61 61 0 00234 109a98 98 0 00-41.8-1m136.4-.4a60 60 0 00-28.2 15.8 52 52 0 00-16.1 42.6c1.4 26.3 17.7 45.3 44.8 52.1a90 90 0 0040-1 59 59 0 0036.9-34.6 73 73 0 002-31.7 56 56 0 00-42.6-42.8 100 100 0 00-36.8-.4m216 .4a38 38 0 00-14.6 8.5c-1.4 1.7-1.5 1.4-2-3.6l-.5-5.4-18.8-.3-18.7-.2.2 55.7.3 55.8h39l.5-33c.5-32.8.5-33 3-37.3 3.5-6.1 8-8.7 15.5-8.7 7.1 0 11.2 2.4 14.1 8.2 1.7 3.4 2 7 2.2 37.6l.3 33.7 19.7-.2 19.7-.3.5-33c.5-31.7.6-33.2 2.7-37.1q4.7-8.8 15.4-8.9c6.1 0 9.5 1.7 13 6.6 3.2 4.2 3.9 12.3 3.9 43V219h39.1l-.3-39.2c-.3-37.2-.5-39.6-2.5-45.7-6.3-18.5-20.6-28.1-41.6-28-15 0-24.4 3.2-33.7 11.6l-5 4.6-3.6-4.1a37 37 0 00-11.2-8c-7.3-3.6-8-3.7-19.1-4-9.6-.2-12.6.1-17.4 1.8m259.6-.1a57 57 0 00-43 40.6 77 77 0 00.2 29 48 48 0 0014.4 24.6A61 61 0 00823 220c17 0 30-4.1 40.2-12.9a51 51 0 0011.8-16.7c0-.8-6.7-4.8-15-8.9l-15-7.5-3 4.5q-7 10-19 10c-7.7 0-13.3-2.6-17.8-8-3.7-4.6-5.2-9.6-5.2-17.6 0-9.6 1.5-13.7 7-19a22.7 22.7 0 0135 3.6l3 4.5 15-7.5c8.3-4.1 15-8 15-8.5 0-2.1-4-8.6-7.9-13.1a52 52 0 00-21-13.7 94 94 0 00-41.8-1.3M703 163v56h39V107h-39zm-499.4-24.5c-6.2 2.2-8.9 4.6-12 11-6.4 12.6-2.9 29.3 7.4 35.7 11.2 7 25 3.5 31.2-7.7 3.3-6 3.7-9.1 1-8a16 16 0 01-13-.4c-8.5-5.4-9.8-21.8-2.3-28.6 2-1.8 2.1-2 .4-2.6a20 20 0 00-12.7.6m135 0q-13.3 5.1-14.4 22.5c-1 18.7 11.5 31 27.8 27a23 23 0 0017-21.4c0-3 0-3-1.6-.8-2 3-6.6 5.2-10.6 5.2-7.6 0-13.8-7.6-13.8-16.9 0-6.3 1.3-9.8 5.3-13.9l3-3.2H347c-2.4.1-6.2.8-8.4 1.6"/></svg>
