<svg viewBox="0 0 250 250"><path fill="#504cff" d="M0 0h250v250H0z"/><path fill="#fff" d="M118.2 20.5h13.1c57.8 2.7 104.7 47 104.7 104.7v.5c0 23-7.7 43.4-20.5 60.1l13.4 35.5c1.7 3.7-.3 9-5.1 7.7l-39.6-15.6a124 124 0 0 1-52.9 17h-13c-56.6-3.6-104.8-47-104.8-104.7v-.5c0-57.8 50-103 104.7-104.7m-.5 22.8a85 85 0 0 0-50.8 24.3 75 75 0 0 0-23.3 57.2c-.4 13.1 2.5 26 8.5 37.7q5 11.2 14.2 19.3a79 79 0 0 0 34.1 20.8c10.2 3.4 11.1 3.5 30 3.6 22.4 0 28.2-1 43.3-8.5a69 69 0 0 0 17.9-12.4l8.3-8-6-5.4q-11-10.9-23.2-20.3c-.4 0-2.5 1.7-4.7 4a45 45 0 0 1-36 13.4 39 39 0 0 1-28.5-12.6c-6.7-7-9.5-12.7-11.4-23.4a44 44 0 0 1 23.2-48.4c6.2-3 7.5-3.2 19.4-3.2 11.6 0 13.4.4 19.3 3 3.5 1.7 9.1 5.5 12.5 8.8l6.1 5.7 3.1-2.7 14.5-13 11.3-10.3-1.8-2.7c-5.6-8.5-26.3-20.8-41.6-24.6-10.3-2.5-28-3.6-38.4-2.2Z"/></svg>