<svg xmlns="http://www.w3.org/2000/svg" viewBox="0 0 154.59 153.46">
  <path fill="#df6300" d="M-34.2 348.12a77.3 77.3 0 0 0-77.3 77.3 77.3 77.3 0 0 0 64.43 76.16 69.3 69.3 0 0 1-47.77-65.86 69.3 69.3 0 0 1 69.3-69.3 69.3 69.3 0 0 1 68.6 59.53 77.3 77.3 0 0 0 .03-.54 77.3 77.3 0 0 0-77.3-77.3zm8.66 29.56a58.04 58.04 0 0 0-58.04 58.04 58.04 58.04 0 0 0 58.04 58.04 58.04 58.04 0 0 0 58.05-58.04 58.04 58.04 0 0 0-.8-9.52 26.92 26.92 0 0 1-20.3 9.27 26.92 26.92 0 0 1-26.92-26.91A26.92 26.92 0 0 1 .63 383.9a58.04 58.04 0 0 0-26.17-6.23z" transform="translate(111.5 -348.12)"/>
</svg>
