<svg xmlns="http://www.w3.org/2000/svg" viewBox="0 -23.4 264.6 264.6">
  <path fill="currentColor" d="m58.9 0-4.4.1c-10.3.4-24.1 2.5-35 5.5-7.7 2.1-13 5.5-16.6 12C1 20.8-.7 24.3.3 27.9c.8 3 5 4 8.5 4.6 3.4.5 11 1 13-1.5.8-1 .7-2 0-3.4-.7-1.3-2.6-2.3-4.5-2.6-2-.4-6-.7-7-1l-1-.6.4-.4a9 9 0 0 1 2.8-1.2l3.8-1c8.9-2.5 26.5-3 34.5-2.6 31.3 1.1 60.5 8.1 90 20.3 28.8 11.9 61.7 32.1 80.8 56.8C229 104.7 238 120 239 133c1 11.8-2.7 23.2-10 31.4a61.7 61.7 0 0 1-20.5 14.6c-18 8.5-39.7 10.3-59.3 9.7-2.5 0-12.2-.9-14.5-1.2l-9-1.7-1.3-60.5 10.4.5c11 .6 33.6 4.4 45 8.9 2.4 1 5 2.4 5.1 4.8.2 1.9-1.3 3.4-2.9 4.9-.8.7-1.6 1.2-2.5 1.8l-5.6 3c-.6.9-.6 2.1.2 2.8 2.2 1.7 9.3 2.6 11.2 2.5 6.3-.4 12.6-4.6 15.9-10.4 3-5.2 3.2-9 1.3-14.8-2.1-6.2-8.5-12-15.3-15.5-8.4-4.2-22.8-7.4-30.3-8.6a137.5 137.5 0 0 0-32.7-1.8s-.1-8.2-.5-13.7c-.6-9-3-26.6-11.3-31.7-1.4-.9-3.3-1-4.3.4-1.6 2-3.1 10-3.5 12-.7 3.8-2.7 21.7-2.7 24.4 0 2.8-.2 10.4-.4 10.6l-.3.3a178.6 178.6 0 0 0-38.6 10.7C55 119.6 44 125.3 41 133c-2.2 5.5-1.4 10.1 1.5 15.3a72.5 72.5 0 0 0 14.1 17 164.2 164.2 0 0 0 37.7 26l6.4 3.1s.7 7 1.4 11.1c.8 5 2.4 9.4 7.1 11.4a16 16 0 0 0 9.2.4c2.5-.5 4.3-1.6 5.3-3.8.4-.8 1.2-3.4 1.3-4.3.2-2.2.2-5.2.2-5.2s7.5 1.8 12.6 2.7c14.6 2.7 30.6 3 44.4 1.3 20.4-2.5 44.2-10 59.5-23.4a82 82 0 0 0 19-27.2c.3-.7 2.4-7 2.8-9.6a77 77 0 0 0 .9-14.7c0-2-1-7-1.2-8l-1-4.3c-.4-1.7-2.8-7.6-3.4-8.6-1.6-2.9-2.6-5.4-3.8-7.9-5.2-10.4-16-23.5-24.6-32.1A233.7 233.7 0 0 0 165 26.7c-12.4-6-29.4-12.6-42.4-16.5C101.4 3.8 80.6-.2 59 0Zm42 126.2s-.3 9-.3 18c-.1 17.1.3 34.6.3 34.6s-6-2.2-9.8-3.8a154.8 154.8 0 0 1-32.5-19.8 189 189 0 0 1-9-8.6c-1.8-2.2-3.5-4.3-3-7 .4-2.6 5.6-4.8 8.2-5.7a163 163 0 0 1 31-6.4c6-.7 15-1.3 15-1.3z"/>
</svg>