<svg xmlns="http://www.w3.org/2000/svg" xml:space="preserve" viewBox="0 9.1 1000.26 343.449">
  <path fill="currentColor"
    d="m454.26 176.876 1 1c9 1 18 2 25 5 6 3 10 7 13 13 5 9 6 23 1 33-3 7-11 13-18 17-7 3-14 5-22 6-15 1-30-1-43-8-7-3-16-10-21-18-3-6-3-14 1-19 6-9 21-11 31-11a107 107 0 0 1 42 11l2 4c-2 5-15 8-19 8-10 2-16-2-27-6-3-2-7-3-10-3-5-1-11 1-12 7-1 3 3 5 5 6 6 3 11 4 18 4 18 0 38-3 53-13 2-1 4-4 4-6 0-6-10-9-10-9-10-4-28-6-37-7l-30-2-11-3c-3-2-7-5-8-9-1-7 1-15 5-20 9-15 32-20 50-22 16-2 43-2 60 7 2 1 4 2 3 5-1 5-5 8-9 10l-20 2c-20 1-43 1-62 6l-5 2c-3 3 5 4 7 4h1l42 5m-118-88 6-8c5-7 14-16 21-22l4-4-6 1c-5 1-12 6-16 9-6 6-13 14-10 22l1 2m34 9c10 0 19-3 28-8 8-4 20-13 19-24 0-4-3-6-6-7-3-2-5-2-10 0l-8 3c-10 6-23 17-30 27l-5 6-2 3h14m-24 18-3 6-3 3c-2 2-4 2-7-1s-5-7-5-12v-6l-5-8-4-12c0-11 5-22 13-30s18-15 29-20c10-4 25-7 37-3l11 8 2 2h3l10 5c5 4 7 8 8 13 2 10-4 21-10 28-12 12-23 20-38 26-7 3-17 5-24 5l-7-1-6-2-1-1m13 23 2 1c5 2 7 7 8 12 3 12 5 39 5 50l1 24c0 6 1 15-1 21 0 3-2 5-4 7l-11 1c-7-2-10-7-11-14a375 375 0 0 1 5-96c1-2 3-6 6-6m-231 30-19 2c-10 1-29 4-40 8-3 1-9 4-10 7-1 4 2 6 4 9l11 11c9 8 28 19 42 25l12 5-1-44 1-23m207 9c1 6-1 17-1 19a86 86 0 0 1-10 24c-3 7-12 18-17 22-20 17-50 27-76 30-17 2-38 1-56-2l-16-3v6l-2 6c-1 2-4 4-7 5l-11-1c-6-3-8-8-9-14l-2-14-8-4a210 210 0 0 1-48-33c-7-7-13-13-18-22-4-6-5-12-2-19 4-10 18-17 27-21a227 227 0 0 1 50-14v-14a411 411 0 0 1 8-46c1-2 4-1 6 0 10 6 13 29 14 40v17h20a172 172 0 0 1 60 13c9 5 17 12 20 20 2 7 2 12-2 19s-12 12-20 13c-2 0-11-1-14-3l-1-4 7-4 4-2c2-2 4-4 3-6 0-3-3-5-6-6-15-6-43-11-57-12h-13l1 77a508 508 0 0 0 30 3c25 1 53-1 75-12 10-5 19-11 26-19 9-10 14-24 13-39-1-17-13-36-22-48-24-31-66-57-103-72s-74-24-114-26c-10 0-32 1-43 4l-5 1-4 2 1 1 9 1 6 3v5c-3 3-13 2-17 2-4-1-10-2-11-6-1-5 1-9 4-13 4-9 11-13 21-15a214 214 0 0 1 130 5 413 413 0 0 1 93 43 745 745 0 0 1 44 36c11 11 25 27 31 41l5 9 4 11 2 6 1 10m373-17c-14 3-51 5-51 5l-4 14h31s4 0 5 5l-1 10s0 4-4 5l-40 2-5 18s-2 5 2 4c5-2 41-8 45-7 5 1 11 8 9 14-2 7-38 30-59 28 0 0-12 1-22-14-9-15 4-43 4-43s-6-13-2-17c0 0 3-3 10-3l9-18s-10 0-16-7-6-10-2-12c5-2 46-10 75-9 0 0 10-1 18 16 0 0 5 7-2 9m-108 70c-4 9-14 18-26 12s-31-45-31-45l-8-14s-2-2-3 13c-1 16 0 47-6 52-6 4-13 3-17-3-3-6-5-19-3-42 2-24 8-48 15-56s12-2 14 0c0 0 10 8 25 33l3 4 15 24h2c2-1 1-8 1-8s-3-25-16-68v-11c1-5 6-2 6-2s20 10 29 41c10 32 3 61 0 70m211-19c-9 15-34 48-68 40-11 27-20 54-26 95 0 0-1 8-7 5-7-2-18-13-20-28-2-20 7-53 25-91-6-8-9-21-6-38 0 0 4-32 36-61 0 0 4-3 7-2 2 1 1 12-1 17l-16 29s-9 17-7 30c17-26 55-78 79-61 8 5 12 18 12 31 0 12-3 24-8 34m-7-41s-2-11-12 1c-8 9-24 27-37 52 14-2 26-9 30-13 6-5 21-20 19-40m191-3h-61c-2-20-4-41-8-62 0-2-2-3-5-3h-14l-3 1-1 4c4 20 7 40 8 60h-59c-3 0-5 3-5 5v13c0 3 2 5 5 5h60a726 726 0 0 1-1 63l3 2h13c3 0 5-2 5-5a471 471 0 0 0 3-60h60c3 0 5-2 5-5v-13c0-2-2-5-5-5" />
</svg>