<svg xmlns="http://www.w3.org/2000/svg" viewBox="0 0 810 107.7">
  <path fill="#472d8e" d="M102.3 107.39a52.05 52.05 0 01-10.14-1.97c-12.33-3.71-21.28-13.36-24.7-26.65-1.61-6.27-1.55-4.7-1.67-41.5L65.68 3H79.8v32.71c0 21.47.11 33.71.32 35.63 1.23 10.97 7.8 18.43 19.48 22.1 5.71 1.79 10.3 1.87 15.85.28 10.06-2.88 16.04-9.16 18.03-18.92.6-2.97.62-3.87.62-37.42V3h15v33.64c0 36.42 0 36.59-1.65 42.71-3.63 13.48-12.93 23.02-25.78 26.41a60.51 60.51 0 01-19.37 1.63zm357.01-.02c-5.86-.56-11.7-2.29-15.74-4.65a31.91 31.91 0 01-8.35-7.73 32.63 32.63 0 01-3.95-8.59 40.53 40.53 0 01-.83-12.55c.65-6.5 2.46-10.96 5.98-14.76 4.43-4.79 9.32-7.57 17.34-9.87 4.81-1.38 8.6-2.02 20.39-3.48 15.68-1.93 17.4-2.2 19.26-2.89 2.2-.82 4-2.63 4.91-4.93.62-1.56.7-2.28.71-5.97 0-3.55-.1-4.55-.7-6.45-2.08-6.75-6.98-10.52-15.35-11.82-12.12-1.89-22.47.3-28.3 6-3.29 3.2-5.57 9.24-5.58 14.74V36h-14.7v-.68c.03-2.86 1.24-9.06 2.47-12.67 2.84-8.3 9.86-15.5 18.3-18.76 7.25-2.8 16.78-4.02 25.72-3.3 12.02.97 18.38 3.38 24.16 9.16 4.3 4.3 6.33 7.97 7.86 14.2.43 1.76.51 5.69.67 33.2.17 30.88.18 31.21.8 32.4 1.49 2.86 5.14 3.59 9.2 1.83l1.12-.49v13.14l-2.48.4c-3.04.51-9.7.53-11.87.03a12.24 12.24 0 01-8.3-6.28 19.06 19.06 0 01-1.65-6.93c0-.72-.12-1.26-.26-1.2-.15.05-1.07 1.11-2.05 2.35-5.47 6.9-10.69 10.77-17.58 13.02-6 1.96-13.74 2.67-21.2 1.95zm13.21-12.75c11.33-1.93 19.7-7.87 23.98-17 2.2-4.69 2.47-6.4 2.62-16.35.07-4.82.07-8.77 0-8.77-.08 0-.73.26-1.46.58-2.8 1.23-10.14 2.64-21.86 4.21-19.23 2.58-28.35 7.1-30.48 15.12-.55 2.06-.53 6.54.04 8.72 1.77 6.79 7.91 12.1 15.76 13.64 2.26.45 8.38.36 11.4-.15zm82.18 10.97c-8.98-1.07-13.95-4.83-15.75-11.9-.98-3.87-1.04-6.19-1.04-41.86l-.01-35.93h-17.4V3.3h52.2v12.6h-20.4v33.53c.02 31.84.12 36.16.9 39.05.74 2.76 2.78 4.32 6.35 4.83 1.8.26 10.4-.08 12.32-.48l.83-.18v12.86l-5.45.2c-6.45.23-9.9.2-12.55-.12zM.09 68.32C.2 28.23.12 30.2 1.99 24 6.29 9.7 18.24 1.63 37.02.3c5.68-.39 13.6.07 18.1 1.06l.68.15V15.2l-2.77-.42a80.97 80.97 0 00-9.08-.46c-5.5-.03-6.7.06-9.43.65-9.38 2.02-15.26 6.5-18.07 13.72-1.4 3.63-1.77 6.67-1.68 14.09l.08 6.58 17.03.08 17.02.07V63H15v42H-.03L.1 68.33zM160.5 54.16V3.3h14.69l.08 6.64.08 6.64 1.04-1.62c1.47-2.28 5.44-6.16 8.23-8.05a40.31 40.31 0 0115.3-6.08c2.74-.47 10.9-.44 14.58.05 14.43 1.93 23.88 9.56 27.14 21.94 1.81 6.86 1.75 5.23 1.87 45.35l.11 36.83h-14.39l-.12-34.58c-.13-37.25-.12-36.97-1.74-42.37-2.1-7.05-6.78-11.84-13.56-13.92-4.72-1.44-12.1-1.45-17.26-.02-9.52 2.63-16.66 10.1-19.7 20.56-1.66 5.72-1.65 5.52-1.65 39.2V105h-14.7V54.15zm93.9 0V3.3h14.7V105h-14.7V54.15zm27 0V3.3h13.49l.08 6.95.08 6.95 1.68-2.22c5.43-7.2 11.64-11.51 19.16-13.32 9.54-2.3 19.19-1.43 26.9 2.39 5.36 2.66 8.98 6.12 11.52 11 .67 1.3 1.26 2.35 1.31 2.35.05 0 .72-.94 1.48-2.09 4.93-7.4 12.76-12.3 22.86-14.3 3.23-.63 10.75-.7 14.39-.14 8.2 1.28 13.93 4.05 18.42 8.93 4.89 5.3 7.48 12.49 8.13 22.54.16 2.42.29 19.77.3 38.54V105h-14.7V69.52c0-22.64-.11-36.4-.31-38.03-1-8.1-4.2-13.6-9.33-16.03-2.8-1.32-4.93-1.86-8.92-2.28-12.35-1.28-21.64 3.75-25.98 14.06-1.25 2.97-1.81 4.91-2.61 9.11-.64 3.33-.66 4.03-.77 36.03l-.1 32.62h-14.66l-.1-37.58-.09-37.57-.67-2.55c-1.42-5.33-4.2-9.52-7.67-11.55-3.82-2.23-8.7-3.13-14.01-2.59-7.08.73-11.62 2.73-16.05 7.09-4.49 4.42-7.2 10.35-8.73 19.08-.43 2.46-.5 6.81-.61 34.24l-.12 31.43H281.4V54.15zm303 0V3.3h14.4V105h-14.4V54.15zm71.4 50.42A52.5 52.5 0 01615.35 30C625.76 7.95 650.39-3.98 674.4 1.39c20.08 4.5 35.5 20.25 39.9 40.8.83 3.82 1.14 12.56.61 16.82a52.82 52.82 0 01-5.15 16.96c-2.88 5.77-5.77 9.64-10.87 14.54-7.69 7.4-16.33 11.75-27.34 13.79-3.4.63-12.21.78-15.75.27zm12.84-20.43c3.11-.62 7.3-2.68 9.28-4.6a18.95 18.95 0 005.18-9.1c0-.13-9.06-.24-20.14-.24h-20.14l.18 1.12c.3 1.81 2.2 5.31 3.88 7.17 2.6 2.85 6 4.72 10.27 5.67 2.51.55 8.66.54 11.49-.02zm58.26-29.99V3.3h14.39l.08 6.65.08 6.64 1.55-2.08c5.1-6.86 13.04-11.69 22.25-13.52 3.77-.74 12.48-.66 17.16.16 14.21 2.52 22.8 10.05 25.78 22.6 1.64 6.9 1.6 6 1.73 45.02l.11 36.23H795.3V71.27c0-36.07-.05-37.49-1.51-42.76-2.25-8.07-7.59-13.11-15.77-14.88-2.85-.61-9.55-.7-12.42-.17-11.59 2.17-19.76 10.34-22.94 22.92-1.28 5.08-1.36 7.4-1.36 38.78V105h-14.4V54.15z"/>
</svg>