<svg xmlns="http://www.w3.org/2000/svg" xmlns:xlink="http://www.w3.org/1999/xlink" viewBox="0 0 342.28 83.65">
  <g>
    <path d="M376.56,229.35H332.19V313h44.37a16.15,16.15,0,0,0,16.15-16.15V245.5a16.15,16.15,0,0,0-16.15-16.15M378.14,291a7.42,7.42,0,0,1-7.42,7.42H348.55V243.92h22.17a7.42,7.42,0,0,1,7.42,7.42Z" transform="translate(-224.86 -229.35)" style="fill:#00aeef"/>
    <rect x="75.76" width="16.33" height="83.65" fill="currentColor"/>
    <path d="M269,229.35v34.43H241.19V229.35H241a16.15,16.15,0,0,0-16.15,16.15V313h16.33V278.35H269V313h16.33V229.35Z" transform="translate(-224.86 -229.35)" fill="currentColor"/>
    <path d="M567.14,278.35V263.79H528V243.92h39A16.15,16.15,0,0,0,551,229.35H511.7V313h55.44V298.43H528V278.35Z" transform="translate(-224.86 -229.35)" style="fill:#00aeef"/>
    <path d="M495.88,229.35a16.16,16.16,0,0,0-15,11.13L468,279.69,455.1,240.48a16.16,16.16,0,0,0-15-11.13h-5.83L461.74,313h12.49l27.49-83.65Z" transform="translate(-224.86 -229.35)" style="fill:#00aeef"/>
  </g>
  <rect x="183.1" width="16.33" height="83.65" style="fill:#00aeef"/>
</svg>