<svg xmlns="http://www.w3.org/2000/svg" viewBox="0 0 64 64">
  <defs/>
  <path fill="#00aeef" d="M19.24 33.05a7.14 7.14 0 01-5.87-5.2c-.17-.61-.19-.78-.19-1.75 0-1.17.1-1.7.48-2.64a7.06 7.06 0 0112.72-.76c.28.48.34.67.24.67-.03 0-.22-.25-.42-.55a7.03 7.03 0 00-3.88-2.86 4.73 4.73 0 00-1.8-.18c-1.1 0-1.27 0-1.72.15-2.41.75-3.9 2.3-4.56 4.72a7.98 7.98 0 000 2.85 5.91 5.91 0 007.21 4.32A5.43 5.43 0 0025 24.43a4.93 4.93 0 00-6.27-2.54 4.6 4.6 0 00-2.8 4.4c.06 1.1.43 1.92 1.21 2.7.53.54 1.3.96 2 1.11.54.12 1.61.06 2.1-.12.87-.31 1.63-1 2.03-1.8.28-.58.37-.93.37-1.58 0-1.3-.65-2.37-1.78-2.93a2.98 2.98 0 00-2.73.01c-.45.25-.97.81-1.2 1.3-.16.33-.18.46-.18 1.08 0 .6.03.76.15 1.02.24.47.57.82 1.04 1.07.4.22.47.24 1.03.24.68 0 .98-.12 1.39-.52.78-.78.68-2.12-.19-2.6-.42-.23-.8-.25-1.16-.07-.42.22-.58.46-.58.88 0 .28.03.36.2.5a.7.7 0 00.92-.03c.19-.16.2-.23.21-.57 0-.36.01-.39.15-.35.34.1.62.67.54 1.12-.17.88-1.03 1.37-1.96 1.1-.73-.21-1.3-1-1.3-1.78 0-1.06.93-2.04 2.06-2.19.59-.08 1.44.2 1.95.65 1.19 1.05 1.2 2.98.03 4.16-1 1-2.39 1.21-3.74.57-2.25-1.07-2.67-4.11-.83-5.96a3.82 3.82 0 013.05-1.12c1.17.05 2.06.45 2.9 1.3.88.89 1.28 1.96 1.22 3.3a4.68 4.68 0 01-1.24 3.06A4.83 4.83 0 0120 31.38a5.28 5.28 0 01-5.2-6.36c.28-1.3.77-2.2 1.69-3.07a5.72 5.72 0 015.23-1.46 6.2 6.2 0 014.75 4.48c.21.75.21 2.43 0 3.2A6.74 6.74 0 0123 32.5c-1 .5-2.52.73-3.76.55zm23.55 0a7.39 7.39 0 01-2.16-.7 6.96 6.96 0 01-3.87-6.9 7.09 7.09 0 015.38-6.24c.67-.17 2.67-.15 3.38.04a7.24 7.24 0 014.52 3.6c.13.26.23.5.2.53-.05.1-.12.02-.3-.31a8.46 8.46 0 00-1.22-1.54 7.63 7.63 0 00-2.94-1.6c-.51-.14-.7-.16-1.75-.16-1.08 0-1.23.02-1.77.19a6.39 6.39 0 00-3.46 2.5c-2.25 3.34-1.03 7.65 2.58 9.11.79.32 1.12.38 2.24.38 1 0 1.07-.02 1.68-.22.88-.31 1.5-.7 2.13-1.33a5.44 5.44 0 001.58-3.2 5.03 5.03 0 00-4.92-5.65 4.51 4.51 0 00-4.23 6.24 4.02 4.02 0 003.66 2.37c1.1 0 1.92-.32 2.66-1.07a3.5 3.5 0 001.03-2.95 3.22 3.22 0 00-1.38-2.25 2.98 2.98 0 00-3.15-.18c-.5.27-.9.7-1.17 1.27-.18.4-.2.51-.2 1.05s.01.65.2 1.04c.26.54.62.9 1.1 1.14.31.14.47.17.95.17.49 0 .62-.03.91-.18 1.11-.58 1.35-2.02.47-2.8-.4-.35-.9-.43-1.36-.22-.63.29-.8 1.23-.24 1.48.22.1.46.1.7-.03.23-.12.32-.33.32-.74 0-.34.04-.36.3-.15.54.42.48 1.35-.13 1.85-.5.42-1.2.45-1.83.08-.65-.37-.93-.94-.88-1.78.07-1.03.79-1.78 1.9-1.98 1-.2 2.2.45 2.69 1.44.22.45.31 1.1.23 1.65a3.12 3.12 0 01-3.86 2.52 3.57 3.57 0 01-2.54-4.55c.2-.66.49-1.14 1.02-1.67a3.67 3.67 0 013.04-1.12 4 4 0 012.86 1.3 4.04 4.04 0 011.26 3.12c0 .84-.11 1.33-.51 2.15-.23.47-.4.7-.89 1.19-.52.53-.7.66-1.24.92-1.37.65-2.74.7-4.2.13a5.35 5.35 0 01-3-6.69 5.83 5.83 0 018.4-3.2 6.06 6.06 0 013.25 5.5 6.56 6.56 0 01-3.81 5.99c-.88.41-2.58.63-3.63.47z"/>
  <path fill="currentColor" d="M25.93 55.9a27.24 27.24 0 01-6.69-2.68c-.3-.17-.54-.3-.56-.28-.03.02.13 1.18.31 2.33.06.33.05.47-.02.4l-5.54-6.89a43.7 43.7 0 00-1.53-1.84c-.02 0-.14.6-.27 1.3-.13.7-.25 1.28-.27 1.3-.02.01-.04-.02-.06-.07-.36-1.12-3.05-8.87-3.08-8.87-.02 0-.28.4-.57.89l-.53.89-.04-.67a860.28 860.28 0 01-.45-6.86l-.11-1.75-.54-.08a7.05 7.05 0 01-5.8-5.18c-.16-.6-.18-.79-.18-1.78 0-.92.02-1.2.15-1.63a7.1 7.1 0 015.11-5.17c.73-.2 2.2-.25 2.96-.1.31.06.58.12.6.14.02.01-.14.36-.35.77a13.14 13.14 0 0010.54 19.1c.33.04.61.08.63.1.01 0-.05.24-.14.52a13.6 13.6 0 00-.68 5l.05.32h26.21l.05-.16a12.51 12.51 0 00-.6-4.95 4.2 4.2 0 01-.2-.74l.69-.09a13.18 13.18 0 0011.93-13.1c0-2.1-.42-3.87-1.36-5.78a8.03 8.03 0 01-.44-1l.6-.13a8.7 8.7 0 012.96.1A7.04 7.04 0 0158 33.02l-.55.08-.11 1.68-.3 4.59c-.1 1.6-.2 2.9-.23 2.9-.02 0-.24-.33-.47-.73-.51-.88-.59-.99-.62-.94-.02.02-.7 2-1.53 4.4-.83 2.4-1.52 4.42-1.55 4.47-.06.1-.07.04-.37-1.57l-.2-.96c-.01-.02-.21.21-.44.5a4874.33 4874.33 0 00-5.98 7.4c-.4.49-.72.88-.73.87 0 0 .08-.63.2-1.38.1-.75.18-1.38.17-1.4-.02 0-.3.14-.63.33a26.54 26.54 0 01-6.53 2.6c-.78.2-.8.18-.12-.16a13.2 13.2 0 006.82-8.83c0-.07-2.57-.08-12.85-.08-10.27 0-12.85.01-12.85.08a13.35 13.35 0 006.76 8.8l.57.3c.05.06-.16.02-.53-.07zm3.67-19.78c-.45-.23-.66-.6-.65-1.12a1.22 1.22 0 111.85 1.06c-.33.2-.9.22-1.2.06zm3.57-.06c-.37-.22-.58-.6-.58-1.03 0-.71.5-1.23 1.21-1.23.47 0 .9.26 1.12.69.14.28.12.85-.06 1.16-.32.55-1.13.75-1.7.41zm-1.6-16.6a13.26 13.26 0 00-9.53-6.42c-.87-.13-2.73-.13-3.67 0a13.2 13.2 0 00-7.1 3.36c-.39.36-.28.16.36-.68a25.49 25.49 0 0114.26-9.37c2.2-.54 3.58-.7 6.06-.7 1.98 0 2.72.05 4.39.33A25.54 25.54 0 0152.98 16.6c0 .03-.2-.12-.42-.33a13.2 13.2 0 00-6.94-3.22c-.96-.15-2.75-.15-3.72 0a13.22 13.22 0 00-9.6 6.58c-.15.24-.28.45-.31.45-.03 0-.22-.28-.41-.62z"/>
</svg>