<svg xmlns="http://www.w3.org/2000/svg" viewBox="0 0 342.3 83.7">
  <path d="M151.7 0h-44.4v83.7h44.4a16.1 16.1 0 0 0 16.1-16.2V16.2A16.1 16.1 0 0 0 151.7 0m1.6 61.7a7.4 7.4 0 0 1-7.4 7.4h-22.2V14.6h22.2a7.4 7.4 0 0 1 7.4 7.4ZM75.8 0h16.3v83.7H75.8zM44.1 0v34.4H16.3V0h-.2A16.1 16.1 0 0 0 0 16.1v67.5h16.3V49h27.8v34.7h16.4V0Zm298.2 49V34.4H303V14.6h39A16.1 16.1 0 0 0 326 0h-39.3v83.7h55.5V69H303V49ZM271 0a16.2 16.2 0 0 0-15 11.1l-12.9 39.2-12.9-39.2a16.2 16.2 0 0 0-15-11.1h-5.8L237 83.7h12.5L276.9 0Zm-87.9 0h16.3v83.7h-16.3z" fill="currentColor"/>
</svg>
