<svg version="1.1" xmlns="http://www.w3.org/2000/svg" xmlns:xlink="http://www.w3.org/1999/xlink" viewBox="0 0 216 72" fill="#3dbb3d">
 <path d="m34 22.6h-11c-3.9 0-5.8 1-5.8 1v-23.2h-17.2v71.1h17.1v-28.6c0-2.5 2.1-4.6 4.6-4.6h10c2.5 0 4.6 2.1 4.6 4.6v28.7h17.2v-31c0-13-8.7-18-19.5-18zm98.3 49h17.2v-71.2h-17.2"/>
 <path d="m102.1 51.3c0 2.5-2.1 4.6-4.6 4.6h-10c-2.5 0-4.6-2.1-4.6-4.6v-28.7h-17.2v30.1c0 12.3 7.9 18.8 19.5 18.8h16.8c10.7 0 17.2-7.7 17.2-18.8v-30.1h-17.2c0.1 0 0.1 27.8 0.1 28.7" id="path2"/>
 <use transform="translate(96.7)" xlink:href="#path2"/>
</svg>