<?xml version="1.0" encoding="utf-8"?>
<svg version="1.1" id="NHK World Japan" xmlns="http://www.w3.org/2000/svg" xmlns:xlink="http://www.w3.org/1999/xlink" x="0px" y="0px"
	 viewBox="0 0 300 300.3" style="enable-background:new 0 0 300 300.3;" xml:space="preserve">
<style type="text/css">
	.st0{fill:#FFFFFF;}
	.st1{fill:#E6E6E6;}
	.st2{fill:#727171;}
	.st3{fill:#E60019;}
	.st4{fill:#3E3A39;}
</style>
<g>
	<rect class="st0" width="300" height="300.3"/>
	<rect x="0" class="st1" width="150.8" height="51.9"/>
	<rect x="150.8" class="st2" width="149.2" height="51.9"/>
	<rect x="0" y="235.2" class="st3" width="300" height="65.1"/>
	<polygon class="st4" points="29.6,165.8 35.1,203 35.3,203 41.2,165.8 50.9,165.8 56.8,203 57,203 62.5,165.8 72.2,165.8 
		63.1,216.1 51.7,216.1 46.1,179.6 46,179.6 40.3,216.1 29,216.1 19.8,165.8 	"/>
	<path class="st4" d="M87.7,180.4c0.4-3.2,1.2-6,2.3-8.3c1.2-2.3,2.9-4.1,5.2-5.4c2.2-1.3,5.3-1.9,9.1-1.9c3.8,0,6.8,0.7,9.1,1.9
		c2.3,1.3,4,3.1,5.2,5.4c1.2,2.3,2,5.1,2.3,8.3c0.4,3.2,0.5,6.7,0.5,10.5c0,3.9-0.2,7.4-0.5,10.6c-0.4,3.2-1.1,6-2.3,8.3
		c-1.2,2.3-2.9,4.1-5.2,5.3c-2.3,1.2-5.3,1.8-9.1,1.8c-3.8,0-6.8-0.6-9.1-1.8c-2.3-1.2-4-3-5.2-5.3c-1.2-2.3-2-5-2.3-8.3
		c-0.3-3.2-0.5-6.7-0.5-10.6C87.2,187.1,87.4,183.6,87.7,180.4 M97.6,199.5c0.2,2.4,0.5,4.3,1,5.8c0.5,1.5,1.2,2.6,2.1,3.2
		c0.9,0.7,2.1,1,3.6,1c1.5,0,2.7-0.3,3.6-1c0.9-0.7,1.6-1.7,2.1-3.2c0.5-1.5,0.8-3.4,1-5.8c0.2-2.4,0.2-5.2,0.2-8.6
		c0-3.4-0.1-6.2-0.2-8.6c-0.2-2.4-0.5-4.3-1-5.8c-0.5-1.5-1.2-2.6-2.1-3.3c-0.9-0.7-2.1-1-3.6-1c-1.5,0-2.7,0.3-3.6,1
		c-0.9,0.7-1.6,1.8-2.1,3.3c-0.5,1.5-0.8,3.4-1,5.8c-0.2,2.3-0.2,5.2-0.2,8.6C97.3,194.3,97.4,197.2,97.6,199.5"/>
	<path class="st4" d="M161.6,165.8c4.2,0,7.5,1.1,9.9,3.2c2.4,2.1,3.5,5.4,3.5,9.8c0,3.4-0.7,6.1-2,8.3c-1.4,2.1-3.5,3.5-6.3,4.1
		v0.1c2.5,0.4,4.4,1.2,5.5,2.5c1.2,1.3,1.9,3.3,2.2,6.1c0.1,0.9,0.2,2,0.2,3.1c0,1.1,0.1,2.3,0.1,3.7c0.1,2.7,0.2,4.7,0.4,6.1
		c0.3,1.4,0.9,2.4,1.8,2.9v0.4h-11c-0.5-0.7-0.9-1.5-1-2.4c-0.1-0.9-0.2-1.9-0.3-2.9l-0.3-9.6c-0.1-2-0.6-3.5-1.5-4.6
		c-0.9-1.1-2.4-1.7-4.5-1.7H153v21.3h-10.1v-50.3H161.6z M157.2,187.7c2.5,0,4.3-0.6,5.6-1.7c1.3-1.1,2-3.1,2-5.8c0-4.6-2.4-7-7.1-7
		H153v14.5H157.2z"/>
	<polygon class="st4" points="199.4,165.8 209.5,165.8 209.5,207.7 227.4,207.7 227.4,216.1 199.4,216.1 	"/>
	<path class="st4" d="M263.5,165.8c3.5,0,6.4,0.6,8.5,1.7c2.2,1.2,3.8,2.8,5.1,4.9c1.2,2.1,2,4.7,2.4,7.7c0.4,3,0.6,6.4,0.6,10.1
		c0,4.4-0.3,8.3-0.8,11.5c-0.5,3.3-1.5,5.9-2.8,8.1c-1.3,2.1-3.1,3.7-5.3,4.7c-2.2,1-5,1.5-8.4,1.5h-16v-50.3H263.5z M261.5,208.6
		c1.8,0,3.2-0.3,4.3-0.9c1.1-0.6,1.9-1.6,2.6-3c0.6-1.4,1-3.3,1.3-5.6c0.2-2.3,0.3-5.1,0.3-8.6c0-2.9-0.1-5.4-0.3-7.5
		c-0.2-2.2-0.6-4-1.2-5.4c-0.6-1.4-1.5-2.5-2.6-3.3c-1.2-0.7-2.7-1.1-4.6-1.1h-4.3v35.3H261.5z"/>
	<path class="st4" d="M94.5,72.2c-5.6-1.9-11.8,1-13.7,6.7l-9.7,27.9L52.8,77.4c-1.2-2.3-3.3-4.2-6-5.2c-5.6-2-11.8,1-13.7,6.7
		l-16.4,47.3c-1.9,5.6,1.1,11.8,6.7,13.8c5.6,1.9,11.8-1,13.7-6.7l9.7-27.9L65,134.9c1.2,2.3,3.3,4.2,6,5.1c5.6,1.9,11.8-1,13.7-6.7
		l16.4-47.3C103.1,80.3,100.1,74.2,94.5,72.2"/>
	<path class="st4" d="M270.9,122.1l-13.8-14.4l25.4-16.1c4.8-3.1,6.3-9.5,3.2-14.3c-3-4.8-9.5-6.3-14.3-3.2l-34.2,21.8l3.4-9.9
		c1.9-5.7-1-11.8-6.7-13.8c-5.6-2-11.8,1-13.8,6.7l-16.4,47.3c-1.9,5.6,1,11.8,6.7,13.8c5.6,1.9,11.8-1,13.7-6.7l7.5-21.5l23.9,25.1
		c4.1,4.2,10.8,4.4,15,0.4C274.8,133.1,274.9,126.3,270.9,122.1"/>
	<path class="st4" d="M188.3,72.1c-5.6-1.9-11.8,1-13.8,6.7l-6,17.3l-24.8,0l3.5-10.2c2-5.6-1-11.8-6.7-13.8
		c-5.7-1.9-11.8,1-13.8,6.7l-16.4,47.3c-1.9,5.6,1,11.8,6.7,13.7c5.6,2,11.8-1,13.7-6.7l6.1-17.5l24.8,0l-3.6,10.4
		c-2,5.6,1,11.8,6.7,13.8c5.6,2,11.8-1,13.7-6.7l16.4-47.3C196.9,80.2,193.9,74.1,188.3,72.1"/>
	<path class="st0" d="M87.1,246.9v29.7c0,8.8-4,12.4-12.4,12.4c-8.8,0-10.9-5.6-10.9-12.1v-1.8h7.6v1.3c0,4.4,0.7,6.5,3.7,6.5
		c3,0,3.7-2.1,3.7-6.5v-29.5H87.1z"/>
	<path class="st0" d="M106.7,246.9h10.3l10.9,41.2h-8.7l-1.9-8.7h-11l-1.9,8.7h-8.7L106.7,246.9z M107.8,272.6h8.1l-4-18.5h-0.1
		L107.8,272.6z"/>
	<path class="st0" d="M138,246.9h14.5c8.4,0,11.3,6.2,11.3,12.4c0,8.6-5.3,12.4-13.1,12.4h-4.4v16.5H138V246.9z M146.3,265.6h3.7
		c3.3,0,5.5-2,5.5-6.2c0-4-1.6-6.4-5.8-6.4h-3.5V265.6z"/>
	<path class="st0" d="M178.7,246.9h10.3l10.9,41.2h-8.7l-1.9-8.7h-11l-1.9,8.7h-8.7L178.7,246.9z M179.8,272.6h8.1l-4-18.5h-0.1
		L179.8,272.6z"/>
	<polygon class="st0" points="218.5,246.9 228.5,275.2 228.6,275.2 228.6,246.9 236.2,246.9 236.2,288.2 226.8,288.2 216.6,259.3 
		216.5,259.3 216.5,288.2 208.9,288.2 208.9,246.9 	"/>
</g>
</svg>
