<svg viewBox="0 0 200 200" xmlns="http://www.w3.org/2000/svg"><defs><linearGradient id="iqiyi_bga" x1="100" x2="100" y1="0" y2="200" gradientUnits="userSpaceOnUse"><stop offset="0" stop-color="#00db5b"/><stop offset="1" stop-color="#02b74c"/></linearGradient></defs><path fill="url(#iqiyi_bga)" d="M0 0h200v200H0z"/><path fill="#fff" d="M99.55 125.7q.04.42.46.42h11.2q.36 0 .4-.41V75.95q-.03-.42-.4-.46H100q-.42 0-.46.42zm-81.9 0q.04.42.46.42h11.2q.37 0 .41-.41V94.36q-.04-.42-.41-.42H18.07q-.42 0-.46.42zm48.65-10.48a15.05 15.05 0 0 1-17.34-12.28 14.9 14.9 0 0 1 11.9-17.5c8.19-1.48 16 4.03 17.38 12.24a14.93 14.93 0 0 1-11.94 17.54m25.91 2.36-5.51-4.4a.6.6 0 0 1-.17-.74 25.7 25.7 0 0 0 2.61-16.71A25.9 25.9 0 0 0 59 74.9a25.87 25.87 0 0 0-20.98 30.02 25.9 25.9 0 0 0 30.18 20.82 26 26 0 0 0 10.53-4.44.8.8 0 0 1 .75 0l5.89 4.77c.19.2.53.16.66-.08l6.22-7.76q.26-.37 0-.66m90.9-42.09h-11.16q-.41.05-.45.42v49.84q.04.4.45.41h11.16q.4 0 .45-.41V75.99q-.05-.42-.45-.46M23.67 74.5a7.05 7.05 0 1 0 0 14.1 7.05 7.05 0 0 0 0-14.1m141.98 1h-11.86a.4.4 0 0 0-.5.24l-11.03 19.57s-.12.17-.2.17-.21-.17-.21-.17l-11-19.57a.4.4 0 0 0-.49-.25H118.5c-.33 0-.7.33-.41.83l17.62 29.6q.25.42.25.92v18.78q.03.45.54.5h11.2q.4 0 .45-.5v-18.78q0-.5.25-.91l17.7-29.61c.25-.5-.12-.83-.45-.83"/></svg>
