<svg viewBox="0 0 40.27 12.5" xmlns="http://www.w3.org/2000/svg"><path fill="#00dc5a" d="M20 12.39q.01.1.11.1h2.7q.09 0 .1-.1v-12q-.01-.1-.1-.11h-2.7q-.1 0-.11.1Zm-19.75 0q.01.1.11.1h2.7q.09 0 .1-.1V4.83q-.01-.1-.1-.1H.35q-.1 0-.11.1Zm11.73-2.53A3.63 3.63 0 0 1 7.8 6.9a3.6 3.6 0 0 1 2.87-4.22 3.6 3.6 0 0 1 4.19 2.95 3.6 3.6 0 0 1-2.88 4.23m6.25.57L16.9 9.37a.14.14 0 0 1-.04-.18 6.2 6.2 0 0 0 .63-4.03A6.25 6.25 0 0 0 10.22.14a6.24 6.24 0 0 0-5.06 7.24 6.25 6.25 0 0 0 7.28 5.02q1.43-.27 2.54-1.07a.2.2 0 0 1 .18 0l1.42 1.15a.1.1 0 0 0 .16-.02l1.5-1.87q.06-.09 0-.16M40.16.28h-2.69q-.1.01-.11.1V12.4q.01.1.11.1h2.69q.1 0 .11-.1V.4q-.01-.1-.11-.11M1.7.04a1.7 1.7 0 1 0 0 3.4 1.7 1.7 0 0 0 0-3.4m34.24.24h-2.86a.1.1 0 0 0-.12.06L30.3 5.06s-.03.04-.05.04-.05-.04-.05-.04L27.55.34a.1.1 0 0 0-.12-.06h-2.86c-.08 0-.17.08-.1.2l4.25 7.14q.06.1.06.22v4.53q.01.11.13.12h2.7q.1 0 .11-.12V7.84q0-.12.06-.22L36.05.48c.06-.12-.03-.2-.11-.2"/></svg>
