<svg width="150" height="48" viewBox="0 0 72 24" xmlns="http://www.w3.org/2000/svg" class="sc-785021ed-3 fxgmIs"><path fill-rule="evenodd" clip-rule="evenodd" d="M4.624 5.002c1.183.112 2.364.214 3.547.314.296.023.524.27.524.568v6.93c0 .32.264.577.583.572a706.33 706.33 0 013.536-.062.577.577 0 01.583.574v3.603c0 .302-.235.55-.533.571-2.748.188-5.495.408-8.24.662A.57.57 0 014 18.166V5.573c0-.336.29-.6.624-.57zm58.68.973v6.863l-.002.003c0 .31.252.565.562.57 1.193.024 2.385.048 3.577.074.31.006.559.26.559.571v4.11c0 .337-.29.6-.624.568a337.887 337.887 0 00-8.24-.662.57.57 0 01-.533-.571V6.235c0-.301.234-.55.533-.57 1.184-.083 2.367-.168 3.55-.262a.574.574 0 01.618.572zm-36.653.937v9.918c0 .322.264.58.586.571a358.04 358.04 0 013.56-.073.57.57 0 00.562-.571v-1.09c1.38-.011 2.759-.02 4.139-.02a.57.57 0 00.57-.571V12.07a.57.57 0 00-.57-.57h-4.14v-.906h.01c1.376.003 2.75.006 4.127.006a.575.575 0 00.574-.574V7.023a.57.57 0 00-.571-.57 337.712 337.712 0 01-8.26-.112.57.57 0 00-.587.57zm10.604 3.11V7.018h.003a.57.57 0 01.568-.57c2.754-.015 5.507-.065 8.26-.147a.572.572 0 01.59.571v3.12a.572.572 0 01-.569.574c-.597.006-1.192.008-1.787.011v6.234a.57.57 0 01-.586.57 287.35 287.35 0 00-3.558-.063.57.57 0 01-.566-.572v-6.151c-.594.003-1.186.003-1.78.003a.575.575 0 01-.575-.574zM17.102 5.929a.57.57 0 00-.594.469 1693.1 1693.1 0 00-1.91 10.855.571.571 0 00.597.668c1.023-.062 2.042-.12 3.064-.173a.569.569 0 00.534-.48l.108-.672.108-.673.066-.002c.655-.023 1.307-.045 1.961-.065l.104.624.104.624a.572.572 0 00.589.477 262.56 262.56 0 013.076-.114.568.568 0 00.542-.677c-.639-3.336-1.278-6.705-1.916-10.117a.568.568 0 00-.54-.466c-.717-.026-5.193-.237-5.89-.275l-.003-.003zm2.39 7.006l.53-3.055.53 3.047-1.06.008zM57.27 6.388v2.217c0 .31-.246.565-.556.574-1.383.038-2.765.073-4.148.103v.966c1.374-.02 2.748-.04 4.121-.064a.57.57 0 01.583.571v2.223c0 .32-.263.578-.583.572a943.375 943.375 0 00-4.12-.065v.967c1.382.032 2.764.064 4.147.102.31.01.556.264.556.574v2.224a.571.571 0 01-.606.57c-2.75-.166-5.501-.3-8.255-.403a.572.572 0 01-.55-.571V6.792a.57.57 0 01.55-.571c2.754-.1 5.505-.238 8.255-.404a.57.57 0 01.606.57z" fill="currentColor"/></svg>
