<svg viewBox="0 0 150 49.967" xmlns="http://www.w3.org/2000/svg" class="prefix__sc-785021ed-3 prefix__fxgmIs">
    <path
        d="M1.953 8.999c2.754.261 5.503.496 8.258.731a1.321 1.321 0 011.219 1.324v16.132c0 .744.615 1.344 1.358 1.333 2.743-.056 5.488-.104 8.233-.145a1.348 1.348 0 011.358 1.335v8.389c0 .704-.55 1.281-1.241 1.331-6.398.438-12.793.949-19.185 1.536A1.324 1.324 0 01.5 39.647V10.328c0-.783.675-1.398 1.453-1.327v-.002zm136.615 2.267v15.976l-.005.009c0 .72.582 1.314 1.311 1.324 2.774.056 5.548.115 8.324.171a1.33 1.33 0 011.302 1.333v9.568c0 .785-.675 1.395-1.456 1.318a812.776 812.776 0 00-19.182-1.536 1.331 1.331 0 01-1.241-1.331V11.87c0-.701.548-1.281 1.241-1.328 2.756-.191 5.511-.393 8.269-.609.772-.06 1.435.55 1.437 1.333zm-85.339 2.18v23.09c0 .752.621 1.35 1.37 1.331 2.764-.072 5.523-.128 8.285-.172a1.327 1.327 0 001.31-1.329v-2.535c3.213-.027 6.425-.048 9.635-.048.735 0 1.331-.596 1.331-1.331v-6.998c0-.733-.596-1.326-1.331-1.326h-9.637v-2.112h.023c3.204.008 6.404.012 9.61.012.737 0 1.335-.594 1.337-1.333v-6.989c0-.735-.598-1.331-1.333-1.331a780.1 780.1 0 01-19.228-.259 1.333 1.333 0 00-1.372 1.328v.002zm24.693 7.241v-6.993h.004c0-.731.594-1.327 1.327-1.329a785.535 785.535 0 0019.229-.343 1.334 1.334 0 011.373 1.331v7.265a1.335 1.335 0 01-1.327 1.336c-1.387.012-2.772.018-4.159.022v14.515c0 .749-.615 1.347-1.364 1.329-2.76-.067-5.522-.119-8.283-.148a1.327 1.327 0 01-1.317-1.331V22.02c-1.385.006-2.763.006-4.146.006a1.335 1.335 0 01-1.337-1.333v-.006zm-46.919-9.531a1.332 1.332 0 00-1.383 1.092 4035.294 4035.294 0 00-4.448 25.273 1.333 1.333 0 001.391 1.557c2.38-.145 4.755-.283 7.133-.405a1.323 1.323 0 001.244-1.117l.251-1.562.253-1.567.15-.007c1.528-.054 3.046-.108 4.568-.151l.241 1.451.243 1.456a1.33 1.33 0 001.372 1.109 631.1 631.1 0 017.162-.268 1.318 1.318 0 001.262-1.574 5169.471 5169.471 0 01-4.462-23.555 1.322 1.322 0 00-1.26-1.084 2084.76 2084.76 0 01-13.709-.64l-.008-.008zm5.562 16.311l1.238-7.108 1.231 7.089-2.469.019zm87.954-15.239v5.16c0 .722-.571 1.316-1.296 1.335-3.217.089-6.437.17-9.656.243v2.246c3.196-.047 6.4-.093 9.591-.149a1.33 1.33 0 011.361 1.331v5.176c0 .742-.611 1.346-1.361 1.331-3.197-.058-6.389-.11-9.586-.155v2.252c3.214.077 6.434.152 9.651.239a1.34 1.34 0 011.296 1.335v5.179c0 .768-.646 1.377-1.412 1.327-6.4-.384-12.808-.698-19.218-.939a1.329 1.329 0 01-1.281-1.329V13.166a1.325 1.325 0 011.281-1.327c6.41-.234 12.818-.556 19.218-.942a1.33 1.33 0 011.412 1.329v.002z"
        fill="currentColor" />
</svg>
