<svg xmlns="http://www.w3.org/2000/svg" width="240" height="240"><defs><linearGradient gradientUnits="userSpaceOnUse" x1="91.397" y1="47.967" x2="91.397" y2="240" id="bga" gradientTransform="matrix(.71157 .70261 -.62205 .62998 84.7 24.164)"><stop offset="0" stop-color="#7E67FF"/><stop offset="1" stop-color="#50B5D3"/></linearGradient></defs><g><rect width="100%" height="100%"/><path fill="url(#bga)" d="M61.12 46.336L0 149.449V240h107.6l76.577-64.355-76.849-43.834z"/><path d="M118.33 116.402c.835 5.091 5.181 5.216 5.181 5.216l57.274.206c4.079.204 6.572 4.916 6.431 6.99l.056 41.926c-.546 5.121-5.961 6.254-6.045 6.304L69.401 195.876c-5.141 1.106-9.586-1.056-9.554-5.661l.041-141.007c-.01-2.283 2.459-6.18 7.12-5.929l45.765 7.528c3.045.38 5.425 3.303 5.525 6.191l.032 59.404z" fill="#fff"/></g></svg>
