<svg xmlns="http://www.w3.org/2000/svg" viewBox="0 -60.25 495.3 495.3">
  <path d="M215.3 373.5a55.8 55.8 0 0 1-36.9-27.6c-6.4-13.2-6.6-15-6.6-60.4 0-39.2 0-41.1 2-44.4 4.4-7.4 12.6-10 20.9-6.3 3.7 1.7 5 3 6.6 6.4 1.8 4 2 6.8 2 42.4 0 42.5.3 44.9 6.6 52.3 5 5.7 12.1 8.5 21.9 8.6 12.5 0 21.1-5.1 25.9-15.5 2-4.3 2.1-6.6 2.6-45.5.5-46.3.3-45 8.3-48.6 5.5-2.5 9.3-2.4 14.7.4 8 4 8 3.3 8 50.2 0 32.6-.3 42.3-1.5 47.3a53.3 53.3 0 0 1-36 38.9 89.7 89.7 0 0 1-38.5 1.8zM6.6 371c-6.3-3.8-7.7-9.3-5.8-22.7 4.6-30.8 17.6-100.6 19.4-104.1a20.2 20.2 0 0 1 33-4.5c4.8 5.3 6.5 9.9 18 45.8 5 15.3 9.2 28 9.4 28.2.3.2 1.4-2.4 2.5-5.9 10.6-32.8 18.4-56.1 20-60 3.2-7.4 8.4-12.4 14.3-13.8 12-3 22.7 3.2 25.9 14.9 1.2 4.7 16.5 92.1 18 102.8 1 7.5.9 8.7-.9 12.8-2.6 5.7-7 8.5-13.6 8.5-7 0-11.5-2.6-14.4-8.3-2.3-4.7-3.1-9-9.7-53-1.6-10.3-3-18.7-3.4-18.7a667 667 0 0 0-11.5 35c-6 19.4-11.7 36.5-12.7 38-2.9 4.8-7.4 7-14.3 7-7 0-11.5-2.2-14.4-7-1-1.6-6.7-18.7-12.6-38a524 524 0 0 0-11.6-35c-.4 0-1 2.6-1.4 5.8l-5.1 34c-4.9 31.4-6.1 35.3-12.4 38.4a20 20 0 0 1-16.7-.2zm416.7-.8a18 18 0 0 1-5.7-5.1l-2.3-3.4v-58.5c0-57.6 0-58.5 2-61.9 4.2-6.6 5.2-6.8 37.5-6.8 32.2 0 33.5.2 37.5 6.8 3.9 6.3 1.7 16.5-4.2 19.9a87 87 0 0 1-21.8 1.8l-19.5.5-.3 12.2-.3 12.1 17.8.4a75 75 0 0 1 20.6 1.8c4.2 2 7 7.3 7 13 0 5.8-2 9.2-6.6 12-2.9 1.8-5.1 2-21 2h-17.7v26h19c21.4 0 24.6.7 28.1 6.4 2.6 4.2 2.5 12-.1 16.4-3.6 5.9-5.7 6.2-37.7 6.2-25.4 0-29.2-.2-32.3-1.8z" fill="#ffca05"/>
  <path d="M343 374c-17.5-3-30.8-14-35.8-30-3.3-10.6-2.2-29 2.2-35.1 5.8-8.2 20.3-7.6 25.3 1 1.7 2.9 2 5.4 2 14.8V336l3.3 3.1c2.6 2.7 4.1 3.3 8.7 3.7 7.1.6 9.8-.2 14-3.9 4.9-4.3 7-10.6 7-20.4 0-12-2-15.4-20-34.2A955.1 955.1 0 0 0 329 263c-3.5-3.4-5.7-6.3-5.7-7.7 0-1.6-.5-2-2-1.6-2.5.7-3.7-2.1-1.9-4.3 1.2-1.5 1-1.6-1.8-1-2.7.6-3.6.2-8-4.1-5.3-5.2-8.1-9.3-6.3-9.3.5 0 1-.5 1-1 0-.7-.9-.9-2-.5-1.4.4-3.7-1.4-10-7.7-7.9-8.2-9.1-10.3-6.9-12.5.6-.6 1-1.7.7-2.3-.3-1-.9-.8-2 .4-1 .9-2 1.6-2.6 1.6-1 0-5.2-5.5-5.2-7 0-.6 2.7-4 6-7.6a27 27 0 0 0 5.6-7c-.3-.4-3.4 1.4-7 4-5.3 3.8-6.3 5-6 6.8.5 2 .2 1.9-2.6-1-2.5-2.7-3-4-2.5-6.2.3-1.6 0-3.7-.6-4.8-1.6-2.5-.5-4 5.6-8.2 3.7-2.6 14.8-7 17.4-7 .6 0 1.3 1 1.7 2.4.3 1.4 1.2 2.7 2 3 .7.3 2.2 2.3 3.3 4.4a17 17 0 0 0 4.5 5.5c1.3 1 2.7 2.7 3.1 4 .4 1.2 2 3.4 3.8 4.9 2.6 2.1 3 3 2 4-1.6 1.4-1.7 4.4-.3 5.3.5.3 2-.1 3.3-1 4.1-2.7 5.2 1.6 1.6 6.6-2.3 3.3-1.2 4 1.6.9 3.6-4 1.5-5.7 34.5 27.3 22.6 22.6 32.9 34 37.8 41.7 16 24.8 11.3 64.5-9.3 80a55 55 0 0 1-38.8 10zm43.2-157c-1-.5-2-2.9-2.3-5.2-1.2-7.5-2.6-8-2.6-1 0 5.4-.3 6.3-1.7 6-2.5-.5-3-4-2.5-17.4l.4-12 3-1.1c3.7-1.5 4.4-.2 5.3 9.7 1 11.2 2.3 11.7 1.7.6l-.5-9.6h8l1.1 7.6c.7 4.2 2.2 11 3.3 15 1.2 4 1.9 7.7 1.5 8.1-1.5 1.5-4.2-1.6-5.3-6.2-1.8-7-2.7-6.9-2 .3l.5 6.2h-3.2a12 12 0 0 1-4.7-1zm17.5-2.5c-1-2.5-5.3-24.2-5.4-27.2 0-.2.9-.3 2-.3 1.4 0 2 1 2.6 3.8 1.1 6.3 2.3 7 1.7 1-.5-5-.4-5.8 1-5.8 2 0 3.2 2.6 4.1 9.5.4 2.8 1.6 8.3 2.7 12.3 1 4 1.6 7.8 1.3 8.3-1.2 2-2.8.2-5.1-5.7-2.2-5.5-2.3-5.6-1.9-1.9.3 2.2.8 5 1.2 6.1.4 1.4 0 2.3-1 2.8-1.3.4-2.1-.3-3.2-2.9zm-35.4.6c-2.4-.6-2.5-1.2-3-8.6l-.5-8-1.2 4-1.8 7.3c-.8 3.7-1.4 3.8-7.2 1.5-5.4-2.3-5.5-3.9-.7-14.4 2-4.4 3.4-9 3.2-10.2-.3-1.6-2 1-5.8 9-3.7 7.5-6 11.1-7 11-2.7-.4-2.2-4.2 1.5-11.1 2-3.8 3.4-7.2 3.3-7.7a53 53 0 0 0-10.8 13.2c0 .5-.7.9-1.5.9-4 0 .1-7.8 10-19 6-6.9 7-7.2 11.6-3.9 1.5 1 3.2 1.9 3.8 1.9.6 0 1.1 1 1.1 2.3 0 2 .2 2 1 .5 1.5-2.5 3.3-2.2 7 .9l3.1 2.6-.6 12.1c-.7 13.2-1.2 16.7-2.3 16.5l-3.2-.8zm50.3-7.3c-1.7-3.5-4-9.4-5.3-13.1-2.1-6.6-2.1-6.9-.4-8.8 1-1 2.3-1.8 3-1.7.6.2 5.7 5.6 11.3 12 8.1 9.4 9.8 12 8.5 12.5-1.2.4-3.8-1.7-9.5-7.8-6.5-7-7.8-8-7.9-6a39 39 0 0 0 3.5 9.8c4 8.7 4.1 9.3 1.7 9.3-1.2 0-2.8-2-4.9-6.2zm16.6-8.4a110 110 0 0 1-10-11.1c-3.5-4.4-4-5.6-2.8-6.4.7-.5 1.6-.9 2-.9.2 0 4.2 4.3 8.7 9.5 4.6 5.3 9.4 10 10.7 10.7 3.8 1.7 4 3.8.4 3.8-2.4 0-4.4-1.3-9-5.6zm13.5 2.8a222 222 0 0 1-18.2-20.8c-1-1.8-.7-2.4 1.8-4.2a15 15 0 0 1 3.5-2.2c.3 0 3 2.6 6 5.8a63 63 0 0 0 11.9 9.6c6.8 4 7.8 5.2 5 6.3-2 .8-7.2-1.7-11.8-5.8-5.7-4.9-5.5-2.6.3 3.6 2.8 3.1 5 6 5 6.5 0 1.1-2.4 2-3.5 1.2zm-118.2-4.3c-1.9-2-1.6-2.5 4.4-10 3.1-3.8 5.4-7.2 5.1-7.5a31 31 0 0 0-7.7 6.3l-7.2 6.7-2-2.4c-2.4-3-1.8-6 2.4-11.2 1.7-2.2 2.8-4.1 2.5-4.4-1-1-6.6 4.7-6.9 6.9-.4 3-3.4 3.4-4.8.7-1-1.7-.9-2.5.4-4 1.8-1.9 1.2-3-1.6-3-1.1 0-1.8-.7-1.8-2 0-1.4 1.4-2.7 4.7-4.2 3.3-1.6 4.2-2.4 3-2.6-1-.2-3.8.6-6.3 1.7-5.3 2.5-6.4 2.6-6.4.4a6 6 0 0 0-1.5-3.3 8.4 8.4 0 0 1-1.7-4c-.3-2 .5-2.5 5.9-4.4 8.4-2.9 9-4 2-3.3-6.5.6-8.7.2-8.7-1.9 0-1.5 2-1.9 16.8-3.4 11.4-1.1 14.2-.5 14.2 3.3 0 1.2 1.6 4.6 3.5 7.4 4 6 4.2 7.3 1.4 9.9-3.2 2.9-8.2 9.4-7.6 10a24 24 0 0 0 6.7-4.7c5.7-4.7 6.4-5 8.6-3.8 1.3.7 2.4 2.1 2.4 3.2 0 1-3.5 6.1-7.8 11.3a257 257 0 0 0-9.2 11.4c-1.2 1.7-1.8 1.9-2.8.9zm120.2-13.2-11-8.5-2.9-2.3 5-4.4 5-4.3 12.5 6.5c15.6 8.2 16.1 8.6 13.3 11.4-2.6 2.6-6.7 2.1-14-1.7-5.2-2.8-9.3-4.6-9.3-4 0 .2 3.1 3 7 6 3.8 3.1 7 6.1 7 6.6 0 2.5-5.3.3-12.6-5.3zM261 182.2c-.3-.5.9-2.5 2.5-4.6 3.7-4.4 3.1-5.6-1.5-3.3-3.6 1.7-4.6 1.4-4.6-1.2 0-1.2 3.7-3 12.7-6.4 7-2.6 13.6-4.7 14.6-4.7s2.3 1.2 3 2.7c1 2.2.9 2.8-.7 3.7l-8.9 6.4a40 40 0 0 1-9.9 5.9c-1.6.3-3.1 1-3.4 1.4-.7 1.1-3.1 1.2-3.8 0zm209.4-9.1c-5-1.6-20.9-8.7-22-9.7-.2-.2.1-1 .7-1.5.8-.8 2.4-.7 5.9.5 5.8 2 6.6 1.5 2-1.3-4-2.5-5.1-4.8-3.5-6.7 1.7-2 4.5-1.7 9.7 1 2.6 1.4 8.4 3.5 13 4.8 4.6 1.3 8.2 2.8 8.2 3.6 0 1.2-1.1 1.6-4.3 1.3-1-.1-1.7.3-1.7.8 0 .6.7 1.1 1.5 1.1 2 0 1.9 1.5-.2 5.1-2 3.4-2 3.4-9.3 1zm-82.3-2.8c-.4-.3-.8-4.5-.8-9.2 0-8-.2-8.4-1.4-5.6-.8 1.7-1.7 5.1-2 7.8-.7 4.5-2.5 6.7-5.4 6.7-1.6 0-1.3-5.7.8-13.3 2.5-9 .7-8.3-4.4 2-2.4 4.8-4.5 7.8-5.3 7.5-1.7-.5-1.5-2.6 1-8.3 1.1-2.7 1.8-5.2 1.5-5.6-.4-.3-2 .8-3.6 2.6-1.6 1.7-3.4 3.1-4 3.1-3 0-1.5-2.8 5-9.5 4-4.1 6.7-7.5 6-7.5-1.2 0-8.4 5.2-15 10.8-5.4 4.6-8.5 2.3-3.5-2.4 3.3-3 2.6-4-1.7-2.5a20 20 0 0 1-4.6 1.1c-2 0-5.6-8.6-4.9-11.6.4-1.4.2-2.4-.4-2.4-.6 0-1-.6-1-1.4 0-1.5 4.2-2.6 10.3-2.6 6 0 3.8-1-4-1.8-5.3-.6-6.9-1-7.1-2.4-.2-1.2.3-1.8 1.3-1.8 1.7 0 1.7-.1-.2-4.8-.8-1.8 1.5-1.5 9.3 1.2 7.4 2.5 15.4 4.2 15.4 3.2 0-.3-3-1.4-6.5-2.5-9.7-3-16.5-6.2-16.5-7.7 0-1.7.3-1.7 6.4.1 2.7.8 5.1 1.3 5.4 1 .3-.3-1.1-2-3.1-3.9-3.7-3.3-4.5-5-2.9-6 .8-.5 3.5 1 9.1 5.2 4 3 4 1.9-.4-3-6.2-6.8-3.4-9.8 3-3 3.8 4 4.2 3.5 2-2.6-1.2-3.6-1.2-4.1.1-4.6 2.3-.9 2.3-.9 3.8 2.6l1.4 3.3.1-3.8c0-4 2.6-5.3 3.8-2 .3 1 1.5 3.8 2.6 6.3l2 4.5.8-5.9c.5-3.2 1-6.1 1.4-6.4.2-.3 1.3.2 2.3 1.1 1 1 2.4 1.7 3 1.7 1.5 0 3.2 3.3 3.2 6 0 1.6.4 2 1.5 1.6 2.1-.8 3 3.7 1.6 8.2-2 6.6-5.5 11.7-8.1 12-9.8 1-11 2.4-7 7.5 1 1.4 2 3 2 3.5 0 .6 2 1.4 4.5 1.8 7.1 1 7.5 1.8 7.5 15.7 0 6.7-.3 13.2-.6 14.4-.6 2.2-2.4 3-3.7 1.6zm7-.8a48.1 48.1 0 0 1-.7-20c1.2-8.4 1.3-8.6 4.8-10.4 2-1 5-3.3 6.6-5 1.6-1.7 3.6-3.1 4.4-3.1a38 38 0 0 1 8 3.5c3.7 2 9.3 4.5 12.5 5.6 5.3 2 7.8 4.1 6.3 5.6-.7.8-10-2.3-16.1-5.4a100 100 0 0 0-7.5-3.5l-2.5-1 2.5 2.7c1.4 1.5 5.9 5.4 10 8.7 8.2 6.6 9.1 7.8 6.2 7.8-1.1 0-2.2.9-2.5 2-1 3.7-4.2 2-12.2-6-4.3-4.4-8-7.8-8.3-7.6-.6.6 6.7 12.3 9.7 15.6 3.6 3.7 3.9 5 1.2 5-1.8 0-9.4-7.3-10.3-10-.3-.9-.9-1.2-1.3-.8-.8.8 2.9 9.5 5.1 12 2 2 .9 4-1.7 3.3-1.1-.4-2.6-.2-3.3.4-1.6 1.3-3.6-.8-5.6-5.7-.9-2.2-1.6-3-2-2.1-.5.7-.7 1.7-.5 2.3l.9 4.4c.4 2.7.2 3.2-1.3 3.2-1 0-2.2-.7-2.5-1.5zM255 166.2c-.3-.6-.4-1.7 0-2.6.3-.8-.4-2.9-1.6-4.6-3-4.2-2-6.7 3.3-8 6.5-1.7 6.6-1.8.5-2-5.3 0-5.8-.2-6.4-2.5-1.2-4.6-.2-5.2 9.7-5.9 5.2-.3 12-.9 15-1.2l5.6-.6.7 4.8c1.5 10 1.5 9.7-3 10.5-6.9 1.2-15.4 4-15.4 5 0 .6.8.8 1.7.5a68.8 68.8 0 0 1 19.6-2.7c1.7 1.7-.3 2.9-7 4-3.8.7-8.7 2-11.1 3.1-5.6 2.5-10.8 3.5-11.6 2.2zm221.9-11.7-12.8-3c-7.2-1.6-9.5-3.3-6.8-5 .7-.4 22.6 4.1 29.3 6.1 2.6.8 1 3.4-2 3.3a46 46 0 0 1-7.7-1.4zm-176.4-8.6a7 7 0 0 0-.6-3.9c-.5-.8-1-3.2-1.1-5.2-.2-3.3 0-3.8 2-3.9 1.1 0 7.5-.6 14-1.3 14.2-1.6 14.6-1.4 15.6 6.5.8 6.3.8 6.3-14.5 8-6 .6-12 1.3-13.4 1.6-2 .5-2.2.2-2-1.8zm172.3.1c-7.6-1.1-12.4-3-12.4-4.7 0-1.2.8-1.4 3.7-1a809.6 809.6 0 0 0 26 3.7c.2 0 .3.7.3 1.5 0 1.2-1.3 1.5-6.3 1.4a96 96 0 0 1-11.3-.9zm-43-9.9a50.6 50.6 0 0 1-17.3-8.5c-1-1.2-1-2 .2-4.3.8-1.5 1.7-5 2.1-7.5l.7-4.8h7.2c4 0 11 .3 15.5.7l8.3.6-.3 4.1-.3 4.1H440c-6 0-8.5 1.8-3.2 2.3 5.5.5 7.5 1.2 7.5 2.8 0 .8-.7 1.7-1.5 2-.8.4-1.5 1.2-1.5 2 0 1.5-1.5 1.8-7.4 1.4-5.3-.3-3.9 1.5 2.4 3.1 3.6 1 5 1.7 4.8 2.8-.5 2.4-2.6 2.3-11.3-.8zm41.8 1.7c-10.1-1-11.2-1.2-11.2-3 0-3.6 1.9-5.8 5.3-5.9l3.2-.1-3.3-1c-2.2-.8-3.2-1.7-3.2-3 0-2 .4-2 15.7-1.3 8.7.4 16 .8 16.1 1 1 1-5.7 7.7-8.3 8.4-3 .8-3 .8 1.5 1.7 2.9.6 4.5 1.5 4.5 2.4 0 1.9-5.1 2-20.3.8zm-221.8-5c.3-4 .6-4.3 3.7-4.9l3.4-.6-3.2-.8c-4-1-6.3-3.2-4-4 .9-.4 8-.3 15.9.2 11.7.6 14.3 1 14.3 2.3 0 1.2-1.8 1.6-8 2-6.7.4-7.4.7-4.5 1.3 2 .4 5.5.8 8 1 4.2.2 4.5.4 4.8 3.3l.3 3.1-7.7.6c-4.2.4-11.2.7-15.6.7h-7.8zm48.4-3.4a19 19 0 0 1-.4-4.4v-3.5l12.3-.3c11.4-.2 12.3-.1 13.3 1.8a4 4 0 0 0 3.5 2c3 0 3.2 1.5.6 3a120 120 0 0 1-29.3 1.4zm172.2-11c-7.3-1.2-7.3-1.2-6.7-5.4.2-2 0-4.3-.5-4.8-2-2 .4-3.2 6-3.3 6.5 0 19.6-1.4 23-2.4 2.5-.8 2.8.3 1 2.9-1 1.3-4 2-11.6 2.8-5.6.6-10.2 1.5-10.2 2s5 .5 11 .2c9.5-.6 11-.5 11 .8 0 .9.3 3 .6 4.7l.6 3.1-10.8-.1c-6-.1-12-.3-13.4-.6zm-212.2-1c-5.3-.4-8-1-9-2-1-1.3-1-1.7.2-2.4s1.2-1.2.2-2.2c-1.7-1.7-1.5-5.3.3-6.8 1-.8 2.9-1 5-.7 4.6.8 4.5-.9 0-1.7-3.3-.6-5.5-2.9-4.2-4.2.3-.3 7.3.5 15.7 1.7l15.2 2.3-.6 7.5c-.3 4-.9 7.7-1.2 8-.7.7-11.7 1-21.6.4zm1.7-5.4c-.4-.6-1.7-1-3-1s-2.7.4-3 1c-.4.6.8 1 3 1 2.1 0 3.4-.4 3-1zm46 5c-5.8-.4-7-.8-7.4-2.4-.3-1.8.2-1.9 11.5-1.2 15.6.9 19.4 1.5 19.4 3.2 0 1.5-9 1.7-23.5.5zm6-6c-4-.5-8.4-1.4-9.8-2-2.7-1-3.6-3.3-1.8-4.4.5-.4.7-1.5.4-2.6-.5-1.7 0-2 2.3-2 1.6 0 5.8.7 9.3 1.5 7.7 1.9 9 1.3 2.4-.9-6.5-2.2-11.3-5.2-11.3-7.2 0-1 .5-1.4 1.5-1 8.3 3.2 22.8 7.7 23.8 7.3.6-.2-4.1-3-10.6-6-7.2-3.5-11.7-6.3-11.7-7.2 0-2.2 1-2 14 3.6 16.1 7 15.7 6.5 13.3 12a52.2 52.2 0 0 0-2.7 7.2c-.6 2.6-1 2.7-6.4 2.6a163 163 0 0 1-12.8-1zm109-3.3c-.9-1.2-2.6-2.2-3.8-2.2-1.8 0-2.4-.8-3.2-4.2a20 20 0 0 0-5.8-9c-5.6-5.8-5.8-7-1.6-17.7a35 35 0 0 0 2.6-8.3c-.8-.7-4.3 5.8-6.3 11.6-2.1 6-3.6 7.1-6.3 4.7-1-.9-2.3-1.6-3-1.6-.6 0-1.8-1.1-2.7-2.4-1.6-2.6-1.5-7.3.7-19.6 1.7-9.7 1.8-10 4-10 2.1 0 2.4 1.7 1 6.7-.5 1.8-1.2 6.3-1.5 10-.6 6.5-.5 6.7.9 3.8.8-1.6 2.3-6 3.5-9.6 2-6.7 4-9.6 5.9-8.5.6.4.6 1.7 0 3.4l-2.3 7.5c-.8 2.6-1.2 4.7-.8 4.7.5 0 2.7-2.7 5-6l4.3-6 3.2 1.6 3.4 1.9a92 92 0 0 1-4.2 10 49.4 49.4 0 0 0-4.3 11.3c.2 1 3-2.1 6.6-7.1 6-8.3 9.2-10.7 9.2-7 0 .9-1.2 3.1-2.6 5-1.4 1.9-2.4 3.7-2.1 4 .3.2 2.3-.8 4.6-2.2 3.8-2.6 7-2.8 7-.6 0 .6-2.4 2.6-5.4 4.6-3 2-5.5 4-5.5 4.6 0 1 4.7-.6 6.6-2.2 2.3-1.9 7.2-2.8 8.7-1.6 3.6 2.8 2.4 5-5 9.1-4 2.3-7.3 4.4-7.3 4.7 0 .4 3.2 0 7.2-.7 4-.8 8.3-1.4 9.5-1.4 3.2 0 2.9 2.8-.5 4.2l-2.7 1.2 3.7.4c4.1.4 5.3 2.3 4.6 7.8-.3 2.7-.6 2.8-10.5 4.5-5.6.9-11 2-11.8 2.2-.8.4-2-.3-3-1.6zm41.5-6.7c-.6-1-.5-2 0-2.7.7-.6.6-1.4-.5-2.3-1.8-1.5-2-5.6-.4-6.6.8-.5.6-1-.5-1.6-1-.6-1.5-1.6-1.1-2.8.3-1 .1-2.1-.4-2.4-.8-.5-4.1-6.3-4.1-7.2 0-.7 15.2-3.6 22-4 8.9-.8 11.2-.2 10.3 2.2-.8 2.1-7 4.7-16.8 6.9-7 1.6-7.7 1.9-5.2 2.6 1.6.4 7.2.1 13.4-.8 8.9-1.3 10.7-1.3 11.4-.2 2.8 4.4-.9 7-11.4 8.4-3.1.3-5.7 1.1-5.7 1.7 0 .8 3.1.9 10 .4l10-.7v2.5c0 3-.5 3.2-17.2 6.1-12.1 2.1-13 2.1-13.8.5zM265 95.4C252.5 93 250 92 252 90c1.8-1.8 29.7 4.2 30.1 6.4.4 2.2-2.1 2.1-17.2-.9zm59.4-5.5c-11.3-4.7-16.2-8-14.2-10 1-1.1 2.3-.7 7 1.9 8.3 4.5 9.4 4 2.8-1.4-5.8-4.8-7-7.4-3.6-7.4 1.5 0 2-.7 2-2.5 0-3.5 1.5-3.1 6.8 1.6 5.3 4.6 6.7 3.6 2.8-2-2.6-3.7-3.5-8.1-1.7-8.1.5 0 2 1.2 3.1 2.7l2.2 2.8-.7-4.1c-.4-2.4-.2-4.5.3-4.8 1.5-.9 3.7 2.3 7.7 11.4 2 4.7 4.8 10 6 11.8l2.3 3.4-4.2 4.4c-2.9 3-5 4.4-6.7 4.3a65 65 0 0 1-12-4zm-50-.5a149 149 0 0 1-20-4.4c-.7-.4-1-1.3-.5-2 .7-1.2 5-1 8.7.5 3.4 1.4 1.7-1.4-2-3.2-2.3-1.1-3.8-2.6-4-4-.3-2 .2-2 10.5 2.1 18.3 7.3 18.6 7.4 17.9 9.2l-.6 2c0 .5-6.2.3-10-.2zm73-8.6a92.5 92.5 0 0 1-11.6-24.4c1-2.7 3.3-1.4 5 2.9 2 4.6 3.4 3.5 1.7-1.3-1.1-3.4-.6-6 1.3-6 1.3 0 9.3 22.5 9.8 27.5.2 2.4-.1 3-1.9 3.3-1.2.2-3-.6-4.3-2zm-73.5-2.4c-11.7-4.1-15.5-6.3-15.5-8.8 0-1.2.5-3 1.2-3.8 1.2-1.5 1.8-1.5 7.3.8a68 68 0 0 0 19.8 5.1c.6-.2-1.6-1.4-4.9-2.7-11.4-4.4-18.4-8.2-18.4-10a9 9 0 0 1 1.5-3.7l1.5-2.1 5.2 2.8c3 1.6 9.3 4.2 14.3 6 4.9 1.7 9.1 3.3 9.3 3.5.3.3-.7 2-2.2 4a13.2 13.2 0 0 0-2.6 4.8c0 .8-1.3 1.7-2.9 2-1.7.4-3 1.4-3.4 2.6-.7 2.6-1.6 2.6-10.2-.5zm82-2.1a92 92 0 0 1-5.5-21.7c0-2.4.7-3.6 3-5 2.8-1.6 3-1.6 4 .3.5 1 1 2.7 1 3.5 0 .8 1 4 2 7.2 2.9 7.4 4.8 6 3.1-2.2-1.5-7.7-1.4-11 .4-11.7 2.1-.9 2.4 0 4 13 2.2 17.3 2 18.3-1.3 18.3-2.4 0-3.2-.8-5.2-4.7-2-4-2.5-4.4-2.8-2.6-.2 1.2.1 3 .7 4.2 1.5 2.8 1.3 5.1-.4 5.1-.8 0-2.2-1.7-3-3.7zm27.5 1.7c-3.3-.5-3.6-.8-4.2-5-.4-2.5-.7-9.6-.7-15.8-.1-10.3 0-11.3 1.6-11 1.4.3 1.9 1.7 2.4 7.3.5 6.6.5 6.7.8 2 .4-7 1.3-9.6 2.9-8.6 1 .6 1.2 4.5 1 16.2l-.3 15.4zM372 75.8a64 64 0 0 1-1.6-16c-.4-11.9-.2-13.8 1-13.8 1.3 0 1.7 1.9 2.2 8.8.4 4.8 1.1 11.5 1.7 15 .5 3.4.7 6.7.4 7.2-1 1.6-2.4 1.1-3.7-1.2zm79.9-3.5c-2-1.8-.5-6 3.5-10 5.5-5.6 4.2-6.7-1.7-1.2-4.5 4.1-4.6 4.2-6.6 2.3-5.7-5.1-4.9-7 7.9-19 7.1-6.6 9.6-8.4 10.5-7.5.9.9.8 1.6-.1 3.2-1.2 1.8-1 1.9 1.1 1.3 3.1-.7 7.4 4 5.6 6.2-1 1.1-.6 1.4 1.5 1.4 4.2 0 3 2.4-3.2 6.3-6.6 4-13.4 10.7-11.1 10.7a77 77 0 0 0 10.4-3c9.8-3.3 12.5-3.7 12.5-1.6 0 .8-4.6 3-11.8 5.6-6.4 2.3-12.1 4.6-12.7 5.1-1 1-4.9 1.2-5.8.2zM281.3 56.5c-6.3-3-11.6-6-11.8-6.8-.2-.8.4-2 1.2-2.7.9-.7 1.6-1.8 1.6-2.5s.9-1.5 2-1.8c1.1-.3 2-1.1 1.8-1.8-.6-2.7 3.4-1.9 7.7 1.6 5.2 4.3 5.8 3.8 1.5-1.2-2.9-3.2-4.1-8.3-2-8.3.4 0 1.7-1.4 2.7-3 1.4-2.6 2.3-3 4.5-2.7 2.4.3 2.8 0 2.8-2 0-3.7 2.5-2.7 6.3 2.5 4.2 5.7 11.7 13 11.7 11.5 0-.6-2-3.8-4.4-7-7.2-9.8-9-14.3-5.5-14.3.6 0 2.2-.9 3.6-2s3-2 3.7-2c1 0 14.9 18.8 17.5 23.8 1.2 2.2 1 2.4-1.6 2.2-5.3-.4-6.3 0-6 1.8.2 2.2-7.6 9.2-10.2 9.2-.9 0-6.3-4-12-9-10-8.9-12.4-10.2-10.2-6.2a90.5 90.5 0 0 0 16.3 15c1.5.9 2.8 2 2.8 2.5a20 20 0 0 1-3.2 4.8c-4.2 5.2-6.5 5-20.8-1.6zm155-4.3-2.2-1.8 2.7-6.4a65 65 0 0 1 10.9-19c4.1-3.8 4.2-.3.1 6.5-3.4 5.7-4 9.5-.7 4.5 3-4.5 6.4-8 7.5-8 .7 0 2.5 1.2 4.2 2.5l3 2.4-9.3 9.4c-5 5.2-9.2 10-9.2 10.6 0 1.7-4.5 1.3-7-.7zm-6-7.4c0-2.8 4.6-12.8 9.4-20.2 2.5-3.9 4-5.4 5-5 .9.4 1.6 1 1.6 1.5 0 .4-2.4 5-5.4 10a76 76 0 0 0-6.1 12.6c-.8 4-4.5 4.8-4.5 1zm-6.7-1.4c-.9-2.3 2-17.8 4.7-24.6 2-5.7 4.4-7.4 5.6-4.3.3.8 1.7 1.5 3 1.5s2.4.3 2.4.7c0 .5-2.8 7-6.3 14.5-6 13.1-8 15.8-9.4 12.2zm-10.1-5.7c-1.8-1.7-3.4-2.2-7.4-2.2-5 0-5.2 0-6.1-3.5-1-3.4-.3-19.6 1-25.2.3-1.9 1.2-2.8 2.4-2.8 1.8 0 1.9.6 1.3 13.5-.4 7.4-.4 13.5 0 13.5 1.2 0 2.4-4.6 3.6-13.1 1.4-10.6 2.2-12.1 5.8-11.3 4.1 1 4.6 1.9 3.4 6.6a107 107 0 0 0-1.8 10c-1 9.3 1.2 7 3.6-3.7 1.8-8 2.5-9.5 4-9.5 1.1 0 2 .3 2 .7 0 .5-1.4 7.2-3.2 15-3.4 15.4-4.2 16.5-8.6 12zm-88.3-7.2C315.7 19 312 11 316.2 11c1.3 0 2.3 1 3 3.3 1.2 3.5 7 11 7 9 0-.7-1-4.1-2.3-7.7-1.8-4.7-2.1-6.7-1.3-7.5.6-.6 1.4-1.1 1.8-1.1.4 0 2.3 4.2 4.3 9.3 2 5 4 9.9 4.6 10.7 1.9 3 1-1.7-1.5-8.6-3-8-3.4-13.7-.8-13.2 1 .2 2 1.5 2.3 3.2.8 4.6 2.5 4.1 2.5-.6 0-3.6.3-4.3 2-4.3a8 8 0 0 0 3.2-.8c2.2-1.4 3 0 4.4 7.3a25 25 0 0 0 2 7.6c.5.3.9-2.2.9-5.5 0-7.2 1.5-11 4.7-11.7 3-.8 5.3 1.2 5.3 4.8 0 1.6.7 7.9 1.6 14 1.2 8 1.3 11.3.5 12-2.1 2.2-3.3-.9-4.6-12.2A85.4 85.4 0 0 0 354 7.4c-.9-1-2 7.8-2.1 16.4-.1 7-.4 8.5-2 9.3-2.4 1.5-4.3-.3-6.1-6l-1.5-4.6.4 5.8c.5 6.4-.9 8.1-4.5 5.8-1.6-1-2-.8-2 .9 0 1.5-.6 2-2.7 2-2.3 0-4-1.3-8.3-6.5zm63.9 1.1a69.3 69.3 0 0 1-.4-22.8c.6-5.8 1-6.8 2.7-6.8 1.3 0 2 .7 2 2.3v2.2l1-2.4c.6-1.5 1.4-2.1 2.5-1.7l1.9.6a70.5 70.5 0 0 0-1.2 19.2l.5 11.7-4-.2c-2.8 0-4.3-.7-5-2zm-16.8-1.8a37 37 0 0 1-1.5-7c-.9-6.5-2.5-6-2.5.6 0 5-1.7 8.6-3.4 7-.8-1-.8-21.7 0-26.7.6-3.5.9-3.8 3.8-3.5 2.4.2 3.2.8 3.4 2.8.6 4.1 1.9 4.4 2.6.6.6-3.3 1-3.6 4-3.6 2 0 3.8.5 4.1 1 .4.6.8 3.9 1 7.3 0 3.4.5 10.2 1 15 .8 8.4.7 8.9-1.1 8.5-1.5-.2-2-1.6-2.7-5.8l-1.4-9-.7-3.5-.6 3.5c-.3 2-.2 5.7.2 8.4.8 5.8.5 6.6-2.8 6.6-1.6 0-2.8-.8-3.4-2.2z" fill="#f6921e"/>
</svg>