<?xml version="1.0" encoding="utf-8"?>
<svg version="1.1"
	 id="NHK_World_Japan" xmlns:cc="http://creativecommons.org/ns#" xmlns:dc="http://purl.org/dc/elements/1.1/" xmlns:rdf="http://www.w3.org/1999/02/22-rdf-syntax-ns#" xmlns:svg="http://www.w3.org/2000/svg"
	 xmlns="http://www.w3.org/2000/svg" xmlns:xlink="http://www.w3.org/1999/xlink" x="0px" y="0px" viewBox="0 0 500 106.1"
	 style="enable-background:new 0 0 500 106.1;" xml:space="preserve">
<style type="text/css">
	.st0{fill:#FFFFFF;}
	.st1{fill:#727171;}
	.st2{fill:#E60019;}
	.st3{fill:#3E3A2F;}
</style>
<g id="g85" transform="translate(-3.7049193e-7,-11.31371)">
	<rect id="rect4" y="11.3" class="st0" width="500" height="67.7"/>
	<rect id="rect8" x="470.6" y="11.3" class="st1" width="29.4" height="67.7"/>
	<rect id="rect10" y="79" class="st2" width="500" height="38.3"/>
	<polygon id="_80767200" class="st3" points="246,67.9 237.5,21.6 246.5,21.6 251.6,55.9 251.7,55.9 257.2,21.6 266.2,21.6 
		271.6,55.9 271.7,55.9 276.9,21.6 285.9,21.6 277.4,67.9 267,67.9 261.8,34.3 261.6,34.3 256.4,67.9 	"/>
	<path id="_80767296" class="st3" d="M295.4,35c0.3-3,1.1-5.5,2.2-7.6c1.1-2.1,2.7-3.8,4.7-5c2.1-1.2,4.8-1.8,8.4-1.8
		c3.5,0,6.3,0.6,8.4,1.8c2.1,1.2,3.7,2.9,4.7,5c1.1,2.1,1.8,4.7,2.2,7.6c0.3,3,0.5,6.2,0.5,9.7c0,3.6-0.2,6.8-0.5,9.7
		c-0.3,3-1,5.4-2.2,7.6c-1.1,2.1-2.7,3.7-4.7,4.9c-2.1,1.1-4.9,1.7-8.4,1.7s-6.3-0.5-8.4-1.7c-2.1-1.1-3.7-2.7-4.7-4.9
		c-1.1-2.1-1.8-4.7-2.2-7.6c-0.3-3-0.5-6.2-0.5-9.7C294.9,41.2,295.1,38,295.4,35z M304.5,52.7L304.5,52.7c0.2,2.2,0.5,4,0.9,5.3
		c0.5,1.4,1.1,2.3,1.9,3s1.9,0.9,3.3,0.9s2.5-0.3,3.3-0.9s1.5-1.6,1.9-3c0.5-1.3,0.8-3.1,0.9-5.3c0.2-2.2,0.2-4.8,0.2-7.9
		c0-3.1-0.1-5.8-0.2-7.9c-0.2-2.2-0.5-4-0.9-5.3c-0.5-1.4-1.1-2.4-1.9-3c-0.9-0.6-1.9-0.9-3.3-0.9c-1.4,0-2.5,0.3-3.3,0.9
		s-1.5,1.6-1.9,3c-0.5,1.4-0.8,3.2-0.9,5.3c-0.2,2.2-0.2,4.8-0.2,7.9C304.3,47.8,304.4,50.5,304.5,52.7z"/>
	<path id="_80767368" class="st3" d="M356.5,21.6c3.9,0,6.9,1,9.1,3c2.2,1.9,3.3,5,3.3,9c0,3.1-0.6,5.7-1.9,7.6
		c-1.2,2-3.2,3.3-5.8,3.8v0.2c2.3,0.4,4,1.1,5.1,2.3c1.1,1.2,1.8,3,2,5.7c0.1,0.9,0.2,1.8,0.2,2.8c0.1,1,0.1,2.2,0.2,3.4
		c0.1,2.5,0.2,4.4,0.4,5.7c0.2,1.3,0.8,2.2,1.7,2.6V68h-10.1c-0.5-0.6-0.8-1.4-0.9-2.3s-0.2-1.7-0.2-2.6l-0.5-8.9
		c-0.1-1.8-0.5-3.3-1.4-4.3c-0.8-1-2.2-1.6-4.1-1.6h-5v19.6h-9.3V21.6L356.5,21.6z M352.4,41.8L352.4,41.8c2.3,0,4-0.5,5.2-1.6
		c1.2-1.1,1.8-2.9,1.8-5.4c0-4.3-2.2-6.5-6.5-6.5h-4.4v13.4H352.4z"/>
	<polygon id="_80767440" class="st3" points="382,21.6 391.3,21.6 391.3,60.3 407.9,60.3 407.9,67.9 382,67.9 	"/>
	<path id="_80767512" class="st3" d="M434.8,21.6c3.3,0,5.9,0.5,7.9,1.6c1.9,1.1,3.5,2.6,4.7,4.5c1.1,1.9,1.9,4.4,2.3,7.2
		c0.4,2.8,0.6,5.9,0.6,9.3c0,4.1-0.2,7.6-0.8,10.7c-0.5,3-1.3,5.5-2.6,7.5c-1.2,1.9-2.8,3.4-4.9,4.4c-2,0.9-4.6,1.4-7.7,1.4h-14.8
		V21.6L434.8,21.6z M433,61.1L433,61.1c1.6,0,3-0.2,4-0.9c1-0.5,1.8-1.5,2.4-2.8c0.5-1.3,0.9-3,1.2-5.1c0.2-2.1,0.3-4.7,0.3-7.9
		c0-2.6-0.1-5-0.2-6.9c-0.2-2-0.5-3.7-1.1-5c-0.5-1.3-1.3-2.3-2.4-3c-1-0.7-2.5-1-4.3-1h-4V61L433,61.1L433,61.1z"/>
	<path id="_80767584" class="st3" d="M77.3,21.5c-3.9-1.3-8.1,0.7-9.4,4.6l-6.6,19L48.8,25.1c-0.9-1.6-2.3-2.9-4.1-3.6
		c-3.9-1.3-8.1,0.7-9.4,4.6L24.1,58.4c-1.3,3.9,0.7,8.1,4.6,9.4c3.9,1.3,8.1-0.7,9.4-4.6l6.6-19l12.5,20.1c0.9,1.6,2.3,2.9,4,3.5
		c3.8,1.3,8.1-0.7,9.4-4.6l11.2-32.3C83.2,27,81.2,22.8,77.3,21.5z"/>
	<path id="_80767680" class="st3" d="M197.9,55.6l-9.4-9.9l17.3-11c3.3-2.1,4.3-6.5,2.2-9.8c-2.1-3.3-6.5-4.3-9.8-2.2l-23.4,14.9
		l2.3-6.8c1.3-3.9-0.7-8.1-4.6-9.4c-3.9-1.3-8.1,0.7-9.4,4.6l-11.2,32.3c-1.3,3.8,0.7,8.1,4.6,9.4c3.8,1.3,8.1-0.7,9.4-4.6l5.1-14.7
		l16.3,17.1c2.8,2.9,7.4,3,10.3,0.2C200.5,63.1,200.6,58.5,197.9,55.6L197.9,55.6z"/>
	<path id="_80767752" class="st3" d="M141.4,21.4c-3.8-1.3-8.1,0.7-9.4,4.6l-4.1,11.8h-16.9l2.4-6.9c1.3-3.9-0.7-8.1-4.6-9.4
		c-3.9-1.3-8.1,0.7-9.4,4.6L88.2,58.4c-1.3,3.8,0.7,8.1,4.6,9.4c3.8,1.3,8.1-0.7,9.4-4.6l4.1-12h16.9l-2.5,7.2
		c-1.3,3.8,0.7,8.1,4.6,9.4c3.8,1.3,8.1-0.7,9.4-4.6l11.2-32.3C147.3,27,145.2,22.8,141.4,21.4L141.4,21.4z"/>
	<path id="path28" class="st0" d="M260.3,81.6v24.2c0,7.2-3.3,10.1-10.1,10.1c-7.2,0-8.9-4.6-8.9-9.9v-1.5h6.2v1.1
		c0,3.6,0.6,5.3,3,5.3s3-1.7,3-5.3V81.6H260.3z"/>
	<path id="path30" class="st0" d="M294.3,81.6h8.4l8.9,33.6h-7.1l-1.6-7.1h-9l-1.6,7.1h-7.1L294.3,81.6z M295.2,102.6h6.6l-3.3-15.1
		h-0.1L295.2,102.6z"/>
	<path id="path32" class="st0" d="M335.9,81.6h11.8c6.9,0,9.2,5.1,9.2,10.1c0,7-4.3,10.1-10.7,10.1h-3.6v13.5h-6.8L335.9,81.6z
		 M342.7,96.9h3c2.7,0,4.5-1.6,4.5-5.1c0-3.3-1.3-5.2-4.7-5.2h-2.9L342.7,96.9L342.7,96.9z"/>
	<path id="path34" class="st0" d="M383.1,81.6h8.4l8.9,33.6h-7.1l-1.6-7.1h-9l-1.6,7.1h-7.1L383.1,81.6z M384,102.6h6.6l-3.3-15.1
		h-0.1L384,102.6z"/>
	<polygon id="polygon36" class="st0" points="445.4,115.3 437.8,115.3 429.4,91.8 429.4,91.8 429.4,115.3 423.2,115.3 423.2,81.6 
		431,81.6 439.1,104.7 439.2,104.7 439.2,81.6 445.4,81.6 	"/>
</g>
</svg>
