<svg viewBox="0 0 200 200" xmlns="http://www.w3.org/2000/svg"><defs><linearGradient id="ov_bga"><stop offset=".2" stop-color="#abfeff"/><stop offset=".47" stop-color="#28dbdd"/><stop offset=".91" stop-color="#137784"/></linearGradient><linearGradient id="ov_bgb" x1="100" x2="100" y1="0" y2="200" gradientTransform="rotate(30 100 100)" gradientUnits="userSpaceOnUse" href="#ov_bga"/></defs><path fill="url(#ov_bgb)" d="M186.6 150C159 197.83 97.83 214.22 50 186.6S-14.22 97.83 13.4 50 102.17-14.22 150 13.4s64.22 88.77 36.6 136.6M56.48 28.29c-.07.5-.63 33.61-1.25 73.6-.68 44.11-.63 72.43.12 71.97.67-.4 29-17.36 62.96-37.66l61.72-36.92-17.65-10.5c-9.7-5.78-18.09-10.36-18.63-10.18-1.4.46-43.45 36.56-44.29 38.02-.96 1.67 0 3.22 4.54 7.27l3.92 3.5-7.36.43c-8.28.5-14.92 3.43-22.5 9.93-4.48 3.84-4.8 3.95-4.44 1.56 2.26-14.89 1.28-23.77-3.33-30.49-1.31-1.9-2.25-3.72-2.08-4.03.16-.3 2.25.2 4.65 1.12 5.06 1.96 7.98 2.19 8.85.69.34-.59 2.97-13.81 5.85-29.38l5.23-28.3L74.7 38.14c-9.94-5.91-18.14-10.35-18.22-9.86"/></svg>
