<svg xmlns:xlink="http://www.w3.org/1999/xlink" width="800" height="129"><defs><linearGradient id="ov_bga"><stop offset=".2" stop-color="#abfeff"/><stop offset=".5" stop-color="#28dbdd"/><stop offset=".9" stop-color="#137784"/></linearGradient><linearGradient xlink:href="#ov_bga" id="ov_bgb" x1="387.1" x2="387.1" y1="-2.5" y2="130.8" gradientUnits="userSpaceOnUse"/></defs><path fill="url(#ov_bgb)" fill-rule="evenodd" d="M55.8 1.1a63.9 63.9 0 1 0 57.3 104.7q15-17.8 14.9-41a55 55 0 0 0-6.7-28.7A64 64 0 0 0 55.8 1M494.2.8c.1.5 16.7 29.3 36.8 64 22 38.4 36.7 62.7 37.1 62L605 63 641 .5 619.9.2c-11.6-.1-21.5.1-21.9.5a990 990 0 0 0-19.9 54.8c0 2 1.7 2.8 7.8 4l5.3 1-6.3 4.1a36 36 0 0 0-15 19.8c-2 5.5-2.3 5.7-3.2 3.5-5.6-14-11-21.1-18.6-24.6-2.2-1-4-2-4-2.4s2.1-1 4.7-1.4q8.4-1.1 8.3-3.8c0-.7-4.5-13.4-10-28.2l-9.8-27-21.7-.3c-12-.1-21.5.1-21.3.6m242 .2A17.7 17.7 0 0 0 723 21.7c4.5 19.9 34 17 34-3.4 0-5.8-1-8.3-4.4-12.1-4-4.5-10.4-6.5-16.5-5.2M769 62.5V125h31V0h-31zM180 28a52 52 0 0 0-39 32.7 57 57 0 0 0-2 27.4 52 52 0 0 0 48.7 39.9c11 0 24-4.6 31.6-11.2l3.8-3.3-9.5-9.4c-9.3-9.2-9.6-9.4-11.5-7.7a23.3 23.3 0 1 1-2.3-38.8c5.5 3 5.8 2.8 15.7-7.8l7.7-8.3-3.4-2.8A61 61 0 0 0 196 28a38 38 0 0 0-16 0m87.5 0A48.4 48.4 0 0 0 225 78c0 18.8 6.8 32 21.3 41.6a61 61 0 0 0 41.4 7.5 58 58 0 0 0 24.3-10.8l3.5-3-8.6-8.7-8.6-8.7-4.6 3.5c-12 9.1-30.6 6.2-37.4-5.8-4.5-8-6.6-7.5 32.2-7.5H323v-7.2c0-27.4-15.6-47.3-39.5-50.8-7.7-1-7.5-1-16 0M368 28a67 67 0 0 0-30.5 12.4l-3 2.5 7.9 8 7.8 7.9 4.2-2.8c8.9-6 20.4-7.6 28.3-4 4.7 2 6.9 4.9 7.8 10l.7 3.7-11.3.7q-39.4 2.3-47.8 20a32 32 0 0 0 .5 24.4q7.8 15.7 31.4 15.7c11 0 17.4-2.3 23-8 1.9-2 3.8-3.5 4.2-3.5s.8 2.2.8 5v5h27V94.7c0-33.8-.8-39.7-6.1-49.8q-4.7-8.9-13.4-13.1A68 68 0 0 0 368 28m99 .1a46 46 0 0 0-31.6 24.2C432 60 431.1 69 431 98.7V125h31V96.4c0-29.4.1-30.6 4.3-35.1 4.4-4.9 14.3-3.7 17.8 2 1.7 3 1.9 5.4 1.9 32.5V125h31.1l-.3-31.7c-.3-30.1-.4-32.1-2.5-37.7A43.5 43.5 0 0 0 467 28m191.4-.1a50 50 0 0 0-36.6 24.4c-13.4 26-4.8 57.5 19 69.3a59 59 0 0 0 62.7-6.2l3-2.5-8.8-8.8-8.8-8.9-3 2.7a26 26 0 0 1-25.3 5.6c-8.3-2.4-15.6-9.7-15.6-15.5 0-2 .4-2.1 34.5-2.1H714v-5.2c-.1-31.3-16.6-50.9-44.5-53.1-3.3-.3-8.3-.2-11.1.3M58 31a33 33 0 0 0-27 27.7 33.5 33.5 0 0 0 33.5 39.5 32.6 32.6 0 0 0 33.6-33.7 33 33 0 0 0-30.6-33.8c-2.7-.3-7-.1-9.5.4M725 85v40h30V45h-30zM268.1 49.5a23 23 0 0 0-12.7 11.2c-2.8 6.5-3.5 6.3 19.1 6.3H295v-2.2c0-3.1-3.3-10-5.8-12.1-4.9-4.4-13.3-5.6-21-3.2m392.2-.6c-7.7 2-14 8.1-15 14.6l-.7 3.5h41.5l-.7-3.7a20 20 0 0 0-8.6-12.9 31 31 0 0 0-16.5-1.5M375.4 84c-12.2 1.6-17.4 5.4-17.4 12.5q0 8.7 9.7 10c13.4 2 22.4-4.6 23.9-17.8l.7-5.7-5.4.1c-3 .1-8.1.5-11.5 1"/></svg>
