<svg xmlns="http://www.w3.org/2000/svg" viewBox="0 0 901 255">
    <style>
        .shahid_txt {
            fill: currentColor
        }
    </style>
    <path
        d="M596.668 86.93c0 20.03 16.23 36.203 36.203 36.203 19.973 0 36.2-16.227 36.2-36.203 0-19.973-16.227-36.2-36.2-36.2-19.973 0-36.203 16.227-36.203 36.2zm0 0"
        fill="#00d358" />
    <path
        d="M712.594 86.93c0 20.03 16.226 36.203 36.199 36.203 19.977 0 36.203-16.227 36.203-36.203 0-19.973-16.226-36.2-36.203-36.2-19.973 0-36.2 16.227-36.2 36.2zm0 0"
        fill="#0c9" />
    <path
        d="M828.512 86.93c0 20.03 16.226 36.203 36.203 36.203 19.972 0 36.2-16.227 36.2-36.203 0-19.973-16.227-36.2-36.2-36.2-19.977 0-36.203 16.227-36.203 36.2zm0 0"
        fill="#09f" />
    <path class="shahid_txt"
        d="M553.2 173.86V0h-57.993v231.848H842.98V255h57.993v-81.14zm0 0M104.766 154.281v19.578H.02v57.989h451.785V117.516c0-48.914-39.778-88.692-88.692-88.692-26.554 0-54.133 12.996-68.543 35.578-69.68-1.191-103.156 53.567-81.937 109.512H162.87v-27.062c0-17.364-2.781-29.168-9.531-42.786-23.266-46.984-75.242-65.593-137.035-43.804v53.336c27.066-9.133 88.52-24.399 88.52 40.683zm180.78-37.164c15.661 0 28.372 12.766 28.372 28.371v28.371h-28.371c-15.66 0-28.371-12.71-28.371-28.37s12.77-28.372 28.37-28.372zm81.712 56.797v-29.219c0-22.132-8.344-42.386-21.961-57.765a35.011 35.011 0 0117.762-4.825c19.52 0 35.351 15.891 35.351 35.352v56.402h-31.152zm0 0" />
</svg>
