<?xml version="1.0" encoding="UTF-8" standalone="no"?>
<svg
   xmlns:dc="http://purl.org/dc/elements/1.1/"
   xmlns:cc="http://creativecommons.org/ns#"
   xmlns:rdf="http://www.w3.org/1999/02/22-rdf-syntax-ns#"
   xmlns:svg="http://www.w3.org/2000/svg"
   xmlns="http://www.w3.org/2000/svg"
   xmlns:sodipodi="http://sodipodi.sourceforge.net/DTD/sodipodi-0.dtd"
   xmlns:inkscape="http://www.inkscape.org/namespaces/inkscape"
   height="168px"
   width="168px"
   version="1.1"
   viewBox="0 0 168 168"
   id="svg4"
   sodipodi:docname="spotify.svg"
   inkscape:version="0.92.4 (5da689c313, 2019-01-14)">
  <metadata
     id="metadata10">
    <rdf:RDF>
      <cc:Work
         rdf:about="">
        <dc:format>image/svg+xml</dc:format>
        <dc:type
           rdf:resource="http://purl.org/dc/dcmitype/StillImage" />
      </cc:Work>
    </rdf:RDF>
  </metadata>
  <path
     d="m 83.996,0.277 c -46.249,0 -83.743,37.493 -83.743,83.742 0,46.251 37.494,83.741 83.743,83.741 46.254,0 83.744,-37.49 83.744,-83.741 0,-46.246 -37.49,-83.738 -83.745,-83.738 z m 38.404,120.78 c -1.5,2.46 -4.72,3.24 -7.18,1.73 -19.662,-12.01 -44.414,-14.73 -73.564,-8.07 -2.809,0.64 -5.609,-1.12 -6.249,-3.93 -0.643,-2.81 1.11,-5.61 3.926,-6.25 31.9,-7.288 59.263,-4.15 81.337,9.34 2.46,1.51 3.24,4.72 1.73,7.18 z m 10.25,-22.802 c -1.89,3.072 -5.91,4.042 -8.98,2.152 -22.51,-13.836 -56.823,-17.843 -83.448,-9.761 -3.453,1.043 -7.1,-0.903 -8.148,-4.35 -1.04,-3.453 0.907,-7.093 4.354,-8.143 30.413,-9.228 68.222,-4.758 94.072,11.127 3.07,1.89 4.04,5.91 2.15,8.976 z m 0.88,-23.744 C 106.54,58.48 62.01,57.006 36.241,64.827 c -4.138,1.255 -8.514,-1.081 -9.768,-5.219 -1.254,-4.14 1.08,-8.513 5.221,-9.771 29.581,-8.98 78.756,-7.245 109.83,11.202 3.73,2.209 4.95,7.016 2.74,10.733 -2.2,3.722 -7.02,4.949 -10.73,2.739 z"
     style="fill:#1ed760"
     />
</svg>
