<svg xmlns="http://www.w3.org/2000/svg" viewBox="0 0 1000 292.49229" version="1.1">
    <path
        d="M44.2165 0v60.4068H0v96.95192h44.2165v25.83434c0 72.30324 43.44278 109.26998 110.76042 109.26998 25.90515 0 52.18453-5.57187 75.69116-17.09627v-77.09392c-11.55355 3.96738-23.50999 6.3563-35.4638 6.3563-21.50758 0-41.03103-9.9219-41.03103-38.53235V0Zm542.63838.0147v286.10664h109.95677v-40.12508c15.13192 22.64852 38.63702 46.49601 78.87659 46.49601 54.18787 0 97.59482-40.54851 97.59482-119.22088 0-78.67311-43.40695-119.20628-97.59482-119.20628-40.23957 0-63.74467 23.84675-78.87659 46.496V.01461ZM223.88801 54.06511c-33.46138 0-55.76012 23.44955-55.76012 55.62862 0 32.17984 22.29874 55.61402 55.76012 55.61402 33.46068 0 55.77474-23.43418 55.77474-55.61402 0-32.17907-22.31406-55.62862-55.77474-55.62862zm70.12392 6.3417v146.23882c0 61.98581 37.04712 85.83203 82.06208 85.83203 45.01495 0 66.14001-17.88555 82.47122-46.496v40.13968h106.77128V60.40681H455.35977v137.88064c0 22.2505-12.34473 30.61256-27.07639 30.61256-13.9521 0-24.3147-8.36206-24.3147-30.61256V60.40681Zm596.03136 0v225.71453H1000V60.40681Zm-161.75698 57.23596c22.31112 0 35.06923 19.86069 35.06923 55.62862 0 35.74771-12.36158 55.62862-35.06923 55.62862-22.70687 0-35.05465-19.88091-35.05465-55.62862 0-35.74848 12.74729-55.62862 35.05465-55.62862z"
        fill="currentColor" />
</svg>
