<svg viewBox="0 0 100 100"><path d="M83.66 11.91c0-1.86-1.5-3.36-3.36-3.36l-.34.04-60.6 6.06a3.34 3.34 0 0 0-3.04 3.32v39.89A33.7 33.7 0 0 0 33.15 87c22.45 12.96 50.51-3.23 50.51-29.16zm8.43-1.8v47.75a42.1 42.1 0 0 1-21.04 36.43C43 110.5 7.92 90.26 7.91 57.85V16.51c0-5.2 3.93-9.54 9.1-10.06L80.97.05l1-.05a10.1 10.1 0 0 1 10.11 10.11M67.66 21.15c1.88 0 3.39 1.5 3.39 3.36v33.3c0 7.52-4.02 14.47-10.52 18.22-14.03 8.11-31.57-2.01-31.58-18.21V28.05A3.3 3.3 0 0 1 32 24.69l35.34-3.52h.33z" fill="currentColor"/></svg>
