<svg viewBox="0 0 377.95 68.13"><path d="M51.64 39.44a22.953 22.953 0 01-45.907 0V12.253c0-1.186.907-2.16 2.067-2.266l41.32-4.134.227-.026A2.293 2.293 0 0151.64 8.12zM50.493 0l-.68.04L6.2 4.4A6.88 6.88 0 000 11.253V39.44a28.693 28.693 0 0057.387 0V6.893A6.88 6.88 0 0050.493 0m-9.76 14.453h-.226l-24.094 2.4a2.267 2.267 0 00-2.066 2.294V39.44a14.347 14.347 0 0028.693 0V16.733a2.296 2.296 0 00-2.307-2.293M220.386 3.094h-8.853c-.8 0-1.467.666-1.467 1.48V42.52l-17.6-37.72a2.933 2.933 0 00-2.68-1.706h-9.213a2.962 2.962 0 00-2.96 2.96V63.56c0 .813.667 1.48 1.467 1.48h8.866c.8 0 1.467-.667 1.467-1.467v-37.96l17.6 37.734a2.933 2.933 0 002.68 1.693h9.213c1.627 0 2.96-1.333 2.96-2.947V4.573c0-.813-.667-1.466-1.48-1.466m51.133-.013H237.6c-1.226 0-2.213 1-2.213 2.213v57.52c0 1.226.987 2.213 2.213 2.213h33.92c.8 0 1.467-.667 1.467-1.467v-8.12c0-.813-.667-1.466-1.467-1.466h-22.866V14.16h22.866c.8 0 1.467-.667 1.467-1.467v-8.12c0-.813-.667-1.466-1.467-1.466M163.106 28.173H147.6c-.8 0-1.467.667-1.467 1.467v8.12c0 .8.667 1.467 1.467 1.467h15.493c.8 0 1.467-.667 1.467-1.467v-8.12c0-.8-.667-1.467-1.467-1.467m-31.467-25.08h-10.32a1.467 1.467 0 00-1.48 1.48v39.814c0 6.36-2.986 9.6-8.853 9.6s-8.84-3.24-8.84-9.6v-39.8c0-.813-.667-1.467-1.467-1.467H90.333a1.467 1.467 0 00-1.467 1.467v39.8c0 14.666 7.454 22.133 22.107 22.133 14.667 0 22.133-7.467 22.133-22.133v-39.8c0-.813-.666-1.467-1.48-1.467m244.853-.026h-38.347c-.813 0-1.466.666-1.466 1.48v8.106c0 .813.653 1.48 1.466 1.48h12.534v49.4c0 .813.666 1.48 1.466 1.48h10.334c.813 0 1.466-.667 1.466-1.467V14.16h12.534c.826 0 1.48-.667 1.48-1.467v-8.12c0-.813-.667-1.466-1.467-1.466" fill="currentColor" /><path d="M253.826 28.173c-.813 0-1.48.667-1.48 1.467v8.12c0 .8.667 1.467 1.467 1.467h15.493c.813 0 1.467-.667 1.467-1.467v-8.12c0-.8-.654-1.467-1.467-1.467zm74.973-25.08h-10.893a2.22 2.22 0 00-2 1.28l-8.627 18.48-8.613-18.48a2.22 2.22 0 00-2-1.28h-10.893a1.467 1.467 0 00-1.294 2.174l15.36 28.8-15.36 28.8a1.467 1.467 0 001.294 2.173h10.88a2.17 2.17 0 002-1.28l8.626-18.48 8.627 18.48a2.198 2.198 0 002 1.28h10.88a1.479 1.479 0 001.307-2.173l-15.36-28.8 15.36-28.8a1.467 1.467 0 00-1.307-2.173" fill="currentColor"/></svg>
