<svg xmlns="http://www.w3.org/2000/svg" viewBox="-230 382 27.85 30" id="logo">
  <path fill="#e3474b" d="M-224.5,385.9c-2.4,1.8-4.3,4.5-5.1,7.7c-1.2,4.8,0.2,9.7,3.4,13c0,0,0.6,0.6,0.7,0.5c0,0,0,0-0.1-0.3 c-2.5-3.9-1.2-8-0.5-9.6c0.1-0.3,0.2-0.2,0.2-0.2c0.1,0,0.2,0.4,0.2,0.4c0.6,5.8,2.6,9.6,3.8,11.4c0,0,0.3,0.5,0.5,0.3 c0,0,0.1-0.1,0.1-0.4c-0.1-1.7,0.3-5.4,3.6-12.2c3.1-6.4,4.5-9.9,5-11.6c0,0,0.2-0.5,0-0.6c0,0-0.2-0.1-0.5,0.3 c-1.7,1.9-5.4,6.1-7.1,8.5c0,0-0.2,0.2-0.3,0.2c0,0-0.1,0-0.1-0.4c0.1-1.9,0.8-6.8,3.3-9c0,0,0.3-0.2,0.2-0.4c0,0-0.1-0.2-0.7,0 c-2.4,0.9-6.5,3-8.9,8.2c0,0-0.1,0.3-0.2,0.3c0,0-0.1,0,0-0.5c0.2-1.3,0.8-3.7,2.8-5.6c0,0,0.4-0.4,0.3-0.4 C-223.8,385.5-223.9,385.5-224.5,385.9z" />
  <path fill="#e3474b" d="M-207.7,408.1c2.5-1.8,4.3-4.5,5.1-7.7c1.2-4.8-0.2-9.7-3.4-13c0,0-0.6-0.6-0.7-0.5c0,0,0,0,0.1,0.3 c2.5,3.9,1.2,8,0.5,9.6c-0.1,0.3-0.2,0.2-0.2,0.2c-0.1,0-0.2-0.4-0.2-0.4c-0.6-5.8-2.6-9.6-3.8-11.4c0,0-0.3-0.5-0.5-0.3 c0,0-0.1,0.1-0.1,0.4c0.1,1.7-0.3,5.4-3.6,12.2c-3.1,6.4-4.5,9.9-5,11.6c0,0-0.2,0.5,0,0.6c0,0,0.2,0.1,0.5-0.3 c1.7-1.9,5.4-6.1,7.1-8.5c0,0,0.2-0.2,0.3-0.2c0,0,0.1,0,0.1,0.4c-0.1,1.9-0.8,6.8-3.3,9c0,0-0.3,0.2-0.2,0.4c0,0,0.1,0.2,0.6,0 c2.4-0.9,6.5-3,8.9-8.2c0,0,0.1-0.3,0.2-0.3c0,0,0.1,0,0,0.5c-0.2,1.3-0.8,3.7-2.8,5.6c0,0-0.4,0.4-0.3,0.4 C-208.3,408.5-208.3,408.5-207.7,408.1z" />
</svg>