<svg xmlns="http://www.w3.org/2000/svg" viewBox="-230 382 144.8 30" id="logo">
  <g fill="#e3474b">
    <path d="M-224.5,385.9c-2.4,1.8-4.3,4.5-5.1,7.7c-1.2,4.8,0.2,9.7,3.4,13c0,0,0.6,0.6,0.7,0.5c0,0,0,0-0.1-0.3 c-2.5-3.9-1.2-8-0.5-9.6c0.1-0.3,0.2-0.2,0.2-0.2c0.1,0,0.2,0.4,0.2,0.4c0.6,5.8,2.6,9.6,3.8,11.4c0,0,0.3,0.5,0.5,0.3 c0,0,0.1-0.1,0.1-0.4c-0.1-1.7,0.3-5.4,3.6-12.2c3.1-6.4,4.5-9.9,5-11.6c0,0,0.2-0.5,0-0.6c0,0-0.2-0.1-0.5,0.3 c-1.7,1.9-5.4,6.1-7.1,8.5c0,0-0.2,0.2-0.3,0.2c0,0-0.1,0-0.1-0.4c0.1-1.9,0.8-6.8,3.3-9c0,0,0.3-0.2,0.2-0.4c0,0-0.1-0.2-0.7,0 c-2.4,0.9-6.5,3-8.9,8.2c0,0-0.1,0.3-0.2,0.3c0,0-0.1,0,0-0.5c0.2-1.3,0.8-3.7,2.8-5.6c0,0,0.4-0.4,0.3-0.4 C-223.8,385.5-223.9,385.5-224.5,385.9z" />
    <path d="M-207.7,408.1c2.5-1.8,4.3-4.5,5.1-7.7c1.2-4.8-0.2-9.7-3.4-13c0,0-0.6-0.6-0.7-0.5c0,0,0,0,0.1,0.3 c2.5,3.9,1.2,8,0.5,9.6c-0.1,0.3-0.2,0.2-0.2,0.2c-0.1,0-0.2-0.4-0.2-0.4c-0.6-5.8-2.6-9.6-3.8-11.4c0,0-0.3-0.5-0.5-0.3 c0,0-0.1,0.1-0.1,0.4c0.1,1.7-0.3,5.4-3.6,12.2c-3.1,6.4-4.5,9.9-5,11.6c0,0-0.2,0.5,0,0.6c0,0,0.2,0.1,0.5-0.3 c1.7-1.9,5.4-6.1,7.1-8.5c0,0,0.2-0.2,0.3-0.2c0,0,0.1,0,0.1,0.4c-0.1,1.9-0.8,6.8-3.3,9c0,0-0.3,0.2-0.2,0.4c0,0,0.1,0.2,0.6,0 c2.4-0.9,6.5-3,8.9-8.2c0,0,0.1-0.3,0.2-0.3c0,0,0.1,0,0,0.5c-0.2,1.3-0.8,3.7-2.8,5.6c0,0-0.4,0.4-0.3,0.4 C-208.3,408.5-208.3,408.5-207.7,408.1z" />
    <g>
      <path d="M-159,405.4l-6.7-14.3c-0.2-0.5-0.7-0.8-1.3-0.8c-0.5,0-1,0.3-1.3,0.8l-5.8,12.3 c-0.3,0.6-0.1,1.2,0.3,1.6c0.5,0.4,1.1,0.4,1.7,0.2l8-4c0.7,1.5,1.4,3,2,4.2H-159z M-170,401.4l3.1-6.4c0,0,0.8,1.8,1.9,4 L-170,401.4z" />
      <path d="M-128.6,405.4l-6.7-14.3c-0.2-0.5-0.7-0.8-1.3-0.8c-0.5,0-1,0.3-1.3,0.8l-5.8,12.3 c-0.3,0.6-0.1,1.2,0.3,1.6c0.5,0.4,1.1,0.4,1.7,0.2l8-4c0.7,1.5,1.4,3,2,4.2H-128.6z M-139.6,401.4l3.1-6.4c0,0,0.8,1.8,1.9,4 L-139.6,401.4z" />
      <path d="M-175.5,390.3c-0.9,2.8-2,6.6-2.8,9.2c-1.3-3.6-2.9-8.3-2.9-8.3c-0.2-0.6-0.7-0.9-1.3-0.9 c-0.6,0-1.1,0.4-1.3,0.9c0,0-1.7,4.7-3,8.3c-0.8-2.6-2-6.4-2.8-9.3h-2.9l4.3,14.1c0.2,0.6,0.7,1,1.3,1c0.6,0,1.2-0.4,1.4-0.9 c0,0,1.8-5,3.1-8.6c1.3,3.6,3,8.6,3,8.6c0.2,0.6,0.8,0.9,1.4,0.9c0.6,0,1.1-0.4,1.3-1l4.3-14.1H-175.5z" />
      <path d="M-102.2,405.4c0.9-2.8,2-6.6,2.8-9.2c1.3,3.6,2.9,8.3,2.9,8.3c0.2,0.6,0.7,0.9,1.3,0.9 c0.6,0,1.1-0.4,1.3-0.9c0,0,1.7-4.7,3-8.3c0.8,2.6,2,6.4,2.8,9.3h2.9l-4.3-14.1c-0.2-0.6-0.7-1-1.3-1c-0.6,0-1.2,0.4-1.4,0.9 c0,0-1.8,5-3.1,8.6c-1.3-3.6-3-8.6-3-8.6c-0.2-0.6-0.8-0.9-1.4-0.9c-0.6,0-1.1,0.4-1.3,1l-4.3,14.1H-102.2z" />
      <path d="M-145.6,403.2c-1.5-2.1-3.9-5.7-4.5-6.3c-0.3-0.3-0.6-0.5-1.1-0.5l5-3.5c0.6-0.4,0.8-1.3,0.3-2 c-0.4-0.6-1.3-0.8-2-0.3l-6.7,4.7v-4.9h-2.8v15.1h2.8v-6.8l0.7-0.5c0.3,0,1,0.1,1.6,0.8c0.4,0.4,2.4,3.3,4.2,5.9 c0.4,0.6,1.3,0.8,2,0.4C-145.3,404.7-145.2,403.8-145.6,403.2z" />
      <path d="M-117.5,390.3v9.6l-6.8-9c-0.4-0.5-1-0.7-1.6-0.5c-0.6,0.2-1,0.7-1,1.3v13.7h2.8v-9.6c2.7,3.5,6.8,9,6.8,9 c0.4,0.5,1,0.7,1.6,0.5c0.6-0.2,1-0.7,1-1.3v-13.7H-117.5z" />
      <rect x="-110.5" y="390.3" width="2.8" height="15.1" />
    </g>
  </g>
</svg>