<svg xmlns="http://www.w3.org/2000/svg" viewBox="0 0 124 32"><defs><path id="wetv-grad-a" d="M1.28 3.48a69 69 0 0 0-.02 25.03A4.26 4.26 0 0 0 5.44 32h.03q.71 0 1.42-.25a69 69 0 0 0 11.52-5.37c3.65-2.13 7.3-4.27 10.13-7.2 2.28-2.38 2-4.59-.02-6.48-3-2.83-6.57-5.1-10.28-7.23A69 69 0 0 0 6.88.24a4.26 4.26 0 0 0-5.6 3.24"/><path id="wetv-grad-d" d="M1.07 2.83C.07 5.53 0 8.5 0 11.47v1.2c0 3.34-.02 6.72 1.05 9.78.99 2.82 2.92 3.23 5.2 2.54l.3-.1A69 69 0 0 1 6.56.39l-.3-.1A5 5 0 0 0 4.73.06c-1.63 0-2.98.9-3.67 2.78"/><path id="wetv-grad-g" d="M.13 12.7q0 6.28 1.09 12.22 5.3-1.62 10.37-4.12a52 52 0 0 0 9.37-5.65c2.07-1.65 1.87-3.56-.01-5.07-2.8-2.25-6.09-4-9.52-5.67a70 70 0 0 0-10.2-4q-1.09 6-1.1 12.3"/><path id="wetv-grad-j" d="M.62.94s-.2.51-.2 5.04.2 5.08.2 5.08c.12.56.37.74.98.6 0 0 1.02-.15 5.13-2.22s4.8-2.84 4.8-2.84c.45-.43.56-.72 0-1.2 0 0-1.13-1.03-4.8-2.9C3.1.65 1.6.34 1.6.34A1 1 0 0 0 1.28.3Q.78.28.62.94"/><linearGradient id="wetv-grad-b" x1="29.83%" x2="56.88%" y1="-4.91%" y2="86.29%"><stop offset="0%" stop-color="#57CAFF"/><stop offset="100%" stop-color="#0083F4"/></linearGradient><linearGradient id="wetv-grad-e" x1="50.59%" x2="49.69%" y1="78.54%" y2="5.7%"><stop offset="0%" stop-color="#FF7004"/><stop offset="100%" stop-color="#FFBA00"/></linearGradient><linearGradient id="wetv-grad-h" x1="23.57%" x2="59.68%" y1="103.37%" y2="5.13%"><stop offset="0%" stop-color="#60BA08"/><stop offset="100%" stop-color="#B5FF24"/></linearGradient></defs><g fill="none" fill-rule="evenodd"><g transform="translate(5.33)"><mask id="wetv-grad-c" fill="#fff"><use href="#wetv-grad-a"/></mask><path fill="url(#wetv-grad-b)" d="M1.28 3.48a69 69 0 0 0-.02 25.03A4.26 4.26 0 0 0 5.44 32h.03q.71 0 1.42-.25a69 69 0 0 0 11.52-5.37c3.65-2.13 7.3-4.27 10.13-7.2 2.28-2.38 2-4.59-.02-6.48-3-2.83-6.57-5.1-10.28-7.23A69 69 0 0 0 6.88.24a4.26 4.26 0 0 0-5.6 3.24" mask="url(#wetv-grad-c)"/></g><g transform="translate(0 2.67)"><mask id="wetv-grad-f" fill="#fff"><use href="#wetv-grad-d"/></mask><path fill="url(#wetv-grad-e)" d="M1.07 2.83C.07 5.53 0 8.5 0 11.47v1.2c0 3.34-.02 6.72 1.05 9.78.99 2.82 2.92 3.23 5.2 2.54l.3-.1A69 69 0 0 1 6.56.39l-.3-.1A5 5 0 0 0 4.73.06c-1.63 0-2.98.9-3.67 2.78" mask="url(#wetv-grad-f)"/></g><g transform="translate(5.33 2.67)"><mask id="wetv-grad-i" fill="#fff"><use href="#wetv-grad-g"/></mask><path fill="url(#wetv-grad-h)" d="M.13 12.7q0 6.28 1.09 12.22 5.3-1.62 10.37-4.12a52 52 0 0 0 9.37-5.65c2.07-1.65 1.87-3.56-.01-5.07-2.8-2.25-6.09-4-9.52-5.67a70 70 0 0 0-10.2-4q-1.09 6-1.1 12.3" mask="url(#wetv-grad-i)"/></g><use fill="#FFF" href="#wetv-grad-j" transform="translate(9.33 9.33)"/><path fill="currentColor" d="M80.04 12.94q1.49 0 2.63.52 1.16.52 1.86 1.47c1.32 1.76 1.32 4.15.93 6.22a.55.55 0 0 1-.55.44H75.4q.08 1.23.84 1.96.76.74 2.02.74 1.05 0 1.85-.48.47-.28.9-.67c.33-.3.84-.3 1.19-.02l1.25 1.03a.92.92 0 0 1 0 1.42 8.5 8.5 0 0 1-8.4 1.47 5.8 5.8 0 0 1-3.57-3.78q-.4-1.35-.18-3.01a8 8 0 0 1 2.98-5.32 9 9 0 0 1 2.66-1.47q1.5-.52 3.1-.52M48.4 6.93a.9.9 0 0 1 .9.82l1.32 12.18h.06l5.83-12.47a.9.9 0 0 1 .82-.53h2.8a.9.9 0 0 1 .9.76l2.22 12.59h.06L68.35 7.5a.9.9 0 0 1 .85-.58h2.51c.66 0 1.1.67.84 1.28l-7.97 18.45a.9.9 0 0 1-.84.55h-2.61a.9.9 0 0 1-.9-.76l-2.39-13.28h-.06l-6.17 13.5a.9.9 0 0 1-.83.54h-2.47a.9.9 0 0 1-.9-.78L44.5 8a.9.9 0 0 1 .91-1.06zm54.16 0a.9.9 0 0 1 .9 1.04l-.29 2.12a.9.9 0 0 1-.9.8h-4.99L95.1 26.41a.9.9 0 0 1-.9.79h-2.63a.9.9 0 0 1-.9-1.05l2.14-15.28h-4.73a.9.9 0 0 1-.9-1.04l.28-2.12a.9.9 0 0 1 .9-.8zm6.14 0c.42 0 .8.3.89.7l2.98 12.59h.06l6.7-12.8c.16-.3.47-.49.81-.49h2.68c.7 0 1.14.75.8 1.36l-10.19 18.44a.9.9 0 0 1-.8.48h-2.33a.9.9 0 0 1-.88-.69l-4.8-18.45a.9.9 0 0 1 .89-1.14zm-29.5 9.1a3.4 3.4 0 0 0-2.28.82 3.3 3.3 0 0 0-1.12 1.82h5.67a2.3 2.3 0 0 0-.46-1.86 2.2 2.2 0 0 0-1.8-.77"/></g></svg>
