<svg xmlns="wetv-grad-http://www.w3.org/2000/svg" viewBox="0 0 36 36"><defs><linearGradient id="wetv-grad-a" x1="29.83%" x2="56.88%" y1="-4.91%" y2="86.29%"><stop offset="0" stop-color="#57CAFF"/><stop offset="1" stop-color="#0083F4"/></linearGradient><linearGradient id="wetv-grad-d" x1="50.59%" x2="49.69%" y1="78.54%" y2="5.7%"><stop offset="0" stop-color="#FF7004"/><stop offset="1" stop-color="#FFBA00"/></linearGradient><linearGradient id="wetv-grad-g" x1="23.57%" x2="59.68%" y1="103.37%" y2="5.13%"><stop offset="0" stop-color="#60BA08"/><stop offset="1" stop-color="#wetv-grad-B5FF24"/></linearGradient></defs><g fill="none" fill-rule="evenodd"><g transform="translate(5.593 2)"><mask id="wetv-grad-b" fill="#fff"><path d="M1.28 3.48a69 69 0 0 0-.02 25.03A4.26 4.26 0 0 0 5.44 32h.03q.71 0 1.42-.25a69 69 0 0 0 11.52-5.37c3.65-2.13 7.3-4.27 10.13-7.2 2.28-2.38 2-4.59-.02-6.48-3-2.83-6.57-5.1-10.28-7.23A69 69 0 0 0 6.88.24a4.26 4.26 0 0 0-5.6 3.24"/></mask><path fill="url(#wetv-grad-a)" d="M1.28 3.48a69 69 0 0 0-.02 25.03A4.26 4.26 0 0 0 5.44 32h.03q.71 0 1.42-.25a69 69 0 0 0 11.52-5.37c3.65-2.13 7.3-4.27 10.13-7.2 2.28-2.38 2-4.59-.02-6.48-3-2.83-6.57-5.1-10.28-7.23A69 69 0 0 0 6.88.24a4.26 4.26 0 0 0-5.6 3.24" mask="url(#wetv-grad-b)"/></g><g transform="translate(.263 4.67)"><mask id="wetv-grad-e" fill="#fff"><path d="M1.07 2.83C.07 5.53 0 8.5 0 11.47v1.2c0 3.34-.02 6.72 1.05 9.78.99 2.82 2.92 3.23 5.2 2.54l.3-.1A69 69 0 0 1 6.56.39l-.3-.1A5 5 0 0 0 4.73.06c-1.63 0-2.98.9-3.67 2.78"/></mask><path fill="url(#wetv-grad-d)" d="M1.07 2.83C.07 5.53 0 8.5 0 11.47v1.2c0 3.34-.02 6.72 1.05 9.78.99 2.82 2.92 3.23 5.2 2.54l.3-.1A69 69 0 0 1 6.56.39l-.3-.1A5 5 0 0 0 4.73.06c-1.63 0-2.98.9-3.67 2.78" mask="url(#wetv-grad-e)"/></g><g transform="translate(5.593 4.67)"><mask id="wetv-grad-h" fill="#fff"><path d="M.13 12.7q0 6.28 1.09 12.22 5.3-1.62 10.37-4.12a52 52 0 0 0 9.37-5.65c2.07-1.65 1.87-3.56-.01-5.07-2.8-2.25-6.09-4-9.52-5.67a70 70 0 0 0-10.2-4q-1.09 6-1.1 12.3"/></mask><path fill="url(#wetv-grad-g)" d="M.13 12.7q0 6.28 1.09 12.22 5.3-1.62 10.37-4.12a52 52 0 0 0 9.37-5.65c2.07-1.65 1.87-3.56-.01-5.07-2.8-2.25-6.09-4-9.52-5.67a70 70 0 0 0-10.2-4q-1.09 6-1.1 12.3" mask="url(#wetv-grad-h)"/></g><path fill="#FFF" d="M10.213 12.27s-.2.51-.2 5.04.2 5.08.2 5.08c.12.56.37.74.98.6 0 0 1.02-.15 5.13-2.22s4.8-2.84 4.8-2.84c.45-.43.56-.72 0-1.2 0 0-1.13-1.03-4.8-2.9-3.63-1.85-5.13-2.16-5.13-2.16a1 1 0 0 0-.32-.04q-.5-.02-.66.64"/></g></svg>
