<svg xmlns="http://www.w3.org/2000/svg" id="Layer_1" x="0" y="0" version="1.1" xml:space="preserve" viewBox="0 0 64 64">
  <path id="path4" fill="red" stroke-width=".53" d="M62.68 16.6a8.02 8.02 0 00-5.64-5.63C52.04 9.59 32 9.59 32 9.59s-20.03 0-25.04 1.32a8.18 8.18 0 00-5.64 5.7C0 21.6 0 32 0 32s0 10.44 1.32 15.4a8.02 8.02 0 005.64 5.63C12.02 54.41 32 54.41 32 54.41s20.03 0 25.04-1.32a8.02 8.02 0 005.64-5.64C64 42.44 64 32.05 64 32.05s.05-10.44-1.32-15.44z"/>
  <path id="path6" fill="#fff" stroke-width=".53" d="M25.62 41.6L42.28 32l-16.66-9.6z"/>
</svg>